<svg width="23" height="23" viewBox="0 0 23 23"  xmlns="http://www.w3.org/2000/svg">
<g clip-path="url(#clip0_2689_18717)">
<path d="M10.5418 8.62498H14.3752C14.6293 8.62498 14.8731 8.52401 15.0528 8.34429C15.2325 8.16457 15.3335 7.92081 15.3335 7.66665C15.3335 7.41248 15.2325 7.16872 15.0528 6.989C14.8731 6.80928 14.6293 6.70831 14.3752 6.70831H12.4585V5.74998C12.4585 5.49581 12.3575 5.25206 12.1778 5.07234C11.9981 4.89261 11.7543 4.79165 11.5002 4.79165C11.246 4.79165 11.0022 4.89261 10.8225 5.07234C10.6428 5.25206 10.5418 5.49581 10.5418 5.74998V6.70831C9.77934 6.70831 9.04807 7.01121 8.5089 7.55038C7.96973 8.08955 7.66683 8.82082 7.66683 9.58331C7.66683 10.3458 7.96973 11.0771 8.5089 11.6162C9.04807 12.1554 9.77934 12.4583 10.5418 12.4583H12.4585C12.7127 12.4583 12.9564 12.5593 13.1361 12.739C13.3159 12.9187 13.4168 13.1625 13.4168 13.4166C13.4168 13.6708 13.3159 13.9146 13.1361 14.0943C12.9564 14.274 12.7127 14.375 12.4585 14.375H8.62517C8.371 14.375 8.12725 14.4759 7.94752 14.6557C7.7678 14.8354 7.66683 15.0791 7.66683 15.3333C7.66683 15.5875 7.7678 15.8312 7.94752 16.011C8.12725 16.1907 8.371 16.2916 8.62517 16.2916H10.5418V17.25C10.5418 17.5041 10.6428 17.7479 10.8225 17.9276C11.0022 18.1073 11.246 18.2083 11.5002 18.2083C11.7543 18.2083 11.9981 18.1073 12.1778 17.9276C12.3575 17.7479 12.4585 17.5041 12.4585 17.25V16.2916C13.221 16.2916 13.9523 15.9887 14.4914 15.4496C15.0306 14.9104 15.3335 14.1791 15.3335 13.4166C15.3335 12.6541 15.0306 11.9229 14.4914 11.3837C13.9523 10.8445 13.221 10.5416 12.4585 10.5416H10.5418C10.2877 10.5416 10.0439 10.4407 9.86419 10.261C9.68447 10.0812 9.5835 9.83748 9.5835 9.58331C9.5835 9.32915 9.68447 9.08539 9.86419 8.90567C10.0439 8.72595 10.2877 8.62498 10.5418 8.62498ZM11.5002 0.958313C9.41522 0.958313 7.3771 1.57657 5.64353 2.7349C3.90996 3.89324 2.55881 5.53962 1.76094 7.46586C0.963064 9.3921 0.754303 11.5117 1.16106 13.5566C1.56781 15.6014 2.57181 17.4798 4.04608 18.9541C5.52036 20.4283 7.39871 21.4323 9.44359 21.8391C11.4885 22.2458 13.6081 22.0371 15.5343 21.2392C17.4605 20.4413 19.1069 19.0902 20.2652 17.3566C21.4236 15.623 22.0418 13.5849 22.0418 11.5C22.0418 8.70416 20.9312 6.02284 18.9543 4.0459C16.9773 2.06895 14.296 0.958313 11.5002 0.958313ZM11.5002 20.125C9.7943 20.125 8.12675 19.6191 6.70837 18.6714C5.29 17.7237 4.18451 16.3766 3.53171 14.8006C2.8789 13.2246 2.7081 11.4904 3.04089 9.81733C3.37369 8.14424 4.19514 6.60741 5.40137 5.40118C6.6076 4.19496 8.14443 3.3735 9.81751 3.04071C11.4906 2.70791 13.2248 2.87871 14.8008 3.53152C16.3768 4.18432 17.7239 5.28981 18.6716 6.70819C19.6193 8.12656 20.1252 9.79412 20.1252 11.5C20.1252 13.7875 19.2165 15.9813 17.599 17.5988C15.9815 19.2163 13.7877 20.125 11.5002 20.125Z"/>
</g>
<defs>
<clipPath id="clip0_2689_18717">
<rect width="23" height="23" fill="white"/>
</clipPath>
</defs>
</svg>
