<svg width="23" height="23" viewBox="0 0 23 23"   xmlns="http://www.w3.org/2000/svg">
<path d="M19.8471 16.0138L17.5279 13.6946C17.4388 13.6048 17.3328 13.5335 17.2161 13.4848C17.0993 13.4362 16.974 13.4111 16.8475 13.4111C16.721 13.4111 16.5957 13.4362 16.4789 13.4848C16.3622 13.5335 16.2562 13.6048 16.1671 13.6946L12.7362 17.1254C12.6474 17.215 12.5772 17.3212 12.5295 17.4379C12.4818 17.5547 12.4576 17.6797 12.4583 17.8059V20.125C12.4583 20.3792 12.5593 20.6229 12.739 20.8027C12.9187 20.9824 13.1625 21.0834 13.4167 21.0834H15.7358C15.862 21.0841 15.987 21.0599 16.1037 21.0122C16.2205 20.9645 16.3267 20.8943 16.4162 20.8054L19.8471 17.3746C19.9369 17.2855 20.0082 17.1795 20.0569 17.0627C20.1055 16.946 20.1306 16.8207 20.1306 16.6942C20.1306 16.5677 20.1055 16.4424 20.0569 16.3256C20.0082 16.2089 19.9369 16.1029 19.8471 16.0138ZM15.3333 19.1667H14.375V18.2084L16.8475 15.7359L17.8058 16.6942L15.3333 19.1667ZM9.58333 19.1667H5.75C5.49583 19.1667 5.25208 19.0657 5.07236 18.886C4.89263 18.7063 4.79167 18.4625 4.79167 18.2084V4.79169C4.79167 4.53752 4.89263 4.29377 5.07236 4.11404C5.25208 3.93432 5.49583 3.83335 5.75 3.83335H10.5417V6.70835C10.5417 7.47085 10.8446 8.20212 11.3837 8.74129C11.9229 9.28045 12.6542 9.58335 13.4167 9.58335H16.2917V10.5417C16.2917 10.7959 16.3926 11.0396 16.5724 11.2193C16.7521 11.3991 16.9958 11.5 17.25 11.5C17.5042 11.5 17.7479 11.3991 17.9276 11.2193C18.1074 11.0396 18.2083 10.7959 18.2083 10.5417V8.62502C18.2083 8.62502 18.2083 8.62502 18.2083 8.56752C18.1984 8.47948 18.1791 8.39275 18.1508 8.30877V8.22252C18.1048 8.12398 18.0433 8.03341 17.9688 7.95419L12.2188 2.20419C12.1395 2.12964 12.049 2.06818 11.9504 2.0221C11.9218 2.01804 11.8928 2.01804 11.8642 2.0221L11.5575 1.91669H5.75C4.9875 1.91669 4.25624 2.21959 3.71707 2.75876C3.1779 3.29792 2.875 4.02919 2.875 4.79169V18.2084C2.875 18.9708 3.1779 19.7021 3.71707 20.2413C4.25624 20.7805 4.9875 21.0834 5.75 21.0834H9.58333C9.8375 21.0834 10.0813 20.9824 10.261 20.8027C10.4407 20.6229 10.5417 20.3792 10.5417 20.125C10.5417 19.8709 10.4407 19.6271 10.261 19.4474C10.0813 19.2677 9.8375 19.1667 9.58333 19.1667ZM12.4583 5.1846L14.9404 7.66669H13.4167C13.1625 7.66669 12.9187 7.56572 12.739 7.386C12.5593 7.20627 12.4583 6.96252 12.4583 6.70835V5.1846ZM7.66667 13.4167H13.4167C13.6708 13.4167 13.9146 13.3157 14.0943 13.136C14.274 12.9563 14.375 12.7125 14.375 12.4584C14.375 12.2042 14.274 11.9604 14.0943 11.7807C13.9146 11.601 13.6708 11.5 13.4167 11.5H7.66667C7.4125 11.5 7.16875 11.601 6.98902 11.7807C6.8093 11.9604 6.70833 12.2042 6.70833 12.4584C6.70833 12.7125 6.8093 12.9563 6.98902 13.136C7.16875 13.3157 7.4125 13.4167 7.66667 13.4167ZM7.66667 9.58335H8.625C8.87917 9.58335 9.12292 9.48239 9.30264 9.30266C9.48237 9.12294 9.58333 8.87919 9.58333 8.62502C9.58333 8.37085 9.48237 8.1271 9.30264 7.94738C9.12292 7.76765 8.87917 7.66669 8.625 7.66669H7.66667C7.4125 7.66669 7.16875 7.76765 6.98902 7.94738C6.8093 8.1271 6.70833 8.37085 6.70833 8.62502C6.70833 8.87919 6.8093 9.12294 6.98902 9.30266C7.16875 9.48239 7.4125 9.58335 7.66667 9.58335ZM9.58333 15.3334H7.66667C7.4125 15.3334 7.16875 15.4343 6.98902 15.614C6.8093 15.7938 6.70833 16.0375 6.70833 16.2917C6.70833 16.5459 6.8093 16.7896 6.98902 16.9693C7.16875 17.1491 7.4125 17.25 7.66667 17.25H9.58333C9.8375 17.25 10.0813 17.1491 10.261 16.9693C10.4407 16.7896 10.5417 16.5459 10.5417 16.2917C10.5417 16.0375 10.4407 15.7938 10.261 15.614C10.0813 15.4343 9.8375 15.3334 9.58333 15.3334Z" />
</svg>
