<svg width="13" height="14" viewBox="0 0 13 14" fill="none" xmlns="http://www.w3.org/2000/svg">
<path opacity="0.5" fill-rule="evenodd" clip-rule="evenodd" d="M4 11.1411V12.1892C4 13.1687 4.76353 14 5.75 14H10.75C11.7365 14 12.5 13.1687 12.5 12.1892V3.81076C12.5 2.83133 11.7365 2 10.75 2H7.75V3.52689H10.75C10.8681 3.52689 11 3.63336 11 3.81076V12.1892C11 12.3666 10.8681 12.4731 10.75 12.4731H5.75C5.6319 12.4731 5.5 12.3666 5.5 12.1892V11.1411H4Z" fill="#333333"/>
<path fill-rule="evenodd" clip-rule="evenodd" d="M1.75 1.5C1.63191 1.5 1.5 1.60459 1.5 1.77887V10.0098C1.5 10.1841 1.6319 10.2887 1.75 10.2887H6.75C6.86809 10.2887 7 10.1841 7 10.0098V1.77887C7 1.60459 6.86809 1.5 6.75 1.5H1.75ZM0 1.77887C0 0.816689 0.763525 0 1.75 0H6.75C7.73647 0 8.5 0.816689 8.5 1.77887V10.0098C8.5 10.972 7.73647 11.7887 6.75 11.7887H1.75C0.763525 11.7887 0 10.972 0 10.0098V1.77887Z" fill="#333333"/>
</svg>
