<svg width="21" height="20" viewBox="0 0 21 20" fill="none" xmlns="http://www.w3.org/2000/svg">
<path d="M20.9165 7.57288C20.8508 7.38235 20.7311 7.215 20.5721 7.09112C20.4131 6.96724 20.2215 6.89215 20.0207 6.87497L14.0936 6.01038L11.4374 0.624968C11.3521 0.448852 11.2189 0.300324 11.0531 0.196399C10.8873 0.0924733 10.6956 0.0373535 10.4999 0.0373535C10.3042 0.0373535 10.1125 0.0924733 9.94666 0.196399C9.78085 0.300324 9.64767 0.448852 9.56238 0.624968L6.90613 5.99997L0.979041 6.87497C0.786252 6.90237 0.605004 6.98326 0.455865 7.10847C0.306725 7.23367 0.195666 7.39817 0.135291 7.5833C0.0800258 7.76421 0.0750663 7.95676 0.120945 8.14027C0.166824 8.32379 0.26181 8.49135 0.395708 8.62497L4.69779 12.7916L3.65613 18.7083C3.61894 18.9036 3.63841 19.1054 3.71224 19.29C3.78607 19.4746 3.91118 19.6342 4.07279 19.75C4.23031 19.8626 4.4161 19.9291 4.6093 19.9419C4.8025 19.9548 4.99547 19.9136 5.16654 19.8229L10.4999 17.0416L15.8124 19.8333C15.9586 19.9158 16.1237 19.9588 16.2915 19.9583C16.5122 19.9591 16.7274 19.8898 16.9061 19.7604C17.0677 19.6446 17.1928 19.485 17.2667 19.3004C17.3405 19.1159 17.36 18.914 17.3228 18.7187L16.2811 12.8021L20.5832 8.63538C20.7336 8.50797 20.8448 8.34049 20.9038 8.15241C20.9628 7.96434 20.9672 7.76338 20.9165 7.57288ZM14.5103 11.7396C14.3881 11.8577 14.2967 12.004 14.2441 12.1656C14.1914 12.3272 14.1791 12.4992 14.2082 12.6666L14.9582 17.0312L11.0415 14.9479C10.8908 14.8676 10.7227 14.8257 10.552 14.8257C10.3812 14.8257 10.2131 14.8676 10.0624 14.9479L6.14571 17.0312L6.89571 12.6666C6.92481 12.4992 6.91249 12.3272 6.85984 12.1656C6.80718 12.004 6.71579 11.8577 6.59363 11.7396L3.46863 8.61455L7.85404 7.97913C8.02279 7.95566 8.18321 7.89116 8.32123 7.79127C8.45925 7.69139 8.57067 7.55917 8.64571 7.40622L10.4999 3.43747L12.4582 7.41663C12.5333 7.56959 12.6447 7.7018 12.7827 7.80169C12.9207 7.90157 13.0811 7.96608 13.2499 7.98955L17.6353 8.62497L14.5103 11.7396Z" fill="white"/>
</svg>
