<svg width="19" height="20" viewBox="0 0 19 20" fill="none" xmlns="http://www.w3.org/2000/svg">
<path d="M7.41667 11.0417H1.16667C0.890399 11.0417 0.625447 11.1514 0.430097 11.3468C0.234747 11.5421 0.125 11.8071 0.125 12.0833V18.3333C0.125 18.6096 0.234747 18.8746 0.430097 19.0699C0.625447 19.2653 0.890399 19.375 1.16667 19.375H7.41667C7.69293 19.375 7.95789 19.2653 8.15324 19.0699C8.34859 18.8746 8.45833 18.6096 8.45833 18.3333V12.0833C8.45833 11.8071 8.34859 11.5421 8.15324 11.3468C7.95789 11.1514 7.69293 11.0417 7.41667 11.0417ZM6.375 17.2917H2.20833V13.125H6.375V17.2917ZM17.8333 0.625H11.5833C11.3071 0.625 11.0421 0.734747 10.8468 0.930097C10.6514 1.12545 10.5417 1.3904 10.5417 1.66667V7.91667C10.5417 8.19293 10.6514 8.45789 10.8468 8.65324C11.0421 8.84859 11.3071 8.95833 11.5833 8.95833H17.8333C18.1096 8.95833 18.3746 8.84859 18.5699 8.65324C18.7653 8.45789 18.875 8.19293 18.875 7.91667V1.66667C18.875 1.3904 18.7653 1.12545 18.5699 0.930097C18.3746 0.734747 18.1096 0.625 17.8333 0.625ZM16.7917 6.875H12.625V2.70833H16.7917V6.875ZM17.8333 14.1667H15.75V12.0833C15.75 11.8071 15.6403 11.5421 15.4449 11.3468C15.2496 11.1514 14.9846 11.0417 14.7083 11.0417C14.4321 11.0417 14.1671 11.1514 13.9718 11.3468C13.7764 11.5421 13.6667 11.8071 13.6667 12.0833V14.1667H11.5833C11.3071 14.1667 11.0421 14.2764 10.8468 14.4718C10.6514 14.6671 10.5417 14.9321 10.5417 15.2083C10.5417 15.4846 10.6514 15.7496 10.8468 15.9449C11.0421 16.1403 11.3071 16.25 11.5833 16.25H13.6667V18.3333C13.6667 18.6096 13.7764 18.8746 13.9718 19.0699C14.1671 19.2653 14.4321 19.375 14.7083 19.375C14.9846 19.375 15.2496 19.2653 15.4449 19.0699C15.6403 18.8746 15.75 18.6096 15.75 18.3333V16.25H17.8333C18.1096 16.25 18.3746 16.1403 18.5699 15.9449C18.7653 15.7496 18.875 15.4846 18.875 15.2083C18.875 14.9321 18.7653 14.6671 18.5699 14.4718C18.3746 14.2764 18.1096 14.1667 17.8333 14.1667ZM7.41667 0.625H1.16667C0.890399 0.625 0.625447 0.734747 0.430097 0.930097C0.234747 1.12545 0.125 1.3904 0.125 1.66667V7.91667C0.125 8.19293 0.234747 8.45789 0.430097 8.65324C0.625447 8.84859 0.890399 8.95833 1.16667 8.95833H7.41667C7.69293 8.95833 7.95789 8.84859 8.15324 8.65324C8.34859 8.45789 8.45833 8.19293 8.45833 7.91667V1.66667C8.45833 1.3904 8.34859 1.12545 8.15324 0.930097C7.95789 0.734747 7.69293 0.625 7.41667 0.625ZM6.375 6.875H2.20833V2.70833H6.375V6.875Z" fill="white"/>
</svg>
