<svg width="18" height="22" viewBox="0 0 18 22" fill="none" xmlns="http://www.w3.org/2000/svg">
<path d="M1.20964 11C0.933368 11 0.668416 11.1098 0.473066 11.3051C0.277716 11.5005 0.167969 11.7654 0.167969 12.0417V20.375C0.167969 20.6513 0.277716 20.9163 0.473066 21.1116C0.668416 21.307 0.933368 21.4167 1.20964 21.4167C1.4859 21.4167 1.75085 21.307 1.9462 21.1116C2.14156 20.9163 2.2513 20.6513 2.2513 20.375V12.0417C2.2513 11.7654 2.14156 11.5005 1.9462 11.3051C1.75085 11.1098 1.4859 11 1.20964 11ZM6.41797 0.583374C6.1417 0.583374 5.87675 0.693121 5.6814 0.888471C5.48605 1.08382 5.3763 1.34877 5.3763 1.62504V20.375C5.3763 20.6513 5.48605 20.9163 5.6814 21.1116C5.87675 21.307 6.1417 21.4167 6.41797 21.4167C6.69424 21.4167 6.95919 21.307 7.15454 21.1116C7.34989 20.9163 7.45964 20.6513 7.45964 20.375V1.62504C7.45964 1.34877 7.34989 1.08382 7.15454 0.888471C6.95919 0.693121 6.69424 0.583374 6.41797 0.583374ZM16.8346 15.1667C16.5584 15.1667 16.2934 15.2765 16.0981 15.4718C15.9027 15.6672 15.793 15.9321 15.793 16.2084V20.375C15.793 20.6513 15.9027 20.9163 16.0981 21.1116C16.2934 21.307 16.5584 21.4167 16.8346 21.4167C17.1109 21.4167 17.3759 21.307 17.5712 21.1116C17.7666 20.9163 17.8763 20.6513 17.8763 20.375V16.2084C17.8763 15.9321 17.7666 15.6672 17.5712 15.4718C17.3759 15.2765 17.1109 15.1667 16.8346 15.1667ZM11.6263 6.83337C11.35 6.83337 11.0851 6.94312 10.8897 7.13847C10.6944 7.33382 10.5846 7.59877 10.5846 7.87504V20.375C10.5846 20.6513 10.6944 20.9163 10.8897 21.1116C11.0851 21.307 11.35 21.4167 11.6263 21.4167C11.9026 21.4167 12.1675 21.307 12.3629 21.1116C12.5582 20.9163 12.668 20.6513 12.668 20.375V7.87504C12.668 7.59877 12.5582 7.33382 12.3629 7.13847C12.1675 6.94312 11.9026 6.83337 11.6263 6.83337Z" fill="white"/>
</svg>
