<svg width="21" height="22" viewBox="0 0 21 22" fill="none" xmlns="http://www.w3.org/2000/svg">
<path d="M14.3631 11.7396C15.3843 10.9361 16.1297 9.83432 16.4956 8.58747C16.8615 7.34061 16.8296 6.01072 16.4045 4.78281C15.9794 3.55489 15.1821 2.49002 14.1235 1.73634C13.065 0.982652 11.7979 0.577637 10.4985 0.577637C9.19904 0.577637 7.93192 0.982652 6.8734 1.73634C5.81487 2.49002 5.01758 3.55489 4.59244 4.78281C4.1673 6.01072 4.13546 7.34061 4.50135 8.58747C4.86723 9.83432 5.61265 10.9361 6.63389 11.7396C4.88397 12.4407 3.3571 13.6035 2.21607 15.1041C1.07503 16.6047 0.362599 18.3868 0.154721 20.2604C0.139673 20.3972 0.151717 20.5357 0.190164 20.6678C0.228611 20.7999 0.292707 20.9232 0.378795 21.0306C0.552657 21.2474 0.805537 21.3863 1.0818 21.4167C1.35807 21.4471 1.6351 21.3665 1.85193 21.1926C2.06877 21.0188 2.20766 20.7659 2.23805 20.4896C2.46679 18.4534 3.43773 16.5727 4.96537 15.2071C6.493 13.8415 8.47024 13.0865 10.5193 13.0865C12.5684 13.0865 14.5456 13.8415 16.0732 15.2071C17.6009 16.5727 18.5718 18.4534 18.8006 20.4896C18.8289 20.7456 18.951 20.982 19.1434 21.1532C19.3357 21.3244 19.5847 21.4183 19.8422 21.4167H19.9568C20.2299 21.3853 20.4794 21.2472 20.6511 21.0326C20.8228 20.818 20.9028 20.5442 20.8735 20.2709C20.6646 18.3919 19.9483 16.6052 18.8014 15.1023C17.6545 13.5994 16.1203 12.437 14.3631 11.7396ZM10.4985 11C9.67438 11 8.8688 10.7557 8.18359 10.2978C7.49839 9.83998 6.96434 9.18924 6.64897 8.42788C6.33361 7.66652 6.25109 6.82874 6.41186 6.02049C6.57264 5.21223 6.96947 4.4698 7.55219 3.88708C8.13491 3.30436 8.87734 2.90753 9.68559 2.74676C10.4938 2.58598 11.3316 2.6685 12.093 2.98386C12.8543 3.29923 13.5051 3.83328 13.9629 4.51849C14.4208 5.20369 14.6651 6.00927 14.6651 6.83336C14.6651 7.93843 14.2262 8.99824 13.4447 9.77964C12.6633 10.561 11.6035 11 10.4985 11Z" fill="white"/>
</svg>
