<svg width="64" height="60" viewBox="0 0 64 60" fill="none" xmlns="http://www.w3.org/2000/svg">
<path fill-rule="evenodd" clip-rule="evenodd" d="M35.708 30.2345C35.6798 30.2796 35.6621 30.3357 35.6616 30.4083C35.728 30.4329 35.7936 30.4577 35.8587 30.4824C35.9616 30.5214 36.0634 30.56 36.166 30.5962C38.4146 31.3912 40.6633 32.1865 42.9121 32.9819C45.9554 34.0583 48.999 35.1348 52.0433 36.2107C54.4042 37.0439 55.5112 38.588 55.5112 41.0939C55.5124 42.6371 55.5118 44.4556 55.5111 46.3808C55.5095 50.7439 55.5077 55.6551 55.5275 59.1524C55.5316 59.808 55.3927 60 54.7004 60C46.5631 59.9797 38.4259 59.9804 30.2887 59.9813C30.2715 59.9815 30.2543 59.9816 30.2371 59.9816C29.4369 59.9816 28.6367 59.9816 27.8365 59.9815C26.9879 59.9816 26.1392 59.9816 25.2905 59.9816C25.2727 59.9816 25.255 59.9815 25.2372 59.9813C17.1005 59.9804 8.96389 59.9797 0.827239 60C0.134882 60 -0.00399834 59.808 8.63679e-05 59.1524C0.0199258 55.655 0.0181333 50.7436 0.0165409 46.3805C0.0158383 44.4554 0.0151747 42.637 0.0164252 41.0939C0.0164252 38.5879 1.12338 37.0439 3.48434 36.2107C6.52848 35.1349 9.57195 34.0584 12.6151 32.982C14.8641 32.1866 17.1128 31.3912 19.3616 30.5962C19.4642 30.5599 19.566 30.5214 19.6689 30.4824C19.734 30.4577 19.7996 30.4329 19.866 30.4083C19.8655 30.3357 19.8479 30.2796 19.8196 30.2345C19.7619 30.1933 19.7159 30.1607 19.67 30.1285C19.609 30.086 19.5484 30.0431 19.4883 30.0001C19.4862 29.9986 19.4841 29.9972 19.4821 29.9958C15.3545 27.0793 13.1998 23.0865 13.0548 18.0439C12.9945 15.9654 13.0159 13.8838 13.0372 11.8044C13.0405 11.4913 13.0437 11.1781 13.0466 10.8651C13.1038 4.96675 17.9667 0.0875724 23.8629 0.0222172C24.4285 0.0159279 24.9941 0.0109231 25.5597 0.00726822C26.2643 0.00253599 26.9688 0.000162204 27.6734 1.90588e-05C28.4662 -0.000248386 29.2591 0.00229604 30.0519 0.00783193C30.5895 0.0114328 31.1271 0.0162504 31.6647 0.0222285C37.561 0.0875837 42.4238 4.96676 42.481 10.8651C42.4839 11.1782 42.4871 11.4913 42.4904 11.8046C42.5118 13.8839 42.5332 15.9654 42.4728 18.0439C42.3278 23.0865 40.1731 27.0793 36.0455 29.9958C36.0433 29.9974 36.041 29.9989 36.0387 30.0005C35.9788 30.0434 35.9184 30.0861 35.8577 30.1285C35.8117 30.1607 35.7657 30.1933 35.708 30.2345Z" fill="#5E6677"/>
<g filter="url(#filter0_b_13603_68044)">
<circle cx="47.5" cy="40.5" r="16.5" fill="#F9B736" fill-opacity="0.8"/>
</g>
<path fill-rule="evenodd" clip-rule="evenodd" d="M47.5 32C46.6716 32 46 32.6716 46 33.5V39H40.5C39.6716 39 39 39.6715 39 40.5C39 41.3284 39.6716 42 40.5 42H46V47.5C46 48.3284 46.6716 49 47.5 49C48.3284 49 49 48.3284 49 47.5V42H54.5C55.3284 42 56 41.3284 56 40.5C56 39.6715 55.3284 39 54.5 39H49V33.5C49 32.6716 48.3284 32 47.5 32Z" fill="white"/>
<defs>
<filter id="filter0_b_13603_68044" x="28" y="21" width="39" height="39" filterUnits="userSpaceOnUse" color-interpolation-filters="sRGB">
<feFlood flood-opacity="0" result="BackgroundImageFix"/>
<feGaussianBlur in="BackgroundImageFix" stdDeviation="1.5"/>
<feComposite in2="SourceAlpha" operator="in" result="effect1_backgroundBlur_13603_68044"/>
<feBlend mode="normal" in="SourceGraphic" in2="effect1_backgroundBlur_13603_68044" result="shape"/>
</filter>
</defs>
</svg>
