<svg width="64" height="55" viewBox="0 0 64 55" fill="none" xmlns="http://www.w3.org/2000/svg">
<path d="M52.5077 0L62.8733 15.9166L63.0433 16.0865L31.4367 55L0 16.0865L0.283213 15.9166L10.4789 0H52.5077Z" fill="#32A969"/>
<path d="M21.1804 15.801L23.0926 18.3505L26.2795 26.6364L31.4367 55L0 16.0865L0.283213 15.9166L10.4789 0L21.1804 15.801Z" fill="#66CA96"/>
<path d="M42.3054 15.9166L31.43 55L21.2344 15.9166L31.43 0L42.3054 15.9166Z" fill="#32B873"/>
<path d="M62.9835 16.0865L31.4336 55L42.309 15.9166L52.5047 0L62.9835 16.0865Z" fill="#00A652"/>
<path d="M0.28125 15.9166L10.4769 0L21.239 15.9166H0.28125Z" fill="#CCEDDC"/>
<path d="M62.9832 16.0865L42.3086 15.9166L52.5043 0L62.9832 16.0865Z" fill="#009544"/>
<path d="M42.3054 15.9166H21.2344L31.43 0L42.3054 15.9166Z" fill="#66BF8F"/>
<path d="M10.343 0.000409192L31.4141 0.000411034L21.2184 15.917L10.343 0.000409192Z" fill="#99DAB8"/>
<path d="M27.1701 8.75233L29.3092 8.10194C29.4839 8.05858 29.4839 7.84178 29.3092 7.79842L27.1701 7.14804C27.1264 7.14804 27.0828 7.10468 27.0391 7.01796L26.4279 4.93672C26.3843 4.76328 26.166 4.76328 26.1223 4.93672L25.4675 7.06132C25.4675 7.10468 25.4238 7.14804 25.3365 7.1914L23.1974 7.84178C23.0228 7.88514 23.0228 8.10194 23.1974 8.1453L25.3365 8.79568C25.3802 8.79568 25.4238 8.83904 25.4675 8.92576L26.1223 11.0504C26.166 11.2238 26.3843 11.2238 26.4279 11.0504L27.0828 8.92576C27.0828 8.79569 27.1264 8.75233 27.1701 8.75233Z" fill="white"/>
<path d="M45.5768 28.4743L48.0691 27.7379C48.239 27.6813 48.239 27.3981 48.0691 27.3981L45.5768 26.6617C45.5202 26.6617 45.4635 26.6051 45.4635 26.5484L44.7272 24.0562C44.6705 23.8862 44.3873 23.8862 44.3873 24.0562L43.651 26.5484C43.651 26.6051 43.5943 26.6617 43.5377 26.6617L41.0454 27.3981C40.8755 27.4547 40.8755 27.7379 41.0454 27.7379L43.5377 28.4743C43.5943 28.4743 43.651 28.5309 43.651 28.5876L44.3873 31.0798C44.444 31.2498 44.7272 31.2498 44.7272 31.0798L45.4635 28.5876C45.4635 28.5309 45.5202 28.4743 45.5768 28.4743Z" fill="white"/>
</svg>
