<svg width="30" height="31" viewBox="0 0 30 31" fill="none" xmlns="http://www.w3.org/2000/svg">
<rect y="0.5" width="30" height="30" rx="15" fill="#FFA800" fill-opacity="0.15"/>
<path d="M13.9286 12.2857H18.2144C18.4985 12.2857 18.771 12.1728 18.972 11.9719C19.1729 11.771 19.2858 11.4984 19.2858 11.2143C19.2858 10.9301 19.1729 10.6576 18.972 10.4567C18.771 10.2557 18.4985 10.1429 18.2144 10.1429H16.0715V9.07143C16.0715 8.78727 15.9586 8.51475 15.7577 8.31381C15.5568 8.11288 15.2842 8 15.0001 8C14.7159 8 14.4434 8.11288 14.2425 8.31381C14.0415 8.51475 13.9286 8.78727 13.9286 9.07143V10.1429C13.0762 10.1429 12.2586 10.4815 11.6558 11.0843C11.053 11.6871 10.7144 12.5047 10.7144 13.3571C10.7144 14.2096 11.053 15.0272 11.6558 15.63C12.2586 16.2328 13.0762 16.5714 13.9286 16.5714H16.0715C16.3557 16.5714 16.6282 16.6843 16.8291 16.8852C17.03 17.0862 17.1429 17.3587 17.1429 17.6429C17.1429 17.927 17.03 18.1995 16.8291 18.4005C16.6282 18.6014 16.3557 18.7143 16.0715 18.7143H11.7858C11.5016 18.7143 11.2291 18.8272 11.0282 19.0281C10.8272 19.229 10.7144 19.5016 10.7144 19.7857C10.7144 20.0699 10.8272 20.3424 11.0282 20.5433C11.2291 20.7443 11.5016 20.8571 11.7858 20.8571H13.9286V21.9286C13.9286 22.2127 14.0415 22.4853 14.2425 22.6862C14.4434 22.8871 14.7159 23 15.0001 23C15.2842 23 15.5568 22.8871 15.7577 22.6862C15.9586 22.4853 16.0715 22.2127 16.0715 21.9286V20.8571C16.924 20.8571 17.7415 20.5185 18.3443 19.9157C18.9471 19.3129 19.2858 18.4953 19.2858 17.6429C19.2858 16.7904 18.9471 15.9728 18.3443 15.37C17.7415 14.7672 16.924 14.4286 16.0715 14.4286H13.9286C13.6445 14.4286 13.372 14.3157 13.171 14.1148C12.9701 13.9138 12.8572 13.6413 12.8572 13.3571C12.8572 13.073 12.9701 12.8005 13.171 12.5995C13.372 12.3986 13.6445 12.2857 13.9286 12.2857Z" fill="#FFA800"/>
</svg>
