<svg width="30" height="30" viewBox="0 0 30 30" fill="none" xmlns="http://www.w3.org/2000/svg">
<path d="M27.1377 11.6127L22.1377 6.61273C22.0211 6.49618 21.8828 6.40373 21.7305 6.34066C21.5782 6.27758 21.415 6.24512 21.2502 6.24512C20.9173 6.24512 20.5981 6.37735 20.3627 6.61273C20.1273 6.84811 19.9951 7.16735 19.9951 7.50023C19.9951 7.83311 20.1273 8.15235 20.3627 8.38773L23.2377 11.2502H8.75017C8.41865 11.2502 8.10071 11.3819 7.86629 11.6163C7.63187 11.8508 7.50017 12.1687 7.50017 12.5002C7.50017 12.8318 7.63187 13.1497 7.86629 13.3841C8.10071 13.6185 8.41865 13.7502 8.75017 13.7502H26.2502C26.497 13.749 26.7379 13.6747 26.9425 13.5368C27.1472 13.3989 27.3064 13.2035 27.4002 12.9752C27.4959 12.7476 27.5221 12.4967 27.4753 12.2542C27.4286 12.0117 27.3111 11.7885 27.1377 11.6127ZM21.2502 16.2502H3.75017C3.50339 16.2515 3.2625 16.3257 3.05785 16.4636C2.8532 16.6015 2.69395 16.797 2.60017 17.0252C2.50445 17.2529 2.4783 17.5038 2.52501 17.7462C2.57173 17.9887 2.68923 18.212 2.86267 18.3877L7.86267 23.3877C7.97888 23.5049 8.11713 23.5979 8.26945 23.6613C8.42178 23.7248 8.58516 23.7575 8.75017 23.7575C8.91519 23.7575 9.07857 23.7248 9.2309 23.6613C9.38322 23.5979 9.52147 23.5049 9.63767 23.3877C9.75484 23.2715 9.84783 23.1333 9.91129 22.981C9.97475 22.8286 10.0074 22.6652 10.0074 22.5002C10.0074 22.3352 9.97475 22.1718 9.91129 22.0195C9.84783 21.8672 9.75484 21.7289 9.63767 21.6127L6.76267 18.7502H21.2502C21.5817 18.7502 21.8996 18.6185 22.1341 18.3841C22.3685 18.1497 22.5002 17.8318 22.5002 17.5002C22.5002 17.1687 22.3685 16.8508 22.1341 16.6163C21.8996 16.3819 21.5817 16.2502 21.2502 16.2502Z" fill="white"/>
</svg>
