<svg width="30" height="30" viewBox="0 0 30 30" fill="none" xmlns="http://www.w3.org/2000/svg">
<rect width="30" height="30" rx="15" fill="#108AEF" fill-opacity="0.15"/>
<path d="M15.0001 13.5C14.8012 13.5 14.6105 13.579 14.4698 13.7197C14.3292 13.8603 14.2501 14.0511 14.2501 14.25V17.25C14.2501 17.4489 14.3292 17.6397 14.4698 17.7803C14.6105 17.921 14.8012 18 15.0001 18C15.1991 18 15.3898 17.921 15.5305 17.7803C15.6711 17.6397 15.7501 17.4489 15.7501 17.25V14.25C15.7501 14.0511 15.6711 13.8603 15.5305 13.7197C15.3898 13.579 15.1991 13.5 15.0001 13.5ZM12.0001 15.75C11.8012 15.75 11.6105 15.829 11.4698 15.9697C11.3292 16.1103 11.2501 16.3011 11.2501 16.5V17.25C11.2501 17.4489 11.3292 17.6397 11.4698 17.7803C11.6105 17.921 11.8012 18 12.0001 18C12.1991 18 12.3898 17.921 12.5305 17.7803C12.6711 17.6397 12.7501 17.4489 12.7501 17.25V16.5C12.7501 16.3011 12.6711 16.1103 12.5305 15.9697C12.3898 15.829 12.1991 15.75 12.0001 15.75ZM15.0001 7.5C14.0152 7.5 13.04 7.69399 12.13 8.0709C11.2201 8.44781 10.3933 9.00026 9.69684 9.6967C8.29032 11.1032 7.50014 13.0109 7.50014 15C7.49359 16.7319 8.09324 18.4114 9.19514 19.7475L7.69514 21.2475C7.59108 21.353 7.52058 21.4869 7.49255 21.6324C7.46452 21.7779 7.48021 21.9284 7.53764 22.065C7.59994 22.1999 7.70092 22.3133 7.82778 22.3908C7.95464 22.4682 8.10164 22.5063 8.25014 22.5H15.0001C16.9893 22.5 18.8969 21.7098 20.3034 20.3033C21.71 18.8968 22.5001 16.9891 22.5001 15C22.5001 13.0109 21.71 11.1032 20.3034 9.6967C18.8969 8.29018 16.9893 7.5 15.0001 7.5ZM15.0001 21H10.0576L10.7551 20.3025C10.826 20.233 10.8824 20.1502 10.921 20.0588C10.9596 19.9674 10.9797 19.8692 10.9801 19.77C10.9773 19.5722 10.8965 19.3835 10.7551 19.245C9.77308 18.264 9.16152 16.9729 9.02466 15.5916C8.8878 14.2103 9.2341 12.8243 10.0046 11.6696C10.775 10.515 11.922 9.66327 13.25 9.25948C14.5781 8.85569 16.005 8.92485 17.2878 9.45519C18.5706 9.98552 19.6298 10.9442 20.285 12.1679C20.9402 13.3916 21.1508 14.8047 20.881 16.1663C20.6112 17.5279 19.8776 18.7538 18.8053 19.6352C17.733 20.5166 16.3882 20.9989 15.0001 21ZM18.0001 12C17.8012 12 17.6105 12.079 17.4698 12.2197C17.3292 12.3603 17.2501 12.5511 17.2501 12.75V17.25C17.2501 17.4489 17.3292 17.6397 17.4698 17.7803C17.6105 17.921 17.8012 18 18.0001 18C18.1991 18 18.3898 17.921 18.5305 17.7803C18.6711 17.6397 18.7501 17.4489 18.7501 17.25V12.75C18.7501 12.5511 18.6711 12.3603 18.5305 12.2197C18.3898 12.079 18.1991 12 18.0001 12Z" fill="#108AEF"/>
</svg>
