<svg width="23" height="19" viewBox="0 0 23 19" xmlns="http://www.w3.org/2000/svg">
<path d="M9.10482 0.395813L9.39683 0.397535C13.7581 0.449139 17.2507 1.65878 17.2507 3.74998L17.2514 7.18378C19.9705 7.64034 22.0423 10.0053 22.0423 12.8541C22.0423 16.0298 19.4679 18.6041 16.2923 18.6041C15.4287 18.6041 14.5913 18.4129 13.8293 18.0512C12.4851 18.4078 10.8372 18.6041 9.10482 18.6041C4.70622 18.6041 1.11806 17.44 0.96413 15.3881L0.958984 15.25V3.74998L0.96413 3.61188C1.11806 1.55999 4.70621 0.395813 9.10482 0.395813ZM2.87528 13.6949L2.87565 15.25C2.87565 15.4054 3.1358 15.6001 3.59534 15.7955L3.8654 15.9019C3.96177 15.9372 4.06437 15.9724 4.17282 16.0071L4.51541 16.1096C4.57532 16.1264 4.6366 16.1431 4.6992 16.1595L5.09043 16.2555C5.42912 16.3332 5.79874 16.4045 6.19357 16.4658L6.6791 16.5344L7.18665 16.592C7.79079 16.6524 8.43539 16.6875 9.10482 16.6875C9.96484 16.6875 10.7979 16.6346 11.5682 16.5357L11.8447 16.4968L11.7414 16.3692L11.6533 16.2521C11.6298 16.2201 11.6068 16.1879 11.584 16.1555L11.7414 16.3692C11.6511 16.2523 11.5653 16.1321 11.4842 16.0086C11.468 15.9839 11.4524 15.9598 11.437 15.9356C11.4119 15.896 11.3869 15.8556 11.3624 15.8148C11.3383 15.7748 11.3147 15.7345 11.2917 15.694C11.275 15.6647 11.2589 15.6358 11.243 15.6067C11.2181 15.5611 11.1938 15.515 11.17 15.4686C11.1498 15.4289 11.1298 15.3887 11.1103 15.3482C11.0903 15.3068 11.0711 15.2656 11.0523 15.2241C11.0354 15.1868 11.0187 15.149 11.0025 15.1111C10.9833 15.066 10.9647 15.021 10.9468 14.9757C10.9325 14.9397 10.9184 14.9032 10.9047 14.8665C10.8848 14.8133 10.8657 14.7598 10.8474 14.7059C10.8469 14.7044 10.8464 14.7032 10.846 14.7019C10.2818 14.7479 9.69774 14.7708 9.10482 14.7708C6.60667 14.7708 4.36994 14.3953 2.87528 13.6949ZM16.2923 9.02081C15.1888 9.02081 14.1629 9.48835 13.4395 10.2936C12.8115 10.9927 12.459 11.8947 12.459 12.8541C12.459 13.0747 12.4775 13.2926 12.5141 13.5063C12.7082 14.6409 13.4081 15.6263 14.4047 16.1915C14.9754 16.5151 15.6202 16.6875 16.2923 16.6875C18.4094 16.6875 20.1256 14.9712 20.1256 12.8541C20.1256 10.7371 18.4094 9.02081 16.2923 9.02081ZM18.4074 10.739C18.7528 11.0845 18.7794 11.6281 18.4871 12.004L18.4074 12.0943L15.5324 14.9693C15.1581 15.3435 14.5513 15.3435 14.1771 14.9693C13.8316 14.6238 13.805 14.0802 14.0974 13.7043L14.1771 13.614L17.0521 10.739C17.4263 10.3647 18.0331 10.3647 18.4074 10.739ZM2.87528 9.86158L2.87565 11.4166C2.87565 11.5721 3.1358 11.7667 3.59534 11.9621L3.8654 12.0686C3.96177 12.1039 4.06437 12.139 4.17282 12.1737L4.51541 12.2763C4.57532 12.2931 4.6366 12.3097 4.6992 12.3262L5.09043 12.4222C5.42912 12.4998 5.79874 12.5711 6.19357 12.6325L6.6791 12.7011L7.18665 12.7587C7.79079 12.819 8.43539 12.8541 9.10482 12.8541C9.59384 12.8541 10.0754 12.8371 10.5435 12.8038C10.5484 12.1307 10.6705 11.4762 10.8964 10.8635C10.317 10.9131 9.71586 10.9375 9.10482 10.9375C6.60667 10.9375 4.36994 10.562 2.87528 9.86158ZM15.3353 6.0278C13.8407 6.72847 11.6035 7.10415 9.10482 7.10415C6.60667 7.10415 4.36994 6.72863 2.87528 6.02825L2.87565 7.58331C2.87565 7.73875 3.1358 7.9334 3.59534 8.1288L3.8654 8.23523C3.96177 8.27057 4.06437 8.30571 4.17282 8.34041L4.51541 8.44296C4.57532 8.45976 4.6366 8.47639 4.6992 8.49282L5.09043 8.58883C5.42912 8.66649 5.79874 8.7378 6.19357 8.79914L6.6791 8.86774L7.18665 8.92538C7.79079 8.98569 8.43539 9.02081 9.10482 9.02081C10.2207 9.02081 11.2947 8.93206 12.2517 8.7662C13.0601 7.96338 14.0881 7.42003 15.2104 7.20608L15.334 7.1856L15.3353 6.0278ZM9.10482 2.31248C8.43539 2.31248 7.79078 2.3476 7.18665 2.40791L6.6791 2.46555L6.19356 2.53415C5.79873 2.59549 5.42912 2.6668 5.09042 2.74446L4.6992 2.84047C4.63659 2.8569 4.57531 2.87353 4.51541 2.89033L4.17282 2.99288C4.06437 3.02758 3.96177 3.06272 3.8654 3.09806L3.59534 3.20449C3.1358 3.39989 2.87565 3.59454 2.87565 3.74998C2.87565 3.90541 3.1358 4.10007 3.59534 4.29547L3.8654 4.40189C3.96177 4.43724 4.06437 4.47237 4.17282 4.50707L4.51541 4.60963C4.57532 4.62643 4.6366 4.64305 4.6992 4.65949L5.09043 4.7555C5.42912 4.83316 5.79874 4.90447 6.19357 4.96581L6.6791 5.0344L7.18665 5.09204C7.79079 5.15236 8.43539 5.18748 9.10482 5.18748C9.77424 5.18748 10.4188 5.15236 11.023 5.09204L11.5305 5.0344L12.0161 4.96581C12.4109 4.90447 12.7805 4.83316 13.1192 4.7555L13.5104 4.65949C13.573 4.64305 13.6343 4.62643 13.6942 4.60963L14.0368 4.50707C14.1453 4.47237 14.2479 4.43724 14.3442 4.40189L14.6143 4.29547C15.0738 4.10007 15.334 3.90541 15.334 3.74998C15.334 3.59454 15.0738 3.39989 14.6143 3.20449L14.3442 3.09806C14.2479 3.06272 14.1453 3.02758 14.0368 2.99288L13.6942 2.89033C13.6343 2.87353 13.573 2.8569 13.5104 2.84047L13.1192 2.74446C12.7805 2.6668 12.4109 2.59549 12.0161 2.53415L11.5305 2.46555L11.023 2.40791C10.4189 2.3476 9.77424 2.31248 9.10482 2.31248Z"/>
</svg>
