<svg width="1305" height="1190" viewBox="0 0 1305 1190" fill="none" xmlns="http://www.w3.org/2000/svg">
<path d="M425 65.4338C440.47 56.5021 459.53 56.5021 475 65.4338L619.856 149.066C635.326 157.998 644.856 174.504 644.856 192.368V359.632C644.856 377.496 635.326 394.002 619.856 402.934L475 486.566C459.53 495.498 440.47 495.498 425 486.566L280.144 402.934C264.674 394.002 255.144 377.496 255.144 359.632V192.368C255.144 174.504 264.674 157.998 280.144 149.066L425 65.4338Z" fill="#D6E2FF"/>
<path d="M1254 684C1218 1006 976.142 1140 700 1140C427.535 1140 71.6213 1003.7 50.6644 806.036C50.1027 800.738 50.6033 795.323 52.3813 790.301C95.2983 669.075 366.018 645.512 572 492C759.709 352.106 839.756 50 970 50C1114 68 1270 408 1254 684Z" fill="#D6E2FF"/>
<path fill-rule="evenodd" clip-rule="evenodd" d="M731 463C711.118 463 695 479.118 695 499V529H339C319.118 529 303 545.118 303 565V959C303 978.882 319.118 995 339 995H731H947C966.882 995 983 978.882 983 959V565V499C983 479.118 966.882 463 947 463H731Z" fill="#0033AD"/>
<rect x="359" y="299" width="516" height="474" rx="36" fill="#F6F9FF"/>
<path fill-rule="evenodd" clip-rule="evenodd" d="M479.571 410.498C474.69 415.379 474.69 423.294 479.571 428.175C484.453 433.057 492.367 433.057 497.249 428.175L509.624 415.801L521.998 428.175C526.88 433.057 534.794 433.057 539.676 428.175C544.557 423.294 544.557 415.379 539.676 410.498L527.301 398.123L539.675 385.749C544.557 380.867 544.557 372.953 539.675 368.071C534.794 363.19 526.879 363.19 521.998 368.071L509.624 380.445L497.249 368.071C492.368 363.19 484.453 363.19 479.572 368.071C474.69 372.953 474.69 380.867 479.572 385.749L491.946 398.123L479.571 410.498Z" fill="#0033AD"/>
<path fill-rule="evenodd" clip-rule="evenodd" d="M698.571 410.498C693.69 415.379 693.69 423.294 698.571 428.175C703.453 433.057 711.367 433.057 716.249 428.175L728.624 415.801L740.998 428.175C745.88 433.057 753.794 433.057 758.676 428.175C763.557 423.294 763.557 415.379 758.676 410.498L746.301 398.123L758.675 385.749C763.557 380.867 763.557 372.953 758.675 368.071C753.794 363.19 745.879 363.19 740.998 368.071L728.624 380.445L716.249 368.071C711.368 363.19 703.453 363.19 698.572 368.071C693.69 372.953 693.69 380.867 698.572 385.749L710.946 398.123L698.571 410.498Z" fill="#0033AD"/>
<path d="M534 534.5L536.875 531.551C587.411 479.699 671.16 481.047 720 534.5V534.5" stroke="#0033AD" stroke-width="25" stroke-linecap="round"/>
<path d="M239.437 632.383C235.805 610.45 252.722 590.5 274.953 590.5H888.805C906.27 590.5 921.216 603.035 924.256 620.234L983.029 952.734C986.926 974.781 969.967 995 947.579 995H330.028C312.416 995 297.389 982.258 294.511 964.883L239.437 632.383Z" fill="#5C8DFF"/>
<circle opacity="0.5" cx="906" cy="469" r="82" fill="#F6F9FF"/>
<path fill-rule="evenodd" clip-rule="evenodd" d="M967.995 554.99C950.562 567.581 929.147 575 906 575C847.458 575 800 527.542 800 469C800 410.458 847.458 363 906 363C964.542 363 1012 410.458 1012 469C1012 493.575 1003.64 516.196 989.603 534.174L1066.86 617.024C1072.51 623.083 1072.18 632.575 1066.12 638.225C1060.06 643.875 1050.57 643.543 1044.92 637.484L967.995 554.99ZM988 469C988 514.287 951.287 551 906 551C860.713 551 824 514.287 824 469C824 423.713 860.713 387 906 387C951.287 387 988 423.713 988 469Z" fill="#6C6F89"/>
</svg>
