<svg width="23" height="23" viewBox="0 0 23 23" xmlns="http://www.w3.org/2000/svg">
<path d="M4.7915 17.25H8.85484C8.98096 17.2508 9.10599 17.2266 9.22275 17.1789C9.33951 17.1312 9.44571 17.0609 9.53525 16.9721L16.1669 10.3309L18.8886 7.66669C18.9784 7.5776 19.0497 7.47161 19.0984 7.35483C19.147 7.23804 19.1721 7.11278 19.1721 6.98627C19.1721 6.85976 19.147 6.7345 19.0984 6.61772C19.0497 6.50094 18.9784 6.39495 18.8886 6.30586L14.8253 2.19461C14.7362 2.10478 14.6302 2.03349 14.5134 1.98484C14.3966 1.93618 14.2713 1.91113 14.1448 1.91113C14.0183 1.91113 13.8931 1.93618 13.7763 1.98484C13.6595 2.03349 13.5535 2.10478 13.4644 2.19461L10.7619 4.90669L4.11109 11.5479C4.02227 11.6375 3.952 11.7437 3.90431 11.8604C3.85662 11.9772 3.83244 12.1022 3.83317 12.2284V16.2917C3.83317 16.5459 3.93414 16.7896 4.11386 16.9693C4.29358 17.1491 4.53734 17.25 4.7915 17.25ZM14.1448 4.22627L16.8569 6.93836L15.4961 8.29919L12.784 5.58711L14.1448 4.22627ZM5.74984 12.6213L11.4328 6.93836L14.1448 9.65044L8.46192 15.3334H5.74984V12.6213ZM20.1248 19.1667H2.87484C2.62067 19.1667 2.37692 19.2677 2.19719 19.4474C2.01747 19.6271 1.9165 19.8709 1.9165 20.125C1.9165 20.3792 2.01747 20.6229 2.19719 20.8027C2.37692 20.9824 2.62067 21.0834 2.87484 21.0834H20.1248C20.379 21.0834 20.6228 20.9824 20.8025 20.8027C20.9822 20.6229 21.0832 20.3792 21.0832 20.125C21.0832 19.8709 20.9822 19.6271 20.8025 19.4474C20.6228 19.2677 20.379 19.1667 20.1248 19.1667Z" />
</svg>
