<svg width="65" height="60" viewBox="0 0 65 60" fill="none" xmlns="http://www.w3.org/2000/svg">
<path fill-rule="evenodd" clip-rule="evenodd" d="M35.7081 30.2345C35.6798 30.2796 35.6622 30.3356 35.6616 30.4083C35.7281 30.4329 35.7936 30.4577 35.8587 30.4824C35.9617 30.5214 36.0635 30.5599 36.1661 30.5962C38.4151 31.3913 40.6642 32.1868 42.9134 32.9824C45.9563 34.0586 48.9995 35.135 52.0433 36.2107C54.4043 37.0439 55.5112 38.5879 55.5112 41.0939C55.5125 42.6371 55.5118 44.4556 55.5111 46.3808C55.5095 50.7439 55.5077 55.6551 55.5276 59.1524C55.5316 59.808 55.3928 60 54.7004 60C46.5632 59.9797 38.4259 59.9804 30.2887 59.9813C30.2715 59.9815 30.2543 59.9816 30.2371 59.9816C29.4369 59.9816 28.6367 59.9816 27.8366 59.9815C26.9879 59.9816 26.1392 59.9816 25.2905 59.9816C25.2728 59.9816 25.255 59.9815 25.2372 59.9813C17.1006 59.9804 8.96392 59.9796 0.827265 60C0.134908 60 -0.00397212 59.808 0.000112583 59.1524C0.019952 55.655 0.0181596 50.7436 0.0165671 46.3805C0.0158645 44.4554 0.0152009 42.637 0.0164514 41.0939C0.0164514 38.5879 1.12341 37.0439 3.48436 36.2106C6.52824 35.1349 9.57144 34.0586 12.6143 32.9823C14.8635 32.1868 17.1126 31.3913 19.3616 30.5962C19.4642 30.5599 19.566 30.5214 19.6689 30.4824C19.734 30.4577 19.7996 30.4329 19.8661 30.4083C19.8655 30.3357 19.8479 30.2796 19.8196 30.2345C19.7619 30.1933 19.7159 30.1607 19.67 30.1285C19.609 30.086 19.5485 30.0431 19.4883 30.0001C19.4862 29.9986 19.4842 29.9972 19.4821 29.9958C15.3545 27.0793 13.1998 23.0865 13.0548 18.0439C12.9945 15.9654 13.0159 13.8838 13.0373 11.8044C13.0405 11.4912 13.0437 11.1781 13.0467 10.8651C13.1038 4.96674 17.9667 0.0875611 23.863 0.0222059C24.4285 0.0159166 24.9941 0.0109118 25.5597 0.00725691C26.2643 0.00252469 26.9689 0.000150901 27.6734 7.756e-06C28.4663 -0.000259689 29.2591 0.00228474 30.0519 0.00782064C30.5895 0.0114215 31.1271 0.0162391 31.6647 0.0222172C37.561 0.0875724 42.4238 4.96675 42.481 10.8651C42.484 11.1782 42.4872 11.4913 42.4904 11.8046C42.5118 13.8839 42.5332 15.9654 42.4728 18.0439C42.3278 23.0865 40.1732 27.0793 36.0456 29.9958C36.0433 29.9974 36.041 29.999 36.0387 30.0005C35.9788 30.0434 35.9184 30.0861 35.8577 30.1285C35.8117 30.1607 35.7658 30.1933 35.7081 30.2345Z" fill="#5E6677"/>
<g filter="url(#filter0_b_13601_102989)">
<path d="M64.4666 29.0796C64.4666 27.62 63.2663 26.5054 61.8088 26.3778C60.3805 26.2524 58.9439 26.1541 57.5303 25.922C54.8244 25.4786 52.3129 24.5481 50.1695 22.756C48.9545 21.7397 47.5367 21.7522 46.3092 22.7685C44.858 23.9709 43.2165 24.7948 41.4264 25.349C39.26 26.0182 37.0309 26.2482 34.7808 26.382C33.1079 26.4824 32.0121 27.6785 32.0059 29.364C32.0017 30.5978 32.0059 31.8315 32.0059 33.0632C32.0059 33.4312 32.0121 33.8014 32.0059 34.1694C31.9619 36.5701 32.1585 38.9477 32.8235 41.2626C34.9125 48.5251 39.4608 53.6191 46.3908 56.6032C47.6371 57.1406 48.8751 57.1239 50.1256 56.6032C54.0737 54.9554 57.3567 52.446 59.9163 49.0144C62.3943 45.6937 63.9522 41.9652 64.3014 37.8436C64.5461 34.9369 64.475 32.003 64.4729 29.0796H64.4666Z" fill="#F9B736" fill-opacity="0.8"/>
</g>
<path d="M46.9503 45.9992C46.5001 45.9896 46.1169 45.8215 45.7974 45.4916C44.3668 44.0135 42.9343 42.5373 41.5024 41.0602C41.3335 40.886 41.1952 40.6906 41.1115 40.4574C41.0027 40.1537 40.9661 39.8407 41.035 39.524C41.1569 38.9631 41.4742 38.5585 41.9886 38.3326C42.2794 38.2051 42.5891 38.1769 42.8985 38.2362C43.2399 38.3016 43.5291 38.4742 43.7756 38.7299C44.8066 39.7978 45.8408 40.8623 46.874 41.9279C46.9316 41.9873 46.9892 41.9873 47.0468 41.9279C48.9606 39.9532 50.8744 37.9781 52.7885 36.0034C53.269 35.5077 53.7498 35.0119 54.23 34.5159C54.3888 34.3518 54.5645 34.2122 54.7753 34.1271C55.1172 33.9889 55.4641 33.959 55.8237 34.0591C56.1914 34.1615 56.4784 34.3738 56.7019 34.6857C56.8096 34.8363 56.8815 35.0043 56.9332 35.1834C57.0094 35.4479 57.0206 35.7158 56.9657 35.9834C56.896 36.3246 56.7317 36.6131 56.4912 36.8601C55.4455 37.9347 54.4025 39.0125 53.3586 40.0891C51.6441 41.8577 49.9295 43.626 48.2158 45.3955C48.025 45.5926 47.826 45.777 47.5694 45.8777C47.3704 45.9558 47.1654 46.0057 46.9503 45.9995V45.9992Z" fill="white"/>
<defs>
<filter id="filter0_b_13601_102989" x="29" y="19" width="38.4841" height="41" filterUnits="userSpaceOnUse" color-interpolation-filters="sRGB">
<feFlood flood-opacity="0" result="BackgroundImageFix"/>
<feGaussianBlur in="BackgroundImageFix" stdDeviation="1.5"/>
<feComposite in2="SourceAlpha" operator="in" result="effect1_backgroundBlur_13601_102989"/>
<feBlend mode="normal" in="SourceGraphic" in2="effect1_backgroundBlur_13601_102989" result="shape"/>
</filter>
</defs>
</svg>
