<svg width="67" height="48" viewBox="0 0 67 48" fill="none" xmlns="http://www.w3.org/2000/svg">
<rect width="60" height="48" rx="8" fill="#5E6677"/>
<g filter="url(#filter0_b_13603_67953)">
<path d="M66.9855 16.2819C66.9837 16.2819 66.9823 16.2804 66.9823 16.2786C66.9805 14.7789 65.7618 13.634 64.2822 13.5029C62.8313 13.3739 61.3719 13.2728 59.9358 13.034C57.1869 12.578 54.6355 11.6209 52.4581 9.77758C51.2238 8.73224 49.7835 8.74515 48.5365 9.79048C47.0622 11.0272 45.3946 11.8747 43.5762 12.4447C41.3753 13.133 39.1108 13.3696 36.825 13.5072C35.1255 13.6105 34.0123 14.8408 34.0059 16.5744C34.0017 17.8434 34.0059 19.1124 34.0059 20.3793C34.0059 20.7579 34.0123 21.1386 34.0059 21.5171C33.9613 23.9863 34.161 26.4319 34.8366 28.8129C36.9588 36.283 41.5793 41.5225 48.6194 44.5918C49.8855 45.1446 51.1431 45.1274 52.4135 44.5918C56.4242 42.8969 59.7595 40.3159 62.3597 36.7863C64.877 33.3707 66.4597 29.5356 66.8145 25.2962C67.0629 22.3076 66.9908 19.2909 66.9887 16.2851C66.9887 16.2833 66.9872 16.2819 66.9855 16.2819Z" fill="#32B873" fill-opacity="0.8"/>
</g>
<path d="M49.2416 34.4652C48.9817 34.409 48.7477 34.3701 48.5224 34.3053C46.8934 33.8429 45.7627 32.8272 45.1496 31.2519C44.8659 30.5215 45.1518 29.8084 45.8147 29.5426C46.4949 29.2682 47.2032 29.5988 47.5022 30.3335C47.9462 31.4183 48.7326 31.952 49.911 31.9607C50.4894 31.965 51.0699 31.9715 51.6483 31.9585C52.5819 31.9391 53.299 31.3254 53.4441 30.4394C53.5936 29.5361 53.1062 28.7085 52.2093 28.4016C50.8533 27.9392 49.4886 27.5005 48.1325 27.0424C44.8377 25.9295 43.9236 21.9275 46.445 19.6412C47.2227 18.9346 48.1542 18.5802 49.2438 18.5154C49.2438 18.1393 49.2438 17.7742 49.2438 17.4111C49.246 16.5619 49.742 16.0043 50.4959 16C51.2627 15.9957 51.7696 16.5619 51.7718 17.4306C51.7718 17.7958 51.7718 18.161 51.7718 18.511C52.1964 18.6299 52.5993 18.712 52.9762 18.8546C54.3712 19.384 55.3287 20.3608 55.8638 21.7481C56.1454 22.4763 55.8594 23.1916 55.1987 23.4596C54.5207 23.734 53.808 23.3991 53.5091 22.6687C53.0672 21.5839 52.2787 21.0501 51.1024 21.0415C50.524 21.0372 49.9435 21.0307 49.3651 21.0458C48.4098 21.0717 47.7036 21.6898 47.5606 22.6017C47.422 23.492 47.9354 24.3067 48.8409 24.6113C50.1103 25.0392 51.3797 25.4714 52.6578 25.8755C54.3279 26.4028 55.476 27.4357 55.8833 29.1709C56.4898 31.7597 54.6637 34.2361 52.0079 34.463C51.9451 34.4695 51.8801 34.476 51.7696 34.489C51.7696 34.8866 51.7739 35.2777 51.7696 35.6667C51.7609 36.4446 51.241 36.9957 50.5175 37C49.7767 37.0043 49.2503 36.4468 49.2438 35.6472C49.2416 35.2669 49.2438 34.8866 49.2438 34.463L49.2416 34.4652Z" fill="white"/>
<defs>
<filter id="filter0_b_13603_67953" x="31" y="6" width="39" height="42" filterUnits="userSpaceOnUse" color-interpolation-filters="sRGB">
<feFlood flood-opacity="0" result="BackgroundImageFix"/>
<feGaussianBlur in="BackgroundImageFix" stdDeviation="1.5"/>
<feComposite in2="SourceAlpha" operator="in" result="effect1_backgroundBlur_13603_67953"/>
<feBlend mode="normal" in="SourceGraphic" in2="effect1_backgroundBlur_13603_67953" result="shape"/>
</filter>
</defs>
</svg>
