<svg width="67" height="56" viewBox="0 0 67 56" fill="none" xmlns="http://www.w3.org/2000/svg">
<path d="M45.8963 56.0002H50.5585C51.4014 56.0002 52.0855 55.3204 52.0855 54.4825L53.3711 45.7579C53.3711 44.9201 52.6871 44.2402 51.8441 44.2402H44.6095C43.7665 44.2402 43.0825 44.9201 43.0825 45.7579L44.3681 54.4825C44.3681 55.3204 45.0522 56.0002 45.8951 56.0002H45.8963Z" fill="#FC7C7C"/>
<path d="M14.451 56.0002H19.1132C19.9561 56.0002 20.6401 55.3204 20.6401 54.4825L21.9258 45.7579C21.9258 44.9201 21.2418 44.2402 20.3988 44.2402H13.1642C12.3212 44.2402 11.6372 44.9201 11.6372 45.7579L12.9228 54.4825C12.9228 55.3204 13.6069 56.0002 14.4498 56.0002H14.451Z" fill="#FC7C7C"/>
<path d="M5.23355 31.0728C5.23355 44.0626 17.7002 54.5927 33.0783 54.5927C48.4564 54.5927 60.9219 44.0626 60.9219 31.0728C60.9219 18.0829 51.4044 6.78516 33.0771 6.78516C14.7498 6.78516 5.23238 18.0829 5.23238 31.0728H5.23355Z" fill="#FF9797"/>
<path d="M53.3708 43.0854L57.6598 43.0666C61.3719 43.2387 63.0119 42.2241 63.7265 39.617L66.0753 31.0352C66.5544 29.287 65.5066 27.4674 63.7477 26.9911L58.4215 25.5507C55.7985 24.8416 53.0694 26.3932 52.3548 29.0003L50.1744 36.5325C49.461 39.1396 50.7466 42.3763 53.3696 43.0854H53.3708Z" fill="#FF9797"/>
<path d="M44.4245 11.5266C44.4987 11.4645 51.9605 5.38328 60.4054 8.45492C60.4973 8.48885 60.562 8.57076 60.5726 8.66672C60.5832 8.76267 61.5427 18.3029 52.2749 23.1099C52.2372 23.1298 52.196 23.1391 52.156 23.1391C52.0724 23.1391 51.9912 23.0993 51.9429 23.0268L44.3774 11.8659C44.3033 11.7571 44.3245 11.6108 44.4257 11.5266H44.4245Z" fill="#FF9797"/>
<path d="M1.91982 19.6395C2.50495 19.4582 3.11127 19.6875 3.42796 20.2082C5.05737 22.8855 7.96063 23.4039 9.20035 23.6251C9.65833 23.707 9.86789 23.7444 10.0716 23.9141C10.3164 24.1177 10.4095 24.45 10.3059 24.7508L8.26674 30.6623C8.19845 30.8613 8.05011 31.0239 7.85703 31.1117C7.75578 31.1573 7.64629 31.1807 7.5368 31.1807C7.43908 31.1807 7.34019 31.162 7.24718 31.1246C2.21768 29.1002 1.17458 23.8895 1.00033 20.963C0.963838 20.3533 1.33469 19.8233 1.92099 19.6407L1.91982 19.6395Z" fill="#FF9797"/>
<path d="M50.9176 27.2156C49.9898 27.2156 49.2376 26.468 49.2376 25.5458C49.2376 24.6236 49.9898 23.876 50.9176 23.876C51.8455 23.876 52.5977 24.6236 52.5977 25.5458C52.5977 26.468 51.8455 27.2156 50.9176 27.2156Z" fill="#9F1414"/>
<path d="M25.0239 13.4993C33.2816 10.7225 40.7611 13.4583 40.8353 13.4864L41.6523 11.3333C41.3168 11.207 33.3158 8.28277 24.2822 11.3205L25.0239 13.5005V13.4993Z" fill="#9F1414"/>
<path d="M53.0234 47.481C47.9657 51.8678 40.8982 54.5931 33.0761 54.5931C17.9817 54.5931 5.69408 44.4468 5.24552 31.7881C20.5106 52.0656 43.0798 49.5814 53.0234 47.4798V47.481Z" fill="#FF8A8A"/>
<path d="M65.0462 31.7887C65.0462 31.7887 66.5626 28.0068 60.6042 27.0273C60.6042 27.0273 64.0149 28.6971 65.0462 31.7887Z" fill="#FFB1B1"/>
<path d="M59.7109 9.29159C59.7109 9.29159 57.5282 8.08634 55.7504 8.40813C55.7504 8.40813 58.4983 10.6572 57.3669 17.4066C57.3669 17.4066 59.7109 13.7112 59.7109 9.29159Z" fill="#FFB1B1"/>
<path d="M33.7539 12.273C31.2003 12.1852 28.1687 12.4415 25.0217 13.4993L24.28 11.3193L33.7539 12.2718V12.273Z" fill="#3E3D40"/>
<path d="M33.0673 15.5669C28.7423 15.5669 25.2362 12.0821 25.2362 7.78344C25.2362 3.48477 28.7423 0 33.0673 0C37.3923 0 40.8984 3.48477 40.8984 7.78344C40.8984 12.0821 37.3923 15.5669 33.0673 15.5669Z" fill="#F6D738"/>
<path d="M33.0688 14.3888C29.3983 14.3888 26.4228 11.4314 26.4228 7.78327C26.4228 4.13513 29.3983 1.17773 33.0688 1.17773C36.7393 1.17773 39.7148 4.13513 39.7148 7.78327C39.7148 11.4314 36.7393 14.3888 33.0688 14.3888Z" fill="#F3CC30"/>
<path d="M29.5899 2.14551C28.9283 3.17248 28.5444 4.39362 28.5444 5.7035C28.5444 9.35175 31.5198 12.309 35.1904 12.309C36.4656 12.309 37.6561 11.9518 38.668 11.3336C37.4867 13.1661 35.4201 14.3812 33.0674 14.3812C29.3968 14.3812 26.4214 11.4239 26.4214 7.77565C26.4214 5.3948 27.689 3.30749 29.5907 2.14551H29.5899Z" fill="#EDBD31"/>
<path d="M38.5479 8.38783C38.5479 5.16736 35.9212 2.5567 32.681 2.5567C30.7869 2.5567 29.1027 3.44866 28.0306 4.83287C29.044 3.08459 30.9426 1.9082 33.1175 1.9082C36.3577 1.9082 38.9844 4.51886 38.9844 7.73934C38.9844 9.07728 38.5303 10.3098 37.768 11.2943C38.264 10.4387 38.5479 9.44666 38.5479 8.38783Z" fill="#F7DB5E"/>
<path d="M25.0251 13.4988C33.2828 10.7217 40.7623 13.4578 40.8365 13.4859L41.7734 18.4009C41.4379 18.2745 33.4368 15.35 24.4033 18.388L25.0251 13.4999V13.4988Z" fill="#FF9797"/>
</svg>
