<svg width="69" height="60" viewBox="0 0 69 60" fill="none" xmlns="http://www.w3.org/2000/svg">
<path d="M21.8297 1.51939C25.3386 -0.506463 29.6617 -0.506463 33.1706 1.51939L49.3299 10.849C52.8387 12.8748 55.0003 16.6187 55.0003 20.6704V39.3296C55.0003 43.3813 52.8387 47.1252 49.3299 49.1511L33.1706 58.4806C29.6617 60.5065 25.3386 60.5065 21.8297 58.4806L5.67043 49.151C2.16156 47.1252 0 43.3813 0 39.3296V20.6704C0 16.6187 2.16156 12.8748 5.67044 10.849L21.8297 1.51939Z" fill="#5E6677"/>
<g filter="url(#filter0_b_13588_65456)">
<path fill-rule="evenodd" clip-rule="evenodd" d="M66.568 21.5228C67.8218 20.5283 68.4952 19.2375 68.6082 17.5321C68.6181 17.3824 68.6087 17.232 68.5902 17.0831C68.5634 16.8663 68.5298 16.5953 68.4642 16.3328C68.2691 15.5541 67.9476 14.8179 67.5562 14.1212C67.0875 13.2868 66.5848 12.471 66.0742 11.6612C65.2871 10.4114 64.3839 9.24366 63.4789 8.07769C63.3963 7.97115 63.3424 7.97594 63.2628 8.08128C63.0837 8.31931 62.9023 8.55565 62.721 8.79195C62.3972 9.21401 62.0735 9.63596 61.7623 10.0673C61.2978 10.7107 60.8489 11.3673 60.4198 12.0359C60.0181 12.6625 59.6267 13.2982 59.2759 13.9536C58.9725 14.521 58.7067 15.1124 58.4721 15.7115C58.3249 16.0874 58.2393 16.4932 58.174 16.893C58.0872 17.4222 58.1327 17.9537 58.2476 18.4804C58.3518 18.9592 58.5146 19.4165 58.7468 19.8451C59.1239 20.54 59.6339 21.1212 60.2701 21.5958C60.9285 22.0872 61.6665 22.3943 62.465 22.5427C63.1401 22.6684 63.8195 22.6463 64.4964 22.4936C65.2614 22.3212 65.9563 22.0082 66.568 21.5228ZM40.6958 11C40.6961 11 40.6965 11.0002 40.6967 11.0005C40.8152 11.1547 40.9311 11.3032 41.0445 11.4484L41.0445 11.4484C41.2878 11.76 41.5192 12.0564 41.7384 12.3617L41.9918 12.7147C42.6835 13.6784 43.3753 14.6422 44.041 15.6232C44.7689 16.6951 45.4416 17.8042 46.0282 18.9606C46.3532 19.6011 46.6555 20.2565 46.9212 20.9233C47.2432 21.7313 47.4557 22.5681 47.4007 23.4539C47.3689 23.9675 47.2887 24.4702 47.1499 24.9664C46.7836 26.2778 46.0755 27.3696 45.0478 28.2554C44.4678 28.7552 43.8142 29.1335 43.0989 29.4142C42.0993 29.8057 41.0639 29.9296 40.0062 29.826C39.0779 29.7356 38.204 29.4489 37.3888 28.9803C36.2641 28.3338 35.398 27.4402 34.7809 26.306C34.517 25.8211 34.3284 25.3052 34.1926 24.7671C34.0124 24.053 33.9556 23.3312 34.0352 22.604C34.0741 22.2508 34.165 21.9007 34.2656 21.5589C34.3709 21.2028 34.5014 20.8526 34.6475 20.5115C34.8564 20.0237 35.0665 19.5346 35.3166 19.0672C35.7123 18.328 36.1199 17.5936 36.5604 16.8807C37.08 16.0409 37.618 15.2102 38.1885 14.4045C38.7302 13.6404 39.2907 12.8898 39.8514 12.1391L39.8515 12.139C40.0905 11.819 40.3295 11.4989 40.5671 11.1778C40.5898 11.1472 40.612 11.1162 40.6373 11.0806L40.6373 11.0806L40.6374 11.0805C40.6546 11.0564 40.6734 11.0301 40.6948 11.0005C40.695 11.0002 40.6954 11 40.6958 11ZM54.8188 56.1618C54.7978 56.1619 54.7768 56.1621 54.7558 56.1623H54.7556C54.6469 56.1632 54.5381 56.1641 54.4296 56.1608C53.8017 56.1411 53.1816 56.0531 52.5693 55.9214C52.1521 55.8316 51.7326 55.7388 51.3279 55.6054C50.8533 55.4491 50.3846 55.2666 49.9286 55.0619C49.1385 54.7069 48.4005 54.2574 47.7127 53.7307C46.6497 52.9167 45.7393 51.956 44.9965 50.8421C44.547 50.1682 44.1718 49.4535 43.8665 48.7C43.5642 47.9554 43.3362 47.1898 43.1943 46.4021C43.0387 45.5378 42.9304 44.6622 43.0178 43.7847C43.0758 43.2035 43.1913 42.6241 43.3266 42.0549C43.4541 41.5198 43.6295 40.9955 43.8066 40.4742C43.9455 40.066 44.1095 39.6655 44.2801 39.2693C44.4944 38.7731 44.7188 38.2811 44.9541 37.7945C45.2282 37.2277 45.5059 36.662 45.804 36.1072C46.1637 35.4386 46.5378 34.7772 46.9203 34.1212C47.3428 33.397 47.7708 32.6751 48.2179 31.9653C48.7632 31.0998 49.3198 30.2415 49.8908 29.3927C50.5594 28.3997 51.2316 27.4085 51.9325 26.4383C52.5844 25.5366 53.251 24.6457 53.9176 23.7548L53.9176 23.7548C54.1918 23.3884 54.4659 23.0221 54.739 22.6549C54.7491 22.6417 54.7602 22.6291 54.7713 22.6167L54.7713 22.6166L54.7713 22.6166C54.7868 22.5992 54.8023 22.5819 54.8145 22.5627C54.8893 22.443 54.9539 22.4652 55.0299 22.5663C55.2425 22.8485 55.4563 23.1297 55.6701 23.411L55.6704 23.4113C56.085 23.9567 56.4997 24.5021 56.9052 25.0545C57.5516 25.9355 58.1897 26.8232 58.8109 27.7222C59.4693 28.6739 60.1128 29.6357 60.7454 30.6048C61.2907 31.4403 61.8228 32.2849 62.34 33.1384C62.7871 33.877 63.2138 34.6282 63.6334 35.3835C63.9949 36.0342 64.3499 36.6884 64.6767 37.3569C65.0101 38.0381 65.3195 38.7324 65.6122 39.4321C65.8606 40.0265 66.0952 40.6298 66.2892 41.2439C66.4317 41.6944 66.5338 42.1586 66.6356 42.622C66.6543 42.7072 66.673 42.7923 66.692 42.8773C66.8284 43.4878 66.8739 44.1091 66.832 44.7334C66.7824 45.4786 66.698 46.219 66.5244 46.9492C66.3747 47.5795 66.182 48.1948 65.9378 48.7915C65.6703 49.4445 65.3411 50.0676 64.9586 50.662C64.2858 51.7064 63.47 52.6246 62.5165 53.4207C61.7271 54.0797 60.864 54.6273 59.932 55.0589C59.3335 55.336 58.7158 55.5647 58.0747 55.7352C57.4139 55.9112 56.7478 56.0447 56.0666 56.101C55.8095 56.1221 55.5525 56.1417 55.2954 56.1612C55.1748 56.1704 55.0542 56.1796 54.9337 56.1889C54.9208 56.1899 54.9096 56.1802 54.9087 56.1673L54.9085 56.1629C54.9084 56.1627 54.9084 56.1625 54.9083 56.1623C54.908 56.1618 54.9074 56.1614 54.9068 56.1614C54.8775 56.1614 54.8482 56.1616 54.8188 56.1618Z" fill="#31A1FF" fill-opacity="0.7"/>
</g>
<defs>
<filter id="filter0_b_13588_65456" x="31" y="5" width="40.6094" height="54.1895" filterUnits="userSpaceOnUse" color-interpolation-filters="sRGB">
<feFlood flood-opacity="0" result="BackgroundImageFix"/>
<feGaussianBlur in="BackgroundImageFix" stdDeviation="1.5"/>
<feComposite in2="SourceAlpha" operator="in" result="effect1_backgroundBlur_13588_65456"/>
<feBlend mode="normal" in="SourceGraphic" in2="effect1_backgroundBlur_13588_65456" result="shape"/>
</filter>
</defs>
</svg>
