<svg width="30" height="31" viewBox="0 0 30 31" fill="none" xmlns="http://www.w3.org/2000/svg">
<rect y="0.5" width="30" height="30" rx="15" fill="#6c6f8921"/>
<path fill-rule="evenodd" clip-rule="evenodd" d="M10.2921 10.7838C9.90265 11.1766 9.90265 11.8064 10.2921 12.1992L16.5883 18.498H13.0003C12.6398 18.4979 12.3066 18.6888 12.1263 18.9985C11.946 19.3082 11.946 19.6898 12.1263 19.9995C12.3066 20.3092 12.6398 20.5 13.0003 20.5H19.0038C19.1079 20.5 19.2113 20.4838 19.3102 20.4518L19.317 20.4518H19.3294C19.4737 20.4025 19.6046 20.3207 19.7116 20.2129C19.7624 20.1621 19.8075 20.1061 19.8462 20.0458L19.8553 20.0312L19.862 20.02V20.0143C19.9526 19.8609 20.0002 19.6863 20 19.5085V13.5025C20 13.1478 19.8092 12.8202 19.4996 12.6428C19.19 12.4655 18.8085 12.4655 18.4988 12.6428C18.1892 12.8202 17.9985 13.1478 17.9985 13.5025V17.0915L11.7022 10.7927C11.5153 10.6054 11.2606 10.5 10.9949 10.5C10.7291 10.5 10.4745 10.6054 10.2876 10.7927L10.2921 10.7838Z" fill="#6C6F89"/>
</svg>
