<svg width="62" height="60" viewBox="0 0 62 60" fill="none" xmlns="http://www.w3.org/2000/svg">
<path d="M29.993 0.00298963C35.4939 0.00298963 40.9959 0.00498272 46.4968 0C47.0987 0 47.6468 0.110617 48.0992 0.538134C48.5347 0.949707 48.7938 1.443 48.7978 2.0489C48.8048 3.11919 48.8078 4.18948 48.7958 5.26076C48.7928 5.50491 48.8766 5.57069 49.1107 5.5677C50.0565 5.55673 51.0022 5.56869 51.9489 5.56172C52.8597 5.55474 53.7566 5.65539 54.6206 5.93941C56.1135 6.42971 57.3552 7.29072 58.3288 8.53042C58.9078 9.26787 59.3343 10.088 59.6133 10.9779C59.8395 11.7004 59.9482 12.4449 59.9472 13.2072C59.9412 16.9502 59.9571 20.6923 59.9402 24.4353C59.9292 26.8928 58.9157 28.8868 57.0163 30.4275C56.1643 31.1191 55.1936 31.5845 54.1184 31.8426C53.4766 31.9961 52.8338 32.0818 52.1751 32.0778C51.3121 32.0728 42.3562 32.0778 41.4931 32.0758C40.5325 32.0728 39.8379 31.6333 39.4642 30.7524C39.0088 29.6791 39.5708 28.4215 40.674 28.0318C40.948 27.9352 41.256 27.9033 41.55 27.8963C42.388 27.8783 51.3191 27.8923 52.1572 27.8893C53.6231 27.8833 54.7223 27.2445 55.3959 25.9421C55.5703 25.6052 55.6401 25.2086 55.7278 24.8329C55.7726 24.6426 55.7577 24.4363 55.7577 24.238C55.7587 20.6285 55.7517 17.018 55.7627 13.4085C55.7667 12.2784 55.388 11.3347 54.5339 10.5933C53.8732 10.0203 53.087 9.76614 52.2239 9.75518C51.1786 9.74222 50.1332 9.75717 49.0878 9.74721C48.8716 9.74521 48.7889 9.81497 48.7968 10.0312C48.8078 10.3382 48.7998 10.6451 48.7998 10.952C48.7998 13.5241 48.7928 16.0972 48.8028 18.6693C48.8078 20.0605 48.6733 21.4387 48.3803 22.795C47.891 25.0561 47.017 27.1638 45.7464 29.1021C43.8699 31.9662 41.3935 34.1596 38.3391 35.6982C37.3186 36.2125 36.2603 36.6489 35.1471 36.92C34.2722 37.1333 33.3833 37.2907 32.5013 37.4721C32.4116 37.49 32.311 37.488 32.2362 37.5309C32.1655 37.5717 32.1127 37.6554 32.0698 37.7302C32.0479 37.7681 32.0648 37.8279 32.0648 37.8777C32.0648 40.0183 32.0648 42.1598 32.0648 44.3004C32.0648 44.5183 32.1741 44.6273 32.3927 44.6273C32.9657 44.6283 33.5387 44.6133 34.1097 44.6323C36.7815 44.72 38.8742 45.8839 40.387 48.0763C40.9371 48.8726 41.2739 49.7714 41.4931 50.7172C41.6745 51.4995 41.8898 52.2728 42.0851 53.0511C42.2804 53.8294 42.4757 54.6087 42.6591 55.39C42.7398 55.7328 42.7697 55.7617 43.1155 55.7756C43.553 55.7936 43.9965 55.7906 44.425 55.8653C45.4355 56.0417 46.159 57.2057 45.9846 58.2152C45.8291 59.118 44.9791 59.9651 43.854 59.9651C35.5408 59.9661 27.2266 59.989 18.9134 60C17.9597 60.001 17.006 59.9512 16.0533 59.9631C15.001 59.9761 14.0453 59.1788 13.9397 58.0547C13.846 57.0582 14.5187 56.0576 15.5282 55.8643C15.9706 55.7796 16.434 55.7826 16.8875 55.7786C17.1187 55.7766 17.2173 55.6839 17.2671 55.4787C17.5402 54.3526 17.8053 53.2245 18.0973 52.1034C18.3285 51.2154 18.5557 50.3235 18.8546 49.4575C19.2453 48.3245 19.9568 47.3907 20.8407 46.5865C21.5921 45.9039 22.4542 45.4006 23.4059 45.0608C24.0865 44.8176 24.794 44.6632 25.5185 44.6402C26.2151 44.6183 26.9127 44.6233 27.6093 44.6293C27.8116 44.6313 27.8843 44.5725 27.8833 44.3622C27.8774 42.1798 27.8774 39.9973 27.8833 37.8149C27.8833 37.6186 27.8186 37.5339 27.6262 37.503C27.0223 37.4043 26.4134 37.3176 25.8185 37.1761C25.1269 37.0117 24.4403 36.8203 23.7666 36.5951C22.5478 36.1875 21.3749 35.6624 20.2986 34.9588C19.4137 34.3808 18.5437 33.7709 17.7265 33.1022C16.162 31.8217 14.8954 30.2711 13.85 28.542C13.0886 27.2844 12.4877 25.955 12.0403 24.5539C11.4304 22.6425 11.1424 20.6853 11.1444 18.6802C11.1484 15.8421 11.1454 13.0039 11.1444 10.1658C11.1444 9.88805 11.0022 9.7492 10.7178 9.7492C9.73027 9.7492 8.74269 9.74123 7.75511 9.75219C6.635 9.76415 5.68529 10.1677 4.96578 11.0437C4.49641 11.6147 4.20044 12.2725 4.19844 13.0209C4.19047 16.8875 4.17951 20.755 4.20243 24.6216C4.2104 26.0557 5.25678 27.2974 6.62204 27.7269C6.97183 27.8365 7.3545 27.8734 7.72422 27.8823C8.61115 27.9043 17.9167 27.8863 18.8046 27.8913C19.9566 27.8973 20.8266 28.6806 20.9551 29.8196C21.0578 30.7225 20.3951 31.718 19.5141 31.9572C19.262 32.026 18.9949 32.0668 18.7338 32.0708C17.8549 32.0848 8.55833 32.0897 7.67838 32.0738C4.95781 32.024 2.81026 30.869 1.27358 28.6357C0.419545 27.393 0 25.9889 0 24.4692C0.00199309 20.7102 0 16.9512 0.000996545 13.1913C0.000996545 12.992 0.00996545 12.7926 0.0249136 12.5943C0.128554 11.2151 0.60291 9.96545 1.38819 8.83636C2.04092 7.89861 2.87304 7.14722 3.86659 6.58218C5.05846 5.90453 6.346 5.57467 7.71326 5.56271C8.75863 5.55375 9.80401 5.55474 10.8494 5.56471C11.0776 5.5667 11.1513 5.49595 11.1493 5.26674C11.1394 4.22136 11.1603 3.17499 11.1414 2.12962C11.1224 1.02744 12.0363 -0.010962 13.2152 0.00597927C13.3557 0.00797236 13.4972 0.00398618 13.6387 0.00398618C19.0898 0.00398618 24.5419 0.00298963 29.993 0.00298963Z" fill="#5E6677"/>
<g filter="url(#filter0_b_13588_16390)">
<path d="M61.4698 29.0796C61.468 29.0796 61.4666 29.0782 61.4666 29.0764C61.4649 27.6184 60.2653 26.5053 58.8088 26.3778C57.3805 26.2524 55.9439 26.1541 54.5303 25.922C51.8244 25.4786 49.3129 24.5481 47.1695 22.756C45.9545 21.7397 44.5367 21.7522 43.3092 22.7685C41.858 23.9709 40.2165 24.7948 38.4264 25.349C36.26 26.0182 34.0309 26.2482 31.7808 26.382C30.1079 26.4824 29.0121 27.6785 29.0059 29.364C29.0017 30.5978 29.0059 31.8315 29.0059 33.0632C29.0059 33.4312 29.0121 33.8014 29.0059 34.1694C28.9619 36.5701 29.1585 38.9477 29.8235 41.2626C31.9125 48.5251 36.4608 53.6191 43.3908 56.6032C44.6371 57.1406 45.8751 57.1239 47.1256 56.6032C51.0737 54.9554 54.3567 52.446 56.9163 49.0144C59.3943 45.6937 60.9522 41.9652 61.3014 37.8436C61.546 34.9379 61.475 32.0051 61.4729 29.0827C61.4729 29.081 61.4715 29.0796 61.4698 29.0796V29.0796Z" fill="#32B873" fill-opacity="0.8"/>
</g>
<path d="M43.9503 45.9992C43.5001 45.9896 43.1169 45.8215 42.7974 45.4916C41.3668 44.0135 39.9343 42.5373 38.5024 41.0602C38.3335 40.886 38.1952 40.6906 38.1115 40.4574C38.0027 40.1537 37.9661 39.8407 38.035 39.524C38.1569 38.9631 38.4742 38.5585 38.9886 38.3326C39.2794 38.2051 39.5891 38.1769 39.8985 38.2362C40.2399 38.3016 40.5291 38.4742 40.7756 38.7299C41.8066 39.7978 42.8408 40.8623 43.874 41.9279C43.9316 41.9873 43.9892 41.9873 44.0468 41.9279C45.9606 39.9532 47.8744 37.9781 49.7885 36.0034C50.269 35.5077 50.7498 35.0119 51.23 34.5159C51.3888 34.3518 51.5645 34.2122 51.7753 34.1271C52.1172 33.9889 52.4641 33.959 52.8237 34.0591C53.1914 34.1615 53.4784 34.3738 53.7019 34.6857C53.8096 34.8363 53.8815 35.0043 53.9332 35.1834C54.0094 35.4479 54.0206 35.7158 53.9657 35.9834C53.896 36.3246 53.7317 36.6131 53.4912 36.8601C52.4455 37.9347 51.4025 39.0125 50.3586 40.0891C48.6441 41.8577 46.9295 43.626 45.2158 45.3955C45.025 45.5926 44.826 45.777 44.5694 45.8777C44.3704 45.9558 44.1654 46.0057 43.9503 45.9995V45.9992Z" fill="white"/>
<defs>
<filter id="filter0_b_13588_16390" x="26" y="19" width="38.4844" height="41" filterUnits="userSpaceOnUse" color-interpolation-filters="sRGB">
<feFlood flood-opacity="0" result="BackgroundImageFix"/>
<feGaussianBlur in="BackgroundImageFix" stdDeviation="1.5"/>
<feComposite in2="SourceAlpha" operator="in" result="effect1_backgroundBlur_13588_16390"/>
<feBlend mode="normal" in="SourceGraphic" in2="effect1_backgroundBlur_13588_16390" result="shape"/>
</filter>
</defs>
</svg>
