<svg width="61" height="60" viewBox="0 0 61 60" fill="none" xmlns="http://www.w3.org/2000/svg">
<path d="M11.1488 15.4818C10.77 15.0017 10.4189 14.5779 10.0913 14.1356C9.3686 13.1611 8.88235 12.076 8.57628 10.9029C8.24768 9.6397 8.16374 8.36318 8.35619 7.07746C8.74825 4.45483 9.94287 2.33788 12.3127 1.00507C13.3179 0.440004 14.403 0.10117 15.5659 0.0622709C16.5793 0.0284899 17.5958 0.0110877 18.5959 0.216845C20.3331 0.574104 21.9003 1.29272 23.2761 2.42387C24.4851 3.41887 25.3972 4.64625 26.1301 6.01796C26.1659 6.08553 26.2345 6.13671 26.2867 6.19506C26.34 6.13569 26.4075 6.0845 26.4454 6.01694C27.2797 4.53058 28.3382 3.23564 29.6914 2.18945C30.8236 1.31422 32.0889 0.698991 33.4729 0.35504C35.0718 -0.0421427 36.7087 -0.140415 38.3097 0.237318C40.7941 0.822855 42.5917 2.30001 43.6133 4.67696C44.2674 6.19915 44.4896 7.78789 44.337 9.4237C44.1733 11.1865 43.5672 12.7977 42.5088 14.2267C42.2457 14.582 41.9519 14.9136 41.6724 15.2566C41.6264 15.3139 41.5834 15.3733 41.5046 15.4766C41.6591 15.492 41.7635 15.5114 41.868 15.5114C43.0616 15.5135 44.2541 15.5155 45.4477 15.5114C47.3579 15.5063 49.0459 16.0888 50.4442 17.4165C51.2468 18.1791 51.8272 19.0892 52.1875 20.1405C52.4721 20.9717 52.5673 21.8265 52.5663 22.7017C52.5612 32.7684 52.5591 42.8342 52.5673 52.9009C52.5684 54.3616 52.2428 55.717 51.4311 56.9382C50.5957 58.1953 49.4677 59.0848 48.0427 59.6008C47.2136 59.9007 46.3598 59.9969 45.4846 59.9969C32.6744 59.9939 19.8653 59.9918 7.05511 60C5.67521 60 4.39358 59.7011 3.21841 58.9692C2.06781 58.2526 1.20793 57.2781 0.636721 56.0507C0.190402 55.0854 0 54.0679 0 53.0043C0.00409466 42.8444 0.00409466 32.6845 0.00102367 22.5236C0.00102367 20.3862 0.765705 18.5917 2.37491 17.1739C3.18565 16.4594 4.12333 15.9823 5.17463 15.7203C5.83285 15.5565 6.49721 15.493 7.17283 15.4961C8.3828 15.5012 9.5938 15.4981 10.8038 15.4961C10.9031 15.4961 11.0024 15.4869 11.1498 15.4797L11.1488 15.4818ZM30.4868 15.4981C32.0735 15.537 33.8281 15.3712 35.51 14.7263C36.8356 14.2175 37.9934 13.4621 38.8901 12.3463C39.5811 11.4864 40.1042 10.5354 40.2915 9.43599C40.4768 8.34681 40.3806 7.27707 39.9332 6.25852C39.3938 5.03115 38.4428 4.32482 37.1253 4.12316C36.7906 4.07197 36.4456 4.0904 36.1047 4.07914C35.0749 4.04536 34.0912 4.24702 33.1555 4.67696C31.5115 5.43345 30.4357 6.73044 29.6955 8.34066C29.196 9.4278 28.8705 10.5671 28.6555 11.7433C28.4446 12.895 28.3341 14.0527 28.3074 15.2218C28.3023 15.4306 28.3627 15.5074 28.5787 15.5022C29.1499 15.49 29.7201 15.4981 30.4879 15.4981H30.4868ZM21.9413 15.5114C22.7438 15.5114 23.3232 15.5114 23.9026 15.5114C24.2609 15.5114 24.2711 15.5094 24.2445 15.1593C24.1227 13.5706 23.9487 11.9911 23.5269 10.4453C23.1635 9.11353 22.6548 7.85237 21.8481 6.72532C20.9278 5.43857 19.6605 4.65649 18.1486 4.25828C17.2457 4.01977 16.3224 4.06071 15.4041 4.1293C15.1554 4.14772 14.9036 4.23167 14.6681 4.32277C13.1807 4.90012 12.4969 6.0886 12.2738 7.58315C12.026 9.24456 12.4918 10.7309 13.4786 12.0719C14.7981 13.8633 16.6366 14.7816 18.7566 15.2351C19.8806 15.4756 21.0189 15.5268 21.9402 15.5104L21.9413 15.5114Z" fill="#5E6677"/>
<g filter="url(#filter0_b_13603_67982)">
<rect x="28" y="24" width="33" height="33" rx="5" fill="#31A1FF" fill-opacity="0.8"/>
</g>
<path d="M48.6385 40.6387C49.2833 40.0634 49.8004 39.3519 50.1548 38.5524C50.5093 37.7529 50.6927 36.8842 50.6927 36.0052C50.6927 34.3534 50.0562 32.7694 48.9231 31.6014C47.7901 30.4335 46.2534 29.7773 44.651 29.7773C43.0487 29.7773 41.512 30.4335 40.3789 31.6014C39.2459 32.7694 38.6094 34.3534 38.6094 36.0052C38.6094 36.8842 38.7928 37.7529 39.1472 38.5524C39.5017 39.3519 40.0188 40.0634 40.6635 40.6387C38.972 41.4282 37.5369 42.7032 36.5298 44.3113C35.5227 45.9193 34.9862 47.7923 34.9844 49.7064C34.9844 50.0367 35.1117 50.3535 35.3383 50.5871C35.5649 50.8207 35.8722 50.9519 36.1927 50.9519C36.5132 50.9519 36.8205 50.8207 37.0471 50.5871C37.2737 50.3535 37.401 50.0367 37.401 49.7064C37.401 47.7243 38.1649 45.8234 39.5245 44.4219C40.8842 43.0204 42.7282 42.233 44.651 42.233C46.5739 42.233 48.4179 43.0204 49.7776 44.4219C51.1372 45.8234 51.901 47.7243 51.901 49.7064C51.901 50.0367 52.0283 50.3535 52.255 50.5871C52.4816 50.8207 52.7889 50.9519 53.1094 50.9519C53.4298 50.9519 53.7372 50.8207 53.9638 50.5871C54.1904 50.3535 54.3177 50.0367 54.3177 49.7064C54.3159 47.7923 53.7794 45.9193 52.7723 44.3113C51.7651 42.7032 50.33 41.4282 48.6385 40.6387ZM44.651 39.7419C43.9341 39.7419 43.2332 39.5227 42.6371 39.1121C42.041 38.7015 41.5763 38.1179 41.302 37.4351C41.0276 36.7523 40.9558 36.001 41.0957 35.2762C41.2356 34.5513 41.5808 33.8855 42.0878 33.3629C42.5947 32.8403 43.2407 32.4845 43.9438 32.3403C44.647 32.1961 45.3759 32.2701 46.0383 32.5529C46.7007 32.8357 47.2668 33.3147 47.6651 33.9292C48.0634 34.5437 48.276 35.2661 48.276 36.0052C48.276 36.9962 47.8941 37.9466 47.2143 38.6474C46.5345 39.3482 45.6125 39.7419 44.651 39.7419Z" fill="white"/>
<defs>
<filter id="filter0_b_13603_67982" x="25" y="21" width="39" height="39" filterUnits="userSpaceOnUse" color-interpolation-filters="sRGB">
<feFlood flood-opacity="0" result="BackgroundImageFix"/>
<feGaussianBlur in="BackgroundImageFix" stdDeviation="1.5"/>
<feComposite in2="SourceAlpha" operator="in" result="effect1_backgroundBlur_13603_67982"/>
<feBlend mode="normal" in="SourceGraphic" in2="effect1_backgroundBlur_13603_67982" result="shape"/>
</filter>
</defs>
</svg>
