<svg width="30" height="30" viewBox="0 0 30 30" fill="none" xmlns="http://www.w3.org/2000/svg">
<path d="M28.2515 2.57768C28.1951 2.36358 28.0828 2.16829 27.9263 2.01173C27.7697 1.85517 27.5744 1.74297 27.3603 1.68657C24.7961 1.02055 22.0959 1.09229 19.5707 1.89351C17.0455 2.69473 14.7979 4.19286 13.0867 6.21539L11.693 7.87018L8.43701 7.08458C7.64543 6.80862 6.78073 6.8284 6.00261 7.14027C5.22448 7.45214 4.58547 8.03503 4.20361 8.7813L1.45337 13.6562C1.357 13.8269 1.30216 14.018 1.29328 14.2138C1.28439 14.4097 1.32171 14.6049 1.40222 14.7837C1.48273 14.9625 1.60416 15.1198 1.75672 15.243C1.90927 15.3661 2.08866 15.4517 2.28039 15.4927L6.12133 16.316C5.79597 17.3065 5.56364 18.3251 5.42737 19.3587C5.40266 19.5485 5.4219 19.7416 5.48359 19.9228C5.54529 20.1041 5.64779 20.2688 5.78319 20.4042L9.65832 24.2793C9.77434 24.3954 9.91211 24.4875 10.0637 24.5504C10.2154 24.6132 10.3779 24.6456 10.5421 24.6456C10.5781 24.6456 10.6141 24.6437 10.6507 24.6407C11.7074 24.5457 12.7512 24.3404 13.7652 24.0282L14.5698 27.7821C14.6109 27.9738 14.6965 28.1531 14.8197 28.3056C14.9429 28.4581 15.1002 28.5795 15.2789 28.66C15.4577 28.7405 15.6529 28.7779 15.8487 28.769C16.0445 28.7602 16.2356 28.7054 16.4063 28.6092L21.2879 25.8559C21.975 25.4384 22.5117 24.8135 22.8206 24.0713C23.1295 23.329 23.1947 22.5079 23.0067 21.7262L22.1708 18.2775L23.7171 16.8556C25.7472 15.1492 27.2511 12.9015 28.0538 10.3739C28.8565 7.84627 28.9251 5.14271 28.2515 2.57768ZM4.46546 13.4041L6.41064 9.9544C6.53146 9.72021 6.7373 9.54111 6.98596 9.45384C7.23461 9.36656 7.50723 9.37773 7.74792 9.48504L9.89468 10.0053L9.08218 10.97C8.31188 11.8933 7.64564 12.8985 7.09553 13.9677L4.46546 13.4041ZM20.0532 23.6818L16.6584 25.5964L16.1216 23.0906C17.2098 22.5479 18.2237 21.8674 19.1383 21.0658L20.0677 20.2112L20.572 22.292C20.6374 22.5489 20.6228 22.8197 20.5301 23.0681C20.4374 23.3165 20.271 23.5306 20.0532 23.6818ZM22.071 14.9752L17.4653 19.208C15.6423 20.7846 13.3936 21.7867 11.0023 22.0882L7.99694 19.0828C8.40059 16.6853 9.43659 14.4389 10.998 12.5753L13.096 10.0845C13.1309 10.0479 13.1635 10.0092 13.1936 9.96853L14.9873 7.83893C16.3135 6.27255 18.0317 5.08619 19.9663 4.40098C21.901 3.71578 23.9828 3.55628 25.9993 3.93878C26.391 5.96155 26.2332 8.05237 25.5423 9.99343C24.8514 11.9345 23.6527 13.6548 22.071 14.9752ZM20.9173 7.27048C20.5465 7.27048 20.1839 7.38045 19.8756 7.58647C19.5673 7.7925 19.3269 8.08534 19.185 8.42795C19.0431 8.77056 19.006 9.14756 19.0783 9.51127C19.1507 9.87499 19.3292 10.2091 19.5915 10.4713C19.8537 10.7335 20.1878 10.9121 20.5515 10.9845C20.9152 11.0568 21.2922 11.0197 21.6348 10.8778C21.9774 10.7358 22.2703 10.4955 22.4763 10.1872C22.6823 9.87883 22.7923 9.51632 22.7923 9.14548C22.7923 8.89924 22.7438 8.65541 22.6496 8.42791C22.5554 8.20042 22.4173 7.99371 22.2431 7.81959C22.069 7.64548 21.8623 7.50736 21.6348 7.41314C21.4073 7.31892 21.1635 7.27043 20.9172 7.27045L20.9173 7.27048Z" fill="white"/>
</svg>
