<svg width="24" height="25" viewBox="0 0 24 25"  xmlns="http://www.w3.org/2000/svg">
<path d="M17 2.5H5C4.73478 2.5 4.48043 2.60536 4.29289 2.79289C4.10536 2.98043 4 3.23478 4 3.5V21.5C4 21.7652 4.10536 22.0196 4.29289 22.2071C4.48043 22.3946 4.73478 22.5 5 22.5H17C17.7956 22.5 18.5587 22.1839 19.1213 21.6213C19.6839 21.0587 20 20.2956 20 19.5V5.5C20 4.70435 19.6839 3.94129 19.1213 3.37868C18.5587 2.81607 17.7956 2.5 17 2.5ZM18 19.5C18 19.7652 17.8946 20.0196 17.7071 20.2071C17.5196 20.3946 17.2652 20.5 17 20.5H6V4.5H17C17.2652 4.5 17.5196 4.60536 17.7071 4.79289C17.8946 4.98043 18 5.23478 18 5.5V19.5Z"/>
<path fill-rule="evenodd" clip-rule="evenodd" d="M11.0845 16.5H11.0593C10.6766 16.4885 10.3539 16.2193 10.274 15.8449C10.2458 15.7116 10.2511 15.5624 10.289 15.4349C10.7377 13.9237 11.6354 10.9695 12.0813 9.50218C12.1267 9.35281 12.1674 9.21885 12.2025 9.10339C12.3353 8.66594 12.7247 8.43067 13.1718 8.51807C13.5594 8.59355 13.8282 8.94845 13.8256 9.38016V9.40709L13.8172 9.44946C13.811 9.48478 13.8004 9.54393 13.7819 9.60573L13.7523 9.70505C13.5107 10.5141 13.0339 12.0895 12.6037 13.5112C12.321 14.4453 12.0584 15.313 11.8958 15.8533C11.777 16.2484 11.4601 16.5 11.0845 16.5ZM8.90634 14.8771C9.05599 15.0285 9.25595 15.1097 9.46518 15.1097C9.52963 15.1097 9.59452 15.1022 9.65941 15.0863C9.9428 15.0179 10.1723 14.8047 10.2584 14.5306C10.3277 14.3103 10.3436 13.9779 10.0249 13.6451C9.76819 13.3772 9.51692 13.1107 9.25402 12.832L9.25396 12.8319L9.17164 12.7446L8.9783 12.5393L9.03082 12.4815C9.12953 12.3742 9.22862 12.2669 9.32737 12.16L9.32769 12.1596L9.35041 12.135C9.58437 11.8821 9.82582 11.6203 10.0602 11.3585C10.3833 10.997 10.3727 10.5017 10.0346 10.1804C9.86776 10.0219 9.65676 9.93761 9.4409 9.94467C9.22284 9.95085 9.01361 10.0493 8.85249 10.2214C8.36163 10.7454 7.82928 11.3254 7.22586 11.9951C6.93231 12.3208 6.92393 12.7645 7.20643 13.0743C7.69641 13.612 8.28129 14.2463 8.90634 14.8771ZM14.9081 12.344L14.9081 12.344L14.9142 12.3504C14.9632 12.4021 15.0118 12.4533 15.0608 12.5054C14.9978 12.574 14.9346 12.6421 14.8713 12.7103L14.8096 12.7768L14.8012 12.7859C14.5341 13.074 14.2578 13.372 13.9996 13.6804C13.8566 13.8517 13.7656 14.1042 13.763 14.339C13.759 14.6688 13.9753 14.9433 14.3276 15.0555C14.4176 15.0841 14.5063 15.0983 14.5928 15.0983C14.8184 15.0983 15.0285 15.002 15.2011 14.8153L15.2735 14.7372L15.2818 14.7283L15.2819 14.7282C15.7803 14.1898 16.2956 13.6332 16.7977 13.0805C17.1231 12.7225 17.1231 12.2873 16.7977 11.917C16.7026 11.8084 16.6032 11.7051 16.5065 11.6047L16.5064 11.6046L16.491 11.5885C16.445 11.5409 16.3991 11.4932 16.3532 11.4451C16.2385 11.3237 16.1241 11.2023 16.0103 11.0809C15.7414 10.7949 15.4638 10.4996 15.1844 10.2131C14.9049 9.92659 14.49 9.87318 14.1519 10.0798C13.8301 10.2766 13.6804 10.6713 13.7961 11.0182C13.8424 11.1577 13.9316 11.2998 14.0618 11.4411L14.0614 11.4415C14.3405 11.7452 14.6288 12.0494 14.9081 12.344Z"/>
</svg>
