<svg width="30" height="31" viewBox="0 0 30 31" fill="none" xmlns="http://www.w3.org/2000/svg">
<rect y="0.5" width="30" height="30" rx="15" fill="#6c6f8921" />
<path fill-rule="evenodd" clip-rule="evenodd" d="M10.2921 20.2162C9.90265 19.8234 9.90265 19.1936 10.2921 18.8008L16.5883 12.502H13.0003C12.6398 12.5021 12.3066 12.3112 12.1263 12.0015C11.946 11.6918 11.946 11.3102 12.1263 11.0005C12.3066 10.6908 12.6398 10.5 13.0003 10.5H19.0038C19.1079 10.5 19.2113 10.5162 19.3102 10.5482L19.317 10.5482H19.3294C19.4737 10.5975 19.6046 10.6793 19.7116 10.7871C19.7624 10.8379 19.8075 10.8939 19.8462 10.9542V10.9542L19.8553 10.9688L19.862 10.98V10.9857C19.9526 11.1391 20.0002 11.3137 20 11.4915V17.4975C20 17.8522 19.8092 18.1798 19.4996 18.3572C19.19 18.5345 18.8085 18.5345 18.4988 18.3572C18.1892 18.1798 17.9985 17.8522 17.9985 17.4975V13.9085L11.7022 20.2073C11.5153 20.3946 11.2606 20.5 10.9949 20.5C10.7291 20.5 10.4745 20.3946 10.2876 20.2073L10.2921 20.2162Z" fill="#6C6F89"/>
</svg>
