<svg width="150" height="130" viewBox="0 0 150 130" fill="none" xmlns="http://www.w3.org/2000/svg">
<path d="M74.8099 116.547C102.318 116.547 124.62 94.2453 124.62 66.6386C124.62 39.032 102.22 16.7305 74.8099 16.7305C47.3015 16.7305 25 39.032 25 66.6386C25 94.2453 47.3015 116.547 74.8099 116.547Z" fill="#F2F2F2"/>
<path d="M35 103.5C27.2473 113.918 44.5432 144.65 78.2191 118.485C111.895 92.3191 88.6368 56.2204 68.5282 52.5864C48.4196 48.9523 26.1305 13.8227 54.2341 6.31228C82.3377 -1.19817 125.705 8.73501 101.235 48.71C76.7655 88.685 56.1723 96.9222 81.3687 104.19C101.526 110.005 115.771 104.675 120.375 101.283" stroke="#D6DCE8" stroke-width="2" stroke-miterlimit="10" stroke-dasharray="4 4"/>
<g filter="url(#filter0_d_7245_56600)">
<path d="M39.2683 93.1295C36.5333 71.9075 40.0191 65.4953 43.5815 60.5375C45.5535 62.7988 46.9544 64.696 46.9544 64.696C46.6172 64.2802 48.568 60.9054 48.75 60.6198C50.6491 57.0113 52.3661 53.6882 54.5507 50.2617C65.9931 33.2594 85.0666 21.9256 104.525 15.6568C108.214 14.595 111.903 13.5333 115.462 12.9909C117.333 12.5769 119.255 12.3968 121.125 11.9828C121.593 11.8793 126.424 11.5458 126.32 11.0782C119.916 28.6821 116.453 38.5228 118.912 48.5244C113.276 48.5455 110.549 48.4133 104.578 45.811C111.036 56.1536 114.413 55.8967 114.413 55.8967C114.413 55.8967 107.257 71.2145 74.0792 84.1985C77.088 88.9281 78.4122 89.3708 78.4122 89.3708C78.4122 89.3708 56.949 100.988 42.4879 94.3789C39.2683 93.1295 39.2683 93.1295 39.2683 93.1295Z" fill="url(#paint0_linear_7245_56600)"/>
</g>
<path d="M26.7299 116.26C38.6187 93.5184 53.0868 61.3766 81.8053 39.3244C110.706 16.9866 130.27 8.97767 130.27 8.97767L127.696 11.7545C127.696 11.7545 99.064 24.223 74.3412 51.0317C49.8005 77.5548 40.1194 100.299 33.3548 114.058C26.7299 116.26 26.7299 116.26 26.7299 116.26Z" fill="url(#paint1_linear_7245_56600)"/>
<path d="M23.1927 44.4247L25.8477 43.6244C26.04 43.5686 26.04 43.2895 25.8477 43.2336L23.1927 42.4334C23.1245 42.4148 23.0749 42.3652 23.0563 42.2969L22.256 39.6481C22.2002 39.4558 21.9211 39.4558 21.8652 39.6481L21.065 42.2969C21.0464 42.3652 20.9968 42.4148 20.9285 42.4334L18.2797 43.2336C18.0874 43.2895 18.0874 43.5686 18.2797 43.6244L20.9347 44.4247C21.003 44.4433 21.0526 44.4929 21.0712 44.5611L21.8714 47.2161C21.9273 47.4084 22.2064 47.4084 22.2622 47.2161L23.0625 44.5611C23.0749 44.4929 23.1245 44.4433 23.1927 44.4247Z" fill="url(#paint2_linear_7245_56600)"/>
<path d="M72.4352 12.7371L75.1504 13.3002C75.3461 13.3429 75.4792 13.0975 75.3368 12.9567L73.385 10.987C73.3339 10.9381 73.314 10.8708 73.3302 10.802L73.8903 8.09221C73.933 7.89656 73.6876 7.76341 73.5468 7.9058L71.58 9.85216C71.5311 9.90325 71.4639 9.9232 71.395 9.90701L68.6853 9.34688C68.4896 9.30423 68.3565 9.54957 68.4988 9.69037L70.4507 11.6601C70.5017 11.709 70.5217 11.7763 70.5055 11.8451L69.9424 14.5603C69.8998 14.756 70.1451 14.8891 70.2859 14.7468L72.2556 12.7949C72.2991 12.7409 72.3664 12.7209 72.4352 12.7371Z" fill="url(#paint3_linear_7245_56600)"/>
<path d="M127.029 98.4449L129.104 96.6047C129.255 96.4734 129.138 96.22 128.94 96.25L126.194 96.6374C126.124 96.6491 126.059 96.6249 126.013 96.5707L124.176 94.502C124.044 94.3509 123.791 94.468 123.821 94.666L124.205 97.406C124.217 97.4758 124.193 97.5416 124.139 97.5871L122.07 99.4246C121.919 99.556 122.036 99.8094 122.234 99.7794L124.98 99.392C125.049 99.3803 125.115 99.4045 125.161 99.4587L127.001 101.533C127.132 101.684 127.386 101.567 127.356 101.369L126.968 98.6234C126.951 98.5562 126.975 98.4904 127.029 98.4449Z" fill="url(#paint4_linear_7245_56600)"/>
<path d="M108.325 85.4792L110.648 84.7791C110.817 84.7302 110.817 84.486 110.648 84.4371L108.325 83.737C108.266 83.7207 108.222 83.6773 108.206 83.6176L107.506 81.3C107.457 81.1318 107.213 81.1318 107.164 81.3L106.463 83.6176C106.447 83.6773 106.404 83.7207 106.344 83.737L104.026 84.4371C103.858 84.486 103.858 84.7302 104.026 84.7791L106.349 85.4792C106.409 85.4955 106.453 85.5389 106.469 85.5986L107.169 87.9216C107.218 88.0899 107.462 88.0899 107.511 87.9216L108.211 85.5986C108.222 85.5389 108.266 85.4955 108.325 85.4792Z" fill="url(#paint5_linear_7245_56600)"/>
<path d="M67.4251 108.921L69.7482 108.121C69.9165 108.065 69.9165 107.786 69.7482 107.73L67.4251 106.929C67.3654 106.911 67.3219 106.861 67.3057 106.793L66.6055 104.144C66.5566 103.952 66.3124 103.952 66.2635 104.144L65.5633 106.793C65.547 106.861 65.5036 106.911 65.4439 106.929L63.1262 107.73C62.9579 107.786 62.9579 108.065 63.1262 108.121L65.4493 108.921C65.509 108.939 65.5525 108.989 65.5687 109.057L66.2689 111.712C66.3178 111.905 66.562 111.905 66.6109 111.712L67.3111 109.057C67.3219 108.989 67.3654 108.939 67.4251 108.921Z" fill="url(#paint6_linear_7245_56600)"/>
<path d="M39.1608 55.0752L40.8201 54.5751C40.9403 54.5402 40.9403 54.3658 40.8201 54.3309L39.1608 53.8308C39.1181 53.8192 39.0871 53.7881 39.0755 53.7455L38.5753 52.0901C38.5404 51.97 38.366 51.97 38.3311 52.0901L37.8309 53.7455C37.8193 53.7881 37.7883 53.8192 37.7456 53.8308L36.0901 54.3309C35.97 54.3658 35.97 54.5402 36.0901 54.5751L37.7495 55.0752C37.7922 55.0869 37.8232 55.1179 37.8348 55.1605L38.335 56.8198C38.3698 56.9399 38.5443 56.9399 38.5792 56.8198L39.0793 55.1605C39.0871 55.1179 39.1181 55.0869 39.1608 55.0752Z" fill="url(#paint7_linear_7245_56600)"/>
<path d="M132.161 60.0225L133.82 59.5224C133.94 59.4875 133.94 59.313 133.82 59.2782L132.161 58.7781C132.118 58.7664 132.087 58.7354 132.075 58.6928L131.575 57.0374C131.54 56.9172 131.366 56.9172 131.331 57.0374L130.831 58.6928C130.819 58.7354 130.788 58.7664 130.746 58.7781L129.09 59.2782C128.97 59.313 128.97 59.4875 129.09 59.5224L130.75 60.0225C130.792 60.0341 130.823 60.0651 130.835 60.1078L131.335 61.767C131.37 61.8872 131.544 61.8872 131.579 61.767L132.079 60.1078C132.087 60.0651 132.118 60.0341 132.161 60.0225Z" fill="url(#paint8_linear_7245_56600)"/>
<path d="M52.1608 32.0752L53.8201 31.5751C53.9403 31.5402 53.9403 31.3658 53.8201 31.3309L52.1608 30.8308C52.1181 30.8192 52.0871 30.7881 52.0755 30.7455L51.5753 29.0901C51.5404 28.97 51.366 28.97 51.3311 29.0901L50.8309 30.7455C50.8193 30.7881 50.7883 30.8192 50.7456 30.8308L49.0901 31.3309C48.97 31.3658 48.97 31.5402 49.0901 31.5751L50.7495 32.0752C50.7922 32.0869 50.8232 32.1179 50.8348 32.1605L51.335 33.8198C51.3698 33.9399 51.5443 33.9399 51.5792 33.8198L52.0793 32.1605C52.0871 32.1179 52.1181 32.0869 52.1608 32.0752Z" fill="url(#paint9_linear_7245_56600)"/>
<path d="M17.1608 87.6416L18.8201 87.1415C18.9403 87.1066 18.9403 86.9322 18.8201 86.8973L17.1608 86.3972C17.1181 86.3856 17.0871 86.3546 17.0755 86.3119L16.5753 84.6565C16.5404 84.5364 16.366 84.5364 16.3311 84.6565L15.8309 86.3119C15.8193 86.3546 15.7883 86.3856 15.7456 86.3972L14.0901 86.8973C13.97 86.9322 13.97 87.1066 14.0901 87.1415L15.7495 87.6416C15.7922 87.6533 15.8232 87.6843 15.8348 87.7269L16.335 89.3862C16.3698 89.5063 16.5443 89.5063 16.5792 89.3862L17.0793 87.7269C17.0871 87.6843 17.1181 87.6533 17.1608 87.6416Z" fill="url(#paint10_linear_7245_56600)"/>
<defs>
<filter id="filter0_d_7245_56600" x="16.2875" y="0.078125" width="132.035" height="129.334" filterUnits="userSpaceOnUse" color-interpolation-filters="sRGB">
<feFlood flood-opacity="0" result="BackgroundImageFix"/>
<feColorMatrix in="SourceAlpha" type="matrix" values="0 0 0 0 0 0 0 0 0 0 0 0 0 0 0 0 0 0 127 0" result="hardAlpha"/>
<feOffset dy="11"/>
<feGaussianBlur stdDeviation="11"/>
<feColorMatrix type="matrix" values="0 0 0 0 0.397708 0 0 0 0 0.47749 0 0 0 0 0.575 0 0 0 0.27 0"/>
<feBlend mode="normal" in2="BackgroundImageFix" result="effect1_dropShadow_7245_56600"/>
<feBlend mode="normal" in="SourceGraphic" in2="effect1_dropShadow_7245_56600" result="shape"/>
</filter>
<linearGradient id="paint0_linear_7245_56600" x1="75.6686" y1="20.0634" x2="91.0738" y2="89.6664" gradientUnits="userSpaceOnUse">
<stop stop-color="#FDFEFF"/>
<stop offset="0.9964" stop-color="#ECF0F5"/>
<stop offset="0.9965" stop-color="#EAEAEA"/>
</linearGradient>
<linearGradient id="paint1_linear_7245_56600" x1="26.5" y1="118" x2="105.5" y2="18" gradientUnits="userSpaceOnUse">
<stop stop-color="#438F68"/>
<stop offset="1" stop-color="#6AD19C"/>
</linearGradient>
<linearGradient id="paint2_linear_7245_56600" x1="22.0637" y1="39.5039" x2="22.0637" y2="47.3604" gradientUnits="userSpaceOnUse">
<stop stop-color="#438F68"/>
<stop offset="1" stop-color="#6AD19C"/>
</linearGradient>
<linearGradient id="paint3_linear_7245_56600" x1="73.7901" y1="7.87372" x2="70.0426" y2="14.7788" gradientUnits="userSpaceOnUse">
<stop stop-color="#438F68"/>
<stop offset="1" stop-color="#6AD19C"/>
</linearGradient>
<linearGradient id="paint4_linear_7245_56600" x1="123.941" y1="94.4518" x2="127.236" y2="101.583" gradientUnits="userSpaceOnUse">
<stop stop-color="#438F68"/>
<stop offset="1" stop-color="#6AD19C"/>
</linearGradient>
<linearGradient id="paint5_linear_7245_56600" x1="107.337" y1="81.1738" x2="107.337" y2="88.0478" gradientUnits="userSpaceOnUse">
<stop stop-color="#0052CC"/>
<stop offset="1" stop-color="#88C9FF"/>
</linearGradient>
<linearGradient id="paint6_linear_7245_56600" x1="66.4372" y1="104" x2="66.4372" y2="111.856" gradientUnits="userSpaceOnUse">
<stop stop-color="#0052CC"/>
<stop offset="1" stop-color="#88C9FF"/>
</linearGradient>
<linearGradient id="paint7_linear_7245_56600" x1="38.4551" y1="52" x2="38.4551" y2="56.9099" gradientUnits="userSpaceOnUse">
<stop stop-color="#0052CC"/>
<stop offset="1" stop-color="#88C9FF"/>
</linearGradient>
<linearGradient id="paint8_linear_7245_56600" x1="131.455" y1="56.9473" x2="131.455" y2="61.8572" gradientUnits="userSpaceOnUse">
<stop stop-color="#438F68"/>
<stop offset="1" stop-color="#6AD19C"/>
</linearGradient>
<linearGradient id="paint9_linear_7245_56600" x1="51.4551" y1="29" x2="51.4551" y2="33.9099" gradientUnits="userSpaceOnUse">
<stop stop-color="#0052CC"/>
<stop offset="1" stop-color="#88C9FF"/>
</linearGradient>
<linearGradient id="paint10_linear_7245_56600" x1="16.4551" y1="84.5664" x2="16.4551" y2="89.4763" gradientUnits="userSpaceOnUse">
<stop stop-color="#438F68"/>
<stop offset="1" stop-color="#6AD19C"/>
</linearGradient>
</defs>
</svg>
