<svg width="70" height="48" viewBox="0 0 70 48" fill="none" xmlns="http://www.w3.org/2000/svg">
<rect width="60" height="48" rx="8" fill="#5E6677"/>
<g filter="url(#filter0_b_13588_65490)">
<circle cx="53.5" cy="24.5" r="16.5" fill="#F75E5E" fill-opacity="0.8"/>
</g>
<path fill-rule="evenodd" clip-rule="evenodd" d="M54.9002 14.906C54.7302 14.5244 54.4066 14.2216 54.0084 14.0847C53.6102 13.9478 53.1704 13.9768 52.8012 14.1718C52.2495 14.4663 51.955 14.96 51.9592 15.6071V16.7479V18.5938C51.9592 18.8178 52.0006 19.046 52.0795 19.2451C52.2454 19.6848 52.627 20.0208 53.0999 20.1452C53.2327 20.1826 53.3696 20.1992 53.5064 20.1992C53.8549 20.1992 54.195 20.083 54.4647 19.8632C54.8463 19.552 55.0454 19.1165 55.0454 18.6104V17.5194V17.117V16.7022C55.0454 16.3455 55.0454 15.9721 55.0413 15.6071C55.0371 15.3458 54.9874 15.1093 54.9002 14.9102V14.906ZM57.6878 21.9124H57.609L57.6049 21.9082C57.1112 21.8875 56.6715 21.651 56.3895 21.2611C56.1115 20.8712 56.0327 20.3734 56.1696 19.8922C56.236 19.6682 56.3687 19.4483 56.5512 19.2617C57.3477 18.4486 58.0695 17.7268 58.7539 17.0548C59.0941 16.723 59.5504 16.5612 60.0108 16.6151C60.4796 16.669 60.8944 16.9345 61.1558 17.3411C61.5291 17.9342 61.4378 18.7348 60.9359 19.2451C60.4716 19.7176 59.9949 20.1943 59.5348 20.6545L59.5347 20.6546L59.5342 20.6551L59.534 20.6553L59.5338 20.6555L58.8991 21.2902L58.8618 21.3275L58.8454 21.3439C58.6938 21.4958 58.4939 21.696 58.1898 21.7921C58.0736 21.8253 57.9658 21.8502 57.8704 21.8709C57.8517 21.875 57.8341 21.8792 57.8164 21.8833C57.7988 21.8875 57.7812 21.8916 57.7625 21.8958L57.6878 21.9124ZM48.7149 17.5242C48.7868 17.5956 48.8589 17.6672 48.931 17.7393L49.2286 18.0366L49.2286 18.0366L49.2288 18.0368L49.2289 18.0369C49.6363 18.4436 50.0522 18.8589 50.4575 19.2741C50.7894 19.6184 50.9511 20.0789 50.8972 20.5393C50.8433 20.9998 50.582 21.4104 50.1754 21.6635C49.9971 21.7755 49.8104 21.8294 49.6901 21.8626C49.6693 21.8668 49.632 21.8792 49.632 21.8792L49.5242 21.9207L49.408 21.9124C49.101 21.8958 48.6447 21.8253 48.2714 21.4561L48.2465 21.4312C48.0693 21.254 47.8903 21.0753 47.7103 20.8955L47.71 20.8952C47.165 20.351 46.6101 19.7969 46.0645 19.2451C45.6414 18.8178 45.5045 18.2412 45.6912 17.6688C45.9152 16.9719 46.6121 16.5321 47.3422 16.6234C47.7031 16.669 48.0225 16.8267 48.288 17.0963C48.4288 17.2399 48.5715 17.3817 48.7148 17.5241L48.7148 17.5241L48.7148 17.5241L48.7149 17.5241L48.7149 17.5242ZM49.4619 27.1101C49.0015 27.0811 48.5493 27.2594 48.2133 27.5954C47.8268 27.9882 47.4309 28.3833 47.0415 28.7719L47.0401 28.7733C46.9117 28.9014 46.7841 29.0288 46.6577 29.1552C46.5665 29.2443 46.4763 29.3345 46.3861 29.4247L46.3861 29.4247L46.3861 29.4248L46.386 29.4248L46.3859 29.4249L46.3858 29.425C46.2957 29.5151 46.2055 29.6053 46.1143 29.6944C45.629 30.1798 45.4879 30.7771 45.712 31.3828C45.8945 31.8764 46.3093 32.2373 46.8195 32.3534C46.9315 32.3783 47.0435 32.3908 47.1555 32.3908C47.5538 32.3908 47.9437 32.2331 48.2382 31.9469C48.8521 31.3454 49.4702 30.7273 50.0634 30.1258L50.4534 29.7359C50.7479 29.4372 50.9014 29.0598 50.8931 28.6449C50.8931 28.2923 50.7852 27.9771 50.5778 27.7033C50.3123 27.3548 49.9016 27.1391 49.4578 27.1101H49.4619ZM58.729 27.5374L58.9862 27.7946V27.7904C59.6292 28.4292 60.2929 29.0888 60.94 29.7484C61.247 30.0636 61.4046 30.4784 61.3798 30.914C61.3549 31.3496 61.1392 31.7602 60.7949 32.0382C60.5211 32.2622 60.1851 32.37 59.8491 32.37C59.4384 32.37 59.0194 32.2083 58.7 31.8847C58.354 31.5324 57.9985 31.1778 57.6496 30.8296C57.5342 30.7145 57.4196 30.6001 57.3062 30.4867L56.5927 29.7732C56.1655 29.3501 56.0161 28.7901 56.1696 28.2094C56.3438 27.5457 56.9909 27.0935 57.7459 27.1059C58.0902 27.1059 58.4553 27.2677 58.729 27.5374ZM53.9918 28.8855C54.4273 29.0307 54.7634 29.3418 54.9168 29.7442L54.9044 29.7401C54.9791 29.9392 55.0247 30.1715 55.0288 30.4038C55.033 30.7688 55.033 31.138 55.033 31.4948V31.9013V32.2912V33.4071C55.0371 33.9629 54.8007 34.4193 54.3568 34.7262C54.0996 34.9087 53.7968 35 53.4899 35C53.3447 35 53.1995 34.9793 53.0584 34.9378C52.6146 34.805 52.2578 34.4856 52.0795 34.0542C52.0006 33.8634 51.955 33.6394 51.955 33.4154V31.138V30.383C51.955 29.7981 52.2122 29.3294 52.7017 29.0224C53.0792 28.7901 53.5479 28.7362 53.9918 28.8855ZM46.0894 26.0399H46.5084H46.9232C47.1472 26.0399 47.3712 26.0399 47.5994 26.0316C47.8649 26.0274 48.0972 25.9776 48.2963 25.8947C49.0388 25.5753 49.3914 24.7249 49.101 23.9575C48.8604 23.3186 48.3212 22.9536 47.6243 22.9536H45.4548H44.5878C44.2476 22.9536 43.9573 23.0365 43.7042 23.2025C43.0364 23.6505 42.8082 24.505 43.1732 25.1978C43.4636 25.7495 43.9738 26.0482 44.6127 26.044H45.6373H46.0936L46.0894 26.0399ZM62.3919 22.9536C62.9561 22.9494 63.4165 23.1817 63.7276 23.6214C63.9931 24.0031 64.072 24.476 63.9434 24.924C63.8106 25.372 63.4912 25.7287 63.0639 25.9071C62.815 26.0108 62.5661 26.0357 62.4002 26.0357C61.9066 26.0399 61.4088 26.0399 60.9152 26.0399H60.2307H59.4052C58.6876 26.0399 58.1566 25.6873 57.9119 25.0484C57.6464 24.364 57.9036 23.5841 58.5216 23.1942C58.7788 23.0324 59.0692 22.9536 59.4177 22.9536H60.9027H61.359H62.3919Z" fill="white"/>
<defs>
<filter id="filter0_b_13588_65490" x="34" y="5" width="39" height="39" filterUnits="userSpaceOnUse" color-interpolation-filters="sRGB">
<feFlood flood-opacity="0" result="BackgroundImageFix"/>
<feGaussianBlur in="BackgroundImageFix" stdDeviation="1.5"/>
<feComposite in2="SourceAlpha" operator="in" result="effect1_backgroundBlur_13588_65490"/>
<feBlend mode="normal" in="SourceGraphic" in2="effect1_backgroundBlur_13588_65490" result="shape"/>
</filter>
</defs>
</svg>
