<svg xmlns="http://www.w3.org/2000/svg" width="21" height="21" viewBox="0 0 21 21" fill="none">
<path d="M9.49378 15.4342L14.6021 10.3136L13.6624 9.3739L9.50614 13.5302L7.24066 11.2647L6.28861 12.2167L9.49378 15.4342ZM4.92381 19.5591C4.44975 19.5591 4.04242 19.3888 3.70183 19.0482C3.36122 18.7076 3.19092 18.3003 3.19092 17.8262V3.17378C3.19092 2.69632 3.36122 2.28608 3.70183 1.94305C4.04242 1.60004 4.44975 1.42853 4.92381 1.42853H12.8454L17.8215 6.40461V17.8262C17.8215 18.3003 17.65 18.7076 17.307 19.0482C16.964 19.3888 16.5537 19.5591 16.0763 19.5591H4.92381ZM11.9419 7.24253V3.17378H4.92381V17.8262H16.0763V7.24253H11.9419Z" />
</svg>
