<svg width="17" height="21" viewBox="0 0 17 21" xmlns="http://www.w3.org/2000/svg">
<path d="M16.1668 7.56752C16.1568 7.47948 16.1376 7.39275 16.1093 7.30877V7.22252C16.0633 7.12398 16.0018 7.03341 15.9272 6.95419L10.1772 1.20419C10.098 1.12964 10.0074 1.06818 9.90891 1.0221C9.88031 1.01804 9.85127 1.01804 9.82266 1.0221C9.72531 0.966272 9.61779 0.930434 9.50641 0.916687H3.7085C2.946 0.916687 2.21473 1.21959 1.67556 1.75876C1.1364 2.29792 0.833496 3.02919 0.833496 3.79169V17.2084C0.833496 17.9709 1.1364 18.7021 1.67556 19.2413C2.21473 19.7805 2.946 20.0834 3.7085 20.0834H13.2918C14.0543 20.0834 14.7856 19.7805 15.3248 19.2413C15.8639 18.7021 16.1668 17.9709 16.1668 17.2084V7.62502C16.1668 7.62502 16.1668 7.62502 16.1668 7.56752ZM10.4168 4.1846L12.8989 6.66669H11.3752C11.121 6.66669 10.8772 6.56572 10.6975 6.386C10.5178 6.20628 10.4168 5.96252 10.4168 5.70835V4.1846ZM14.2502 17.2084C14.2502 17.4625 14.1492 17.7063 13.9695 17.886C13.7898 18.0657 13.546 18.1667 13.2918 18.1667H3.7085C3.45433 18.1667 3.21057 18.0657 3.03085 17.886C2.85113 17.7063 2.75016 17.4625 2.75016 17.2084V3.79169C2.75016 3.53752 2.85113 3.29377 3.03085 3.11404C3.21057 2.93432 3.45433 2.83335 3.7085 2.83335H8.50016V5.70835C8.50016 6.47085 8.80306 7.20212 9.34223 7.74129C9.8814 8.28045 10.6127 8.58335 11.3752 8.58335H14.2502V17.2084ZM10.6947 10.7779L7.54183 13.9404L6.30558 12.6946C6.12512 12.5141 5.88037 12.4128 5.62516 12.4128C5.36996 12.4128 5.1252 12.5141 4.94475 12.6946C4.76429 12.8751 4.66291 13.1198 4.66291 13.375C4.66291 13.6302 4.76429 13.875 4.94475 14.0554L6.86141 15.9721C6.9505 16.0619 7.05649 16.1332 7.17328 16.1819C7.29006 16.2305 7.41532 16.2556 7.54183 16.2556C7.66834 16.2556 7.7936 16.2305 7.91038 16.1819C8.02716 16.1332 8.13316 16.0619 8.22225 15.9721L12.0556 12.1388C12.236 11.9583 12.3374 11.7136 12.3374 11.4584C12.3374 11.2031 12.236 10.9584 12.0556 10.7779C11.8751 10.5975 11.6304 10.4961 11.3752 10.4961C11.12 10.4961 10.8752 10.5975 10.6947 10.7779Z" />
</svg>
