<svg width="23" height="23" viewBox="0 0 23 23"  xmlns="http://www.w3.org/2000/svg">
<path d="M20.8055 8.90289L16.9721 5.06956C16.8828 4.9802 16.7767 4.90933 16.66 4.86097C16.5432 4.81261 16.4181 4.78772 16.2917 4.78772C16.0365 4.78772 15.7918 4.8891 15.6113 5.06956C15.4308 5.25002 15.3295 5.49477 15.3295 5.74997C15.3295 6.00518 15.4308 6.24993 15.6113 6.43039L17.8155 8.62497H6.70839C6.45422 8.62497 6.21046 8.72594 6.03074 8.90566C5.85102 9.08539 5.75005 9.32914 5.75005 9.58331C5.75005 9.83747 5.85102 10.0812 6.03074 10.261C6.21046 10.4407 6.45422 10.5416 6.70839 10.5416H20.1251C20.3142 10.5407 20.4989 10.4838 20.6558 10.378C20.8127 10.2723 20.9348 10.1225 21.0067 9.94747C21.0801 9.77295 21.1002 9.5806 21.0643 9.39469C21.0285 9.20879 20.9384 9.03766 20.8055 8.90289ZM16.2917 12.4583H2.87505C2.68585 12.4593 2.50117 12.5162 2.34427 12.6219C2.18737 12.7277 2.06528 12.8775 1.99339 13.0525C1.92 13.227 1.89995 13.4193 1.93576 13.6053C1.97158 13.7912 2.06166 13.9623 2.19464 14.0971L6.02797 17.9304C6.11706 18.0202 6.22305 18.0915 6.33983 18.1402C6.45661 18.1888 6.58187 18.2139 6.70839 18.2139C6.8349 18.2139 6.96016 18.1888 7.07694 18.1402C7.19372 18.0915 7.29971 18.0202 7.3888 17.9304C7.47863 17.8413 7.54992 17.7353 7.59857 17.6185C7.64723 17.5017 7.67228 17.3765 7.67228 17.25C7.67228 17.1235 7.64723 16.9982 7.59857 16.8814C7.54992 16.7646 7.47863 16.6586 7.3888 16.5696L5.18464 14.375H16.2917C16.5459 14.375 16.7896 14.274 16.9694 14.0943C17.1491 13.9146 17.2501 13.6708 17.2501 13.4166C17.2501 13.1625 17.1491 12.9187 16.9694 12.739C16.7896 12.5593 16.5459 12.4583 16.2917 12.4583Z" />
</svg>
