<svg width="59" height="54" viewBox="0 0 59 54" fill="none" xmlns="http://www.w3.org/2000/svg">
<path d="M52.7323 5.63747V8.53039H52.5097H49.691L6.44565 8.38203C5.6297 8.38203 4.81375 8.23368 3.9978 8.01115C3.92362 8.01115 3.84945 7.93697 3.77527 7.93697C2.73679 7.56608 1.84666 7.12102 1.10489 6.37924C0.51147 5.78583 0.0664062 4.8957 0.0664062 4.07975C0.0664062 2.52203 1.32742 1.33519 3.10767 0.593418C3.70109 0.296709 4.44287 0.148355 5.18464 0.0741776C5.48135 0.0741776 5.77806 0 6.07476 0H47.0948C47.5399 0 47.9107 0.0741771 48.2816 0.148354C48.5783 0.222532 48.875 0.296709 49.1718 0.445064C51.3229 1.33519 52.7323 3.2638 52.7323 5.63747Z" fill="#138DF2"/>
<path d="M52.5064 8.53096H49.6877L6.44233 8.38261C5.62638 8.38261 4.81043 8.23425 3.99448 8.01172C3.9203 8.01172 3.84612 7.93755 3.77194 7.93755C2.73346 7.56666 1.84334 7.1216 1.10156 6.37982C1.6208 5.86058 2.2884 5.41552 3.10435 5.11881C3.69777 4.8221 4.43954 4.67375 5.18131 4.59957C5.47802 4.52539 5.77473 4.52539 6.07144 4.52539H47.0915C47.5365 4.52539 47.9074 4.59957 48.2783 4.67375C48.575 4.74792 48.8717 4.8221 49.1684 4.97045C50.8003 5.63805 51.9872 6.97324 52.5064 8.53096Z" fill="#006AC2"/>
<path d="M58.0066 13.0537V49.4747C58.0066 51.9967 56.0038 53.9995 53.4818 53.9995H9.7914C6.15671 53.9995 3.33798 52.2934 1.55772 50.8841C0.741773 50.2165 0.222532 49.178 0.222532 48.1395C0.222532 47.6203 0.222532 47.101 0.222532 46.5818C0.222532 45.84 0.222532 44.9499 0.222532 44.0598C0.222532 39.9058 0.222532 34.3425 0.148354 28.7051C0.148354 27.8891 0.148354 27.0732 0.148354 26.183C0.148354 23.2159 0.148355 20.2489 0.0741775 17.4301C0.0741775 16.6142 0.0741775 15.7982 0.0741775 14.9081C0.0741775 9.34479 0 5.19087 0 4.22656C0 5.85846 1.55772 7.34201 3.63469 7.93543C3.70886 7.93543 3.78304 8.0096 3.85722 8.0096C4.59899 8.23214 5.48912 8.38049 6.30507 8.38049L49.5504 8.60302H52.6659H53.4076C56.0038 8.52884 58.0066 10.5316 58.0066 13.0537Z" fill="#6EBEFF"/>
<g filter="url(#filter0_d_12444_41201)">
<path d="M57.9996 23.3652V24.7004C57.9254 24.7004 57.8512 24.7004 57.7029 24.7004H48.8016C47.2439 24.7004 45.9087 25.2938 44.9444 26.2581C44.0543 27.1483 43.3867 28.4835 43.3125 29.8928C43.3125 29.967 43.3125 30.1154 43.3125 30.1895C43.3125 33.2308 45.7604 35.6787 48.8016 35.6787H57.7029C58.148 35.6787 58.5188 35.5303 58.6672 35.3078C58.7414 35.2336 58.8156 35.0852 58.8156 35.0111V24.0328C58.8156 23.6619 58.4447 23.4394 57.9996 23.3652Z" fill="#158FF4"/>
</g>
<path d="M48.3615 33.4544C50.1417 33.4544 51.6253 31.9708 51.6253 30.1906C51.6253 28.4103 50.1417 26.9268 48.3615 26.9268C46.5812 26.9268 45.0977 28.4103 45.0977 30.1906C45.0977 31.9708 46.5812 33.4544 48.3615 33.4544Z" fill="white"/>
<defs>
<filter id="filter0_d_12444_41201" x="21.3125" y="12.3652" width="59.5039" height="56.3135" filterUnits="userSpaceOnUse" color-interpolation-filters="sRGB">
<feFlood flood-opacity="0" result="BackgroundImageFix"/>
<feColorMatrix in="SourceAlpha" type="matrix" values="0 0 0 0 0 0 0 0 0 0 0 0 0 0 0 0 0 0 127 0" result="hardAlpha"/>
<feOffset dy="11"/>
<feGaussianBlur stdDeviation="11"/>
<feColorMatrix type="matrix" values="0 0 0 0 0.397708 0 0 0 0 0.47749 0 0 0 0 0.575 0 0 0 0.27 0"/>
<feBlend mode="normal" in2="BackgroundImageFix" result="effect1_dropShadow_12444_41201"/>
<feBlend mode="normal" in="SourceGraphic" in2="effect1_dropShadow_12444_41201" result="shape"/>
</filter>
</defs>
</svg>
