<svg width="61" height="67" viewBox="0 0 61 67" fill="none" xmlns="http://www.w3.org/2000/svg">
<g clip-path="url(#clip0_13804_100841)">
<mask id="mask0_13804_100841" style="mask-type:luminance" maskUnits="userSpaceOnUse" x="0" y="0" width="61" height="67">
<path d="M61 0H0V67H61V0Z" fill="white"/>
</mask>
<g mask="url(#mask0_13804_100841)">
<path d="M25.4688 1.34163C28.5821 -0.447209 32.4179 -0.44721 35.5312 1.34163L55.9688 13.0846C59.0821 14.8734 61 18.1794 61 21.757V45.243C61 48.8207 59.0821 52.1266 55.9688 53.9154L35.5312 65.6584C32.4179 67.4472 28.5821 67.4472 25.4688 65.6584L5.0312 53.9154C1.91788 52.1266 0 48.8207 0 45.243V21.757C0 18.1794 1.91788 14.8734 5.0312 13.0846L25.4688 1.34163Z" fill="#6c6f89"/>
<path d="M30.5723 10.4678H30.4273C22.1314 10.4678 15.4062 17.1929 15.4062 25.4889C15.4062 33.7848 22.1314 40.51 30.4273 40.51H30.5723C38.8683 40.51 45.5934 33.7848 45.5934 25.4889C45.5934 17.1929 38.8683 10.4678 30.5723 10.4678Z" fill="#98A2B3"/>
<path d="M25.9591 27.8206C25.8183 27.8206 25.6935 27.8206 25.5684 27.8206C25.177 27.8206 24.7857 27.8259 24.3945 27.819C24.0352 27.8127 23.7689 27.5565 23.7332 27.1989C23.7019 26.8864 23.9463 26.5693 24.2774 26.5C24.3598 26.4827 24.4458 26.476 24.5302 26.4758C25.1533 26.4738 25.7762 26.4746 26.3994 26.475C26.4511 26.475 26.4924 26.4787 26.5175 26.412C26.6808 25.9789 26.85 25.5478 27.017 25.116C27.0204 25.1069 27.02 25.0963 27.0231 25.0752C26.9894 25.0734 26.9577 25.0703 26.926 25.0703C26.5275 25.0699 26.129 25.0709 25.7305 25.0697C25.3516 25.0685 25.0597 24.796 25.0374 24.4251C25.0174 24.0925 25.3088 23.7522 25.6647 23.7333C26.0738 23.7115 26.4848 23.7215 26.895 23.7186C27.095 23.7172 27.2951 23.713 27.495 23.7209C27.5726 23.7239 27.6013 23.6945 27.6258 23.6297C27.8328 23.0829 28.0425 22.5374 28.2516 21.9913C28.5379 21.2435 28.8244 20.4958 29.1107 19.7479C29.3415 19.1453 29.57 18.5419 29.8029 17.9401C29.9129 17.6561 30.1643 17.4855 30.453 17.4883C30.7488 17.4911 30.9734 17.6596 31.0905 17.9538C31.4714 18.9111 31.8556 19.8672 32.2378 20.8239C32.6114 21.7589 32.9848 22.6939 33.3551 23.6303C33.3841 23.7036 33.415 23.7337 33.4994 23.7331C34.0712 23.7286 34.6432 23.7312 35.2151 23.7306C35.6213 23.7302 35.9302 24.0238 35.9257 24.4082C35.9212 24.7723 35.5897 25.0793 35.2046 25.078C34.7994 25.0768 34.3941 25.0776 33.9888 25.078C33.9727 25.078 33.9566 25.0797 33.9308 25.0809C34.0232 25.3162 34.1123 25.5451 34.203 25.7733C34.2866 25.9836 34.3769 26.1916 34.4542 26.4041C34.4818 26.4805 34.5216 26.4966 34.5948 26.4962C35.2416 26.4939 35.8885 26.4939 36.5353 26.4949C36.8069 26.4953 37.0303 26.6014 37.1703 26.8342C37.4153 27.2422 37.1836 27.7389 36.6994 27.8127C36.4264 27.8543 36.1441 27.8375 35.8658 27.8413C35.5741 27.8452 35.2825 27.8421 34.9768 27.8421C35.0463 28.0181 35.1108 28.1841 35.177 28.3492C35.5239 29.2147 35.8709 30.08 36.2181 30.9451C36.4257 31.4622 36.6334 31.9794 36.8423 32.4961C36.943 32.7454 36.9583 32.9912 36.7997 33.2222C36.6444 33.4483 36.4129 33.5109 36.1537 33.4815C35.8989 33.4526 35.7215 33.3122 35.625 33.0751C35.5014 32.7716 35.3792 32.4677 35.258 32.1633C35.0066 31.5323 34.7571 30.9006 34.5055 30.2698C34.1924 29.4852 33.8768 28.7015 33.5658 27.9163C33.5405 27.8523 33.5118 27.8308 33.4424 27.831C31.46 27.833 29.4778 27.8326 27.4954 27.8324C27.4431 27.8324 27.4034 27.8316 27.3779 27.8974C27.0433 28.7643 26.7041 29.6294 26.3669 30.4953C26.0407 31.3328 25.7157 32.1706 25.3898 33.0081C25.2404 33.3917 24.8188 33.5087 24.5353 33.3949C24.1627 33.2454 24.0064 32.8529 24.1492 32.4906C24.4307 31.7773 24.7039 31.0607 24.9812 30.346C25.2232 29.7225 25.4666 29.0993 25.7088 28.4758C25.7916 28.2629 25.8714 28.0496 25.9591 27.8206ZM27.9575 26.4903H32.9925C32.9811 26.4547 32.9737 26.4261 32.9629 26.3988C32.8004 25.9909 32.6351 25.5841 32.4765 25.1747C32.4475 25.0998 32.4136 25.0754 32.3314 25.0756C31.4089 25.0784 30.4861 25.0764 29.5636 25.0758C29.2097 25.0756 28.8559 25.0758 28.4999 25.0758C28.319 25.5474 28.1404 26.0134 27.9575 26.4903ZM30.4847 20.0696C30.4767 20.0691 30.4686 20.0689 30.4606 20.0685C29.9932 21.2798 29.5258 22.4909 29.0537 23.7146H31.9308C31.4469 22.4948 30.9656 21.2823 30.4847 20.0696Z" fill="white"/>
<path d="M22.6804 46.4464L20.3456 53.5285H18.4648L21.6545 44.9854H22.8514L22.6804 46.4464ZM24.6202 53.5285L22.2795 46.4464L22.0908 44.9854H23.2995L26.5069 53.5285H24.6202ZM24.514 50.3484V51.7271H19.9801V50.3484H24.514Z" fill="white"/>
<path d="M29.9402 53.5285H28.0712L28.083 52.1556H29.9402C30.404 52.1556 30.7951 52.0519 31.1135 51.8446C31.4319 51.6334 31.6716 51.3263 31.8328 50.9234C31.9979 50.5205 32.0804 50.0334 32.0804 49.4622V49.0457C32.0804 48.6076 32.0332 48.2223 31.9389 47.8898C31.8485 47.5573 31.7129 47.2776 31.5321 47.0508C31.3513 46.8239 31.1292 46.6536 30.8659 46.5402C30.6025 46.4228 30.2998 46.3643 29.9579 46.3643H28.0358V44.9854H29.9579C30.5317 44.9854 31.0565 45.0831 31.5321 45.2786C32.0116 45.4703 32.4263 45.7461 32.7761 46.106C33.126 46.4659 33.3952 46.8961 33.5839 47.3969C33.7765 47.8936 33.8728 48.4472 33.8728 49.0574V49.4622C33.8728 50.0686 33.7765 50.6221 33.5839 51.1228C33.3952 51.6235 33.126 52.0538 32.7761 52.4137C32.4302 52.7696 32.0156 53.0455 31.5321 53.2411C31.0526 53.4328 30.5219 53.5285 29.9402 53.5285ZM29.0735 44.9854V53.5285H27.3047V44.9854H29.0735Z" fill="white"/>
<path d="M38.5203 46.4464L36.1855 53.5285H34.3047L37.4944 44.9854H38.6913L38.5203 46.4464ZM40.46 53.5285L38.1193 46.4464L37.9307 44.9854H39.1393L42.3467 53.5285H40.46ZM40.3539 50.3484V51.7271H35.8199V50.3484H40.3539Z" fill="white"/>
</g>
</g>
<defs>
<clipPath id="clip0_13804_100841">
<rect width="61" height="67" fill="white"/>
</clipPath>
</defs>
</svg>
