<svg width="29" height="29" viewBox="0 0 29 29"   xmlns="http://www.w3.org/2000/svg">
<rect width="29" height="29" rx="14.5"   fill-opacity="0.15"/>
<path d="M10.4754 16.5408C10.3506 16.5408 10.2399 16.5408 10.1291 16.5408C9.78219 16.5408 9.43529 16.5454 9.08858 16.5394C8.77012 16.5339 8.53409 16.3097 8.50239 15.9968C8.47467 15.7234 8.69132 15.4459 8.98478 15.3853C9.05778 15.3702 9.13405 15.3643 9.20886 15.3641C9.76117 15.3623 10.3133 15.3631 10.8656 15.3634C10.9115 15.3634 10.948 15.3666 10.9703 15.3083C11.1151 14.9293 11.265 14.5521 11.413 14.1743C11.4161 14.1663 11.4158 14.157 11.4185 14.1386C11.3886 14.137 11.3605 14.1343 11.3324 14.1343C10.9792 14.1339 10.626 14.1348 10.2727 14.1338C9.93688 14.1327 9.67821 13.8943 9.65846 13.5697C9.64071 13.2787 9.89902 12.9809 10.2144 12.9644C10.5771 12.9454 10.9413 12.9541 11.3049 12.9516C11.4822 12.9503 11.6596 12.9466 11.8367 12.9535C11.9056 12.9562 11.9309 12.9304 11.9527 12.8737C12.1362 12.3953 12.322 11.918 12.5073 11.4402C12.7611 10.7858 13.0151 10.1316 13.2689 9.47721C13.4734 8.94994 13.6759 8.42195 13.8824 7.8954C13.9799 7.64687 14.2027 7.49754 14.4587 7.50003C14.7208 7.50252 14.9198 7.64989 15.0236 7.90731C15.3613 8.74497 15.7019 9.58156 16.0406 10.4187C16.3717 11.2368 16.7027 12.0549 17.0309 12.8742C17.0566 12.9384 17.084 12.9647 17.1588 12.9642C17.6657 12.9603 18.1727 12.9626 18.6795 12.9621C19.0397 12.9617 19.3134 13.2186 19.3094 13.5549C19.3054 13.8735 19.0116 14.1421 18.6703 14.1411C18.3111 14.14 17.9519 14.1407 17.5927 14.1411C17.5783 14.1411 17.564 14.1425 17.5412 14.1435C17.6231 14.3494 17.7021 14.5497 17.7825 14.7494C17.8566 14.9334 17.9367 15.1154 18.0051 15.3014C18.0296 15.3682 18.0649 15.3823 18.1298 15.3819C18.7031 15.3799 19.2764 15.3799 19.8497 15.3808C20.0905 15.3812 20.2885 15.474 20.4126 15.6777C20.6298 16.0347 20.4243 16.4693 19.9952 16.5339C19.7532 16.5703 19.503 16.5555 19.2563 16.5589C18.9978 16.5623 18.7393 16.5596 18.4683 16.5596C18.5299 16.7136 18.5872 16.8588 18.6458 17.0034C18.9532 17.7607 19.2608 18.5178 19.5686 19.2747C19.7526 19.7272 19.9367 20.1798 20.1218 20.6319C20.2111 20.85 20.2247 21.0651 20.0841 21.2672C19.9465 21.4651 19.7412 21.5198 19.5115 21.494C19.2856 21.4688 19.1284 21.346 19.0429 21.1385C18.9333 20.8729 18.825 20.607 18.7176 20.3407C18.4948 19.7885 18.2736 19.2358 18.0506 18.6838C17.7731 17.9973 17.4934 17.3116 17.2177 16.6245C17.1952 16.5685 17.1699 16.5497 17.1083 16.5499C15.3512 16.5516 13.5942 16.5513 11.8371 16.5511C11.7907 16.5511 11.7556 16.5504 11.7329 16.608C11.4364 17.3665 11.1357 18.1235 10.8368 18.8812C10.5477 19.6139 10.2597 20.3471 9.97076 21.0798C9.83834 21.4155 9.46464 21.5179 9.21339 21.4183C8.88316 21.2875 8.74458 20.944 8.8712 20.6271C9.12064 20.0029 9.36283 19.3759 9.60865 18.7505C9.82312 18.2049 10.0389 17.6597 10.2535 17.1141C10.3269 16.9278 10.3983 16.7408 10.476 16.5404L10.4754 16.5408ZM12.2467 15.3767H16.7096C16.6994 15.3456 16.6929 15.3206 16.6833 15.2967C16.5393 14.9398 16.3927 14.5839 16.2522 14.2257C16.2265 14.1601 16.1964 14.1387 16.1236 14.1389C15.3059 14.1414 14.488 14.1396 13.6703 14.1391C13.3566 14.1389 13.043 14.1391 12.7274 14.1391C12.5671 14.5517 12.4088 14.9595 12.2467 15.3767ZM14.4867 9.75862C14.4797 9.75827 14.4724 9.75809 14.4654 9.75773C14.0511 10.8176 13.6368 11.8773 13.2183 12.948H15.7685C15.3396 11.8807 14.9131 10.8197 14.4869 9.75862H14.4867Z" />
</svg>
