<svg width="414" height="437" viewBox="0 0 414 437" fill="none" xmlns="http://www.w3.org/2000/svg">
<g clip-path="url(#clip0_685_53)">
<path d="M5 175.16V261.03C5 306.48 29.25 348.49 68.61 371.21L142.97 414.14C182.33 436.87 230.83 436.87 270.2 414.14L344.56 371.21C383.92 348.48 408.17 306.48 408.17 261.03V175.16C408.17 129.71 383.92 87.7 344.56 64.98L270.2 22.05C230.84 -0.679996 182.34 -0.679996 142.98 22.05L68.62 64.98C29.25 87.71 5 129.71 5 175.16Z" fill="#6C6F89" stroke="#D6E2FF" stroke-width="10" stroke-miterlimit="10"/>
<path d="M30.7999 210.52C26.3799 210.27 22.5999 213.65 22.3499 218.07C22.0999 222.49 25.4799 226.27 29.8999 226.52C34.3099 226.77 38.0899 223.39 38.3499 218.98C38.6099 214.57 35.2499 210.78 30.8399 210.52C30.8299 210.52 30.8099 210.52 30.7999 210.52Z" fill="#434656"/>
<path d="M123.31 216.81C122.52 230.51 132.98 242.26 146.68 243.06H148.04C161.74 243.04 172.84 231.93 172.82 218.22C172.8 204.52 161.69 193.42 147.98 193.44C134.84 193.45 123.99 203.71 123.24 216.83H123.31V216.81Z" fill="#434656"/>
<path d="M30.7999 210.52C26.3799 210.27 22.5999 213.65 22.3499 218.07C22.0999 222.49 25.4799 226.27 29.8999 226.52C34.3099 226.77 38.0899 223.39 38.3499 218.98C38.6099 214.57 35.2499 210.78 30.8399 210.52C30.8299 210.52 30.8099 210.52 30.7999 210.52Z" fill="#434656"/>
<path d="M121.74 72.83C125.68 70.81 127.24 65.97 125.21 62.02C123.19 58.08 118.35 56.52 114.4 58.55C110.49 60.56 108.92 65.34 110.89 69.28C112.88 73.25 117.71 74.85 121.68 72.86C121.7 72.86 121.72 72.84 121.73 72.83H121.74Z" fill="#434656"/>
<path d="M146.91 116.72C153.02 113.64 155.47 106.19 152.39 100.08C149.31 93.97 141.86 91.52 135.75 94.6C129.64 97.68 127.19 105.13 130.26 111.24C133.34 117.35 140.79 119.81 146.9 116.73L146.91 116.72Z" fill="#434656"/>
<path d="M62.1998 146.91C66.9098 150.01 73.2398 148.7 76.3398 143.99C79.4398 139.28 78.1298 132.95 73.4198 129.85C68.7098 126.75 62.3798 128.06 59.2798 132.77C59.2798 132.77 59.2798 132.77 59.2798 132.78C56.1898 137.49 57.4998 143.81 62.2098 146.91H62.1998Z" fill="#434656"/>
<path d="M77.2899 206.01C70.4599 205.62 64.6099 210.85 64.2199 217.68C63.8299 224.51 69.0599 230.36 75.8899 230.75C82.7199 231.14 88.5699 225.92 88.9599 219.09C89.3499 212.26 84.1199 206.4 77.2899 206.01Z" fill="#434656"/>
<path d="M63.5499 289.32C58.5199 291.86 56.4999 298 59.0399 303.04C61.5799 308.07 67.7199 310.09 72.7599 307.55C77.7899 305.01 79.8099 298.87 77.2699 293.84C74.7299 288.81 68.5899 286.78 63.5599 289.32H63.5499Z" fill="#434656"/>
<path d="M111.72 180.4C118.46 184.82 127.5 182.93 131.92 176.2C136.34 169.46 134.45 160.42 127.72 156C120.98 151.58 111.94 153.47 107.53 160.2C103.11 166.93 104.98 175.96 111.71 180.38C111.71 180.38 111.73 180.39 111.74 180.4H111.72Z" fill="#434656"/>
<path d="M264.53 115.75C270.27 119.49 277.95 117.88 281.7 112.14C285.44 106.4 283.83 98.72 278.09 94.97C272.36 91.23 264.68 92.84 260.93 98.57C257.18 104.29 258.78 111.97 264.5 115.73C264.51 115.73 264.52 115.74 264.53 115.75Z" fill="#434656"/>
<path d="M289.97 71.98C293.68 74.41 298.65 73.37 301.08 69.67C303.51 65.96 302.47 60.99 298.77 58.56C295.07 56.13 290.09 57.17 287.66 60.87C285.24 64.58 286.27 69.55 289.98 71.97L289.97 71.98Z" fill="#434656"/>
<path d="M266.49 193.2C252.81 192.41 241.08 202.87 240.29 216.55C239.5 230.23 249.96 241.96 263.64 242.75H265.08C278.78 242.75 289.88 231.63 289.88 217.93C289.88 211.84 287.63 205.96 283.57 201.42C279.21 196.5 273.05 193.54 266.49 193.2Z" fill="#434656"/>
<path d="M155.06 178.68C159.26 187.07 167.85 192.36 177.24 192.33C190.95 192.33 202.07 181.22 202.07 167.51C202.07 163.61 201.15 159.77 199.39 156.29C195.16 147.94 186.57 142.69 177.21 142.73C163.5 142.75 152.41 153.89 152.43 167.59C152.43 171.44 153.34 175.23 155.06 178.66V178.68Z" fill="#434656"/>
<path d="M349.6 146.89C354.63 144.35 356.65 138.21 354.11 133.18C351.57 128.15 345.43 126.13 340.4 128.67C335.37 131.21 333.35 137.34 335.88 142.37C338.42 147.41 344.56 149.43 349.6 146.9V146.89Z" fill="#434656"/>
<path d="M286.69 154.79C279.49 158.41 276.6 167.18 280.22 174.38C283.84 181.58 292.61 184.47 299.81 180.85C307.01 177.23 309.9 168.46 306.28 161.26C302.67 154.07 293.91 151.17 286.71 154.78C286.71 154.78 286.69 154.78 286.69 154.79Z" fill="#434656"/>
<path d="M205.64 68.24C211.27 68.56 216.09 64.26 216.41 58.63C216.73 53 212.43 48.18 206.8 47.86C201.17 47.54 196.35 51.84 196.03 57.47C195.71 63.1 200.02 67.91 205.64 68.23V68.24Z" fill="#434656"/>
<path d="M205.53 132.49C213.57 132.94 220.46 126.79 220.91 118.74C221.36 110.7 215.21 103.81 207.16 103.36C199.12 102.91 192.24 109.05 191.78 117.09C191.33 125.14 197.48 132.03 205.53 132.49Z" fill="#434656"/>
<path d="M126.5 281.4C133.69 277.77 136.59 269 132.96 261.81C129.33 254.62 120.56 251.72 113.37 255.35C106.18 258.98 103.28 267.75 106.91 274.94C110.54 282.13 119.31 285.02 126.5 281.39V281.4Z" fill="#434656"/>
<path d="M214.96 153.77C207.45 165.23 210.65 180.61 222.11 188.12C233.57 195.63 248.95 192.43 256.46 180.97C263.97 169.51 260.77 154.13 249.31 146.62C245.28 143.98 240.56 142.57 235.74 142.56C227.37 142.56 219.55 146.77 214.96 153.77Z" fill="#434656"/>
<path d="M258.09 257.53C251.92 245.3 237 240.38 224.77 246.55C212.54 252.72 207.62 267.64 213.79 279.87C218.01 288.23 226.58 293.51 235.94 293.51C239.82 293.48 243.65 292.56 247.11 290.8C259.31 284.63 264.22 269.75 258.09 257.53Z" fill="#434656"/>
<path d="M301.45 255.79C294.72 251.37 285.67 253.24 281.25 259.98C276.83 266.71 278.7 275.76 285.44 280.18C292.17 284.6 301.22 282.73 305.64 275.99C310.05 269.25 308.17 260.22 301.45 255.79Z" fill="#434656"/>
<path d="M348.95 218.52C349.34 211.69 344.11 205.84 337.28 205.45C330.45 205.06 324.6 210.29 324.21 217.12C323.82 223.95 329.04 229.8 335.87 230.19C342.7 230.58 348.56 225.35 348.95 218.52Z" fill="#434656"/>
<path d="M383.28 209.7C378.85 209.45 375.06 212.83 374.81 217.25C374.56 221.68 377.94 225.47 382.36 225.72C386.79 225.97 390.58 222.59 390.83 218.17C391.08 213.75 387.7 209.96 383.28 209.7Z" fill="#434656"/>
<path d="M350.96 289.28C346.24 286.19 339.92 287.51 336.83 292.23C333.74 296.95 335.06 303.27 339.78 306.36C344.49 309.45 350.82 308.13 353.91 303.42C357 298.71 355.69 292.38 350.98 289.28H350.96Z" fill="#434656"/>
<path d="M123.2 364.2C119.49 361.77 114.52 362.8 112.09 366.51C109.66 370.22 110.69 375.19 114.4 377.62C118.1 380.05 123.08 379.02 125.51 375.32C127.94 371.62 126.91 366.64 123.21 364.21L123.2 364.2Z" fill="#434656"/>
<path d="M291.42 363.36C287.46 365.35 285.87 370.18 287.87 374.14C289.86 378.1 294.69 379.69 298.65 377.69C302.61 375.7 304.2 370.87 302.2 366.91C300.21 362.96 295.4 361.36 291.44 363.35C291.44 363.35 291.43 363.35 291.42 363.36Z" fill="#434656"/>
<path d="M198.2 282.37C205.71 270.91 202.51 255.53 191.05 248.02C179.59 240.51 164.21 243.71 156.7 255.17C149.19 266.63 152.39 282.01 163.85 289.52C167.89 292.16 172.6 293.57 177.43 293.58C185.81 293.61 193.63 289.39 198.2 282.37Z" fill="#434656"/>
<path d="M148.62 320.46C142.89 316.71 135.21 318.32 131.47 324.05C127.72 329.78 129.33 337.46 135.06 341.2C140.78 344.94 148.46 343.34 152.21 337.62C155.96 331.89 154.36 324.21 148.63 320.46H148.62Z" fill="#434656"/>
<path d="M206.47 367.95C200.84 367.63 196.02 371.93 195.7 377.56C195.38 383.19 199.68 388.01 205.31 388.33C210.94 388.65 215.76 384.35 216.08 378.72C216.4 373.09 212.1 368.27 206.47 367.94V367.95Z" fill="#434656"/>
<path d="M206.58 303.71C198.54 303.22 191.62 309.34 191.13 317.39C190.64 325.43 196.76 332.35 204.81 332.84C212.85 333.33 219.77 327.21 220.26 319.16C220.26 319.14 220.26 319.12 220.26 319.1C220.72 311.08 214.6 304.19 206.58 303.71Z" fill="#434656"/>
<path d="M266.24 319.47C260.13 322.57 257.69 330.04 260.79 336.14C263.89 342.25 271.36 344.69 277.46 341.59C283.57 338.49 286.01 331.02 282.91 324.92C282.91 324.92 282.91 324.9 282.9 324.89C279.81 318.79 272.36 316.36 266.26 319.46C266.26 319.46 266.25 319.46 266.24 319.47Z" fill="#434656"/>
<path opacity="0.75" d="M5 175.16V261.03C5 306.48 29.25 348.49 68.61 371.21L142.97 414.14C182.33 436.87 230.83 436.87 270.2 414.14L344.56 371.21C383.92 348.48 408.17 306.48 408.17 261.03V175.16C408.17 129.71 383.92 87.7 344.56 64.98L270.2 22.05C230.84 -0.679996 182.34 -0.679996 142.98 22.05L68.62 64.98C29.25 87.71 5 129.71 5 175.16Z" fill="url(#paint0_linear_685_53)" stroke="#6C6F89" stroke-width="10" stroke-miterlimit="10"/>
<path d="M134.35 224.67V204.04H155.52L162.66 183.92H134.36V163.29H169.92L194.42 93.63H221.18L244.73 163.29H277.91V183.92H251.75L258.65 204.04H277.92V224.67H265.55L284.58 280.71H258.66L240.94 224.67H171.85L152.94 280.71H128.68L148.3 224.67H134.39H134.35ZM233.29 204.04L226.75 183.92H185.37L178.59 204.04H233.29ZM192.38 163.29H220.21L206.77 121.39L192.38 163.29Z" fill="#6C6F89"/>
<path d="M176.33 334.18H161.61L158.81 342.57H149.89L165.05 301.84H172.83L188.08 342.57H179.16L176.33 334.18ZM163.88 327.38H174.06L168.94 312.13L163.88 327.38Z" fill="#6C6F89"/>
<path d="M191.89 342.57V301.84H204.42C208 301.84 211.2 302.65 214.03 304.26C216.86 305.87 219.06 308.17 220.65 311.14C222.24 314.11 223.03 317.5 223.03 321.28V323.15C223.03 326.94 222.25 330.3 220.69 333.25C219.13 336.2 216.94 338.48 214.1 340.1C211.26 341.72 208.07 342.54 204.5 342.56H191.88L191.89 342.57ZM200.28 308.64V335.83H204.34C207.62 335.83 210.13 334.76 211.87 332.61C213.61 330.46 214.49 327.4 214.53 323.41V321.26C214.53 317.12 213.67 313.98 211.96 311.85C210.24 309.71 207.74 308.65 204.43 308.65H200.29L200.28 308.64Z" fill="#6C6F89"/>
<path d="M251.53 334.18H236.81L234.01 342.57H225.09L240.25 301.84H248.03L263.28 342.57H254.36L251.53 334.18ZM239.08 327.38H249.26L244.14 312.13L239.08 327.38Z" fill="#6C6F89"/>
</g>
<defs>
<linearGradient id="paint0_linear_685_53" x1="-128" y1="-23" x2="516" y2="454" gradientUnits="userSpaceOnUse">
<stop stop-color="#6C6F89"/>
<stop offset="0.604167" stop-color="white"/>
</linearGradient>
<clipPath id="clip0_685_53">
<rect width="413.18" height="436.19" fill="white"/>
</clipPath>
</defs>
</svg>
