<svg width="61" height="67" viewBox="0 0 61 67" fill="none" xmlns="http://www.w3.org/2000/svg">
<g clip-path="url(#clip0_12699_103191)">
<path d="M25.4688 1.34163C28.5821 -0.447209 32.4179 -0.44721 35.5312 1.34163L55.9688 13.0846C59.0821 14.8734 61 18.1794 61 21.757V45.243C61 48.8207 59.0821 52.1266 55.9688 53.9154L35.5312 65.6584C32.4179 67.4472 28.5821 67.4472 25.4688 65.6584L5.0312 53.9154C1.91788 52.1266 0 48.8207 0 45.243V21.757C0 18.1794 1.91788 14.8734 5.0312 13.0846L25.4688 1.34163Z" fill="#F9B736"/>
<rect x="15.4067" y="10.4677" width="30.1872" height="30.0422" rx="15.0211" fill="black"/>
<path d="M25.9596 27.8211C25.8188 27.8211 25.694 27.8211 25.5689 27.8211C25.1775 27.8211 24.7862 27.8264 24.395 27.8195C24.0357 27.8132 23.7694 27.557 23.7337 27.1994C23.7024 26.8869 23.9468 26.5698 24.2779 26.5005C24.3603 26.4832 24.4463 26.4765 24.5307 26.4763C25.1538 26.4743 25.7767 26.4751 26.3999 26.4755C26.4516 26.4755 26.4929 26.4792 26.518 26.4125C26.6813 25.9794 26.8505 25.5483 27.0175 25.1165C27.0209 25.1074 27.0205 25.0968 27.0236 25.0757C26.9899 25.0739 26.9582 25.0708 26.9265 25.0708C26.528 25.0704 26.1295 25.0714 25.731 25.0702C25.3521 25.069 25.0602 24.7965 25.0379 24.4256C25.0179 24.093 25.3093 23.7527 25.6652 23.7338C26.0743 23.712 26.4853 23.722 26.8955 23.7191C27.0955 23.7177 27.2956 23.7135 27.4955 23.7214C27.5731 23.7244 27.6018 23.695 27.6263 23.6302C27.8333 23.0834 28.043 22.5379 28.2521 21.9918C28.5384 21.244 28.8249 20.4963 29.1112 19.7484C29.342 19.1458 29.5705 18.5424 29.8034 17.9406C29.9134 17.6566 30.1648 17.486 30.4535 17.4888C30.7493 17.4916 30.9739 17.6601 31.091 17.9543C31.4719 18.9116 31.8561 19.8677 32.2383 20.8244C32.6119 21.7594 32.9853 22.6944 33.3556 23.6308C33.3846 23.7041 33.4155 23.7342 33.4999 23.7336C34.0717 23.7291 34.6437 23.7317 35.2156 23.7311C35.6218 23.7307 35.9307 24.0243 35.9262 24.4087C35.9217 24.7728 35.5902 25.0798 35.2051 25.0785C34.7999 25.0773 34.3946 25.0781 33.9893 25.0785C33.9732 25.0785 33.9571 25.0802 33.9313 25.0814C34.0237 25.3167 34.1128 25.5456 34.2035 25.7738C34.2871 25.9841 34.3774 26.1921 34.4547 26.4046C34.4823 26.481 34.5221 26.4971 34.5953 26.4967C35.2421 26.4944 35.889 26.4944 36.5358 26.4954C36.8074 26.4958 37.0308 26.6019 37.1708 26.8347C37.4158 27.2427 37.1841 27.7394 36.6999 27.8132C36.4269 27.8548 36.1446 27.838 35.8663 27.8418C35.5746 27.8457 35.283 27.8426 34.9773 27.8426C35.0468 28.0186 35.1113 28.1846 35.1775 28.3497C35.5244 29.2152 35.8714 30.0805 36.2186 30.9456C36.4262 31.4627 36.6339 31.9799 36.8428 32.4966C36.9435 32.7459 36.9588 32.9917 36.8002 33.2227C36.6449 33.4488 36.4134 33.5114 36.1542 33.482C35.8994 33.4531 35.722 33.3127 35.6255 33.0756C35.5019 32.7721 35.3797 32.4682 35.2585 32.1638C35.0071 31.5328 34.7576 30.9011 34.506 30.2703C34.1929 29.4857 33.8773 28.702 33.5663 27.9168C33.541 27.8528 33.5123 27.8313 33.4429 27.8315C31.4605 27.8335 29.4783 27.8331 27.4959 27.8329C27.4436 27.8329 27.4039 27.8321 27.3784 27.8979C27.0438 28.7648 26.7046 29.6299 26.3674 30.4958C26.0412 31.3333 25.7162 32.1711 25.3903 33.0086C25.2409 33.3922 24.8193 33.5092 24.5358 33.3954C24.1632 33.2459 24.0069 32.8534 24.1497 32.4911C24.4312 31.7778 24.7044 31.0612 24.9817 30.3465C25.2237 29.723 25.4671 29.0998 25.7093 28.4763C25.7921 28.2634 25.8726 28.0497 25.9603 27.8207L25.9596 27.8211ZM27.958 26.4908H32.993C32.9816 26.4552 32.9742 26.4266 32.9634 26.3993C32.8009 25.9914 32.6356 25.5846 32.477 25.1752C32.448 25.1003 32.4141 25.0759 32.3319 25.0761C31.4094 25.0789 30.4866 25.0769 29.5641 25.0763C29.2102 25.0761 28.8564 25.0763 28.5004 25.0763C28.3195 25.5479 28.1409 26.0139 27.958 26.4908V26.4908ZM30.4852 20.0701C30.4772 20.0696 30.4691 20.0694 30.4611 20.069C29.9937 21.2803 29.5263 22.4914 29.0542 23.7151H31.9313C31.4474 22.4953 30.9663 21.2828 30.4854 20.0701H30.4852Z" fill="white"/>
<path d="M22.6819 46.4459L20.3471 53.5281H18.4663L21.656 44.9849H22.8529L22.6819 46.4459ZM24.6217 53.5281L22.281 46.4459L22.0923 44.9849H23.301L26.5084 53.5281H24.6217ZM24.5155 50.3479V51.7267H19.9816V50.3479H24.5155Z" fill="black"/>
<path d="M29.9398 53.5281H28.0708L28.0826 52.1551H29.9398C30.4036 52.1551 30.7947 52.0514 31.1131 51.8441C31.4315 51.6329 31.6712 51.3258 31.8324 50.9229C31.9975 50.52 32.08 50.033 32.08 49.4618V49.0452C32.08 48.6071 32.0328 48.2218 31.9385 47.8893C31.8481 47.5568 31.7125 47.2771 31.5317 47.0503C31.3509 46.8234 31.1288 46.6532 30.8655 46.5398C30.6021 46.4224 30.2994 46.3638 29.9575 46.3638H28.0354V44.9849H29.9575C30.5313 44.9849 31.0561 45.0827 31.5317 45.2782C32.0112 45.4699 32.4259 45.7457 32.7757 46.1056C33.1256 46.4655 33.3948 46.8957 33.5835 47.3965C33.7761 47.8932 33.8724 48.4468 33.8724 49.057V49.4618C33.8724 50.0682 33.7761 50.6217 33.5835 51.1224C33.3948 51.6231 33.1256 52.0534 32.7757 52.4133C32.4298 52.7692 32.0152 53.045 31.5317 53.2406C31.0522 53.4323 30.5215 53.5281 29.9398 53.5281ZM29.0731 44.9849V53.5281H27.3043V44.9849H29.0731Z" fill="black"/>
<path d="M38.5184 46.4459L36.1836 53.5281H34.3028L37.4925 44.9849H38.6894L38.5184 46.4459ZM40.4581 53.5281L38.1174 46.4459L37.9288 44.9849H39.1374L42.3448 53.5281H40.4581ZM40.352 50.3479V51.7267H35.818V50.3479H40.352Z" fill="black"/>
</g>
<defs>
<clipPath id="clip0_12699_103191">
<rect width="61" height="67" fill="white"/>
</clipPath>
</defs>
</svg>
