<svg width="72" height="78" viewBox="0 0 72 78" fill="none" xmlns="http://www.w3.org/2000/svg">
<path d="M42.25 4.72169C38.3825 2.48878 33.6175 2.48878 29.75 4.72169L9.43911 16.4482C5.5716 18.6811 3.18911 22.8077 3.18911 27.2735V50.7265C3.18911 55.1923 5.5716 59.3189 9.43911 61.5518L29.75 73.2783C33.6175 75.5112 38.3825 75.5112 42.25 73.2783L62.5609 61.5518C66.4284 59.3189 68.8109 55.1923 68.8109 50.7265V27.2735C68.8109 22.8077 66.4284 18.6811 62.5609 16.4482L42.25 4.72169Z" fill="#F9B736" stroke="#438F68" stroke-width="5"/>
<rect x="21" y="16" width="30" height="30" rx="15" fill="black"/>
<path d="M31.4592 33.3323C31.3183 33.3323 31.1935 33.3323 31.0684 33.3323C30.677 33.3323 30.2857 33.3376 29.8945 33.3307C29.5352 33.3244 29.2689 33.0682 29.2332 32.7106C29.2019 32.3982 29.4463 32.081 29.7774 32.0117C29.8598 31.9945 29.9458 31.9878 30.0302 31.9876C30.6533 31.9855 31.2762 31.9863 31.8994 31.9868C31.9511 31.9868 31.9924 31.9904 32.0175 31.9238C32.1808 31.4906 32.35 31.0595 32.517 30.6278C32.5205 30.6186 32.52 30.6081 32.5231 30.5869C32.4894 30.5851 32.4577 30.5821 32.426 30.5821C32.0275 30.5816 31.629 30.5827 31.2305 30.5814C30.8516 30.5802 30.5597 30.3078 30.5375 29.9368C30.5174 29.6042 30.8089 29.2639 31.1647 29.245C31.5738 29.2233 31.9848 29.2332 32.395 29.2304C32.595 29.229 32.7951 29.2247 32.995 29.2326C33.0727 29.2357 33.1013 29.2062 33.1258 29.1414C33.3328 28.5947 33.5425 28.0492 33.7516 27.503C34.0379 26.7552 34.3244 26.0075 34.6107 25.2597C34.8415 24.6571 35.07 24.0537 35.3029 23.4519C35.4129 23.1679 35.6643 22.9972 35.9531 23C36.2488 23.0029 36.4734 23.1713 36.5905 23.4655C36.9714 24.4228 37.3556 25.3789 37.7378 26.3356C38.1114 27.2706 38.4848 28.2056 38.8551 29.142C38.8841 29.2153 38.915 29.2454 38.9994 29.2448C39.5712 29.2403 40.1432 29.243 40.7151 29.2424C41.1214 29.242 41.4302 29.5355 41.4257 29.9199C41.4212 30.284 41.0897 30.591 40.7046 30.5898C40.2994 30.5886 39.8941 30.5894 39.4889 30.5898C39.4727 30.5898 39.4566 30.5914 39.4308 30.5926C39.5232 30.8279 39.6123 31.0569 39.703 31.285C39.7866 31.4953 39.877 31.7033 39.9542 31.9158C39.9818 31.9922 40.0216 32.0083 40.0948 32.0079C40.7416 32.0056 41.3885 32.0056 42.0353 32.0067C42.3069 32.0071 42.5303 32.1131 42.6703 32.346C42.9153 32.7539 42.6836 33.2507 42.1994 33.3244C41.9264 33.3661 41.6441 33.3492 41.3658 33.3531C41.0742 33.3569 40.7825 33.3539 40.4768 33.3539C40.5463 33.5298 40.6108 33.6958 40.6771 33.861C41.0239 34.7265 41.3709 35.5918 41.7181 36.4568C41.9258 36.9739 42.1334 37.4912 42.3423 38.0078C42.443 38.2571 42.4583 38.503 42.2998 38.734C42.1444 38.9601 41.9129 39.0227 41.6537 38.9932C41.3989 38.9643 41.2215 38.824 41.125 38.5869C41.0014 38.2833 40.8792 37.9794 40.758 37.675C40.5066 37.044 40.2571 36.4124 40.0055 35.7815C39.6924 34.9969 39.3769 34.2133 39.0658 33.428C39.0405 33.364 39.0119 33.3425 38.9424 33.3427C36.96 33.3447 34.9778 33.3443 32.9954 33.3441C32.9431 33.3441 32.9034 33.3433 32.8779 33.4091C32.5433 34.276 32.2041 35.1411 31.8669 36.007C31.5407 36.8445 31.2158 37.6824 30.8898 38.5198C30.7404 38.9034 30.3188 39.0204 30.0353 38.9066C29.6627 38.7571 29.5064 38.3646 29.6493 38.0023C29.9307 37.289 30.2039 36.5725 30.4813 35.8577C30.7232 35.2342 30.9666 34.6111 31.2088 33.9875C31.2916 33.7746 31.3721 33.5609 31.4598 33.3319L31.4592 33.3323ZM33.4575 32.002H38.4925C38.4811 31.9664 38.4737 31.9378 38.4629 31.9106C38.3004 31.5026 38.1351 31.0959 37.9765 30.6865C37.9475 30.6115 37.9136 30.5871 37.8314 30.5873C36.9089 30.5902 35.9862 30.5881 35.0636 30.5875C34.7097 30.5873 34.3559 30.5875 33.9999 30.5875C33.819 31.0591 33.6404 31.5252 33.4575 32.002ZM35.9847 25.5813C35.9768 25.5809 35.9686 25.5807 35.9606 25.5803C35.4932 26.7916 35.0258 28.0026 34.5537 29.2263H37.4308C36.9469 28.0065 36.4658 26.794 35.9849 25.5813H35.9847Z" fill="white"/>
<path d="M28.2305 51.9277L25.9102 59H24.041L27.2109 50.4688H28.4004L28.2305 51.9277ZM30.1582 59L27.832 51.9277L27.6445 50.4688H28.8457L32.0332 59H30.1582ZM30.0527 55.8242V57.2012H25.5469V55.8242H30.0527ZM35.4434 59H33.5859L33.5977 57.6289H35.4434C35.9043 57.6289 36.293 57.5254 36.6094 57.3184C36.9258 57.1074 37.1641 56.8008 37.3242 56.3984C37.4883 55.9961 37.5703 55.5098 37.5703 54.9395V54.5234C37.5703 54.0859 37.5234 53.7012 37.4297 53.3691C37.3398 53.0371 37.2051 52.7578 37.0254 52.5312C36.8457 52.3047 36.625 52.1348 36.3633 52.0215C36.1016 51.9043 35.8008 51.8457 35.4609 51.8457H33.5508V50.4688H35.4609C36.0312 50.4688 36.5527 50.5664 37.0254 50.7617C37.502 50.9531 37.9141 51.2285 38.2617 51.5879C38.6094 51.9473 38.877 52.377 39.0645 52.877C39.2559 53.373 39.3516 53.9258 39.3516 54.5352V54.9395C39.3516 55.5449 39.2559 56.0977 39.0645 56.5977C38.877 57.0977 38.6094 57.5273 38.2617 57.8867C37.918 58.2422 37.5059 58.5176 37.0254 58.7129C36.5488 58.9043 36.0215 59 35.4434 59ZM34.582 50.4688V59H32.8242V50.4688H34.582ZM43.9688 51.9277L41.6484 59H39.7793L42.9492 50.4688H44.1387L43.9688 51.9277ZM45.8965 59L43.5703 51.9277L43.3828 50.4688H44.584L47.7715 59H45.8965ZM45.791 55.8242V57.2012H41.2852V55.8242H45.791Z" fill="black"/>
</svg>
