<svg width="70" height="70" viewBox="0 0 70 70" fill="none" xmlns="http://www.w3.org/2000/svg">
<path d="M30 2.88675C33.094 1.10042 36.906 1.10042 40 2.88675L60.3109 14.6132C63.4049 16.3996 65.3109 19.7008 65.3109 23.2735V46.7265C65.3109 50.2992 63.4049 53.6004 60.3109 55.3868L40 67.1133C36.906 68.8996 33.094 68.8996 30 67.1133L9.68911 55.3868C6.5951 53.6004 4.68911 50.2992 4.68911 46.7265V23.2735C4.68911 19.7008 6.5951 16.3996 9.68911 14.6132L30 2.88675Z" fill="#F6C667"/>
<rect x="20" y="12" width="30" height="30" rx="15" fill="#24262E"/>
<path d="M30.4592 29.3323C30.3183 29.3323 30.1935 29.3323 30.0684 29.3323C29.677 29.3323 29.2857 29.3376 28.8945 29.3307C28.5352 29.3244 28.2689 29.0682 28.2332 28.7106C28.2019 28.3982 28.4463 28.081 28.7774 28.0117C28.8598 27.9945 28.9458 27.9878 29.0302 27.9876C29.6533 27.9855 30.2762 27.9863 30.8994 27.9868C30.9511 27.9868 30.9924 27.9904 31.0175 27.9238C31.1808 27.4906 31.35 27.0595 31.517 26.6278C31.5205 26.6186 31.52 26.6081 31.5231 26.5869C31.4894 26.5851 31.4577 26.5821 31.426 26.5821C31.0275 26.5816 30.629 26.5827 30.2305 26.5814C29.8516 26.5802 29.5597 26.3078 29.5375 25.9368C29.5174 25.6042 29.8089 25.2639 30.1647 25.245C30.5738 25.2233 30.9848 25.2332 31.395 25.2304C31.595 25.229 31.7951 25.2247 31.995 25.2326C32.0727 25.2357 32.1013 25.2062 32.1258 25.1414C32.3328 24.5947 32.5425 24.0492 32.7516 23.503C33.0379 22.7552 33.3244 22.0075 33.6107 21.2597C33.8415 20.6571 34.07 20.0537 34.3029 19.4519C34.4129 19.1679 34.6643 18.9972 34.9531 19C35.2488 19.0029 35.4734 19.1713 35.5905 19.4655C35.9714 20.4228 36.3556 21.3789 36.7378 22.3356C37.1114 23.2706 37.4848 24.2056 37.8551 25.142C37.8841 25.2153 37.915 25.2454 37.9994 25.2448C38.5712 25.2403 39.1432 25.243 39.7151 25.2424C40.1214 25.242 40.4302 25.5355 40.4257 25.9199C40.4212 26.284 40.0897 26.591 39.7046 26.5898C39.2994 26.5886 38.8941 26.5894 38.4889 26.5898C38.4727 26.5898 38.4566 26.5914 38.4308 26.5926C38.5232 26.8279 38.6123 27.0569 38.703 27.285C38.7866 27.4953 38.877 27.7033 38.9542 27.9158C38.9818 27.9922 39.0216 28.0083 39.0948 28.0079C39.7416 28.0056 40.3885 28.0056 41.0353 28.0067C41.3069 28.0071 41.5303 28.1131 41.6703 28.346C41.9153 28.7539 41.6836 29.2507 41.1994 29.3244C40.9264 29.3661 40.6441 29.3492 40.3658 29.3531C40.0742 29.3569 39.7825 29.3539 39.4768 29.3539C39.5463 29.5298 39.6108 29.6958 39.6771 29.861C40.0239 30.7265 40.3709 31.5918 40.7181 32.4568C40.9258 32.9739 41.1334 33.4912 41.3423 34.0078C41.443 34.2571 41.4583 34.503 41.2998 34.734C41.1444 34.9601 40.9129 35.0227 40.6537 34.9932C40.3989 34.9643 40.2215 34.824 40.125 34.5869C40.0014 34.2833 39.8792 33.9794 39.758 33.675C39.5066 33.044 39.2571 32.4124 39.0055 31.7815C38.6924 30.9969 38.3769 30.2133 38.0658 29.428C38.0405 29.364 38.0119 29.3425 37.9424 29.3427C35.96 29.3447 33.9778 29.3443 31.9954 29.3441C31.9431 29.3441 31.9034 29.3433 31.8779 29.4091C31.5433 30.276 31.2041 31.1411 30.8669 32.007C30.5407 32.8445 30.2158 33.6824 29.8898 34.5198C29.7404 34.9034 29.3188 35.0204 29.0353 34.9066C28.6627 34.7571 28.5064 34.3646 28.6493 34.0023C28.9307 33.289 29.2039 32.5725 29.4813 31.8577C29.7232 31.2342 29.9666 30.6111 30.2088 29.9875C30.2916 29.7746 30.3721 29.5609 30.4598 29.3319L30.4592 29.3323ZM32.4575 28.002H37.4925C37.4811 27.9664 37.4737 27.9378 37.4629 27.9106C37.3004 27.5026 37.1351 27.0959 36.9765 26.6865C36.9475 26.6115 36.9136 26.5871 36.8314 26.5873C35.9089 26.5902 34.9862 26.5881 34.0636 26.5875C33.7097 26.5873 33.3559 26.5875 32.9999 26.5875C32.819 27.0591 32.6404 27.5252 32.4575 28.002ZM34.9847 21.5813C34.9768 21.5809 34.9686 21.5807 34.9606 21.5803C34.4932 22.7916 34.0258 24.0026 33.5537 25.2263H36.4308C35.9469 24.0065 35.4658 22.794 34.9849 21.5813H34.9847Z" fill="white"/>
<path d="M27.2305 47.9277L24.9102 55H23.041L26.2109 46.4688H27.4004L27.2305 47.9277ZM29.1582 55L26.832 47.9277L26.6445 46.4688H27.8457L31.0332 55H29.1582ZM29.0527 51.8242V53.2012H24.5469V51.8242H29.0527ZM34.4434 55H32.5859L32.5977 53.6289H34.4434C34.9043 53.6289 35.293 53.5254 35.6094 53.3184C35.9258 53.1074 36.1641 52.8008 36.3242 52.3984C36.4883 51.9961 36.5703 51.5098 36.5703 50.9395V50.5234C36.5703 50.0859 36.5234 49.7012 36.4297 49.3691C36.3398 49.0371 36.2051 48.7578 36.0254 48.5312C35.8457 48.3047 35.625 48.1348 35.3633 48.0215C35.1016 47.9043 34.8008 47.8457 34.4609 47.8457H32.5508V46.4688H34.4609C35.0312 46.4688 35.5527 46.5664 36.0254 46.7617C36.502 46.9531 36.9141 47.2285 37.2617 47.5879C37.6094 47.9473 37.877 48.377 38.0645 48.877C38.2559 49.373 38.3516 49.9258 38.3516 50.5352V50.9395C38.3516 51.5449 38.2559 52.0977 38.0645 52.5977C37.877 53.0977 37.6094 53.5273 37.2617 53.8867C36.918 54.2422 36.5059 54.5176 36.0254 54.7129C35.5488 54.9043 35.0215 55 34.4434 55ZM33.582 46.4688V55H31.8242V46.4688H33.582ZM42.9688 47.9277L40.6484 55H38.7793L41.9492 46.4688H43.1387L42.9688 47.9277ZM44.8965 55L42.5703 47.9277L42.3828 46.4688H43.584L46.7715 55H44.8965ZM44.791 51.8242V53.2012H40.2852V51.8242H44.791Z" fill="#24262E"/>
</svg>
