<svg width="29" height="29" viewBox="0 0 29 29" xmlns="http://www.w3.org/2000/svg">
<rect width="29" height="29" rx="14.5" fill="#fff" />
<path fill-rule="evenodd" clip-rule="evenodd" d="M13.1494 7.52863C13.4787 7.56522 13.7161 7.86187 13.6795 8.19121L12.2628 20.9412C12.2262 21.2706 11.9295 21.5079 11.6002 21.4713C11.2709 21.4347 11.0335 21.138 11.0701 20.8087L12.4868 8.0587C12.5234 7.72935 12.82 7.49203 13.1494 7.52863Z" />
<path fill-rule="evenodd" clip-rule="evenodd" d="M17.3994 7.52863C17.7287 7.56522 17.966 7.86187 17.9295 8.19121L16.5128 20.9412C16.4762 21.2706 16.1795 21.5079 15.8502 21.4713C15.5209 21.4347 15.2835 21.138 15.3201 20.8087L16.7368 8.0587C16.7734 7.72935 17.07 7.49203 17.3994 7.52863Z" />
<path fill-rule="evenodd" clip-rule="evenodd" d="M7.87891 12.3749C7.87891 12.0435 8.14754 11.7749 8.47891 11.7749H21.2289C21.5603 11.7749 21.8289 12.0435 21.8289 12.3749C21.8289 12.7063 21.5603 12.9749 21.2289 12.9749H8.47891C8.14754 12.9749 7.87891 12.7063 7.87891 12.3749Z" />
<path fill-rule="evenodd" clip-rule="evenodd" d="M7.17188 16.6249C7.17188 16.2935 7.4405 16.0249 7.77188 16.0249H20.5219C20.8532 16.0249 21.1219 16.2935 21.1219 16.6249C21.1219 16.9563 20.8532 17.2249 20.5219 17.2249H7.77188C7.4405 17.2249 7.17188 16.9563 7.17188 16.6249Z" />
</svg>
