<svg width="30" height="29" viewBox="0 0 30 29" fill="none" xmlns="http://www.w3.org/2000/svg">
<rect x="0.142578" width="29" height="29" rx="14.5" fill="#24262E"/>
<path fill-rule="evenodd" clip-rule="evenodd" d="M13.292 7.52863C13.6213 7.56522 13.8586 7.86187 13.822 8.19121L12.4054 20.9412C12.3688 21.2706 12.0721 21.5079 11.7428 21.4713C11.4134 21.4347 11.1761 21.138 11.2127 20.8087L12.6294 8.0587C12.666 7.72935 12.9626 7.49203 13.292 7.52863Z" fill="#66BDFF"/>
<path fill-rule="evenodd" clip-rule="evenodd" d="M17.542 7.52863C17.8713 7.56522 18.1086 7.86187 18.072 8.19121L16.6554 20.9412C16.6188 21.2706 16.3221 21.5079 15.9928 21.4713C15.6634 21.4347 15.4261 21.138 15.4627 20.8087L16.8794 8.0587C16.916 7.72935 17.2126 7.49203 17.542 7.52863Z" fill="#66BDFF"/>
<path fill-rule="evenodd" clip-rule="evenodd" d="M8.02148 12.3749C8.02148 12.0435 8.29011 11.7749 8.62148 11.7749H21.3715C21.7029 11.7749 21.9715 12.0435 21.9715 12.3749C21.9715 12.7063 21.7029 12.9749 21.3715 12.9749H8.62148C8.29011 12.9749 8.02148 12.7063 8.02148 12.3749Z" fill="#66BDFF"/>
<path fill-rule="evenodd" clip-rule="evenodd" d="M7.31445 16.625C7.31445 16.2936 7.58308 16.025 7.91445 16.025H20.6645C20.9958 16.025 21.2645 16.2936 21.2645 16.625C21.2645 16.9563 20.9958 17.225 20.6645 17.225H7.91445C7.58308 17.225 7.31445 16.9563 7.31445 16.625Z" fill="#66BDFF"/>
</svg>
