<svg width="40" height="40" viewBox="0 0 40 40" fill="none" xmlns="http://www.w3.org/2000/svg">
<rect width="40" height="40" rx="20" fill="#131316"/>
<path d="M17 20H15C14.7348 20 14.4804 20.1054 14.2929 20.2929C14.1054 20.4804 14 20.7348 14 21C14 21.2652 14.1054 21.5196 14.2929 21.7071C14.4804 21.8946 14.7348 22 15 22H17C17.2652 22 17.5196 21.8946 17.7071 21.7071C17.8947 21.5196 18 21.2652 18 21C18 20.7348 17.8947 20.4804 17.7071 20.2929C17.5196 20.1054 17.2652 20 17 20ZM16 18H20C20.2652 18 20.5196 17.8946 20.7071 17.7071C20.8947 17.5196 21 17.2652 21 17C21 16.7348 20.8947 16.4804 20.7071 16.2929C20.5196 16.1054 20.2652 16 20 16H16C15.7348 16 15.4804 16.1054 15.2929 16.2929C15.1054 16.4804 15 16.7348 15 17C15 17.2652 15.1054 17.5196 15.2929 17.7071C15.4804 17.8946 15.7348 18 16 18ZM17 24H15C14.7348 24 14.4804 24.1054 14.2929 24.2929C14.1054 24.4804 14 24.7348 14 25C14 25.2652 14.1054 25.5196 14.2929 25.7071C14.4804 25.8946 14.7348 26 15 26H17C17.2652 26 17.5196 25.8946 17.7071 25.7071C17.8947 25.5196 18 25.2652 18 25C18 24.7348 17.8947 24.4804 17.7071 24.2929C17.5196 24.1054 17.2652 24 17 24ZM29 20H26V11C26.0007 10.8238 25.9548 10.6505 25.867 10.4977C25.7792 10.345 25.6526 10.2181 25.5 10.13C25.348 10.0422 25.1755 9.99603 25 9.99603C24.8245 9.99603 24.652 10.0422 24.5 10.13L21.5 11.85L18.5 10.13C18.348 10.0422 18.1755 9.99603 18 9.99603C17.8245 9.99603 17.652 10.0422 17.5 10.13L14.5 11.85L11.5 10.13C11.348 10.0422 11.1755 9.99603 11 9.99603C10.8245 9.99603 10.652 10.0422 10.5 10.13C10.3474 10.2181 10.2208 10.345 10.133 10.4977C10.0452 10.6505 9.99931 10.8238 10 11V27C10 27.7956 10.3161 28.5587 10.8787 29.1213C11.4413 29.6839 12.2044 30 13 30H27C27.7957 30 28.5587 29.6839 29.1213 29.1213C29.6839 28.5587 30 27.7956 30 27V21C30 20.7348 29.8947 20.4804 29.7071 20.2929C29.5196 20.1054 29.2652 20 29 20ZM13 28C12.7348 28 12.4804 27.8946 12.2929 27.7071C12.1054 27.5196 12 27.2652 12 27V12.73L14 13.87C14.1543 13.9506 14.3259 13.9927 14.5 13.9927C14.6741 13.9927 14.8457 13.9506 15 13.87L18 12.15L21 13.87C21.1543 13.9506 21.3259 13.9927 21.5 13.9927C21.6741 13.9927 21.8457 13.9506 22 13.87L24 12.73V27C24.0027 27.3411 24.0636 27.6793 24.18 28H13ZM28 27C28 27.2652 27.8947 27.5196 27.7071 27.7071C27.5196 27.8946 27.2652 28 27 28C26.7348 28 26.4804 27.8946 26.2929 27.7071C26.1054 27.5196 26 27.2652 26 27V22H28V27ZM21.56 24.17C21.5043 24.1322 21.4437 24.1019 21.38 24.08C21.3205 24.0496 21.2562 24.0293 21.19 24.02C21.0294 23.9878 20.8633 23.9956 20.7063 24.0427C20.5494 24.0898 20.4064 24.1747 20.29 24.29C20.1073 24.4816 20.0037 24.7352 20 25C19.9984 25.13 20.0222 25.2591 20.07 25.38C20.1244 25.5015 20.1987 25.6131 20.29 25.71C20.3872 25.7983 20.4988 25.8694 20.62 25.92C20.7397 25.9729 20.8691 26.0002 21 26.0002C21.1309 26.0002 21.2603 25.9729 21.38 25.92C21.5012 25.8694 21.6128 25.7983 21.71 25.71C21.8027 25.6166 21.876 25.5057 21.9258 25.3839C21.9755 25.2621 22.0008 25.1316 22 25C21.9963 24.7352 21.8927 24.4816 21.71 24.29C21.6625 24.247 21.6124 24.2069 21.56 24.17V24.17ZM21.7 20.29C21.5832 20.1763 21.4404 20.0928 21.2841 20.0469C21.1277 20.001 20.9624 19.994 20.8027 20.0265C20.643 20.0591 20.4937 20.1301 20.3677 20.2336C20.2418 20.337 20.143 20.4697 20.08 20.62C20.0178 20.7715 19.9937 20.936 20.0099 21.0989C20.0261 21.2619 20.0821 21.4184 20.1729 21.5547C20.2638 21.691 20.3867 21.8029 20.5309 21.8805C20.6751 21.9582 20.8362 21.9992 21 22C21.2652 22 21.5196 21.8946 21.7071 21.7071C21.8947 21.5196 22 21.2652 22 21C21.9984 20.8693 21.9712 20.7402 21.92 20.62C21.8718 20.4952 21.7967 20.3825 21.7 20.29V20.29Z" fill="#66BDFF"/>
</svg>
