<svg width="24" height="24" viewBox="0 0 24 24" fill="none" xmlns="http://www.w3.org/2000/svg">
<path d="M9.00001 12.0001H7.00001C6.73479 12.0001 6.48044 12.1054 6.2929 12.293C6.10537 12.4805 6.00001 12.7349 6.00001 13.0001C6.00001 13.2653 6.10537 13.5196 6.2929 13.7072C6.48044 13.8947 6.73479 14.0001 7.00001 14.0001H9.00001C9.26522 14.0001 9.51958 13.8947 9.70711 13.7072C9.89465 13.5196 10 13.2653 10 13.0001C10 12.7349 9.89465 12.4805 9.70711 12.293C9.51958 12.1054 9.26522 12.0001 9.00001 12.0001ZM8.00001 10.0001H12C12.2652 10.0001 12.5196 9.89471 12.7071 9.70717C12.8947 9.51964 13 9.26528 13 9.00007C13 8.73485 12.8947 8.4805 12.7071 8.29296C12.5196 8.10543 12.2652 8.00007 12 8.00007H8.00001C7.73479 8.00007 7.48044 8.10543 7.2929 8.29296C7.10537 8.4805 7.00001 8.73485 7.00001 9.00007C7.00001 9.26528 7.10537 9.51964 7.2929 9.70717C7.48044 9.89471 7.73479 10.0001 8.00001 10.0001ZM9.00001 16.0001H7.00001C6.73479 16.0001 6.48044 16.1054 6.2929 16.293C6.10537 16.4805 6.00001 16.7349 6.00001 17.0001C6.00001 17.2653 6.10537 17.5196 6.2929 17.7072C6.48044 17.8947 6.73479 18.0001 7.00001 18.0001H9.00001C9.26522 18.0001 9.51958 17.8947 9.70711 17.7072C9.89465 17.5196 10 17.2653 10 17.0001C10 16.7349 9.89465 16.4805 9.70711 16.293C9.51958 16.1054 9.26522 16.0001 9.00001 16.0001ZM21 12.0001H18V3.00007C18.0007 2.82386 17.9548 2.65059 17.867 2.49781C17.7792 2.34504 17.6526 2.21817 17.5 2.13007C17.348 2.0423 17.1755 1.99609 17 1.99609C16.8245 1.99609 16.652 2.0423 16.5 2.13007L13.5 3.85007L10.5 2.13007C10.348 2.0423 10.1755 1.99609 10 1.99609C9.82447 1.99609 9.65203 2.0423 9.50001 2.13007L6.50001 3.85007L3.50001 2.13007C3.34799 2.0423 3.17554 1.99609 3.00001 1.99609C2.82447 1.99609 2.65203 2.0423 2.50001 2.13007C2.3474 2.21817 2.22079 2.34504 2.13299 2.49781C2.04518 2.65059 1.99931 2.82386 2.00001 3.00007V19.0001C2.00001 19.7957 2.31608 20.5588 2.87869 21.1214C3.4413 21.684 4.20436 22.0001 5.00001 22.0001H19C19.7957 22.0001 20.5587 21.684 21.1213 21.1214C21.6839 20.5588 22 19.7957 22 19.0001V13.0001C22 12.7349 21.8947 12.4805 21.7071 12.293C21.5196 12.1054 21.2652 12.0001 21 12.0001ZM5.00001 20.0001C4.73479 20.0001 4.48044 19.8947 4.2929 19.7072C4.10536 19.5196 4.00001 19.2653 4.00001 19.0001V4.73007L6.00001 5.87007C6.15435 5.95068 6.32589 5.99278 6.50001 5.99278C6.67413 5.99278 6.84567 5.95068 7.00001 5.87007L10 4.15007L13 5.87007C13.1543 5.95068 13.3259 5.99278 13.5 5.99278C13.6741 5.99278 13.8457 5.95068 14 5.87007L16 4.73007V19.0001C16.0027 19.3412 16.0636 19.6794 16.18 20.0001H5.00001ZM20 19.0001C20 19.2653 19.8947 19.5196 19.7071 19.7072C19.5196 19.8947 19.2652 20.0001 19 20.0001C18.7348 20.0001 18.4804 19.8947 18.2929 19.7072C18.1054 19.5196 18 19.2653 18 19.0001V14.0001H20V19.0001ZM13.56 16.1701C13.5043 16.1322 13.4437 16.102 13.38 16.0801C13.3205 16.0496 13.2562 16.0293 13.19 16.0201C13.0294 15.9879 12.8633 15.9957 12.7063 16.0428C12.5494 16.0899 12.4064 16.1748 12.29 16.2901C12.1073 16.4817 12.0037 16.7353 12 17.0001C11.9984 17.1301 12.0222 17.2592 12.07 17.3801C12.1244 17.5016 12.1987 17.6131 12.29 17.7101C12.3872 17.7984 12.4988 17.8694 12.62 17.9201C12.7397 17.973 12.8691 18.0003 13 18.0003C13.1309 18.0003 13.2603 17.973 13.38 17.9201C13.5012 17.8694 13.6128 17.7984 13.71 17.7101C13.8027 17.6166 13.876 17.5058 13.9258 17.384C13.9755 17.2621 14.0008 17.1317 14 17.0001C13.9963 16.7353 13.8927 16.4817 13.71 16.2901C13.6625 16.2471 13.6124 16.207 13.56 16.1701ZM13.7 12.2901C13.5832 12.1764 13.4404 12.0929 13.2841 12.047C13.1277 12.0011 12.9624 11.9941 12.8027 12.0266C12.643 12.0591 12.4937 12.1302 12.3677 12.2337C12.2418 12.3371 12.143 12.4697 12.08 12.6201C12.0178 12.7716 11.9937 12.936 12.0099 13.099C12.0261 13.262 12.0821 13.4185 12.1729 13.5548C12.2638 13.6911 12.3867 13.8029 12.5309 13.8806C12.6751 13.9582 12.8362 13.9993 13 14.0001C13.2652 14.0001 13.5196 13.8947 13.7071 13.7072C13.8947 13.5196 14 13.2653 14 13.0001C13.9984 12.8694 13.9712 12.7403 13.92 12.6201C13.8718 12.4952 13.7967 12.3826 13.7 12.2901Z" fill="#344054"/>
</svg>
