<svg width="23" height="23" viewBox="0 0 23 23"  xmlns="http://www.w3.org/2000/svg">
<path d="M20.0042 16.5313L17.4071 12.0463C17.9386 11.0702 18.2154 9.97594 18.2121 8.86458C18.2121 7.08542 17.5054 5.37913 16.2473 4.12108C14.9893 2.86302 13.283 2.15625 11.5038 2.15625C9.72465 2.15625 8.01836 2.86302 6.76031 4.12108C5.50225 5.37913 4.79548 7.08542 4.79548 8.86458C4.79218 9.97594 5.06904 11.0702 5.60048 12.0463L3.0034 16.5313C2.91912 16.6772 2.87483 16.8428 2.875 17.0114C2.87517 17.1799 2.91978 17.3454 3.00435 17.4912C3.08891 17.637 3.21043 17.758 3.35664 17.8418C3.50286 17.9256 3.6686 17.9694 3.83715 17.9688H6.58756L7.98673 20.3263C8.0339 20.4044 8.09198 20.4754 8.15923 20.5371C8.33688 20.7083 8.57374 20.8044 8.82048 20.8054H8.95465C9.09933 20.7856 9.23757 20.733 9.35881 20.6516C9.48006 20.5702 9.5811 20.4622 9.65423 20.3358L11.5038 17.1542L13.3534 20.3646C13.4276 20.4892 13.5291 20.5953 13.6503 20.675C13.7715 20.7547 13.9092 20.8058 14.053 20.8246H14.1871C14.4372 20.8261 14.6779 20.7298 14.858 20.5563C14.9224 20.4981 14.9774 20.4302 15.0209 20.355L16.4201 17.9975H19.1705C19.3393 17.9982 19.5054 17.9542 19.6518 17.8701C19.7982 17.7859 19.9198 17.6646 20.0042 17.5183C20.0938 17.3693 20.1411 17.1987 20.1411 17.0248C20.1411 16.8509 20.0938 16.6803 20.0042 16.5313ZM8.8109 17.9975L7.95798 16.5696C7.874 16.4279 7.75492 16.3103 7.61224 16.228C7.46955 16.1458 7.30808 16.1017 7.1434 16.1H5.48548L6.8559 13.7233C7.79959 14.6327 8.98897 15.2457 10.2771 15.4867L8.8109 17.9975ZM11.5038 13.6562C10.5561 13.6563 9.62969 13.3752 8.84171 12.8487C8.05372 12.3222 7.43956 11.5738 7.07689 10.6983C6.71422 9.82271 6.61933 8.85927 6.80422 7.92978C6.9891 7.00028 7.44547 6.14649 8.11559 5.47636C8.78572 4.80624 9.63951 4.34987 10.569 4.16499C11.4985 3.9801 12.4619 4.07499 13.3375 4.43766C14.2131 4.80033 14.9614 5.41449 15.4879 6.20248C16.0145 6.99046 16.2955 7.91688 16.2955 8.86458C16.2955 10.1354 15.7906 11.3542 14.892 12.2528C13.9934 13.1514 12.7746 13.6562 11.5038 13.6562ZM15.8642 16.1C15.6995 16.1017 15.5381 16.1458 15.3954 16.228C15.2527 16.3103 15.1336 16.4279 15.0496 16.5696L14.1967 17.9975L12.7401 15.4579C14.0237 15.212 15.2087 14.5996 16.1517 13.6946L17.5221 16.0713L15.8642 16.1Z"/>
</svg>
