<svg width="24" height="25" viewBox="0 0 24 25"  xmlns="http://www.w3.org/2000/svg">
<path fill-rule="evenodd" clip-rule="evenodd" d="M20 13.5H14C13.7348 13.5 13.4804 13.6054 13.2929 13.7929C13.1054 13.9804 13 14.2348 13 14.5V20.5C13 20.7652 13.1054 21.0196 13.2929 21.2071C13.4804 21.3946 13.7348 21.5 14 21.5H20C20.2652 21.5 20.5196 21.3946 20.7071 21.2071C20.8946 21.0196 21 20.7652 21 20.5V14.5C21 14.2348 20.8946 13.9804 20.7071 13.7929C20.5196 13.6054 20.2652 13.5 20 13.5ZM19 19.5H15V15.5H19V19.5ZM20 3.5H14C13.7348 3.5 13.4804 3.60536 13.2929 3.79289C13.1054 3.98043 13 4.23478 13 4.5V10.5C13 10.7652 13.1054 11.0196 13.2929 11.2071C13.4804 11.3946 13.7348 11.5 14 11.5H20C20.2652 11.5 20.5196 11.3946 20.7071 11.2071C20.8946 11.0196 21 10.7652 21 10.5V4.5C21 4.23478 20.8946 3.98043 20.7071 3.79289C20.5196 3.60536 20.2652 3.5 20 3.5ZM19 9.5H15V5.5H19V9.5ZM6.99597 8.50589C6.99597 8.53595 6.99732 8.56594 7 8.59577V8.41601C6.99732 8.44585 6.99597 8.47584 6.99597 8.50589ZM4.87874 8.38457C5.44134 7.82198 6.20437 7.50591 7 7.50589V7.5H10C10.5523 7.5 11 7.05228 11 6.5C11 5.94772 10.5523 5.5 10 5.5H7V5.50589C5.67394 5.50591 4.40219 6.03269 3.46453 6.97036C2.52684 7.90804 2.00006 9.17981 2.00006 10.5059V11.4889L2 11.5V13.5C2 14.8261 2.52678 16.0979 3.46447 17.0355C4.40215 17.9732 5.67392 18.5 7 18.5H7.59L7.29 18.79C7.19627 18.883 7.12188 18.9936 7.07111 19.1154C7.02034 19.2373 6.9942 19.368 6.9942 19.5C6.9942 19.632 7.02034 19.7627 7.07111 19.8846C7.12188 20.0064 7.19627 20.117 7.29 20.21C7.38296 20.3037 7.49356 20.3781 7.61542 20.4289C7.73728 20.4797 7.86799 20.5058 8 20.5058C8.13201 20.5058 8.26272 20.4797 8.38458 20.4289C8.50644 20.3781 8.61704 20.3037 8.71 20.21L10.71 18.21C10.8037 18.117 10.8781 18.0064 10.9289 17.8846C10.9797 17.7627 11.0058 17.632 11.0058 17.5C11.0058 17.368 10.9797 17.2373 10.9289 17.1154C10.8781 16.9936 10.8037 16.883 10.71 16.79L8.71 14.79C8.61676 14.6968 8.50607 14.6228 8.38425 14.5723C8.26243 14.5219 8.13186 14.4959 8 14.4959C7.86814 14.4959 7.73757 14.5219 7.61575 14.5723C7.49393 14.6228 7.38324 14.6968 7.29 14.79C7.19676 14.8832 7.1228 14.9939 7.07234 15.1158C7.02188 15.2376 6.99591 15.3681 6.99591 15.5C6.99591 15.6319 7.02188 15.7624 7.07234 15.8842C7.1228 16.0061 7.19676 16.1168 7.29 16.21L7.59 16.5H7C6.20435 16.5 5.44129 16.1839 4.87868 15.6213C4.31607 15.0587 4 14.2956 4 13.5V12.5169L4.00006 12.5059V10.5059C4.00006 9.71024 4.31613 8.94718 4.87874 8.38457ZM6.99426 4.50589C6.99426 4.47009 6.99619 4.43438 7 4.39893V4.61286C6.99619 4.5774 6.99426 4.54169 6.99426 4.50589Z" />
</svg>
