<svg width="26" height="25" viewBox="0 0 26 25"   xmlns="http://www.w3.org/2000/svg">
<path d="M13.6133 13.5417L11.2174 15.9271C11.1198 16.0239 11.0423 16.1392 10.9894 16.2661C10.9366 16.393 10.9093 16.5292 10.9093 16.6667C10.9093 16.8042 10.9366 16.9404 10.9894 17.0673C11.0423 17.1942 11.1198 17.3094 11.2174 17.4063C11.3143 17.5039 11.4295 17.5814 11.5564 17.6343C11.6834 17.6872 11.8195 17.7144 11.957 17.7144C12.0945 17.7144 12.2307 17.6872 12.3576 17.6343C12.4846 17.5814 12.5998 17.5039 12.6966 17.4063L16.8633 13.2396C16.9581 13.1405 17.0325 13.0237 17.082 12.8959C17.1862 12.6423 17.1862 12.3578 17.082 12.1042C17.0325 11.9763 16.9581 11.8595 16.8633 11.7604L12.6966 7.59377C12.5995 7.49665 12.4842 7.41961 12.3573 7.36704C12.2304 7.31448 12.0944 7.28743 11.957 7.28743C11.8197 7.28743 11.6837 7.31448 11.5568 7.36704C11.4299 7.41961 11.3146 7.49665 11.2174 7.59377C11.1203 7.6909 11.0433 7.8062 10.9907 7.9331C10.9382 8.05999 10.9111 8.196 10.9111 8.33336C10.9111 8.47071 10.9382 8.60672 10.9907 8.73362C11.0433 8.86051 11.1203 8.97582 11.2174 9.07294L13.6133 11.4584H3.6237C3.34743 11.4584 3.08248 11.5681 2.88713 11.7635C2.69178 11.9588 2.58203 12.2238 2.58203 12.5C2.58203 12.7763 2.69178 13.0412 2.88713 13.2366C3.08248 13.4319 3.34743 13.5417 3.6237 13.5417H13.6133ZM12.9987 2.08336C11.0519 2.07466 9.14166 2.6117 7.4846 3.63356C5.82754 4.65541 4.49 6.12118 3.6237 7.86461C3.49938 8.11325 3.47892 8.40109 3.56683 8.66481C3.65474 8.92853 3.84381 9.14653 4.09245 9.27085C4.34109 9.39518 4.62893 9.41563 4.89265 9.32772C5.15638 9.23982 5.37438 9.05075 5.4987 8.80211C6.15723 7.47223 7.15894 6.34233 8.40031 5.52918C9.64168 4.71602 11.0777 4.2491 12.5599 4.17668C14.0421 4.10426 15.5168 4.42896 16.8315 5.11722C18.1463 5.80549 19.2534 6.83235 20.0384 8.09168C20.8234 9.35102 21.2579 10.7972 21.297 12.2806C21.3361 13.7641 20.9783 15.2311 20.2607 16.53C19.543 17.829 18.4916 18.9127 17.2149 19.6692C15.9382 20.4257 14.4827 20.8276 12.9987 20.8334C11.4454 20.8401 9.92177 20.4087 8.60254 19.5888C7.28331 18.7689 6.22198 17.5937 5.54036 16.1979C5.41604 15.9493 5.19804 15.7602 4.93432 15.6723C4.6706 15.5844 4.38275 15.6049 4.13411 15.7292C3.88547 15.8535 3.6964 16.0715 3.6085 16.3352C3.52059 16.599 3.54104 16.8868 3.66536 17.1354C4.49123 18.7974 5.74612 20.2086 7.30023 21.223C8.85434 22.2374 10.6512 22.8181 12.5051 22.9052C14.3589 22.9923 16.2023 22.5825 17.8447 21.7183C19.487 20.854 20.8687 19.5667 21.8467 17.9894C22.8247 16.4122 23.3636 14.6022 23.4075 12.7469C23.4515 10.8916 22.999 9.05814 22.0969 7.43631C21.1947 5.81447 19.8756 4.46311 18.2761 3.52201C16.6765 2.5809 14.8546 2.08423 12.9987 2.08336Z"  />
</svg>
