<svg width="24" height="24" viewBox="0 0 24 24" fill="none" xmlns="http://www.w3.org/2000/svg">
<path d="M8.45892 8.28978C8.27062 8.09617 8.01312 7.98529 7.74307 7.98154C7.47301 7.97779 7.21253 8.08147 7.01892 8.26978C6.82532 8.45808 6.71444 8.71558 6.71069 8.98564C6.70694 9.25569 6.81062 9.51617 6.99892 9.70978L9.33892 11.9998L6.99892 14.2898C6.90519 14.3827 6.8308 14.4933 6.78003 14.6152C6.72926 14.7371 6.70312 14.8678 6.70312 14.9998C6.70312 15.1318 6.72926 15.2625 6.78003 15.3844C6.8308 15.5062 6.90519 15.6168 6.99892 15.7098C7.09189 15.8035 7.20249 15.8779 7.32435 15.9287C7.44621 15.9794 7.57691 16.0056 7.70892 16.0056C7.84094 16.0056 7.97164 15.9794 8.0935 15.9287C8.21536 15.8779 8.32596 15.8035 8.41892 15.7098L11.4189 12.7098C11.5127 12.6168 11.587 12.5062 11.6378 12.3844C11.6886 12.2625 11.7147 12.1318 11.7147 11.9998C11.7147 11.8678 11.6886 11.7371 11.6378 11.6152C11.587 11.4933 11.5127 11.3827 11.4189 11.2898L8.45892 8.28978ZM16.9589 11.2898L13.9589 8.28978C13.7706 8.10147 13.5152 7.99569 13.2489 7.99569C12.9826 7.99569 12.7272 8.10147 12.5389 8.28978C12.3506 8.47808 12.2448 8.73348 12.2448 8.99978C12.2448 9.26608 12.3506 9.52147 12.5389 9.70978L14.8389 11.9998L12.5389 14.2898C12.4452 14.3827 12.3708 14.4933 12.32 14.6152C12.2693 14.7371 12.2431 14.8678 12.2431 14.9998C12.2431 15.1318 12.2693 15.2625 12.32 15.3844C12.3708 15.5062 12.4452 15.6168 12.5389 15.7098C12.6319 15.8035 12.7425 15.8779 12.8643 15.9287C12.9862 15.9794 13.1169 16.0056 13.2489 16.0056C13.3809 16.0056 13.5116 15.9794 13.6335 15.9287C13.7554 15.8779 13.866 15.8035 13.9589 15.7098L16.9589 12.7098C17.0553 12.6195 17.1329 12.511 17.1871 12.3906C17.2413 12.2701 17.2712 12.1401 17.2749 12.0081C17.2786 11.8761 17.2561 11.7446 17.2088 11.6213C17.1614 11.498 17.0901 11.3854 16.9989 11.2898H16.9589Z" fill="white"/>
</svg>
