<svg width="26" height="25" viewBox="0 0 26 25" xmlns="http://www.w3.org/2000/svg">
<path d="M23.4204 10.0729C23.3547 9.88235 23.235 9.715 23.076 9.59112C22.917 9.46724 22.7255 9.39215 22.5246 9.37497L16.5975 8.51039L13.9413 3.12497C13.856 2.94885 13.7228 2.80032 13.557 2.6964C13.3912 2.59247 13.1995 2.53735 13.0038 2.53735C12.8081 2.53735 12.6164 2.59247 12.4506 2.6964C12.2848 2.80032 12.1516 2.94885 12.0663 3.12497L9.41003 8.49997L3.48295 9.37497C3.29016 9.40237 3.10891 9.48326 2.95977 9.60847C2.81063 9.73367 2.69957 9.89817 2.6392 10.0833C2.58393 10.2642 2.57897 10.4568 2.62485 10.6403C2.67073 10.8238 2.76572 10.9913 2.89961 11.125L7.2017 15.2916L6.16003 21.2083C6.12284 21.4036 6.14232 21.6054 6.21615 21.79C6.28998 21.9746 6.41509 22.1342 6.5767 22.25C6.73422 22.3626 6.92 22.4291 7.11321 22.4419C7.30641 22.4548 7.49938 22.4136 7.67045 22.3229L13.0038 19.5416L18.3163 22.3333C18.4625 22.4158 18.6276 22.4589 18.7954 22.4583C19.0161 22.4591 19.2313 22.3898 19.41 22.2604C19.5716 22.1446 19.6967 21.985 19.7706 21.8004C19.8444 21.6159 19.8639 21.414 19.8267 21.2187L18.785 15.3021L23.0871 11.1354C23.2375 11.008 23.3487 10.8405 23.4077 10.6524C23.4667 10.4643 23.4711 10.2634 23.4204 10.0729ZM17.0142 14.2396C16.892 14.3577 16.8006 14.504 16.748 14.6656C16.6953 14.8272 16.683 14.9992 16.7121 15.1666L17.4621 19.5312L13.5454 17.4479C13.3947 17.3676 13.2266 17.3257 13.0559 17.3257C12.8851 17.3257 12.717 17.3676 12.5663 17.4479L8.64961 19.5312L9.39961 15.1666C9.42871 14.9992 9.4164 14.8272 9.36374 14.6656C9.31109 14.504 9.21969 14.3577 9.09753 14.2396L5.97253 11.1146L10.3579 10.4791C10.5267 10.4557 10.6871 10.3912 10.8251 10.2913C10.9632 10.1914 11.0746 10.0592 11.1496 9.90622L13.0038 5.93747L14.9621 9.91664C15.0372 10.0696 15.1486 10.2018 15.2866 10.3017C15.4246 10.4016 15.585 10.4661 15.7538 10.4896L20.1392 11.125L17.0142 14.2396Z" />
</svg>
