<svg width="245" height="100" viewBox="0 0 245 100" fill="none" xmlns="http://www.w3.org/2000/svg">
<g clip-path="url(#clip0_13410_100332)">
<rect width="245" height="100" rx="12" fill="white"/>
<path d="M94.4453 34.4453H91.5469V32.6172H94.4453C94.8932 32.6172 95.2578 32.5443 95.5391 32.3984C95.8203 32.2474 96.026 32.0391 96.1562 31.7734C96.2865 31.5078 96.3516 31.2083 96.3516 30.875C96.3516 30.5365 96.2865 30.2214 96.1562 29.9297C96.026 29.638 95.8203 29.4036 95.5391 29.2266C95.2578 29.0495 94.8932 28.9609 94.4453 28.9609H92.3594V38.5H90.0156V27.125H94.4453C95.3359 27.125 96.099 27.2865 96.7344 27.6094C97.375 27.9271 97.8646 28.3672 98.2031 28.9297C98.5417 29.4922 98.7109 30.1354 98.7109 30.8594C98.7109 31.5938 98.5417 32.2292 98.2031 32.7656C97.8646 33.3021 97.375 33.7161 96.7344 34.0078C96.099 34.2995 95.3359 34.4453 94.4453 34.4453Z" fill="black"/>
<path d="M104.656 36.5938V32.8281C104.656 32.5573 104.612 32.3255 104.523 32.1328C104.435 31.9349 104.297 31.7812 104.109 31.6719C103.927 31.5625 103.69 31.5078 103.398 31.5078C103.148 31.5078 102.932 31.5521 102.75 31.6406C102.568 31.724 102.427 31.8464 102.328 32.0078C102.229 32.1641 102.18 32.349 102.18 32.5625H99.9297C99.9297 32.2031 100.013 31.862 100.18 31.5391C100.346 31.2161 100.589 30.9323 100.906 30.6875C101.224 30.4375 101.602 30.2422 102.039 30.1016C102.482 29.9609 102.977 29.8906 103.523 29.8906C104.18 29.8906 104.763 30 105.273 30.2188C105.784 30.4375 106.185 30.7656 106.477 31.2031C106.773 31.6406 106.922 32.1875 106.922 32.8438V36.4609C106.922 36.9245 106.951 37.3047 107.008 37.6016C107.065 37.8932 107.148 38.1484 107.258 38.3672V38.5H104.984C104.875 38.2708 104.792 37.9844 104.734 37.6406C104.682 37.2917 104.656 36.9427 104.656 36.5938ZM104.953 33.3516L104.969 34.625H103.711C103.414 34.625 103.156 34.6589 102.938 34.7266C102.719 34.7943 102.539 34.8906 102.398 35.0156C102.258 35.1354 102.154 35.276 102.086 35.4375C102.023 35.599 101.992 35.776 101.992 35.9688C101.992 36.1615 102.036 36.3359 102.125 36.4922C102.214 36.6432 102.341 36.763 102.508 36.8516C102.674 36.9349 102.87 36.9766 103.094 36.9766C103.432 36.9766 103.727 36.9089 103.977 36.7734C104.227 36.638 104.419 36.4714 104.555 36.2734C104.695 36.0755 104.768 35.888 104.773 35.7109L105.367 36.6641C105.284 36.8776 105.169 37.099 105.023 37.3281C104.883 37.5573 104.703 37.7734 104.484 37.9766C104.266 38.1745 104.003 38.3385 103.695 38.4688C103.388 38.5938 103.023 38.6562 102.602 38.6562C102.065 38.6562 101.578 38.5495 101.141 38.3359C100.708 38.1172 100.365 37.8177 100.109 37.4375C99.8594 37.0521 99.7344 36.6146 99.7344 36.125C99.7344 35.6823 99.8177 35.2891 99.9844 34.9453C100.151 34.6016 100.396 34.3125 100.719 34.0781C101.047 33.8385 101.456 33.6589 101.945 33.5391C102.435 33.4141 103.003 33.3516 103.648 33.3516H104.953Z" fill="black"/>
<path d="M111.039 37.5469L113.281 30.0469H115.695L112.297 39.7734C112.224 39.987 112.125 40.2161 112 40.4609C111.88 40.7057 111.716 40.9375 111.508 41.1562C111.305 41.3802 111.047 41.5625 110.734 41.7031C110.427 41.8438 110.049 41.9141 109.602 41.9141C109.388 41.9141 109.214 41.901 109.078 41.875C108.943 41.849 108.781 41.8125 108.594 41.7656V40.1172C108.651 40.1172 108.711 40.1172 108.773 40.1172C108.836 40.1224 108.896 40.125 108.953 40.125C109.25 40.125 109.492 40.0911 109.68 40.0234C109.867 39.9557 110.018 39.8516 110.133 39.7109C110.247 39.5755 110.339 39.3984 110.406 39.1797L111.039 37.5469ZM110.102 30.0469L111.938 36.1719L112.258 38.5547L110.727 38.7188L107.688 30.0469H110.102Z" fill="black"/>
<path d="M118.844 31.7969V38.5H116.586V30.0469H118.703L118.844 31.7969ZM118.531 33.9766H117.906C117.906 33.388 117.977 32.8464 118.117 32.3516C118.263 31.8516 118.474 31.4193 118.75 31.0547C119.031 30.6849 119.378 30.3984 119.789 30.1953C120.201 29.9922 120.677 29.8906 121.219 29.8906C121.594 29.8906 121.938 29.9479 122.25 30.0625C122.562 30.1719 122.831 30.3464 123.055 30.5859C123.284 30.8203 123.461 31.1276 123.586 31.5078C123.711 31.8828 123.773 32.3333 123.773 32.8594V38.5H121.523V33.1094C121.523 32.724 121.471 32.4271 121.367 32.2188C121.263 32.0104 121.115 31.8646 120.922 31.7812C120.734 31.6979 120.508 31.6562 120.242 31.6562C119.951 31.6562 119.695 31.7161 119.477 31.8359C119.263 31.9557 119.086 32.1224 118.945 32.3359C118.805 32.5443 118.701 32.7891 118.633 33.0703C118.565 33.3516 118.531 33.6536 118.531 33.9766ZM123.562 33.7188L122.758 33.8203C122.758 33.2682 122.826 32.7552 122.961 32.2812C123.102 31.8073 123.307 31.3906 123.578 31.0312C123.854 30.6719 124.195 30.3932 124.602 30.1953C125.008 29.9922 125.477 29.8906 126.008 29.8906C126.414 29.8906 126.784 29.9505 127.117 30.0703C127.451 30.1849 127.734 30.3698 127.969 30.625C128.208 30.875 128.391 31.2031 128.516 31.6094C128.646 32.0156 128.711 32.513 128.711 33.1016V38.5H126.453V33.1016C126.453 32.7109 126.401 32.4141 126.297 32.2109C126.198 32.0026 126.052 31.8594 125.859 31.7812C125.672 31.6979 125.448 31.6562 125.188 31.6562C124.917 31.6562 124.68 31.7109 124.477 31.8203C124.273 31.9245 124.104 32.0703 123.969 32.2578C123.833 32.4453 123.732 32.6641 123.664 32.9141C123.596 33.1589 123.562 33.4271 123.562 33.7188Z" fill="black"/>
<path d="M134.344 38.6562C133.688 38.6562 133.099 38.5521 132.578 38.3438C132.057 38.1302 131.615 37.8359 131.25 37.4609C130.891 37.0859 130.615 36.651 130.422 36.1562C130.229 35.6562 130.133 35.125 130.133 34.5625V34.25C130.133 33.6094 130.224 33.0234 130.406 32.4922C130.589 31.9609 130.849 31.5 131.188 31.1094C131.531 30.7188 131.948 30.4193 132.438 30.2109C132.927 29.9974 133.479 29.8906 134.094 29.8906C134.693 29.8906 135.224 29.9896 135.688 30.1875C136.151 30.3854 136.539 30.6667 136.852 31.0312C137.169 31.3958 137.409 31.8333 137.57 32.3438C137.732 32.849 137.812 33.4115 137.812 34.0312V34.9688H131.094V33.4688H135.602V33.2969C135.602 32.9844 135.544 32.7057 135.43 32.4609C135.32 32.2109 135.154 32.013 134.93 31.8672C134.706 31.7214 134.419 31.6484 134.07 31.6484C133.773 31.6484 133.518 31.7135 133.305 31.8438C133.091 31.974 132.917 32.1562 132.781 32.3906C132.651 32.625 132.552 32.901 132.484 33.2188C132.422 33.5312 132.391 33.875 132.391 34.25V34.5625C132.391 34.901 132.438 35.2135 132.531 35.5C132.63 35.7865 132.768 36.0339 132.945 36.2422C133.128 36.4505 133.346 36.612 133.602 36.7266C133.862 36.8411 134.156 36.8984 134.484 36.8984C134.891 36.8984 135.268 36.8203 135.617 36.6641C135.971 36.5026 136.276 36.2604 136.531 35.9375L137.625 37.125C137.448 37.3802 137.206 37.625 136.898 37.8594C136.596 38.0938 136.232 38.2865 135.805 38.4375C135.378 38.5833 134.891 38.6562 134.344 38.6562Z" fill="black"/>
<path d="M141.297 31.8516V38.5H139.047V30.0469H141.156L141.297 31.8516ZM140.969 33.9766H140.359C140.359 33.3516 140.44 32.7891 140.602 32.2891C140.763 31.7839 140.99 31.3542 141.281 31C141.573 30.6406 141.919 30.3672 142.32 30.1797C142.727 29.987 143.18 29.8906 143.68 29.8906C144.076 29.8906 144.438 29.9479 144.766 30.0625C145.094 30.1771 145.375 30.3594 145.609 30.6094C145.849 30.8594 146.031 31.1901 146.156 31.6016C146.286 32.013 146.352 32.5156 146.352 33.1094V38.5H144.086V33.1016C144.086 32.7266 144.034 32.4349 143.93 32.2266C143.826 32.0182 143.672 31.8724 143.469 31.7891C143.271 31.7005 143.026 31.6562 142.734 31.6562C142.432 31.6562 142.169 31.7161 141.945 31.8359C141.727 31.9557 141.544 32.1224 141.398 32.3359C141.258 32.5443 141.151 32.7891 141.078 33.0703C141.005 33.3516 140.969 33.6536 140.969 33.9766Z" fill="black"/>
<path d="M152.203 30.0469V31.6406H147.281V30.0469H152.203ZM148.5 27.9609H150.75V35.9531C150.75 36.1979 150.781 36.3854 150.844 36.5156C150.911 36.6458 151.01 36.737 151.141 36.7891C151.271 36.8359 151.435 36.8594 151.633 36.8594C151.773 36.8594 151.898 36.8542 152.008 36.8438C152.122 36.8281 152.219 36.8125 152.297 36.7969L152.305 38.4531C152.112 38.5156 151.904 38.5651 151.68 38.6016C151.456 38.638 151.208 38.6562 150.938 38.6562C150.443 38.6562 150.01 38.5755 149.641 38.4141C149.276 38.2474 148.995 37.9818 148.797 37.6172C148.599 37.2526 148.5 36.7734 148.5 36.1797V27.9609Z" fill="black"/>
<path d="M160.352 36.6953L162.617 27.125H163.883L164.172 28.7188L161.758 38.5H160.398L160.352 36.6953ZM159.188 27.125L161.062 36.6953L160.906 38.5H159.391L156.867 27.125H159.188ZM166.164 36.6562L168.016 27.125H170.336L167.82 38.5H166.305L166.164 36.6562ZM164.594 27.125L166.875 36.7344L166.812 38.5H165.453L163.023 28.7109L163.336 27.125H164.594Z" fill="black"/>
<path d="M175.766 36.5938V32.8281C175.766 32.5573 175.721 32.3255 175.633 32.1328C175.544 31.9349 175.406 31.7812 175.219 31.6719C175.036 31.5625 174.799 31.5078 174.508 31.5078C174.258 31.5078 174.042 31.5521 173.859 31.6406C173.677 31.724 173.536 31.8464 173.438 32.0078C173.339 32.1641 173.289 32.349 173.289 32.5625H171.039C171.039 32.2031 171.122 31.862 171.289 31.5391C171.456 31.2161 171.698 30.9323 172.016 30.6875C172.333 30.4375 172.711 30.2422 173.148 30.1016C173.591 29.9609 174.086 29.8906 174.633 29.8906C175.289 29.8906 175.872 30 176.383 30.2188C176.893 30.4375 177.294 30.7656 177.586 31.2031C177.883 31.6406 178.031 32.1875 178.031 32.8438V36.4609C178.031 36.9245 178.06 37.3047 178.117 37.6016C178.174 37.8932 178.258 38.1484 178.367 38.3672V38.5H176.094C175.984 38.2708 175.901 37.9844 175.844 37.6406C175.792 37.2917 175.766 36.9427 175.766 36.5938ZM176.062 33.3516L176.078 34.625H174.82C174.523 34.625 174.266 34.6589 174.047 34.7266C173.828 34.7943 173.648 34.8906 173.508 35.0156C173.367 35.1354 173.263 35.276 173.195 35.4375C173.133 35.599 173.102 35.776 173.102 35.9688C173.102 36.1615 173.146 36.3359 173.234 36.4922C173.323 36.6432 173.451 36.763 173.617 36.8516C173.784 36.9349 173.979 36.9766 174.203 36.9766C174.542 36.9766 174.836 36.9089 175.086 36.7734C175.336 36.638 175.529 36.4714 175.664 36.2734C175.805 36.0755 175.878 35.888 175.883 35.7109L176.477 36.6641C176.393 36.8776 176.279 37.099 176.133 37.3281C175.992 37.5573 175.812 37.7734 175.594 37.9766C175.375 38.1745 175.112 38.3385 174.805 38.4688C174.497 38.5938 174.133 38.6562 173.711 38.6562C173.174 38.6562 172.688 38.5495 172.25 38.3359C171.818 38.1172 171.474 37.8177 171.219 37.4375C170.969 37.0521 170.844 36.6146 170.844 36.125C170.844 35.6823 170.927 35.2891 171.094 34.9453C171.26 34.6016 171.505 34.3125 171.828 34.0781C172.156 33.8385 172.565 33.6589 173.055 33.5391C173.544 33.4141 174.112 33.3516 174.758 33.3516H176.062Z" fill="black"/>
<path d="M182.141 26.5V38.5H179.883V26.5H182.141Z" fill="black"/>
<path d="M186.375 26.5V38.5H184.117V26.5H186.375Z" fill="black"/>
<path d="M192.125 38.6562C191.469 38.6562 190.88 38.5521 190.359 38.3438C189.839 38.1302 189.396 37.8359 189.031 37.4609C188.672 37.0859 188.396 36.651 188.203 36.1562C188.01 35.6562 187.914 35.125 187.914 34.5625V34.25C187.914 33.6094 188.005 33.0234 188.188 32.4922C188.37 31.9609 188.63 31.5 188.969 31.1094C189.312 30.7188 189.729 30.4193 190.219 30.2109C190.708 29.9974 191.26 29.8906 191.875 29.8906C192.474 29.8906 193.005 29.9896 193.469 30.1875C193.932 30.3854 194.32 30.6667 194.633 31.0312C194.951 31.3958 195.19 31.8333 195.352 32.3438C195.513 32.849 195.594 33.4115 195.594 34.0312V34.9688H188.875V33.4688H193.383V33.2969C193.383 32.9844 193.326 32.7057 193.211 32.4609C193.102 32.2109 192.935 32.013 192.711 31.8672C192.487 31.7214 192.201 31.6484 191.852 31.6484C191.555 31.6484 191.299 31.7135 191.086 31.8438C190.872 31.974 190.698 32.1562 190.562 32.3906C190.432 32.625 190.333 32.901 190.266 33.2188C190.203 33.5312 190.172 33.875 190.172 34.25V34.5625C190.172 34.901 190.219 35.2135 190.312 35.5C190.411 35.7865 190.549 36.0339 190.727 36.2422C190.909 36.4505 191.128 36.612 191.383 36.7266C191.643 36.8411 191.938 36.8984 192.266 36.8984C192.672 36.8984 193.049 36.8203 193.398 36.6641C193.753 36.5026 194.057 36.2604 194.312 35.9375L195.406 37.125C195.229 37.3802 194.987 37.625 194.68 37.8594C194.378 38.0938 194.013 38.2865 193.586 38.4375C193.159 38.5833 192.672 38.6562 192.125 38.6562Z" fill="black"/>
<path d="M201.016 30.0469V31.6406H196.094V30.0469H201.016ZM197.312 27.9609H199.562V35.9531C199.562 36.1979 199.594 36.3854 199.656 36.5156C199.724 36.6458 199.823 36.737 199.953 36.7891C200.083 36.8359 200.247 36.8594 200.445 36.8594C200.586 36.8594 200.711 36.8542 200.82 36.8438C200.935 36.8281 201.031 36.8125 201.109 36.7969L201.117 38.4531C200.924 38.5156 200.716 38.5651 200.492 38.6016C200.268 38.638 200.021 38.6562 199.75 38.6562C199.255 38.6562 198.823 38.5755 198.453 38.4141C198.089 38.2474 197.807 37.9818 197.609 37.6172C197.411 37.2526 197.312 36.7734 197.312 36.1797V27.9609Z" fill="black"/>
<path opacity="0.2" d="M57.7831 38C62.2489 45.735 62.2489 55.265 57.7831 63L36.9669 99.0548C32.5011 106.79 24.2479 111.555 15.3162 111.555L-26.3162 111.555C-35.2479 111.555 -43.5011 106.79 -47.9669 99.0548L-68.7831 63C-73.2489 55.265 -73.2489 45.735 -68.7831 38L-47.9669 1.9452C-43.5011 -5.78982 -35.2479 -10.5548 -26.3162 -10.5548L15.3162 -10.5548C24.2479 -10.5548 32.5011 -5.78982 36.9669 1.94521L57.7831 38Z" fill="url(#paint0_linear_13410_100332)"/>
<path d="M63.9434 32.6979V35.1087H63.7579H61.409L25.3708 34.9851C24.6908 34.9851 24.0109 34.8615 23.3309 34.676C23.2691 34.676 23.2073 34.6142 23.1454 34.6142C22.28 34.3051 21.5382 33.9342 20.9201 33.3161C20.4256 32.8216 20.0547 32.0798 20.0547 31.3998C20.0547 30.1017 21.1055 29.1127 22.5891 28.4945C23.0836 28.2473 23.7018 28.1236 24.3199 28.0618C24.5672 28.0618 24.8144 28 25.0617 28H59.2454C59.6163 28 59.9254 28.0618 60.2345 28.1236C60.4817 28.1854 60.729 28.2473 60.9763 28.3709C62.7689 29.1127 63.9434 30.7199 63.9434 32.6979Z" fill="#138DF2"/>
<path d="M63.7558 35.1095H61.4068L25.3687 34.9859C24.6887 34.9859 24.0087 34.8622 23.3288 34.6768C23.2669 34.6768 23.2051 34.615 23.1433 34.615C22.2779 34.3059 21.5361 33.935 20.918 33.3169C21.3507 32.8842 21.907 32.5133 22.587 32.266C23.0815 32.0187 23.6996 31.8951 24.3178 31.8333C24.5651 31.7715 24.8123 31.7715 25.0596 31.7715H59.2433C59.6142 31.7715 59.9233 31.8333 60.2324 31.8951C60.4796 31.9569 60.7269 32.0187 60.9741 32.1424C62.3341 32.6987 63.3231 33.8114 63.7558 35.1095Z" fill="#006AC2"/>
<path d="M68.3394 38.8785V69.2297C68.3394 71.3314 66.6704 73.0004 64.5687 73.0004H28.1596C25.1307 73.0004 22.7817 71.5786 21.2981 70.4041C20.6182 69.8478 20.1854 68.9824 20.1854 68.117C20.1854 67.6843 20.1854 67.2516 20.1854 66.8189C20.1854 66.2007 20.1854 65.4589 20.1854 64.7171C20.1854 61.2555 20.1854 56.6194 20.1236 51.9214C20.1236 51.2415 20.1236 50.5615 20.1236 49.8197C20.1236 47.3471 20.1236 44.8745 20.0618 42.5255C20.0618 41.8456 20.0618 41.1656 20.0618 40.4238C20.0618 35.7877 20 32.3261 20 31.5225C20 32.8824 21.2981 34.1187 23.0289 34.6132C23.0908 34.6132 23.1526 34.675 23.2144 34.675C23.8325 34.8605 24.5743 34.9841 25.2543 34.9841L61.2925 35.1695H63.8887H64.5068C66.6704 35.1077 68.3394 36.7767 68.3394 38.8785Z" fill="#6EBEFF"/>
<g filter="url(#filter0_d_13410_100332)">
<path d="M68.3331 47.4717V48.5844C68.2713 48.5844 68.2095 48.5844 68.0859 48.5844H60.6681C59.3699 48.5844 58.2573 49.0789 57.4537 49.8825C56.7119 50.6242 56.1556 51.7369 56.0938 52.9114C56.0938 52.9732 56.0938 53.0969 56.0938 53.1587C56.0938 55.6931 58.1336 57.733 60.6681 57.733H68.0859C68.4568 57.733 68.7658 57.6094 68.8895 57.4239C68.9513 57.3621 69.0131 57.2385 69.0131 57.1766V48.028C69.0131 47.7189 68.704 47.5335 68.3331 47.4717Z" fill="#158FF4"/>
</g>
<path d="M60.3019 55.8792C61.7855 55.8792 63.0218 54.6429 63.0218 53.1593C63.0218 51.6758 61.7855 50.4395 60.3019 50.4395C58.8183 50.4395 57.582 51.6758 57.582 53.1593C57.582 54.6429 58.8183 55.8792 60.3019 55.8792Z" fill="white"/>
</g>
<defs>
<filter id="filter0_d_13410_100332" x="34.0938" y="36.4717" width="56.918" height="54.2617" filterUnits="userSpaceOnUse" color-interpolation-filters="sRGB">
<feFlood flood-opacity="0" result="BackgroundImageFix"/>
<feColorMatrix in="SourceAlpha" type="matrix" values="0 0 0 0 0 0 0 0 0 0 0 0 0 0 0 0 0 0 127 0" result="hardAlpha"/>
<feOffset dy="11"/>
<feGaussianBlur stdDeviation="11"/>
<feColorMatrix type="matrix" values="0 0 0 0 0.397708 0 0 0 0 0.47749 0 0 0 0 0.575 0 0 0 0.27 0"/>
<feBlend mode="normal" in2="BackgroundImageFix" result="effect1_dropShadow_13410_100332"/>
<feBlend mode="normal" in="SourceGraphic" in2="effect1_dropShadow_13410_100332" result="shape"/>
</filter>
<linearGradient id="paint0_linear_13410_100332" x1="65" y1="50.5" x2="-76" y2="50.5" gradientUnits="userSpaceOnUse">
<stop stop-color="#108AEF"/>
<stop offset="1" stop-color="#108AEF" stop-opacity="0"/>
</linearGradient>
<clipPath id="clip0_13410_100332">
<rect width="245" height="100" rx="12" fill="white"/>
</clipPath>
</defs>
</svg>
