<svg width="23" height="23" viewBox="0 0 23 23" xmlns="http://www.w3.org/2000/svg">
<path d="M19.0926 16.8857C19.047 16.768 18.9786 16.6606 18.8914 16.5694L16.0164 13.6944C15.8359 13.514 15.5911 13.4126 15.3359 13.4126C15.0807 13.4126 14.836 13.514 14.6555 13.6944C14.4751 13.8749 14.3737 14.1196 14.3737 14.3748C14.3737 14.63 14.4751 14.8748 14.6555 15.0553L15.9014 16.2915H6.71094C6.45677 16.2915 6.21302 16.1905 6.03329 16.0108C5.85357 15.8311 5.7526 15.5873 5.7526 15.3332V11.4998C5.7526 11.2457 5.65164 11.0019 5.47191 10.8222C5.29219 10.6425 5.04844 10.5415 4.79427 10.5415C4.5401 10.5415 4.29635 10.6425 4.11663 10.8222C3.9369 11.0019 3.83594 11.2457 3.83594 11.4998V15.3332C3.83594 16.0957 4.13884 16.8269 4.67801 17.3661C5.21717 17.9053 5.94844 18.2082 6.71094 18.2082H15.9014L14.6555 19.4444C14.5657 19.5335 14.4944 19.6395 14.4457 19.7563C14.3971 19.8731 14.372 19.9983 14.372 20.1248C14.372 20.2513 14.3971 20.3766 14.4457 20.4934C14.4944 20.6102 14.5657 20.7162 14.6555 20.8053C14.7446 20.8951 14.8506 20.9664 14.9674 21.015C15.0842 21.0637 15.2094 21.0887 15.3359 21.0887C15.4624 21.0887 15.5877 21.0637 15.7045 21.015C15.8213 20.9664 15.9273 20.8951 16.0164 20.8053L18.8914 17.9303C18.9786 17.8391 19.047 17.7316 19.0926 17.614C19.1885 17.3807 19.1885 17.119 19.0926 16.8857Z" />
<path d="M3.9074 6.1197C3.95301 6.23734 4.0214 6.34481 4.10865 6.43595L6.98365 9.31095C7.1641 9.49141 7.40886 9.59279 7.66406 9.59279C7.91927 9.59279 8.16402 9.49141 8.34448 9.31095C8.52494 9.13049 8.62632 8.88574 8.62632 8.63053C8.62632 8.37533 8.52494 8.13058 8.34448 7.95012L7.09865 6.71387H16.2891C16.5432 6.71387 16.787 6.81483 16.9667 6.99456C17.1464 7.17428 17.2474 7.41804 17.2474 7.6722V11.5055C17.2474 11.7597 17.3484 12.0035 17.5281 12.1832C17.7078 12.3629 17.9516 12.4639 18.2057 12.4639C18.4599 12.4639 18.7037 12.3629 18.8834 12.1832C19.0631 12.0035 19.1641 11.7597 19.1641 11.5055V7.6722C19.1641 6.9097 18.8612 6.17844 18.322 5.63927C17.7828 5.1001 17.0516 4.7972 16.2891 4.7972H7.09865L8.34448 3.56095C8.4343 3.47186 8.5056 3.36587 8.55425 3.24909C8.6029 3.13231 8.62795 3.00705 8.62795 2.88053C8.62795 2.75402 8.6029 2.62876 8.55425 2.51198C8.5056 2.3952 8.4343 2.28921 8.34448 2.20012C8.25539 2.1103 8.1494 2.039 8.03262 1.99035C7.91583 1.94169 7.79057 1.91664 7.66406 1.91664C7.53755 1.91664 7.41229 1.94169 7.29551 1.99035C7.17873 2.039 7.07274 2.1103 6.98365 2.20012L4.10865 5.07512C4.0214 5.16626 3.95301 5.27373 3.9074 5.39137C3.81155 5.62468 3.81155 5.88638 3.9074 6.1197Z" />
</svg>
