<svg width="26" height="25" viewBox="0 0 26 25" xmlns="http://www.w3.org/2000/svg">
<path d="M21.2474 18.3541C21.1978 18.2262 21.1235 18.1094 21.0286 18.0103L17.9036 14.8853C17.7075 14.6892 17.4415 14.579 17.1641 14.579C16.8867 14.579 16.6206 14.6892 16.4245 14.8853C16.2283 15.0815 16.1181 15.3475 16.1181 15.6249C16.1181 15.9023 16.2283 16.1684 16.4245 16.3645L17.7786 17.7083H7.78906C7.5128 17.7083 7.24784 17.5985 7.05249 17.4032C6.85714 17.2078 6.7474 16.9429 6.7474 16.6666V12.4999C6.7474 12.2237 6.63765 11.9587 6.4423 11.7633C6.24695 11.568 5.982 11.4583 5.70573 11.4583C5.42946 11.4583 5.16451 11.568 4.96916 11.7633C4.77381 11.9587 4.66406 12.2237 4.66406 12.4999V16.6666C4.66406 17.4954 4.9933 18.2902 5.57935 18.8763C6.16541 19.4623 6.96026 19.7916 7.78906 19.7916H17.7786L16.4245 21.1353C16.3268 21.2322 16.2494 21.3474 16.1965 21.4743C16.1436 21.6013 16.1164 21.7374 16.1164 21.8749C16.1164 22.0124 16.1436 22.1486 16.1965 22.2755C16.2494 22.4025 16.3268 22.5177 16.4245 22.6145C16.5213 22.7121 16.6365 22.7896 16.7635 22.8425C16.8904 22.8954 17.0265 22.9226 17.1641 22.9226C17.3016 22.9226 17.4377 22.8954 17.5647 22.8425C17.6916 22.7896 17.8068 22.7121 17.9036 22.6145L21.0286 19.4895C21.1235 19.3904 21.1978 19.2736 21.2474 19.1458C21.3516 18.8921 21.3516 18.6077 21.2474 18.3541Z"/>
<path d="M4.74479 6.65202C4.79437 6.77988 4.86871 6.8967 4.96354 6.99577L8.08854 10.1208C8.28469 10.3169 8.55073 10.4271 8.82812 10.4271C9.10552 10.4271 9.37156 10.3169 9.56771 10.1208C9.76386 9.92462 9.87405 9.65858 9.87405 9.38118C9.87405 9.10379 9.76386 8.83775 9.56771 8.6416L8.21354 7.29785H18.2031C18.4794 7.29785 18.7443 7.4076 18.9397 7.60295C19.135 7.7983 19.2448 8.06325 19.2448 8.33952V12.5062C19.2448 12.7825 19.3545 13.0474 19.5499 13.2428C19.7452 13.4381 20.0102 13.5479 20.2865 13.5479C20.5627 13.5479 20.8277 13.4381 21.023 13.2428C21.2184 13.0474 21.3281 12.7825 21.3281 12.5062V8.33952C21.3281 7.51072 20.9989 6.71586 20.4128 6.12981C19.8268 5.54376 19.0319 5.21452 18.2031 5.21452H8.21354L9.56771 3.87077C9.66534 3.77393 9.74284 3.65872 9.79572 3.53179C9.84861 3.40485 9.87583 3.2687 9.87583 3.13118C9.87583 2.99367 9.84861 2.85752 9.79572 2.73058C9.74284 2.60365 9.66534 2.48844 9.56771 2.3916C9.47087 2.29397 9.35566 2.21647 9.22873 2.16359C9.10179 2.1107 8.96564 2.08348 8.82812 2.08348C8.69061 2.08348 8.55446 2.1107 8.42752 2.16359C8.30059 2.21647 8.18538 2.29397 8.08854 2.3916L4.96354 5.5166C4.86871 5.61567 4.79437 5.73248 4.74479 5.86035C4.64061 6.11396 4.64061 6.39841 4.74479 6.65202Z" />
</svg>
