<svg width="24" height="24" viewBox="0 0 24 24" fill="none" xmlns="http://www.w3.org/2000/svg">
<path d="M15.5411 8.28978C15.7294 8.09617 15.9869 7.98529 16.2569 7.98154C16.527 7.97779 16.7875 8.08147 16.9811 8.26978C17.1747 8.45808 17.2856 8.71558 17.2893 8.98564C17.2931 9.25569 17.1894 9.51617 17.0011 9.70978L14.6611 11.9998L17.0011 14.2898C17.0948 14.3827 17.1692 14.4933 17.22 14.6152C17.2707 14.7371 17.2969 14.8678 17.2969 14.9998C17.2969 15.1318 17.2707 15.2625 17.22 15.3844C17.1692 15.5062 17.0948 15.6168 17.0011 15.7098C16.9081 15.8035 16.7975 15.8779 16.6757 15.9287C16.5538 15.9794 16.4231 16.0056 16.2911 16.0056C16.1591 16.0056 16.0284 15.9794 15.9065 15.9287C15.7846 15.8779 15.674 15.8035 15.5811 15.7098L12.5811 12.7098C12.4873 12.6168 12.413 12.5062 12.3622 12.3844C12.3114 12.2625 12.2853 12.1318 12.2853 11.9998C12.2853 11.8678 12.3114 11.7371 12.3622 11.6152C12.413 11.4933 12.4873 11.3827 12.5811 11.2898L15.5411 8.28978ZM7.04108 11.2898L10.0411 8.28978C10.2294 8.10147 10.4848 7.99569 10.7511 7.99569C11.0174 7.99569 11.2728 8.10147 11.4611 8.28978C11.6494 8.47808 11.7552 8.73348 11.7552 8.99978C11.7552 9.26608 11.6494 9.52147 11.4611 9.70978L9.16108 11.9998L11.4611 14.2898C11.5548 14.3827 11.6292 14.4933 11.68 14.6152C11.7307 14.7371 11.7569 14.8678 11.7569 14.9998C11.7569 15.1318 11.7307 15.2625 11.68 15.3844C11.6292 15.5062 11.5548 15.6168 11.4611 15.7098C11.3681 15.8035 11.2575 15.8779 11.1357 15.9287C11.0138 15.9794 10.8831 16.0056 10.7511 16.0056C10.6191 16.0056 10.4884 15.9794 10.3665 15.9287C10.2446 15.8779 10.134 15.8035 10.0411 15.7098L7.04108 12.7098C6.94468 12.6195 6.86713 12.511 6.8129 12.3906C6.75867 12.2701 6.72883 12.1401 6.72511 12.0081C6.72139 11.8761 6.74386 11.7446 6.79123 11.6213C6.8386 11.498 6.90992 11.3854 7.00108 11.2898H7.04108Z" fill="#344054"/>
</svg>
