<svg width="26" height="25" viewBox="0 0 26 25"  xmlns="http://www.w3.org/2000/svg">
<path d="M14.3529 12.7291C14.9087 12.248 15.3545 11.6529 15.66 10.9843C15.9656 10.3157 16.1237 9.5892 16.1237 8.85408C16.1237 7.47275 15.575 6.14799 14.5982 5.17124C13.6215 4.19449 12.2967 3.64575 10.9154 3.64575C9.53403 3.64575 8.20927 4.19449 7.23252 5.17124C6.25576 6.14799 5.70703 7.47275 5.70703 8.85408C5.70702 9.5892 5.86516 10.3157 6.1707 10.9843C6.47625 11.6529 6.92205 12.248 7.47786 12.7291C6.01968 13.3894 4.78252 14.4557 3.9143 15.8005C3.04609 17.1453 2.58356 18.7117 2.58203 20.3124C2.58203 20.5887 2.69178 20.8536 2.88713 21.049C3.08248 21.2443 3.34743 21.3541 3.6237 21.3541C3.89997 21.3541 4.16492 21.2443 4.36027 21.049C4.55562 20.8536 4.66536 20.5887 4.66536 20.3124C4.66536 18.6548 5.32384 17.0651 6.49595 15.893C7.66805 14.7209 9.25776 14.0624 10.9154 14.0624C12.573 14.0624 14.1627 14.7209 15.3348 15.893C16.5069 17.0651 17.1654 18.6548 17.1654 20.3124C17.1654 20.5887 17.2751 20.8536 17.4705 21.049C17.6658 21.2443 17.9308 21.3541 18.207 21.3541C18.4833 21.3541 18.7483 21.2443 18.9436 21.049C19.139 20.8536 19.2487 20.5887 19.2487 20.3124C19.2472 18.7117 18.7846 17.1453 17.9164 15.8005C17.0482 14.4557 15.8111 13.3894 14.3529 12.7291ZM10.9154 11.9791C10.2973 11.9791 9.69311 11.7958 9.17921 11.4524C8.6653 11.109 8.26476 10.621 8.02824 10.05C7.79172 9.47895 7.72983 8.85062 7.85041 8.24443C7.97099 7.63824 8.26862 7.08142 8.70566 6.64438C9.14269 6.20734 9.69952 5.90971 10.3057 5.78913C10.9119 5.66855 11.5402 5.73044 12.1112 5.96696C12.6823 6.20349 13.1703 6.60402 13.5137 7.11793C13.8571 7.63183 14.0404 8.23602 14.0404 8.85408C14.0404 9.68289 13.7111 10.4777 13.1251 11.0638C12.539 11.6498 11.7442 11.9791 10.9154 11.9791ZM23.1133 9.51033C23.0164 9.4127 22.9012 9.33521 22.7743 9.28232C22.6474 9.22944 22.5112 9.20221 22.3737 9.20221C22.2362 9.20221 22.1 9.22944 21.9731 9.28232C21.8462 9.33521 21.731 9.4127 21.6341 9.51033L19.5508 11.5937L18.9049 10.9374C18.8081 10.8398 18.6929 10.7623 18.566 10.7094C18.439 10.6565 18.3029 10.6293 18.1654 10.6293C18.0279 10.6293 17.8917 10.6565 17.7648 10.7094C17.6378 10.7623 17.5226 10.8398 17.4258 10.9374C17.2318 11.1326 17.1229 11.3966 17.1229 11.6718C17.1229 11.947 17.2318 12.211 17.4258 12.4062L18.8216 13.802C19.0168 13.996 19.2808 14.1049 19.556 14.1049C19.8312 14.1049 20.0952 13.996 20.2904 13.802L23.0716 11.0208C23.1768 10.9263 23.2616 10.8114 23.321 10.6831C23.3803 10.5548 23.4129 10.4158 23.4168 10.2745C23.4207 10.1332 23.3958 9.99257 23.3437 9.86119C23.2915 9.72982 23.2131 9.61045 23.1133 9.51033Z" />
</svg>
