<svg width="26" height="25" viewBox="0 0 26 25"  xmlns="http://www.w3.org/2000/svg">
<path d="M13.0013 12.4999C12.3832 12.4999 11.779 12.6832 11.2651 13.0266C10.7512 13.37 10.3507 13.858 10.1142 14.429C9.87765 15.0001 9.81577 15.6284 9.93635 16.2346C10.0569 16.8408 10.3546 17.3976 10.7916 17.8346C11.2286 18.2717 11.7855 18.5693 12.3916 18.6899C12.9978 18.8105 13.6262 18.7486 14.1972 18.512C14.7682 18.2755 15.2563 17.875 15.5996 17.3611C15.943 16.8472 16.1263 16.243 16.1263 15.6249C16.1263 14.7961 15.7971 14.0013 15.211 13.4152C14.625 12.8292 13.8301 12.4999 13.0013 12.4999ZM13.0013 16.6666C12.7953 16.6666 12.5939 16.6055 12.4226 16.491C12.2513 16.3766 12.1178 16.2139 12.0389 16.0235C11.9601 15.8332 11.9395 15.6238 11.9797 15.4217C12.0198 15.2196 12.1191 15.034 12.2647 14.8884C12.4104 14.7427 12.596 14.6435 12.7981 14.6033C13.0001 14.5631 13.2096 14.5837 13.3999 14.6625C13.5903 14.7414 13.753 14.8749 13.8674 15.0462C13.9819 15.2175 14.043 15.4189 14.043 15.6249C14.043 15.9012 13.9332 16.1661 13.7379 16.3615C13.5425 16.5568 13.2776 16.6666 13.0013 16.6666ZM12.2617 10.1145C12.3608 10.2093 12.4776 10.2837 12.6055 10.3333C12.7302 10.3884 12.865 10.4168 13.0013 10.4168C13.1376 10.4168 13.2724 10.3884 13.3971 10.3333C13.525 10.2837 13.6418 10.2093 13.7409 10.1145L16.1263 7.77075C16.328 7.56908 16.4413 7.29555 16.4413 7.01034C16.4413 6.72512 16.328 6.45159 16.1263 6.24992C15.9246 6.04824 15.6511 5.93494 15.3659 5.93494C15.0807 5.93494 14.8071 6.04824 14.6055 6.24992L14.043 6.8645V3.12492C14.043 2.84865 13.9332 2.5837 13.7379 2.38835C13.5425 2.193 13.2776 2.08325 13.0013 2.08325C12.725 2.08325 12.4601 2.193 12.2647 2.38835C12.0694 2.5837 11.9596 2.84865 11.9596 3.12492V6.8645L11.3971 6.24992C11.1955 6.04824 10.9219 5.93494 10.6367 5.93494C10.3515 5.93494 10.078 6.04824 9.8763 6.24992C9.67463 6.45159 9.56133 6.72512 9.56133 7.01034C9.56133 7.29555 9.67463 7.56908 9.8763 7.77075L12.2617 10.1145ZM20.293 15.6249C20.293 15.4189 20.2319 15.2175 20.1174 15.0462C20.003 14.8749 19.8403 14.7414 19.6499 14.6625C19.4596 14.5837 19.2501 14.5631 19.0481 14.6033C18.846 14.6435 18.6604 14.7427 18.5147 14.8884C18.3691 15.034 18.2698 15.2196 18.2297 15.4217C18.1895 15.6238 18.2101 15.8332 18.2889 16.0235C18.3678 16.2139 18.5013 16.3766 18.6726 16.491C18.8439 16.6055 19.0453 16.6666 19.2513 16.6666C19.5276 16.6666 19.7925 16.5568 19.9879 16.3615C20.1832 16.1661 20.293 15.9012 20.293 15.6249ZM21.3346 8.33325H18.2096C17.9334 8.33325 17.6684 8.443 17.4731 8.63835C17.2777 8.8337 17.168 9.09865 17.168 9.37492C17.168 9.65119 17.2777 9.91614 17.4731 10.1115C17.6684 10.3068 17.9334 10.4166 18.2096 10.4166H21.3346C21.6109 10.4166 21.8759 10.5263 22.0712 10.7217C22.2666 10.917 22.3763 11.182 22.3763 11.4583V19.7916C22.3763 20.0679 22.2666 20.3328 22.0712 20.5282C21.8759 20.7235 21.6109 20.8333 21.3346 20.8333H4.66797C4.3917 20.8333 4.12675 20.7235 3.9314 20.5282C3.73605 20.3328 3.6263 20.0679 3.6263 19.7916V11.4583C3.6263 11.182 3.73605 10.917 3.9314 10.7217C4.12675 10.5263 4.3917 10.4166 4.66797 10.4166H7.79297C8.06924 10.4166 8.33419 10.3068 8.52954 10.1115C8.72489 9.91614 8.83464 9.65119 8.83464 9.37492C8.83464 9.09865 8.72489 8.8337 8.52954 8.63835C8.33419 8.443 8.06924 8.33325 7.79297 8.33325H4.66797C3.83917 8.33325 3.04431 8.66249 2.45826 9.24854C1.87221 9.83459 1.54297 10.6295 1.54297 11.4583V19.7916C1.54297 20.6204 1.87221 21.4152 2.45826 22.0013C3.04431 22.5873 3.83917 22.9166 4.66797 22.9166H21.3346C22.1634 22.9166 22.9583 22.5873 23.5443 22.0013C24.1304 21.4152 24.4596 20.6204 24.4596 19.7916V11.4583C24.4596 10.6295 24.1304 9.83459 23.5443 9.24854C22.9583 8.66249 22.1634 8.33325 21.3346 8.33325ZM5.70964 15.6249C5.70964 15.8309 5.77073 16.0323 5.88519 16.2036C5.99965 16.3749 6.16233 16.5085 6.35267 16.5873C6.54301 16.6661 6.75246 16.6868 6.95452 16.6466C7.15658 16.6064 7.34219 16.5072 7.48787 16.3615C7.63355 16.2158 7.73276 16.0302 7.77295 15.8281C7.81315 15.6261 7.79252 15.4166 7.71368 15.2263C7.63484 15.036 7.50132 14.8733 7.33002 14.7588C7.15872 14.6443 6.95732 14.5833 6.7513 14.5833C6.47503 14.5833 6.21008 14.693 6.01473 14.8884C5.81938 15.0837 5.70964 15.3487 5.70964 15.6249Z" />
</svg>
