<svg width="225" height="266" viewBox="0 0 225 266" fill="none" xmlns="http://www.w3.org/2000/svg">
<rect width="225" height="266" rx="50" fill="#1F213A"/>
<path d="M146.826 54.584L163.089 79.5559L163.355 79.8225L113.767 140.875L64.4453 79.8225L64.8897 79.5559L80.8859 54.584H146.826Z" fill="#32A969"/>
<path d="M97.6758 79.3745L100.676 83.3745L105.676 96.3745L113.767 140.875L64.4453 79.8225L64.8897 79.5559L80.8859 54.584L97.6758 79.3745Z" fill="#66CA96"/>
<path d="M130.825 79.5554L113.762 140.874L97.7656 79.5554L113.762 54.5835L130.825 79.5554Z" fill="#32B873"/>
<path d="M163.265 79.822L113.766 140.874L130.828 79.5554L146.825 54.5835L163.265 79.822Z" fill="#00A652"/>
<path d="M64.8906 79.5554L80.8869 54.5835L97.7718 79.5554H64.8906Z" fill="#CCEDDC"/>
<path d="M163.265 79.822L130.828 79.5554L146.824 54.5835L163.265 79.822Z" fill="#009544"/>
<path d="M130.825 79.5554H97.7656L113.762 54.5835L130.825 79.5554Z" fill="#66BF8F"/>
<path d="M80.6755 54.5833L113.734 54.5833L97.7381 79.5552L80.6755 54.5833Z" fill="#99DAB8"/>
<path d="M103.438 74.1905L106.795 73.1701C107.068 73.102 107.068 72.7619 106.795 72.6939L103.438 71.6735C103.37 71.6735 103.301 71.6054 103.233 71.4694L102.274 68.2041C102.205 67.932 101.863 67.932 101.795 68.2041L100.767 71.5374C100.767 71.6054 100.699 71.6735 100.562 71.7415L97.2055 72.7619C96.9315 72.8299 96.9315 73.1701 97.2055 73.2381L100.562 74.2585C100.63 74.2585 100.699 74.3265 100.767 74.4626L101.795 77.7959C101.863 78.068 102.205 78.068 102.274 77.7959L103.301 74.4626C103.301 74.2585 103.37 74.1905 103.438 74.1905Z" fill="white"/>
<path d="M77.6536 116.572L80.6249 115.687C80.8146 115.628 80.8836 115.315 80.6323 115.31L77.6954 114.436C77.6338 114.372 77.5722 114.308 77.5722 114.308L76.6875 111.337C76.6283 111.147 76.3154 111.078 76.3105 111.329L75.436 114.266C75.372 114.328 75.3079 114.389 75.3079 114.389L72.3366 115.274C72.1469 115.333 72.078 115.646 72.3293 115.651L75.2662 116.525C75.3278 116.589 75.3894 116.653 75.3894 116.653L76.2741 119.625C76.3332 119.814 76.6461 119.883 76.651 119.632L77.5255 116.695C77.5896 116.634 77.6536 116.572 77.6536 116.572Z" fill="white"/>
<path d="M146.477 122.378L148.807 121.635C148.956 121.585 149.006 121.337 148.807 121.337L146.477 120.693C146.428 120.643 146.378 120.594 146.378 120.594L145.635 118.264C145.585 118.115 145.337 118.066 145.337 118.264L144.693 120.594C144.643 120.643 144.594 120.693 144.594 120.693L142.264 121.437C142.115 121.486 142.065 121.734 142.264 121.734L144.594 122.378C144.643 122.428 144.693 122.478 144.693 122.478L145.436 124.807C145.486 124.956 145.734 125.006 145.734 124.807L146.378 122.478C146.428 122.428 146.477 122.378 146.477 122.378Z" fill="white"/>
<path d="M130.598 56.2423L135.574 54.7315C135.93 54.6426 135.93 54.1094 135.574 54.0206L130.598 52.5098C130.509 52.5098 130.331 52.4209 130.331 52.2432L128.82 47.2666C128.732 46.9111 128.198 46.9111 128.109 47.2666L126.599 52.2432C126.599 52.3321 126.51 52.5098 126.332 52.5098L121.267 54.0206C120.911 54.1094 120.911 54.6426 121.267 54.7315L126.243 56.2423C126.332 56.2423 126.51 56.3311 126.51 56.5089L128.021 61.4855C128.109 61.8409 128.643 61.8409 128.732 61.4855L130.242 56.5089C130.331 56.42 130.42 56.3311 130.598 56.2423Z" fill="white"/>
<path d="M130.309 90.1317L134.22 88.9764C134.486 88.8875 134.486 88.4432 134.22 88.4432L130.309 87.2879C130.221 87.2879 130.132 87.199 130.132 87.1101L128.976 83.2C128.888 82.9333 128.443 82.9333 128.443 83.2L127.288 87.1101C127.288 87.199 127.199 87.2879 127.11 87.2879L123.2 88.4432C122.933 88.532 122.933 88.9764 123.2 88.9764L127.11 90.1317C127.199 90.1317 127.288 90.2205 127.288 90.3094L128.443 94.2196C128.532 94.4862 128.976 94.4862 128.976 94.2196L130.132 90.3094C130.132 90.2205 130.221 90.1317 130.309 90.1317Z" fill="white"/>
<path d="M39.7695 156.656H45.0723C46.1595 156.656 47.0938 156.819 47.875 157.144C48.6628 157.47 49.2682 157.951 49.6914 158.589C50.1146 159.227 50.3262 160.012 50.3262 160.943C50.3262 161.705 50.196 162.359 49.9355 162.906C49.6816 163.446 49.3203 163.899 48.8516 164.263C48.3893 164.621 47.8457 164.908 47.2207 165.123L46.293 165.611H41.6836L41.6641 163.326H45.0918C45.6061 163.326 46.0326 163.235 46.3711 163.052C46.7096 162.87 46.9635 162.616 47.1328 162.291C47.3086 161.965 47.3965 161.587 47.3965 161.158C47.3965 160.702 47.3118 160.308 47.1426 159.976C46.9733 159.644 46.7161 159.39 46.3711 159.214C46.026 159.039 45.5931 158.951 45.0723 158.951H42.6992V170.875H39.7695V156.656ZM47.7188 170.875L44.4766 164.537L47.5723 164.517L50.8535 170.738V170.875H47.7188ZM57.2695 171.07C56.4492 171.07 55.7135 170.94 55.0625 170.679C54.4115 170.412 53.8581 170.044 53.4023 169.576C52.9531 169.107 52.6081 168.563 52.3672 167.945C52.1263 167.32 52.0059 166.656 52.0059 165.953V165.562C52.0059 164.761 52.1198 164.029 52.3477 163.365C52.5755 162.701 52.901 162.125 53.3242 161.636C53.7539 161.148 54.2747 160.774 54.8867 160.513C55.4987 160.246 56.1888 160.113 56.957 160.113C57.7057 160.113 58.3698 160.236 58.9492 160.484C59.5286 160.731 60.0137 161.083 60.4043 161.539C60.8014 161.994 61.1009 162.541 61.3027 163.179C61.5046 163.811 61.6055 164.514 61.6055 165.289V166.46H53.207V164.585H58.8418V164.371C58.8418 163.98 58.7702 163.632 58.627 163.326C58.4902 163.013 58.2819 162.766 58.002 162.583C57.722 162.401 57.3639 162.31 56.9277 162.31C56.5566 162.31 56.2376 162.391 55.9707 162.554C55.7038 162.717 55.4857 162.945 55.3164 163.238C55.1536 163.531 55.0299 163.876 54.9453 164.273C54.8672 164.664 54.8281 165.093 54.8281 165.562V165.953C54.8281 166.376 54.8867 166.766 55.0039 167.125C55.1276 167.483 55.3001 167.792 55.5215 168.052C55.7493 168.313 56.0228 168.514 56.3418 168.658C56.6673 168.801 57.0352 168.873 57.4453 168.873C57.9531 168.873 58.4251 168.775 58.8613 168.58C59.304 168.378 59.6849 168.075 60.0039 167.671L61.3711 169.156C61.1497 169.475 60.847 169.781 60.4629 170.074C60.0853 170.367 59.6296 170.608 59.0957 170.796C58.5618 170.979 57.9531 171.07 57.2695 171.07ZM66.2246 168.14L68.4219 160.308H70.209L69.6328 163.384L67.4355 170.875H65.9414L66.2246 168.14ZM65.1113 160.308L66.6836 168.13L66.8301 170.875H65.0723L62.3965 160.308H65.1113ZM72.2207 168.003L73.7539 160.308H76.4785L73.8027 170.875H72.0547L72.2207 168.003ZM70.4531 160.308L72.6406 168.082L72.9434 170.875H71.4395L69.2422 163.394L68.6855 160.308H70.4531ZM83.5977 168.492V163.785C83.5977 163.446 83.5423 163.156 83.4316 162.916C83.321 162.668 83.1484 162.476 82.9141 162.339C82.6862 162.203 82.39 162.134 82.0254 162.134C81.7129 162.134 81.4427 162.19 81.2148 162.3C80.987 162.404 80.8112 162.557 80.6875 162.759C80.5638 162.955 80.502 163.186 80.502 163.453H77.6895C77.6895 163.003 77.7936 162.577 78.002 162.173C78.2103 161.77 78.513 161.415 78.9102 161.109C79.3073 160.796 79.7793 160.552 80.3262 160.376C80.8796 160.201 81.498 160.113 82.1816 160.113C83.002 160.113 83.7311 160.25 84.3691 160.523C85.0072 160.796 85.5085 161.207 85.873 161.753C86.2441 162.3 86.4297 162.984 86.4297 163.804V168.326C86.4297 168.905 86.4655 169.38 86.5371 169.751C86.6087 170.116 86.7129 170.435 86.8496 170.708V170.875H84.0078C83.8711 170.588 83.7669 170.23 83.6953 169.8C83.6302 169.364 83.5977 168.928 83.5977 168.492ZM83.9688 164.439L83.9883 166.031H82.416C82.0449 166.031 81.7227 166.073 81.4492 166.158C81.1758 166.242 80.9512 166.363 80.7754 166.519C80.5996 166.669 80.4694 166.845 80.3848 167.046C80.3066 167.248 80.2676 167.47 80.2676 167.71C80.2676 167.951 80.3229 168.169 80.4336 168.365C80.5443 168.554 80.7038 168.703 80.9121 168.814C81.1204 168.918 81.3646 168.97 81.6445 168.97C82.0677 168.97 82.4355 168.886 82.748 168.716C83.0605 168.547 83.3014 168.339 83.4707 168.091C83.6465 167.844 83.7376 167.61 83.7441 167.388L84.4863 168.58C84.3822 168.847 84.2389 169.123 84.0566 169.41C83.8809 169.696 83.6562 169.966 83.3828 170.22C83.1094 170.468 82.7806 170.673 82.3965 170.835C82.0124 170.992 81.5566 171.07 81.0293 171.07C80.3587 171.07 79.75 170.936 79.2031 170.669C78.6628 170.396 78.2331 170.022 77.9141 169.546C77.6016 169.065 77.4453 168.518 77.4453 167.906C77.4453 167.352 77.5495 166.861 77.7578 166.431C77.9661 166.001 78.2721 165.64 78.6758 165.347C79.0859 165.048 79.597 164.823 80.209 164.673C80.821 164.517 81.5306 164.439 82.3379 164.439H83.9688ZM91.4102 162.613V170.875H88.5977V160.308H91.2441L91.4102 162.613ZM94.5938 160.24L94.5449 162.847C94.4082 162.828 94.2422 162.811 94.0469 162.798C93.8581 162.779 93.6855 162.769 93.5293 162.769C93.1322 162.769 92.7871 162.821 92.4941 162.925C92.2077 163.023 91.9668 163.169 91.7715 163.365C91.5827 163.56 91.4395 163.798 91.3418 164.078C91.2507 164.358 91.1986 164.677 91.1855 165.035L90.6191 164.859C90.6191 164.175 90.6875 163.547 90.8242 162.974C90.9609 162.395 91.1595 161.89 91.4199 161.46C91.6868 161.031 92.0124 160.699 92.3965 160.464C92.7806 160.23 93.2201 160.113 93.7148 160.113C93.8711 160.113 94.0306 160.126 94.1934 160.152C94.3561 160.171 94.4896 160.201 94.5938 160.24ZM101.967 168.57V155.875H104.799V170.875H102.25L101.967 168.57ZM95.2871 165.718V165.513C95.2871 164.706 95.3783 163.973 95.5605 163.316C95.7428 162.652 96.0098 162.082 96.3613 161.607C96.7129 161.132 97.1458 160.764 97.6602 160.503C98.1745 160.243 98.7604 160.113 99.418 160.113C100.036 160.113 100.577 160.243 101.039 160.503C101.508 160.764 101.905 161.135 102.23 161.617C102.562 162.092 102.829 162.655 103.031 163.306C103.233 163.951 103.38 164.657 103.471 165.425V165.875C103.38 166.61 103.233 167.294 103.031 167.925C102.829 168.557 102.562 169.11 102.23 169.585C101.905 170.054 101.508 170.419 101.039 170.679C100.57 170.94 100.023 171.07 99.3984 171.07C98.7409 171.07 98.1549 170.936 97.6406 170.669C97.1328 170.403 96.7031 170.028 96.3516 169.546C96.0065 169.065 95.7428 168.498 95.5605 167.847C95.3783 167.196 95.2871 166.486 95.2871 165.718ZM98.0996 165.513V165.718C98.0996 166.154 98.1322 166.561 98.1973 166.939C98.2689 167.317 98.3828 167.652 98.5391 167.945C98.7018 168.231 98.9102 168.456 99.1641 168.619C99.4245 168.775 99.7402 168.853 100.111 168.853C100.593 168.853 100.99 168.746 101.303 168.531C101.615 168.309 101.853 168.007 102.016 167.623C102.185 167.238 102.283 166.796 102.309 166.294V165.015C102.289 164.605 102.23 164.237 102.133 163.912C102.042 163.58 101.905 163.296 101.723 163.062C101.547 162.828 101.326 162.645 101.059 162.515C100.798 162.385 100.489 162.32 100.131 162.32C99.7663 162.32 99.4538 162.404 99.1934 162.574C98.9329 162.736 98.7214 162.961 98.5586 163.248C98.4023 163.534 98.2852 163.873 98.207 164.263C98.1354 164.647 98.0996 165.064 98.0996 165.513ZM117.934 159.087L114.066 170.875H110.951L116.234 156.656H118.217L117.934 159.087ZM121.146 170.875L117.27 159.087L116.957 156.656H118.959L124.271 170.875H121.146ZM120.971 165.582V167.876H113.461V165.582H120.971ZM129.779 168.873C130.124 168.873 130.43 168.807 130.697 168.677C130.964 168.541 131.173 168.352 131.322 168.111C131.479 167.863 131.56 167.574 131.566 167.242H134.213C134.206 167.984 134.008 168.645 133.617 169.224C133.227 169.797 132.702 170.25 132.045 170.582C131.387 170.907 130.652 171.07 129.838 171.07C129.018 171.07 128.301 170.933 127.689 170.66C127.084 170.386 126.579 170.009 126.176 169.527C125.772 169.039 125.469 168.472 125.268 167.828C125.066 167.177 124.965 166.48 124.965 165.738V165.455C124.965 164.706 125.066 164.009 125.268 163.365C125.469 162.714 125.772 162.147 126.176 161.666C126.579 161.177 127.084 160.796 127.689 160.523C128.295 160.25 129.005 160.113 129.818 160.113C130.684 160.113 131.443 160.279 132.094 160.611C132.751 160.943 133.266 161.418 133.637 162.037C134.014 162.649 134.206 163.375 134.213 164.214H131.566C131.56 163.863 131.485 163.544 131.342 163.257C131.205 162.971 131.003 162.743 130.736 162.574C130.476 162.398 130.154 162.31 129.77 162.31C129.359 162.31 129.024 162.398 128.764 162.574C128.503 162.743 128.301 162.977 128.158 163.277C128.015 163.57 127.914 163.905 127.855 164.283C127.803 164.654 127.777 165.044 127.777 165.455V165.738C127.777 166.148 127.803 166.542 127.855 166.919C127.908 167.297 128.005 167.632 128.148 167.925C128.298 168.218 128.503 168.449 128.764 168.619C129.024 168.788 129.363 168.873 129.779 168.873ZM140.209 168.873C140.554 168.873 140.86 168.807 141.127 168.677C141.394 168.541 141.602 168.352 141.752 168.111C141.908 167.863 141.99 167.574 141.996 167.242H144.643C144.636 167.984 144.438 168.645 144.047 169.224C143.656 169.797 143.132 170.25 142.475 170.582C141.817 170.907 141.081 171.07 140.268 171.07C139.447 171.07 138.731 170.933 138.119 170.66C137.514 170.386 137.009 170.009 136.605 169.527C136.202 169.039 135.899 168.472 135.697 167.828C135.495 167.177 135.395 166.48 135.395 165.738V165.455C135.395 164.706 135.495 164.009 135.697 163.365C135.899 162.714 136.202 162.147 136.605 161.666C137.009 161.177 137.514 160.796 138.119 160.523C138.725 160.25 139.434 160.113 140.248 160.113C141.114 160.113 141.872 160.279 142.523 160.611C143.181 160.943 143.695 161.418 144.066 162.037C144.444 162.649 144.636 163.375 144.643 164.214H141.996C141.99 163.863 141.915 163.544 141.771 163.257C141.635 162.971 141.433 162.743 141.166 162.574C140.906 162.398 140.583 162.31 140.199 162.31C139.789 162.31 139.454 162.398 139.193 162.574C138.933 162.743 138.731 162.977 138.588 163.277C138.445 163.57 138.344 163.905 138.285 164.283C138.233 164.654 138.207 165.044 138.207 165.455V165.738C138.207 166.148 138.233 166.542 138.285 166.919C138.337 167.297 138.435 167.632 138.578 167.925C138.728 168.218 138.933 168.449 139.193 168.619C139.454 168.788 139.792 168.873 140.209 168.873ZM145.824 165.699V165.494C145.824 164.719 145.935 164.006 146.156 163.355C146.378 162.697 146.7 162.128 147.123 161.646C147.546 161.164 148.067 160.79 148.686 160.523C149.304 160.25 150.014 160.113 150.814 160.113C151.615 160.113 152.328 160.25 152.953 160.523C153.578 160.79 154.102 161.164 154.525 161.646C154.955 162.128 155.281 162.697 155.502 163.355C155.723 164.006 155.834 164.719 155.834 165.494V165.699C155.834 166.467 155.723 167.18 155.502 167.837C155.281 168.488 154.955 169.058 154.525 169.546C154.102 170.028 153.581 170.403 152.963 170.669C152.344 170.936 151.635 171.07 150.834 171.07C150.033 171.07 149.32 170.936 148.695 170.669C148.077 170.403 147.553 170.028 147.123 169.546C146.7 169.058 146.378 168.488 146.156 167.837C145.935 167.18 145.824 166.467 145.824 165.699ZM148.637 165.494V165.699C148.637 166.141 148.676 166.555 148.754 166.939C148.832 167.323 148.956 167.662 149.125 167.955C149.301 168.241 149.529 168.466 149.809 168.628C150.089 168.791 150.43 168.873 150.834 168.873C151.225 168.873 151.56 168.791 151.84 168.628C152.12 168.466 152.344 168.241 152.514 167.955C152.683 167.662 152.807 167.323 152.885 166.939C152.969 166.555 153.012 166.141 153.012 165.699V165.494C153.012 165.064 152.969 164.66 152.885 164.283C152.807 163.899 152.68 163.56 152.504 163.267C152.335 162.968 152.11 162.733 151.83 162.564C151.55 162.395 151.212 162.31 150.814 162.31C150.417 162.31 150.079 162.395 149.799 162.564C149.525 162.733 149.301 162.968 149.125 163.267C148.956 163.56 148.832 163.899 148.754 164.283C148.676 164.66 148.637 165.064 148.637 165.494ZM163.812 168.345V160.308H166.625V170.875H163.979L163.812 168.345ZM164.125 166.177L164.955 166.158C164.955 166.861 164.874 167.515 164.711 168.121C164.548 168.72 164.304 169.24 163.979 169.683C163.653 170.119 163.243 170.461 162.748 170.708C162.253 170.949 161.671 171.07 161 171.07C160.486 171.07 160.01 170.998 159.574 170.855C159.145 170.705 158.773 170.474 158.461 170.162C158.155 169.843 157.914 169.436 157.738 168.941C157.569 168.44 157.484 167.837 157.484 167.134V160.308H160.297V167.154C160.297 167.466 160.333 167.73 160.404 167.945C160.482 168.16 160.59 168.335 160.727 168.472C160.863 168.609 161.023 168.707 161.205 168.765C161.394 168.824 161.602 168.853 161.83 168.853C162.41 168.853 162.865 168.736 163.197 168.501C163.536 168.267 163.773 167.948 163.91 167.544C164.053 167.134 164.125 166.679 164.125 166.177ZM171.527 162.564V170.875H168.715V160.308H171.352L171.527 162.564ZM171.117 165.22H170.355C170.355 164.439 170.456 163.736 170.658 163.111C170.86 162.479 171.143 161.942 171.508 161.5C171.872 161.05 172.305 160.708 172.807 160.474C173.314 160.233 173.881 160.113 174.506 160.113C175.001 160.113 175.453 160.184 175.863 160.328C176.273 160.471 176.625 160.699 176.918 161.011C177.217 161.324 177.445 161.737 177.602 162.251C177.764 162.766 177.846 163.394 177.846 164.136V170.875H175.014V164.126C175.014 163.658 174.949 163.293 174.818 163.033C174.688 162.772 174.496 162.59 174.242 162.486C173.995 162.375 173.689 162.32 173.324 162.32C172.947 162.32 172.618 162.395 172.338 162.544C172.064 162.694 171.837 162.903 171.654 163.169C171.479 163.43 171.345 163.736 171.254 164.087C171.163 164.439 171.117 164.817 171.117 165.22ZM185.16 160.308V162.3H179.008V160.308H185.16ZM180.531 157.701H183.344V167.691C183.344 167.997 183.383 168.231 183.461 168.394C183.546 168.557 183.669 168.671 183.832 168.736C183.995 168.794 184.2 168.824 184.447 168.824C184.623 168.824 184.779 168.817 184.916 168.804C185.059 168.785 185.18 168.765 185.277 168.746L185.287 170.816C185.046 170.894 184.786 170.956 184.506 171.001C184.226 171.047 183.917 171.07 183.578 171.07C182.96 171.07 182.419 170.969 181.957 170.767C181.501 170.559 181.15 170.227 180.902 169.771C180.655 169.315 180.531 168.716 180.531 167.974V157.701Z" fill="white"/>
<rect opacity="0.8" x="8.75" y="8.75" width="207.5" height="248.5" rx="42.25" stroke="url(#paint0_linear_13407_99841)" stroke-width="3.5"/>
<defs>
<linearGradient id="paint0_linear_13407_99841" x1="112.5" y1="7" x2="112.5" y2="276" gradientUnits="userSpaceOnUse">
<stop stop-color="#438F68"/>
<stop offset="1" stop-color="#438F68" stop-opacity="0"/>
</linearGradient>
</defs>
</svg>
