<svg width="299" height="154" viewBox="0 0 299 154" fill="none" xmlns="http://www.w3.org/2000/svg">
<g filter="url(#filter0_d_13410_100349)">
<g clip-path="url(#clip0_13410_100349)">
<rect x="27" y="17" width="245" height="100" rx="12" fill="#1F213A"/>
<path opacity="0.2" d="M84.7831 55C89.2489 62.735 89.2489 72.265 84.7831 80L63.9669 116.055C59.5011 123.79 51.2479 128.555 42.3162 128.555L0.683752 128.555C-8.24789 128.555 -16.5011 123.79 -20.9669 116.055L-41.7831 80C-46.2489 72.265 -46.2489 62.735 -41.7831 55L-20.9669 18.9452C-16.5011 11.2102 -8.24788 6.44521 0.683757 6.44521L42.3162 6.44521C51.2479 6.44521 59.5011 11.2102 63.9669 18.9452L84.7831 55Z" fill="url(#paint0_linear_13410_100349)"/>
<path d="M117.016 44.125H121.258C122.128 44.125 122.875 44.2552 123.5 44.5156C124.13 44.776 124.615 45.1615 124.953 45.6719C125.292 46.1823 125.461 46.8099 125.461 47.5547C125.461 48.1641 125.357 48.6875 125.148 49.125C124.945 49.5573 124.656 49.9193 124.281 50.2109C123.911 50.4974 123.477 50.7266 122.977 50.8984L122.234 51.2891H118.547L118.531 49.4609H121.273C121.685 49.4609 122.026 49.388 122.297 49.2422C122.568 49.0964 122.771 48.8932 122.906 48.6328C123.047 48.3724 123.117 48.0703 123.117 47.7266C123.117 47.362 123.049 47.0469 122.914 46.7812C122.779 46.5156 122.573 46.3125 122.297 46.1719C122.021 46.0312 121.674 45.9609 121.258 45.9609H119.359V55.5H117.016V44.125ZM123.375 55.5L120.781 50.4297L123.258 50.4141L125.883 55.3906V55.5H123.375Z" fill="white"/>
<path d="M131.016 55.6562C130.359 55.6562 129.771 55.5521 129.25 55.3438C128.729 55.1302 128.286 54.8359 127.922 54.4609C127.562 54.0859 127.286 53.651 127.094 53.1562C126.901 52.6562 126.805 52.125 126.805 51.5625V51.25C126.805 50.6094 126.896 50.0234 127.078 49.4922C127.26 48.9609 127.521 48.5 127.859 48.1094C128.203 47.7188 128.62 47.4193 129.109 47.2109C129.599 46.9974 130.151 46.8906 130.766 46.8906C131.365 46.8906 131.896 46.9896 132.359 47.1875C132.823 47.3854 133.211 47.6667 133.523 48.0312C133.841 48.3958 134.081 48.8333 134.242 49.3438C134.404 49.849 134.484 50.4115 134.484 51.0312V51.9688H127.766V50.4688H132.273V50.2969C132.273 49.9844 132.216 49.7057 132.102 49.4609C131.992 49.2109 131.826 49.013 131.602 48.8672C131.378 48.7214 131.091 48.6484 130.742 48.6484C130.445 48.6484 130.19 48.7135 129.977 48.8438C129.763 48.974 129.589 49.1562 129.453 49.3906C129.323 49.625 129.224 49.901 129.156 50.2188C129.094 50.5312 129.062 50.875 129.062 51.25V51.5625C129.062 51.901 129.109 52.2135 129.203 52.5C129.302 52.7865 129.44 53.0339 129.617 53.2422C129.799 53.4505 130.018 53.612 130.273 53.7266C130.534 53.8411 130.828 53.8984 131.156 53.8984C131.562 53.8984 131.94 53.8203 132.289 53.6641C132.643 53.5026 132.948 53.2604 133.203 52.9375L134.297 54.125C134.12 54.3802 133.878 54.625 133.57 54.8594C133.268 55.0938 132.904 55.2865 132.477 55.4375C132.049 55.5833 131.562 55.6562 131.016 55.6562Z" fill="white"/>
<path d="M138.18 53.3125L139.938 47.0469H141.367L140.906 49.5078L139.148 55.5H137.953L138.18 53.3125ZM137.289 47.0469L138.547 53.3047L138.664 55.5H137.258L135.117 47.0469H137.289ZM142.977 53.2031L144.203 47.0469H146.383L144.242 55.5H142.844L142.977 53.2031ZM141.562 47.0469L143.312 53.2656L143.555 55.5H142.352L140.594 49.5156L140.148 47.0469H141.562Z" fill="white"/>
<path d="M152.078 53.5938V49.8281C152.078 49.5573 152.034 49.3255 151.945 49.1328C151.857 48.9349 151.719 48.7812 151.531 48.6719C151.349 48.5625 151.112 48.5078 150.82 48.5078C150.57 48.5078 150.354 48.5521 150.172 48.6406C149.99 48.724 149.849 48.8464 149.75 49.0078C149.651 49.1641 149.602 49.349 149.602 49.5625H147.352C147.352 49.2031 147.435 48.862 147.602 48.5391C147.768 48.2161 148.01 47.9323 148.328 47.6875C148.646 47.4375 149.023 47.2422 149.461 47.1016C149.904 46.9609 150.398 46.8906 150.945 46.8906C151.602 46.8906 152.185 47 152.695 47.2188C153.206 47.4375 153.607 47.7656 153.898 48.2031C154.195 48.6406 154.344 49.1875 154.344 49.8438V53.4609C154.344 53.9245 154.372 54.3047 154.43 54.6016C154.487 54.8932 154.57 55.1484 154.68 55.3672V55.5H152.406C152.297 55.2708 152.214 54.9844 152.156 54.6406C152.104 54.2917 152.078 53.9427 152.078 53.5938ZM152.375 50.3516L152.391 51.625H151.133C150.836 51.625 150.578 51.6589 150.359 51.7266C150.141 51.7943 149.961 51.8906 149.82 52.0156C149.68 52.1354 149.576 52.276 149.508 52.4375C149.445 52.599 149.414 52.776 149.414 52.9688C149.414 53.1615 149.458 53.3359 149.547 53.4922C149.635 53.6432 149.763 53.763 149.93 53.8516C150.096 53.9349 150.292 53.9766 150.516 53.9766C150.854 53.9766 151.148 53.9089 151.398 53.7734C151.648 53.638 151.841 53.4714 151.977 53.2734C152.117 53.0755 152.19 52.888 152.195 52.7109L152.789 53.6641C152.706 53.8776 152.591 54.099 152.445 54.3281C152.305 54.5573 152.125 54.7734 151.906 54.9766C151.688 55.1745 151.424 55.3385 151.117 55.4688C150.81 55.5938 150.445 55.6562 150.023 55.6562C149.487 55.6562 149 55.5495 148.562 55.3359C148.13 55.1172 147.786 54.8177 147.531 54.4375C147.281 54.0521 147.156 53.6146 147.156 53.125C147.156 52.6823 147.24 52.2891 147.406 51.9453C147.573 51.6016 147.818 51.3125 148.141 51.0781C148.469 50.8385 148.878 50.6589 149.367 50.5391C149.857 50.4141 150.424 50.3516 151.07 50.3516H152.375Z" fill="white"/>
<path d="M158.328 48.8906V55.5H156.078V47.0469H158.195L158.328 48.8906ZM160.875 46.9922L160.836 49.0781C160.727 49.0625 160.594 49.0495 160.438 49.0391C160.286 49.0234 160.148 49.0156 160.023 49.0156C159.706 49.0156 159.43 49.0573 159.195 49.1406C158.966 49.2188 158.773 49.3359 158.617 49.4922C158.466 49.6484 158.352 49.8385 158.273 50.0625C158.201 50.2865 158.159 50.5417 158.148 50.8281L157.695 50.6875C157.695 50.1406 157.75 49.638 157.859 49.1797C157.969 48.7161 158.128 48.3125 158.336 47.9688C158.549 47.625 158.81 47.3594 159.117 47.1719C159.424 46.9844 159.776 46.8906 160.172 46.8906C160.297 46.8906 160.424 46.901 160.555 46.9219C160.685 46.9375 160.792 46.9609 160.875 46.9922Z" fill="white"/>
<path d="M166.773 53.6562V43.5H169.039V55.5H167L166.773 53.6562ZM161.43 51.375V51.2109C161.43 50.5651 161.503 49.9792 161.648 49.4531C161.794 48.9219 162.008 48.4661 162.289 48.0859C162.57 47.7057 162.917 47.4115 163.328 47.2031C163.74 46.9948 164.208 46.8906 164.734 46.8906C165.229 46.8906 165.661 46.9948 166.031 47.2031C166.406 47.4115 166.724 47.7083 166.984 48.0938C167.25 48.474 167.464 48.9245 167.625 49.4453C167.786 49.9609 167.904 50.526 167.977 51.1406V51.5C167.904 52.0885 167.786 52.6354 167.625 53.1406C167.464 53.6458 167.25 54.0885 166.984 54.4688C166.724 54.8438 166.406 55.1354 166.031 55.3438C165.656 55.5521 165.219 55.6562 164.719 55.6562C164.193 55.6562 163.724 55.5495 163.312 55.3359C162.906 55.1224 162.562 54.8229 162.281 54.4375C162.005 54.0521 161.794 53.599 161.648 53.0781C161.503 52.5573 161.43 51.9896 161.43 51.375ZM163.68 51.2109V51.375C163.68 51.724 163.706 52.0495 163.758 52.3516C163.815 52.6536 163.906 52.9219 164.031 53.1562C164.161 53.3854 164.328 53.5651 164.531 53.6953C164.74 53.8203 164.992 53.8828 165.289 53.8828C165.674 53.8828 165.992 53.7969 166.242 53.625C166.492 53.4479 166.682 53.2057 166.812 52.8984C166.948 52.5911 167.026 52.237 167.047 51.8359V50.8125C167.031 50.4844 166.984 50.1901 166.906 49.9297C166.833 49.6641 166.724 49.4375 166.578 49.25C166.438 49.0625 166.26 48.9167 166.047 48.8125C165.839 48.7083 165.591 48.6562 165.305 48.6562C165.013 48.6562 164.763 48.724 164.555 48.8594C164.346 48.9896 164.177 49.1693 164.047 49.3984C163.922 49.6276 163.828 49.8984 163.766 50.2109C163.708 50.5182 163.68 50.8516 163.68 51.2109Z" fill="white"/>
<path d="M179.547 46.0703L176.453 55.5H173.961L178.188 44.125H179.773L179.547 46.0703ZM182.117 55.5L179.016 46.0703L178.766 44.125H180.367L184.617 55.5H182.117ZM181.977 51.2656V53.1016H175.969V51.2656H181.977Z" fill="white"/>
<path d="M189.023 53.8984C189.299 53.8984 189.544 53.8464 189.758 53.7422C189.971 53.6328 190.138 53.4818 190.258 53.2891C190.383 53.0911 190.448 52.8594 190.453 52.5938H192.57C192.565 53.1875 192.406 53.7161 192.094 54.1797C191.781 54.638 191.362 55 190.836 55.2656C190.31 55.526 189.721 55.6562 189.07 55.6562C188.414 55.6562 187.841 55.5469 187.352 55.3281C186.867 55.1094 186.464 54.8073 186.141 54.4219C185.818 54.0312 185.576 53.5781 185.414 53.0625C185.253 52.5417 185.172 51.9844 185.172 51.3906V51.1641C185.172 50.5651 185.253 50.0078 185.414 49.4922C185.576 48.9714 185.818 48.5182 186.141 48.1328C186.464 47.7422 186.867 47.4375 187.352 47.2188C187.836 47 188.404 46.8906 189.055 46.8906C189.747 46.8906 190.354 47.0234 190.875 47.2891C191.401 47.5547 191.812 47.9349 192.109 48.4297C192.411 48.9193 192.565 49.5 192.57 50.1719H190.453C190.448 49.8906 190.388 49.6354 190.273 49.4062C190.164 49.1771 190.003 48.9948 189.789 48.8594C189.581 48.7188 189.323 48.6484 189.016 48.6484C188.688 48.6484 188.419 48.7188 188.211 48.8594C188.003 48.9948 187.841 49.1823 187.727 49.4219C187.612 49.6562 187.531 49.9245 187.484 50.2266C187.443 50.5234 187.422 50.8359 187.422 51.1641V51.3906C187.422 51.7188 187.443 52.0339 187.484 52.3359C187.526 52.638 187.604 52.9062 187.719 53.1406C187.839 53.375 188.003 53.5599 188.211 53.6953C188.419 53.8307 188.69 53.8984 189.023 53.8984Z" fill="white"/>
<path d="M197.367 53.8984C197.643 53.8984 197.888 53.8464 198.102 53.7422C198.315 53.6328 198.482 53.4818 198.602 53.2891C198.727 53.0911 198.792 52.8594 198.797 52.5938H200.914C200.909 53.1875 200.75 53.7161 200.438 54.1797C200.125 54.638 199.706 55 199.18 55.2656C198.654 55.526 198.065 55.6562 197.414 55.6562C196.758 55.6562 196.185 55.5469 195.695 55.3281C195.211 55.1094 194.807 54.8073 194.484 54.4219C194.161 54.0312 193.919 53.5781 193.758 53.0625C193.596 52.5417 193.516 51.9844 193.516 51.3906V51.1641C193.516 50.5651 193.596 50.0078 193.758 49.4922C193.919 48.9714 194.161 48.5182 194.484 48.1328C194.807 47.7422 195.211 47.4375 195.695 47.2188C196.18 47 196.747 46.8906 197.398 46.8906C198.091 46.8906 198.698 47.0234 199.219 47.2891C199.745 47.5547 200.156 47.9349 200.453 48.4297C200.755 48.9193 200.909 49.5 200.914 50.1719H198.797C198.792 49.8906 198.732 49.6354 198.617 49.4062C198.508 49.1771 198.346 48.9948 198.133 48.8594C197.924 48.7188 197.667 48.6484 197.359 48.6484C197.031 48.6484 196.763 48.7188 196.555 48.8594C196.346 48.9948 196.185 49.1823 196.07 49.4219C195.956 49.6562 195.875 49.9245 195.828 50.2266C195.786 50.5234 195.766 50.8359 195.766 51.1641V51.3906C195.766 51.7188 195.786 52.0339 195.828 52.3359C195.87 52.638 195.948 52.9062 196.062 53.1406C196.182 53.375 196.346 53.5599 196.555 53.6953C196.763 53.8307 197.034 53.8984 197.367 53.8984Z" fill="white"/>
<path d="M201.859 51.3594V51.1953C201.859 50.5755 201.948 50.0052 202.125 49.4844C202.302 48.9583 202.56 48.5026 202.898 48.1172C203.237 47.7318 203.654 47.4323 204.148 47.2188C204.643 47 205.211 46.8906 205.852 46.8906C206.492 46.8906 207.062 47 207.562 47.2188C208.062 47.4323 208.482 47.7318 208.82 48.1172C209.164 48.5026 209.424 48.9583 209.602 49.4844C209.779 50.0052 209.867 50.5755 209.867 51.1953V51.3594C209.867 51.974 209.779 52.5443 209.602 53.0703C209.424 53.5911 209.164 54.0469 208.82 54.4375C208.482 54.8229 208.065 55.1224 207.57 55.3359C207.076 55.5495 206.508 55.6562 205.867 55.6562C205.227 55.6562 204.656 55.5495 204.156 55.3359C203.661 55.1224 203.242 54.8229 202.898 54.4375C202.56 54.0469 202.302 53.5911 202.125 53.0703C201.948 52.5443 201.859 51.974 201.859 51.3594ZM204.109 51.1953V51.3594C204.109 51.7135 204.141 52.0443 204.203 52.3516C204.266 52.6589 204.365 52.9297 204.5 53.1641C204.641 53.3932 204.823 53.5729 205.047 53.7031C205.271 53.8333 205.544 53.8984 205.867 53.8984C206.18 53.8984 206.448 53.8333 206.672 53.7031C206.896 53.5729 207.076 53.3932 207.211 53.1641C207.346 52.9297 207.445 52.6589 207.508 52.3516C207.576 52.0443 207.609 51.7135 207.609 51.3594V51.1953C207.609 50.8516 207.576 50.5286 207.508 50.2266C207.445 49.9193 207.344 49.6484 207.203 49.4141C207.068 49.1745 206.888 48.987 206.664 48.8516C206.44 48.7161 206.169 48.6484 205.852 48.6484C205.534 48.6484 205.263 48.7161 205.039 48.8516C204.82 48.987 204.641 49.1745 204.5 49.4141C204.365 49.6484 204.266 49.9193 204.203 50.2266C204.141 50.5286 204.109 50.8516 204.109 51.1953Z" fill="white"/>
<path d="M216.25 53.4766V47.0469H218.5V55.5H216.383L216.25 53.4766ZM216.5 51.7422L217.164 51.7266C217.164 52.2891 217.099 52.8125 216.969 53.2969C216.839 53.776 216.643 54.1927 216.383 54.5469C216.122 54.8958 215.794 55.1693 215.398 55.3672C215.003 55.5599 214.536 55.6562 214 55.6562C213.589 55.6562 213.208 55.599 212.859 55.4844C212.516 55.3646 212.219 55.1797 211.969 54.9297C211.724 54.6745 211.531 54.349 211.391 53.9531C211.255 53.5521 211.188 53.0703 211.188 52.5078V47.0469H213.438V52.5234C213.438 52.7734 213.466 52.9844 213.523 53.1562C213.586 53.3281 213.672 53.4688 213.781 53.5781C213.891 53.6875 214.018 53.7656 214.164 53.8125C214.315 53.8594 214.482 53.8828 214.664 53.8828C215.128 53.8828 215.492 53.7891 215.758 53.6016C216.029 53.4141 216.219 53.1589 216.328 52.8359C216.443 52.5078 216.5 52.1432 216.5 51.7422Z" fill="white"/>
<path d="M222.422 48.8516V55.5H220.172V47.0469H222.281L222.422 48.8516ZM222.094 50.9766H221.484C221.484 50.3516 221.565 49.7891 221.727 49.2891C221.888 48.7839 222.115 48.3542 222.406 48C222.698 47.6406 223.044 47.3672 223.445 47.1797C223.852 46.987 224.305 46.8906 224.805 46.8906C225.201 46.8906 225.562 46.9479 225.891 47.0625C226.219 47.1771 226.5 47.3594 226.734 47.6094C226.974 47.8594 227.156 48.1901 227.281 48.6016C227.411 49.013 227.477 49.5156 227.477 50.1094V55.5H225.211V50.1016C225.211 49.7266 225.159 49.4349 225.055 49.2266C224.951 49.0182 224.797 48.8724 224.594 48.7891C224.396 48.7005 224.151 48.6562 223.859 48.6562C223.557 48.6562 223.294 48.7161 223.07 48.8359C222.852 48.9557 222.669 49.1224 222.523 49.3359C222.383 49.5443 222.276 49.7891 222.203 50.0703C222.13 50.3516 222.094 50.6536 222.094 50.9766Z" fill="white"/>
<path d="M233.328 47.0469V48.6406H228.406V47.0469H233.328ZM229.625 44.9609H231.875V52.9531C231.875 53.1979 231.906 53.3854 231.969 53.5156C232.036 53.6458 232.135 53.737 232.266 53.7891C232.396 53.8359 232.56 53.8594 232.758 53.8594C232.898 53.8594 233.023 53.8542 233.133 53.8438C233.247 53.8281 233.344 53.8125 233.422 53.7969L233.43 55.4531C233.237 55.5156 233.029 55.5651 232.805 55.6016C232.581 55.638 232.333 55.6562 232.062 55.6562C231.568 55.6562 231.135 55.5755 230.766 55.4141C230.401 55.2474 230.12 54.9818 229.922 54.6172C229.724 54.2526 229.625 53.7734 229.625 53.1797V44.9609Z" fill="white"/>
<path d="M92.6331 44.2012L101.642 58.0339L101.789 58.1815L74.3208 92.0002L47 58.1815L47.2461 58.0339L56.1069 44.2012H92.6331Z" fill="#32A969"/>
<path d="M65.4074 57.9334L67.0692 60.1491L69.8388 67.3502L74.3208 92.0002L47 58.1815L47.2461 58.0339L56.1069 44.2012L65.4074 57.9334Z" fill="#66CA96"/>
<path d="M83.7693 58.0339L74.3178 92.0002L65.457 58.0339L74.3178 44.2012L83.7693 58.0339Z" fill="#32B873"/>
<path d="M101.74 58.1815L74.3203 92.0002L83.7718 58.0339L92.6326 44.2012L101.74 58.1815Z" fill="#00A652"/>
<path d="M47.2461 58.0339L56.1069 44.2012L65.46 58.0339H47.2461Z" fill="#CCEDDC"/>
<path d="M101.737 58.1815L83.7695 58.0339L92.6303 44.2012L101.737 58.1815Z" fill="#009544"/>
<path d="M83.7693 58.0339H65.457L74.3178 44.2012L83.7693 58.0339Z" fill="#66BF8F"/>
<path d="M55.9885 44.2015L74.3008 44.2015L65.44 58.0342L55.9885 44.2015Z" fill="#99DAB8"/>
<path d="M68.5977 55.0619L70.4567 54.4967C70.6085 54.459 70.6085 54.2706 70.4567 54.2329L68.5977 53.6677C68.5597 53.6677 68.5218 53.63 68.4838 53.5546L67.9527 51.7459C67.9147 51.5951 67.725 51.5951 67.6871 51.7459L67.118 53.5923C67.118 53.63 67.08 53.6677 67.0042 53.7053L65.1451 54.2706C64.9933 54.3083 64.9933 54.4967 65.1451 54.5344L67.0042 55.0996C67.0421 55.0996 67.08 55.1373 67.118 55.2126L67.6871 57.0591C67.725 57.2098 67.9147 57.2098 67.9527 57.0591L68.5218 55.2126C68.5218 55.0996 68.5597 55.0619 68.5977 55.0619Z" fill="white"/>
<path d="M54.3153 78.5378L55.9612 78.0478C56.0663 78.015 56.1045 77.8417 55.9653 77.839L54.3384 77.3546C54.3043 77.3191 54.2702 77.2836 54.2702 77.2836L53.7801 75.6377C53.7474 75.5326 53.574 75.4944 53.5713 75.6336L53.0869 77.2605C53.0514 77.2946 53.016 77.3287 53.016 77.3287L51.3701 77.8188C51.265 77.8515 51.2268 78.0249 51.366 78.0276L52.9928 78.512C53.027 78.5475 53.0611 78.5829 53.0611 78.5829L53.5511 80.2288C53.5839 80.3339 53.7572 80.3721 53.7599 80.2329L54.2443 78.6061C54.2798 78.5719 54.3153 78.5378 54.3153 78.5378Z" fill="white"/>
<path d="M92.4372 81.7539L93.7278 81.342C93.8102 81.3146 93.8377 81.1773 93.7278 81.1773L92.4372 80.8203C92.4098 80.7928 92.3823 80.7654 92.3823 80.7654L91.9704 79.4747C91.9429 79.3924 91.8056 79.3649 91.8056 79.4747L91.4486 80.7654C91.4212 80.7928 91.3937 80.8203 91.3937 80.8203L90.1031 81.2322C90.0207 81.2597 89.9933 81.397 90.1031 81.397L91.3937 81.7539C91.4212 81.7814 91.4486 81.8089 91.4486 81.8089L91.8606 83.0995C91.888 83.1819 92.0253 83.2093 92.0253 83.0995L92.3823 81.8089C92.4098 81.7814 92.4372 81.7539 92.4372 81.7539Z" fill="white"/>
<path d="M83.6446 45.1196L86.4013 44.2827C86.5982 44.2335 86.5982 43.9381 86.4013 43.8889L83.6446 43.0521C83.5954 43.0521 83.4969 43.0028 83.4969 42.9044L82.6601 40.1477C82.6108 39.9508 82.3155 39.9508 82.2663 40.1477L81.4294 42.9044C81.4294 42.9536 81.3802 43.0521 81.2817 43.0521L78.4758 43.8889C78.2789 43.9381 78.2789 44.2335 78.4758 44.2827L81.2325 45.1196C81.2817 45.1196 81.3802 45.1688 81.3802 45.2673L82.217 48.0239C82.2663 48.2208 82.5616 48.2208 82.6108 48.0239L83.4477 45.2673C83.4969 45.218 83.5461 45.1688 83.6446 45.1196Z" fill="white"/>
<path d="M83.4825 63.8918L85.6485 63.2519C85.7961 63.2027 85.7961 62.9565 85.6485 62.9565L83.4825 62.3166C83.4333 62.3166 83.384 62.2674 83.384 62.2181L82.7441 60.0522C82.6949 59.9045 82.4487 59.9045 82.4487 60.0522L81.8088 62.2181C81.8088 62.2674 81.7596 62.3166 81.7103 62.3166L79.5444 62.9565C79.3967 63.0058 79.3967 63.2519 79.5444 63.2519L81.7103 63.8918C81.7596 63.8918 81.8088 63.9411 81.8088 63.9903L82.4487 66.1563C82.498 66.3039 82.7441 66.3039 82.7441 66.1563L83.384 63.9903C83.384 63.9411 83.4333 63.8918 83.4825 63.8918Z" fill="white"/>
</g>
<rect x="26" y="16" width="247" height="102" rx="13" stroke="#438F68" stroke-width="2"/>
</g>
<defs>
<filter id="filter0_d_13410_100349" x="0" y="0" width="299" height="154" filterUnits="userSpaceOnUse" color-interpolation-filters="sRGB">
<feFlood flood-opacity="0" result="BackgroundImageFix"/>
<feColorMatrix in="SourceAlpha" type="matrix" values="0 0 0 0 0 0 0 0 0 0 0 0 0 0 0 0 0 0 127 0" result="hardAlpha"/>
<feOffset dy="10"/>
<feGaussianBlur stdDeviation="12.5"/>
<feComposite in2="hardAlpha" operator="out"/>
<feColorMatrix type="matrix" values="0 0 0 0 0 0 0 0 0 0 0 0 0 0 0 0 0 0 0.03 0"/>
<feBlend mode="normal" in2="BackgroundImageFix" result="effect1_dropShadow_13410_100349"/>
<feBlend mode="normal" in="SourceGraphic" in2="effect1_dropShadow_13410_100349" result="shape"/>
</filter>
<linearGradient id="paint0_linear_13410_100349" x1="92" y1="67.5" x2="-49" y2="67.5" gradientUnits="userSpaceOnUse">
<stop stop-color="#438F68"/>
<stop offset="0.591295" stop-color="#438F68" stop-opacity="0"/>
</linearGradient>
<clipPath id="clip0_13410_100349">
<rect x="27" y="17" width="245" height="100" rx="12" fill="white"/>
</clipPath>
</defs>
</svg>
