<svg width="225" height="266" viewBox="0 0 225 266" fill="none" xmlns="http://www.w3.org/2000/svg">
<g clip-path="url(#clip0_13002_103277)">
<rect width="225" height="266" rx="50" fill="#1F213A"/>
<path d="M146.828 54.5839L163.091 79.5558L163.357 79.8224L113.769 140.875L64.4473 79.8224L64.8916 79.5558L80.8878 54.5839H146.828Z" fill="#32A969"/>
<path d="M97.6777 79.3744L100.678 83.3744L105.678 96.3744L113.769 140.875L64.4473 79.8224L64.8916 79.5558L80.8878 54.5839L97.6777 79.3744Z" fill="#66CA96"/>
<path d="M130.83 79.5558L113.768 140.875L97.7715 79.5558L113.768 54.5839L130.83 79.5558Z" fill="#32B873"/>
<path d="M163.267 79.8224L113.768 140.875L130.83 79.5558L146.826 54.5839L163.267 79.8224Z" fill="#00A652"/>
<path d="M64.8926 79.5558L80.8888 54.5839L97.7737 79.5558H64.8926Z" fill="#CCEDDC"/>
<path d="M163.267 79.8224L130.83 79.5558L146.826 54.5839L163.267 79.8224Z" fill="#009544"/>
<path d="M130.83 79.5558H97.7715L113.768 54.5839L130.83 79.5558Z" fill="#66BF8F"/>
<path d="M80.6775 54.5837L113.736 54.5837L97.7401 79.5556L80.6775 54.5837Z" fill="#99DAB8"/>
<path d="M103.438 74.1905L106.795 73.1701C107.068 73.102 107.068 72.7619 106.795 72.6939L103.438 71.6735C103.37 71.6735 103.301 71.6054 103.233 71.4694L102.274 68.2041C102.205 67.932 101.863 67.932 101.795 68.2041L100.767 71.5374C100.767 71.6054 100.699 71.6735 100.562 71.7415L97.2055 72.7619C96.9315 72.8299 96.9315 73.1701 97.2055 73.2381L100.562 74.2585C100.63 74.2585 100.699 74.3265 100.767 74.4626L101.795 77.7959C101.863 78.068 102.205 78.068 102.274 77.7959L103.301 74.4626C103.301 74.2585 103.37 74.1905 103.438 74.1905Z" fill="white"/>
<path d="M77.6536 116.572L80.6249 115.687C80.8146 115.628 80.8836 115.315 80.6323 115.311L77.6954 114.436C77.6338 114.372 77.5722 114.308 77.5722 114.308L76.6875 111.337C76.6283 111.147 76.3154 111.078 76.3105 111.329L75.436 114.266C75.372 114.328 75.3079 114.389 75.3079 114.389L72.3366 115.274C72.1469 115.333 72.078 115.646 72.3293 115.651L75.2662 116.526C75.3278 116.59 75.3894 116.654 75.3894 116.654L76.2741 119.625C76.3332 119.815 76.6461 119.884 76.651 119.632L77.5255 116.695C77.5896 116.634 77.6536 116.572 77.6536 116.572Z" fill="white"/>
<path d="M146.477 122.378L148.807 121.635C148.956 121.585 149.006 121.337 148.807 121.337L146.477 120.693C146.428 120.643 146.378 120.594 146.378 120.594L145.635 118.264C145.585 118.115 145.337 118.065 145.337 118.264L144.693 120.594C144.643 120.643 144.594 120.693 144.594 120.693L142.264 121.436C142.115 121.486 142.065 121.734 142.264 121.734L144.594 122.378C144.643 122.428 144.693 122.477 144.693 122.477L145.436 124.807C145.486 124.956 145.734 125.006 145.734 124.807L146.378 122.477C146.428 122.428 146.477 122.378 146.477 122.378Z" fill="white"/>
<path d="M130.598 56.2423L135.574 54.7315C135.93 54.6426 135.93 54.1094 135.574 54.0206L130.598 52.5098C130.509 52.5098 130.331 52.4209 130.331 52.2432L128.82 47.2666C128.732 46.9111 128.198 46.9111 128.109 47.2666L126.599 52.2432C126.599 52.3321 126.51 52.5098 126.332 52.5098L121.267 54.0206C120.911 54.1094 120.911 54.6426 121.267 54.7315L126.243 56.2423C126.332 56.2423 126.51 56.3311 126.51 56.5089L128.021 61.4855C128.109 61.8409 128.643 61.8409 128.732 61.4855L130.242 56.5089C130.331 56.42 130.42 56.3311 130.598 56.2423Z" fill="white"/>
<path d="M130.309 90.1317L134.22 88.9764C134.486 88.8875 134.486 88.4432 134.22 88.4432L130.309 87.2879C130.221 87.2879 130.132 87.199 130.132 87.1101L128.976 83.2C128.888 82.9333 128.443 82.9333 128.443 83.2L127.288 87.1101C127.288 87.199 127.199 87.2879 127.11 87.2879L123.2 88.4432C122.933 88.532 122.933 88.9764 123.2 88.9764L127.11 90.1317C127.199 90.1317 127.288 90.2205 127.288 90.3094L128.443 94.2196C128.532 94.4862 128.976 94.4862 128.976 94.2196L130.132 90.3094C130.132 90.2205 130.221 90.1317 130.309 90.1317Z" fill="white"/>
<path d="M38.5 153.656H43.8027C44.89 153.656 45.8242 153.819 46.6055 154.144C47.3932 154.47 47.9987 154.951 48.4219 155.589C48.8451 156.227 49.0566 157.012 49.0566 157.943C49.0566 158.705 48.9264 159.359 48.666 159.906C48.4121 160.446 48.0508 160.899 47.582 161.263C47.1198 161.621 46.5762 161.908 45.9512 162.123L45.0234 162.611H40.4141L40.3945 160.326H43.8223C44.3366 160.326 44.763 160.235 45.1016 160.052C45.4401 159.87 45.694 159.616 45.8633 159.291C46.0391 158.965 46.127 158.588 46.127 158.158C46.127 157.702 46.0423 157.308 45.873 156.976C45.7038 156.644 45.4466 156.39 45.1016 156.214C44.7565 156.039 44.3236 155.951 43.8027 155.951H41.4297V167.875H38.5V153.656ZM46.4492 167.875L43.207 161.537L46.3027 161.517L49.584 167.738V167.875H46.4492Z" fill="white"/>
<path d="M56 168.07C55.1797 168.07 54.444 167.94 53.793 167.679C53.1419 167.412 52.5885 167.045 52.1328 166.576C51.6836 166.107 51.3385 165.563 51.0977 164.945C50.8568 164.32 50.7363 163.656 50.7363 162.953V162.562C50.7363 161.761 50.8503 161.029 51.0781 160.365C51.306 159.701 51.6315 159.125 52.0547 158.636C52.4844 158.148 53.0052 157.774 53.6172 157.513C54.2292 157.246 54.9193 157.113 55.6875 157.113C56.4362 157.113 57.1003 157.237 57.6797 157.484C58.2591 157.731 58.7441 158.083 59.1348 158.539C59.5319 158.994 59.8314 159.541 60.0332 160.179C60.235 160.811 60.3359 161.514 60.3359 162.289V163.461H51.9375V161.586H57.5723V161.371C57.5723 160.98 57.5007 160.632 57.3574 160.326C57.2207 160.013 57.0124 159.766 56.7324 159.584C56.4525 159.401 56.0944 159.31 55.6582 159.31C55.2871 159.31 54.9681 159.392 54.7012 159.554C54.4342 159.717 54.2161 159.945 54.0469 160.238C53.8841 160.531 53.7604 160.876 53.6758 161.273C53.5977 161.664 53.5586 162.093 53.5586 162.562V162.953C53.5586 163.376 53.6172 163.767 53.7344 164.125C53.8581 164.483 54.0306 164.792 54.252 165.052C54.4798 165.313 54.7533 165.515 55.0723 165.658C55.3978 165.801 55.7656 165.873 56.1758 165.873C56.6836 165.873 57.1556 165.775 57.5918 165.58C58.0345 165.378 58.4154 165.075 58.7344 164.672L60.1016 166.156C59.8802 166.475 59.5775 166.781 59.1934 167.074C58.8158 167.367 58.36 167.608 57.8262 167.797C57.2923 167.979 56.6836 168.07 56 168.07Z" fill="white"/>
<path d="M64.9551 165.14L67.1523 157.308H68.9395L68.3633 160.384L66.166 167.875H64.6719L64.9551 165.14ZM63.8418 157.308L65.4141 165.13L65.5605 167.875H63.8027L61.127 157.308H63.8418ZM70.9512 165.004L72.4844 157.308H75.209L72.5332 167.875H70.7852L70.9512 165.004ZM69.1836 157.308L71.3711 165.082L71.6738 167.875H70.1699L67.9727 160.394L67.416 157.308H69.1836Z" fill="white"/>
<path d="M82.3281 165.492V160.785C82.3281 160.446 82.2728 160.157 82.1621 159.916C82.0514 159.668 81.8789 159.476 81.6445 159.339C81.4167 159.203 81.1204 159.134 80.7559 159.134C80.4434 159.134 80.1732 159.19 79.9453 159.3C79.7174 159.405 79.5417 159.558 79.418 159.759C79.2943 159.955 79.2324 160.186 79.2324 160.453H76.4199C76.4199 160.004 76.5241 159.577 76.7324 159.173C76.9408 158.77 77.2435 158.415 77.6406 158.109C78.0378 157.797 78.5098 157.552 79.0566 157.377C79.61 157.201 80.2285 157.113 80.9121 157.113C81.7324 157.113 82.4616 157.25 83.0996 157.523C83.7376 157.797 84.2389 158.207 84.6035 158.754C84.9746 159.3 85.1602 159.984 85.1602 160.804V165.326C85.1602 165.905 85.196 166.38 85.2676 166.752C85.3392 167.116 85.4434 167.435 85.5801 167.709V167.875H82.7383C82.6016 167.588 82.4974 167.23 82.4258 166.8C82.3607 166.364 82.3281 165.928 82.3281 165.492ZM82.6992 161.439L82.7188 163.031H81.1465C80.7754 163.031 80.4531 163.073 80.1797 163.158C79.9062 163.242 79.6816 163.363 79.5059 163.519C79.3301 163.669 79.1999 163.845 79.1152 164.047C79.0371 164.248 78.998 164.47 78.998 164.711C78.998 164.951 79.0534 165.17 79.1641 165.365C79.2747 165.554 79.4342 165.703 79.6426 165.814C79.8509 165.918 80.0951 165.97 80.375 165.97C80.7982 165.97 81.166 165.886 81.4785 165.716C81.791 165.547 82.0319 165.339 82.2012 165.091C82.377 164.844 82.4681 164.61 82.4746 164.388L83.2168 165.58C83.1126 165.847 82.9694 166.123 82.7871 166.41C82.6113 166.696 82.3867 166.966 82.1133 167.22C81.8398 167.468 81.5111 167.673 81.127 167.836C80.7428 167.992 80.2871 168.07 79.7598 168.07C79.0892 168.07 78.4805 167.936 77.9336 167.67C77.3932 167.396 76.9635 167.022 76.6445 166.547C76.332 166.065 76.1758 165.518 76.1758 164.906C76.1758 164.352 76.2799 163.861 76.4883 163.431C76.6966 163.002 77.0026 162.64 77.4062 162.347C77.8164 162.048 78.3275 161.823 78.9395 161.673C79.5514 161.517 80.2611 161.439 81.0684 161.439H82.6992Z" fill="white"/>
<path d="M90.1406 159.613V167.875H87.3281V157.308H89.9746L90.1406 159.613ZM93.3242 157.24L93.2754 159.847C93.1387 159.828 92.9727 159.811 92.7773 159.798C92.5885 159.779 92.416 159.769 92.2598 159.769C91.8626 159.769 91.5176 159.821 91.2246 159.925C90.9382 160.023 90.6973 160.17 90.502 160.365C90.3132 160.56 90.1699 160.798 90.0723 161.078C89.9811 161.358 89.929 161.677 89.916 162.035L89.3496 161.859C89.3496 161.175 89.418 160.547 89.5547 159.974C89.6914 159.395 89.89 158.89 90.1504 158.461C90.4173 158.031 90.7428 157.699 91.127 157.464C91.5111 157.23 91.9505 157.113 92.4453 157.113C92.6016 157.113 92.7611 157.126 92.9238 157.152C93.0866 157.172 93.2201 157.201 93.3242 157.24Z" fill="white"/>
<path d="M100.697 165.57V152.875H103.529V167.875H100.98L100.697 165.57ZM94.0176 162.718V162.513C94.0176 161.706 94.1087 160.974 94.291 160.316C94.4733 159.652 94.7402 159.082 95.0918 158.607C95.4434 158.132 95.8763 157.764 96.3906 157.504C96.9049 157.243 97.4909 157.113 98.1484 157.113C98.7669 157.113 99.3073 157.243 99.7695 157.504C100.238 157.764 100.635 158.135 100.961 158.617C101.293 159.092 101.56 159.655 101.762 160.306C101.964 160.951 102.11 161.657 102.201 162.425V162.875C102.11 163.61 101.964 164.294 101.762 164.925C101.56 165.557 101.293 166.11 100.961 166.586C100.635 167.054 100.238 167.419 99.7695 167.679C99.3008 167.94 98.7539 168.07 98.1289 168.07C97.4714 168.07 96.8854 167.936 96.3711 167.67C95.8633 167.403 95.4336 167.028 95.082 166.547C94.737 166.065 94.4733 165.498 94.291 164.847C94.1087 164.196 94.0176 163.487 94.0176 162.718ZM96.8301 162.513V162.718C96.8301 163.155 96.8626 163.561 96.9277 163.939C96.9993 164.317 97.1133 164.652 97.2695 164.945C97.4323 165.231 97.6406 165.456 97.8945 165.619C98.1549 165.775 98.4707 165.853 98.8418 165.853C99.3236 165.853 99.7207 165.746 100.033 165.531C100.346 165.31 100.583 165.007 100.746 164.623C100.915 164.239 101.013 163.796 101.039 163.295V162.015C101.02 161.605 100.961 161.237 100.863 160.912C100.772 160.58 100.635 160.297 100.453 160.062C100.277 159.828 100.056 159.645 99.7891 159.515C99.5286 159.385 99.2194 159.32 98.8613 159.32C98.4967 159.32 98.1842 159.405 97.9238 159.574C97.6634 159.737 97.4518 159.961 97.2891 160.248C97.1328 160.534 97.0156 160.873 96.9375 161.263C96.8659 161.647 96.8301 162.064 96.8301 162.513Z" fill="white"/>
<path d="M116.664 156.088L112.797 167.875H109.682L114.965 153.656H116.947L116.664 156.088ZM119.877 167.875L116 156.088L115.688 153.656H117.689L123.002 167.875H119.877ZM119.701 162.582V164.877H112.191V162.582H119.701Z" fill="white"/>
<path d="M128.51 165.873C128.855 165.873 129.161 165.808 129.428 165.677C129.695 165.541 129.903 165.352 130.053 165.111C130.209 164.864 130.29 164.574 130.297 164.242H132.943C132.937 164.984 132.738 165.645 132.348 166.224C131.957 166.797 131.433 167.25 130.775 167.582C130.118 167.907 129.382 168.07 128.568 168.07C127.748 168.07 127.032 167.933 126.42 167.66C125.814 167.386 125.31 167.009 124.906 166.527C124.503 166.039 124.2 165.472 123.998 164.828C123.796 164.177 123.695 163.48 123.695 162.738V162.455C123.695 161.706 123.796 161.009 123.998 160.365C124.2 159.714 124.503 159.147 124.906 158.666C125.31 158.177 125.814 157.797 126.42 157.523C127.025 157.25 127.735 157.113 128.549 157.113C129.415 157.113 130.173 157.279 130.824 157.611C131.482 157.943 131.996 158.418 132.367 159.037C132.745 159.649 132.937 160.375 132.943 161.214H130.297C130.29 160.863 130.215 160.544 130.072 160.257C129.936 159.971 129.734 159.743 129.467 159.574C129.206 159.398 128.884 159.31 128.5 159.31C128.09 159.31 127.755 159.398 127.494 159.574C127.234 159.743 127.032 159.977 126.889 160.277C126.745 160.57 126.645 160.905 126.586 161.283C126.534 161.654 126.508 162.045 126.508 162.455V162.738C126.508 163.148 126.534 163.542 126.586 163.92C126.638 164.297 126.736 164.632 126.879 164.925C127.029 165.218 127.234 165.45 127.494 165.619C127.755 165.788 128.093 165.873 128.51 165.873Z" fill="white"/>
<path d="M138.939 165.873C139.285 165.873 139.59 165.808 139.857 165.677C140.124 165.541 140.333 165.352 140.482 165.111C140.639 164.864 140.72 164.574 140.727 164.242H143.373C143.367 164.984 143.168 165.645 142.777 166.224C142.387 166.797 141.863 167.25 141.205 167.582C140.548 167.907 139.812 168.07 138.998 168.07C138.178 168.07 137.462 167.933 136.85 167.66C136.244 167.386 135.74 167.009 135.336 166.527C134.932 166.039 134.63 165.472 134.428 164.828C134.226 164.177 134.125 163.48 134.125 162.738V162.455C134.125 161.706 134.226 161.009 134.428 160.365C134.63 159.714 134.932 159.147 135.336 158.666C135.74 158.177 136.244 157.797 136.85 157.523C137.455 157.25 138.165 157.113 138.979 157.113C139.844 157.113 140.603 157.279 141.254 157.611C141.911 157.943 142.426 158.418 142.797 159.037C143.174 159.649 143.367 160.375 143.373 161.214H140.727C140.72 160.863 140.645 160.544 140.502 160.257C140.365 159.971 140.163 159.743 139.896 159.574C139.636 159.398 139.314 159.31 138.93 159.31C138.52 159.31 138.184 159.398 137.924 159.574C137.663 159.743 137.462 159.977 137.318 160.277C137.175 160.57 137.074 160.905 137.016 161.283C136.964 161.654 136.938 162.045 136.938 162.455V162.738C136.938 163.148 136.964 163.542 137.016 163.92C137.068 164.297 137.165 164.632 137.309 164.925C137.458 165.218 137.663 165.45 137.924 165.619C138.184 165.788 138.523 165.873 138.939 165.873Z" fill="white"/>
<path d="M144.555 162.699V162.494C144.555 161.719 144.665 161.006 144.887 160.355C145.108 159.698 145.43 159.128 145.854 158.646C146.277 158.164 146.798 157.79 147.416 157.523C148.035 157.25 148.744 157.113 149.545 157.113C150.346 157.113 151.059 157.25 151.684 157.523C152.309 157.79 152.833 158.164 153.256 158.646C153.686 159.128 154.011 159.698 154.232 160.355C154.454 161.006 154.564 161.719 154.564 162.494V162.699C154.564 163.467 154.454 164.18 154.232 164.838C154.011 165.489 153.686 166.058 153.256 166.547C152.833 167.028 152.312 167.403 151.693 167.67C151.075 167.936 150.365 168.07 149.564 168.07C148.764 168.07 148.051 167.936 147.426 167.67C146.807 167.403 146.283 167.028 145.854 166.547C145.43 166.058 145.108 165.489 144.887 164.838C144.665 164.18 144.555 163.467 144.555 162.699ZM147.367 162.494V162.699C147.367 163.142 147.406 163.555 147.484 163.939C147.562 164.323 147.686 164.662 147.855 164.955C148.031 165.241 148.259 165.466 148.539 165.629C148.819 165.791 149.161 165.873 149.564 165.873C149.955 165.873 150.29 165.791 150.57 165.629C150.85 165.466 151.075 165.241 151.244 164.955C151.413 164.662 151.537 164.323 151.615 163.939C151.7 163.555 151.742 163.142 151.742 162.699V162.494C151.742 162.064 151.7 161.66 151.615 161.283C151.537 160.899 151.41 160.56 151.234 160.267C151.065 159.968 150.84 159.733 150.561 159.564C150.281 159.395 149.942 159.31 149.545 159.31C149.148 159.31 148.809 159.395 148.529 159.564C148.256 159.733 148.031 159.968 147.855 160.267C147.686 160.56 147.562 160.899 147.484 161.283C147.406 161.66 147.367 162.064 147.367 162.494Z" fill="white"/>
<path d="M162.543 165.345V157.308H165.355V167.875H162.709L162.543 165.345ZM162.855 163.177L163.686 163.158C163.686 163.861 163.604 164.515 163.441 165.121C163.279 165.72 163.035 166.241 162.709 166.683C162.383 167.119 161.973 167.461 161.479 167.709C160.984 167.95 160.401 168.07 159.73 168.07C159.216 168.07 158.741 167.998 158.305 167.855C157.875 167.705 157.504 167.474 157.191 167.162C156.885 166.843 156.645 166.436 156.469 165.941C156.299 165.44 156.215 164.838 156.215 164.134V157.308H159.027V164.154C159.027 164.466 159.063 164.73 159.135 164.945C159.213 165.16 159.32 165.336 159.457 165.472C159.594 165.609 159.753 165.707 159.936 165.765C160.124 165.824 160.333 165.853 160.561 165.853C161.14 165.853 161.596 165.736 161.928 165.502C162.266 165.267 162.504 164.948 162.641 164.545C162.784 164.134 162.855 163.679 162.855 163.177Z" fill="white"/>
<path d="M170.258 159.564V167.875H167.445V157.308H170.082L170.258 159.564ZM169.848 162.22H169.086C169.086 161.439 169.187 160.736 169.389 160.111C169.59 159.479 169.874 158.942 170.238 158.5C170.603 158.05 171.036 157.709 171.537 157.474C172.045 157.233 172.611 157.113 173.236 157.113C173.731 157.113 174.184 157.185 174.594 157.328C175.004 157.471 175.355 157.699 175.648 158.011C175.948 158.324 176.176 158.737 176.332 159.252C176.495 159.766 176.576 160.394 176.576 161.136V167.875H173.744V161.127C173.744 160.658 173.679 160.293 173.549 160.033C173.419 159.772 173.227 159.59 172.973 159.486C172.725 159.375 172.419 159.32 172.055 159.32C171.677 159.32 171.348 159.395 171.068 159.545C170.795 159.694 170.567 159.903 170.385 160.17C170.209 160.43 170.076 160.736 169.984 161.088C169.893 161.439 169.848 161.817 169.848 162.22Z" fill="white"/>
<path d="M183.891 157.308V159.3H177.738V157.308H183.891ZM179.262 154.701H182.074V164.691C182.074 164.997 182.113 165.231 182.191 165.394C182.276 165.557 182.4 165.671 182.562 165.736C182.725 165.795 182.93 165.824 183.178 165.824C183.354 165.824 183.51 165.817 183.646 165.804C183.79 165.785 183.91 165.765 184.008 165.746L184.018 167.816C183.777 167.894 183.516 167.956 183.236 168.002C182.956 168.047 182.647 168.07 182.309 168.07C181.69 168.07 181.15 167.969 180.688 167.767C180.232 167.559 179.88 167.227 179.633 166.771C179.385 166.315 179.262 165.716 179.262 164.974V154.701Z" fill="white"/>
<path opacity="0.8" fill-rule="evenodd" clip-rule="evenodd" d="M174 10.5H51C28.6325 10.5 10.5 28.6325 10.5 51V215C10.5 237.368 28.6325 255.5 51 255.5H174C196.368 255.5 214.5 237.368 214.5 215V51C214.5 28.6325 196.368 10.5 174 10.5ZM51 7C26.6995 7 7 26.6995 7 51V215C7 239.301 26.6995 259 51 259H174C198.301 259 218 239.301 218 215V51C218 26.6995 198.301 7 174 7H51Z" fill="url(#paint0_linear_13002_103277)"/>
</g>
<defs>
<linearGradient id="paint0_linear_13002_103277" x1="112.5" y1="7" x2="112.5" y2="276" gradientUnits="userSpaceOnUse">
<stop stop-color="#438F68"/>
<stop offset="1" stop-color="#438F68" stop-opacity="0"/>
</linearGradient>
<clipPath id="clip0_13002_103277">
<rect width="225" height="266" rx="50" fill="white"/>
</clipPath>
</defs>
</svg>
