<svg width="29" height="29" viewBox="0 0 29 29" xmlns="http://www.w3.org/2000/svg">
<path d="M29 14.5C29 6.49187 22.5081 0 14.5 0C6.49187 0 0 6.49187 0 14.5C0 22.5081 6.49187 29 14.5 29C22.5081 29 29 22.5081 29 14.5Z" fill-opacity="0.1"/>
<path d="M8.4337 22C8.0415 22 7.7045 21.859 7.4227 21.577C7.1409 21.296 7 20.959 7 20.566V12.064C7 11.668 7.1409 11.329 7.4227 11.045C7.7045 10.762 8.0415 10.62 8.4337 10.62H12.3751V8.35199C12.3751 7.99399 12.5087 7.679 12.776 7.407C13.0432 7.136 13.3568 7 13.7167 7H15.2912C15.6492 7 15.964 7.136 16.2356 7.407C16.5072 7.679 16.6431 7.99399 16.6431 8.35199V10.62H20.5561C20.9511 10.62 21.2905 10.762 21.5743 11.045C21.8581 11.329 22 11.668 22 12.064V20.566C22 20.959 21.8581 21.296 21.5743 21.577C21.2905 21.859 20.9511 22 20.5561 22H8.4337ZM8.4337 20.566H20.5561V12.064H16.6431C16.6226 12.408 16.4933 12.675 16.255 12.865C16.0167 13.055 15.7233 13.149 15.3746 13.149H13.6152C13.2786 13.149 12.9912 13.055 12.7529 12.865C12.5147 12.675 12.3887 12.408 12.3751 12.064H8.4337V20.566ZM10.0066 18.814H14.332V18.561C14.332 18.343 14.2777 18.15 14.1691 17.982C14.0606 17.813 13.9218 17.698 13.7529 17.638C13.3668 17.505 13.0652 17.417 12.848 17.375C12.6308 17.333 12.4197 17.312 12.2146 17.312C11.9853 17.312 11.741 17.339 11.4816 17.393C11.2222 17.448 10.9296 17.529 10.6039 17.638C10.4229 17.698 10.2781 17.813 10.1695 17.982C10.0609 18.15 10.0066 18.343 10.0066 18.561V18.814ZM16.0875 17.601H19.1642V16.697H16.0875V17.601ZM12.2146 16.697C12.486 16.697 12.7168 16.602 12.9068 16.412C13.0969 16.221 13.1919 15.991 13.1919 15.719C13.1919 15.448 13.0969 15.217 12.9068 15.027C12.7168 14.837 12.486 14.742 12.2146 14.742C11.9431 14.742 11.7124 14.837 11.5223 15.027C11.3323 15.217 11.2373 15.448 11.2373 15.719C11.2373 15.991 11.3323 16.221 11.5223 16.412C11.7124 16.602 11.9431 16.697 12.2146 16.697ZM16.0875 15.556H19.1642V14.652H16.0875V15.556ZM13.8088 11.705H15.1992V8.444H13.8088V11.705Z" />
</svg>
