<svg width="29" height="29" viewBox="0 0 29 29"  xmlns="http://www.w3.org/2000/svg">
<path d="M29 14.5C29 6.49187 22.5081 0 14.5 0C6.49187 0 0 6.49187 0 14.5C0 22.5081 6.49187 29 14.5 29C22.5081 29 29 22.5081 29 14.5Z" fill-opacity="0.1"/>
<path d="M21.3777 10.6246L20.3717 9.62657L21.3777 8.62756C21.5107 8.49456 21.5857 8.31357 21.5857 8.12457C21.5857 7.93557 21.5107 7.75457 21.3777 7.62157C21.2437 7.48857 21.0637 7.41357 20.8747 7.41357C20.6857 7.41357 20.5047 7.48857 20.3717 7.62157L12.9057 15.0876C12.1737 14.6046 11.2877 14.4106 10.4207 14.5426C9.55271 14.6756 8.76571 15.1246 8.21071 15.8046C7.65671 16.4846 7.37371 17.3466 7.41871 18.2226C7.46271 19.0986 7.83071 19.9276 8.45071 20.5486C9.07171 21.1686 9.90071 21.5366 10.7767 21.5806C11.6527 21.6256 12.5147 21.3426 13.1947 20.7876C13.8737 20.2336 14.3237 19.4466 14.4567 18.5786C14.5887 17.7116 14.3947 16.8256 13.9117 16.0936L17.3687 12.6296L18.3667 13.6356C18.4337 13.7016 18.5117 13.7526 18.5977 13.7886C18.6847 13.8236 18.7767 13.8416 18.8697 13.8406C18.9637 13.8416 19.0557 13.8236 19.1417 13.7886C19.2287 13.7526 19.3067 13.7016 19.3727 13.6356C19.4397 13.5696 19.4917 13.4916 19.5277 13.4046C19.5637 13.3186 19.5827 13.2256 19.5827 13.1326C19.5827 13.0386 19.5637 12.9466 19.5277 12.8606C19.4917 12.7736 19.4397 12.6956 19.3727 12.6296L18.3667 11.6666L19.3727 10.6606L20.3717 11.6666C20.4377 11.7316 20.5167 11.7836 20.6027 11.8196C20.6887 11.8546 20.7817 11.8726 20.8747 11.8716C20.9677 11.8726 21.0607 11.8546 21.1467 11.8196C21.2327 11.7836 21.3117 11.7316 21.3777 11.6666C21.4497 11.5996 21.5067 11.5196 21.5457 11.4296C21.5857 11.3406 21.6057 11.2436 21.6057 11.1456C21.6057 11.0476 21.5857 10.9506 21.5457 10.8616C21.5067 10.7716 21.4497 10.6916 21.3777 10.6246ZM10.9577 20.1666C10.5377 20.1666 10.1267 20.0416 9.77771 19.8086C9.42771 19.5746 9.15572 19.2426 8.99472 18.8546C8.83372 18.4666 8.79171 18.0386 8.87371 17.6266C8.95571 17.2146 9.15771 16.8356 9.45571 16.5386C9.75271 16.2416 10.1307 16.0396 10.5437 15.9576C10.9557 15.8756 11.3827 15.9176 11.7707 16.0776C12.1597 16.2386 12.4917 16.5116 12.7247 16.8606C12.9587 17.2106 13.0827 17.6206 13.0827 18.0416C13.0827 18.6046 12.8587 19.1456 12.4607 19.5436C12.0617 19.9426 11.5217 20.1666 10.9577 20.1666Z" />
</svg>
