<svg width="29" height="29" viewBox="0 0 29 29"  xmlns="http://www.w3.org/2000/svg">
<rect width="29" height="29" rx="14.5"  fill-opacity="0.15"/>
<path d="M16.6263 13.7917H15.2096V10.9584C15.2096 10.7706 15.135 10.5904 15.0022 10.4575C14.8693 10.3247 14.6892 10.2501 14.5013 10.2501C14.3134 10.2501 14.1333 10.3247 14.0004 10.4575C13.8676 10.5904 13.793 10.7706 13.793 10.9584V14.5001C13.793 14.6879 13.8676 14.8681 14.0004 15.0009C14.1333 15.1338 14.3134 15.2084 14.5013 15.2084H16.6263C16.8142 15.2084 16.9943 15.1338 17.1272 15.0009C17.26 14.8681 17.3346 14.6879 17.3346 14.5001C17.3346 14.3122 17.26 14.1321 17.1272 13.9992C16.9943 13.8664 16.8142 13.7917 16.6263 13.7917ZM14.5013 7.41675C13.1004 7.41675 11.7309 7.83218 10.566 8.6105C9.40117 9.38883 8.49328 10.4951 7.95716 11.7894C7.42104 13.0837 7.28076 14.5079 7.55408 15.882C7.82739 17.256 8.50201 18.5181 9.49263 19.5088C10.4833 20.4994 11.7454 21.174 13.1194 21.4473C14.4934 21.7206 15.9177 21.5803 17.212 21.0442C18.5063 20.5081 19.6126 19.6002 20.3909 18.4354C21.1692 17.2705 21.5846 15.901 21.5846 14.5001C21.5846 13.5699 21.4014 12.6488 21.0455 11.7894C20.6895 10.93 20.1677 10.1492 19.51 9.49141C18.8522 8.83366 18.0714 8.31191 17.212 7.95593C16.3526 7.59996 15.4315 7.41675 14.5013 7.41675ZM14.5013 20.1667C13.3805 20.1667 12.285 19.8344 11.3531 19.2117C10.4212 18.5891 9.69488 17.7041 9.26599 16.6686C8.83709 15.6332 8.72487 14.4938 8.94352 13.3946C9.16217 12.2953 9.70187 11.2856 10.4944 10.4931C11.2869 9.70064 12.2966 9.16095 13.3958 8.9423C14.495 8.72365 15.6344 8.83587 16.6698 9.26476C17.7053 9.69366 18.5903 10.42 19.213 11.3518C19.8356 12.2837 20.168 13.3793 20.168 14.5001C20.168 16.003 19.5709 17.4443 18.5082 18.507C17.4455 19.5697 16.0042 20.1667 14.5013 20.1667Z"/>
</svg>
