<svg width="20" height="20" viewBox="0 0 20 20" fill="none" xmlns="http://www.w3.org/2000/svg">
<path d="M18.0915 7.74174L14.7581 4.40841C14.6804 4.33071 14.5882 4.26907 14.4867 4.22702C14.3851 4.18497 14.2763 4.16333 14.1665 4.16333C13.9445 4.16333 13.7317 4.25149 13.5748 4.40841C13.4179 4.56533 13.3297 4.77816 13.3297 5.00007C13.3297 5.22199 13.4179 5.43482 13.5748 5.59174L15.4915 7.50007H5.83312C5.61211 7.50007 5.40015 7.58787 5.24387 7.74415C5.08759 7.90043 4.99979 8.11239 4.99979 8.33341C4.99979 8.55442 5.08759 8.76638 5.24387 8.92266C5.40015 9.07894 5.61211 9.16674 5.83312 9.16674H17.4998C17.6643 9.16592 17.8249 9.11642 17.9613 9.02447C18.0978 8.93253 18.2039 8.80226 18.2665 8.65007C18.3303 8.49831 18.3477 8.33105 18.3166 8.1694C18.2854 8.00774 18.2071 7.85893 18.0915 7.74174ZM14.1665 10.8334H2.49979C2.33527 10.8342 2.17467 10.8837 2.03824 10.9757C1.90181 11.0676 1.79564 11.1979 1.73312 11.3501C1.66931 11.5018 1.65187 11.6691 1.68302 11.8308C1.71416 11.9924 1.79249 12.1412 1.90812 12.2584L5.24146 15.5917C5.31893 15.6698 5.41109 15.7318 5.51264 15.7741C5.61419 15.8165 5.72311 15.8382 5.83312 15.8382C5.94313 15.8382 6.05206 15.8165 6.1536 15.7741C6.25515 15.7318 6.34732 15.6698 6.42479 15.5917C6.5029 15.5143 6.56489 15.4221 6.6072 15.3206C6.64951 15.219 6.67129 15.1101 6.67129 15.0001C6.67129 14.8901 6.64951 14.7811 6.6072 14.6796C6.56489 14.578 6.5029 14.4859 6.42479 14.4084L4.50812 12.5001H14.1665C14.3875 12.5001 14.5994 12.4123 14.7557 12.256C14.912 12.0997 14.9998 11.8878 14.9998 11.6667C14.9998 11.4457 14.912 11.2338 14.7557 11.0775C14.5994 10.9212 14.3875 10.8334 14.1665 10.8334Z"/>
</svg>
