<svg width="29" height="30" viewBox="0 0 29 30" fill="none" xmlns="http://www.w3.org/2000/svg">
<rect y="0.5" width="29" height="29" rx="14.5" fill="#F6F9FF" />
<path d="M8.65625 10.75V19.25C8.65625 19.5318 8.76819 19.802 8.96745 20.0013C9.16671 20.2006 9.43696 20.3125 9.71875 20.3125H20.3438C20.4846 20.3125 20.6198 20.2565 20.7194 20.1569C20.819 20.0573 20.875 19.9221 20.875 19.7812V12.3438C20.875 12.2029 20.819 12.0677 20.7194 11.9681C20.6198 11.8685 20.4846 11.8125 20.3438 11.8125H9.71875C9.43696 11.8125 9.16671 11.7006 8.96745 11.5013C8.76819 11.302 8.65625 11.0318 8.65625 10.75ZM8.65625 10.75C8.65625 10.4682 8.76819 10.198 8.96745 9.9987C9.16671 9.79944 9.43696 9.6875 9.71875 9.6875H18.2188" stroke="#0033AD" stroke-width="1.2" stroke-linecap="round" stroke-linejoin="round"/>
<path d="M17.75 16.0625C17.75 15.9503 17.8409 15.8594 17.9531 15.8594C18.0653 15.8594 18.1562 15.9503 18.1562 16.0625C18.1562 16.1747 18.0653 16.2656 17.9531 16.2656C17.8409 16.2656 17.75 16.1747 17.75 16.0625Z" fill="#0033AD" stroke="#0033AD" stroke-width="2"/>
</svg>
