<svg width="30" height="30" viewBox="0 0 30 30" fill="none" xmlns="http://www.w3.org/2000/svg">
<rect x="0.5" y="0.874512" width="29" height="29" rx="14.5" fill="white" fill-opacity="0.1"/>
<path d="M9.15625 11.1245V19.6245C9.15625 19.9063 9.26819 20.1766 9.46745 20.3758C9.66671 20.5751 9.93696 20.687 10.2188 20.687H20.8438C20.9846 20.687 21.1198 20.631 21.2194 20.5314C21.319 20.4318 21.375 20.2967 21.375 20.1558V12.7183C21.375 12.5774 21.319 12.4422 21.2194 12.3426C21.1198 12.243 20.9846 12.187 20.8438 12.187H10.2188C9.93696 12.187 9.66671 12.0751 9.46745 11.8758C9.26819 11.6766 9.15625 11.4063 9.15625 11.1245ZM9.15625 11.1245C9.15625 10.8427 9.26819 10.5725 9.46745 10.3732C9.66671 10.174 9.93696 10.062 10.2188 10.062H18.7188" stroke="white" stroke-width="1.2" stroke-linecap="round" stroke-linejoin="round"/>
<path d="M18.25 16.437C18.25 16.3248 18.3409 16.2339 18.4531 16.2339C18.5653 16.2339 18.6562 16.3248 18.6562 16.437C18.6562 16.5492 18.5653 16.6401 18.4531 16.6401C18.3409 16.6401 18.25 16.5492 18.25 16.437Z" fill="white" stroke="white" stroke-width="2"/>
</svg>
