<svg width="29" height="29" viewBox="0 0 29 29" fill="none" xmlns="http://www.w3.org/2000/svg">
<rect width="29" height="29" rx="14.5" fill="#131316"/>
<path d="M8.65625 10.25V18.75C8.65625 19.0318 8.76819 19.302 8.96745 19.5013C9.16671 19.7006 9.43696 19.8125 9.71875 19.8125H20.3438C20.4846 19.8125 20.6198 19.7565 20.7194 19.6569C20.819 19.5573 20.875 19.4221 20.875 19.2812V11.8438C20.875 11.7029 20.819 11.5677 20.7194 11.4681C20.6198 11.3685 20.4846 11.3125 20.3438 11.3125H9.71875C9.43696 11.3125 9.16671 11.2006 8.96745 11.0013C8.76819 10.802 8.65625 10.5318 8.65625 10.25ZM8.65625 10.25C8.65625 9.96821 8.76819 9.69796 8.96745 9.4987C9.16671 9.29944 9.43696 9.1875 9.71875 9.1875H18.2188" stroke="#66BDFF" stroke-width="1.2" stroke-linecap="round" stroke-linejoin="round"/>
<path d="M17.75 15.5625C17.75 15.4503 17.8409 15.3594 17.9531 15.3594C18.0653 15.3594 18.1562 15.4503 18.1562 15.5625C18.1562 15.6747 18.0653 15.7656 17.9531 15.7656C17.8409 15.7656 17.75 15.6747 17.75 15.5625Z" fill="#66BDFF" stroke="#66BDFF" stroke-width="2"/>
</svg>
