<svg width="17" height="17" viewBox="0 0 17 17" fill="none" xmlns="http://www.w3.org/2000/svg">
<path d="M2.65625 4.25V12.75C2.65625 13.0318 2.76819 13.302 2.96745 13.5013C3.16671 13.7006 3.43696 13.8125 3.71875 13.8125H14.3438C14.4846 13.8125 14.6198 13.7565 14.7194 13.6569C14.819 13.5573 14.875 13.4221 14.875 13.2812V5.84375C14.875 5.70285 14.819 5.56773 14.7194 5.4681C14.6198 5.36847 14.4846 5.3125 14.3438 5.3125H3.71875C3.43696 5.3125 3.16671 5.20056 2.96745 5.0013C2.76819 4.80204 2.65625 4.53179 2.65625 4.25ZM2.65625 4.25C2.65625 3.96821 2.76819 3.69796 2.96745 3.4987C3.16671 3.29944 3.43696 3.1875 3.71875 3.1875H12.2188" stroke="white" stroke-width="1.2" stroke-linecap="round" stroke-linejoin="round"/>
<path d="M11.75 9.5625C11.75 9.45032 11.8409 9.35938 11.9531 9.35938C12.0653 9.35938 12.1562 9.45032 12.1562 9.5625C12.1562 9.67468 12.0653 9.76562 11.9531 9.76562C11.8409 9.76562 11.75 9.67468 11.75 9.5625Z" fill="white" stroke="white" stroke-width="2"/>
</svg>
