<svg width="19" height="19" viewBox="0 0 19 19" fill="none" xmlns="http://www.w3.org/2000/svg">
<path d="M3.66319 12.8087L8.76083 15.7507V9.9148L3.66319 6.97273V12.8087ZM10.2504 15.7507L15.3368 12.8087V6.95294L10.2504 9.9148V15.7507ZM4.47295 5.72584L9.50001 8.64811L14.5185 5.72584L9.50001 2.82335L4.47295 5.72584ZM2.09534 13.7251V6.19138C2.09534 5.91314 2.16303 5.65184 2.29842 5.40745C2.43381 5.16306 2.62742 4.96944 2.87926 4.8266L8.71608 1.45858C8.96047 1.32319 9.22178 1.25549 9.50001 1.25549C9.77824 1.25549 10.0396 1.32319 10.2839 1.45858L16.1208 4.8266C16.3726 4.96944 16.5681 5.16306 16.7072 5.40745C16.8463 5.65184 16.9159 5.91314 16.9159 6.19138V12.8087C16.9159 13.0869 16.8463 13.3482 16.7072 13.5926C16.5681 13.837 16.3726 14.0306 16.1208 14.1735L10.2839 17.5303C10.0396 17.6731 9.77824 17.7446 9.50001 17.7446C9.22178 17.7446 8.96047 17.6731 8.71608 17.5303L2.09534 13.7251Z" fill="#434656"/>
</svg>
