<svg width="19" height="19" viewBox="0 0 19 19" fill="none" xmlns="http://www.w3.org/2000/svg">
<g clip-path="url(#clip0_300_407)">
<path d="M8.80727 17.6654C7.75745 17.5828 6.77547 17.3107 5.86131 16.8492C4.94718 16.3877 4.15365 15.7928 3.48073 15.0645C2.80782 14.3362 2.27674 13.4969 1.8875 12.5465C1.49827 11.5961 1.30365 10.5806 1.30365 9.5C1.30365 8.3682 1.51872 7.30457 1.94886 6.30913C2.37901 5.31369 2.96545 4.44585 3.70818 3.70562C4.45091 2.9654 5.32051 2.37815 6.31698 1.94388C7.31346 1.50961 8.37819 1.29248 9.51118 1.29248C11.5517 1.29248 13.3234 1.94023 14.8263 3.23574C16.3292 4.53127 17.25 6.15382 17.5888 8.10341H16.0011C15.7753 7.01771 15.3121 6.04945 14.6114 5.1986C13.9107 4.34776 13.0373 3.70688 11.9912 3.27596V3.62103C11.9912 4.0736 11.8323 4.46813 11.5145 4.80461C11.1967 5.14109 10.8116 5.30934 10.3592 5.30934H8.67132V7.00548C8.67132 7.22642 8.58225 7.409 8.40413 7.5532C8.226 7.69741 8.02367 7.76952 7.79714 7.76952H6.19134V9.47764H8.31249V11.918H7.02542L3.06081 7.94765C2.99484 8.21153 2.94866 8.4695 2.92227 8.72154C2.89588 8.97357 2.88269 9.2256 2.88269 9.47764C2.88269 11.1992 3.44575 12.6898 4.57187 13.9493C5.69799 15.2087 7.10979 15.9211 8.80727 16.0863V17.6654ZM16.8788 17.2179L14.2156 14.5435C13.9459 14.7264 13.6552 14.8651 13.3435 14.9595C13.0317 15.0539 12.718 15.1011 12.4025 15.1011C11.4332 15.1011 10.6063 14.7607 9.92179 14.0799C9.2373 13.3991 8.89506 12.5735 8.89506 11.6032C8.89506 10.6328 9.23721 9.80882 9.9215 9.13113C10.6058 8.45343 11.4331 8.11459 12.4035 8.11459C13.3738 8.11459 14.1979 8.4545 14.8758 9.13433C15.5538 9.81415 15.8927 10.6396 15.8927 11.6108C15.8927 11.9332 15.842 12.2486 15.7405 12.557C15.639 12.8653 15.5039 13.1609 15.3351 13.4437L17.9984 16.0872L16.8788 17.2179ZM12.3916 13.5332C12.9253 13.5332 13.3791 13.3468 13.7529 12.974C14.1268 12.6012 14.3137 12.1449 14.3137 11.605C14.3137 11.0683 14.1283 10.6136 13.7577 10.2412C13.387 9.86868 12.9333 9.68244 12.3965 9.68244C11.8628 9.68244 11.409 9.86777 11.0351 10.2384C10.6611 10.6091 10.4741 11.0628 10.4741 11.5996C10.4741 12.1364 10.6595 12.5929 11.0302 12.969C11.4009 13.3451 11.8547 13.5332 12.3916 13.5332Z" fill="#434656"/>
</g>
<defs>
<clipPath id="clip0_300_407">
<rect width="19" height="19" fill="white"/>
</clipPath>
</defs>
</svg>
