<svg width="20" height="14" viewBox="0 0 20 14" fill="none" xmlns="http://www.w3.org/2000/svg">
<path d="M1 2H19C19.2652 2 19.5196 1.89464 19.7071 1.70711C19.8946 1.51957 20 1.26522 20 1C20 0.734784 19.8946 0.48043 19.7071 0.292893C19.5196 0.105357 19.2652 0 19 0H1C0.734784 0 0.48043 0.105357 0.292893 0.292893C0.105357 0.48043 0 0.734784 0 1C0 1.26522 0.105357 1.51957 0.292893 1.70711C0.48043 1.89464 0.734784 2 1 2ZM19 12H5C4.73478 12 4.48043 12.1054 4.29289 12.2929C4.10536 12.4804 4 12.7348 4 13C4 13.2652 4.10536 13.5196 4.29289 13.7071C4.48043 13.8946 4.73478 14 5 14H19C19.2652 14 19.5196 13.8946 19.7071 13.7071C19.8946 13.5196 20 13.2652 20 13C20 12.7348 19.8946 12.4804 19.7071 12.2929C19.5196 12.1054 19.2652 12 19 12ZM19 6H1C0.734784 6 0.48043 6.10536 0.292893 6.29289C0.105357 6.48043 0 6.73478 0 7C0 7.26522 0.105357 7.51957 0.292893 7.70711C0.48043 7.89464 0.734784 8 1 8H19C19.2652 8 19.5196 7.89464 19.7071 7.70711C19.8946 7.51957 20 7.26522 20 7C20 6.73478 19.8946 6.48043 19.7071 6.29289C19.5196 6.10536 19.2652 6 19 6Z" fill="#344054"/>
</svg>
