<svg width="19" height="19" viewBox="0 0 19 19" fill="none" xmlns="http://www.w3.org/2000/svg">
<path d="M8.62917 12.2313L13.2406 7.61985L12.3104 6.70943L8.68855 10.3313L6.6698 8.33235L5.7198 9.28235L8.62917 12.2313ZM9.5 17.6938C7.57362 17.2056 5.99028 16.094 4.75 14.3589C3.50973 12.6238 2.88959 10.7205 2.88959 8.64902V3.74068L9.5 1.26672L16.1302 3.74068V8.64902C16.1302 10.7205 15.5068 12.6238 14.2599 14.3589C13.013 16.094 11.4264 17.2056 9.5 17.6938ZM9.5 16.0709C10.9778 15.5431 12.1884 14.5997 13.1318 13.2407C14.0752 11.8817 14.5469 10.3511 14.5469 8.64902V4.84902L9.5 2.94902L4.45313 4.84902V8.64902C4.45313 10.3511 4.92483 11.8817 5.86823 13.2407C6.81164 14.5997 8.02223 15.5431 9.5 16.0709Z" fill="#434656"/>
</svg>
