<svg width="19" height="19" viewBox="0 0 19 19" fill="none" xmlns="http://www.w3.org/2000/svg">
<g clip-path="url(#clip0_300_402)">
<path d="M15.1604 16.8823C14.5374 16.8823 14.006 16.6983 13.5663 16.3303C13.1266 15.9623 12.8502 15.5287 12.7372 15.0296H8.76772C7.87228 15.0296 7.13254 14.737 6.54852 14.1519C5.96449 13.5668 5.67248 12.8258 5.67248 11.9288C5.67248 11.0393 5.96449 10.302 6.54852 9.71682C7.13254 9.13169 7.87228 8.83912 8.76772 8.83912H10.2917C10.808 8.83912 11.2327 8.67239 11.5657 8.33893C11.8987 8.00548 12.0652 7.58025 12.0652 7.06324C12.0652 6.54623 11.8987 6.12179 11.5657 5.78992C11.2327 5.45804 10.808 5.2921 10.2917 5.2921H6.27399C6.14031 5.79121 5.85692 6.22476 5.4238 6.59277C4.99068 6.96079 4.46261 7.1448 3.83959 7.1448C3.13976 7.1448 2.54588 6.90077 2.05795 6.4127C1.57002 5.92464 1.32605 5.3306 1.32605 4.63058C1.32605 3.93057 1.57002 3.33674 2.05795 2.84912C2.54588 2.36149 3.13976 2.11768 3.83959 2.11768C4.46261 2.11768 4.99068 2.30168 5.4238 2.6697C5.85692 3.03771 6.14031 3.47127 6.27399 3.97037H10.2917C11.1849 3.97037 11.9241 4.26294 12.5092 4.84807C13.0943 5.43322 13.3869 6.1724 13.3869 7.06561C13.3869 7.95882 13.0943 8.698 12.5092 9.28315C11.9241 9.86828 11.1849 10.1609 10.2917 10.1609H8.76772C8.24912 10.1609 7.82389 10.3268 7.49203 10.6587C7.16015 10.9906 6.99421 11.414 6.99421 11.9288C6.99421 12.4511 7.16015 12.8782 7.49203 13.2101C7.82389 13.5419 8.24912 13.7079 8.76772 13.7079H12.7372C12.8634 13.2088 13.1431 12.7752 13.5762 12.4072C14.0093 12.0392 14.5374 11.8552 15.1604 11.8552C15.8603 11.8552 16.4541 12.0992 16.9421 12.5873C17.43 13.0753 17.674 13.6694 17.674 14.3694C17.674 15.0694 17.43 15.6632 16.9421 16.1509C16.4541 16.6385 15.8603 16.8823 15.1604 16.8823ZM3.83959 5.69999C4.14306 5.69999 4.39706 5.59773 4.60157 5.39322C4.80608 5.1887 4.90834 4.93471 4.90834 4.63124C4.90834 4.32776 4.80608 4.07377 4.60157 3.86926C4.39706 3.66474 4.14306 3.56249 3.83959 3.56249C3.53612 3.56249 3.28213 3.66474 3.07761 3.86926C2.8731 4.07377 2.77084 4.32776 2.77084 4.63124C2.77084 4.93471 2.8731 5.1887 3.07761 5.39322C3.28213 5.59773 3.53612 5.69999 3.83959 5.69999Z" fill="#434656"/>
</g>
<defs>
<clipPath id="clip0_300_402">
<rect width="19" height="19" fill="white"/>
</clipPath>
</defs>
</svg>
