<svg width="24" height="24" viewBox="0 0 24 24" fill="none" xmlns="http://www.w3.org/2000/svg">
<path d="M2.49991 8.85964L11.4999 14.0596C11.6519 14.1474 11.8244 14.1936 11.9999 14.1936C12.1754 14.1936 12.3479 14.1474 12.4999 14.0596L21.4999 8.85964C21.651 8.77238 21.7767 8.64709 21.8644 8.49622C21.9521 8.34535 21.9989 8.17415 21.9999 7.99964C22.0006 7.82343 21.9547 7.65016 21.8669 7.49738C21.7791 7.34461 21.6525 7.21774 21.4999 7.12964L12.4999 1.93964C12.3479 1.85187 12.1754 1.80566 11.9999 1.80566C11.8244 1.80566 11.6519 1.85187 11.4999 1.93964L2.49991 7.12964C2.3473 7.21774 2.22069 7.34461 2.13289 7.49738C2.04508 7.65016 1.99921 7.82343 1.99991 7.99964C2.00096 8.17415 2.04767 8.34535 2.13538 8.49622C2.2231 8.64709 2.34877 8.77238 2.49991 8.85964ZM11.9999 3.99964L18.9999 7.99964L11.9999 11.9996L4.99991 7.99964L11.9999 3.99964ZM20.4999 11.1696L11.9999 15.9996L3.49991 11.1296C3.38577 11.0635 3.25969 11.0206 3.12891 11.0035C2.99813 10.9863 2.86524 10.9951 2.7379 11.0295C2.61056 11.0639 2.49129 11.1232 2.38694 11.2038C2.28259 11.2845 2.19524 11.3851 2.12991 11.4996C1.99954 11.7293 1.96527 12.0011 2.03459 12.2559C2.1039 12.5107 2.27118 12.7277 2.49991 12.8596L11.4999 18.0596C11.6519 18.1474 11.8244 18.1936 11.9999 18.1936C12.1754 18.1936 12.3479 18.1474 12.4999 18.0596L21.4999 12.8596C21.7286 12.7277 21.8959 12.5107 21.9652 12.2559C22.0345 12.0011 22.0003 11.7293 21.8699 11.4996C21.8046 11.3851 21.7172 11.2845 21.6129 11.2038C21.5085 11.1232 21.3893 11.0639 21.2619 11.0295C21.1346 10.9951 21.0017 10.9863 20.8709 11.0035C20.7401 11.0206 20.614 11.0635 20.4999 11.1296V11.1696ZM20.4999 15.1696L11.9999 19.9996L3.49991 15.1296C3.38577 15.0635 3.25969 15.0206 3.12891 15.0035C2.99813 14.9863 2.86524 14.9951 2.7379 15.0295C2.61056 15.0639 2.49129 15.1232 2.38694 15.2038C2.28259 15.2845 2.19524 15.3851 2.12991 15.4996C1.99954 15.7293 1.96527 16.0011 2.03459 16.2559C2.1039 16.5107 2.27118 16.7277 2.49991 16.8596L11.4999 22.0596C11.6519 22.1474 11.8244 22.1936 11.9999 22.1936C12.1754 22.1936 12.3479 22.1474 12.4999 22.0596L21.4999 16.8596C21.7286 16.7277 21.8959 16.5107 21.9652 16.2559C22.0345 16.0011 22.0003 15.7293 21.8699 15.4996C21.8046 15.3851 21.7172 15.2845 21.6129 15.2038C21.5085 15.1232 21.3893 15.0639 21.2619 15.0295C21.1346 14.9951 21.0017 14.9863 20.8709 15.0035C20.7401 15.0206 20.614 15.0635 20.4999 15.1296V15.1696Z" fill="#438f68"/>
</svg>
