<svg width="19" height="20" viewBox="0 0 19 20" fill="none" xmlns="http://www.w3.org/2000/svg">
<path fill-rule="evenodd" clip-rule="evenodd" d="M1.08871 4.55506C0.499086 4.84987 0.499071 5.6913 1.08869 5.98613L3.20128 7.04251L1.08919 8.09856C0.499558 8.39337 0.499544 9.2348 1.08916 9.52963L3.14096 10.5556L1.08919 11.6425C0.499558 11.9373 0.499544 12.7787 1.08916 13.0736L7.25083 16.1546C7.47606 16.2673 7.74117 16.2673 7.9664 16.1547L9.99899 14.9997L8.92422 14.3341L7.60863 14.9919L2.34136 12.3581L4.52017 11.2453L7.25083 12.6107C7.47606 12.7233 7.74117 12.7233 7.9664 12.6107L14.1285 9.52963C14.7182 9.23481 14.7182 8.39337 14.1285 8.09855L12.0159 7.04223L14.128 5.98613C14.7177 5.69131 14.7177 4.84987 14.128 4.55505L7.96616 1.47411C7.74093 1.3615 7.47584 1.3615 7.25061 1.47411L1.08871 4.55506ZM10.6742 7.71305L7.96592 9.06721C7.7407 9.17983 7.47559 9.17982 7.25036 9.0672L4.54287 7.71335L2.34136 8.81411L7.60863 11.448L12.8763 8.81409L10.6742 7.71305ZM7.60816 7.90445L2.34088 5.27061L7.60839 2.63686L12.8758 5.27059L7.60816 7.90445Z" fill="#434656"/>
<path fill-rule="evenodd" clip-rule="evenodd" d="M10.1758 14.3684C10.1758 12.1438 11.9934 10.3262 14.218 10.3262C16.4426 10.3262 18.2603 12.1438 18.2603 14.3684C18.2603 16.593 16.4426 18.4107 14.218 18.4107C11.9934 18.4107 10.1758 16.593 10.1758 14.3684ZM14.218 11.5262C12.6562 11.5262 11.3758 12.8066 11.3758 14.3684C11.3758 15.9303 12.6562 17.2106 14.218 17.2106C15.7799 17.2106 17.0603 15.9303 17.0603 14.3684C17.0603 12.8066 15.7799 11.5262 14.218 11.5262Z" fill="#434656"/>
<path d="M12.8984 14.5502L13.7484 15.4002L15.4514 13.7002" fill="white"/>
<path fill-rule="evenodd" clip-rule="evenodd" d="M16.3008 13.7008L14.1732 15.8247C13.9388 16.0587 13.5592 16.0585 13.325 15.8244L12.0508 14.5501L12.8993 13.7016L13.7497 14.5519L15.4531 12.8516L16.3008 13.7008Z" fill="#434656"/>
</svg>
