<svg width="35" height="35" viewBox="0 0 35 35" fill="none" xmlns="http://www.w3.org/2000/svg">
<circle cx="17.5" cy="17.5" r="17.5" fill="#131316"/>
<path fill-rule="evenodd" clip-rule="evenodd" d="M17.4459 8.8625C17.5608 8.86905 17.6751 8.84137 17.7742 8.78297C17.8734 8.72457 17.953 8.63807 18.003 8.53442C18.053 8.43077 18.0711 8.31462 18.0551 8.20066C18.039 8.0867 17.9896 7.98006 17.9129 7.89422C17.8363 7.80839 17.7359 7.74721 17.6245 7.71843C17.513 7.68966 17.3956 7.69457 17.287 7.73256C17.1783 7.77055 17.0834 7.8399 17.0142 7.93184C16.945 8.02378 16.9046 8.13418 16.8982 8.24908C16.8895 8.40305 16.9424 8.55415 17.0451 8.66917C17.1478 8.7842 17.292 8.85373 17.4459 8.8625ZM22.506 9.1506C22.4155 9.15141 22.3268 9.12537 22.2512 9.07576C22.1498 9.00932 22.079 8.90537 22.0542 8.78673C22.0294 8.66809 22.0527 8.54447 22.1191 8.44303C22.1686 8.36729 22.2394 8.30793 22.3227 8.27247C22.4059 8.23701 22.4978 8.22704 22.5867 8.24382C22.6756 8.2606 22.7576 8.30338 22.8222 8.36674C22.8868 8.4301 22.9311 8.5112 22.9496 8.59977C22.9681 8.68835 22.9599 8.78042 22.9261 8.86433C22.8922 8.94825 22.8342 9.02024 22.7595 9.07119C22.6847 9.12215 22.5965 9.14978 22.506 9.1506ZM12.6646 9.1236C12.7448 9.08238 12.8111 9.01833 12.8551 8.93951C12.899 8.86069 12.9187 8.77064 12.9116 8.68067C12.9044 8.59071 12.8709 8.50487 12.8151 8.43394C12.7593 8.36302 12.6837 8.31019 12.598 8.2821C12.5122 8.25402 12.4201 8.25193 12.3331 8.2761C12.2462 8.30027 12.1683 8.34963 12.1094 8.41795C12.0504 8.48627 12.013 8.57051 12.0018 8.66006C11.9906 8.74961 12.0062 8.84046 12.0465 8.92119C12.0736 8.97522 12.1112 9.02336 12.157 9.06281C12.2028 9.10227 12.2559 9.13227 12.3134 9.15109C12.3708 9.1699 12.4314 9.17716 12.4917 9.17244C12.552 9.16773 12.6107 9.15113 12.6646 9.1236ZM13.1107 18.3526C12.8609 18.0722 12.7327 17.704 12.7543 17.3291L12.7504 17.3299C12.7662 17.0542 12.8624 16.7893 13.0271 16.5677C13.1918 16.3461 13.4178 16.1775 13.6772 16.0829C13.9366 15.9882 14.218 15.9716 14.4867 16.035C14.7554 16.0985 14.9997 16.2392 15.1893 16.4398C15.379 16.6405 15.5057 16.8923 15.554 17.1641C15.6022 17.436 15.5697 17.716 15.4606 17.9697C15.3515 18.2233 15.1705 18.4394 14.94 18.5914C14.7095 18.7434 14.4395 18.8245 14.1634 18.8248H14.0862C13.7113 18.8029 13.3604 18.6331 13.1107 18.3526ZM7.22461 17.0333C7.30236 16.9874 7.39197 16.9656 7.4821 16.9707C7.54206 16.9739 7.60079 16.989 7.65491 17.015C7.70903 17.041 7.75747 17.0775 7.79746 17.1223C7.83744 17.1671 7.86818 17.2193 7.88792 17.276C7.90765 17.3328 7.91598 17.3928 7.91243 17.4528C7.90725 17.5429 7.87546 17.6294 7.8211 17.7015C7.76673 17.7736 7.69222 17.8279 7.60698 17.8577C7.52174 17.8874 7.4296 17.8912 7.34221 17.8686C7.25481 17.846 7.17608 17.7979 7.11596 17.7306C7.05585 17.6632 7.01704 17.5796 7.00446 17.4902C6.99187 17.4008 7.00607 17.3097 7.04525 17.2284C7.08444 17.147 7.14685 17.0791 7.22461 17.0333ZM14.3957 11.3423C14.327 11.4639 14.2238 11.5623 14.0991 11.6252C14.0163 11.667 13.926 11.6921 13.8335 11.6989C13.741 11.7058 13.648 11.6944 13.5599 11.6654C13.4718 11.6363 13.3903 11.5902 13.32 11.5296C13.2497 11.469 13.1921 11.3952 13.1504 11.3123C13.0876 11.1876 13.0632 11.0471 13.0802 10.9085C13.0973 10.7699 13.1551 10.6395 13.2462 10.5337C13.3374 10.4279 13.4579 10.3516 13.5924 10.3143C13.727 10.277 13.8696 10.2804 14.0022 10.3242C14.1348 10.3679 14.2515 10.45 14.3375 10.56C14.4235 10.67 14.4749 10.8031 14.4852 10.9423C14.4956 11.0816 14.4645 11.2208 14.3957 11.3423ZM9.27153 13.3457C9.3677 13.4089 9.48046 13.4422 9.59555 13.4414C9.71064 13.4405 9.82289 13.4055 9.91809 13.3408C10.0133 13.2762 10.0872 13.1847 10.1304 13.078C10.1736 12.9714 10.1842 12.8543 10.1608 12.7416C10.1374 12.6289 10.0812 12.5256 9.99913 12.4449C9.91708 12.3642 9.81293 12.3096 9.69987 12.2881C9.5868 12.2666 9.4699 12.2792 9.36395 12.3241C9.25799 12.3691 9.16776 12.4444 9.10466 12.5407C9.02014 12.6696 8.99025 12.8268 9.02154 12.9777C9.05282 13.1287 9.14274 13.261 9.27153 13.3457ZM9.73284 16.8101C9.85313 16.7392 9.99174 16.7055 10.1311 16.7134C10.3182 16.7242 10.4933 16.8087 10.618 16.9485C10.7427 17.0883 10.8069 17.2719 10.7963 17.4589C10.7883 17.5983 10.7392 17.7322 10.6551 17.8437C10.571 17.9552 10.4557 18.0392 10.3239 18.0852C10.192 18.1311 10.0495 18.137 9.91435 18.102C9.77918 18.067 9.65742 17.9927 9.56447 17.8885C9.47151 17.7843 9.41153 17.6549 9.3921 17.5167C9.37267 17.3784 9.39467 17.2375 9.45532 17.1117C9.51597 16.9859 9.61254 16.881 9.73284 16.8101ZM9.34859 21.4608C9.24592 21.5127 9.16094 21.5939 9.10439 21.694C9.04784 21.7942 9.02226 21.9089 9.03088 22.0236C9.03951 22.1383 9.08195 22.2479 9.15284 22.3385C9.22373 22.4291 9.31989 22.4967 9.42916 22.5326C9.53843 22.5686 9.65591 22.5713 9.76675 22.5405C9.87759 22.5097 9.9768 22.4468 10.0519 22.3596C10.1269 22.2724 10.1744 22.1649 10.1884 22.0507C10.2024 21.9366 10.1822 21.8208 10.1304 21.7181C10.096 21.6498 10.0485 21.589 9.99056 21.5392C9.93263 21.4893 9.86544 21.4513 9.79283 21.4274C9.72022 21.4035 9.64361 21.3942 9.56739 21.3999C9.49116 21.4056 9.41681 21.4263 9.34859 21.4608ZM12.5568 15.39C12.3924 15.3914 12.2313 15.3441 12.0938 15.254C12.0023 15.1942 11.9236 15.117 11.8621 15.0267C11.8006 14.9365 11.7575 14.835 11.7352 14.7281C11.713 14.6212 11.712 14.5109 11.7325 14.4036C11.7529 14.2963 11.7943 14.1941 11.8543 14.1028C11.9444 13.9654 12.0733 13.8577 12.2246 13.7935C12.376 13.7292 12.543 13.7113 12.7045 13.742C12.866 13.7727 13.0148 13.8505 13.1321 13.9658C13.2493 14.081 13.3298 14.2284 13.3633 14.3894C13.3968 14.5503 13.3818 14.7176 13.3202 14.87C13.2586 15.0225 13.1532 15.1532 13.0173 15.2458C12.8815 15.3383 12.7212 15.3885 12.5568 15.39ZM20.802 11.5696C20.9191 11.646 21.0561 11.6859 21.1959 11.6844C21.3357 11.6828 21.4719 11.6399 21.5873 11.561C21.7026 11.4821 21.792 11.3707 21.8441 11.241C21.8962 11.1113 21.9087 10.9691 21.88 10.8323C21.8513 10.6955 21.7826 10.5702 21.6828 10.4724C21.5829 10.3746 21.4563 10.3086 21.3189 10.2828C21.1815 10.2569 21.0396 10.2724 20.911 10.3272C20.7824 10.382 20.673 10.4737 20.5965 10.5907C20.5455 10.6685 20.5105 10.7555 20.4932 10.8468C20.476 10.9381 20.477 11.0319 20.496 11.1228C20.5151 11.2138 20.552 11.3 20.6045 11.3767C20.657 11.4534 20.7241 11.5189 20.802 11.5696ZM20.9131 15.9833C20.7277 15.9726 20.542 15.9986 20.3667 16.0597C20.1913 16.1208 20.0297 16.2159 19.891 16.3395C19.6111 16.589 19.4417 16.9396 19.4202 17.314C19.3986 17.6885 19.5268 18.0562 19.7763 18.3362C20.0259 18.6161 20.3765 18.7855 20.7509 18.807H20.8328C21.1056 18.8069 21.3725 18.7279 21.6014 18.5794C21.8302 18.431 22.0113 18.2196 22.1227 17.9706C22.2341 17.7216 22.271 17.4457 22.2291 17.1761C22.1873 16.9066 22.0683 16.6549 21.8866 16.4515C21.7635 16.3127 21.6141 16.1999 21.447 16.1195C21.2798 16.0391 21.0984 15.9928 20.9131 15.9833ZM15.0847 15.7249C14.8614 15.5874 14.6809 15.3904 14.5635 15.1559C14.4556 14.9404 14.4045 14.7009 14.4151 14.4601C14.4257 14.2194 14.4977 13.9853 14.6241 13.7801C14.7506 13.575 14.9274 13.4055 15.1377 13.2878C15.348 13.1702 15.5849 13.1082 15.8259 13.1078C16.0875 13.1065 16.3444 13.1782 16.5676 13.3146C16.7908 13.451 16.9717 13.647 17.0898 13.8804C17.199 14.096 17.2511 14.3361 17.2411 14.5777C17.2312 14.8192 17.1595 15.0542 17.0329 15.2601C16.9062 15.466 16.729 15.6361 16.518 15.7541C16.3069 15.872 16.0692 15.9339 15.8275 15.9339C15.5652 15.9347 15.308 15.8623 15.0847 15.7249ZM25.6499 13.3442C25.7526 13.2924 25.8376 13.2113 25.8942 13.1111C25.9508 13.011 25.9765 12.8963 25.968 12.7816C25.9594 12.6669 25.9171 12.5573 25.8463 12.4667C25.7755 12.3761 25.6794 12.3084 25.5702 12.2724C25.4609 12.2363 25.3435 12.2335 25.2326 12.2642C25.1218 12.2948 25.0225 12.3577 24.9474 12.4448C24.8722 12.5319 24.8246 12.6393 24.8105 12.7535C24.7964 12.8676 24.8164 12.9834 24.8681 13.0861C24.9376 13.224 25.059 13.3286 25.2056 13.377C25.3522 13.4253 25.512 13.4135 25.6499 13.3442ZM21.7149 14.1275C21.7959 13.9844 21.9176 13.8686 22.0644 13.7946C22.1619 13.7454 22.2681 13.7159 22.377 13.7078C22.4859 13.6997 22.5953 13.7131 22.699 13.7474C22.8027 13.7816 22.8986 13.8359 22.9813 13.9073C23.0639 13.9786 23.1317 14.0656 23.1808 14.1631C23.2547 14.31 23.2835 14.4754 23.2634 14.6386C23.2433 14.8018 23.1753 14.9554 23.0679 15.0799C22.9605 15.2044 22.8187 15.2943 22.6602 15.3382C22.5018 15.3821 22.3339 15.378 22.1777 15.3264C22.0216 15.2749 21.8843 15.1782 21.7831 15.0486C21.6819 14.919 21.6214 14.7624 21.6093 14.5984C21.5972 14.4344 21.6339 14.2705 21.7149 14.1275ZM17.9085 12.4098C17.7669 12.4933 17.6037 12.5329 17.4396 12.5237C17.2194 12.5112 17.0131 12.4117 16.8662 12.2471C16.7193 12.0825 16.6438 11.8664 16.6562 11.6461C16.6657 11.482 16.7235 11.3244 16.8225 11.1932C16.9215 11.0619 17.0571 10.963 17.2123 10.9089C17.3675 10.8547 17.5353 10.8478 17.6944 10.889C17.8535 10.9301 17.9969 11.0176 18.1063 11.1402C18.2158 11.2628 18.2864 11.4151 18.3093 11.5779C18.3322 11.7407 18.3064 11.9066 18.235 12.0546C18.1637 12.2027 18.05 12.3263 17.9085 12.4098ZM12.9356 21.0096C13.0825 20.9356 13.204 20.8197 13.285 20.6766C13.3659 20.5335 13.4026 20.3695 13.3904 20.2056C13.3782 20.0416 13.3176 19.8849 13.2163 19.7554C13.1151 19.6258 12.9777 19.5292 12.8215 19.4778C12.6653 19.4263 12.4974 19.4224 12.339 19.4664C12.1805 19.5104 12.0387 19.6004 11.9314 19.725C11.8242 19.8496 11.7562 20.0032 11.7363 20.1664C11.7163 20.3296 11.7452 20.4951 11.8193 20.6419C11.9186 20.8387 12.092 20.9879 12.3013 21.0569C12.5107 21.1259 12.7388 21.1089 12.9356 21.0096ZM17.7501 14.6264C17.7245 14.3129 17.8043 13.9998 17.9767 13.7367C18.1056 13.5402 18.2813 13.379 18.4881 13.2674C18.6948 13.1559 18.9261 13.0976 19.161 13.0977C19.4756 13.0981 19.781 13.2034 20.029 13.397C20.277 13.5905 20.4534 13.8612 20.5302 14.1663C20.607 14.4713 20.5799 14.7933 20.4532 15.0812C20.3265 15.3691 20.1073 15.6065 19.8305 15.7558C19.5536 15.9052 19.2349 15.9579 18.9247 15.9058C18.6144 15.8536 18.3305 15.6994 18.1178 15.4677C17.905 15.236 17.7756 14.9399 17.7501 14.6264ZM20.4351 19.6492C20.3218 19.4246 20.1507 19.2342 19.9393 19.0978C19.7279 18.9614 19.484 18.8839 19.2326 18.8732C18.9813 18.8626 18.7317 18.9192 18.5095 19.0372C18.2873 19.1552 18.1007 19.3303 17.9688 19.5445C17.8369 19.7588 17.7646 20.0043 17.7592 20.2558C17.7539 20.5073 17.8158 20.7557 17.9385 20.9753C18.0611 21.1949 18.2402 21.3778 18.4572 21.5051C18.6741 21.6325 18.9211 21.6996 19.1727 21.6996C19.394 21.6981 19.6119 21.6452 19.8093 21.5451C20.1432 21.3761 20.3965 21.0817 20.5137 20.7264C20.631 20.371 20.6027 19.9837 20.4351 19.6492ZM22.4428 19.414C22.6072 19.4126 22.7684 19.4601 22.9058 19.5503C23.0898 19.6716 23.2182 19.8608 23.2629 20.0765C23.3077 20.2923 23.2651 20.517 23.1445 20.7014C23.0543 20.8389 22.9253 20.9465 22.774 21.0106C22.6226 21.0748 22.4556 21.0926 22.2941 21.0618C22.1325 21.0311 21.9838 20.9531 21.8666 20.8378C21.7494 20.7225 21.669 20.575 21.6356 20.414C21.6022 20.253 21.6173 20.0858 21.679 19.9334C21.7407 19.781 21.8462 19.6503 21.9822 19.5578C22.1181 19.4654 22.2784 19.4153 22.4428 19.414ZM25.6129 17.4264C25.6208 17.287 25.5871 17.1484 25.5163 17.0281C25.4454 16.9079 25.3404 16.8113 25.2146 16.7506C25.0889 16.69 24.9479 16.668 24.8097 16.6874C24.6714 16.7068 24.542 16.7668 24.4378 16.8598C24.3336 16.9527 24.2593 17.0745 24.2243 17.2097C24.1893 17.3448 24.1952 17.4873 24.2412 17.6192C24.2871 17.751 24.3712 17.8663 24.4826 17.9504C24.5941 18.0345 24.728 18.0836 24.8674 18.0916C25.0544 18.1022 25.238 18.038 25.3778 17.9133C25.5176 17.7886 25.6022 17.6135 25.6129 17.4264ZM27.3107 16.9858C27.3887 16.94 27.4785 16.9183 27.5688 16.9235C27.6898 16.9307 27.8031 16.9855 27.8837 17.076C27.9644 17.1665 28.0059 17.2853 27.9992 17.4064C27.994 17.4967 27.9621 17.5834 27.9076 17.6556C27.8531 17.7278 27.7784 17.7822 27.693 17.812C27.6076 17.8418 27.5153 17.8455 27.4277 17.8228C27.3401 17.8001 27.2613 17.7519 27.2011 17.6844C27.1409 17.6169 27.1021 17.533 27.0896 17.4434C27.0771 17.3538 27.0914 17.2625 27.1307 17.1811C27.1701 17.0996 27.2327 17.0317 27.3107 16.9858ZM25.7272 21.4585C25.631 21.3955 25.5183 21.3624 25.4032 21.3634C25.2882 21.3645 25.176 21.3996 25.081 21.4644C24.9859 21.5291 24.9122 21.6206 24.8691 21.7273C24.826 21.834 24.8155 21.951 24.839 22.0637C24.8624 22.1763 24.9187 22.2794 25.0007 22.3601C25.0828 22.4407 25.1869 22.4952 25.2999 22.5167C25.4129 22.5382 25.5298 22.5256 25.6357 22.4807C25.7416 22.4358 25.8318 22.3605 25.8949 22.2643C25.9368 22.2004 25.9658 22.1288 25.98 22.0538C25.9943 21.9787 25.9936 21.9015 25.9781 21.8267C25.9625 21.7518 25.9323 21.6808 25.8893 21.6176C25.8463 21.5545 25.7912 21.5004 25.7272 21.4585ZM12.4932 25.6536C12.5836 25.6528 12.6723 25.6789 12.7479 25.7285C12.7981 25.7615 12.8414 25.804 12.8752 25.8537C12.909 25.9034 12.9326 25.9592 12.9448 26.0181C12.957 26.0769 12.9575 26.1376 12.9463 26.1966C12.935 26.2556 12.9122 26.3118 12.8792 26.362C12.8296 26.4376 12.7586 26.4968 12.6753 26.5321C12.592 26.5673 12.5002 26.5771 12.4113 26.5602C12.3225 26.5432 12.2406 26.5003 12.1762 26.4369C12.1117 26.3735 12.0675 26.2923 12.0491 26.2038C12.0308 26.1152 12.0391 26.0232 12.073 25.9393C12.107 25.8555 12.165 25.7836 12.2398 25.7327C12.3146 25.6819 12.4028 25.6543 12.4932 25.6536ZM22.334 25.6806C22.2532 25.7213 22.1863 25.7851 22.1418 25.8638C22.0972 25.9425 22.077 26.0327 22.0837 26.1229C22.0904 26.2132 22.1238 26.2994 22.1795 26.3706C22.2352 26.4419 22.3108 26.4951 22.3967 26.5234C22.4826 26.5517 22.575 26.5539 22.6622 26.5297C22.7493 26.5055 22.8274 26.456 22.8864 26.3875C22.9454 26.3189 22.9828 26.2344 22.9938 26.1446C23.0048 26.0548 22.9889 25.9638 22.9482 25.883C22.9212 25.8293 22.8839 25.7815 22.8384 25.7423C22.7929 25.703 22.7401 25.6731 22.6831 25.6543C22.626 25.6355 22.5658 25.6282 22.5059 25.6327C22.446 25.6372 22.3876 25.6535 22.334 25.6806ZM17.2485 20.1754C17.274 20.489 17.1943 20.8021 17.0219 21.0653C16.8936 21.2621 16.7181 21.4237 16.5114 21.5353C16.3046 21.6469 16.0732 21.705 15.8383 21.7042C15.5237 21.704 15.2182 21.5988 14.9701 21.4054C14.722 21.2119 14.5454 20.9413 14.4685 20.6362C14.3915 20.3312 14.4185 20.0092 14.5452 19.7212C14.6718 19.4332 14.8909 19.1957 15.1678 19.0463C15.4446 18.8968 15.7634 18.844 16.0736 18.8961C16.3839 18.9483 16.6679 19.1024 16.8807 19.3341C17.0935 19.5658 17.2229 19.8619 17.2485 20.1754ZM14.1965 23.2355C14.0797 23.159 13.9428 23.1189 13.8032 23.1203C13.6635 23.1216 13.5274 23.1643 13.4121 23.243C13.2967 23.3217 13.2073 23.4328 13.1551 23.5623C13.1028 23.6918 13.0902 23.8338 13.1187 23.9705C13.1472 24.1072 13.2156 24.2324 13.3152 24.3302C13.4148 24.428 13.5412 24.4941 13.6784 24.5201C13.8156 24.5462 13.9574 24.5309 14.0859 24.4763C14.2145 24.4218 14.3239 24.3303 14.4005 24.2135C14.503 24.0568 14.5391 23.8657 14.5009 23.6823C14.4626 23.4989 14.3532 23.3382 14.1965 23.2355ZM17.1648 26.0212C17.264 25.9629 17.3782 25.9352 17.4931 25.9417C17.5694 25.9461 17.6441 25.9654 17.7129 25.9986C17.7817 26.0318 17.8433 26.0783 17.8942 26.1353C17.9451 26.1924 17.9842 26.2589 18.0093 26.331C18.0345 26.4032 18.0452 26.4796 18.0408 26.5559C18.0342 26.6708 17.9937 26.7811 17.9244 26.8729C17.8551 26.9648 17.7601 27.034 17.6515 27.0719C17.5429 27.1097 17.4255 27.1145 17.3141 27.0857C17.2027 27.0568 17.1024 26.9956 17.0258 26.9097C16.9493 26.8239 16.8999 26.7173 16.8839 26.6033C16.8679 26.4894 16.8861 26.3733 16.9361 26.2697C16.9861 26.1661 17.0657 26.0796 17.1648 26.0212ZM17.4992 22.2813C17.3349 22.2713 17.1714 22.3103 17.0293 22.3933C16.8873 22.4764 16.773 22.5997 16.7011 22.7477C16.6292 22.8957 16.6028 23.0617 16.6253 23.2247C16.6478 23.3877 16.7182 23.5404 16.8275 23.6634C16.9368 23.7863 17.0802 23.8741 17.2394 23.9156C17.3987 23.957 17.5667 23.9502 17.7221 23.8961C17.8775 23.842 18.0133 23.743 18.1124 23.6117C18.2115 23.4803 18.2694 23.3225 18.2787 23.1582C18.2914 22.9386 18.2164 22.7229 18.0703 22.5585C17.9241 22.3941 17.7188 22.2944 17.4992 22.2813ZM20.603 23.4631C20.6716 23.3412 20.7747 23.2423 20.8995 23.179C20.9821 23.1369 21.0722 23.1114 21.1647 23.1041C21.2571 23.0969 21.3501 23.1079 21.4383 23.1366C21.5265 23.1653 21.6082 23.2111 21.6786 23.2714C21.7491 23.3317 21.807 23.4053 21.849 23.488C21.9126 23.6126 21.9378 23.7533 21.9214 23.8922C21.905 24.0311 21.8477 24.1621 21.7569 24.2684C21.6661 24.3748 21.5457 24.4519 21.4111 24.4898C21.2764 24.5277 21.1336 24.5249 21.0006 24.4816C20.8675 24.4383 20.7504 24.3565 20.6638 24.2466C20.5773 24.1367 20.5254 24.0036 20.5145 23.8641C20.5037 23.7246 20.5345 23.5851 20.603 23.4631Z" fill="#66BDFF"/>
</svg>
