<svg width="100" height="101" viewBox="0 0 100 101" fill="none" xmlns="http://www.w3.org/2000/svg">
<g style="mix-blend-mode:multiply">
<path d="M45.25 3.81976C48.1893 2.12275 51.8107 2.12275 54.75 3.81976L88.0513 23.0463C90.9906 24.7433 92.8013 27.8795 92.8013 31.2735V69.7265C92.8013 73.1205 90.9906 76.2567 88.0513 77.9537L54.75 97.1802C51.8107 98.8772 48.1893 98.8772 45.25 97.1802L11.9487 77.9537C9.00942 76.2567 7.19873 73.1205 7.19873 69.7265V31.2735C7.19873 27.8795 9.00942 24.7433 11.9487 23.0463L45.25 3.81976Z" stroke="#2F2E41"/>
</g>
<mask id="mask0_16953_80619" style="mask-type:alpha" maskUnits="userSpaceOnUse" x="6" y="2" width="88" height="97">
<path d="M45 3.38675C48.094 1.60042 51.906 1.60042 55 3.38675L88.3013 22.6132C91.3953 24.3996 93.3013 27.7008 93.3013 31.2735V69.7265C93.3013 73.2992 91.3953 76.6004 88.3013 78.3867L55 97.6133C51.906 99.3996 48.094 99.3996 45 97.6133L11.6987 78.3867C8.60472 76.6004 6.69873 73.2992 6.69873 69.7265V31.2735C6.69873 27.7008 8.60472 24.3996 11.6987 22.6132L45 3.38675Z" fill="#184C78"/>
</mask>
<g mask="url(#mask0_16953_80619)">
<path d="M49.4664 59.6817C59.5011 59.6817 67.6359 51.5469 67.6359 41.5122C67.6359 31.4774 59.5011 23.3426 49.4664 23.3426C39.4316 23.3426 31.2969 31.4774 31.2969 41.5122C31.2969 51.5469 39.4316 59.6817 49.4664 59.6817Z" fill="#FFB6B6"/>
<path d="M39.0351 62.3685L38.2143 54.0709L54.6062 51.0059L64.2855 74.5729L47.4519 93.9315L35.458 70.3645L39.0351 62.3685Z" fill="#FFB6B6"/>
<path d="M37.9506 58.2244L41.5342 59.0341C41.5342 59.0341 38.7171 50.1008 39.6733 49.248C40.6295 48.3951 42.9727 49.7389 42.9727 49.7389L45.435 52.4996L48.4343 49.4459C48.4343 49.4459 51.6906 45.397 52.9655 44.2599C54.2404 43.1227 52.1926 38.9018 52.1926 38.9018C52.1926 38.9018 71.1076 33.8014 64.0693 24.627C64.0693 24.627 59.9428 17.4339 58.5989 19.7771C57.2551 22.1203 55.6527 18.3989 55.6527 18.3989L50.7597 19.3293C50.7597 19.3293 41.1026 13.6353 31.9369 25.8165C22.7713 37.9977 37.9506 58.2244 37.9506 58.2244Z" fill="#2F2E41"/>
<path fill-rule="evenodd" clip-rule="evenodd" d="M48.5351 121.547C61.4948 121.547 73.7791 117.173 83.7088 109.122C83.7067 108.929 83.7025 108.739 83.6983 108.548C83.6936 108.337 83.688 108.079 83.6816 107.779C83.5458 101.495 83.0102 76.7031 81.7308 74.8755L61.1855 65.1731C61.1855 65.1731 61.1224 65.5792 60.9119 66.1852C60.2154 68.1736 57.9113 72.3252 50.9128 71.4499C43.0641 70.4693 38.5885 66.9595 37.4859 65.9916C37.305 65.8338 37.2145 65.7433 37.2145 65.7433C37.2145 65.7433 17.2394 71.4499 16.6691 80.0119C16.6065 80.9491 16.5302 86.1225 16.444 91.972C16.3273 99.8857 16.1924 109.037 16.0484 110.61C16.035 110.769 16.0197 110.929 16.0044 111.09L16 111.136C25.4289 117.899 36.7011 121.547 48.5351 121.547Z" fill="#006CFF"/>
<path fill-rule="evenodd" clip-rule="evenodd" d="M49.5199 85.3605C49.6546 85.3682 49.7886 85.3357 49.9049 85.2672C50.0211 85.1987 50.1145 85.0973 50.1731 84.9757C50.2318 84.8542 50.253 84.718 50.2342 84.5843C50.2154 84.4507 50.1574 84.3256 50.0675 84.225C49.9776 84.1243 49.8599 84.0526 49.7292 84.0188C49.5986 83.9851 49.4608 83.9908 49.3334 84.0354C49.2061 84.0799 49.0947 84.1613 49.0136 84.2691C48.9324 84.3769 48.8851 84.5064 48.8775 84.6411C48.8674 84.8217 48.9293 84.9989 49.0498 85.1338C49.1702 85.2687 49.3393 85.3502 49.5199 85.3605ZM55.4544 85.6983C55.3483 85.6992 55.2443 85.6687 55.1556 85.6105C55.0367 85.5326 54.9536 85.4107 54.9246 85.2716C54.8955 85.1324 54.9229 84.9875 55.0007 84.8685C55.0587 84.7797 55.1418 84.7101 55.2394 84.6685C55.337 84.6269 55.4448 84.6152 55.5491 84.6349C55.6534 84.6546 55.7494 84.7047 55.8252 84.779C55.9009 84.8533 55.953 84.9485 55.9746 85.0523C55.9963 85.1562 55.9867 85.2642 55.947 85.3626C55.9073 85.461 55.8394 85.5454 55.7517 85.6052C55.664 85.6649 55.5605 85.6973 55.4544 85.6983ZM43.9132 85.6668C44.0073 85.6184 44.085 85.5433 44.1366 85.4509C44.1881 85.3584 44.2112 85.2528 44.2028 85.1473C44.1945 85.0418 44.1551 84.9412 44.0897 84.858C44.0242 84.7748 43.9356 84.7129 43.8351 84.6799C43.7345 84.647 43.6264 84.6445 43.5245 84.6729C43.4225 84.7012 43.3312 84.7591 43.2621 84.8392C43.1929 84.9193 43.149 85.0181 43.1359 85.1231C43.1228 85.2282 43.141 85.3347 43.1883 85.4294C43.2201 85.4927 43.2642 85.5492 43.3179 85.5955C43.3716 85.6417 43.4339 85.6769 43.5013 85.699C43.5687 85.7211 43.6398 85.7296 43.7105 85.724C43.7811 85.7185 43.85 85.699 43.9132 85.6668ZM44.0191 95.2893C43.9939 95.729 44.1442 96.1607 44.4371 96.4896C44.7299 96.8185 45.1414 97.0177 45.5811 97.0434H45.6717C45.9954 97.043 46.312 96.9478 46.5824 96.7696C46.8527 96.5914 47.0649 96.338 47.1929 96.0405C47.3208 95.7431 47.3589 95.4147 47.3023 95.0959C47.2458 94.777 47.0972 94.4818 46.8747 94.2465C46.6523 94.0111 46.3659 93.8461 46.0507 93.7717C45.7356 93.6973 45.4056 93.7168 45.1014 93.8278C44.7973 93.9388 44.5323 94.1365 44.3391 94.3964C44.146 94.6562 44.0331 94.967 44.0146 95.2902L44.0191 95.2893ZM37.8359 94.8688C37.7302 94.8629 37.6251 94.8885 37.5339 94.9423C37.4427 94.9961 37.3695 95.0757 37.3236 95.171C37.2776 95.2664 37.261 95.3733 37.2757 95.4781C37.2905 95.5829 37.336 95.681 37.4065 95.76C37.477 95.839 37.5693 95.8953 37.6718 95.9218C37.7743 95.9484 37.8824 95.9439 37.9823 95.909C38.0823 95.8742 38.1697 95.8104 38.2334 95.7259C38.2972 95.6414 38.3344 95.5399 38.3405 95.4342C38.3447 95.3639 38.3349 95.2935 38.3118 95.227C38.2886 95.1605 38.2526 95.0992 38.2057 95.0466C38.1588 94.9941 38.102 94.9514 38.0385 94.9208C37.9751 94.8903 37.9062 94.8727 37.8359 94.8688ZM45.9438 88.2686C45.8632 88.4111 45.7421 88.5266 45.5959 88.6003C45.4988 88.6493 45.3929 88.6787 45.2844 88.6868C45.1759 88.6948 45.0669 88.6815 44.9636 88.6474C44.8603 88.6133 44.7647 88.5592 44.6823 88.4882C44.5999 88.4171 44.5323 88.3305 44.4833 88.2334C44.4097 88.0871 44.3811 87.9223 44.4011 87.7598C44.4211 87.5972 44.4888 87.4443 44.5957 87.3203C44.7027 87.1962 44.844 87.1067 45.0018 87.063C45.1596 87.0192 45.3268 87.0232 45.4823 87.0745C45.6378 87.1258 45.7746 87.2221 45.8755 87.3511C45.9763 87.4801 46.0366 87.6362 46.0488 87.7995C46.0609 87.9628 46.0244 88.126 45.9438 88.2686ZM39.9334 90.6179C40.0462 90.692 40.1784 90.7311 40.3134 90.73C40.4484 90.729 40.58 90.688 40.6917 90.6122C40.8033 90.5363 40.8899 90.429 40.9406 90.3039C40.9913 90.1788 41.0037 90.0415 40.9763 89.9094C40.9489 89.7772 40.8829 89.6561 40.7867 89.5615C40.6905 89.4668 40.5683 89.4029 40.4358 89.3776C40.3032 89.3524 40.1661 89.3671 40.0418 89.4198C39.9176 89.4725 39.8117 89.5609 39.7377 89.6738C39.6386 89.825 39.6036 90.0093 39.6403 90.1863C39.677 90.3633 39.7824 90.5185 39.9334 90.6179ZM40.4754 94.6807C40.6165 94.5976 40.779 94.5581 40.9425 94.5674C41.1618 94.58 41.3672 94.6791 41.5135 94.8431C41.6597 95.007 41.7349 95.2223 41.7226 95.4417C41.7132 95.6051 41.6555 95.7621 41.5569 95.8929C41.4583 96.0236 41.3231 96.1221 41.1685 96.176C41.0139 96.23 40.8468 96.2368 40.6883 96.1958C40.5298 96.1547 40.387 96.0676 40.278 95.9454C40.1689 95.8233 40.0986 95.6715 40.0758 95.5093C40.053 95.3472 40.0788 95.1819 40.15 95.0344C40.2211 94.8869 40.3343 94.7639 40.4754 94.6807ZM40.0254 100.135C39.905 100.195 39.8053 100.291 39.739 100.408C39.6727 100.526 39.6427 100.66 39.6528 100.795C39.6629 100.929 39.7127 101.058 39.7958 101.164C39.8789 101.27 39.9917 101.349 40.1199 101.391C40.248 101.434 40.3858 101.437 40.5158 101.401C40.6457 101.365 40.7621 101.291 40.8501 101.189C40.9381 101.086 40.9939 100.96 41.0103 100.826C41.0267 100.692 41.003 100.557 40.9423 100.436C40.9019 100.356 40.8461 100.285 40.7782 100.226C40.7103 100.168 40.6315 100.123 40.5463 100.095C40.4612 100.067 40.3713 100.056 40.282 100.063C40.1926 100.07 40.1054 100.094 40.0254 100.135ZM43.7869 93.0151C43.5941 93.0168 43.4051 92.9613 43.2438 92.8557C43.1367 92.7856 43.0443 92.695 42.9722 92.5892C42.9001 92.4834 42.8495 92.3643 42.8234 92.2389C42.7973 92.1136 42.7962 91.9842 42.8202 91.8584C42.8441 91.7326 42.8926 91.6128 42.963 91.5057C43.0687 91.3445 43.2199 91.2182 43.3973 91.1429C43.5748 91.0676 43.7706 91.0466 43.96 91.0825C44.1495 91.1185 44.324 91.2098 44.4615 91.345C44.599 91.4801 44.6933 91.653 44.7326 91.8417C44.7719 92.0305 44.7543 92.2266 44.6821 92.4054C44.6099 92.5842 44.4863 92.7375 44.327 92.846C44.1676 92.9546 43.9796 93.0134 43.7869 93.0151ZM53.4571 88.5352C53.5944 88.6247 53.7552 88.6716 53.9191 88.6698C54.083 88.668 54.2427 88.6176 54.378 88.5251C54.5133 88.4326 54.6182 88.302 54.6793 88.1499C54.7404 87.9978 54.755 87.8309 54.7213 87.6705C54.6877 87.5101 54.6072 87.3632 54.49 87.2486C54.3729 87.1339 54.2244 87.0565 54.0633 87.0261C53.9022 86.9958 53.7358 87.014 53.585 87.0782C53.4342 87.1425 53.3058 87.2501 53.2161 87.3873C53.1564 87.4784 53.1153 87.5805 53.095 87.6875C53.0748 87.7946 53.076 87.9046 53.0983 88.0113C53.1207 88.1179 53.164 88.2191 53.2255 88.309C53.2871 88.3989 53.3658 88.4758 53.4571 88.5352ZM53.5873 93.7111C53.3699 93.6986 53.1521 93.7291 52.9465 93.8007C52.7408 93.8724 52.5513 93.9839 52.3887 94.1288C52.0603 94.4215 51.8617 94.8326 51.8365 95.2717C51.8112 95.7108 51.9615 96.142 52.2542 96.4703C52.5468 96.7987 52.9579 96.9973 53.3971 97.0226H53.4931C53.813 97.0224 54.126 96.9297 54.3944 96.7557C54.6628 96.5816 54.8751 96.3336 55.0057 96.0416C55.1364 95.7496 55.1797 95.4261 55.1306 95.11C55.0815 94.7939 54.942 94.4987 54.7289 94.2601C54.5846 94.0974 54.4093 93.9651 54.2133 93.8708C54.0173 93.7765 53.8045 93.7223 53.5873 93.7111ZM46.7519 93.408C46.49 93.2468 46.2783 93.0157 46.1407 92.7407C46.0141 92.488 45.9542 92.2072 45.9666 91.9248C45.9791 91.6425 46.0634 91.368 46.2117 91.1274C46.36 90.8868 46.5673 90.6881 46.814 90.5501C47.0606 90.4121 47.3385 90.3394 47.6211 90.3389C47.9279 90.3375 48.2291 90.4214 48.4909 90.5814C48.7526 90.7415 48.9647 90.9712 49.1033 91.2449C49.2314 91.4979 49.2925 91.7794 49.2808 92.0627C49.2691 92.3459 49.185 92.6215 49.0365 92.863C48.888 93.1045 48.6801 93.3039 48.4327 93.4422C48.1852 93.5806 47.9064 93.6532 47.6229 93.6531C47.3154 93.6541 47.0137 93.5692 46.7519 93.408ZM59.1418 90.6163C59.2622 90.5555 59.3619 90.4604 59.4283 90.343C59.4947 90.2256 59.5248 90.0911 59.5148 89.9566C59.5048 89.8221 59.4551 89.6935 59.3721 89.5872C59.289 89.4809 59.1763 89.4016 59.0483 89.3594C58.9202 89.3171 58.7824 89.3137 58.6524 89.3497C58.5224 89.3857 58.406 89.4594 58.3179 89.5616C58.2298 89.6637 58.1739 89.7896 58.1574 89.9235C58.1408 90.0574 58.1643 90.1932 58.2249 90.3137C58.3065 90.4753 58.4488 90.598 58.6207 90.6547C58.7927 90.7114 58.9801 90.6976 59.1418 90.6163ZM54.5274 91.535C54.6224 91.3672 54.765 91.2314 54.9372 91.1447C55.0515 91.087 55.1761 91.0524 55.3038 91.0428C55.4315 91.0333 55.5598 91.0491 55.6814 91.0892C55.803 91.1294 55.9155 91.1931 56.0124 91.2768C56.1094 91.3604 56.1889 91.4624 56.2464 91.5768C56.3331 91.749 56.3668 91.9431 56.3433 92.1344C56.3197 92.3258 56.2399 92.5059 56.114 92.6519C55.9881 92.7979 55.8217 92.9034 55.6359 92.9548C55.4501 93.0063 55.2532 93.0015 55.0701 92.9411C54.887 92.8806 54.726 92.7672 54.6073 92.6153C54.4886 92.4633 54.4177 92.2796 54.4035 92.0873C54.3893 91.895 54.4324 91.7028 54.5274 91.535ZM50.063 89.5205C49.8969 89.6184 49.7056 89.6649 49.5132 89.6541C49.2549 89.6394 49.013 89.5227 48.8407 89.3297C48.6685 89.1367 48.5799 88.8832 48.5945 88.6249C48.6055 88.4324 48.6734 88.2476 48.7894 88.0937C48.9055 87.9398 49.0646 87.8238 49.2466 87.7603C49.4286 87.6968 49.6253 87.6887 49.8119 87.737C49.9985 87.7853 50.1666 87.8878 50.295 88.0316C50.4234 88.1754 50.5062 88.354 50.5331 88.5449C50.5599 88.7357 50.5296 88.9303 50.4459 89.1039C50.3623 89.2776 50.229 89.4225 50.063 89.5205ZM44.2304 99.6058C44.4025 99.519 44.5451 99.3831 44.64 99.2153C44.735 99.0474 44.778 98.8552 44.7637 98.6629C44.7493 98.4706 44.6783 98.2869 44.5595 98.135C44.4408 97.983 44.2796 97.8698 44.0965 97.8094C43.9134 97.7491 43.7164 97.7444 43.5306 97.796C43.3448 97.8476 43.1785 97.9532 43.0527 98.0993C42.9269 98.2454 42.8473 98.4256 42.8238 98.617C42.8004 98.8084 42.8343 99.0024 42.9212 99.1746C43.0376 99.4053 43.241 99.5804 43.4865 99.6613C43.732 99.7421 43.9996 99.7222 44.2304 99.6058ZM49.8776 92.1199C49.8476 91.7522 49.9411 91.385 50.1433 91.0765C50.2945 90.8461 50.5006 90.657 50.743 90.5262C50.9855 90.3954 51.2567 90.327 51.5322 90.3272C51.9011 90.3277 52.2593 90.4512 52.5502 90.6781C52.841 90.9051 53.0478 91.2225 53.1379 91.5803C53.228 91.938 53.1962 92.3156 53.0476 92.6532C52.899 92.9908 52.642 93.2692 52.3173 93.4444C51.9926 93.6195 51.6188 93.6814 51.255 93.6202C50.8912 93.559 50.5583 93.3782 50.3088 93.1065C50.0593 92.8347 49.9076 92.4875 49.8776 92.1199ZM53.0248 98.0101C52.8919 97.7467 52.6912 97.5235 52.4434 97.3636C52.1955 97.2036 51.9094 97.1127 51.6147 97.1002C51.3199 97.0877 51.0272 97.1541 50.7666 97.2924C50.5061 97.4308 50.2872 97.6362 50.1325 97.8875C49.9778 98.1387 49.893 98.4266 49.8868 98.7215C49.8805 99.0165 49.9531 99.3078 50.0969 99.5653C50.2408 99.8229 50.4508 100.037 50.7052 100.187C50.9597 100.336 51.2494 100.415 51.5444 100.415C51.8039 100.413 52.0595 100.351 52.2909 100.233C52.6824 100.035 52.9795 99.6901 53.117 99.2734C53.2546 98.8567 53.2214 98.4025 53.0248 98.0101ZM55.3802 97.7344C55.573 97.7328 55.7619 97.7885 55.9231 97.8943C56.1388 98.0365 56.2894 98.2584 56.3419 98.5114C56.3944 98.7644 56.3445 99.0279 56.203 99.2442C56.0972 99.4054 55.946 99.5316 55.7685 99.6068C55.5909 99.682 55.3951 99.7029 55.2057 99.6669C55.0163 99.6308 54.8418 99.5394 54.7044 99.4041C54.567 99.2689 54.4727 99.096 54.4335 98.9072C54.3944 98.7184 54.4121 98.5222 54.4844 98.3435C54.5568 98.1648 54.6805 98.0115 54.8399 97.9031C54.9994 97.7947 55.1874 97.736 55.3802 97.7344ZM59.0992 95.4034C59.1085 95.2399 59.069 95.0774 58.9859 94.9363C58.9027 94.7952 58.7796 94.682 58.6322 94.6109C58.4847 94.5397 58.3194 94.5139 58.1572 94.5367C57.9951 94.5595 57.8433 94.6298 57.7212 94.7389C57.599 94.8479 57.5119 94.9907 57.4708 95.1492C57.4298 95.3077 57.4366 95.4748 57.4906 95.6294C57.5445 95.784 57.643 95.9192 57.7737 96.0178C57.9044 96.1164 58.0615 96.1741 58.2249 96.1835C58.4443 96.1958 58.6596 96.1206 58.8235 95.9744C58.9874 95.8281 59.0866 95.6227 59.0992 95.4034ZM61.0893 94.887C61.1807 94.8333 61.2861 94.8078 61.392 94.8139C61.5339 94.8223 61.6667 94.8866 61.7613 94.9928C61.8559 95.0989 61.9045 95.2382 61.8966 95.3802C61.8905 95.4861 61.8532 95.5878 61.7893 95.6725C61.7254 95.7571 61.6378 95.821 61.5376 95.8559C61.4374 95.8908 61.3291 95.8952 61.2265 95.8686C61.1238 95.8419 61.0313 95.7854 60.9607 95.7062C60.8901 95.627 60.8446 95.5287 60.8299 95.4236C60.8153 95.3186 60.8321 95.2115 60.8782 95.116C60.9244 95.0205 60.9978 94.9408 61.0893 94.887ZM59.2324 100.132C59.1196 100.058 58.9873 100.019 58.8524 100.021C58.7175 100.022 58.586 100.063 58.4745 100.139C58.363 100.215 58.2766 100.322 58.226 100.447C58.1755 100.573 58.1632 100.71 58.1907 100.842C58.2182 100.974 58.2842 101.095 58.3804 101.189C58.4767 101.284 58.5987 101.348 58.7313 101.373C58.8638 101.398 59.0008 101.384 59.125 101.331C59.2492 101.278 59.355 101.19 59.429 101.077C59.4782 101.002 59.5121 100.918 59.5289 100.83C59.5456 100.742 59.5448 100.652 59.5266 100.564C59.5083 100.476 59.4729 100.393 59.4225 100.319C59.372 100.245 59.3074 100.181 59.2324 100.132ZM43.7121 105.052C43.8182 105.051 43.9221 105.081 44.0108 105.14C44.0697 105.178 44.1204 105.228 44.16 105.286C44.1997 105.345 44.2274 105.41 44.2417 105.479C44.256 105.548 44.2566 105.619 44.2434 105.688C44.2302 105.758 44.2035 105.824 44.1648 105.882C44.1066 105.971 44.0233 106.041 43.9257 106.082C43.828 106.123 43.7203 106.135 43.6161 106.115C43.5119 106.095 43.4159 106.045 43.3403 105.97C43.2647 105.896 43.2129 105.801 43.1913 105.697C43.1698 105.593 43.1795 105.485 43.2193 105.387C43.2591 105.288 43.3272 105.204 43.4149 105.144C43.5026 105.085 43.606 105.053 43.7121 105.052ZM55.2529 105.083C55.1581 105.131 55.0797 105.206 55.0275 105.298C54.9752 105.391 54.9515 105.496 54.9594 105.602C54.9673 105.708 55.0063 105.809 55.0717 105.893C55.137 105.976 55.2256 106.039 55.3264 106.072C55.4272 106.105 55.5355 106.108 55.6377 106.079C55.74 106.051 55.8315 105.993 55.9007 105.912C55.9699 105.832 56.0138 105.733 56.0267 105.628C56.0396 105.522 56.0209 105.416 55.9731 105.321C55.9415 105.258 55.8978 105.202 55.8444 105.156C55.7911 105.11 55.7292 105.075 55.6623 105.053C55.5954 105.031 55.5248 105.022 55.4545 105.027C55.3843 105.033 55.3157 105.052 55.2529 105.083ZM49.2892 98.6272C49.3192 98.9949 49.2256 99.3621 49.0234 99.6707C48.873 99.9016 48.6672 100.091 48.4248 100.222C48.1823 100.353 47.911 100.421 47.6354 100.42C47.2665 100.42 46.9082 100.296 46.6172 100.07C46.3263 99.8427 46.1193 99.5253 46.029 99.1676C45.9388 98.8098 45.9704 98.4322 46.119 98.0945C46.2675 97.7568 46.5244 97.4782 46.8491 97.303C47.1737 97.1277 47.5476 97.0658 47.9114 97.1269C48.2752 97.188 48.6083 97.3688 48.8578 97.6405C49.1074 97.9123 49.2592 98.2595 49.2892 98.6272ZM45.7092 102.216C45.5721 102.126 45.4116 102.079 45.2479 102.081C45.0841 102.082 44.9245 102.132 44.7893 102.225C44.654 102.317 44.5491 102.447 44.4878 102.599C44.4266 102.751 44.4117 102.918 44.4452 103.078C44.4786 103.238 44.5588 103.385 44.6756 103.5C44.7925 103.614 44.9407 103.692 45.1016 103.722C45.2625 103.753 45.4288 103.735 45.5795 103.671C45.7302 103.607 45.8586 103.5 45.9484 103.363C46.0686 103.179 46.111 102.955 46.0661 102.74C46.0213 102.525 45.8929 102.336 45.7092 102.216ZM49.1914 105.498C49.3077 105.429 49.4416 105.397 49.5763 105.404C49.6658 105.41 49.7534 105.432 49.8341 105.471C49.9148 105.51 49.9871 105.565 50.0467 105.632C50.1064 105.698 50.1523 105.776 50.1818 105.861C50.2113 105.946 50.2238 106.035 50.2186 106.125C50.2109 106.259 50.1634 106.389 50.0821 106.497C50.0009 106.604 49.8895 106.685 49.7621 106.73C49.6347 106.774 49.497 106.78 49.3664 106.746C49.2358 106.712 49.1182 106.64 49.0284 106.54C48.9386 106.439 48.8807 106.314 48.8619 106.18C48.8432 106.047 48.8645 105.911 48.9231 105.789C48.9818 105.668 49.0751 105.566 49.1914 105.498ZM49.5835 101.097C49.3909 101.085 49.1991 101.131 49.0325 101.228C48.8659 101.326 48.7319 101.47 48.6476 101.644C48.5632 101.817 48.5323 102.012 48.5586 102.203C48.585 102.394 48.6675 102.573 48.7958 102.718C48.924 102.862 49.0921 102.965 49.2789 103.013C49.4656 103.062 49.6626 103.054 49.8449 102.991C50.0271 102.927 50.1864 102.811 50.3026 102.657C50.4188 102.503 50.4867 102.318 50.4976 102.125C50.5125 101.868 50.4246 101.615 50.2532 101.422C50.0818 101.229 49.841 101.112 49.5835 101.097ZM53.2223 102.483C53.3027 102.34 53.4236 102.224 53.5699 102.15C53.6668 102.1 53.7725 102.071 53.8809 102.062C53.9894 102.053 54.0984 102.066 54.2018 102.1C54.3053 102.134 54.401 102.187 54.4837 102.258C54.5663 102.329 54.6342 102.415 54.6834 102.512C54.758 102.658 54.7875 102.823 54.7683 102.986C54.7491 103.149 54.682 103.303 54.5755 103.427C54.4689 103.552 54.3278 103.642 54.1699 103.687C54.012 103.731 53.8445 103.728 53.6885 103.677C53.5325 103.627 53.3951 103.531 53.2936 103.402C53.1921 103.273 53.1312 103.117 53.1185 102.953C53.1058 102.79 53.142 102.626 53.2223 102.483Z" fill="white"/>
</g>
<path d="M45.25 3.81976C48.1893 2.12275 51.8107 2.12275 54.75 3.81976L88.0513 23.0463C90.9906 24.7433 92.8013 27.8795 92.8013 31.2735V69.7265C92.8013 73.1205 90.9906 76.2567 88.0513 77.9537L54.75 97.1802C51.8107 98.8772 48.1893 98.8772 45.25 97.1802L11.9487 77.9537C9.00942 76.2567 7.19873 73.1205 7.19873 69.7265V31.2735C7.19873 27.8795 9.00942 24.7433 11.9487 23.0463L45.25 3.81976Z" stroke="#3F3D56"/>
</svg>
