<svg xmlns="http://www.w3.org/2000/svg" width="35" height="35" fill="none"><circle cx="17.5" cy="17.5" r="17.5" fill="#F6F9FF"/><path fill="#0033AD" fill-rule="evenodd" d="M17.446 8.863a.582.582 0 1 0 .066-1.162.582.582 0 0 0-.066 1.162m5.06.288a.457.457 0 1 1-.008-.914.457.457 0 0 1 .008.914m-9.841-.027a.458.458 0 1 0-.42-.815.458.458 0 0 0 .42.815m.446 9.229a1.42 1.42 0 0 1-.357-1.024h-.004a1.413 1.413 0 1 1 1.413 1.496h-.077a1.42 1.42 0 0 1-.975-.472m-5.886-1.32a.457.457 0 1 1 .464.789.457.457 0 0 1-.464-.789m7.17-5.69a.706.706 0 1 1-1.229-.696.706.706 0 0 1 1.23.695m-5.123 2.003a.582.582 0 1 0 .639-.972.582.582 0 0 0-.64.972m.46 3.464a.707.707 0 1 1 .718 1.218.707.707 0 0 1-.717-1.218m-.383 4.65a.581.581 0 1 0 .523 1.038.581.581 0 0 0-.523-1.037m3.208-6.07a.831.831 0 1 1-.015-1.662.831.831 0 0 1 .015 1.662m8.245-3.82a.707.707 0 1 0 .772-1.184.707.707 0 0 0-.772 1.184m.111 4.413a1.415 1.415 0 0 0-.162 2.824h.082a1.414 1.414 0 0 0 .08-2.824m-5.828-.258a1.41 1.41 0 0 1-.67-1.265 1.415 1.415 0 0 1 2.826.118 1.414 1.414 0 0 1-1.413 1.356c-.263 0-.52-.072-.743-.21m10.565-2.38a.582.582 0 1 0-.524-1.04.582.582 0 0 0 .524 1.04m-3.935.782a.83.83 0 1 1 1.446.82.83.83 0 0 1-1.446-.82m-3.806-1.717a.832.832 0 1 1-.845-1.433.832.832 0 0 1 .845 1.433m-4.973 8.6a.83.83 0 1 0-.748-1.484.83.83 0 0 0 .748 1.484m4.814-6.384a1.414 1.414 0 1 1 2.818-.23 1.414 1.414 0 0 1-2.818.23m2.685 5.023a1.414 1.414 0 1 0-1.262 2.05 1.414 1.414 0 0 0 1.262-2.05m2.008-.235a.832.832 0 1 1 .013 1.664.832.832 0 0 1-.013-1.664m3.17-1.988a.707.707 0 1 0-1.411-.079.707.707 0 0 0 1.41.08m1.698-.44a.457.457 0 1 1 .463.788.457.457 0 0 1-.463-.788m-1.584 4.473a.581.581 0 1 0-.637.972.581.581 0 0 0 .637-.973m-13.234 4.195a.458.458 0 1 1 .007.916.458.458 0 0 1-.007-.916m9.841.027a.457.457 0 1 0 .412.816.457.457 0 0 0-.412-.816m-5.085-5.506a1.414 1.414 0 1 1-2.82.23 1.414 1.414 0 0 1 2.82-.23m-3.052 3.06a.707.707 0 1 0-.774 1.183.707.707 0 0 0 .774-1.183m2.968 2.786a.581.581 0 1 1 .59 1.002.581.581 0 0 1-.59-1.002m.334-3.74a.832.832 0 1 0-.1 1.662.832.832 0 0 0 .1-1.662m3.104 1.182a.707.707 0 1 1 1.233.693.707.707 0 0 1-1.233-.693" clip-rule="evenodd"/></svg>