<svg width="50" height="50" viewBox="0 0 50 50" fill="none" xmlns="http://www.w3.org/2000/svg">
<circle cx="25" cy="25" r="25" fill="url(#paint0_linear_721_11863)"/>
<path fill-rule="evenodd" clip-rule="evenodd" d="M24.9226 12.6608C25.0868 12.6701 25.25 12.6306 25.3916 12.5472C25.5333 12.4637 25.647 12.3402 25.7184 12.1921C25.7899 12.044 25.8158 11.8781 25.7929 11.7153C25.77 11.5525 25.6993 11.4002 25.5898 11.2775C25.4803 11.1549 25.3369 11.0675 25.1777 11.0264C25.0185 10.9853 24.8507 10.9923 24.6956 11.0466C24.5404 11.1009 24.4048 11.1999 24.3059 11.3313C24.207 11.4626 24.1494 11.6203 24.1401 11.7845C24.1278 12.0044 24.2033 12.2203 24.35 12.3846C24.4967 12.5489 24.7027 12.6483 24.9226 12.6608ZM32.1515 13.0723C32.0222 13.0735 31.8955 13.0363 31.7874 12.9654C31.6426 12.8705 31.5414 12.722 31.506 12.5525C31.4707 12.383 31.504 12.2064 31.5987 12.0615C31.6694 11.9533 31.7707 11.8685 31.8896 11.8179C32.0085 11.7672 32.1398 11.753 32.2668 11.7769C32.3938 11.8009 32.5109 11.862 32.6031 11.9525C32.6954 12.0431 32.7588 12.1589 32.7852 12.2854C32.8116 12.412 32.7999 12.5435 32.7516 12.6634C32.7032 12.7833 32.6204 12.8861 32.5136 12.9589C32.4068 13.0317 32.2808 13.0712 32.1515 13.0723ZM18.0921 13.0338C18.2068 12.9749 18.3015 12.8834 18.3643 12.7708C18.4271 12.6582 18.4552 12.5296 18.445 12.401C18.4348 12.2725 18.3869 12.1499 18.3072 12.0486C18.2274 11.9473 18.1195 11.8718 17.997 11.8317C17.8745 11.7915 17.7429 11.7885 17.6186 11.8231C17.4944 11.8576 17.3832 11.9281 17.299 12.0257C17.2148 12.1233 17.1613 12.2437 17.1453 12.3716C17.1294 12.4995 17.1516 12.6293 17.2092 12.7446C17.2479 12.8218 17.3016 12.8906 17.367 12.947C17.4324 13.0033 17.5084 13.0462 17.5905 13.0731C17.6725 13.0999 17.7591 13.1103 17.8452 13.1036C17.9313 13.0968 18.0152 13.0731 18.0921 13.0338ZM18.7294 26.2181C18.3727 25.8174 18.1895 25.2915 18.2203 24.7559L18.2148 24.757C18.2374 24.3632 18.3748 23.9847 18.6101 23.6681C18.8454 23.3516 19.1682 23.1108 19.5388 22.9756C19.9093 22.8404 20.3113 22.8166 20.6952 22.9072C21.0791 22.9978 21.428 23.1989 21.6989 23.4855C21.9699 23.7722 22.151 24.1319 22.2198 24.5203C22.2887 24.9086 22.2424 25.3087 22.0865 25.671C21.9306 26.0333 21.6721 26.3421 21.3428 26.5592C21.0135 26.7763 20.6278 26.8922 20.2334 26.8926H20.123C19.5874 26.8613 19.0862 26.6187 18.7294 26.2181ZM10.3209 24.3333C10.4319 24.2678 10.56 24.2367 10.6887 24.2439C10.7744 24.2485 10.8583 24.27 10.9356 24.3072C11.0129 24.3444 11.0821 24.3965 11.1392 24.4605C11.1963 24.5244 11.2403 24.5991 11.2685 24.6801C11.2966 24.7611 11.3085 24.8469 11.3035 24.9326C11.2961 25.0613 11.2507 25.185 11.173 25.2879C11.0953 25.3909 10.9889 25.4685 10.8671 25.511C10.7453 25.5535 10.6137 25.5589 10.4889 25.5266C10.364 25.4943 10.2515 25.4257 10.1657 25.3295C10.0798 25.2333 10.0243 25.1138 10.0064 24.9861C9.98839 24.8584 10.0087 24.7282 10.0646 24.612C10.1206 24.4958 10.2098 24.3988 10.3209 24.3333ZM20.5653 16.2034C20.4671 16.3771 20.3196 16.5177 20.1415 16.6075C20.0232 16.6672 19.8942 16.703 19.7621 16.7128C19.6299 16.7227 19.4971 16.7064 19.3712 16.6649C19.2453 16.6234 19.1289 16.5575 19.0285 16.4709C18.9281 16.3844 18.8458 16.2789 18.7862 16.1605C18.6965 15.9824 18.6616 15.7816 18.686 15.5836C18.7103 15.3856 18.7929 15.1993 18.9231 15.0482C19.0534 14.8971 19.2255 14.788 19.4177 14.7348C19.61 14.6815 19.8137 14.6864 20.0031 14.7489C20.1926 14.8114 20.3592 14.9286 20.482 15.0858C20.6049 15.243 20.6783 15.4331 20.6931 15.632C20.7079 15.8309 20.6634 16.0298 20.5653 16.2034ZM13.2449 19.0654C13.3823 19.1557 13.5434 19.2033 13.7078 19.202C13.8722 19.2008 14.0326 19.1508 14.1686 19.0584C14.3046 18.966 14.4101 18.8354 14.4718 18.683C14.5336 18.5306 14.5487 18.3633 14.5153 18.2023C14.482 18.0413 14.4016 17.8938 14.2844 17.7785C14.1671 17.6632 14.0184 17.5853 13.8568 17.5546C13.6953 17.5239 13.5283 17.5417 13.3769 17.606C13.2256 17.6702 13.0967 17.7778 13.0065 17.9154C12.8858 18.0995 12.8431 18.3241 12.8878 18.5397C12.9325 18.7553 13.0609 18.9444 13.2449 19.0654ZM13.9041 24.0144C14.0759 23.9132 14.2739 23.8651 14.4731 23.8764C14.7403 23.8917 14.9904 24.0125 15.1686 24.2122C15.3468 24.4119 15.4384 24.6742 15.4233 24.9414C15.4119 25.1405 15.3417 25.3318 15.2215 25.491C15.1014 25.6503 14.9367 25.7703 14.7484 25.836C14.5601 25.9017 14.3565 25.9101 14.1634 25.8601C13.9703 25.8101 13.7963 25.7039 13.6635 25.5551C13.5307 25.4063 13.445 25.2214 13.4173 25.0239C13.3895 24.8263 13.421 24.625 13.5076 24.4453C13.5942 24.2657 13.7322 24.1157 13.9041 24.0144ZM13.3552 30.6584C13.2086 30.7325 13.0872 30.8485 13.0064 30.9916C12.9256 31.1347 12.8891 31.2985 12.9014 31.4624C12.9137 31.6263 12.9743 31.7828 13.0756 31.9123C13.1769 32.0417 13.3142 32.1382 13.4703 32.1895C13.6264 32.2409 13.7943 32.2448 13.9526 32.2008C14.1109 32.1568 14.2527 32.0669 14.3599 31.9423C14.4671 31.8178 14.535 31.6643 14.555 31.5012C14.575 31.338 14.5462 31.1727 14.4722 31.0259C14.423 30.9284 14.3551 30.8416 14.2723 30.7703C14.1896 30.6991 14.0936 30.6448 13.9899 30.6107C13.8861 30.5766 13.7767 30.5632 13.6678 30.5714C13.5589 30.5796 13.4527 30.6091 13.3552 30.6584ZM17.9382 21.9857C17.7033 21.9878 17.4731 21.9202 17.2767 21.7915C17.1461 21.7061 17.0337 21.5958 16.9458 21.4669C16.8579 21.3379 16.7963 21.193 16.7645 21.0402C16.7327 20.8875 16.7314 20.7299 16.7606 20.5767C16.7897 20.4234 16.8489 20.2774 16.9345 20.147C17.0633 19.9506 17.2475 19.7968 17.4637 19.705C17.6799 19.6133 17.9184 19.5877 18.1492 19.6315C18.3799 19.6753 18.5925 19.7866 18.76 19.9512C18.9275 20.1158 19.0424 20.3264 19.0903 20.5563C19.1381 20.7863 19.1167 21.0252 19.0287 21.243C18.9408 21.4608 18.7902 21.6476 18.5961 21.7798C18.402 21.912 18.173 21.9836 17.9382 21.9857ZM29.7172 16.528C29.8845 16.6371 30.0803 16.6942 30.28 16.692C30.4797 16.6898 30.6742 16.6285 30.8391 16.5157C31.0039 16.403 31.1316 16.2439 31.206 16.0586C31.2805 15.8733 31.2983 15.6701 31.2573 15.4747C31.2162 15.2793 31.1182 15.1004 30.9755 14.9607C30.8328 14.821 30.6519 14.7267 30.4557 14.6898C30.2594 14.6528 30.0567 14.6749 29.873 14.7532C29.6893 14.8315 29.5329 14.9625 29.4236 15.1297C29.3509 15.2407 29.3008 15.365 29.2762 15.4954C29.2515 15.6259 29.2529 15.7599 29.2802 15.8898C29.3075 16.0197 29.3601 16.1429 29.4351 16.2525C29.5101 16.362 29.606 16.4556 29.7172 16.528ZM29.8759 22.8333C29.611 22.8181 29.3458 22.8552 29.0952 22.9425C28.8447 23.0298 28.6138 23.1656 28.4158 23.3421C28.0158 23.6987 27.7738 24.1995 27.7431 24.7344C27.7123 25.2693 27.8954 25.7946 28.2519 26.1946C28.6084 26.5945 29.1092 26.8365 29.6441 26.8673H29.7611C30.1508 26.8671 30.5321 26.7541 30.8591 26.5421C31.186 26.3301 31.4447 26.028 31.6038 25.6723C31.7629 25.3166 31.8158 24.9224 31.7559 24.5374C31.6961 24.1523 31.5261 23.7928 31.2665 23.5022C31.0908 23.3039 30.8773 23.1427 30.6385 23.0279C30.3997 22.913 30.1405 22.8469 29.8759 22.8333ZM21.5496 22.4642C21.2306 22.2678 20.9727 21.9863 20.8051 21.6513C20.6509 21.3435 20.5779 21.0014 20.593 20.6574C20.6082 20.3134 20.711 19.979 20.8916 19.686C21.0723 19.3929 21.3248 19.1508 21.6253 18.9827C21.9257 18.8146 22.2642 18.7261 22.6085 18.7255C22.9822 18.7237 23.3491 18.826 23.668 19.0209C23.9869 19.2158 24.2452 19.4957 24.4141 19.8291C24.5701 20.1373 24.6445 20.4802 24.6302 20.8253C24.616 21.1703 24.5135 21.506 24.3327 21.8002C24.1518 22.0944 23.8986 22.3374 23.5971 22.5059C23.2956 22.6744 22.956 22.7628 22.6107 22.7627C22.2361 22.7639 21.8686 22.6605 21.5496 22.4642ZM36.6427 19.0632C36.7894 18.9891 36.9108 18.8733 36.9917 18.7303C37.0726 18.5872 37.1092 18.4234 37.097 18.2595C37.0848 18.0957 37.0243 17.9391 36.9232 17.8096C36.822 17.6801 36.6848 17.5835 36.5287 17.532C36.3727 17.4805 36.2049 17.4764 36.0465 17.5203C35.8882 17.5641 35.7464 17.6539 35.639 17.7783C35.5317 17.9028 35.4636 18.0562 35.4435 18.2193C35.4233 18.3823 35.452 18.5477 35.5258 18.6945C35.6251 18.8914 35.7985 19.0409 36.0079 19.11C36.2174 19.1791 36.4457 19.1623 36.6427 19.0632ZM31.0213 20.1822C31.137 19.9778 31.3108 19.8123 31.5205 19.7067C31.6598 19.6364 31.8115 19.5942 31.9671 19.5826C32.1227 19.571 32.279 19.5903 32.4271 19.6391C32.5752 19.688 32.7123 19.7657 32.8304 19.8676C32.9485 19.9695 33.0453 20.0937 33.1153 20.2331C33.221 20.4429 33.2621 20.6793 33.2334 20.9124C33.2047 21.1455 33.1075 21.3649 32.9541 21.5428C32.8007 21.7206 32.5981 21.8491 32.3717 21.9117C32.1454 21.9744 31.9055 21.9686 31.6825 21.895C31.4594 21.8214 31.2632 21.6832 31.1187 21.4981C30.9741 21.313 30.8877 21.0891 30.8704 20.8549C30.8531 20.6207 30.9056 20.3866 31.0213 20.1822ZM25.5836 17.7283C25.3813 17.8476 25.1483 17.9043 24.9138 17.8911C24.5992 17.8732 24.3046 17.731 24.0947 17.4959C23.8848 17.2608 23.7769 16.952 23.7947 16.6373C23.8082 16.4029 23.8908 16.1778 24.0322 15.9903C24.1736 15.8028 24.3674 15.6615 24.5891 15.5841C24.8108 15.5068 25.0505 15.4969 25.2778 15.5557C25.5051 15.6146 25.7099 15.7394 25.8663 15.9146C26.0226 16.0898 26.1235 16.3074 26.1563 16.5399C26.189 16.7724 26.1521 17.0094 26.0501 17.2209C25.9482 17.4325 25.7859 17.609 25.5836 17.7283ZM18.4795 30.0138C18.6893 29.9081 18.863 29.7425 18.9786 29.538C19.0942 29.3336 19.1466 29.0994 19.1292 28.8652C19.1117 28.6309 19.0252 28.4071 18.8805 28.2221C18.7359 28.037 18.5396 27.899 18.3165 27.8255C18.0934 27.752 17.8535 27.7463 17.6271 27.8092C17.4008 27.872 17.1982 28.0006 17.045 28.1786C16.8917 28.3566 16.7947 28.5761 16.7661 28.8092C16.7376 29.0424 16.7789 29.2788 16.8847 29.4885C17.0266 29.7696 17.2743 29.9828 17.5734 30.0814C17.8724 30.1799 18.1984 30.1556 18.4795 30.0138ZM25.3573 20.8949C25.3208 20.447 25.4347 19.9997 25.681 19.6239C25.8651 19.3432 26.1162 19.1129 26.4116 18.9535C26.7069 18.7942 27.0373 18.7109 27.3729 18.7111C27.8223 18.7117 28.2587 18.8621 28.6129 19.1386C28.9672 19.4151 29.2192 19.8018 29.3289 20.2376C29.4387 20.6734 29.3999 21.1333 29.2189 21.5446C29.0378 21.9559 28.7248 22.295 28.3293 22.5084C27.9338 22.7218 27.4784 22.7971 27.0353 22.7226C26.5921 22.648 26.1865 22.4278 25.8826 22.0968C25.5786 21.7657 25.3938 21.3428 25.3573 20.8949ZM29.1929 28.0703C29.0311 27.7494 28.7866 27.4775 28.4846 27.2827C28.1827 27.0878 27.8342 26.9771 27.4751 26.9618C27.1161 26.9466 26.7595 27.0274 26.4421 27.196C26.1247 27.3646 25.8581 27.6148 25.6696 27.9208C25.4812 28.2269 25.3779 28.5776 25.3703 28.9369C25.3626 29.2962 25.451 29.651 25.6263 29.9648C25.8016 30.2785 26.0574 30.5398 26.3673 30.7217C26.6773 30.9036 27.0302 30.9995 27.3895 30.9995C27.7057 30.9973 28.017 30.9217 28.299 30.7787C28.7759 30.5373 29.1377 30.1168 29.3053 29.6091C29.4728 29.1015 29.4324 28.5482 29.1929 28.0703ZM32.0613 27.7343C32.2962 27.7324 32.5263 27.8001 32.7227 27.929C32.9855 28.1023 33.169 28.3726 33.2329 28.6808C33.2968 28.9891 33.236 29.3101 33.0637 29.5735C32.9348 29.7699 32.7506 29.9236 32.5343 30.0152C32.3181 30.1069 32.0795 30.1323 31.8488 30.0884C31.618 30.0444 31.4055 29.9331 31.2381 29.7683C31.0707 29.6036 30.9558 29.3929 30.9081 29.1629C30.8604 28.933 30.882 28.694 30.9701 28.4763C31.0582 28.2586 31.2089 28.0719 31.4032 27.9398C31.5974 27.8077 31.8264 27.7362 32.0613 27.7343ZM36.5898 24.895C36.601 24.6958 36.553 24.4978 36.4517 24.326C36.3504 24.1541 36.2005 24.0162 36.0208 23.9295C35.8411 23.8429 35.6398 23.8115 35.4423 23.8392C35.2448 23.867 35.0599 23.9527 34.9111 24.0855C34.7622 24.2183 34.6561 24.3922 34.6061 24.5853C34.5561 24.7784 34.5645 24.982 34.6301 25.1703C34.6958 25.3587 34.8159 25.5233 34.9751 25.6435C35.1343 25.7636 35.3256 25.8338 35.5248 25.8453C35.792 25.8603 36.0542 25.7687 36.2539 25.5905C36.4536 25.4124 36.5744 25.1622 36.5898 24.895ZM39.0153 24.2656C39.1267 24.2001 39.255 24.1691 39.384 24.1765C39.5569 24.1867 39.7187 24.2651 39.8339 24.3944C39.9491 24.5237 40.0084 24.6934 39.9988 24.8663C39.9913 24.9953 39.9458 25.1192 39.868 25.2224C39.7901 25.3255 39.6835 25.4033 39.5614 25.4458C39.4394 25.4883 39.3075 25.4937 39.1824 25.4612C39.0573 25.4288 38.9447 25.36 38.8587 25.2635C38.7727 25.167 38.7173 25.0472 38.6994 24.9192C38.6815 24.7913 38.7019 24.6608 38.7582 24.5445C38.8144 24.4281 38.9039 24.3311 39.0153 24.2656ZM36.7531 30.6551C36.6157 30.565 36.4546 30.5178 36.2902 30.5192C36.1259 30.5207 35.9657 30.5709 35.8299 30.6634C35.6941 30.756 35.5887 30.8867 35.5272 31.0391C35.4657 31.1915 35.4507 31.3587 35.4842 31.5196C35.5176 31.6805 35.5981 31.8278 35.7153 31.943C35.8325 32.0582 35.9812 32.1361 36.1427 32.1667C36.3041 32.1974 36.471 32.1795 36.6223 32.1154C36.7736 32.0512 36.9025 31.9436 36.9926 31.8062C37.0525 31.7149 37.0939 31.6127 37.1143 31.5054C37.1346 31.3981 37.1337 31.2879 37.1114 31.181C37.0892 31.0741 37.0461 30.9726 36.9846 30.8824C36.9232 30.7921 36.8445 30.7149 36.7531 30.6551ZM17.8473 36.648C17.9765 36.6469 18.1032 36.6842 18.2112 36.7551C18.2829 36.8022 18.3447 36.8629 18.393 36.9339C18.4413 37.0049 18.4751 37.0847 18.4925 37.1687C18.5099 37.2528 18.5106 37.3394 18.4945 37.4237C18.4785 37.508 18.4459 37.5884 18.3988 37.6601C18.3279 37.7681 18.2265 37.8526 18.1075 37.903C17.9885 37.9534 17.8573 37.9674 17.7304 37.9432C17.6034 37.919 17.4865 37.8577 17.3944 37.767C17.3023 37.6764 17.2392 37.5605 17.213 37.434C17.1867 37.3075 17.1986 37.176 17.2471 37.0562C17.2955 36.9365 17.3784 36.8338 17.4853 36.7611C17.5921 36.6884 17.7181 36.6491 17.8473 36.648ZM31.9057 36.6867C31.7903 36.7448 31.6947 36.8359 31.6311 36.9484C31.5674 37.0609 31.5386 37.1897 31.5482 37.3186C31.5578 37.4475 31.6054 37.5706 31.6849 37.6724C31.7645 37.7743 31.8725 37.8502 31.9953 37.8907C32.118 37.9311 32.25 37.9342 32.3745 37.8997C32.499 37.8651 32.6105 37.7944 32.6948 37.6965C32.7792 37.5986 32.8326 37.4778 32.8483 37.3495C32.864 37.2213 32.8413 37.0912 32.7831 36.9758C32.7446 36.8991 32.6913 36.8308 32.6263 36.7747C32.5613 36.7187 32.4859 36.676 32.4044 36.6491C32.3229 36.6223 32.2369 36.6118 32.1513 36.6182C32.0657 36.6246 31.9823 36.6479 31.9057 36.6867ZM24.6406 28.8221C24.6771 29.2701 24.5632 29.7174 24.3169 30.0933C24.1337 30.3745 23.883 30.6054 23.5876 30.7648C23.2923 30.9243 22.9617 31.0072 22.626 31.0061C22.1766 31.0057 21.7401 30.8555 21.3857 30.5792C21.0313 30.3028 20.7791 29.9162 20.6692 29.4804C20.5592 29.0446 20.5978 28.5846 20.7787 28.1732C20.9597 27.7618 21.2726 27.4225 21.6681 27.209C22.0636 26.9955 22.519 26.9201 22.9622 26.9945C23.4054 27.069 23.8112 27.2892 24.1151 27.6202C24.4191 27.9512 24.604 28.3742 24.6406 28.8221ZM20.2808 33.1936C20.1138 33.0844 19.9183 33.0271 19.7188 33.029C19.5194 33.0309 19.3249 33.092 19.1601 33.2043C18.9953 33.3167 18.8676 33.4755 18.793 33.6604C18.7184 33.8454 18.7003 34.0484 18.741 34.2437C18.7817 34.4389 18.8794 34.6178 19.0217 34.7575C19.1641 34.8973 19.3446 34.9917 19.5406 35.0288C19.7366 35.066 19.9392 35.0442 20.1228 34.9663C20.3064 34.8883 20.4628 34.7576 20.5721 34.5908C20.7186 34.3669 20.7702 34.0939 20.7156 33.8319C20.6609 33.5699 20.5046 33.3403 20.2808 33.1936ZM24.5211 37.1733C24.6628 37.0899 24.8259 37.0504 24.99 37.0597C25.099 37.0659 25.2057 37.0935 25.3041 37.141C25.4024 37.1884 25.4904 37.2548 25.5631 37.3363C25.6357 37.4178 25.6916 37.5128 25.7276 37.6159C25.7635 37.7189 25.7788 37.8281 25.7725 37.9371C25.7631 38.1012 25.7052 38.2588 25.6062 38.39C25.5072 38.5212 25.3716 38.6201 25.2164 38.6742C25.0612 38.7283 24.8935 38.7351 24.7344 38.6939C24.5753 38.6527 24.432 38.5652 24.3226 38.4426C24.2132 38.3199 24.1426 38.1676 24.1198 38.0048C24.097 37.8421 24.1229 37.6762 24.1944 37.5282C24.2658 37.3802 24.3795 37.2567 24.5211 37.1733ZM24.9988 31.8305C24.7641 31.8163 24.5305 31.872 24.3276 31.9906C24.1246 32.1092 23.9614 32.2853 23.8586 32.4968C23.7559 32.7082 23.7182 32.9454 23.7503 33.1782C23.7825 33.4111 23.883 33.6292 24.0392 33.8049C24.1954 33.9806 24.4002 34.106 24.6277 34.1652C24.8552 34.2244 25.0951 34.2147 25.3171 34.1374C25.5392 34.0601 25.7332 33.9187 25.8748 33.731C26.0164 33.5434 26.099 33.3179 26.1124 33.0832C26.1305 32.7695 26.0234 32.4614 25.8146 32.2266C25.6058 31.9917 25.3124 31.8493 24.9988 31.8305ZM29.4329 33.5189C29.5308 33.3446 29.6782 33.2034 29.8564 33.113C29.9744 33.0527 30.1031 33.0164 30.2352 33.006C30.3673 32.9956 30.5001 33.0114 30.6261 33.0524C30.7521 33.0934 30.8688 33.1588 30.9695 33.245C31.0701 33.3311 31.1528 33.4363 31.2128 33.5544C31.3036 33.7324 31.3396 33.9334 31.3162 34.1318C31.2928 34.3303 31.211 34.5173 31.0813 34.6693C30.9515 34.8213 30.7796 34.9313 30.5872 34.9855C30.3949 35.0397 30.1908 35.0356 30.0008 34.9738C29.8107 34.912 29.6433 34.7951 29.5198 34.6381C29.3962 34.4811 29.3219 34.2909 29.3065 34.0917C29.291 33.8924 29.335 33.6931 29.4329 33.5189Z" fill="white"/>
<defs>
<linearGradient id="paint0_linear_721_11863" x1="50" y1="0" x2="-4.94728" y2="6.20743" gradientUnits="userSpaceOnUse">
<stop stop-color="#5A9C56"/>
<stop offset="1" stop-color="#184C78"/>
</linearGradient>
</defs>
</svg>
