<svg width="50" height="50" viewBox="0 0 50 50" fill="none" xmlns="http://www.w3.org/2000/svg">
<circle cx="25" cy="25" r="25" fill="url(#paint0_linear_383_7003)"/>
<path fill-rule="evenodd" clip-rule="evenodd" d="M40.7316 24.1642C40.7022 24.3581 40.6763 24.5528 40.6504 24.7476L40.6504 24.7477C40.5949 25.1646 40.5394 25.5816 40.4494 25.9913C39.8122 28.8924 38.2624 31.2426 36.0108 33.1362C33.3765 35.3511 30.3079 36.5572 26.8999 36.9294C23.5974 37.2899 20.4171 36.8246 17.395 35.4354C14.2817 34.0047 11.7752 31.8717 10.283 28.7466C8.23129 24.4496 8.66373 20.2977 11.4122 16.4417C13.624 13.3378 16.7299 11.487 20.3904 10.5818C24.6881 9.51904 28.8747 9.89254 32.8603 11.8649C36.076 13.4563 38.5118 15.8362 39.8879 19.2057C40.3309 20.2915 40.5921 21.4231 40.6783 22.5939C40.683 22.656 40.6979 22.7176 40.7128 22.7792C40.7196 22.8073 40.7264 22.8355 40.7323 22.8638V24.1642H40.7316ZM24.8779 35.7599C26.2156 35.7649 27.5364 35.6216 28.8338 35.3033C32.2467 34.4663 35.159 32.811 37.2684 29.9441C39.3276 27.1459 39.9753 24.0333 39.0323 20.6606C38.2959 18.0282 36.7156 15.9516 34.5199 14.3708C30.4134 11.4163 25.8427 10.6693 20.9593 11.7551C17.8045 12.4568 15.082 13.9768 12.9893 16.479C10.6404 19.2876 9.76126 22.499 10.6478 26.0956C11.3247 28.8422 12.9459 30.9783 15.1869 32.6504C18.057 34.7921 21.3266 35.727 24.8779 35.7599ZM26.8223 40.9479V40.9478C26.9732 40.926 27.1204 40.9057 27.265 40.8858L27.2656 40.8857C27.565 40.8444 27.8534 40.8047 28.1401 40.7562C29.7545 40.4826 31.3062 40.0048 32.7821 39.2932C32.8752 39.2485 32.9962 39.1325 32.998 39.0475C33.011 38.4188 33.0099 37.79 33.0087 37.1361C33.0083 36.944 33.008 36.7498 33.008 36.5528C31.0152 37.4623 28.9665 38.0071 26.8223 38.2286V40.9478L26.8217 40.9479H26.8223ZM22.9441 38.2255C20.7986 38.0046 18.7494 37.4642 16.769 36.5559V36.5553C16.7665 36.5994 16.7637 36.6388 16.7612 36.6751L16.7612 36.6751C16.7563 36.7464 16.7522 36.8056 16.7522 36.8649C16.7518 37.0788 16.7525 37.2929 16.7531 37.5069V37.5069V37.507V37.507V37.5071V37.5071V37.5072V37.5072V37.5072V37.5072V37.5072V37.5073V37.5073C16.7546 37.9734 16.756 38.4395 16.7466 38.9054C16.7429 39.1108 16.8074 39.2138 16.9948 39.3013C18.2871 39.9062 19.6291 40.3585 21.0288 40.6327C21.458 40.7169 21.8904 40.7843 22.3277 40.8525L22.3277 40.8525L22.3278 40.8525L22.3278 40.8525L22.3278 40.8525L22.3279 40.8525L22.328 40.8525L22.3287 40.8527C22.5327 40.8845 22.7378 40.9164 22.9441 40.9504V38.2255ZM40.3613 29.8962L40.3609 29.8979C39.6538 31.1114 38.8141 32.214 37.8231 33.2006C37.7249 33.2982 37.6142 33.3902 37.5035 33.4822C37.2617 33.6831 37.0204 33.8835 36.9123 34.1406C36.801 34.4038 36.8251 34.7242 36.8492 35.0445V35.0445V35.0445V35.0445V35.0445V35.0446C36.8596 35.1832 36.8701 35.3219 36.8695 35.4559C36.8687 35.6442 36.8689 35.8326 36.8692 36.045C36.8694 36.1607 36.8695 36.2836 36.8695 36.4175C38.7099 34.5263 39.8427 32.3752 40.3609 29.8979L40.3619 29.8962H40.3613ZM9.53411 30.0881L9.53403 30.088L9.53399 30.0879L9.53397 30.0879C9.50306 30.0357 9.47217 29.9836 9.44112 29.9316H9.4405C9.9356 32.4108 11.066 34.5432 12.8541 36.3282C12.8901 35.6606 12.9025 35.003 12.8808 34.3466C12.8764 34.1958 12.7933 34.0066 12.6816 33.9073C11.5189 32.8706 10.5157 31.7023 9.70356 30.3715C9.64641 30.2776 9.59029 30.1829 9.5342 30.0883L9.53411 30.0881ZM34.2954 38.491L34.2952 37.9252C34.2949 37.2625 34.2946 36.6439 34.2985 36.0254C34.2985 35.9634 34.3276 35.8734 34.3735 35.8436C34.6795 35.6461 34.9898 35.4551 35.3221 35.2507L35.5852 35.0886L35.5854 35.5488V35.5496V35.5497V35.5498C35.5856 36.2023 35.5859 36.8321 35.5809 37.4623C35.5809 37.5225 35.535 37.6019 35.4853 37.6379C35.207 37.843 34.9252 38.0433 34.6143 38.2641C34.5115 38.3372 34.4055 38.4125 34.2954 38.491ZM25.4971 38.3229H24.2687V41H25.4971V38.3229ZM15.4636 38.4854C15.3386 38.3954 15.2192 38.3099 15.1041 38.2274C14.805 38.0132 14.5346 37.8195 14.268 37.6205C14.2196 37.5846 14.1793 37.502 14.1787 37.4412C14.1739 36.8445 14.1743 36.2481 14.1747 35.6313L14.175 35.0905L14.4547 35.2616L14.4549 35.2617C14.7766 35.4585 15.0804 35.6443 15.3817 35.835C15.4239 35.8616 15.4605 35.9342 15.4605 35.9857C15.4646 36.6501 15.4645 37.3148 15.4643 38.0369L15.4642 38.486L15.4636 38.4854ZM15.6379 31.3915C18.3331 33.5375 21.4619 34.4415 24.7309 34.4955C26.1095 34.4806 27.3398 34.3615 28.5465 34.0655C31.6015 33.316 34.2488 31.8711 36.1511 29.3131C38.469 26.196 38.8567 22.8197 37.1295 19.3044C35.9426 16.8884 33.9851 15.2182 31.5816 14.0785C27.9614 12.3618 24.2004 12.1235 20.3712 13.2316C17.6388 14.0227 15.3085 15.4788 13.58 17.7818C11.9489 19.9539 11.2813 22.3934 11.7441 25.0929C12.1927 27.7093 13.5949 29.7641 15.6379 31.3915ZM24.7947 15.6652C24.9009 15.6713 25.0064 15.6457 25.0981 15.5917C25.1897 15.5378 25.2633 15.4578 25.3094 15.3621C25.3556 15.2663 25.3724 15.159 25.3576 15.0537C25.3428 14.9484 25.2971 14.8498 25.2262 14.7705C25.1554 14.6912 25.0626 14.6346 24.9597 14.6081C24.8567 14.5815 24.7482 14.586 24.6478 14.6211C24.5474 14.6562 24.4597 14.7203 24.3958 14.8053C24.3318 14.8902 24.2945 14.9922 24.2886 15.0984C24.2806 15.2407 24.3294 15.3803 24.4243 15.4866C24.5192 15.5929 24.6524 15.6571 24.7947 15.6652ZM29.4705 15.9314C29.3869 15.9322 29.3049 15.9081 29.235 15.8623C29.1413 15.8009 29.0759 15.7048 29.053 15.5952C29.0301 15.4856 29.0516 15.3713 29.1129 15.2776C29.1586 15.2076 29.2241 15.1528 29.301 15.12C29.378 15.0872 29.4629 15.078 29.545 15.0935C29.6272 15.109 29.7029 15.1486 29.7626 15.2071C29.8223 15.2657 29.8633 15.3406 29.8804 15.4224C29.8974 15.5043 29.8899 15.5894 29.8586 15.6669C29.8273 15.7444 29.7738 15.811 29.7047 15.858C29.6356 15.9051 29.5541 15.9307 29.4705 15.9314ZM20.3764 15.9065C20.4506 15.8684 20.5119 15.8092 20.5525 15.7364C20.5931 15.6636 20.6113 15.5804 20.6047 15.4972C20.5981 15.4141 20.5671 15.3348 20.5155 15.2692C20.464 15.2037 20.3942 15.1549 20.3149 15.1289C20.2357 15.103 20.1505 15.1011 20.0702 15.1234C19.9898 15.1457 19.9179 15.1913 19.8634 15.2545C19.8089 15.3176 19.7744 15.3954 19.764 15.4782C19.7537 15.5609 19.7681 15.6449 19.8053 15.7195C19.8304 15.7694 19.8651 15.8139 19.9074 15.8503C19.9497 15.8868 19.9989 15.9145 20.0519 15.9319C20.105 15.9493 20.161 15.956 20.2167 15.9516C20.2724 15.9473 20.3267 15.9319 20.3764 15.9065ZM20.7885 24.4344C20.5578 24.1753 20.4393 23.8351 20.4592 23.4887L20.4556 23.4894C20.4703 23.2347 20.5592 22.9898 20.7114 22.7851C20.8635 22.5803 21.0724 22.4246 21.312 22.3371C21.5517 22.2496 21.8117 22.2343 22.06 22.2929C22.3083 22.3515 22.534 22.4815 22.7093 22.6669C22.8846 22.8524 23.0017 23.085 23.0462 23.3362C23.0908 23.5874 23.0608 23.8462 22.96 24.0806C22.8592 24.3149 22.6919 24.5146 22.4789 24.6551C22.2659 24.7955 22.0165 24.8705 21.7613 24.8707H21.6899C21.3435 24.8505 21.0193 24.6936 20.7885 24.4344ZM15.3498 23.2153C15.4216 23.1729 15.5044 23.1528 15.5877 23.1574C15.6431 23.1604 15.6974 23.1743 15.7474 23.1984C15.7974 23.2224 15.8421 23.2561 15.8791 23.2975C15.916 23.3389 15.9444 23.3872 15.9627 23.4396C15.9809 23.492 15.9886 23.5475 15.9853 23.6029C15.9805 23.6862 15.9512 23.7662 15.9009 23.8327C15.8507 23.8993 15.7818 23.9495 15.7031 23.977C15.6243 24.0045 15.5392 24.008 15.4584 23.9871C15.3777 23.9662 15.3049 23.9218 15.2494 23.8596C15.1938 23.7974 15.158 23.7201 15.1463 23.6375C15.1347 23.5549 15.1478 23.4707 15.184 23.3955C15.2202 23.3204 15.2779 23.2577 15.3498 23.2153ZM21.9762 17.9567C21.9127 18.069 21.8173 18.16 21.7021 18.2181C21.6256 18.2567 21.5422 18.2798 21.4567 18.2862C21.3712 18.2926 21.2853 18.282 21.2039 18.2552C21.1225 18.2283 21.0472 18.1857 20.9822 18.1297C20.9173 18.0737 20.864 18.0055 20.8255 17.9289C20.7675 17.8137 20.7449 17.6838 20.7607 17.5558C20.7764 17.4277 20.8298 17.3072 20.9141 17.2095C20.9983 17.1117 21.1096 17.0412 21.234 17.0067C21.3583 16.9723 21.4901 16.9754 21.6126 17.0158C21.7352 17.0563 21.843 17.1321 21.9224 17.2338C22.0019 17.3354 22.0494 17.4584 22.059 17.5871C22.0685 17.7157 22.0397 17.8444 21.9762 17.9567ZM17.2411 19.8079C17.3299 19.8663 17.4341 19.8971 17.5405 19.8963C17.6468 19.8955 17.7505 19.8632 17.8385 19.8034C17.9265 19.7436 17.9947 19.6591 18.0347 19.5605C18.0746 19.462 18.0844 19.3538 18.0628 19.2496C18.0412 19.1455 17.9892 19.0501 17.9134 18.9755C17.8376 18.9009 17.7413 18.8505 17.6369 18.8307C17.5324 18.8108 17.4244 18.8224 17.3265 18.8639C17.2286 18.9054 17.1452 18.9751 17.0869 19.064C17.0088 19.1831 16.9812 19.3284 17.0101 19.4679C17.039 19.6073 17.1221 19.7296 17.2411 19.8079ZM17.6675 23.009C17.7786 22.9435 17.9067 22.9124 18.0355 22.9197C18.2084 22.9297 18.3702 23.0078 18.4854 23.137C18.6007 23.2661 18.6599 23.4358 18.6502 23.6086C18.6428 23.7374 18.5974 23.8611 18.5197 23.9641C18.442 24.0671 18.3355 24.1448 18.2136 24.1873C18.0918 24.2298 17.9601 24.2352 17.8352 24.2028C17.7103 24.1705 17.5978 24.1018 17.5119 24.0056C17.426 23.9093 17.3706 23.7897 17.3526 23.662C17.3347 23.5342 17.355 23.404 17.4111 23.2878C17.4671 23.1715 17.5563 23.0745 17.6675 23.009ZM17.3125 27.3065C17.2176 27.3545 17.1391 27.4295 17.0868 27.522C17.0346 27.6146 17.0109 27.7206 17.0189 27.8266C17.0269 27.9326 17.0661 28.0338 17.1316 28.1175C17.1971 28.2013 17.2859 28.2637 17.3869 28.2969C17.4879 28.3301 17.5964 28.3327 17.6989 28.3042C17.8013 28.2757 17.893 28.2176 17.9623 28.137C18.0317 28.0564 18.0756 27.9571 18.0885 27.8516C18.1014 27.7461 18.0828 27.6391 18.0349 27.5442C18.0031 27.4812 17.9592 27.425 17.9057 27.3789C17.8521 27.3328 17.79 27.2977 17.723 27.2757C17.6559 27.2536 17.5851 27.2449 17.5146 27.2502C17.4442 27.2555 17.3755 27.2746 17.3125 27.3065ZM20.2767 21.6968C20.1248 21.6982 19.9759 21.6544 19.8489 21.5712C19.7644 21.5159 19.6917 21.4446 19.6348 21.3612C19.578 21.2778 19.5381 21.184 19.5176 21.0852C19.497 20.9864 19.4962 20.8845 19.515 20.7854C19.5339 20.6863 19.5721 20.5918 19.6276 20.5075C19.7109 20.3805 19.83 20.281 19.9698 20.2216C20.1097 20.1623 20.264 20.1457 20.4132 20.1741C20.5625 20.2024 20.6999 20.2743 20.8083 20.3808C20.9167 20.4873 20.991 20.6235 21.0219 20.7722C21.0529 20.921 21.039 21.0755 20.9821 21.2164C20.9252 21.3573 20.8279 21.4781 20.7023 21.5636C20.5767 21.6491 20.4286 21.6955 20.2767 21.6968ZM27.8958 18.1667C28.0039 18.2372 28.1306 18.2741 28.2598 18.2727C28.3889 18.2713 28.5148 18.2316 28.6214 18.1587C28.728 18.0858 28.8106 17.9829 28.8587 17.8631C28.9069 17.7432 28.9184 17.6118 28.8919 17.4854C28.8653 17.3589 28.8019 17.2432 28.7096 17.1529C28.6174 17.0625 28.5004 17.0015 28.3734 16.9776C28.2465 16.9537 28.1153 16.968 27.9965 17.0187C27.8777 17.0693 27.7765 17.1541 27.7059 17.2622C27.6588 17.334 27.6264 17.4144 27.6105 17.4988C27.5945 17.5831 27.5954 17.6698 27.6131 17.7538C27.6307 17.8379 27.6648 17.9176 27.7133 17.9884C27.7618 18.0593 27.8238 18.1198 27.8958 18.1667ZM27.9986 22.2451C27.8272 22.2352 27.6556 22.2592 27.4936 22.3157C27.3315 22.3722 27.1822 22.46 27.0541 22.5742C26.7954 22.8048 26.6389 23.1287 26.619 23.4747C26.5991 23.8207 26.7175 24.1605 26.9481 24.4192C27.1787 24.6779 27.5026 24.8344 27.8486 24.8543H27.9243C28.1764 24.8542 28.423 24.7811 28.6345 24.644C28.846 24.5069 29.0133 24.3115 29.1162 24.0814C29.2191 23.8513 29.2533 23.5964 29.2146 23.3473C29.1759 23.0982 29.066 22.8657 28.8981 22.6777C28.7843 22.5495 28.6463 22.4452 28.4918 22.3709C28.3374 22.2966 28.1697 22.2538 27.9986 22.2451ZM22.6127 22.0063C22.4064 21.8793 22.2396 21.6972 22.1311 21.4805C22.0314 21.2814 21.9842 21.0601 21.994 20.8376C22.0038 20.6151 22.0703 20.3988 22.1871 20.2093C22.304 20.0197 22.4673 19.8631 22.6617 19.7544C22.856 19.6457 23.0749 19.5884 23.2976 19.588C23.5394 19.5869 23.7767 19.653 23.983 19.7791C24.1892 19.9052 24.3563 20.0862 24.4655 20.3019C24.5664 20.5012 24.6146 20.723 24.6054 20.9462C24.5961 21.1694 24.5299 21.3865 24.4129 21.5768C24.2959 21.7671 24.1321 21.9243 23.9371 22.0332C23.7421 22.1422 23.5224 22.1994 23.2991 22.1994C23.0568 22.2002 22.8191 22.1333 22.6127 22.0063ZM32.3753 19.8065C32.4702 19.7586 32.5488 19.6836 32.6011 19.5911C32.6534 19.4986 32.6771 19.3926 32.6692 19.2867C32.6614 19.1807 32.6222 19.0794 32.5568 18.9956C32.4914 18.9119 32.4026 18.8494 32.3016 18.8161C32.2007 18.7828 32.0922 18.7801 31.9897 18.8085C31.8873 18.8368 31.7956 18.8949 31.7262 18.9754C31.6567 19.0559 31.6127 19.1551 31.5997 19.2606C31.5866 19.3661 31.6052 19.4731 31.6529 19.568C31.7171 19.6954 31.8293 19.792 31.9648 19.8367C32.1002 19.8814 32.2479 19.8706 32.3753 19.8065ZM28.7394 20.5302C28.8142 20.398 28.9266 20.291 29.0623 20.2227C29.1524 20.1772 29.2505 20.1499 29.3511 20.1424C29.4518 20.1349 29.5529 20.1474 29.6487 20.179C29.7445 20.2106 29.8331 20.2608 29.9095 20.3268C29.9859 20.3927 30.0486 20.473 30.0939 20.5632C30.1622 20.6989 30.1888 20.8518 30.1702 21.0026C30.1516 21.1533 30.0888 21.2952 29.9896 21.4103C29.8904 21.5254 29.7593 21.6084 29.6129 21.649C29.4664 21.6895 29.3113 21.6857 29.167 21.6381C29.0228 21.5905 28.8959 21.5012 28.8024 21.3814C28.7089 21.2617 28.653 21.1169 28.6418 20.9654C28.6306 20.8139 28.6645 20.6624 28.7394 20.5302ZM25.2222 18.943C25.0914 19.0202 24.9406 19.0568 24.789 19.0483C24.5854 19.0367 24.3949 18.9448 24.2591 18.7927C24.1234 18.6406 24.0536 18.4409 24.0651 18.2373C24.0738 18.0857 24.1273 17.9401 24.2187 17.8188C24.3102 17.6975 24.4355 17.6061 24.5789 17.5561C24.7223 17.5061 24.8773 17.4997 25.0244 17.5377C25.1714 17.5758 25.3039 17.6565 25.405 17.7699C25.5062 17.8832 25.5714 18.0239 25.5926 18.1743C25.6138 18.3247 25.5899 18.478 25.5239 18.6148C25.458 18.7516 25.353 18.8658 25.2222 18.943ZM20.627 26.8896C20.7627 26.8212 20.875 26.7141 20.9498 26.5819C21.0246 26.4496 21.0585 26.2981 21.0472 26.1466C21.0359 25.9951 20.98 25.8503 20.8864 25.7306C20.7928 25.6109 20.6659 25.5217 20.5215 25.4741C20.3772 25.4266 20.2221 25.4229 20.0757 25.4636C19.9293 25.5042 19.7982 25.5874 19.6991 25.7025C19.6 25.8177 19.5372 25.9596 19.5188 26.1104C19.5003 26.2613 19.527 26.4142 19.5955 26.5498C19.6872 26.7316 19.8474 26.8696 20.0409 26.9333C20.2343 26.997 20.4452 26.9813 20.627 26.8896ZM25.0757 20.9912C25.0521 20.7015 25.1258 20.4122 25.2851 20.1691C25.4042 19.9876 25.5665 19.8386 25.7576 19.7355C25.9487 19.6325 26.1624 19.5786 26.3794 19.5787C26.6701 19.5791 26.9524 19.6764 27.1815 19.8552C27.4107 20.0341 27.5736 20.2842 27.6446 20.5661C27.7156 20.8479 27.6906 21.1454 27.5735 21.4115C27.4563 21.6775 27.2539 21.8969 26.998 22.0349C26.7422 22.1729 26.4477 22.2216 26.161 22.1734C25.8744 22.1252 25.612 21.9828 25.4154 21.7686C25.2189 21.5545 25.0993 21.281 25.0757 20.9912ZM27.5567 25.6325C27.452 25.4249 27.2939 25.249 27.0986 25.123C26.9033 24.997 26.6778 24.9253 26.4456 24.9155C26.2134 24.9056 25.9827 24.9579 25.7774 25.0669C25.5721 25.176 25.3996 25.3378 25.2778 25.5358C25.1559 25.7337 25.089 25.9606 25.0841 26.193C25.0792 26.4254 25.1364 26.6549 25.2497 26.8578C25.3631 27.0608 25.5286 27.2298 25.729 27.3474C25.9295 27.4651 26.1578 27.5271 26.3902 27.5271C26.5947 27.5257 26.7961 27.4768 26.9785 27.3843C27.2869 27.2282 27.521 26.9561 27.6294 26.6278C27.7378 26.2995 27.7116 25.9416 27.5567 25.6325ZM29.4119 25.4151C29.5638 25.4139 29.7127 25.4577 29.8397 25.5411C30.0097 25.6531 30.1283 25.828 30.1697 26.0274C30.211 26.2267 30.1717 26.4343 30.0603 26.6048C29.9769 26.7318 29.8577 26.8312 29.7178 26.8905C29.578 26.9497 29.4236 26.9662 29.2744 26.9378C29.1252 26.9094 28.9877 26.8373 28.8794 26.7308C28.7711 26.6242 28.6968 26.488 28.666 26.3392C28.6351 26.1904 28.6491 26.0359 28.7061 25.895C28.7631 25.7542 28.8606 25.6335 28.9862 25.548C29.1118 25.4626 29.26 25.4163 29.4119 25.4151ZM32.3411 23.5786C32.3483 23.4498 32.3172 23.3217 32.2517 23.2106C32.1862 23.0994 32.0892 23.0102 31.973 22.9541C31.8568 22.8981 31.7266 22.8778 31.5988 22.8957C31.4711 22.9137 31.3515 22.9691 31.2552 23.055C31.1589 23.1409 31.0903 23.2534 31.058 23.3783C31.0256 23.5032 31.031 23.6349 31.0735 23.7567C31.116 23.8785 31.1936 23.985 31.2966 24.0627C31.3996 24.1404 31.5234 24.1859 31.6522 24.1933C31.825 24.203 31.9946 24.1438 32.1238 24.0285C32.253 23.9133 32.3311 23.7514 32.3411 23.5786ZM33.9101 23.1715C33.9822 23.1291 34.0652 23.1091 34.1486 23.1139C34.2604 23.1205 34.3651 23.1712 34.4396 23.2548C34.5141 23.3384 34.5525 23.4482 34.5463 23.56C34.5415 23.6435 34.512 23.7236 34.4617 23.7904C34.4113 23.8571 34.3423 23.9074 34.2634 23.9349C34.1844 23.9624 34.0991 23.9658 34.0182 23.9449C33.9373 23.9239 33.8644 23.8794 33.8088 23.817C33.7532 23.7546 33.7174 23.6771 33.7058 23.5943C33.6942 23.5115 33.7074 23.4271 33.7438 23.3519C33.7802 23.2766 33.8381 23.2138 33.9101 23.1715ZM32.4467 27.3044C32.3578 27.2461 32.2536 27.2155 32.1473 27.2165C32.041 27.2175 31.9374 27.2499 31.8495 27.3098C31.7617 27.3696 31.6936 27.4542 31.6537 27.5527C31.6139 27.6513 31.6042 27.7595 31.6259 27.8635C31.6476 27.9676 31.6996 28.0629 31.7754 28.1374C31.8512 28.2119 31.9474 28.2623 32.0518 28.2821C32.1563 28.302 32.2642 28.2904 32.3621 28.2489C32.46 28.2074 32.5433 28.1378 32.6016 28.0489C32.6404 27.9899 32.6671 27.9238 32.6803 27.8544C32.6935 27.785 32.6929 27.7137 32.6785 27.6445C32.6641 27.5754 32.6362 27.5098 32.5964 27.4514C32.5567 27.393 32.5058 27.3431 32.4467 27.3044ZM20.2181 31.1807C20.3017 31.18 20.3836 31.2041 20.4535 31.25C20.4999 31.2805 20.5399 31.3198 20.5711 31.3657C20.6023 31.4116 20.6242 31.4632 20.6354 31.5175C20.6467 31.5719 20.6472 31.628 20.6368 31.6825C20.6264 31.737 20.6053 31.789 20.5748 31.8354C20.529 31.9052 20.4634 31.9599 20.3864 31.9925C20.3095 32.0251 20.2246 32.0341 20.1425 32.0185C20.0604 32.0028 19.9848 31.9632 19.9252 31.9046C19.8656 31.8459 19.8248 31.771 19.8078 31.6891C19.7908 31.6073 19.7985 31.5223 19.8299 31.4448C19.8612 31.3673 19.9149 31.3009 19.984 31.2539C20.0531 31.2069 20.1346 31.1814 20.2181 31.1807ZM29.3114 31.2057C29.2367 31.2434 29.1749 31.3023 29.1338 31.375C29.0926 31.4478 29.0739 31.5311 29.0801 31.6145C29.0863 31.6978 29.1171 31.7775 29.1686 31.8434C29.2201 31.9092 29.2899 31.9583 29.3693 31.9845C29.4487 32.0107 29.5341 32.0127 29.6146 31.9904C29.6952 31.968 29.7673 31.9223 29.8218 31.8589C29.8764 31.7956 29.9109 31.7175 29.9211 31.6345C29.9312 31.5515 29.9166 31.4674 29.8789 31.3928C29.854 31.3432 29.8195 31.299 29.7775 31.2627C29.7355 31.2264 29.6867 31.1988 29.634 31.1815C29.5812 31.1641 29.5256 31.1573 29.4703 31.1615C29.4149 31.1656 29.3609 31.1807 29.3114 31.2057ZM24.6121 26.1188C24.6357 26.4085 24.562 26.6979 24.4027 26.941C24.2842 27.1229 24.122 27.2722 23.931 27.3754C23.74 27.4785 23.5261 27.5321 23.309 27.5314C23.0183 27.5312 22.736 27.434 22.5068 27.2553C22.2775 27.0765 22.1144 26.8264 22.0433 26.5445C21.9722 26.2627 21.9971 25.9651 22.1142 25.699C22.2312 25.4329 22.4336 25.2135 22.6894 25.0754C22.9452 24.9373 23.2398 24.8885 23.5265 24.9366C23.8132 24.9848 24.0756 25.1272 24.2722 25.3413C24.4689 25.5554 24.5885 25.829 24.6121 26.1188ZM21.7921 28.9463C21.6841 28.8757 21.5576 28.8386 21.4286 28.8399C21.2996 28.8411 21.1738 28.8806 21.0672 28.9533C20.9606 29.026 20.878 29.1286 20.8297 29.2483C20.7815 29.3679 20.7698 29.4992 20.7961 29.6255C20.8224 29.7518 20.8856 29.8675 20.9777 29.9579C21.0698 30.0483 21.1865 30.1094 21.3133 30.1334C21.4401 30.1574 21.5711 30.1433 21.6899 30.0929C21.8086 30.0425 21.9098 29.958 21.9805 29.8501C22.0753 29.7052 22.1086 29.5287 22.0733 29.3592C22.038 29.1897 21.9368 29.0412 21.7921 28.9463ZM24.5349 31.5205C24.6265 31.4666 24.7321 31.441 24.8382 31.447C24.9087 31.451 24.9777 31.4689 25.0413 31.4996C25.1049 31.5303 25.1619 31.5732 25.2089 31.6259C25.2559 31.6786 25.292 31.7401 25.3153 31.8068C25.3385 31.8734 25.3484 31.9441 25.3443 32.0146C25.3382 32.1207 25.3008 32.2226 25.2368 32.3075C25.1728 32.3923 25.085 32.4563 24.9846 32.4913C24.8842 32.5263 24.7757 32.5307 24.6728 32.5041C24.5699 32.4774 24.4772 32.4208 24.4065 32.3415C24.3357 32.2622 24.2901 32.1636 24.2753 32.0584C24.2606 31.9531 24.2774 31.8458 24.3236 31.7501C24.3698 31.6543 24.4433 31.5744 24.5349 31.5205ZM24.8439 28.0646C24.6921 28.0554 24.541 28.0915 24.4097 28.1682C24.2785 28.2449 24.1729 28.3588 24.1064 28.4956C24.04 28.6324 24.0156 28.7858 24.0364 28.9364C24.0572 29.087 24.1222 29.2281 24.2232 29.3417C24.3242 29.4554 24.4567 29.5365 24.6039 29.5748C24.751 29.613 24.9062 29.6068 25.0498 29.5568C25.1934 29.5068 25.319 29.4153 25.4105 29.2939C25.5021 29.1726 25.5556 29.0267 25.5642 28.8749C25.5759 28.672 25.5066 28.4727 25.3716 28.3208C25.2366 28.1689 25.0468 28.0768 24.8439 28.0646ZM27.7118 29.1567C27.7751 29.044 27.8704 28.9527 27.9857 28.8942C28.062 28.8552 28.1453 28.8317 28.2307 28.825C28.3162 28.8183 28.4021 28.8285 28.4836 28.855C28.5651 28.8815 28.6405 28.9238 28.7056 28.9796C28.7708 29.0353 28.8242 29.1033 28.863 29.1797C28.9218 29.2949 28.9451 29.4248 28.9299 29.5532C28.9148 29.6816 28.8619 29.8026 28.778 29.9009C28.694 29.9992 28.5828 30.0703 28.4584 30.1054C28.334 30.1405 28.202 30.1378 28.0791 30.0978C27.9562 30.0578 27.8479 29.9822 27.7679 29.8807C27.688 29.7791 27.64 29.6561 27.63 29.5272C27.62 29.3984 27.6484 29.2694 27.7118 29.1567Z" fill="white"/>
<defs>
<linearGradient id="paint0_linear_383_7003" x1="0" y1="25" x2="50" y2="25" gradientUnits="userSpaceOnUse">
<stop stop-color="#2193B0"/>
<stop offset="1" stop-color="#6DD5ED"/>
</linearGradient>
</defs>
</svg>
