<svg xmlns="http://www.w3.org/2000/svg" width="35" height="35" fill="none"><circle cx="17.5" cy="17.5" r="17.5" fill="#131316"/><path fill="#66BDFF" fill-rule="evenodd" d="M17.446 8.863a.582.582 0 1 0 .066-1.162.582.582 0 0 0-.066 1.162m5.06.288a.457.457 0 1 1-.008-.914.457.457 0 0 1 .008.914m-9.841-.027a.458.458 0 1 0-.42-.815.458.458 0 0 0 .42.815m.446 9.229a1.42 1.42 0 0 1-.357-1.024h-.004a1.413 1.413 0 1 1 1.413 1.496h-.077a1.42 1.42 0 0 1-.975-.472m-5.886-1.32a.456.456 0 1 1 .463.785.456.456 0 0 1-.463-.785m7.17-5.69a.705.705 0 1 1-1.228-.695.705.705 0 0 1 1.229.694m-5.123 2.003a.583.583 0 1 0 .64-.974.583.583 0 0 0-.64.974m.46 3.464a.706.706 0 1 1 .718 1.216.706.706 0 0 1-.717-1.216m-.383 4.65a.582.582 0 1 0 .525 1.04.582.582 0 0 0-.525-1.04m3.208-6.07a.832.832 0 1 1-.015-1.663.832.832 0 0 1 .015 1.663m8.245-3.82a.707.707 0 1 0 .772-1.184.707.707 0 0 0-.772 1.184m.111 4.413a1.413 1.413 0 1 0-.162 2.824h.082a1.413 1.413 0 0 0 .08-2.824m-5.828-.258a1.41 1.41 0 0 1-.67-1.265 1.415 1.415 0 0 1 2.675-.58 1.414 1.414 0 0 1-1.262 2.054 1.4 1.4 0 0 1-.743-.21m10.565-2.38a.581.581 0 1 0-.524-1.039.581.581 0 0 0 .524 1.038m-3.935.782a.832.832 0 1 1 1.447.82.832.832 0 0 1-1.447-.82m-3.806-1.717a.832.832 0 1 1-.845-1.433.832.832 0 0 1 .845 1.433m-4.973 8.6a.831.831 0 1 0-.748-1.485.831.831 0 0 0 .748 1.485m4.814-6.384a1.414 1.414 0 1 1 2.818-.23 1.414 1.414 0 0 1-2.818.23m2.685 5.023a1.414 1.414 0 1 0-1.262 2.05 1.414 1.414 0 0 0 1.262-2.05m2.008-.235a.831.831 0 1 1 .014 1.662.831.831 0 0 1-.014-1.662m3.17-1.988a.707.707 0 1 0-1.411-.08.707.707 0 0 0 1.41.08m1.698-.44a.458.458 0 1 1 .463.79.458.458 0 0 1-.463-.79m-1.584 4.473a.582.582 0 1 0-.638.973.582.582 0 0 0 .638-.973m-13.234 4.195a.457.457 0 1 1 .008.914.457.457 0 0 1-.008-.914m9.841.027a.457.457 0 1 0 .411.816.457.457 0 0 0-.411-.816m-5.085-5.506a1.415 1.415 0 1 1-2.82.23 1.415 1.415 0 0 1 2.82-.23m-3.052 3.06a.705.705 0 1 0-.773 1.18.705.705 0 0 0 .773-1.18m2.968 2.786a.583.583 0 1 1 .59 1.005.583.583 0 0 1-.59-1.005m.334-3.74a.831.831 0 1 0-.1 1.66.831.831 0 0 0 .1-1.66m3.104 1.182a.707.707 0 1 1 1.233.694.707.707 0 0 1-1.233-.694" clip-rule="evenodd"/></svg>