<svg width="35" height="35" viewBox="0 0 35 35" fill="none" xmlns="http://www.w3.org/2000/svg">
<circle cx="17.5" cy="17.5" r="17.5" fill="#F6F9FF"/>
<path fill-rule="evenodd" clip-rule="evenodd" d="M17.4459 8.86255C17.5608 8.86909 17.6751 8.84141 17.7742 8.78301C17.8734 8.72461 17.953 8.63812 18.003 8.53446C18.053 8.43081 18.0711 8.31466 18.0551 8.2007C18.039 8.08675 17.9896 7.98011 17.9129 7.89427C17.8363 7.80843 17.7359 7.74726 17.6245 7.71848C17.513 7.6897 17.3956 7.69462 17.287 7.73261C17.1783 7.77059 17.0834 7.83994 17.0142 7.93188C16.945 8.02383 16.9046 8.13423 16.8982 8.24913C16.8895 8.40309 16.9424 8.55419 17.0451 8.66922C17.1478 8.78424 17.292 8.85378 17.4459 8.86255ZM22.506 9.15064C22.4155 9.15145 22.3268 9.12541 22.2512 9.07581C22.1498 9.00937 22.079 8.90541 22.0542 8.78677C22.0294 8.66814 22.0527 8.54452 22.1191 8.44307C22.1686 8.36733 22.2394 8.30798 22.3227 8.27252C22.4059 8.23706 22.4978 8.22709 22.5867 8.24387C22.6756 8.26065 22.7576 8.30343 22.8222 8.36679C22.8868 8.43015 22.9311 8.51125 22.9496 8.59982C22.9681 8.68839 22.9599 8.78046 22.9261 8.86438C22.8922 8.94829 22.8342 9.02028 22.7595 9.07124C22.6847 9.12219 22.5965 9.14983 22.506 9.15064ZM12.6646 9.12365C12.7448 9.08242 12.8111 9.01837 12.8551 8.93956C12.899 8.86074 12.9187 8.77068 12.9116 8.68072C12.9044 8.59076 12.8709 8.50491 12.8151 8.43399C12.7593 8.36307 12.6837 8.31024 12.598 8.28215C12.5122 8.25406 12.4201 8.25197 12.3331 8.27615C12.2462 8.30032 12.1683 8.34968 12.1094 8.418C12.0504 8.48632 12.013 8.57056 12.0018 8.66011C11.9906 8.74965 12.0062 8.84051 12.0465 8.92123C12.0736 8.97527 12.1112 9.0234 12.157 9.06286C12.2028 9.10232 12.2559 9.13232 12.3134 9.15113C12.3708 9.16995 12.4314 9.17721 12.4917 9.17249C12.552 9.16777 12.6107 9.15117 12.6646 9.12365ZM13.1107 18.3527C12.8609 18.0722 12.7327 17.7041 12.7543 17.3292L12.7504 17.3299C12.7662 17.0543 12.8624 16.7893 13.0271 16.5677C13.1918 16.3461 13.4178 16.1776 13.6772 16.0829C13.9366 15.9883 14.218 15.9716 14.4867 16.0351C14.7554 16.0985 14.9997 16.2392 15.1893 16.4399C15.379 16.6405 15.5057 16.8923 15.554 17.1642C15.6022 17.436 15.5697 17.7161 15.4606 17.9697C15.3515 18.2233 15.1705 18.4395 14.94 18.5914C14.7095 18.7434 14.4395 18.8246 14.1634 18.8249H14.0862C13.7113 18.8029 13.3604 18.6331 13.1107 18.3527ZM7.22461 17.0333C7.30236 16.9875 7.39197 16.9657 7.4821 16.9707C7.54206 16.974 7.60079 16.989 7.65491 17.0151C7.70903 17.0411 7.75747 17.0775 7.79746 17.1223C7.83744 17.1671 7.86818 17.2194 7.88792 17.2761C7.90765 17.3328 7.91598 17.3929 7.91243 17.4528C7.90725 17.5429 7.87546 17.6295 7.8211 17.7016C7.76673 17.7736 7.69222 17.828 7.60698 17.8577C7.52174 17.8874 7.4296 17.8912 7.34221 17.8686C7.25481 17.846 7.17608 17.798 7.11596 17.7306C7.05585 17.6633 7.01704 17.5796 7.00446 17.4902C6.99187 17.4008 7.00607 17.3097 7.04525 17.2284C7.08444 17.1471 7.14685 17.0792 7.22461 17.0333ZM14.3957 11.3424C14.327 11.4639 14.2238 11.5624 14.0991 11.6253C14.0163 11.6671 13.926 11.6921 13.8335 11.699C13.741 11.7059 13.648 11.6945 13.5599 11.6654C13.4718 11.6364 13.3903 11.5902 13.32 11.5296C13.2497 11.4691 13.1921 11.3952 13.1504 11.3124C13.0876 11.1877 13.0632 11.0471 13.0802 10.9085C13.0973 10.7699 13.1551 10.6395 13.2462 10.5338C13.3374 10.428 13.4579 10.3516 13.5924 10.3143C13.727 10.277 13.8696 10.2805 14.0022 10.3242C14.1348 10.3679 14.2515 10.45 14.3375 10.5601C14.4235 10.6701 14.4749 10.8031 14.4852 10.9424C14.4956 11.0816 14.4645 11.2208 14.3957 11.3424ZM9.27153 13.3458C9.3677 13.409 9.48046 13.4423 9.59555 13.4414C9.71064 13.4406 9.82289 13.4056 9.91809 13.3409C10.0133 13.2762 10.0872 13.1847 10.1304 13.0781C10.1736 12.9714 10.1842 12.8543 10.1608 12.7416C10.1374 12.6289 10.0812 12.5257 9.99913 12.445C9.91708 12.3642 9.81293 12.3097 9.69987 12.2882C9.5868 12.2667 9.4699 12.2792 9.36395 12.3242C9.25799 12.3691 9.16776 12.4445 9.10466 12.5407C9.02014 12.6696 8.99025 12.8268 9.02154 12.9778C9.05282 13.1287 9.14274 13.2611 9.27153 13.3458ZM9.73284 16.8101C9.85313 16.7392 9.99174 16.7056 10.1311 16.7134C10.3182 16.7242 10.4933 16.8088 10.618 16.9486C10.7427 17.0884 10.8069 17.2719 10.7963 17.459C10.7883 17.5984 10.7392 17.7323 10.6551 17.8437C10.571 17.9552 10.4557 18.0392 10.3239 18.0852C10.192 18.1312 10.0495 18.137 9.91435 18.102C9.77918 18.067 9.65742 17.9928 9.56447 17.8886C9.47151 17.7844 9.41153 17.655 9.3921 17.5167C9.37267 17.3784 9.39467 17.2375 9.45532 17.1117C9.51597 16.986 9.61254 16.881 9.73284 16.8101ZM9.34859 21.4609C9.24592 21.5127 9.16094 21.5939 9.10439 21.6941C9.04784 21.7943 9.02226 21.909 9.03088 22.0237C9.03951 22.1384 9.08195 22.248 9.15284 22.3386C9.22373 22.4292 9.31989 22.4967 9.42916 22.5327C9.53843 22.5686 9.65591 22.5714 9.76675 22.5406C9.87759 22.5098 9.9768 22.4468 10.0519 22.3596C10.1269 22.2724 10.1744 22.165 10.1884 22.0508C10.2024 21.9366 10.1822 21.8208 10.1304 21.7181C10.096 21.6499 10.0485 21.5891 9.99056 21.5392C9.93263 21.4893 9.86544 21.4514 9.79283 21.4275C9.72022 21.4036 9.64361 21.3942 9.56739 21.4C9.49116 21.4057 9.41681 21.4264 9.34859 21.4609ZM12.5568 15.39C12.3924 15.3915 12.2313 15.3441 12.0938 15.254C12.0023 15.1942 11.9236 15.117 11.8621 15.0268C11.8006 14.9365 11.7575 14.8351 11.7352 14.7281C11.713 14.6212 11.712 14.5109 11.7325 14.4037C11.7529 14.2964 11.7943 14.1942 11.8543 14.1029C11.9444 13.9654 12.0733 13.8578 12.2246 13.7935C12.376 13.7293 12.543 13.7114 12.7045 13.742C12.866 13.7727 13.0148 13.8506 13.1321 13.9658C13.2493 14.081 13.3298 14.2285 13.3633 14.3894C13.3968 14.5504 13.3818 14.7176 13.3202 14.8701C13.2586 15.0225 13.1532 15.1533 13.0173 15.2458C12.8815 15.3384 12.7212 15.3885 12.5568 15.39ZM20.802 11.5696C20.9191 11.646 21.0561 11.6859 21.1959 11.6844C21.3357 11.6829 21.4719 11.6399 21.5873 11.561C21.7026 11.4821 21.792 11.3708 21.8441 11.2411C21.8962 11.1114 21.9087 10.9691 21.88 10.8323C21.8513 10.6955 21.7826 10.5703 21.6828 10.4725C21.5829 10.3747 21.4563 10.3087 21.3189 10.2828C21.1815 10.257 21.0396 10.2725 20.911 10.3273C20.7824 10.3821 20.673 10.4738 20.5965 10.5908C20.5455 10.6685 20.5105 10.7555 20.4932 10.8468C20.476 10.9381 20.477 11.0319 20.496 11.1229C20.5151 11.2138 20.552 11.3001 20.6045 11.3767C20.657 11.4534 20.7241 11.519 20.802 11.5696ZM20.9131 15.9833C20.7277 15.9727 20.542 15.9987 20.3667 16.0598C20.1913 16.1209 20.0297 16.2159 19.891 16.3395C19.6111 16.5891 19.4417 16.9396 19.4202 17.3141C19.3986 17.6885 19.5268 18.0562 19.7763 18.3362C20.0259 18.6162 20.3765 18.7856 20.7509 18.8071H20.8328C21.1056 18.807 21.3725 18.7279 21.6014 18.5795C21.8302 18.4311 22.0113 18.2196 22.1227 17.9706C22.2341 17.7216 22.271 17.4457 22.2291 17.1762C22.1873 16.9066 22.0683 16.655 21.8866 16.4515C21.7635 16.3128 21.6141 16.1999 21.447 16.1195C21.2798 16.0391 21.0984 15.9928 20.9131 15.9833ZM15.0847 15.7249C14.8614 15.5875 14.6809 15.3904 14.5635 15.1559C14.4556 14.9404 14.4045 14.701 14.4151 14.4602C14.4257 14.2194 14.4977 13.9853 14.6241 13.7802C14.7506 13.575 14.9274 13.4056 15.1377 13.2879C15.348 13.1702 15.5849 13.1082 15.8259 13.1078C16.0875 13.1066 16.3444 13.1782 16.5676 13.3146C16.7908 13.4511 16.9717 13.647 17.0898 13.8804C17.199 14.0961 17.2511 14.3362 17.2411 14.5777C17.2312 14.8192 17.1595 15.0542 17.0329 15.2601C16.9062 15.4661 16.729 15.6362 16.518 15.7541C16.3069 15.8721 16.0692 15.934 15.8275 15.9339C15.5652 15.9347 15.308 15.8624 15.0847 15.7249ZM25.6499 13.3442C25.7526 13.2924 25.8376 13.2113 25.8942 13.1112C25.9508 13.0111 25.9765 12.8964 25.968 12.7817C25.9594 12.667 25.9171 12.5574 25.8463 12.4667C25.7755 12.3761 25.6794 12.3085 25.5702 12.2724C25.4609 12.2364 25.3435 12.2335 25.2326 12.2642C25.1218 12.2949 25.0225 12.3578 24.9474 12.4448C24.8722 12.5319 24.8246 12.6393 24.8105 12.7535C24.7964 12.8676 24.8164 12.9834 24.8681 13.0862C24.9376 13.224 25.059 13.3286 25.2056 13.377C25.3522 13.4254 25.512 13.4136 25.6499 13.3442ZM21.7149 14.1275C21.7959 13.9844 21.9176 13.8686 22.0644 13.7947C22.1619 13.7454 22.2681 13.7159 22.377 13.7078C22.4859 13.6997 22.5953 13.7132 22.699 13.7474C22.8027 13.7816 22.8986 13.836 22.9813 13.9073C23.0639 13.9787 23.1317 14.0656 23.1808 14.1632C23.2547 14.31 23.2835 14.4755 23.2634 14.6387C23.2433 14.8018 23.1753 14.9554 23.0679 15.0799C22.9605 15.2044 22.8187 15.2943 22.6602 15.3382C22.5018 15.3821 22.3339 15.378 22.1777 15.3265C22.0216 15.2749 21.8843 15.1783 21.7831 15.0487C21.6819 14.9191 21.6214 14.7624 21.6093 14.5984C21.5972 14.4345 21.6339 14.2706 21.7149 14.1275ZM17.9085 12.4098C17.7669 12.4933 17.6037 12.533 17.4396 12.5238C17.2194 12.5112 17.0131 12.4117 16.8662 12.2472C16.7193 12.0826 16.6438 11.8664 16.6562 11.6461C16.6657 11.482 16.7235 11.3244 16.8225 11.1932C16.9215 11.062 17.0571 10.9631 17.2123 10.9089C17.3675 10.8548 17.5353 10.8478 17.6944 10.889C17.8535 10.9302 17.9969 11.0176 18.1063 11.1402C18.2158 11.2629 18.2864 11.4152 18.3093 11.5779C18.3322 11.7407 18.3064 11.9066 18.235 12.0547C18.1637 12.2027 18.05 12.3263 17.9085 12.4098ZM12.9356 21.0097C13.0825 20.9357 13.204 20.8198 13.285 20.6766C13.3659 20.5335 13.4026 20.3696 13.3904 20.2056C13.3782 20.0416 13.3176 19.885 13.2163 19.7554C13.1151 19.6259 12.9777 19.5293 12.8215 19.4778C12.6653 19.4264 12.4974 19.4224 12.339 19.4664C12.1805 19.5104 12.0387 19.6004 11.9314 19.725C11.8242 19.8496 11.7562 20.0033 11.7363 20.1665C11.7163 20.3297 11.7452 20.4951 11.8193 20.6419C11.9186 20.8387 12.092 20.988 12.3013 21.0569C12.5107 21.1259 12.7388 21.1089 12.9356 21.0097ZM17.7501 14.6264C17.7245 14.3129 17.8043 13.9998 17.9767 13.7367C18.1056 13.5403 18.2813 13.379 18.4881 13.2675C18.6948 13.1559 18.9261 13.0976 19.161 13.0978C19.4756 13.0982 19.781 13.2035 20.029 13.397C20.277 13.5906 20.4534 13.8613 20.5302 14.1663C20.607 14.4713 20.5799 14.7933 20.4532 15.0812C20.3265 15.3691 20.1073 15.6065 19.8305 15.7559C19.5536 15.9052 19.2349 15.958 18.9247 15.9058C18.6144 15.8536 18.3305 15.6995 18.1178 15.4677C17.905 15.236 17.7756 14.94 17.7501 14.6264ZM20.4351 19.6492C20.3218 19.4246 20.1507 19.2343 19.9393 19.0979C19.7279 18.9615 19.484 18.8839 19.2326 18.8733C18.9813 18.8626 18.7317 18.9192 18.5095 19.0372C18.2873 19.1552 18.1007 19.3304 17.9688 19.5446C17.8369 19.7588 17.7646 20.0043 17.7592 20.2558C17.7539 20.5074 17.8158 20.7557 17.9385 20.9753C18.0611 21.195 18.2402 21.3779 18.4572 21.5052C18.6741 21.6325 18.9211 21.6996 19.1727 21.6996C19.394 21.6981 19.6119 21.6452 19.8093 21.5451C20.1432 21.3761 20.3965 21.0817 20.5137 20.7264C20.631 20.3711 20.6027 19.9837 20.4351 19.6492ZM22.4428 19.414C22.6072 19.4127 22.7684 19.4601 22.9058 19.5503C23.0898 19.6716 23.2182 19.8608 23.2629 20.0766C23.3077 20.2923 23.2651 20.517 23.1445 20.7015C23.0543 20.8389 22.9253 20.9465 22.774 21.0107C22.6226 21.0748 22.4556 21.0926 22.2941 21.0619C22.1325 21.0311 21.9838 20.9531 21.8666 20.8378C21.7494 20.7225 21.669 20.5751 21.6356 20.4141C21.6022 20.2531 21.6173 20.0858 21.679 19.9334C21.7407 19.781 21.8462 19.6503 21.9822 19.5579C22.1181 19.4654 22.2784 19.4153 22.4428 19.414ZM25.6129 17.4265C25.6208 17.2871 25.5871 17.1485 25.5163 17.0282C25.4454 16.9079 25.3404 16.8113 25.2146 16.7507C25.0889 16.69 24.9479 16.668 24.8097 16.6875C24.6714 16.7069 24.542 16.7669 24.4378 16.8598C24.3336 16.9528 24.2593 17.0745 24.2243 17.2097C24.1893 17.3449 24.1952 17.4874 24.2412 17.6192C24.2871 17.7511 24.3712 17.8663 24.4826 17.9504C24.5941 18.0345 24.728 18.0837 24.8674 18.0917C25.0544 18.1022 25.238 18.0381 25.3778 17.9134C25.5176 17.7886 25.6022 17.6135 25.6129 17.4265ZM27.3107 16.9859C27.3887 16.94 27.4785 16.9183 27.5688 16.9235C27.6898 16.9307 27.8031 16.9856 27.8837 17.0761C27.9644 17.1666 28.0059 17.2854 27.9992 17.4064C27.994 17.4967 27.9621 17.5835 27.9076 17.6557C27.8531 17.7279 27.7784 17.7823 27.693 17.8121C27.6076 17.8418 27.5153 17.8456 27.4277 17.8229C27.3401 17.8001 27.2613 17.752 27.2011 17.6844C27.1409 17.6169 27.1021 17.5331 27.0896 17.4435C27.0771 17.3539 27.0914 17.2626 27.1307 17.1811C27.1701 17.0997 27.2327 17.0317 27.3107 16.9859ZM25.7272 21.4585C25.631 21.3955 25.5183 21.3624 25.4032 21.3635C25.2882 21.3645 25.176 21.3997 25.081 21.4644C24.9859 21.5292 24.9122 21.6207 24.8691 21.7274C24.826 21.834 24.8155 21.9511 24.839 22.0637C24.8624 22.1763 24.9187 22.2795 25.0007 22.3601C25.0828 22.4407 25.1869 22.4952 25.2999 22.5167C25.4129 22.5382 25.5298 22.5257 25.6357 22.4808C25.7416 22.4358 25.8318 22.3605 25.8949 22.2643C25.9368 22.2004 25.9658 22.1289 25.98 22.0538C25.9943 21.9787 25.9936 21.9015 25.9781 21.8267C25.9625 21.7519 25.9323 21.6808 25.8893 21.6177C25.8463 21.5545 25.7912 21.5004 25.7272 21.4585ZM12.4932 25.6536C12.5836 25.6529 12.6723 25.679 12.7479 25.7286C12.7981 25.7615 12.8414 25.8041 12.8752 25.8538C12.909 25.9034 12.9326 25.9593 12.9448 26.0181C12.957 26.077 12.9575 26.1376 12.9463 26.1966C12.935 26.2556 12.9122 26.3119 12.8792 26.3621C12.8296 26.4377 12.7586 26.4969 12.6753 26.5321C12.592 26.5674 12.5002 26.5772 12.4113 26.5602C12.3225 26.5433 12.2406 26.5004 12.1762 26.4369C12.1117 26.3735 12.0675 26.2924 12.0491 26.2038C12.0308 26.1152 12.0391 26.0232 12.073 25.9394C12.107 25.8555 12.165 25.7836 12.2398 25.7328C12.3146 25.6819 12.4028 25.6544 12.4932 25.6536ZM22.334 25.6806C22.2532 25.7214 22.1863 25.7851 22.1418 25.8639C22.0972 25.9426 22.077 26.0328 22.0837 26.123C22.0904 26.2132 22.1238 26.2994 22.1795 26.3707C22.2352 26.442 22.3108 26.4951 22.3967 26.5234C22.4826 26.5518 22.575 26.554 22.6622 26.5298C22.7493 26.5056 22.8274 26.4561 22.8864 26.3875C22.9454 26.319 22.9828 26.2344 22.9938 26.1447C23.0048 26.0549 22.9889 25.9638 22.9482 25.8831C22.9212 25.8294 22.8839 25.7815 22.8384 25.7423C22.7929 25.7031 22.7401 25.6732 22.6831 25.6544C22.626 25.6356 22.5658 25.6282 22.5059 25.6327C22.446 25.6372 22.3876 25.6535 22.334 25.6806ZM17.2485 20.1755C17.274 20.4891 17.1943 20.8022 17.0219 21.0653C16.8936 21.2622 16.7181 21.4238 16.5114 21.5354C16.3046 21.647 16.0732 21.705 15.8383 21.7042C15.5237 21.704 15.2182 21.5989 14.9701 21.4054C14.722 21.212 14.5454 20.9413 14.4685 20.6363C14.3915 20.3312 14.4185 20.0092 14.5452 19.7213C14.6718 19.4333 14.8909 19.1958 15.1678 19.0463C15.4446 18.8969 15.7634 18.844 16.0736 18.8962C16.3839 18.9483 16.6679 19.1024 16.8807 19.3341C17.0935 19.5659 17.2229 19.8619 17.2485 20.1755ZM14.1965 23.2355C14.0797 23.1591 13.9428 23.119 13.8032 23.1203C13.6635 23.1217 13.5274 23.1644 13.4121 23.243C13.2967 23.3217 13.2073 23.4328 13.1551 23.5623C13.1028 23.6918 13.0902 23.8339 13.1187 23.9706C13.1472 24.1073 13.2156 24.2324 13.3152 24.3303C13.4148 24.4281 13.5412 24.4942 13.6784 24.5202C13.8156 24.5462 13.9574 24.531 14.0859 24.4764C14.2145 24.4218 14.3239 24.3304 14.4005 24.2136C14.503 24.0568 14.5391 23.8657 14.5009 23.6823C14.4626 23.4989 14.3532 23.3382 14.1965 23.2355ZM17.1648 26.0213C17.264 25.9629 17.3782 25.9352 17.4931 25.9418C17.5694 25.9461 17.6441 25.9655 17.7129 25.9987C17.7817 26.0319 17.8433 26.0783 17.8942 26.1354C17.9451 26.1924 17.9842 26.2589 18.0093 26.3311C18.0345 26.4033 18.0452 26.4797 18.0408 26.556C18.0342 26.6708 17.9937 26.7811 17.9244 26.873C17.8551 26.9648 17.7601 27.034 17.6515 27.0719C17.5429 27.1098 17.4255 27.1146 17.3141 27.0857C17.2027 27.0569 17.1024 26.9957 17.0258 26.9098C16.9493 26.8239 16.8999 26.7173 16.8839 26.6034C16.8679 26.4894 16.8861 26.3733 16.9361 26.2697C16.9861 26.1661 17.0657 26.0797 17.1648 26.0213ZM17.4992 22.2813C17.3349 22.2714 17.1714 22.3104 17.0293 22.3934C16.8873 22.4764 16.773 22.5997 16.7011 22.7477C16.6292 22.8957 16.6028 23.0617 16.6253 23.2248C16.6478 23.3878 16.7182 23.5404 16.8275 23.6634C16.9368 23.7864 17.0802 23.8742 17.2394 23.9156C17.3987 23.957 17.5667 23.9503 17.7221 23.8962C17.8775 23.8421 18.0133 23.7431 18.1124 23.6117C18.2115 23.4803 18.2694 23.3225 18.2787 23.1582C18.2914 22.9386 18.2164 22.723 18.0703 22.5586C17.9241 22.3942 17.7188 22.2945 17.4992 22.2813ZM20.603 23.4632C20.6716 23.3412 20.7747 23.2423 20.8995 23.179C20.9821 23.1369 21.0722 23.1115 21.1647 23.1042C21.2571 23.0969 21.3501 23.1079 21.4383 23.1366C21.5265 23.1653 21.6082 23.2112 21.6786 23.2715C21.7491 23.3318 21.807 23.4054 21.849 23.4881C21.9126 23.6127 21.9378 23.7533 21.9214 23.8922C21.905 24.0312 21.8477 24.1621 21.7569 24.2685C21.6661 24.3749 21.5457 24.4519 21.4111 24.4898C21.2764 24.5278 21.1336 24.5249 21.0006 24.4816C20.8675 24.4383 20.7504 24.3566 20.6638 24.2466C20.5773 24.1367 20.5254 24.0036 20.5145 23.8641C20.5037 23.7247 20.5345 23.5851 20.603 23.4632Z" fill="#0033AD"/>
</svg>
