<svg width="13" height="14" viewBox="0 0 13 14" fill="none" xmlns="http://www.w3.org/2000/svg">
<path d="M2.51059 9.04079C2.38578 9.04079 2.2751 9.04079 2.16424 9.04079C1.81734 9.04079 1.47045 9.04541 1.12373 9.03937C0.805279 9.03386 0.569246 8.80969 0.537545 8.49681C0.50983 8.2234 0.726481 7.94589 1.01994 7.88527C1.09294 7.87016 1.1692 7.8643 1.24401 7.86412C1.79633 7.86234 2.34846 7.86305 2.90078 7.86341C2.94661 7.86341 2.9832 7.86661 3.00548 7.8083C3.15021 7.42929 3.3002 7.05206 3.4482 6.67429C3.45128 6.66629 3.45092 6.65705 3.45363 6.63856C3.42374 6.63696 3.39567 6.63429 3.36759 6.63429C3.01435 6.63394 2.66112 6.63483 2.30789 6.63376C1.97204 6.6327 1.71336 6.3943 1.69362 6.06969C1.67587 5.77868 1.93418 5.48091 2.24956 5.46438C2.61221 5.44536 2.9765 5.45407 3.34006 5.45158C3.5174 5.45034 3.69474 5.4466 3.8719 5.45353C3.94074 5.4562 3.9661 5.43042 3.98783 5.37372C4.17133 4.89533 4.35719 4.41801 4.5425 3.94016C4.79629 3.28579 5.05026 2.63159 5.30404 1.97721C5.50855 1.44994 5.71108 0.921955 5.91758 0.395395C6.01504 0.14687 6.23785 -0.00245818 6.49381 3.06291e-05C6.75593 0.00251943 6.95501 0.149892 7.0588 0.407306C7.39646 1.24497 7.73701 2.08156 8.07576 2.91869C8.40689 3.73679 8.73784 4.5549 9.06608 5.37425C9.0918 5.43842 9.11916 5.46473 9.19397 5.4642C9.70082 5.46029 10.2078 5.4626 10.7147 5.46207C11.0748 5.46171 11.3485 5.71859 11.3445 6.05494C11.3406 6.3735 11.0467 6.64212 10.7055 6.64105C10.3462 6.63998 9.98703 6.64069 9.62782 6.64105C9.6135 6.64105 9.59919 6.64247 9.57637 6.64354C9.65825 6.8494 9.73723 7.04975 9.81766 7.24939C9.89174 7.43338 9.97181 7.61542 10.0403 7.80137C10.0647 7.86821 10.1001 7.88225 10.1649 7.8819C10.7382 7.87994 11.3116 7.87994 11.8849 7.88083C12.1256 7.88119 12.3236 7.97398 12.4477 8.17771C12.6649 8.53468 12.4595 8.96933 12.0304 9.03386C11.7883 9.0703 11.5382 9.05555 11.2915 9.05892C11.033 9.0623 10.7745 9.05964 10.5035 9.05964C10.5651 9.21358 10.6223 9.35883 10.681 9.50335C10.9884 10.2607 11.296 11.0178 11.6038 11.7747C11.7878 12.2272 11.9718 12.6798 12.157 13.1319C12.2463 13.35 12.2599 13.5651 12.1193 13.7672C11.9816 13.9651 11.7764 14.0198 11.5467 13.994C11.3208 13.9688 11.1636 13.846 11.0781 13.6385C10.9685 13.3729 10.8602 13.107 10.7527 12.8407C10.5299 12.2885 10.3087 11.7358 10.0858 11.1838C9.80824 10.4973 9.52855 9.81161 9.25284 9.12452C9.23038 9.06852 9.20502 9.04968 9.14343 9.04986C7.38631 9.05164 5.62938 9.05128 3.87226 9.0511C3.82589 9.0511 3.79075 9.05039 3.7681 9.10799C3.47157 9.86654 3.17087 10.6235 2.87197 11.3812C2.58287 12.1139 2.29484 12.8471 2.00591 13.5798C1.8735 13.9155 1.49979 14.0179 1.24854 13.9183C0.918314 13.7875 0.779738 13.444 0.906359 13.1271C1.1558 12.5029 1.39799 11.8759 1.6438 11.2505C1.85828 10.7049 2.07403 10.1597 2.28868 9.61411C2.36205 9.4278 2.43342 9.24078 2.51113 9.04044L2.51059 9.04079ZM4.28183 7.87674H8.74473C8.73458 7.84563 8.72806 7.82057 8.71846 7.79674C8.57445 7.43978 8.4279 7.08388 8.28733 6.72567C8.26161 6.66007 8.23154 6.63874 8.15872 6.63892C7.34103 6.64141 6.52315 6.63963 5.70546 6.63909C5.39172 6.63892 5.07815 6.63909 4.7626 6.63909C4.60228 7.0517 4.44396 7.45951 4.28183 7.87674ZM6.52189 2.25862C6.51482 2.25827 6.50758 2.25809 6.50051 2.25773C6.08623 3.31761 5.67195 4.3773 5.2535 5.44802H7.80367C7.37472 4.38068 6.9483 3.31974 6.52207 2.25862H6.52189Z" fill="#333333"/>
</svg>
