<svg width="24" height="24" viewBox="0 0 24 24" fill="none" xmlns="http://www.w3.org/2000/svg">
<rect width="24" height="24" rx="12" fill="#13152F"/>
<path d="M7.97543 14.0408C7.85062 14.0408 7.73994 14.0408 7.62908 14.0408C7.28219 14.0408 6.93529 14.0454 6.58858 14.0394C6.27012 14.0339 6.03409 13.8097 6.00239 13.4968C5.97467 13.2234 6.19132 12.9459 6.48478 12.8853C6.55778 12.8702 6.63405 12.8643 6.70886 12.8641C7.26117 12.8623 7.81331 12.8631 8.36562 12.8634C8.41145 12.8634 8.44804 12.8666 8.47032 12.8083C8.61506 12.4293 8.76505 12.0521 8.91304 11.6743C8.91612 11.6663 8.91576 11.657 8.91848 11.6386C8.88859 11.637 8.86051 11.6343 8.83243 11.6343C8.4792 11.6339 8.12596 11.6348 7.77273 11.6338C7.43688 11.6327 7.17821 11.3943 7.15846 11.0697C7.14071 10.7787 7.39902 10.4809 7.7144 10.4644C8.07705 10.4454 8.44134 10.4541 8.8049 10.4516C8.98224 10.4503 9.15958 10.4466 9.33674 10.4535C9.40558 10.4562 9.43094 10.4304 9.45268 10.3737C9.63618 9.89533 9.82203 9.41801 10.0073 8.94016C10.2611 8.28579 10.5151 7.63159 10.7689 6.97721C10.9734 6.44994 11.1759 5.92195 11.3824 5.3954C11.4799 5.14687 11.7027 4.99754 11.9587 5.00003C12.2208 5.00252 12.4198 5.14989 12.5236 5.40731C12.8613 6.24497 13.2019 7.08156 13.5406 7.91869C13.8717 8.73679 14.2027 9.5549 14.5309 10.3742C14.5566 10.4384 14.584 10.4647 14.6588 10.4642C15.1657 10.4603 15.6727 10.4626 16.1795 10.4621C16.5397 10.4617 16.8134 10.7186 16.8094 11.0549C16.8054 11.3735 16.5116 11.6421 16.1703 11.6411C15.8111 11.64 15.4519 11.6407 15.0927 11.6411C15.0783 11.6411 15.064 11.6425 15.0412 11.6435C15.1231 11.8494 15.2021 12.0497 15.2825 12.2494C15.3566 12.4334 15.4367 12.6154 15.5051 12.8014C15.5296 12.8682 15.5649 12.8823 15.6298 12.8819C16.2031 12.8799 16.7764 12.8799 17.3497 12.8808C17.5905 12.8812 17.7885 12.974 17.9126 13.1777C18.1298 13.5347 17.9243 13.9693 17.4952 14.0339C17.2532 14.0703 17.003 14.0555 16.7563 14.0589C16.4978 14.0623 16.2393 14.0596 15.9683 14.0596C16.0299 14.2136 16.0872 14.3588 16.1458 14.5034C16.4532 15.2607 16.7608 16.0178 17.0686 16.7747C17.2526 17.2272 17.4367 17.6798 17.6218 18.1319C17.7111 18.35 17.7247 18.5651 17.5841 18.7672C17.4465 18.9651 17.2412 19.0198 17.0115 18.994C16.7856 18.9688 16.6284 18.846 16.5429 18.6385C16.4333 18.3729 16.325 18.107 16.2176 17.8407C15.9948 17.2885 15.7736 16.7358 15.5506 16.1838C15.2731 15.4973 14.9934 14.8116 14.7177 14.1245C14.6952 14.0685 14.6699 14.0497 14.6083 14.0499C12.8512 14.0516 11.0942 14.0513 9.33711 14.0511C9.29073 14.0511 9.25559 14.0504 9.23295 14.108C8.93641 14.8665 8.63571 15.6235 8.33682 16.3812C8.04771 17.1139 7.75969 17.8471 7.47076 18.5798C7.33834 18.9155 6.96464 19.0179 6.71339 18.9183C6.38316 18.7875 6.24458 18.444 6.3712 18.1271C6.62064 17.5029 6.86283 16.8759 7.10865 16.2505C7.32312 15.7049 7.53887 15.1597 7.75353 14.6141C7.82689 14.4278 7.89826 14.2408 7.97597 14.0404L7.97543 14.0408ZM9.74668 12.8767H14.2096C14.1994 12.8456 14.1929 12.8206 14.1833 12.7967C14.0393 12.4398 13.8927 12.0839 13.7522 11.7257C13.7265 11.6601 13.6964 11.6387 13.6236 11.6389C12.8059 11.6414 11.988 11.6396 11.1703 11.6391C10.8566 11.6389 10.543 11.6391 10.2274 11.6391C10.0671 12.0517 9.9088 12.4595 9.74668 12.8767ZM11.9867 7.25862C11.9797 7.25827 11.9724 7.25809 11.9654 7.25773C11.5511 8.31761 11.1368 9.3773 10.7183 10.448H13.2685C12.8396 9.38068 12.4131 8.31974 11.9869 7.25862H11.9867Z" fill="white"/>
</svg>
