<svg width="12" height="15" viewBox="0 0 12 15" fill="none" xmlns="http://www.w3.org/2000/svg">
<path d="M1.97543 9.54079C1.85062 9.54079 1.73994 9.54079 1.62908 9.54079C1.28219 9.54079 0.935291 9.54541 0.588578 9.53937C0.270123 9.53386 0.0340896 9.30969 0.00238904 8.99681C-0.0253263 8.7234 0.191324 8.44589 0.484781 8.38527C0.557783 8.37016 0.634045 8.3643 0.708859 8.36412C1.26117 8.36234 1.81331 8.36305 2.36562 8.36341C2.41145 8.36341 2.44804 8.36661 2.47032 8.3083C2.61506 7.92929 2.76505 7.55206 2.91304 7.17429C2.91612 7.16629 2.91576 7.15705 2.91848 7.13856C2.88859 7.13696 2.86051 7.13429 2.83243 7.13429C2.4792 7.13394 2.12596 7.13483 1.77273 7.13376C1.43688 7.1327 1.17821 6.8943 1.15846 6.56969C1.14071 6.27868 1.39902 5.98091 1.7144 5.96438C2.07705 5.94536 2.44134 5.95407 2.8049 5.95158C2.98224 5.95034 3.15958 5.9466 3.33674 5.95353C3.40558 5.9562 3.43094 5.93042 3.45268 5.87372C3.63618 5.39533 3.82203 4.91801 4.00735 4.44016C4.26113 3.78579 4.5151 3.13159 4.76888 2.47721C4.9734 1.94994 5.17592 1.42196 5.38243 0.895395C5.47988 0.64687 5.70269 0.497542 5.95865 0.500031C6.22077 0.502519 6.41985 0.649892 6.52365 0.907306C6.8613 1.74497 7.20186 2.58156 7.5406 3.41869C7.87173 4.23679 8.20269 5.0549 8.53093 5.87425C8.55665 5.93842 8.584 5.96473 8.65881 5.9642C9.16566 5.96029 9.67269 5.9626 10.1795 5.96207C10.5397 5.96171 10.8134 6.21859 10.8094 6.55494C10.8054 6.8735 10.5116 7.14212 10.1703 7.14105C9.81108 7.13998 9.45187 7.14069 9.09266 7.14105C9.07835 7.14105 9.06404 7.14247 9.04121 7.14354C9.12309 7.3494 9.20207 7.54975 9.2825 7.74939C9.35659 7.93338 9.43665 8.11542 9.50513 8.30137C9.52958 8.36821 9.56491 8.38225 9.62976 8.3819C10.2031 8.37994 10.7764 8.37994 11.3497 8.38083C11.5905 8.38119 11.7885 8.47398 11.9126 8.67771C12.1298 9.03468 11.9243 9.46933 11.4952 9.53386C11.2532 9.5703 11.003 9.55555 10.7563 9.55892C10.4978 9.5623 10.2393 9.55964 9.96832 9.55964C10.0299 9.71359 10.0872 9.85883 10.1458 10.0034C10.4532 10.7607 10.7608 11.5178 11.0686 12.2747C11.2526 12.7272 11.4367 13.1798 11.6218 13.6319C11.7111 13.85 11.7247 14.0651 11.5841 14.2672C11.4465 14.4651 11.2412 14.5198 11.0115 14.494C10.7856 14.4688 10.6284 14.346 10.5429 14.1385C10.4333 13.8729 10.325 13.607 10.2176 13.3407C9.99477 12.7885 9.77359 12.2358 9.5506 11.6838C9.27308 10.9973 8.99339 10.3116 8.71769 9.62452C8.69522 9.56852 8.66986 9.54968 8.60827 9.54986C6.85116 9.55164 5.09422 9.55128 3.33711 9.5511C3.29073 9.5511 3.25559 9.55039 3.23295 9.60799C2.93641 10.3665 2.63571 11.1235 2.33682 11.8812C2.04771 12.6139 1.75969 13.3471 1.47076 14.0798C1.33834 14.4155 0.964637 14.5179 0.713387 14.4183C0.383158 14.2875 0.244581 13.944 0.371202 13.6271C0.62064 13.0029 0.862833 12.3759 1.10865 11.7505C1.32312 11.2049 1.53887 10.6597 1.75353 10.1141C1.82689 9.9278 1.89826 9.74078 1.97597 9.54044L1.97543 9.54079ZM3.74668 8.37674H8.20957C8.19943 8.34563 8.19291 8.32057 8.18331 8.29674C8.03929 7.93978 7.89275 7.58388 7.75218 7.22567C7.72646 7.16007 7.69639 7.13874 7.62356 7.13892C6.80587 7.14141 5.988 7.13963 5.1703 7.13909C4.85656 7.13892 4.543 7.13909 4.22744 7.13909C4.06712 7.5517 3.9088 7.95951 3.74668 8.37674V8.37674ZM5.98673 2.75862C5.97966 2.75827 5.97242 2.75809 5.96535 2.75773C5.55107 3.81761 5.13679 4.8773 4.71834 5.94802H7.26852C6.83956 4.88068 6.41315 3.81974 5.98691 2.75862H5.98673Z" fill="white"/>
</svg>
