<svg width="17" height="21" viewBox="0 0 17 21" xmlns="http://www.w3.org/2000/svg">
<path d="M16.1663 7.56685C16.1564 7.47881 16.1371 7.39208 16.1088 7.3081V7.22185C16.0628 7.12331 16.0013 7.03274 15.9268 6.95352L10.1768 1.20352C10.0975 1.12897 10.007 1.06751 9.90842 1.02143H9.81259C9.71941 0.971602 9.61926 0.936066 9.51551 0.916016H3.70801C2.94551 0.916016 2.21424 1.21892 1.67508 1.75808C1.13591 2.29725 0.833008 3.02852 0.833008 3.79102V17.2077C0.833008 17.9702 1.13591 18.7014 1.67508 19.2406C2.21424 19.7798 2.94551 20.0827 3.70801 20.0827H13.2913C14.0538 20.0827 14.7851 19.7798 15.3243 19.2406C15.8634 18.7014 16.1663 17.9702 16.1663 17.2077V7.62435C16.1663 7.62435 16.1663 7.62435 16.1663 7.56685ZM10.4163 4.18393L12.8984 6.66602H11.3747C11.1205 6.66602 10.8768 6.56505 10.697 6.38533C10.5173 6.2056 10.4163 5.96185 10.4163 5.70768V4.18393ZM14.2497 17.2077C14.2497 17.4618 14.1487 17.7056 13.969 17.8853C13.7893 18.065 13.5455 18.166 13.2913 18.166H3.70801C3.45384 18.166 3.21009 18.065 3.03036 17.8853C2.85064 17.7056 2.74967 17.4618 2.74967 17.2077V3.79102C2.74967 3.53685 2.85064 3.29309 3.03036 3.11337C3.21009 2.93365 3.45384 2.83268 3.70801 2.83268H8.49967V5.70768C8.49967 6.47018 8.80257 7.20145 9.34174 7.74061C9.88091 8.27978 10.6122 8.58268 11.3747 8.58268H14.2497V17.2077ZM9.73592 12.6939L9.45801 12.9814V10.4993C9.45801 10.2452 9.35704 10.0014 9.17732 9.8217C8.9976 9.64198 8.75384 9.54102 8.49967 9.54102C8.24551 9.54102 8.00175 9.64198 7.82203 9.8217C7.64231 10.0014 7.54134 10.2452 7.54134 10.4993V12.9814L7.26342 12.6939C7.08297 12.5135 6.83821 12.4121 6.58301 12.4121C6.3278 12.4121 6.08305 12.5135 5.90259 12.6939C5.72213 12.8744 5.62075 13.1191 5.62075 13.3743C5.62075 13.6296 5.72213 13.8743 5.90259 14.0548L7.81926 15.9714C7.9104 16.0587 8.01787 16.1271 8.13551 16.1727C8.25022 16.2234 8.37426 16.2496 8.49967 16.2496C8.62509 16.2496 8.74913 16.2234 8.86384 16.1727C8.98148 16.1271 9.08895 16.0587 9.18009 15.9714L11.0968 14.0548C11.2772 13.8743 11.3786 13.6296 11.3786 13.3743C11.3786 13.1191 11.2772 12.8744 11.0968 12.6939C10.9163 12.5135 10.6715 12.4121 10.4163 12.4121C10.1611 12.4121 9.91638 12.5135 9.73592 12.6939Z"/>
</svg>
