<svg width="30" height="30" viewBox="0 0 30 30" fill="none" xmlns="http://www.w3.org/2000/svg">
<rect width="30" height="30" rx="15" fill="#13152F"/>
<path d="M9.96929 17.6239C9.81328 17.6239 9.67493 17.6239 9.53635 17.6239C9.10273 17.6239 8.66911 17.6298 8.23572 17.622C7.83765 17.615 7.54261 17.3267 7.50299 16.9245C7.46834 16.5729 7.73916 16.2162 8.10598 16.1382C8.19723 16.1188 8.29256 16.1112 8.38607 16.111C9.07647 16.1087 9.76663 16.1096 10.457 16.1101C10.5143 16.1101 10.5601 16.1142 10.5879 16.0392C10.7688 15.5519 10.9563 15.0669 11.1413 14.5812C11.1452 14.5709 11.1447 14.5591 11.1481 14.5353C11.1107 14.5332 11.0756 14.5298 11.0405 14.5298C10.599 14.5294 10.1575 14.5305 9.71591 14.5291C9.29611 14.5278 8.97276 14.2212 8.94808 13.8039C8.92589 13.4297 9.24878 13.0469 9.643 13.0256C10.0963 13.0012 10.5517 13.0124 11.0061 13.0092C11.2278 13.0076 11.4495 13.0028 11.6709 13.0117C11.757 13.0151 11.7887 12.982 11.8158 12.9091C12.0452 12.294 12.2775 11.6803 12.5092 11.0659C12.8264 10.2246 13.1439 9.38347 13.4611 8.54212C13.7167 7.8642 13.9699 7.18537 14.228 6.50837C14.3499 6.18883 14.6284 5.99684 14.9483 6.00004C15.276 6.00324 15.5248 6.19272 15.6546 6.52368C16.0766 7.60067 16.5023 8.67629 16.9257 9.7526C17.3397 10.8044 17.7534 11.8563 18.1637 12.9097C18.1958 12.9923 18.23 13.0261 18.3235 13.0254C18.9571 13.0204 19.5909 13.0233 20.2244 13.0227C20.6746 13.0222 21.0167 13.3525 21.0117 13.7849C21.0067 14.1945 20.6395 14.5399 20.2129 14.5385C19.7639 14.5371 19.3148 14.538 18.8658 14.5385C18.8479 14.5385 18.83 14.5403 18.8015 14.5417C18.9039 14.8064 19.0026 15.064 19.1031 15.3206C19.1957 15.5572 19.2958 15.7913 19.3814 16.0303C19.412 16.1163 19.4561 16.1343 19.5372 16.1339C20.2539 16.1314 20.9705 16.1314 21.6872 16.1325C21.9881 16.133 22.2356 16.2523 22.3907 16.5142C22.6622 16.9732 22.4054 17.532 21.869 17.615C21.5665 17.6618 21.2538 17.6428 20.9454 17.6472C20.6223 17.6515 20.2991 17.6481 19.9604 17.6481C20.0374 17.846 20.1089 18.0328 20.1823 18.2186C20.5666 19.1923 20.951 20.1657 21.3358 21.139C21.5658 21.7206 21.7959 22.3026 22.0273 22.8838C22.1389 23.1643 22.1559 23.4408 21.9802 23.7007C21.8081 23.9551 21.5515 24.0255 21.2644 23.9923C20.9821 23.9599 20.7855 23.802 20.6786 23.5352C20.5417 23.1937 20.4062 22.8518 20.272 22.5094C19.9935 21.7995 19.717 21.0889 19.4382 20.3792C19.0914 19.4965 18.7417 18.6149 18.3971 17.7315C18.369 17.6595 18.3373 17.6353 18.2603 17.6355C16.0639 17.6378 13.8678 17.6374 11.6714 17.6371C11.6134 17.6371 11.5695 17.6362 11.5412 17.7103C11.1705 18.6856 10.7946 19.6588 10.421 20.6329C10.0596 21.5751 9.69961 22.5177 9.33845 23.4598C9.17293 23.8913 8.7058 24.023 8.39173 23.895C7.97895 23.7268 7.80573 23.2852 7.964 22.8776C8.2758 22.0752 8.57854 21.269 8.88581 20.4649C9.15391 19.7635 9.42359 19.0625 9.69191 18.361C9.78361 18.1215 9.87283 17.881 9.96997 17.6234L9.96929 17.6239ZM12.1833 16.1272H17.762C17.7493 16.0872 17.7411 16.055 17.7291 16.0244C17.5491 15.5654 17.3659 15.1078 17.1902 14.6473C17.1581 14.5629 17.1205 14.5355 17.0295 14.5358C16.0073 14.539 14.985 14.5367 13.9629 14.536C13.5707 14.5358 13.1787 14.536 12.7843 14.536C12.5839 15.0665 12.386 15.5908 12.1833 16.1272V16.1272ZM14.9834 8.90394C14.9746 8.90348 14.9655 8.90326 14.9567 8.9028C14.4388 10.2655 13.921 11.628 13.3979 13.0046H16.5856C16.0495 11.6323 15.5164 10.2682 14.9836 8.90394H14.9834Z" fill="white"/>
</svg>
