<svg width="17" height="20" viewBox="0 0 17 20" fill="none" xmlns="http://www.w3.org/2000/svg">
<path d="M2.79853 12.8078C2.62171 12.8078 2.46492 12.8078 2.30786 12.8078C1.81643 12.8078 1.325 12.8143 0.833818 12.8058C0.382674 12.798 0.0482936 12.4804 0.00338447 12.0371C-0.0358789 11.6498 0.271043 11.2567 0.686773 11.1708C0.790192 11.1494 0.898231 11.1411 1.00422 11.1408C1.78666 11.1383 2.56885 11.1393 3.3513 11.1398C3.41622 11.1398 3.46806 11.1444 3.49962 11.0618C3.70467 10.5248 3.91715 9.99042 4.12681 9.45525C4.13117 9.44392 4.13066 9.43082 4.13451 9.40463C4.09217 9.40236 4.05239 9.39858 4.01261 9.39858C3.5122 9.39808 3.01178 9.39934 2.51137 9.39783C2.03559 9.39632 1.66913 9.0586 1.64116 8.59873C1.61601 8.18646 1.98195 7.76462 2.42873 7.7412C2.94249 7.71426 3.45856 7.7266 3.97361 7.72307C4.22484 7.72131 4.47608 7.71602 4.72705 7.72584C4.82457 7.72962 4.8605 7.6931 4.89129 7.61276C5.15125 6.93505 5.41455 6.25885 5.67707 5.5819C6.0366 4.65486 6.39639 3.72808 6.75592 2.80105C7.04565 2.05408 7.33255 1.3061 7.6251 0.560143C7.76317 0.208066 8.07881 -0.00348242 8.44142 4.33912e-05C8.81276 0.0035692 9.09479 0.212347 9.24183 0.577016C9.72018 1.7637 10.2026 2.94888 10.6825 4.13481C11.1516 5.29379 11.6205 6.45277 12.0855 7.61352C12.1219 7.70443 12.1607 7.74171 12.2667 7.74095C12.9847 7.73541 13.703 7.73868 14.421 7.73793C14.9312 7.73743 15.3189 8.10134 15.3133 8.57783C15.3076 9.02913 14.8914 9.40967 14.4079 9.40815C13.899 9.40664 13.3902 9.40765 12.8813 9.40815C12.861 9.40815 12.8407 9.41017 12.8084 9.41168C12.9244 9.70331 13.0363 9.98714 13.1502 10.27C13.2552 10.5306 13.3686 10.7885 13.4656 11.0519C13.5002 11.1466 13.5503 11.1665 13.6422 11.166C14.4544 11.1633 15.2666 11.1633 16.0788 11.1645C16.4198 11.165 16.7003 11.2965 16.8761 11.5851C17.1838 12.0908 16.8928 12.7065 16.2849 12.798C15.942 12.8496 15.5876 12.8287 15.2381 12.8335C14.8719 12.8383 14.5057 12.8345 14.1218 12.8345C14.209 13.0526 14.2901 13.2583 14.3733 13.4631C14.8088 14.5359 15.2445 15.6085 15.6805 16.6809C15.9412 17.3218 16.202 17.963 16.4642 18.6035C16.5908 18.9125 16.61 19.2172 16.4109 19.5035C16.2158 19.7838 15.9251 19.8614 15.5997 19.8249C15.2797 19.7891 15.0569 19.6151 14.9358 19.3212C14.7805 18.945 14.6271 18.5682 14.4749 18.1909C14.1593 17.4087 13.8459 16.6257 13.53 15.8438C13.1369 14.8711 12.7406 13.8998 12.3501 12.9264C12.3182 12.8471 12.2823 12.8204 12.1951 12.8206C9.70581 12.8232 7.21682 12.8226 4.72757 12.8224C4.66187 12.8224 4.61209 12.8214 4.58001 12.903C4.15992 13.9776 3.73392 15.0499 3.31049 16.1233C2.90092 17.1614 2.49289 18.2 2.08357 19.2381C1.89598 19.7136 1.36657 19.8586 1.01063 19.7176C0.542807 19.5323 0.34649 19.0457 0.52587 18.5967C0.879241 17.7124 1.22235 16.8242 1.57058 15.9382C1.87443 15.1653 2.18007 14.3929 2.48416 13.62C2.5881 13.3561 2.68921 13.0911 2.7993 12.8073L2.79853 12.8078ZM5.30779 11.1587H11.6302C11.6159 11.1146 11.6066 11.0791 11.593 11.0454C11.389 10.5397 11.1814 10.0355 10.9823 9.52803C10.9458 9.4351 10.9032 9.40488 10.8001 9.40513C9.64165 9.40866 8.483 9.40614 7.3246 9.40538C6.88013 9.40513 6.43591 9.40538 5.98887 9.40538C5.76176 9.98991 5.53747 10.5676 5.30779 11.1587V11.1587ZM8.4812 3.19971C8.47119 3.19921 8.46093 3.19896 8.45092 3.19845C7.86402 4.69994 7.27712 6.20118 6.68432 7.71803H10.2971C9.68938 6.20597 9.08529 4.70297 8.48146 3.19971H8.4812Z" fill="#438F68"/>
</svg>
