<svg width="12" height="14" viewBox="0 0 12 14" fill="none" xmlns="http://www.w3.org/2000/svg">
<path d="M1.97543 9.04079C1.85062 9.04079 1.73994 9.04079 1.62908 9.04079C1.28219 9.04079 0.935291 9.04541 0.588578 9.03937C0.270123 9.03386 0.0340896 8.80969 0.00238904 8.49681C-0.0253263 8.2234 0.191324 7.94589 0.484781 7.88527C0.557783 7.87016 0.634045 7.8643 0.708859 7.86412C1.26117 7.86234 1.81331 7.86305 2.36562 7.86341C2.41145 7.86341 2.44804 7.86661 2.47032 7.8083C2.61506 7.42929 2.76505 7.05206 2.91304 6.67429C2.91612 6.66629 2.91576 6.65705 2.91848 6.63856C2.88859 6.63696 2.86051 6.63429 2.83243 6.63429C2.4792 6.63394 2.12596 6.63483 1.77273 6.63376C1.43688 6.6327 1.17821 6.3943 1.15846 6.06969C1.14071 5.77868 1.39902 5.48091 1.7144 5.46438C2.07705 5.44536 2.44134 5.45407 2.8049 5.45158C2.98224 5.45034 3.15958 5.4466 3.33674 5.45353C3.40558 5.4562 3.43094 5.43042 3.45268 5.37372C3.63618 4.89533 3.82203 4.41801 4.00735 3.94016C4.26113 3.28579 4.5151 2.63159 4.76888 1.97721C4.9734 1.44994 5.17592 0.921955 5.38243 0.395395C5.47988 0.14687 5.70269 -0.00245818 5.95865 3.06291e-05C6.22077 0.00251943 6.41985 0.149892 6.52365 0.407306C6.8613 1.24497 7.20186 2.08156 7.5406 2.91869C7.87173 3.73679 8.20269 4.5549 8.53092 5.37425C8.55665 5.43842 8.584 5.46473 8.65881 5.4642C9.16566 5.46029 9.67269 5.4626 10.1795 5.46207C10.5397 5.46171 10.8134 5.71859 10.8094 6.05494C10.8054 6.3735 10.5116 6.64212 10.1703 6.64105C9.81108 6.63998 9.45187 6.64069 9.09266 6.64105C9.07835 6.64105 9.06404 6.64247 9.04121 6.64354C9.12309 6.8494 9.20207 7.04975 9.2825 7.24939C9.35659 7.43338 9.43666 7.61542 9.50513 7.80137C9.52958 7.86821 9.56491 7.88225 9.62976 7.8819C10.2031 7.87994 10.7764 7.87994 11.3497 7.88083C11.5905 7.88119 11.7885 7.97398 11.9126 8.17771C12.1298 8.53468 11.9243 8.96933 11.4952 9.03386C11.2532 9.0703 11.003 9.05555 10.7563 9.05892C10.4978 9.0623 10.2393 9.05964 9.96832 9.05964C10.0299 9.21358 10.0872 9.35883 10.1458 9.50335C10.4532 10.2607 10.7608 11.0178 11.0686 11.7747C11.2526 12.2272 11.4367 12.6798 11.6218 13.1319C11.7111 13.35 11.7247 13.5651 11.5841 13.7672C11.4465 13.9651 11.2412 14.0198 11.0115 13.994C10.7856 13.9688 10.6284 13.846 10.5429 13.6385C10.4333 13.3729 10.325 13.107 10.2176 12.8407C9.99477 12.2885 9.77359 11.7358 9.5506 11.1838C9.27308 10.4973 8.99339 9.81161 8.71769 9.12452C8.69522 9.06852 8.66986 9.04968 8.60827 9.04986C6.85116 9.05164 5.09422 9.05128 3.33711 9.0511C3.29073 9.0511 3.25559 9.05039 3.23295 9.10799C2.93641 9.86654 2.63571 10.6235 2.33682 11.3812C2.04771 12.1139 1.75969 12.8471 1.47076 13.5798C1.33834 13.9155 0.964637 14.0179 0.713387 13.9183C0.383158 13.7875 0.244581 13.444 0.371202 13.1271C0.62064 12.5029 0.862833 11.8759 1.10865 11.2505C1.32312 10.7049 1.53887 10.1597 1.75353 9.61411C1.82689 9.4278 1.89826 9.24078 1.97597 9.04044L1.97543 9.04079ZM3.74668 7.87674H8.20957C8.19943 7.84563 8.19291 7.82057 8.18331 7.79674C8.0393 7.43978 7.89275 7.08388 7.75218 6.72567C7.72646 6.66007 7.69639 6.63874 7.62356 6.63892C6.80587 6.64141 5.988 6.63963 5.1703 6.63909C4.85656 6.63892 4.543 6.63909 4.22744 6.63909C4.06712 7.0517 3.9088 7.45951 3.74668 7.87674ZM5.98673 2.25862C5.97966 2.25827 5.97242 2.25809 5.96535 2.25773C5.55107 3.31761 5.13679 4.3773 4.71834 5.44802H7.26852C6.83956 4.38068 6.41315 3.31974 5.98691 2.25862H5.98673Z" fill="#333333"/>
</svg>
