<svg width="26" height="26" viewBox="0 0 26 26" fill="none" xmlns="http://www.w3.org/2000/svg">
<path d="M18.5074 25.471H3.16965C2.44728 25.471 1.82659 25.2115 1.30759 24.6925C0.788564 24.1735 0.529053 23.5528 0.529053 22.8304V3.16956C0.529053 2.44201 0.788564 1.81688 1.30759 1.29417C1.82659 0.771476 2.44728 0.510132 3.16965 0.510132H22.8305C23.5581 0.510132 24.1832 0.771476 24.7059 1.29417C25.2286 1.81688 25.49 2.44201 25.49 3.16956V18.4884L18.5074 25.471ZM17.1305 22.8304V20.2333C17.1305 19.4185 17.444 18.6977 18.0709 18.0708C18.6977 17.4439 19.4186 17.1304 20.2334 17.1304H22.8305V3.16956H3.16965V22.8304H17.1305ZM11.8871 18.413H14.1131V9.81303H18.4131V7.58697H7.58705V9.81303H11.8871V18.413Z" fill="#6C6F89"/>
</svg>
