<svg xmlns="http://www.w3.org/2000/svg" width="20" height="21" viewBox="0 0 20 21" fill="none">
<path d="M12.7404 14.0748L10.832 15.9915V6.33317C10.832 6.11216 10.7442 5.9002 10.588 5.74392C10.4317 5.58763 10.2197 5.49984 9.9987 5.49984C9.77768 5.49984 9.56572 5.58763 9.40944 5.74392C9.25316 5.9002 9.16536 6.11216 9.16536 6.33317V15.9915L7.25703 14.0748C7.10011 13.9179 6.88728 13.8298 6.66536 13.8298C6.44345 13.8298 6.23062 13.9179 6.0737 14.0748C5.91678 14.2318 5.82862 14.4446 5.82862 14.6665C5.82862 14.8884 5.91678 15.1012 6.0737 15.2582L9.40703 18.5915C9.48628 18.6674 9.57974 18.7268 9.68203 18.7665C9.78178 18.8106 9.88964 18.8334 9.9987 18.8334C10.1078 18.8334 10.2156 18.8106 10.3154 18.7665C10.4177 18.7268 10.5111 18.6674 10.5904 18.5915L13.9237 15.2582C14.0806 15.1012 14.1688 14.8884 14.1688 14.6665C14.1688 14.4446 14.0806 14.2318 13.9237 14.0748C13.846 13.9971 13.7538 13.9355 13.6522 13.8935C13.5507 13.8514 13.4419 13.8298 13.332 13.8298C13.1101 13.8298 12.8973 13.9179 12.7404 14.0748ZM15.832 2.1665H4.16536C3.94435 2.1665 3.73239 2.2543 3.57611 2.41058C3.41983 2.56686 3.33203 2.77882 3.33203 2.99984C3.33203 3.22085 3.41983 3.43281 3.57611 3.58909C3.73239 3.74537 3.94435 3.83317 4.16536 3.83317H15.832C16.053 3.83317 16.265 3.74537 16.4213 3.58909C16.5776 3.43281 16.6654 3.22085 16.6654 2.99984C16.6654 2.77882 16.5776 2.56686 16.4213 2.41058C16.265 2.2543 16.053 2.1665 15.832 2.1665Z" fill="#667085"/>
</svg>
