<svg width="20" height="21" viewBox="0 0 20 21" fill="none" xmlns="http://www.w3.org/2000/svg">
<path d="M15.832 17.1667H4.16536C3.94435 17.1667 3.73239 17.2545 3.57611 17.4108C3.41983 17.5671 3.33203 17.7791 3.33203 18.0001C3.33203 18.2211 3.41983 18.4331 3.57611 18.5893C3.73239 18.7456 3.94435 18.8334 4.16536 18.8334H15.832C16.053 18.8334 16.265 18.7456 16.4213 18.5893C16.5776 18.4331 16.6654 18.2211 16.6654 18.0001C16.6654 17.7791 16.5776 17.5671 16.4213 17.4108C16.265 17.2545 16.053 17.1667 15.832 17.1667ZM7.25703 6.92508L9.16536 5.00841V14.6667C9.16536 14.8878 9.25316 15.0997 9.40944 15.256C9.56572 15.4123 9.77768 15.5001 9.9987 15.5001C10.2197 15.5001 10.4317 15.4123 10.588 15.256C10.7442 15.0997 10.832 14.8878 10.832 14.6667V5.00841L12.7404 6.92508C12.8178 7.00318 12.91 7.06518 13.0115 7.10749C13.1131 7.14979 13.222 7.17158 13.332 7.17158C13.442 7.17158 13.551 7.14979 13.6525 7.10749C13.7541 7.06518 13.8462 7.00318 13.9237 6.92508C14.0018 6.84761 14.0638 6.75544 14.1061 6.65389C14.1484 6.55234 14.1702 6.44342 14.1702 6.33341C14.1702 6.2234 14.1484 6.11448 14.1061 6.01293C14.0638 5.91138 14.0018 5.81921 13.9237 5.74174L10.5904 2.40841C10.5111 2.33254 10.4177 2.27307 10.3154 2.23341C10.1125 2.15006 9.88492 2.15006 9.68203 2.23341C9.57974 2.27307 9.48628 2.33254 9.40703 2.40841L6.0737 5.74174C5.996 5.81944 5.93437 5.91168 5.89231 6.0132C5.85026 6.11472 5.82862 6.22353 5.82862 6.33341C5.82862 6.44329 5.85026 6.5521 5.89231 6.65362C5.93437 6.75514 5.996 6.84738 6.0737 6.92508C6.1514 7.00278 6.24364 7.06441 6.34516 7.10646C6.44668 7.14851 6.55548 7.17015 6.66536 7.17015C6.77525 7.17015 6.88405 7.14851 6.98557 7.10646C7.08709 7.06441 7.17933 7.00278 7.25703 6.92508Z" fill="#667085"/>
</svg>
