<svg width="23" height="23" viewBox="0 0 23 23"   xmlns="http://www.w3.org/2000/svg">
<path d="M18.8121 3.49764C18.7008 3.40758 18.5707 3.34361 18.4314 3.31044C18.2921 3.27728 18.1471 3.27575 18.0071 3.30598C16.9831 3.52059 15.926 3.52332 14.9008 3.31401C13.8757 3.1047 12.9042 2.68777 12.0463 2.08889C11.8859 1.9776 11.6953 1.91797 11.5 1.91797C11.3048 1.91797 11.1142 1.9776 10.9538 2.08889C10.0959 2.68777 9.12441 3.1047 8.09927 3.31401C7.07414 3.52332 6.017 3.52059 4.99296 3.30598C4.85299 3.27575 4.70802 3.27728 4.56871 3.31044C4.4294 3.34361 4.2993 3.40758 4.18796 3.49764C4.07678 3.58784 3.98721 3.7018 3.92585 3.83116C3.86449 3.96051 3.83289 4.10197 3.83338 4.24514V11.3847C3.83253 12.7587 4.15995 14.1131 4.78839 15.3349C5.41683 16.5568 6.32809 17.6109 7.4463 18.4093L10.9442 20.901C11.1065 21.0165 11.3008 21.0786 11.5 21.0786C11.6993 21.0786 11.8936 21.0165 12.0559 20.901L15.5538 18.4093C16.672 17.6109 17.5833 16.5568 18.2117 15.3349C18.8401 14.1131 19.1676 12.7587 19.1667 11.3847V4.24514C19.1672 4.10197 19.1356 3.96051 19.0742 3.83116C19.0129 3.7018 18.9233 3.58784 18.8121 3.49764ZM17.25 11.3847C17.2508 12.453 16.9964 13.5061 16.508 14.4562C16.0196 15.4063 15.3113 16.2261 14.4421 16.8472L11.5 18.946L8.55796 16.8472C7.68879 16.2261 6.98053 15.4063 6.49213 14.4562C6.00373 13.5061 5.74931 12.453 5.75005 11.3847V5.34723C7.75912 5.51918 9.77125 5.05304 11.5 4.01514C13.2288 5.05304 15.241 5.51918 17.25 5.34723V11.3847ZM12.9759 9.19014L10.398 11.7776L9.54505 10.9151C9.36459 10.7347 9.11984 10.6333 8.86463 10.6333C8.60942 10.6333 8.36467 10.7347 8.18421 10.9151C8.00376 11.0956 7.90238 11.3404 7.90238 11.5956C7.90238 11.8508 8.00376 12.0955 8.18421 12.276L9.71755 13.8093C9.80664 13.8991 9.91263 13.9704 10.0294 14.0191C10.1462 14.0677 10.2715 14.0928 10.398 14.0928C10.5245 14.0928 10.6497 14.0677 10.7665 14.0191C10.8833 13.9704 10.9893 13.8991 11.0784 13.8093L14.375 10.5414C14.5555 10.3609 14.6569 10.1162 14.6569 9.86098C14.6569 9.60577 14.5555 9.36102 14.375 9.18056C14.1946 9.0001 13.9498 8.89872 13.6946 8.89872C13.4394 8.89872 13.1947 9.0001 13.0142 9.18056L12.9759 9.19014Z" />
</svg>
