<svg xmlns="http://www.w3.org/2000/svg" width="21" height="21" viewBox="0 0 21 21" fill="none">
  <path d="M9.53748 13.5188L14.6344 8.4219L13.6062 7.41565L9.6031 11.4188L7.37185 9.2094L6.32185 10.2594L9.53748 13.5188ZM10.5 19.5563C8.37081 19.0167 6.62081 17.788 5.24998 15.8703C3.87914 13.9526 3.19373 11.849 3.19373 9.5594V4.1344L10.5 1.40002L17.8281 4.1344V9.5594C17.8281 11.849 17.139 13.9526 15.7609 15.8703C14.3828 17.788 12.6291 19.0167 10.5 19.5563ZM10.5 17.7625C12.1333 17.1792 13.4713 16.1365 14.514 14.6344C15.5567 13.1323 16.0781 11.4406 16.0781 9.5594V5.3594L10.5 3.2594L4.92185 5.3594V9.5594C4.92185 11.4406 5.4432 13.1323 6.48591 14.6344C7.52862 16.1365 8.86664 17.1792 10.5 17.7625Z" fill="#6C6F89"/>
</svg>