<svg width="21" height="21" viewBox="0 0 21 21" fill="none" xmlns="http://www.w3.org/2000/svg">
<path d="M3.23189 15.5551C2.97632 15.5551 2.75976 15.4671 2.58222 15.2912C2.40469 15.1152 2.31592 14.8986 2.31592 14.6416C2.31592 14.3845 2.40596 14.1671 2.58605 13.9896C2.76616 13.8121 2.984 13.7233 3.23957 13.7233C3.49514 13.7233 3.7104 13.8133 3.88534 13.9933C4.06027 14.1733 4.14773 14.3899 4.14773 14.643C4.14773 14.9043 4.05996 15.1216 3.88442 15.295C3.7089 15.4684 3.49139 15.5551 3.23189 15.5551ZM3.23189 11.416C2.97632 11.416 2.75976 11.326 2.58222 11.146C2.40469 10.9661 2.31592 10.7495 2.31592 10.4964C2.31592 10.2433 2.40596 10.028 2.58605 9.85045C2.76616 9.67291 2.984 9.58414 3.23957 9.58414C3.49514 9.58414 3.7104 9.67411 3.88534 9.85406C4.06027 10.034 4.14773 10.2506 4.14773 10.5037C4.14773 10.7568 4.05996 10.9721 3.88442 11.1496C3.7089 11.3272 3.49139 11.416 3.23189 11.416ZM3.23189 7.26445C2.97632 7.26445 2.75976 7.17646 2.58222 7.00049C2.40469 6.82451 2.31592 6.60798 2.31592 6.35089C2.31592 6.09378 2.40596 5.87646 2.58605 5.69892C2.76616 5.52139 2.984 5.43262 3.23957 5.43262C3.49514 5.43262 3.7104 5.52262 3.88534 5.70262C4.06027 5.88261 4.14773 6.09919 4.14773 6.35237C4.14773 6.61359 4.05996 6.8309 3.88442 7.00431C3.7089 7.17774 3.49139 7.26445 3.23189 7.26445ZM6.46742 15.518V13.7727H18.6841V15.518H6.46742ZM6.46742 11.3665V9.6336H18.6841V11.3665H6.46742ZM6.46742 7.22735V5.48208H18.6841V7.22735H6.46742Z"/>
</svg>
