<svg width="17" height="11" viewBox="0 0 17 11" fill="none" xmlns="http://www.w3.org/2000/svg">
<path d="M1.23189 10.5551C0.976317 10.5551 0.759762 10.4671 0.582224 10.2912C0.404687 10.1152 0.315918 9.89864 0.315918 9.64155C0.315918 9.38445 0.405963 9.16713 0.586052 8.98959C0.766156 8.81205 0.983995 8.72329 1.23957 8.72329C1.49514 8.72329 1.7104 8.81329 1.88534 8.99329C2.06027 9.17328 2.14773 9.38986 2.14773 9.64304C2.14773 9.90426 2.05996 10.1216 1.88442 10.295C1.7089 10.4684 1.49139 10.5551 1.23189 10.5551ZM1.23189 6.41595C0.976317 6.41595 0.759762 6.32598 0.582224 6.14604C0.404687 5.96608 0.315918 5.74954 0.315918 5.49642C0.315918 5.24331 0.405963 5.02799 0.586052 4.85045C0.766156 4.67291 0.983995 4.58414 1.23957 4.58414C1.49514 4.58414 1.7104 4.67411 1.88534 4.85406C2.06027 5.03402 2.14773 5.25056 2.14773 5.50368C2.14773 5.75679 2.05996 5.97211 1.88442 6.14965C1.7089 6.32719 1.49139 6.41595 1.23189 6.41595ZM1.23189 2.26445C0.976317 2.26445 0.759762 2.17646 0.582224 2.00049C0.404687 1.82451 0.315918 1.60798 0.315918 1.35089C0.315918 1.09378 0.405963 0.876461 0.586052 0.698923C0.766156 0.521386 0.983995 0.432617 1.23957 0.432617C1.49514 0.432617 1.7104 0.522618 1.88534 0.70262C2.06027 0.882608 2.14773 1.09919 2.14773 1.35237C2.14773 1.61359 2.05996 1.8309 1.88442 2.00431C1.7089 2.17774 1.49139 2.26445 1.23189 2.26445ZM4.46742 10.518V8.77275H16.6841V10.518H4.46742ZM4.46742 6.3665V4.6336H16.6841V6.3665H4.46742ZM4.46742 2.22735V0.482076H16.6841V2.22735H4.46742Z"/>
</svg>
