<svg width="29" height="29" viewBox="0 0 29 29" fill="none" xmlns="http://www.w3.org/2000/svg">
<rect width="29" height="29" rx="14.5" fill="#66BDFF"/>
<path d="M9.06879 14.1512C9.11244 14.0387 9.17788 13.936 9.26137 13.8489L13.8466 9.26936C13.9321 9.18396 14.0336 9.11622 14.1453 9.07001C14.2571 9.02379 14.3768 9 14.4977 9C14.7419 9 14.9761 9.09689 15.1488 9.26936C15.2343 9.35476 15.3021 9.45614 15.3484 9.56772C15.3947 9.6793 15.4185 9.79889 15.4185 9.91966C15.4185 10.1636 15.3215 10.3975 15.1488 10.57L12.1226 13.5833H19.083C19.3262 13.5833 19.5594 13.6798 19.7314 13.8516C19.9034 14.0233 20 14.2563 20 14.4992C20 14.7421 19.9034 14.9751 19.7314 15.1469C19.5594 15.3186 19.3262 15.4151 19.083 15.4151H12.1226L15.1488 18.4285C15.2348 18.5136 15.303 18.6149 15.3496 18.7265C15.3961 18.8382 15.4201 18.9579 15.4201 19.0788C15.4201 19.1997 15.3961 19.3194 15.3496 19.431C15.303 19.5426 15.2348 19.6439 15.1488 19.7291C15.0636 19.8149 14.9621 19.8831 14.8504 19.9296C14.7386 19.9761 14.6188 20 14.4977 20C14.3767 20 14.2568 19.9761 14.145 19.9296C14.0333 19.8831 13.9319 19.8149 13.8466 19.7291L9.26137 15.1495C9.17788 15.0624 9.11244 14.9597 9.06879 14.8473C8.97707 14.6243 8.97707 14.3742 9.06879 14.1512Z" fill="#131316"/>
</svg>
