<svg width="18" height="17" viewBox="0 0 18 17" fill="none" xmlns="http://www.w3.org/2000/svg">
    <path
    d="M3.1875 4.25V12.75C3.1875 13.0318 3.29944 13.302 3.4987 13.5013C3.69796 13.7006 3.96821 13.8125 4.25 13.8125H14.875C15.0159 13.8125 15.151 13.7565 15.2507 13.6569C15.3503 13.5573 15.4062 13.4221 15.4062 13.2812V5.84375C15.4062 5.70285 15.3503 5.56773 15.2507 5.4681C15.151 5.36847 15.0159 5.3125 14.875 5.3125H4.25C3.96821 5.3125 3.69796 5.20056 3.4987 5.0013C3.29944 4.80204 3.1875 4.53179 3.1875 4.25ZM3.1875 4.25C3.1875 3.96821 3.29944 3.69796 3.4987 3.4987C3.69796 3.29944 3.96821 3.1875 4.25 3.1875H12.75"
    stroke="#0033AD"
    stroke-width="1.2"
    stroke-linecap="round"
    stroke-linejoin="round"
    />
    <path
    d="M12.2812 9.5625C12.2812 9.45032 12.3722 9.35938 12.4844 9.35938C12.5966 9.35938 12.6875 9.45032 12.6875 9.5625C12.6875 9.67468 12.5966 9.76562 12.4844 9.76562C12.3722 9.76562 12.2812 9.67468 12.2812 9.5625Z"
    fill="#438F68"
    stroke="#0033AD"
    stroke-width="2"
    />
</svg>
