<svg width="23" height="23" viewBox="0 0 23 23" fill="none" xmlns="http://www.w3.org/2000/svg">
<rect width="23" height="23" rx="11.5" fill="#6C6F89"/>
<path d="M6.73438 18.1094C6.40104 18.1094 6.11198 17.987 5.86719 17.7422C5.6224 17.4974 5.5 17.2083 5.5 16.875V7.53125H6.73438V16.875H14.0625V18.1094H6.73438ZM8.92188 15.9375C8.57812 15.9375 8.28385 15.8151 8.03906 15.5703C7.79427 15.3255 7.67188 15.0312 7.67188 14.6875V6.09375C7.67188 5.76042 7.79427 5.47135 8.03906 5.22656C8.28385 4.98177 8.57812 4.85938 8.92188 4.85938H15.6406C15.974 4.85938 16.263 4.98177 16.5078 5.22656C16.7526 5.47135 16.875 5.76042 16.875 6.09375V14.6875C16.875 15.0312 16.7526 15.3255 16.5078 15.5703C16.263 15.8151 15.974 15.9375 15.6406 15.9375H8.92188ZM8.92188 14.6875H15.6406V6.09375H8.92188V14.6875Z" fill="#F6F9FF"/>
</svg>
