<svg width="14" height="14" viewBox="0 0 14 14" fill="none" xmlns="http://www.w3.org/2000/svg">
<path d="M10.4998 6.3115C10.3451 6.3115 10.1968 6.37296 10.0874 6.48236C9.97796 6.59175 9.9165 6.74013 9.9165 6.89484V11.0832C9.9165 11.2379 9.85505 11.3863 9.74565 11.4957C9.63625 11.605 9.48788 11.6665 9.33317 11.6665H2.9165C2.76179 11.6665 2.61342 11.605 2.50403 11.4957C2.39463 11.3863 2.33317 11.2379 2.33317 11.0832V4.6665C2.33317 4.51179 2.39463 4.36342 2.50403 4.25403C2.61342 4.14463 2.76179 4.08317 2.9165 4.08317H7.10484C7.25955 4.08317 7.40792 4.02171 7.51732 3.91232C7.62671 3.80292 7.68817 3.65455 7.68817 3.49984C7.68817 3.34513 7.62671 3.19675 7.51732 3.08736C7.40792 2.97796 7.25955 2.9165 7.10484 2.9165H2.9165C2.45238 2.9165 2.00726 3.10088 1.67907 3.42907C1.35088 3.75726 1.1665 4.20238 1.1665 4.6665V11.0832C1.1665 11.5473 1.35088 11.9924 1.67907 12.3206C2.00726 12.6488 2.45238 12.8332 2.9165 12.8332H9.33317C9.7973 12.8332 10.2424 12.6488 10.5706 12.3206C10.8988 11.9924 11.0832 11.5473 11.0832 11.0832V6.89484C11.0832 6.74013 11.0217 6.59175 10.9123 6.48236C10.8029 6.37296 10.6545 6.3115 10.4998 6.3115ZM12.7865 1.52817C12.7273 1.38563 12.614 1.27236 12.4715 1.21317C12.4014 1.18328 12.3261 1.16743 12.2498 1.1665H8.74984C8.59513 1.1665 8.44676 1.22796 8.33736 1.33736C8.22796 1.44675 8.1665 1.59513 8.1665 1.74984C8.1665 1.90455 8.22796 2.05292 8.33736 2.16232C8.44676 2.27171 8.59513 2.33317 8.74984 2.33317H10.844L4.83567 8.33567C4.781 8.3899 4.7376 8.45442 4.70798 8.5255C4.67837 8.59659 4.66312 8.67283 4.66312 8.74984C4.66312 8.82684 4.67837 8.90309 4.70798 8.97417C4.7376 9.04526 4.781 9.10978 4.83567 9.164C4.8899 9.21868 4.95442 9.26208 5.0255 9.29169C5.09659 9.32131 5.17283 9.33655 5.24984 9.33655C5.32684 9.33655 5.40309 9.32131 5.47417 9.29169C5.54526 9.26208 5.60978 9.21868 5.664 9.164L11.6665 3.15567V5.24984C11.6665 5.40455 11.728 5.55292 11.8374 5.66232C11.9468 5.77171 12.0951 5.83317 12.2498 5.83317C12.4045 5.83317 12.5529 5.77171 12.6623 5.66232C12.7717 5.55292 12.8332 5.40455 12.8332 5.24984V1.74984C12.8322 1.67361 12.8164 1.5983 12.7865 1.52817V1.52817Z" fill="#0052CC"/>
</svg>
