<svg width="20" height="24" viewBox="0 0 20 24" fill="none" xmlns="http://www.w3.org/2000/svg">
<path d="M19.8817 6.59839C19.8817 6.59839 19.8817 6.59839 19.8817 6.50506L19.8117 6.33006C19.7873 6.29292 19.76 6.25781 19.73 6.22506C19.6988 6.17567 19.6637 6.12885 19.625 6.08506L19.52 6.00339L19.3333 5.91006L10.5833 0.508391C10.3979 0.392503 10.1837 0.331055 9.96501 0.331055C9.74635 0.331055 9.53209 0.392503 9.34667 0.508391L0.666673 5.91006L0.561673 6.00339L0.456673 6.08506C0.418 6.12885 0.382888 6.17567 0.351673 6.22506C0.32168 6.25781 0.29437 6.29292 0.270006 6.33006L0.200006 6.50506C0.200006 6.50506 0.200006 6.50506 0.200006 6.59839C0.18854 6.69918 0.18854 6.80094 0.200006 6.90172V17.0984C0.19961 17.2967 0.249748 17.4918 0.345689 17.6653C0.44163 17.8388 0.580208 17.985 0.74834 18.0901L9.49834 23.4917C9.5522 23.525 9.6114 23.5487 9.67334 23.5617C9.67334 23.5617 9.73167 23.5617 9.76667 23.5617C9.96405 23.6243 10.176 23.6243 10.3733 23.5617C10.3733 23.5617 10.4317 23.5617 10.4667 23.5617C10.5286 23.5487 10.5878 23.525 10.6417 23.4917L19.3333 18.0901C19.5015 17.985 19.6401 17.8388 19.736 17.6653C19.8319 17.4918 19.8821 17.2967 19.8817 17.0984V6.90172C19.8931 6.80094 19.8931 6.69918 19.8817 6.59839ZM8.83334 20.4117L2.41667 16.4451V9.00172L8.83334 12.9567V20.4117ZM10 10.9384L3.46667 6.90172L10 2.87672L16.5333 6.90172L10 10.9384ZM17.5833 16.4451L11.1667 20.4117V12.9567L17.5833 9.00172V16.4451Z" fill="#0033AD"/>
</svg>
