<svg width="12" height="14" viewBox="0 0 12 14" xmlns="http://www.w3.org/2000/svg">
<path d="M6.00307 6.89926C6.34837 6.89926 6.64119 6.77964 6.88152 6.54039C7.12186 6.30116 7.24204 6.00889 7.24204 5.66358C7.24204 5.31828 7.12176 5.02546 6.88122 4.78513C6.64067 4.54478 6.34684 4.42461 5.9997 4.42461C5.65256 4.42461 5.36039 4.54488 5.12319 4.78543C4.88599 5.02597 4.76739 5.31981 4.76739 5.66694C4.76739 6.01409 4.88701 6.30626 5.12625 6.54346C5.36549 6.78066 5.65776 6.89926 6.00307 6.89926ZM6 12.1616C7.44638 10.8548 8.51606 9.68403 9.20905 8.64924C9.90205 7.61447 10.2486 6.65529 10.2486 5.77171C10.2486 4.49606 9.83859 3.45154 9.01865 2.63816C8.19872 1.82478 7.19298 1.41809 6.00142 1.41809C4.80985 1.41809 3.80364 1.82478 2.98277 2.63816C2.16189 3.45154 1.75145 4.49606 1.75145 5.77171C1.75145 6.65529 2.10629 7.6129 2.81595 8.64454C3.52561 9.67618 4.58696 10.8485 6 12.1616ZM6 13.9022C4.13575 12.336 2.74154 10.8938 1.81739 9.57571C0.89323 8.25759 0.431152 6.98959 0.431152 5.77171C0.431152 4.044 0.990936 2.66485 2.1105 1.63426C3.23008 0.603673 4.52658 0.0883789 6 0.0883789C7.47074 0.0883789 8.76813 0.603673 9.89219 1.63426C11.0162 2.66485 11.5783 4.044 11.5783 5.77171C11.5783 6.98959 11.1146 8.25759 10.1873 9.57571C9.26004 10.8938 7.86426 12.336 6 13.9022Z" />
</svg>
