<svg width="18" height="26" viewBox="0 0 18 26" fill="none" xmlns="http://www.w3.org/2000/svg">
<rect x="2" width="14" height="20"   />
<rect x="1" y="18" width="5" height="4" />
<rect x="12" y="19" width="5" height="3" />
<path d="M16.0952 0H1.2381C0.909732 0 0.594818 0.136962 0.36263 0.380756C0.130442 0.62455 2.68086e-09 0.955205 2.68086e-09 1.29998V24.6997C-1.55695e-05 24.9482 0.0678089 25.1915 0.195438 25.4008C0.323068 25.61 0.505154 25.7765 0.720126 25.8805C0.935098 25.9845 1.17395 26.0215 1.40838 25.9874C1.64281 25.9532 1.863 25.8492 2.04286 25.6876L8.66667 19.8507L15.2162 25.6226C15.3319 25.7431 15.4691 25.8385 15.6199 25.9031C15.7708 25.9678 15.9323 26.0006 16.0952 25.9996C16.2576 26.004 16.4188 25.9684 16.5657 25.8956C16.7918 25.7981 16.9854 25.6325 17.122 25.4197C17.2586 25.2068 17.3321 24.9563 17.3333 24.6997V1.29998C17.3333 0.955205 17.2029 0.62455 16.9707 0.380756C16.7385 0.136962 16.4236 0 16.0952 0ZM14.8571 21.9177L9.45905 17.1598C9.23658 16.9652 8.9562 16.8587 8.66667 16.8587C8.37713 16.8587 8.09676 16.9652 7.87429 17.1598L2.47619 21.9177V2.59996H14.8571V21.9177Z" fill="#53A57B"/>
</svg>
