<svg width="18" height="27" viewBox="0 0 18 27" xmlns="http://www.w3.org/2000/svg">
<path d="M16.0952 0.5H1.2381C0.909732 0.5 0.594818 0.636962 0.36263 0.880756C0.130442 1.12455 2.68086e-09 1.45521 2.68086e-09 1.79998V25.1997C-1.55695e-05 25.4482 0.0678089 25.6915 0.195438 25.9008C0.323068 26.11 0.505154 26.2765 0.720126 26.3805C0.935098 26.4845 1.17395 26.5215 1.40838 26.4874C1.64281 26.4532 1.863 26.3492 2.04286 26.1876L8.66667 20.3507L15.2162 26.1226C15.3319 26.2431 15.4691 26.3385 15.6199 26.4031C15.7708 26.4678 15.9323 26.5006 16.0952 26.4996C16.2576 26.504 16.4188 26.4684 16.5657 26.3956C16.7918 26.2981 16.9854 26.1325 17.122 25.9197C17.2586 25.7068 17.3321 25.4563 17.3333 25.1997V1.79998C17.3333 1.45521 17.2029 1.12455 16.9707 0.880756C16.7385 0.636962 16.4236 0.5 16.0952 0.5ZM14.8571 22.4177L9.45905 17.6598C9.23658 17.4652 8.9562 17.3587 8.66667 17.3587C8.37713 17.3587 8.09676 17.4652 7.87429 17.6598L2.47619 22.4177V3.09996H14.8571V22.4177Z"/>
</svg>
