<svg width="24" height="24" viewBox="0 0 24 24" fill="none" xmlns="http://www.w3.org/2000/svg">
<path d="M20.1666 2.66634H17.8333V1.49967C17.8333 1.19026 17.7103 0.893509 17.4915 0.674717C17.2728 0.455924 16.976 0.333008 16.6666 0.333008C16.3572 0.333008 16.0604 0.455924 15.8416 0.674717C15.6228 0.893509 15.4999 1.19026 15.4999 1.49967V2.66634H8.49992V1.49967C8.49992 1.19026 8.377 0.893509 8.15821 0.674717C7.93942 0.455924 7.64267 0.333008 7.33325 0.333008C7.02383 0.333008 6.72709 0.455924 6.50829 0.674717C6.2895 0.893509 6.16659 1.19026 6.16659 1.49967V2.66634H3.83325C2.90499 2.66634 2.01476 3.03509 1.35838 3.69147C0.702001 4.34785 0.333252 5.23808 0.333252 6.16634V20.1663C0.333252 21.0946 0.702001 21.9848 1.35838 22.6412C2.01476 23.2976 2.90499 23.6663 3.83325 23.6663H20.1666C21.0948 23.6663 21.9851 23.2976 22.6415 22.6412C23.2978 21.9848 23.6666 21.0946 23.6666 20.1663V6.16634C23.6666 5.23808 23.2978 4.34785 22.6415 3.69147C21.9851 3.03509 21.0948 2.66634 20.1666 2.66634ZM21.3333 20.1663C21.3333 20.4758 21.2103 20.7725 20.9915 20.9913C20.7728 21.2101 20.476 21.333 20.1666 21.333H3.83325C3.52383 21.333 3.22709 21.2101 3.00829 20.9913C2.7895 20.7725 2.66659 20.4758 2.66659 20.1663V11.9997H21.3333V20.1663ZM21.3333 9.66634H2.66659V6.16634C2.66659 5.85692 2.7895 5.56018 3.00829 5.34138C3.22709 5.12259 3.52383 4.99967 3.83325 4.99967H6.16659V6.16634C6.16659 6.47576 6.2895 6.77251 6.50829 6.9913C6.72709 7.21009 7.02383 7.33301 7.33325 7.33301C7.64267 7.33301 7.93942 7.21009 8.15821 6.9913C8.377 6.77251 8.49992 6.47576 8.49992 6.16634V4.99967H15.4999V6.16634C15.4999 6.47576 15.6228 6.77251 15.8416 6.9913C16.0604 7.21009 16.3572 7.33301 16.6666 7.33301C16.976 7.33301 17.2728 7.21009 17.4915 6.9913C17.7103 6.77251 17.8333 6.47576 17.8333 6.16634V4.99967H20.1666C20.476 4.99967 20.7728 5.12259 20.9915 5.34138C21.2103 5.56018 21.3333 5.85692 21.3333 6.16634V9.66634Z" fill="#0048DB"/>
</svg>
