<svg width="601" height="70" viewBox="0 0 601 70" fill="none" xmlns="http://www.w3.org/2000/svg">
<mask id="mask0_23828_69001" style="mask-type:luminance" maskUnits="userSpaceOnUse" x="0" y="0" width="601" height="70">
<path d="M600.5 0H0.5V69.1358H600.5V0Z" fill="white"/>
</mask>
<g mask="url(#mask0_23828_69001)">
<path fill-rule="evenodd" clip-rule="evenodd" d="M484.327 51.259C481.029 51.259 478.181 50.6518 475.783 49.4379C473.419 48.1926 471.597 46.3405 470.321 43.8812C469.043 41.4222 468.406 38.3558 468.406 34.6826C468.406 30.9783 469.043 27.9122 470.321 25.484C471.597 23.0249 473.419 21.1882 475.783 19.9742C478.181 18.7291 481.029 18.1064 484.327 18.1064C487.66 18.1064 490.508 18.7291 492.873 19.9742C495.27 21.1882 497.092 23.0249 498.335 25.484C499.613 27.9122 500.25 30.9783 500.25 34.6826C500.25 38.3558 499.613 41.4222 498.335 43.8812C497.092 46.3405 495.27 48.1926 492.873 49.4379C490.508 50.6518 487.66 51.259 484.327 51.259ZM484.327 48.0837C486.165 48.0837 487.83 47.8502 489.325 47.3833C490.818 46.8853 492.093 46.107 493.152 45.0486C494.211 43.9901 495.021 42.6516 495.58 41.0329C496.173 39.4143 496.469 37.4686 496.469 35.1962V34.2156C496.469 31.9122 496.173 29.9512 495.58 28.3322C495.021 26.7136 494.211 25.3751 493.152 24.3167C492.093 23.2583 490.818 22.4956 489.325 22.0287C487.83 21.5306 486.165 21.2816 484.327 21.2816C482.491 21.2816 480.826 21.5306 479.331 22.0287C477.869 22.4956 476.609 23.2583 475.55 24.3167C474.491 25.3751 473.666 26.7136 473.076 28.3322C472.513 29.9512 472.233 31.9122 472.233 34.2156V35.1962C472.233 37.4686 472.513 39.4143 473.076 41.0329C473.666 42.6516 474.491 43.9901 475.55 45.0486C476.609 46.107 477.869 46.8853 479.331 47.3833C480.826 47.8502 482.491 48.0837 484.327 48.0837ZM353.035 18.667V50.6987H377.831V47.5237H356.725V35.8968H375.496V32.6751H356.725V21.8422H377.548V18.667H353.035ZM393.97 33.9357L381.037 50.6987H385.427L396.118 36.6908H396.351L407.045 50.6987H411.575L398.639 33.8891L410.173 18.667H405.83L396.494 31.1341H396.258L386.733 18.667H382.203L393.97 33.9357ZM416.326 50.6987V18.667H432.013C434.195 18.667 435.983 19.0872 437.385 19.9277C438.817 20.7371 439.874 21.8577 440.559 23.2897C441.275 24.7216 441.635 26.3559 441.635 28.1925C441.635 30.0913 441.229 31.7879 440.419 33.282C439.61 34.7763 438.491 35.9437 437.059 36.784C435.627 37.5934 433.975 37.998 432.107 37.998H420.013V50.6987H416.326ZM420.013 34.823H431.827C433.632 34.823 435.097 34.2471 436.216 33.0954C437.339 31.9124 437.898 30.2938 437.898 28.2392C437.898 26.9006 437.665 25.7644 437.199 24.8305C436.762 23.8655 436.093 23.134 435.19 22.6359C434.288 22.1067 433.166 21.8422 431.827 21.8422H420.013V34.823ZM447.287 18.667V50.6987H466.807V47.477H450.977V18.667H447.287ZM507.068 18.667V50.6987H510.758V37.5311H523.974L530.369 50.6987H534.432L527.614 36.8776C529.326 36.2238 530.695 35.1187 531.724 33.5624C532.783 31.9747 533.31 30.0447 533.31 27.7722C533.31 26.029 532.953 24.4726 532.237 23.1029C531.551 21.7332 530.509 20.6593 529.11 19.881C527.738 19.0717 525.996 18.667 523.878 18.667H507.068ZM523.505 34.356H510.758V21.8422H523.505C524.843 21.8422 525.965 22.0912 526.868 22.5892C527.771 23.0562 528.454 23.7255 528.923 24.5971C529.389 25.4687 529.623 26.5271 529.623 27.7722C529.623 29.8268 529.077 31.4455 527.987 32.6285C526.898 33.7802 525.403 34.356 523.505 34.356ZM541.268 50.6987V18.667H565.781V21.8422H544.958V32.6751H563.728V35.8968H544.958V47.5237H566.063V50.6987H541.268ZM572.961 18.667V50.6987H576.648V37.5311H589.864L596.259 50.6987H600.322L593.504 36.8776C595.216 36.2238 596.588 35.1187 597.614 33.5624C598.673 31.9747 599.202 30.0447 599.202 27.7722C599.202 26.029 598.843 24.4726 598.127 23.1029C597.444 21.7332 596.398 20.6593 594.999 19.881C593.63 19.0717 591.885 18.667 589.77 18.667H572.961ZM589.397 34.356H576.648V21.8422H589.397C590.733 21.8422 591.855 22.0912 592.758 22.5892C593.661 23.0562 594.346 23.7255 594.813 24.5971C595.279 25.4687 595.512 26.5271 595.512 27.7722C595.512 29.8268 594.969 31.4455 593.877 32.6285C592.788 33.7802 591.296 34.356 589.397 34.356Z" fill="url(#paint0_linear_23828_69001)"/>
<path fill-rule="evenodd" clip-rule="evenodd" d="M37.5949 4.12834C38.0028 4.15158 38.4086 4.05328 38.7609 3.8459C39.1128 3.63852 39.3957 3.33136 39.5732 2.96329C39.7507 2.5952 39.8149 2.18274 39.7581 1.77807C39.701 1.3734 39.5255 0.9947 39.2533 0.689882C38.9812 0.385065 38.6248 0.167821 38.2289 0.0656321C37.8333 -0.0365569 37.4163 -0.0190995 37.0305 0.115796C36.6448 0.250691 36.3076 0.496963 36.0618 0.82346C35.816 1.14996 35.6728 1.54201 35.6497 1.95002C35.619 2.49677 35.8067 3.03333 36.1716 3.44181C36.5362 3.85026 37.0481 4.0972 37.5949 4.12834ZM55.5646 5.15154C55.2431 5.15443 54.9281 5.06194 54.6596 4.88581C54.2996 4.64987 54.048 4.28071 53.96 3.85942C53.8722 3.43813 53.955 2.99914 54.1904 2.63889C54.3663 2.36992 54.6179 2.15915 54.9133 2.03323C55.2091 1.90731 55.5353 1.87191 55.8511 1.93149C56.1668 1.99109 56.4579 2.14299 56.6873 2.36799C56.9166 2.593 57.0741 2.88098 57.1397 3.19552C57.2055 3.51004 57.1764 3.837 57.0563 4.13497C56.9358 4.43297 56.7301 4.68861 56.4645 4.86957C56.1989 5.05053 55.8859 5.14866 55.5646 5.15154ZM20.6161 5.05524C20.9011 4.90885 21.1365 4.68139 21.2926 4.40152C21.4487 4.12163 21.5185 3.80183 21.4932 3.48237C21.4679 3.1629 21.3487 2.85804 21.1506 2.60619C20.9524 2.35434 20.6842 2.16673 20.3796 2.06699C20.0751 1.96725 19.7478 1.95984 19.4391 2.04568C19.1303 2.13152 18.8539 2.30679 18.6445 2.54941C18.4352 2.79203 18.3023 3.09115 18.2625 3.40915C18.2228 3.72715 18.278 4.04978 18.4213 4.33645C18.5176 4.52833 18.6509 4.69925 18.8136 4.83938C18.9762 4.97949 19.165 5.08602 19.369 5.15285C19.573 5.21966 19.7883 5.24545 20.0023 5.22868C20.2163 5.21195 20.4249 5.15299 20.6161 5.05524ZM22.1993 37.8281C21.3124 36.8322 20.8572 35.5249 20.9336 34.1935L20.9199 34.1963C20.9762 33.2177 21.3178 32.2766 21.9027 31.4895C22.4875 30.7027 23.29 30.1044 24.2111 29.768C25.1321 29.4319 26.1314 29.3729 27.0857 29.5982C28.0399 29.8234 28.9074 30.3233 29.5809 31.0358C30.2544 31.7483 30.7044 32.6424 30.8756 33.6078C31.0468 34.5732 30.9315 35.5677 30.5441 36.4684C30.1568 37.3691 29.5142 38.1365 28.6956 38.6761C27.8769 39.2157 26.9182 39.5041 25.9378 39.5049H25.6634C24.3321 39.4273 23.0861 38.8242 22.1993 37.8281ZM1.29761 33.1437C1.57373 32.9808 1.89193 32.9034 2.21201 32.9215C2.42493 32.9331 2.63347 32.9865 2.82565 33.0787C3.01782 33.1712 3.18985 33.3007 3.33185 33.4598C3.47385 33.6189 3.58302 33.8044 3.65309 34.0058C3.72315 34.2071 3.75273 34.4206 3.74014 34.6335C3.72173 34.9534 3.60886 35.2609 3.4158 35.5166C3.22274 35.7726 2.95815 35.9657 2.65546 36.071C2.35277 36.1767 2.02557 36.1904 1.71522 36.11C1.40486 36.0296 1.12528 35.8593 0.9118 35.62C0.698321 35.3808 0.560528 35.0837 0.515835 34.7662C0.471143 34.4488 0.521556 34.1254 0.660704 33.8365C0.799852 33.5476 1.02149 33.3067 1.29761 33.1437ZM26.7625 12.9342C26.5185 13.3659 26.1519 13.7154 25.7092 13.9388C25.415 14.0871 25.0945 14.1761 24.766 14.2006C24.4374 14.225 24.1073 14.1845 23.7944 14.0813C23.4816 13.9781 23.1921 13.8143 22.9425 13.5992C22.693 13.3841 22.4883 13.1219 22.3402 12.8277C22.1171 12.3848 22.0305 11.8857 22.0911 11.3935C22.1517 10.9014 22.3568 10.4383 22.6805 10.0627C23.0043 9.68709 23.4322 9.41595 23.91 9.28349C24.3879 9.15104 24.8943 9.16324 25.3652 9.31855C25.8361 9.47386 26.2504 9.7653 26.5557 10.1561C26.861 10.5468 27.0436 11.0193 27.0804 11.5138C27.1173 12.0083 27.0066 12.5026 26.7625 12.9342ZM8.56554 20.0488C8.90702 20.2733 9.30746 20.3916 9.71616 20.3885C10.1249 20.3854 10.5235 20.2612 10.8615 20.0315C11.1996 19.8018 11.4619 19.477 11.6154 19.0982C11.7688 18.7194 11.8064 18.3036 11.7235 17.9034C11.6405 17.5032 11.4407 17.1365 11.1493 16.8499C10.8579 16.5633 10.4881 16.3696 10.0866 16.2932C9.6851 16.2168 9.26996 16.2613 8.89372 16.4209C8.51748 16.5806 8.19704 16.8482 7.97295 17.19C7.67284 17.6478 7.56667 18.206 7.67778 18.742C7.78889 19.278 8.10818 19.748 8.56554 20.0488ZM10.2051 32.3511C10.6323 32.0993 11.1245 31.9799 11.6195 32.0079C12.2837 32.046 12.9056 32.3465 13.3485 32.8427C13.7914 33.339 14.0191 33.9912 13.9817 34.6554C13.9532 35.1503 13.7786 35.6257 13.48 36.0216C13.1814 36.4175 12.7721 36.7157 12.3039 36.8792C11.8358 37.0425 11.3297 37.0633 10.8497 36.939C10.3697 36.8145 9.93729 36.5508 9.6072 36.1807C9.2771 35.8109 9.0641 35.3514 8.9951 34.8603C8.9261 34.3692 9.00424 33.8688 9.21963 33.4222C9.43499 32.9755 9.77793 32.603 10.2051 32.3511ZM8.84105 48.8665C8.47646 49.0509 8.17468 49.3389 7.97386 49.6948C7.77306 50.0506 7.68223 50.4577 7.71284 50.8651C7.74346 51.2725 7.89416 51.6616 8.1459 51.9834C8.39764 52.3052 8.73913 52.545 9.12716 52.6725C9.5152 52.8004 9.93238 52.81 10.326 52.7008C10.7196 52.5913 11.0719 52.3677 11.3384 52.0583C11.605 51.7485 11.7737 51.3669 11.8234 50.9614C11.8731 50.5559 11.8014 50.145 11.6175 49.7801C11.4952 49.5378 11.3265 49.3219 11.1207 49.1447C10.915 48.9677 10.6764 48.8328 10.4186 48.748C10.1607 48.6632 9.8887 48.63 9.618 48.6503C9.34733 48.6706 9.0833 48.7441 8.84105 48.8665ZM20.2332 27.3082C19.6494 27.3133 19.0772 27.1453 18.5889 26.8253C18.2643 26.613 17.9848 26.3388 17.7663 26.0184C17.5479 25.6979 17.3947 25.3375 17.3157 24.9578C17.2367 24.5781 17.2334 24.1866 17.3059 23.8056C17.3784 23.4246 17.5254 23.0616 17.7384 22.7375C18.0585 22.2493 18.5163 21.867 19.0537 21.6389C19.5911 21.4108 20.1841 21.3472 20.7576 21.4561C21.3312 21.565 21.8596 21.8416 22.276 22.2508C22.6924 22.6599 22.9781 23.1834 23.097 23.755C23.216 24.3266 23.1627 24.9206 22.9441 25.4619C22.7254 26.0032 22.3512 26.4675 21.8687 26.7962C21.3861 27.1248 20.817 27.303 20.2332 27.3082ZM49.5129 13.7418C49.9285 14.0129 50.4155 14.1548 50.9118 14.1494C51.4081 14.1439 51.8918 13.9914 52.3014 13.7112C52.7112 13.431 53.0287 13.0356 53.2136 12.5749C53.3988 12.1143 53.4429 11.6092 53.3411 11.1234C53.2391 10.6376 52.9955 10.193 52.6407 9.84567C52.286 9.49838 51.8363 9.264 51.3485 9.1722C50.8608 9.08041 50.3568 9.1353 49.9 9.32995C49.4435 9.5246 49.0547 9.85026 48.7831 10.2658C48.6023 10.5417 48.4778 10.8507 48.4166 11.1749C48.3554 11.4992 48.3587 11.8323 48.4265 12.1552C48.4942 12.4781 48.6251 12.7845 48.8117 13.0568C48.9979 13.329 49.2363 13.5618 49.5129 13.7418ZM49.9077 29.4155C49.2493 29.3776 48.5898 29.4698 47.967 29.6868C47.3442 29.9038 46.7703 30.2413 46.2781 30.6803C45.2836 31.5664 44.6822 32.8114 44.606 34.1412C44.5294 35.4707 44.9843 36.7763 45.8707 37.7708C46.7569 38.765 48.0019 39.3664 49.3316 39.4429H49.6224C50.5909 39.4424 51.5387 39.1617 52.3516 38.6347C53.1643 38.1077 53.8071 37.3568 54.2027 36.4726C54.5983 35.5883 54.7297 34.6084 54.581 33.6514C54.432 32.6942 54.0095 31.8004 53.3645 31.0781C52.9275 30.5853 52.3966 30.1845 51.8032 29.8989C51.2098 29.6136 50.5654 29.4493 49.9077 29.4155ZM29.2089 28.4976C28.4158 28.0096 27.7749 27.3098 27.3581 26.4771C26.9748 25.7119 26.7934 24.8615 26.831 24.0065C26.8687 23.1515 27.1242 22.3202 27.5732 21.5917C28.0223 20.8631 28.6501 20.2614 29.3968 19.8436C30.1439 19.4257 30.985 19.2056 31.841 19.2042C32.7699 19.1997 33.6819 19.454 34.4747 19.9385C35.2673 20.4231 35.9096 21.1188 36.3293 21.9476C36.717 22.7135 36.9019 23.5661 36.8665 24.4238C36.8311 25.2816 36.5765 26.1159 36.1269 26.8472C35.6772 27.5786 35.0479 28.1824 34.2983 28.6013C33.5491 29.0203 32.7049 29.24 31.8465 29.2397C30.9153 29.2428 30.0018 28.9857 29.2089 28.4976ZM66.7271 20.043C67.0917 19.8589 67.3937 19.571 67.5946 19.2154C67.7957 18.8599 67.8867 18.4527 67.8566 18.0453C67.8261 17.638 67.6758 17.2488 67.4245 16.9269C67.1729 16.605 66.8316 16.3649 66.4439 16.2369C66.056 16.1089 65.6387 16.0987 65.245 16.2077C64.8516 16.3167 64.4991 16.5399 64.2321 16.8492C63.9655 17.1584 63.7962 17.5399 63.746 17.9452C63.6961 18.3506 63.7671 18.7617 63.9507 19.1267C64.1976 19.6161 64.6286 19.9875 65.1493 20.1593C65.6697 20.3312 66.2374 20.2893 66.7271 20.043ZM52.7542 22.8247C53.042 22.3166 53.4738 21.9052 53.9951 21.6426C54.3413 21.4679 54.7185 21.3631 55.1054 21.3343C55.4919 21.3055 55.8804 21.3533 56.2488 21.4748C56.617 21.5964 56.9575 21.7893 57.251 22.0427C57.5446 22.296 57.7855 22.6048 57.9594 22.9512C58.2222 23.4727 58.3243 24.0603 58.2529 24.6398C58.1816 25.2193 57.9399 25.7646 57.5586 26.2067C57.1775 26.6489 56.6735 26.9681 56.1111 27.124C55.5484 27.2798 54.952 27.2653 54.3975 27.0823C53.8433 26.8993 53.3556 26.556 52.9962 26.0958C52.637 25.6356 52.4222 25.0792 52.3792 24.4969C52.3361 23.9147 52.4664 23.3327 52.7542 22.8247ZM39.2365 16.7252C38.7339 17.0217 38.1545 17.1625 37.5718 17.1298C36.7896 17.0852 36.0571 16.7319 35.5355 16.1475C35.0137 15.563 34.7457 14.7954 34.7899 14.0132C34.8233 13.4305 35.0288 12.8708 35.3803 12.4048C35.7317 11.9388 36.2135 11.5875 36.7646 11.3952C37.3155 11.203 37.9114 11.1784 38.4766 11.3246C39.0414 11.4708 39.5506 11.7813 39.9391 12.2167C40.3279 12.6521 40.5789 13.193 40.6601 13.771C40.7416 14.349 40.6497 14.9381 40.3962 15.4639C40.143 15.9897 39.7394 16.4286 39.2365 16.7252ZM21.5778 47.2647C22.0992 47.0019 22.5309 46.5903 22.8184 46.082C23.1058 45.5739 23.2361 44.9917 23.1927 44.4095C23.1493 43.8271 22.9342 43.2707 22.5746 42.8106C22.215 42.3508 21.7271 42.0076 21.1725 41.8249C20.6179 41.6422 20.0216 41.6282 19.459 41.7846C18.8964 41.9407 18.3927 42.2603 18.0117 42.7028C17.6308 43.1453 17.3896 43.6907 17.3187 44.2704C17.2478 44.8499 17.3504 45.4375 17.6135 45.9588C17.9661 46.6575 18.5818 47.1876 19.3252 47.4326C20.0687 47.6776 20.8789 47.6169 21.5778 47.2647ZM38.6747 24.5964C38.5842 23.483 38.8673 22.3712 39.4794 21.4368C39.9373 20.7393 40.5612 20.1667 41.2956 19.7706C42.0297 19.3745 42.8511 19.1674 43.6852 19.168C44.8023 19.1694 45.8871 19.5433 46.7677 20.2306C47.6484 20.9178 48.2745 21.8792 48.5474 22.9624C48.8201 24.0456 48.7238 25.1889 48.2739 26.2113C47.8237 27.2337 47.0457 28.0768 46.0627 28.6071C45.0794 29.1375 43.9474 29.3248 42.8459 29.1397C41.7444 28.9542 40.7359 28.4069 39.9806 27.5838C39.2251 26.7611 38.7655 25.7098 38.6747 24.5964ZM48.2085 42.4327C47.8061 41.6351 47.1984 40.9591 46.4478 40.4749C45.6971 39.9904 44.831 39.7152 43.9383 39.6774C43.0458 39.6395 42.1594 39.8403 41.3704 40.2595C40.5816 40.6785 39.9188 41.3004 39.4502 42.0612C38.9819 42.8219 38.7251 43.6938 38.7062 44.5868C38.6873 45.4801 38.907 46.3621 39.3427 47.1418C39.7784 47.9218 40.4143 48.5715 41.1847 49.0236C41.955 49.4757 42.8321 49.7139 43.7257 49.7139C44.5114 49.7086 45.2854 49.5207 45.9863 49.1652C47.1718 48.5652 48.0714 47.5199 48.4878 46.2579C48.9043 44.9962 48.8039 43.6206 48.2085 42.4327ZM55.3381 41.5978C55.9219 41.5931 56.4942 41.7615 56.9822 42.082C57.6354 42.5127 58.0914 43.1846 58.2505 43.9508C58.4094 44.7168 58.2582 45.5149 57.83 46.1698C57.5095 46.6578 57.0516 47.04 56.5139 47.2677C55.9765 47.4957 55.3833 47.5588 54.8099 47.4496C54.2363 47.3404 53.7081 47.0636 53.292 46.654C52.8758 46.2447 52.5902 45.7209 52.4717 45.1492C52.3531 44.5774 52.4066 43.9835 52.6258 43.4422C52.8448 42.9012 53.2195 42.437 53.7021 42.1086C54.185 41.7805 54.7542 41.6027 55.3381 41.5978ZM66.5952 34.5404C66.6231 34.0454 66.5035 33.5533 66.252 33.1261C66.0001 32.6987 65.6273 32.3557 65.1806 32.1404C64.734 31.925 64.2336 31.8471 63.7428 31.916C63.2517 31.9851 62.7921 32.198 62.422 32.528C62.0522 32.8581 61.7883 33.2904 61.664 33.7705C61.5397 34.2507 61.5606 34.7566 61.7238 35.2249C61.8871 35.6929 62.1856 36.1022 62.5814 36.401C62.9771 36.6995 63.4525 36.874 63.9477 36.9025C64.6119 36.9401 65.2637 36.7121 65.7603 36.2693C66.2566 35.8265 66.557 35.2046 66.5952 34.5404ZM72.6253 32.9751C72.9021 32.8121 73.2212 32.7351 73.5419 32.7537C73.9715 32.7792 74.3737 32.9737 74.6601 33.2953C74.9465 33.6165 75.0939 34.0385 75.07 34.4684C75.0516 34.7891 74.9383 35.0969 74.7449 35.3534C74.5515 35.61 74.2862 35.8031 73.9828 35.9087C73.6793 36.0146 73.3515 36.0278 73.0406 35.9471C72.7298 35.8665 72.4497 35.6955 72.236 35.4558C72.0223 35.216 71.8845 34.918 71.8398 34.5998C71.7954 34.2818 71.8464 33.9576 71.9861 33.6684C72.126 33.3792 72.3482 33.1378 72.6253 32.9751ZM67.0024 48.858C66.6606 48.6342 66.2603 48.5168 65.8518 48.5206C65.4433 48.5242 65.045 48.649 64.7075 48.8789C64.3698 49.1091 64.1081 49.4339 63.955 49.8128C63.8019 50.1914 63.7649 50.607 63.848 51.007C63.9311 51.407 64.1311 51.7733 64.4225 52.0597C64.7138 52.3461 65.0837 52.5395 65.4847 52.6158C65.8861 52.6921 66.3012 52.6476 66.6773 52.4882C67.0532 52.3286 67.3736 52.0611 67.5978 51.7195C67.7468 51.4926 67.8494 51.2386 67.9001 50.9719C67.9506 50.7052 67.9484 50.4312 67.893 50.1656C67.8378 49.8997 67.7306 49.6476 67.5778 49.4232C67.4249 49.1988 67.2296 49.0067 67.0024 48.858ZM20.0072 63.7549C20.3284 63.7522 20.6431 63.8449 20.9117 64.0211C21.0901 64.1382 21.2436 64.2891 21.3636 64.4655C21.4836 64.6422 21.5676 64.8403 21.611 65.0493C21.6543 65.2581 21.656 65.4737 21.616 65.6831C21.5761 65.8927 21.4952 66.0924 21.378 66.2707C21.2017 66.5393 20.9497 66.7495 20.654 66.8746C20.3582 66.9999 20.0319 67.0345 19.7164 66.9744C19.4009 66.9143 19.1103 66.7618 18.8814 66.5366C18.6525 66.3113 18.4955 66.0233 18.4303 65.7086C18.3651 65.3942 18.3946 65.0674 18.5151 64.7698C18.6356 64.4721 18.8417 64.2167 19.1073 64.0361C19.3728 63.8554 19.686 63.7577 20.0072 63.7549ZM54.9517 63.8517C54.6647 63.9962 54.4274 64.2226 54.2691 64.5021C54.1108 64.7817 54.0392 65.1019 54.0631 65.4223C54.087 65.7427 54.2052 66.0489 54.403 66.3019C54.6008 66.5551 54.8694 66.7438 55.1745 66.8445C55.4795 66.9449 55.8077 66.9529 56.1171 66.8667C56.4266 66.7809 56.7037 66.605 56.9133 66.3617C57.1232 66.1183 57.2557 65.8182 57.2949 65.4994C57.3339 65.1803 57.2776 64.8571 57.1328 64.5704C57.037 64.3798 56.9045 64.21 56.7429 64.0706C56.5816 63.9312 56.3939 63.825 56.1915 63.7584C55.9887 63.6914 55.775 63.6654 55.5624 63.6813C55.3495 63.6975 55.1421 63.7551 54.9517 63.8517ZM36.8938 44.3018C36.9846 45.4154 36.7014 46.5274 36.0891 47.4618C35.6337 48.1608 35.0104 48.7348 34.2762 49.1309C33.542 49.5274 32.7204 49.7334 31.8861 49.7306C30.7689 49.7298 29.6839 49.3564 28.8027 48.6695C27.9217 47.9825 27.295 47.0215 27.0217 45.9383C26.7484 44.8549 26.8442 43.7114 27.294 42.6889C27.7437 41.6662 28.5217 40.8228 29.5047 40.292C30.488 39.7614 31.62 39.5737 32.7217 39.7589C33.8235 39.9441 34.832 40.4914 35.5876 41.3142C36.3431 42.137 36.803 43.1885 36.8938 44.3018ZM26.0561 55.168C25.6411 54.8966 25.1551 54.7542 24.6592 54.7589C24.1634 54.7636 23.6802 54.9153 23.2705 55.1948C22.8609 55.4741 22.5432 55.8686 22.3578 56.3284C22.1723 56.7883 22.1274 57.2928 22.2286 57.7784C22.3298 58.2637 22.5727 58.7081 22.9265 59.0555C23.2802 59.4031 23.7291 59.6376 24.2163 59.7301C24.7034 59.8223 25.207 59.7682 25.6634 59.5745C26.1198 59.3806 26.5085 59.0557 26.7804 58.6412C27.1445 58.0846 27.2727 57.4058 27.1369 56.7548C27.0011 56.1035 26.6124 55.5328 26.0561 55.168ZM36.5959 65.0611C36.9479 64.8537 37.3534 64.7554 37.7614 64.7788C38.0324 64.7941 38.2975 64.8627 38.5419 64.9807C38.7863 65.0986 39.0053 65.2635 39.1858 65.4663C39.3663 65.6687 39.5054 65.905 39.5948 66.1612C39.684 66.4174 39.7221 66.6888 39.7065 66.9598C39.6829 67.3675 39.5392 67.7593 39.2931 68.0855C39.047 68.4117 38.7098 68.6575 38.3241 68.7919C37.9383 68.9264 37.5213 68.9434 37.1257 68.841C36.7304 68.7384 36.3743 68.5211 36.1021 68.2161C35.8302 67.9113 35.6549 67.5327 35.5981 67.128C35.5414 66.7233 35.6061 66.3113 35.7836 65.9431C35.9611 65.5752 36.2437 65.2682 36.5959 65.0611ZM37.7834 51.7799C37.2002 51.7442 36.6194 51.8828 36.1149 52.1777C35.6103 52.4724 35.2048 52.9105 34.9494 53.4359C34.694 53.9615 34.6002 54.5511 34.68 55.13C34.7601 55.7089 35.0098 56.251 35.3983 56.6877C35.7865 57.1245 36.2954 57.4361 36.8611 57.5832C37.4265 57.7303 38.023 57.7064 38.5749 57.5143C39.1267 57.322 39.6092 56.9706 39.961 56.5039C40.3129 56.0375 40.5184 55.477 40.5516 54.8938C40.5966 54.1138 40.3305 53.3481 39.8114 52.7643C39.2924 52.1805 38.5631 51.8265 37.7834 51.7799ZM48.806 55.9769C49.0494 55.544 49.4159 55.1928 49.8587 54.9681C50.1523 54.8183 50.4721 54.7281 50.8005 54.702C51.1289 54.6762 51.459 54.7155 51.7723 54.8175C52.0853 54.9193 52.3753 55.082 52.6255 55.2963C52.876 55.5103 53.0815 55.7717 53.2304 56.0655C53.4562 56.5078 53.5457 57.0074 53.4875 57.5007C53.4293 57.9939 53.2261 58.459 52.9037 58.8367C52.5811 59.2145 52.1536 59.488 51.6754 59.6227C51.1975 59.7574 50.69 59.7473 50.2178 59.5937C49.7454 59.44 49.3292 59.1495 49.0219 58.7591C48.7147 58.3687 48.5303 57.896 48.4919 57.4008C48.4535 56.9056 48.5627 56.4101 48.806 55.9769Z" fill="#F6F9FF"/>
<path fill-rule="evenodd" clip-rule="evenodd" d="M105.26 22.5921C110.122 22.5921 113.526 25.2642 113.526 30.2245H119.894C119.894 21.5221 113.477 17.3301 105.164 17.3301C94.9529 17.3301 89.0215 22.8747 89.0215 34.5921C89.0215 46.6003 94.9529 51.8513 105.164 51.8513C113.576 51.8513 119.894 47.769 119.894 39.064H113.768C113.768 43.9254 110.412 46.6003 105.263 46.6003C98.503 46.6003 95.3864 42.8555 95.3864 35.0777V34.1065C95.3918 26.4796 98.5496 22.5921 105.26 22.5921ZM136.73 17.9229L123.748 51.2781H130.168L132.84 44.0326H148.096L150.84 51.2781H157.551L144.56 17.9229H136.73ZM134.785 38.7733L138.19 29.6293C138.646 28.4232 139.344 26.2743 139.827 24.7857C140.064 24.0563 140.249 23.4854 140.33 23.2617H140.571C140.648 23.4768 140.823 24.0176 141.046 24.7119L141.047 24.7125V24.7137C141.531 26.215 142.246 28.4329 142.711 29.6293L146.113 38.7706L134.785 38.7733ZM181.376 17.9229C188.717 17.9229 192.267 21.8625 192.267 28.0353C192.267 32.5593 190.273 35.8652 186.336 37.4208L193.469 51.2781H186.662L180.352 38.3837H169.998V51.2781H163.773V17.9229H181.376ZM169.998 33.1409H180.887C184.097 33.1409 185.993 31.1985 185.993 28.0353C185.993 25.023 184.243 23.2233 180.887 23.2233H169.998V33.1409ZM214.099 17.9229H200.771V51.2781H214.094C224.157 51.2781 230.28 46.0271 230.28 34.6005C230.28 23.1739 224.162 17.9229 214.099 17.9229ZM223.921 35.0861C223.872 42.381 220.42 45.9777 214.099 45.9777H207.002V23.2233H214.099C220.409 23.2233 223.921 26.8227 223.921 34.1149V35.0861ZM233.6 51.2781L246.587 17.9229H254.409L267.391 51.2781H260.681L257.959 44.0326H242.691L240.017 51.2781H233.6ZM248.041 29.6293L244.642 38.7733L255.97 38.7706L252.568 29.6293C252.094 28.4107 251.36 26.1323 250.876 24.6309C250.665 23.9756 250.501 23.4684 250.428 23.2617H250.181C250.101 23.4854 249.916 24.056 249.679 24.7851C249.196 26.2737 248.498 28.4233 248.041 29.6293ZM295.844 37.761C295.844 38.1361 295.878 38.8894 295.906 39.5003C295.924 39.917 295.94 40.2674 295.94 40.3865L295.699 40.4825C295.639 40.4035 295.439 40.069 295.188 39.6485C294.828 39.0462 294.363 38.2675 294.053 37.8103L279.564 17.9229H273.625V51.2781H279.606V31.2946C279.606 30.7617 279.564 29.9001 279.535 29.2924C279.519 28.9618 279.507 28.7057 279.507 28.6197L279.751 28.4743C279.8 28.5397 279.915 28.7426 280.075 29.0255C280.392 29.5843 280.885 30.4556 281.397 31.1985L295.984 51.2781H301.817V17.9229H295.839V37.761H295.844ZM309.836 34.6001C309.836 22.8827 316.157 17.3408 326.61 17.3408C337.062 17.3408 343.433 22.8827 343.433 34.6001C343.433 46.3175 337.073 51.8593 326.61 51.8593C316.146 51.8593 309.836 46.3175 309.836 34.6001ZM326.61 46.6083C333.416 46.6083 337.062 42.7674 337.062 35.1351V34.1145C337.062 26.4794 333.37 22.5918 326.61 22.5918C319.902 22.5918 316.206 26.4794 316.206 34.1145V35.1351C316.206 42.7674 319.852 46.6083 326.61 46.6083Z" fill="#F6F9FF"/>
</g>
<defs>
<linearGradient id="paint0_linear_23828_69001" x1="353.035" y1="18.1064" x2="446.795" y2="156.211" gradientUnits="userSpaceOnUse">
<stop stop-color="#3DABFF"/>
<stop offset="1" stop-color="#66BDFF"/>
</linearGradient>
</defs>
</svg>
