<svg xmlns="http://www.w3.org/2000/svg" width="101" height="101" fill="none"><path stroke="#3F3D56" d="m55.25 3.82 33.301 19.226a9.5 9.5 0 0 1 4.75 8.228v38.453a9.5 9.5 0 0 1-4.75 8.227L55.25 97.18a9.5 9.5 0 0 1-9.5 0L12.449 77.954a9.5 9.5 0 0 1-4.75-8.227V31.273a9.5 9.5 0 0 1 4.75-8.227L45.75 3.82a9.5 9.5 0 0 1 9.5 0Z"/><path fill="#0052CC" fill-rule="evenodd" d="M50.608 26.295a1.649 1.649 0 1 0 .188-3.292 1.649 1.649 0 0 0-.188 3.292m14.343.817a1.296 1.296 0 1 1-.023-2.593 1.296 1.296 0 0 1 .023 2.593m-27.895-.077a1.296 1.296 0 1 0-1.185-2.306 1.296 1.296 0 0 0 1.185 2.306m1.264 26.16a4.02 4.02 0 0 1-1.01-2.902l-.011.002a4.008 4.008 0 1 1 4.005 4.237h-.22a4.02 4.02 0 0 1-2.764-1.338m-16.683-3.74a1.294 1.294 0 1 1 1.315 2.23 1.294 1.294 0 0 1-1.315-2.23m20.326-16.131a2.001 2.001 0 1 1-3.484-1.97 2.001 2.001 0 0 1 3.484 1.97m-14.525 5.679a1.649 1.649 0 1 0 1.812-2.755 1.649 1.649 0 0 0-1.812 2.755m1.308 9.819a2.002 2.002 0 1 1 2.033 3.45 2.002 2.002 0 0 1-2.033-3.45m-1.089 13.182a1.648 1.648 0 1 0 1.487 2.943 1.648 1.648 0 0 0-1.487-2.943m9.093-17.207a2.357 2.357 0 1 1-.042-4.714 2.357 2.357 0 0 1 .042 4.714m23.37-10.829a2.004 2.004 0 1 0 2.19-3.356 2.004 2.004 0 0 0-2.19 3.356m.316 12.51a4.009 4.009 0 1 0-.46 8.004h.232a4.007 4.007 0 0 0 1.741-7.618 4 4 0 0 0-1.513-.386m-16.52-.732a4.008 4.008 0 0 1 2.1-7.418 3.994 3.994 0 0 1 4.012 4.166 4.01 4.01 0 0 1-4.007 3.844 4 4 0 0 1-2.106-.592m29.946-6.748a1.648 1.648 0 1 0-1.485-2.943 1.648 1.648 0 0 0 1.485 2.943m-11.154 2.22a2.356 2.356 0 1 1 4.1 2.321 2.356 2.356 0 0 1-4.1-2.32M51.92 36.35a2.357 2.357 0 1 1-2.395-4.062 2.357 2.357 0 0 1 2.395 4.062M37.824 60.725a2.357 2.357 0 1 0-2.122-4.208 2.357 2.357 0 0 0 2.122 4.208M51.47 42.632a4.007 4.007 0 1 1 7.989-.65 4.007 4.007 0 0 1-7.989.65m7.61 14.237a4.008 4.008 0 1 0-3.578 5.812 4.05 4.05 0 0 0 1.805-.438 4.01 4.01 0 0 0 1.774-5.374m5.691-.667a2.356 2.356 0 1 1 .039 4.713 2.356 2.356 0 0 1-.039-4.713m8.985-5.633a2.002 2.002 0 1 0-3.997-.225 2.002 2.002 0 0 0 3.997.225m4.813-1.249a1.297 1.297 0 1 1 1.315 2.237 1.297 1.297 0 0 1-1.315-2.237M74.08 61.998a1.648 1.648 0 1 0-1.806 2.757 1.648 1.648 0 0 0 1.806-2.757m-37.51 11.89a1.296 1.296 0 1 1 .021 2.593 1.296 1.296 0 0 1-.02-2.593m27.893.077a1.297 1.297 0 1 0 1.168 2.316 1.297 1.297 0 0 0-1.168-2.316M50.048 58.36a4 4 0 0 1-.642 2.522 3.99 3.99 0 0 1-3.355 1.81 4.007 4.007 0 1 1 3.997-4.332m-8.65 8.673a2.002 2.002 0 1 0-2.191 3.35 2.002 2.002 0 0 0 2.191-3.35m8.414 7.896a1.649 1.649 0 1 1 1.673 2.841 1.649 1.649 0 0 1-1.673-2.84m.947-10.6a2.356 2.356 0 1 0-.286 4.704 2.356 2.356 0 0 0 .286-4.704m8.797 3.35a2.003 2.003 0 1 1 3.493 1.962 2.003 2.003 0 0 1-3.493-1.962" clip-rule="evenodd"/></svg>