<svg width="101" height="101" viewBox="0 0 101 101" fill="none" xmlns="http://www.w3.org/2000/svg">
<path d="M55.25 3.81976L88.5513 23.0463C91.4906 24.7433 93.3013 27.8795 93.3013 31.2735V69.7265C93.3013 73.1205 91.4906 76.2567 88.5513 77.9537L55.25 97.1802C52.3107 98.8773 48.6893 98.8773 45.75 97.1802L12.4487 77.9537C9.50942 76.2567 7.69873 73.1205 7.69873 69.7265V31.2735C7.69873 27.8795 9.50942 24.7433 12.4487 23.0463L45.75 3.81976C48.6893 2.12275 52.3107 2.12275 55.25 3.81976Z" stroke="#3F3D56"/>
<path fill-rule="evenodd" clip-rule="evenodd" d="M50.6084 26.2952C50.934 26.3137 51.2579 26.2353 51.5389 26.0697C51.82 25.9042 52.0456 25.659 52.1873 25.3652C52.329 25.0714 52.3804 24.7422 52.335 24.4192C52.2895 24.0962 52.1493 23.7939 51.9321 23.5506C51.7148 23.3074 51.4303 23.134 51.1145 23.0524C50.7986 22.9708 50.4657 22.9848 50.1578 23.0924C49.8499 23.2001 49.5809 23.3967 49.3847 23.6573C49.1886 23.9179 49.0741 24.2308 49.0558 24.5565C49.0313 24.9929 49.1811 25.4211 49.4722 25.7472C49.7633 26.0732 50.172 26.2703 50.6084 26.2952ZM64.951 27.1117C64.6945 27.114 64.4432 27.0402 64.2287 26.8996C63.9414 26.7112 63.7406 26.4166 63.6704 26.0803C63.6002 25.7441 63.6663 25.3937 63.8542 25.1061C63.9945 24.8914 64.1954 24.7232 64.4313 24.6227C64.6673 24.5222 64.9277 24.4939 65.1798 24.5415C65.4318 24.5891 65.664 24.7103 65.8471 24.8899C66.0302 25.0695 66.1559 25.2994 66.2083 25.5504C66.2608 25.8015 66.2375 26.0624 66.1416 26.3003C66.0457 26.5381 65.8813 26.7422 65.6694 26.8866C65.4575 27.031 65.2075 27.1094 64.951 27.1117ZM37.0556 27.0353C37.2832 26.9184 37.471 26.7369 37.5956 26.5135C37.7202 26.2901 37.7759 26.0348 37.7557 25.7799C37.7356 25.5249 37.6404 25.2815 37.4822 25.0805C37.3241 24.8795 37.11 24.7297 36.8669 24.6501C36.6238 24.5705 36.3626 24.5646 36.1162 24.6331C35.8697 24.7016 35.6491 24.8415 35.482 25.0352C35.3149 25.2288 35.2088 25.4676 35.1771 25.7214C35.1454 25.9752 35.1894 26.2328 35.3038 26.4616C35.3806 26.6147 35.4871 26.7512 35.6169 26.863C35.7467 26.9748 35.8974 27.0599 36.0602 27.1132C36.2231 27.1665 36.3949 27.1871 36.5657 27.1737C36.7365 27.1604 36.903 27.1133 37.0556 27.0353ZM38.3197 53.1941C37.6119 52.3992 37.2485 51.3557 37.3095 50.2931L37.2986 50.2953C37.3435 49.514 37.6162 48.7629 38.083 48.1348C38.5498 47.5067 39.1903 47.029 39.9255 46.7607C40.6607 46.4924 41.4583 46.4453 42.22 46.6251C42.9816 46.8049 43.674 47.2037 44.2115 47.7725C44.7491 48.3412 45.1084 49.0549 45.2451 49.8255C45.3817 50.596 45.2897 51.3898 44.9805 52.1087C44.6713 52.8276 44.1583 53.4402 43.5049 53.8709C42.8515 54.3017 42.0863 54.5316 41.3037 54.5325H41.0847C40.0221 54.4704 39.0276 53.989 38.3197 53.1941ZM21.6366 49.4545C21.857 49.3245 22.111 49.2627 22.3665 49.277C22.5364 49.2862 22.7029 49.3289 22.8563 49.4027C23.0097 49.4764 23.147 49.5798 23.2603 49.7067C23.3737 49.8337 23.4608 49.9818 23.5167 50.1426C23.5726 50.3033 23.5963 50.4735 23.5862 50.6434C23.5715 50.8989 23.4814 51.1443 23.3273 51.3485C23.1732 51.5528 22.962 51.7068 22.7204 51.7911C22.4788 51.8754 22.2177 51.8862 21.97 51.8221C21.7222 51.758 21.4991 51.6219 21.3287 51.431C21.1583 51.2401 21.0483 51.003 21.0126 50.7496C20.977 50.4962 21.0172 50.2379 21.1283 50.0074C21.2393 49.7769 21.4162 49.5845 21.6366 49.4545ZM41.9629 33.324C41.768 33.6686 41.4755 33.9476 41.1221 34.1258C40.8873 34.2443 40.6315 34.3153 40.3692 34.3348C40.107 34.3543 39.8435 34.322 39.5938 34.2396C39.344 34.1573 39.113 34.0265 38.9138 33.8548C38.7147 33.6831 38.5513 33.4738 38.433 33.239C38.255 32.8855 38.1858 32.4871 38.2342 32.0943C38.2825 31.7015 38.4463 31.3318 38.7047 31.032C38.9631 30.7322 39.3046 30.5158 39.6861 30.4101C40.0675 30.3044 40.4717 30.3141 40.8475 30.4381C41.2234 30.5621 41.5541 30.7947 41.7978 31.1066C42.0415 31.4184 42.1872 31.7956 42.2166 32.1903C42.246 32.585 42.1577 32.9795 41.9629 33.324ZM27.4382 39.0025C27.7107 39.1818 28.0303 39.2761 28.3566 39.2737C28.6828 39.2712 29.0009 39.1721 29.2708 38.9887C29.5406 38.8054 29.75 38.5462 29.8725 38.2438C29.9949 37.9414 30.025 37.6095 29.9587 37.2901C29.8925 36.9707 29.733 36.6781 29.5005 36.4493C29.2679 36.2205 28.9727 36.0659 28.6522 36.0049C28.3318 35.944 28.0004 35.9795 27.7001 36.1069C27.3998 36.2343 27.144 36.4479 26.9652 36.7208C26.7256 37.0861 26.6409 37.5317 26.7296 37.9595C26.8183 38.3873 27.0731 38.7625 27.4382 39.0025ZM28.7461 48.8219C29.0871 48.621 29.48 48.5256 29.8751 48.5479C30.4052 48.5784 30.9016 48.8181 31.2551 49.2143C31.6086 49.6105 31.7904 50.1309 31.7605 50.661C31.7378 51.0562 31.5985 51.4357 31.3601 51.7516C31.1217 52.0675 30.7951 52.3057 30.4214 52.436C30.0477 52.5664 29.6437 52.583 29.2606 52.4838C28.8775 52.3845 28.5324 52.174 28.2689 51.8787C28.0054 51.5834 27.8354 51.2166 27.7803 50.8247C27.7253 50.4327 27.7876 50.0333 27.9595 49.6768C28.1314 49.3203 28.4052 49.0228 28.7461 48.8219ZM27.6571 62.0041C27.366 62.1512 27.1252 62.3812 26.9649 62.6652C26.8046 62.9491 26.7321 63.2742 26.7565 63.5993C26.781 63.9245 26.9013 64.2351 27.1022 64.4919C27.3031 64.7487 27.5757 64.9401 27.8854 65.042C28.1951 65.144 28.5281 65.1518 28.8423 65.0645C29.1565 64.9772 29.4377 64.7987 29.6504 64.5516C29.8632 64.3045 29.9979 63.9999 30.0375 63.6762C30.0771 63.3526 30.0199 63.0244 29.8731 62.7333C29.7756 62.5398 29.6408 62.3675 29.4767 62.2261C29.3125 62.0848 29.122 61.9772 28.9162 61.9094C28.7104 61.8417 28.4933 61.8152 28.2772 61.8315C28.0612 61.8477 27.8504 61.9064 27.6571 62.0041ZM36.7499 44.7967C36.2839 44.8008 35.8272 44.6667 35.4374 44.4113C35.1783 44.2419 34.9552 44.023 34.7809 43.7672C34.6065 43.5114 34.4843 43.2238 34.4212 42.9207C34.3582 42.6176 34.3555 42.3051 34.4134 42.001C34.4713 41.6969 34.5886 41.4072 34.7586 41.1485C35.0141 40.7588 35.3794 40.4537 35.8084 40.2716C36.2374 40.0896 36.7107 40.0388 37.1685 40.1257C37.6263 40.2127 38.048 40.4334 38.3804 40.76C38.7128 41.0866 38.9408 41.5044 39.0357 41.9606C39.1307 42.4169 39.0882 42.891 38.9137 43.3231C38.7391 43.7551 38.4404 44.1257 38.0553 44.3881C37.6701 44.6504 37.2158 44.7926 36.7499 44.7967ZM60.1206 33.9681C60.4524 34.1846 60.841 34.2978 61.2372 34.2935C61.6334 34.2892 62.0194 34.1675 62.3464 33.9438C62.6734 33.7201 62.9268 33.4045 63.0745 33.0369C63.2222 32.6692 63.2576 32.266 63.1762 31.8783C63.0948 31.4905 62.9002 31.1356 62.6172 30.8584C62.3341 30.5812 61.9752 30.3941 61.5858 30.3209C61.1964 30.2476 60.7941 30.2914 60.4296 30.4468C60.0651 30.6021 59.7549 30.862 59.5381 31.1937C59.3938 31.414 59.2943 31.6606 59.2455 31.9194C59.1966 32.1782 59.1994 32.4441 59.2535 32.7018C59.3076 32.9596 59.412 33.2041 59.5608 33.4214C59.7096 33.6387 59.8999 33.8245 60.1206 33.9681ZM60.436 46.4784C59.9104 46.4482 59.3841 46.5218 58.887 46.695C58.3899 46.8683 57.9318 47.1377 57.5389 47.4879C56.7453 48.1953 56.2652 49.189 56.2042 50.2503C56.1432 51.3117 56.5063 52.3538 57.2137 53.1474C57.9211 53.941 58.9147 54.4211 59.9761 54.4821H60.2082C60.9814 54.4817 61.7379 54.2577 62.3866 53.837C63.0353 53.4163 63.5485 52.817 63.8642 52.1112C64.18 51.4054 64.2848 50.6234 64.166 49.8594C64.0473 49.0954 63.7101 48.3821 63.1951 47.8054C62.8463 47.4121 62.4227 47.0923 61.949 46.8644C61.4753 46.6366 60.9609 46.5054 60.436 46.4784ZM43.9154 45.746C43.2824 45.3564 42.7708 44.7978 42.4382 44.1332C42.1322 43.5224 41.9874 42.8436 42.0175 42.1612C42.0475 41.4787 42.2514 40.8153 42.6099 40.2338C42.9683 39.6522 43.4694 39.1719 44.0655 38.8384C44.6617 38.5049 45.3332 38.3292 46.0163 38.3281C46.7578 38.3245 47.4857 38.5275 48.1185 38.9143C48.7512 39.301 49.2638 39.8563 49.5988 40.5179C49.9083 41.1292 50.0559 41.8097 50.0276 42.4943C49.9994 43.1789 49.7961 43.8449 49.4372 44.4286C49.0784 45.0123 48.5759 45.4944 47.9778 45.8287C47.3797 46.163 46.7059 46.3385 46.0207 46.3383C45.2774 46.3407 44.5483 46.1355 43.9154 45.746ZM73.8615 38.9981C74.1526 38.8512 74.3936 38.6214 74.554 38.3376C74.7145 38.0538 74.7872 37.7288 74.763 37.4037C74.7388 37.0785 74.6188 36.7679 74.4181 36.511C74.2174 36.254 73.945 36.0624 73.6354 35.9602C73.3259 35.858 72.9929 35.8499 72.6787 35.9369C72.3645 36.0239 72.0831 36.2021 71.8702 36.4489C71.6572 36.6958 71.5222 37.0002 71.4822 37.3238C71.4422 37.6473 71.499 37.9755 71.6455 38.2667C71.8425 38.6574 72.1866 38.9539 72.6022 39.091C73.0177 39.2282 73.4706 39.1947 73.8615 38.9981ZM62.7084 41.2183C62.938 40.8127 63.2827 40.4844 63.6989 40.2748C63.9752 40.1353 64.2763 40.0517 64.5849 40.0287C64.8936 40.0057 65.2037 40.0438 65.4976 40.1408C65.7915 40.2379 66.0634 40.3919 66.2977 40.5941C66.532 40.7963 66.7242 41.0428 66.8631 41.3193C67.0728 41.7355 67.1543 42.2045 67.0973 42.6671C67.0404 43.1296 66.8476 43.5648 66.5432 43.9178C66.2389 44.2707 65.8368 44.5255 65.3877 44.6499C64.9386 44.7743 64.4627 44.7627 64.0202 44.6166C63.5776 44.4706 63.1884 44.1965 62.9016 43.8292C62.6148 43.4619 62.4433 43.0178 62.409 42.553C62.3746 42.0883 62.4788 41.6238 62.7084 41.2183ZM51.9196 36.3496C51.5183 36.5862 51.0559 36.6986 50.5907 36.6726C49.9665 36.637 49.3819 36.3549 48.9655 35.8885C48.5491 35.422 48.335 34.8092 48.3703 34.185C48.397 33.7198 48.561 33.2731 48.8415 32.9011C49.1221 32.5292 49.5066 32.2488 49.9465 32.0953C50.3863 31.9419 50.8618 31.9222 51.3129 32.0389C51.7639 32.1557 52.1702 32.4034 52.4804 32.751C52.7907 33.0986 52.9909 33.5303 53.0558 33.9916C53.1208 34.453 53.0475 34.9232 52.8453 35.3429C52.643 35.7626 52.3209 36.1129 51.9196 36.3496ZM37.8243 60.7252C38.2404 60.5154 38.585 60.1869 38.8145 59.7812C39.0439 59.3755 39.1479 58.9109 39.1132 58.4462C39.0786 57.9814 38.9069 57.5374 38.6199 57.1702C38.3329 56.803 37.9434 56.5292 37.5007 56.3834C37.0581 56.2375 36.5821 56.2263 36.1331 56.351C35.684 56.4757 35.282 56.7308 34.9779 57.084C34.6738 57.4372 34.4813 57.8726 34.4248 58.3352C34.3682 58.7978 34.45 59.2668 34.66 59.6829C34.9415 60.2406 35.433 60.6637 36.0263 60.8592C36.6197 61.0547 37.2664 61.0065 37.8243 60.7252ZM51.4703 42.6324C51.3979 41.7437 51.6239 40.8563 52.1126 40.1105C52.4779 39.5538 52.976 39.0967 53.562 38.7806C54.1481 38.4644 54.8036 38.2991 55.4695 38.2996C56.3611 38.3007 57.2269 38.5992 57.9298 39.1477C58.6327 39.6963 59.1326 40.4636 59.3503 41.3282C59.5681 42.1928 59.4913 43.1054 59.1321 43.9214C58.7728 44.7375 58.1517 45.4104 57.367 45.8337C56.5823 46.257 55.6788 46.4066 54.7995 46.2587C53.9203 46.1107 53.1155 45.6738 52.5125 45.017C51.9095 44.3602 51.5427 43.5211 51.4703 42.6324ZM59.0806 56.869C58.7595 56.2324 58.2744 55.6929 57.6753 55.3063C57.0762 54.9197 56.3847 54.6999 55.6724 54.6697C54.96 54.6395 54.2524 54.7999 53.6227 55.1344C52.993 55.4688 52.4639 55.9653 52.0901 56.5725C51.7163 57.1796 51.5112 57.8756 51.4961 58.5885C51.481 59.3013 51.6563 60.0053 52.0041 60.6278C52.3518 61.2503 52.8594 61.7687 53.4744 62.1296C54.0893 62.4905 54.7895 62.6807 55.5025 62.6807C56.1297 62.6764 56.7474 62.5265 57.3069 62.2428C58.2531 61.7638 58.9711 60.9294 59.3035 59.9222C59.636 58.915 59.5558 57.8172 59.0806 56.869ZM64.7713 56.2023C65.2373 56.1985 65.6939 56.333 66.0835 56.5887C66.605 56.9324 66.969 57.4688 67.0958 58.0803C67.2226 58.6919 67.1019 59.3288 66.7601 59.8515C66.5044 60.2411 66.1389 60.5461 65.7098 60.7279C65.2807 60.9097 64.8074 60.9602 64.3496 60.873C63.8918 60.7858 63.4701 60.5649 63.138 60.238C62.8058 59.9112 62.5779 59.4932 62.4833 59.0369C62.3887 58.5806 62.4315 58.1065 62.6063 57.6745C62.7811 57.2425 63.0801 56.8721 63.4655 56.61C63.8509 56.348 64.3053 56.2061 64.7713 56.2023ZM73.7564 50.569C73.7787 50.1739 73.6833 49.781 73.4824 49.44C73.2815 49.0991 72.9839 48.8253 72.6275 48.6534C72.271 48.4815 71.8715 48.4192 71.4796 48.4742C71.0877 48.5293 70.7209 48.6993 70.4256 48.9628C70.1303 49.2263 69.9197 49.5714 69.8205 49.9545C69.7213 50.3376 69.7379 50.7416 69.8683 51.1153C69.9986 51.489 70.2368 51.8156 70.5527 52.054C70.8686 52.2923 71.2481 52.4317 71.6432 52.4544C72.1734 52.4843 72.6938 52.3025 73.09 51.949C73.4862 51.5955 73.7259 51.0991 73.7564 50.569ZM78.5694 49.3201C78.7904 49.1902 79.045 49.1287 79.301 49.1434C79.644 49.1637 79.965 49.3192 80.1936 49.5757C80.4222 49.8322 80.5398 50.1689 80.5207 50.512C80.506 50.768 80.4157 51.0138 80.2612 51.2185C80.1068 51.4232 79.8951 51.5774 79.653 51.6618C79.4108 51.7461 79.1491 51.7568 78.901 51.6924C78.6528 51.628 78.4292 51.4915 78.2587 51.3001C78.0881 51.1087 77.9781 50.871 77.9426 50.6171C77.9071 50.3631 77.9477 50.1044 78.0593 49.8735C78.1708 49.6427 78.3483 49.4501 78.5694 49.3201ZM74.0804 61.9975C73.8076 61.8188 73.488 61.725 73.162 61.728C72.8359 61.731 72.5181 61.8305 72.2486 62.0141C71.9791 62.1977 71.7701 62.457 71.648 62.7594C71.5259 63.0617 71.4962 63.3935 71.5626 63.7127C71.629 64.0319 71.7886 64.3243 72.0211 64.5529C72.2537 64.7814 72.5488 64.9359 72.8691 64.9968C73.1895 65.0576 73.5207 65.0222 73.8208 64.8948C74.121 64.7675 74.3767 64.554 74.5556 64.2814C74.6744 64.1003 74.7564 63.8975 74.7969 63.6847C74.8373 63.4718 74.8354 63.2531 74.7913 63.041C74.7471 62.8289 74.6617 62.6275 74.5397 62.4485C74.4177 62.2694 74.2616 62.1162 74.0804 61.9975ZM36.5701 73.888C36.8264 73.8859 37.0776 73.9598 37.292 74.1005C37.4344 74.1939 37.5569 74.3145 37.6527 74.4553C37.7485 74.5961 37.8156 74.7544 37.8501 74.9212C37.8847 75.0879 37.8861 75.2598 37.8542 75.4271C37.8223 75.5944 37.7578 75.7538 37.6642 75.8961C37.5235 76.1104 37.3224 76.2781 37.0863 76.378C36.8502 76.478 36.5898 76.5057 36.338 76.4577C36.0861 76.4097 35.8542 76.2881 35.6715 76.1083C35.4888 75.9285 35.3635 75.6985 35.3114 75.4475C35.2594 75.1964 35.2829 74.9356 35.3791 74.698C35.4753 74.4603 35.6398 74.2565 35.8517 74.1124C36.0637 73.9682 36.3137 73.8901 36.5701 73.888ZM64.463 73.9647C64.2341 74.0801 64.0444 74.2609 63.9182 74.484C63.7919 74.7072 63.7347 74.9628 63.7537 75.2185C63.7727 75.4742 63.8672 75.7186 64.0251 75.9206C64.1829 76.1226 64.3972 76.2733 64.6407 76.3536C64.8843 76.4338 65.1461 76.4401 65.3932 76.3715C65.6403 76.3029 65.8615 76.1626 66.0288 75.9683C66.1961 75.774 66.3021 75.5345 66.3332 75.2799C66.3644 75.0254 66.3194 74.7674 66.2039 74.5385C66.1275 74.3863 66.0218 74.2507 65.8928 74.1395C65.7639 74.0283 65.6143 73.9436 65.4525 73.8903C65.2908 73.837 65.1202 73.8161 64.9504 73.8289C64.7806 73.8417 64.615 73.8878 64.463 73.9647ZM50.0483 58.3608C50.1208 59.2495 49.8948 60.1371 49.406 60.8829C49.0425 61.4409 48.5451 61.899 47.9591 62.2153C47.3731 62.5316 46.7172 62.6962 46.0513 62.6939C45.1596 62.6932 44.2935 62.3952 43.5903 61.8469C42.8871 61.2986 42.3868 60.5315 42.1686 59.6668C41.9505 58.8022 42.027 57.8895 42.386 57.0733C42.745 56.257 43.366 55.5838 44.1506 55.1602C44.9353 54.7367 45.8389 54.5869 46.7183 54.7347C47.5976 54.8824 48.4026 55.3193 49.0058 55.976C49.6089 56.6328 49.9758 57.472 50.0483 58.3608ZM41.398 67.034C41.0668 66.8174 40.6788 66.7038 40.2831 66.7076C39.8873 66.7114 39.5016 66.8324 39.1746 67.0554C38.8476 67.2784 38.5941 67.5933 38.4461 67.9604C38.2981 68.3274 38.2622 68.7301 38.343 69.1175C38.4238 69.505 38.6176 69.8597 38.9 70.137C39.1824 70.4143 39.5406 70.6017 39.9295 70.6754C40.3183 70.7491 40.7203 70.7059 41.0846 70.5512C41.4489 70.3965 41.7591 70.1373 41.9761 69.8063C42.2668 69.3619 42.3691 68.8204 42.2607 68.3006C42.1523 67.7807 41.842 67.3252 41.398 67.034ZM49.8115 74.9302C50.0925 74.7647 50.4162 74.6863 50.7418 74.7048C50.9581 74.7171 51.1698 74.7719 51.3649 74.8661C51.56 74.9602 51.7346 75.0919 51.8788 75.2536C52.023 75.4152 52.1339 75.6037 52.2052 75.8083C52.2765 76.0128 52.3068 76.2294 52.2943 76.4457C52.2756 76.7712 52.1608 77.0839 51.9644 77.3442C51.768 77.6045 51.4988 77.8007 51.1909 77.9081C50.883 78.0154 50.5502 78.029 50.2345 77.9473C49.9189 77.8655 49.6346 77.6919 49.4175 77.4486C49.2005 77.2052 49.0605 76.9029 49.0152 76.58C48.9699 76.2571 49.0214 75.928 49.1632 75.6343C49.3049 75.3407 49.5305 75.0956 49.8115 74.9302ZM50.7593 64.3296C50.2938 64.3013 49.8303 64.4118 49.4276 64.6471C49.0249 64.8825 48.7011 65.232 48.4972 65.6515C48.2933 66.071 48.2185 66.5416 48.2823 67.0036C48.3461 67.4657 48.5455 67.8984 48.8554 68.247C49.1653 68.5955 49.5717 68.8443 50.0231 68.9618C50.4745 69.0792 50.9506 69.0601 51.391 68.9067C51.8315 68.7534 52.2166 68.4727 52.4975 68.1004C52.7783 67.728 52.9424 67.2807 52.9688 66.815C53.0047 66.1926 52.7923 65.5813 52.378 65.1154C51.9638 64.6494 51.3817 64.3668 50.7593 64.3296ZM59.5562 67.6795C59.7504 67.3338 60.0428 67.0535 60.3964 66.8741C60.6306 66.7547 60.886 66.6826 61.1481 66.6619C61.4102 66.6413 61.6737 66.6726 61.9237 66.7539C62.1737 66.8353 62.4052 66.9652 62.6049 67.1361C62.8046 67.307 62.9687 67.5156 63.0877 67.7501C63.2679 68.1032 63.3394 68.5019 63.2929 68.8956C63.2465 69.2894 63.0842 69.6605 62.8268 69.9621C62.5693 70.2636 62.2282 70.4819 61.8465 70.5895C61.4649 70.697 61.06 70.6889 60.6829 70.5662C60.3059 70.4435 59.9738 70.2117 59.7285 69.9001C59.4833 69.5886 59.3361 69.2113 59.3054 68.816C59.2747 68.4207 59.362 68.0251 59.5562 67.6795Z" fill="#0052CC"/>
</svg>
