<svg width="100" height="100" viewBox="0 0 100 100" fill="none" xmlns="http://www.w3.org/2000/svg">
<path d="M54.75 3.31976L88.0513 22.5463C90.9906 24.2433 92.8013 27.3795 92.8013 30.7735V69.2265C92.8013 72.6205 90.9906 75.7567 88.0513 77.4537L54.75 96.6802C51.8107 98.3773 48.1893 98.3773 45.25 96.6802L11.9487 77.4537C9.00942 75.7567 7.19873 72.6205 7.19873 69.2265V30.7735C7.19873 27.3795 9.00942 24.2433 11.9487 22.5463L45.25 3.31976C48.1893 1.62275 51.8107 1.62275 54.75 3.31976Z" stroke="#6C6F89"/>
<path fill-rule="evenodd" clip-rule="evenodd" d="M50.1084 25.7952C50.434 25.8137 50.7579 25.7353 51.0389 25.5697C51.32 25.4042 51.5456 25.159 51.6873 24.8652C51.829 24.5714 51.8804 24.2422 51.835 23.9192C51.7895 23.5962 51.6493 23.2939 51.4321 23.0506C51.2148 22.8074 50.9303 22.634 50.6145 22.5524C50.2986 22.4708 49.9657 22.4848 49.6578 22.5924C49.3499 22.7001 49.0809 22.8967 48.8847 23.1573C48.6886 23.4179 48.5741 23.7308 48.5558 24.0565C48.5313 24.4929 48.6811 24.9211 48.9722 25.2472C49.2633 25.5732 49.672 25.7703 50.1084 25.7952ZM64.451 26.6117C64.1945 26.614 63.9432 26.5402 63.7287 26.3996C63.4414 26.2112 63.2406 25.9166 63.1704 25.5803C63.1002 25.2441 63.1663 24.8937 63.3542 24.6061C63.4945 24.3914 63.6954 24.2232 63.9313 24.1227C64.1673 24.0222 64.4277 23.9939 64.6798 24.0415C64.9318 24.0891 65.164 24.2103 65.3471 24.3899C65.5302 24.5695 65.6559 24.7994 65.7083 25.0504C65.7608 25.3015 65.7375 25.5624 65.6416 25.8003C65.5457 26.0381 65.3813 26.2422 65.1694 26.3866C64.9575 26.531 64.7075 26.6094 64.451 26.6117ZM36.5556 26.5353C36.7832 26.4184 36.971 26.2369 37.0956 26.0135C37.2202 25.7901 37.2759 25.5348 37.2557 25.2799C37.2356 25.0249 37.1404 24.7815 36.9822 24.5805C36.8241 24.3795 36.61 24.2297 36.3669 24.1501C36.1238 24.0705 35.8626 24.0646 35.6162 24.1331C35.3697 24.2016 35.1491 24.3415 34.982 24.5352C34.8149 24.7288 34.7088 24.9676 34.6771 25.2214C34.6454 25.4752 34.6894 25.7328 34.8038 25.9616C34.8806 26.1147 34.9871 26.2512 35.1169 26.363C35.2467 26.4748 35.3974 26.5599 35.5602 26.6132C35.7231 26.6665 35.8949 26.6871 36.0657 26.6737C36.2365 26.6604 36.403 26.6133 36.5556 26.5353ZM37.8197 52.6941C37.1119 51.8992 36.7485 50.8557 36.8095 49.7931L36.7986 49.7953C36.8435 49.014 37.1162 48.2629 37.583 47.6348C38.0498 47.0067 38.6903 46.529 39.4255 46.2607C40.1607 45.9924 40.9583 45.9453 41.72 46.1251C42.4816 46.3049 43.174 46.7037 43.7115 47.2725C44.2491 47.8412 44.6084 48.5549 44.7451 49.3255C44.8817 50.096 44.7897 50.8898 44.4805 51.6087C44.1713 52.3276 43.6583 52.9402 43.0049 53.3709C42.3515 53.8017 41.5863 54.0316 40.8037 54.0325H40.5847C39.5221 53.9704 38.5276 53.489 37.8197 52.6941ZM21.1366 48.9545C21.357 48.8245 21.611 48.7627 21.8665 48.777C22.0364 48.7862 22.2029 48.8289 22.3563 48.9027C22.5097 48.9764 22.647 49.0798 22.7603 49.2067C22.8737 49.3337 22.9608 49.4818 23.0167 49.6426C23.0726 49.8033 23.0963 49.9735 23.0862 50.1434C23.0715 50.3989 22.9814 50.6443 22.8273 50.8485C22.6732 51.0528 22.462 51.2068 22.2204 51.2911C21.9788 51.3754 21.7177 51.3862 21.47 51.3221C21.2222 51.258 20.9991 51.1219 20.8287 50.931C20.6583 50.7401 20.5483 50.503 20.5126 50.2496C20.477 49.9962 20.5172 49.7379 20.6283 49.5074C20.7393 49.2769 20.9162 49.0845 21.1366 48.9545ZM41.4629 32.824C41.268 33.1686 40.9755 33.4476 40.6221 33.6258C40.3873 33.7443 40.1315 33.8153 39.8692 33.8348C39.607 33.8543 39.3435 33.822 39.0938 33.7396C38.844 33.6573 38.613 33.5265 38.4138 33.3548C38.2147 33.1831 38.0513 32.9738 37.933 32.739C37.755 32.3855 37.6858 31.9871 37.7342 31.5943C37.7825 31.2015 37.9463 30.8318 38.2047 30.532C38.4631 30.2322 38.8046 30.0158 39.1861 29.9101C39.5675 29.8044 39.9717 29.8141 40.3475 29.9381C40.7234 30.0621 41.0541 30.2947 41.2978 30.6066C41.5415 30.9184 41.6872 31.2956 41.7166 31.6903C41.746 32.085 41.6577 32.4795 41.4629 32.824ZM26.9382 38.5025C27.2107 38.6818 27.5303 38.7761 27.8566 38.7737C28.1828 38.7712 28.5009 38.6721 28.7708 38.4887C29.0406 38.3054 29.25 38.0462 29.3725 37.7438C29.4949 37.4414 29.525 37.1095 29.4587 36.7901C29.3925 36.4707 29.233 36.1781 29.0005 35.9493C28.7679 35.7205 28.4727 35.5659 28.1522 35.5049C27.8318 35.444 27.5004 35.4795 27.2001 35.6069C26.8998 35.7343 26.644 35.9479 26.4652 36.2208C26.2256 36.5861 26.1409 37.0317 26.2296 37.4595C26.3183 37.8873 26.5731 38.2625 26.9382 38.5025ZM28.2461 48.3219C28.5871 48.121 28.98 48.0256 29.3751 48.0479C29.9052 48.0784 30.4016 48.3181 30.7551 48.7143C31.1086 49.1105 31.2904 49.6309 31.2605 50.161C31.2378 50.5562 31.0985 50.9357 30.8601 51.2516C30.6217 51.5675 30.2951 51.8057 29.9214 51.936C29.5477 52.0664 29.1437 52.083 28.7606 51.9838C28.3775 51.8845 28.0324 51.674 27.7689 51.3787C27.5054 51.0834 27.3354 50.7166 27.2803 50.3247C27.2253 49.9327 27.2876 49.5333 27.4595 49.1768C27.6314 48.8203 27.9052 48.5228 28.2461 48.3219ZM27.1571 61.5041C26.866 61.6512 26.6252 61.8812 26.4649 62.1652C26.3046 62.4491 26.2321 62.7742 26.2565 63.0993C26.281 63.4245 26.4013 63.7351 26.6022 63.9919C26.8031 64.2487 27.0757 64.4401 27.3854 64.542C27.6951 64.644 28.0281 64.6518 28.3423 64.5645C28.6565 64.4772 28.9377 64.2987 29.1504 64.0516C29.3632 63.8045 29.4979 63.4999 29.5375 63.1762C29.5771 62.8526 29.5199 62.5244 29.3731 62.2333C29.2756 62.0398 29.1408 61.8675 28.9767 61.7261C28.8125 61.5848 28.622 61.4772 28.4162 61.4094C28.2104 61.3417 27.9933 61.3152 27.7772 61.3315C27.5612 61.3477 27.3504 61.4064 27.1571 61.5041ZM36.2499 44.2967C35.7839 44.3008 35.3272 44.1667 34.9374 43.9113C34.6783 43.7419 34.4552 43.523 34.2809 43.2672C34.1065 43.0114 33.9843 42.7238 33.9212 42.4207C33.8582 42.1176 33.8555 41.8051 33.9134 41.501C33.9713 41.1969 34.0886 40.9072 34.2586 40.6485C34.5141 40.2588 34.8794 39.9537 35.3084 39.7716C35.7374 39.5896 36.2107 39.5388 36.6685 39.6257C37.1263 39.7127 37.548 39.9334 37.8804 40.26C38.2128 40.5866 38.4408 41.0044 38.5357 41.4606C38.6307 41.9169 38.5882 42.391 38.4137 42.8231C38.2391 43.2551 37.9404 43.6257 37.5553 43.8881C37.1701 44.1504 36.7158 44.2926 36.2499 44.2967ZM59.6206 33.4681C59.9524 33.6846 60.341 33.7978 60.7372 33.7935C61.1334 33.7892 61.5194 33.6675 61.8464 33.4438C62.1734 33.2201 62.4268 32.9045 62.5745 32.5369C62.7222 32.1692 62.7576 31.766 62.6762 31.3783C62.5948 30.9905 62.4002 30.6356 62.1172 30.3584C61.8341 30.0812 61.4752 29.8941 61.0858 29.8209C60.6964 29.7476 60.2941 29.7914 59.9296 29.9468C59.5651 30.1021 59.2549 30.362 59.0381 30.6937C58.8938 30.914 58.7943 31.1606 58.7455 31.4194C58.6966 31.6782 58.6994 31.9441 58.7535 32.2018C58.8076 32.4596 58.912 32.7041 59.0608 32.9214C59.2096 33.1387 59.3999 33.3245 59.6206 33.4681ZM59.936 45.9784C59.4104 45.9482 58.8841 46.0218 58.387 46.195C57.8899 46.3683 57.4318 46.6377 57.0389 46.9879C56.2453 47.6953 55.7652 48.689 55.7042 49.7503C55.6432 50.8117 56.0063 51.8538 56.7137 52.6474C57.4211 53.441 58.4147 53.9211 59.4761 53.9821H59.7082C60.4814 53.9817 61.2379 53.7577 61.8866 53.337C62.5353 52.9163 63.0485 52.317 63.3642 51.6112C63.68 50.9054 63.7848 50.1234 63.666 49.3594C63.5473 48.5954 63.2101 47.8821 62.6951 47.3054C62.3463 46.9121 61.9227 46.5923 61.449 46.3644C60.9753 46.1366 60.4609 46.0054 59.936 45.9784ZM43.4154 45.246C42.7824 44.8564 42.2708 44.2978 41.9382 43.6332C41.6322 43.0224 41.4874 42.3436 41.5175 41.6612C41.5475 40.9787 41.7514 40.3153 42.1099 39.7338C42.4683 39.1522 42.9694 38.6719 43.5655 38.3384C44.1617 38.0049 44.8332 37.8292 45.5163 37.8281C46.2578 37.8245 46.9857 38.0275 47.6185 38.4143C48.2512 38.801 48.7638 39.3563 49.0988 40.0179C49.4083 40.6292 49.5559 41.3097 49.5276 41.9943C49.4994 42.6789 49.2961 43.3449 48.9372 43.9286C48.5784 44.5123 48.0759 44.9944 47.4778 45.3287C46.8797 45.663 46.2059 45.8385 45.5207 45.8383C44.7774 45.8407 44.0483 45.6355 43.4154 45.246ZM73.3615 38.4981C73.6526 38.3512 73.8936 38.1214 74.054 37.8376C74.2145 37.5538 74.2872 37.2288 74.263 36.9037C74.2388 36.5785 74.1188 36.2679 73.9181 36.011C73.7174 35.754 73.445 35.5624 73.1354 35.4602C72.8259 35.358 72.4929 35.3499 72.1787 35.4369C71.8645 35.5239 71.5831 35.7021 71.3702 35.9489C71.1572 36.1958 71.0222 36.5002 70.9822 36.8238C70.9422 37.1473 70.999 37.4755 71.1455 37.7667C71.3425 38.1574 71.6866 38.4539 72.1022 38.591C72.5177 38.7282 72.9706 38.6947 73.3615 38.4981ZM62.2084 40.7183C62.438 40.3127 62.7827 39.9844 63.1989 39.7748C63.4752 39.6353 63.7763 39.5517 64.0849 39.5287C64.3936 39.5057 64.7037 39.5438 64.9976 39.6408C65.2915 39.7379 65.5634 39.8919 65.7977 40.0941C66.032 40.2963 66.2242 40.5428 66.3631 40.8193C66.5728 41.2355 66.6543 41.7045 66.5973 42.1671C66.5404 42.6296 66.3476 43.0648 66.0432 43.4178C65.7389 43.7707 65.3368 44.0255 64.8877 44.1499C64.4386 44.2743 63.9627 44.2627 63.5202 44.1166C63.0776 43.9706 62.6884 43.6965 62.4016 43.3292C62.1148 42.9619 61.9433 42.5178 61.909 42.053C61.8746 41.5883 61.9788 41.1238 62.2084 40.7183ZM51.4196 35.8496C51.0183 36.0862 50.5559 36.1986 50.0907 36.1726C49.4665 36.137 48.8819 35.8549 48.4655 35.3885C48.0491 34.922 47.835 34.3092 47.8703 33.685C47.897 33.2198 48.061 32.7731 48.3415 32.4011C48.6221 32.0292 49.0066 31.7488 49.4465 31.5953C49.8863 31.4419 50.3618 31.4222 50.8129 31.5389C51.2639 31.6557 51.6702 31.9034 51.9804 32.251C52.2907 32.5986 52.4909 33.0303 52.5558 33.4916C52.6208 33.953 52.5475 34.4232 52.3453 34.8429C52.143 35.2626 51.8209 35.6129 51.4196 35.8496ZM37.3243 60.2252C37.7404 60.0154 38.085 59.6869 38.3145 59.2812C38.5439 58.8755 38.6479 58.4109 38.6132 57.9462C38.5786 57.4814 38.4069 57.0374 38.1199 56.6702C37.8329 56.303 37.4434 56.0292 37.0007 55.8834C36.5581 55.7375 36.0821 55.7263 35.6331 55.851C35.184 55.9757 34.782 56.2308 34.4779 56.584C34.1738 56.9372 33.9813 57.3726 33.9248 57.8352C33.8682 58.2978 33.95 58.7668 34.16 59.1829C34.4415 59.7406 34.933 60.1637 35.5263 60.3592C36.1197 60.5547 36.7664 60.5065 37.3243 60.2252ZM50.9703 42.1324C50.8979 41.2437 51.1239 40.3563 51.6126 39.6105C51.9779 39.0538 52.476 38.5967 53.062 38.2806C53.6481 37.9644 54.3036 37.7991 54.9695 37.7996C55.8611 37.8007 56.7269 38.0992 57.4298 38.6477C58.1327 39.1963 58.6326 39.9636 58.8503 40.8282C59.0681 41.6928 58.9913 42.6054 58.6321 43.4214C58.2728 44.2375 57.6517 44.9104 56.867 45.3337C56.0823 45.757 55.1788 45.9066 54.2995 45.7587C53.4203 45.6107 52.6155 45.1738 52.0125 44.517C51.4095 43.8602 51.0427 43.0211 50.9703 42.1324ZM58.5806 56.369C58.2595 55.7324 57.7744 55.1929 57.1753 54.8063C56.5762 54.4197 55.8847 54.1999 55.1724 54.1697C54.46 54.1395 53.7524 54.2999 53.1227 54.6344C52.493 54.9688 51.9639 55.4653 51.5901 56.0725C51.2163 56.6796 51.0112 57.3756 50.9961 58.0885C50.981 58.8013 51.1563 59.5053 51.5041 60.1278C51.8518 60.7503 52.3594 61.2687 52.9744 61.6296C53.5893 61.9905 54.2895 62.1807 55.0025 62.1807C55.6297 62.1764 56.2474 62.0265 56.8069 61.7428C57.7531 61.2638 58.4711 60.4294 58.8035 59.4222C59.136 58.415 59.0558 57.3172 58.5806 56.369ZM64.2713 55.7023C64.7373 55.6985 65.1939 55.833 65.5835 56.0887C66.105 56.4324 66.469 56.9688 66.5958 57.5803C66.7226 58.1919 66.6019 58.8288 66.2601 59.3515C66.0044 59.7411 65.6389 60.0461 65.2098 60.2279C64.7807 60.4097 64.3074 60.4602 63.8496 60.373C63.3918 60.2858 62.9701 60.0649 62.638 59.738C62.3058 59.4112 62.0779 58.9932 61.9833 58.5369C61.8887 58.0806 61.9315 57.6065 62.1063 57.1745C62.2811 56.7425 62.5801 56.3721 62.9655 56.11C63.3509 55.848 63.8053 55.7061 64.2713 55.7023ZM73.2564 50.069C73.2787 49.6739 73.1833 49.281 72.9824 48.94C72.7815 48.5991 72.4839 48.3253 72.1275 48.1534C71.771 47.9815 71.3715 47.9192 70.9796 47.9742C70.5877 48.0293 70.2209 48.1993 69.9256 48.4628C69.6303 48.7263 69.4197 49.0714 69.3205 49.4545C69.2213 49.8376 69.2379 50.2416 69.3683 50.6153C69.4986 50.989 69.7368 51.3156 70.0527 51.554C70.3686 51.7923 70.7481 51.9317 71.1432 51.9544C71.6734 51.9843 72.1938 51.8025 72.59 51.449C72.9862 51.0955 73.2259 50.5991 73.2564 50.069ZM78.0694 48.8201C78.2904 48.6902 78.545 48.6287 78.801 48.6434C79.144 48.6637 79.465 48.8192 79.6936 49.0757C79.9222 49.3322 80.0398 49.6689 80.0207 50.012C80.006 50.268 79.9157 50.5138 79.7612 50.7185C79.6068 50.9232 79.3951 51.0774 79.153 51.1618C78.9108 51.2461 78.6491 51.2568 78.401 51.1924C78.1528 51.128 77.9292 50.9915 77.7587 50.8001C77.5881 50.6087 77.4781 50.371 77.4426 50.1171C77.4071 49.8631 77.4477 49.6044 77.5593 49.3735C77.6708 49.1427 77.8483 48.9501 78.0694 48.8201ZM73.5804 61.4975C73.3076 61.3188 72.988 61.225 72.662 61.228C72.3359 61.231 72.0181 61.3305 71.7486 61.5141C71.4791 61.6977 71.2701 61.957 71.148 62.2594C71.0259 62.5617 70.9962 62.8935 71.0626 63.2127C71.129 63.5319 71.2886 63.8243 71.5211 64.0529C71.7537 64.2814 72.0488 64.4359 72.3691 64.4968C72.6895 64.5576 73.0207 64.5222 73.3208 64.3948C73.621 64.2675 73.8767 64.054 74.0556 63.7814C74.1744 63.6003 74.2564 63.3975 74.2969 63.1847C74.3373 62.9718 74.3354 62.7531 74.2913 62.541C74.2471 62.3289 74.1617 62.1275 74.0397 61.9485C73.9177 61.7694 73.7616 61.6162 73.5804 61.4975ZM36.0701 73.388C36.3264 73.3859 36.5776 73.4598 36.792 73.6005C36.9344 73.6939 37.0569 73.8145 37.1527 73.9553C37.2485 74.0961 37.3156 74.2544 37.3501 74.4212C37.3847 74.5879 37.3861 74.7598 37.3542 74.9271C37.3223 75.0944 37.2578 75.2538 37.1642 75.3961C37.0235 75.6104 36.8224 75.7781 36.5863 75.878C36.3502 75.978 36.0898 76.0057 35.838 75.9577C35.5861 75.9097 35.3542 75.7881 35.1715 75.6083C34.9888 75.4285 34.8635 75.1985 34.8114 74.9475C34.7594 74.6964 34.7829 74.4356 34.8791 74.198C34.9753 73.9603 35.1398 73.7565 35.3517 73.6124C35.5637 73.4682 35.8137 73.3901 36.0701 73.388ZM63.963 73.4647C63.7341 73.5801 63.5444 73.7609 63.4182 73.984C63.2919 74.2072 63.2347 74.4628 63.2537 74.7185C63.2727 74.9742 63.3672 75.2186 63.5251 75.4206C63.6829 75.6226 63.8972 75.7733 64.1407 75.8536C64.3843 75.9338 64.6461 75.9401 64.8932 75.8715C65.1403 75.8029 65.3615 75.6626 65.5288 75.4683C65.6961 75.274 65.8021 75.0345 65.8332 74.7799C65.8644 74.5254 65.8194 74.2674 65.7039 74.0385C65.6275 73.8863 65.5218 73.7507 65.3928 73.6395C65.2639 73.5283 65.1143 73.4436 64.9525 73.3903C64.7908 73.337 64.6202 73.3161 64.4504 73.3289C64.2806 73.3417 64.115 73.3878 63.963 73.4647ZM49.5483 57.8608C49.6208 58.7495 49.3948 59.6371 48.906 60.3829C48.5425 60.9409 48.0451 61.399 47.4591 61.7153C46.8731 62.0316 46.2172 62.1962 45.5513 62.1939C44.6596 62.1932 43.7935 61.8952 43.0903 61.3469C42.3871 60.7986 41.8868 60.0315 41.6686 59.1668C41.4505 58.3022 41.527 57.3895 41.886 56.5733C42.245 55.757 42.866 55.0838 43.6506 54.6602C44.4353 54.2367 45.3389 54.0869 46.2183 54.2347C47.0976 54.3824 47.9026 54.8193 48.5058 55.476C49.1089 56.1328 49.4758 56.972 49.5483 57.8608ZM40.898 66.534C40.5668 66.3174 40.1788 66.2038 39.7831 66.2076C39.3873 66.2114 39.0016 66.3324 38.6746 66.5554C38.3476 66.7784 38.0941 67.0933 37.9461 67.4604C37.7981 67.8274 37.7622 68.2301 37.843 68.6175C37.9238 69.005 38.1176 69.3597 38.4 69.637C38.6824 69.9143 39.0406 70.1017 39.4295 70.1754C39.8183 70.2491 40.2203 70.2059 40.5846 70.0512C40.9489 69.8965 41.2591 69.6373 41.4761 69.3063C41.7668 68.8619 41.8691 68.3204 41.7607 67.8006C41.6523 67.2807 41.342 66.8252 40.898 66.534ZM49.3115 74.4302C49.5925 74.2647 49.9162 74.1863 50.2418 74.2048C50.4581 74.2171 50.6698 74.2719 50.8649 74.3661C51.06 74.4602 51.2346 74.5919 51.3788 74.7536C51.523 74.9152 51.6339 75.1037 51.7052 75.3083C51.7765 75.5128 51.8068 75.7294 51.7943 75.9457C51.7756 76.2712 51.6608 76.5839 51.4644 76.8442C51.268 77.1045 50.9988 77.3007 50.6909 77.4081C50.383 77.5154 50.0502 77.529 49.7345 77.4473C49.4189 77.3655 49.1346 77.1919 48.9175 76.9486C48.7005 76.7052 48.5605 76.4029 48.5152 76.08C48.4699 75.7571 48.5214 75.428 48.6632 75.1343C48.8049 74.8407 49.0305 74.5956 49.3115 74.4302ZM50.2593 63.8296C49.7938 63.8013 49.3303 63.9118 48.9276 64.1471C48.5249 64.3825 48.2011 64.732 47.9972 65.1515C47.7933 65.571 47.7185 66.0416 47.7823 66.5036C47.8461 66.9657 48.0455 67.3984 48.3554 67.747C48.6653 68.0955 49.0717 68.3443 49.5231 68.4618C49.9745 68.5792 50.4506 68.5601 50.891 68.4067C51.3315 68.2534 51.7166 67.9727 51.9975 67.6004C52.2783 67.228 52.4424 66.7807 52.4688 66.315C52.5047 65.6926 52.2923 65.0813 51.878 64.6154C51.4638 64.1494 50.8817 63.8668 50.2593 63.8296ZM59.0562 67.1795C59.2504 66.8338 59.5428 66.5535 59.8964 66.3741C60.1306 66.2547 60.386 66.1826 60.6481 66.1619C60.9102 66.1413 61.1737 66.1726 61.4237 66.2539C61.6737 66.3353 61.9052 66.4652 62.1049 66.6361C62.3046 66.807 62.4687 67.0156 62.5877 67.2501C62.7679 67.6032 62.8394 68.0019 62.7929 68.3956C62.7465 68.7894 62.5842 69.1605 62.3268 69.4621C62.0693 69.7636 61.7282 69.9819 61.3465 70.0895C60.9649 70.197 60.56 70.1889 60.1829 70.0662C59.8059 69.9435 59.4738 69.7117 59.2285 69.4001C58.9833 69.0886 58.8361 68.7113 58.8054 68.316C58.7747 67.9207 58.862 67.5251 59.0562 67.1795Z" fill="#66BDFF"/>
</svg>
