<svg width="61" height="56" viewBox="0 0 61 56" fill="none" xmlns="http://www.w3.org/2000/svg">
<path fill-rule="evenodd" clip-rule="evenodd" d="M30.1467 3.35507C30.4783 3.37395 30.808 3.29407 31.0942 3.12553C31.3804 2.95699 31.6101 2.70737 31.7544 2.40823C31.8987 2.1091 31.951 1.77389 31.9047 1.44502C31.8585 1.11615 31.7157 0.808383 31.4945 0.560661C31.2733 0.312938 30.9836 0.136386 30.662 0.0533386C30.3405 -0.0297094 30.0015 -0.015522 29.688 0.094106C29.3745 0.203734 29.1006 0.403877 28.9009 0.669217C28.7011 0.934558 28.5846 1.25317 28.566 1.58476C28.541 2.0291 28.6935 2.46517 28.9899 2.79712C29.2863 3.12908 29.7024 3.32976 30.1467 3.35507ZM44.7503 4.1864C44.4892 4.18874 44.2332 4.11358 44.0148 3.97043C43.7223 3.77868 43.5178 3.47868 43.4464 3.13629C43.3749 2.79391 43.4422 2.43716 43.6336 2.14438C43.7764 1.9258 43.9809 1.75451 44.2212 1.65217C44.4614 1.54984 44.7266 1.52107 44.9832 1.56949C45.2398 1.61792 45.4763 1.74138 45.6627 1.92423C45.8491 2.10709 45.9771 2.34113 46.0305 2.59675C46.0839 2.85237 46.0602 3.11808 45.9625 3.36025C45.8648 3.60242 45.6975 3.81018 45.4817 3.95724C45.266 4.1043 45.0114 4.18405 44.7503 4.1864ZM16.3474 4.10867C16.5791 3.98969 16.7704 3.80484 16.8972 3.57738C17.0241 3.34993 17.0808 3.09002 17.0602 2.8304C17.0397 2.57077 16.9428 2.32302 16.7818 2.11834C16.6207 1.91366 16.4027 1.7612 16.1552 1.68014C15.9077 1.59908 15.6418 1.59306 15.3909 1.66282C15.1399 1.73258 14.9153 1.87502 14.7451 2.0722C14.575 2.26937 14.467 2.51248 14.4347 2.77091C14.4024 3.02933 14.4473 3.29154 14.5637 3.52451C14.642 3.68045 14.7503 3.81936 14.8825 3.93323C15.0147 4.0471 15.1681 4.13369 15.3339 4.18799C15.4997 4.24229 15.6746 4.26324 15.8486 4.24962C16.0225 4.23601 16.192 4.1881 16.3474 4.10867ZM16.606 27.7893C16.5439 28.8713 16.9139 29.9337 17.6346 30.7431C18.3553 31.5524 19.3679 32.0426 20.4499 32.1058H20.6728C21.4696 32.1049 22.2488 31.8708 22.914 31.4322C23.5793 30.9936 24.1016 30.3699 24.4165 29.6379C24.7313 28.9059 24.825 28.0978 24.6858 27.3132C24.5467 26.5286 24.1809 25.802 23.6335 25.2229C23.0862 24.6438 22.3812 24.2377 21.6057 24.0546C20.8302 23.8715 20.0181 23.9196 19.2696 24.1927C18.521 24.4659 17.8689 24.9522 17.3935 25.5918C16.9182 26.2313 16.6406 26.996 16.5949 27.7915L16.606 27.7893ZM1.39133 26.7547C1.13121 26.7402 0.872606 26.8031 0.648208 26.9354C0.42381 27.0678 0.243687 27.2637 0.130603 27.4984C0.0175183 27.7331 -0.0234522 27.9961 0.0128692 28.2541C0.0491906 28.5121 0.161174 28.7535 0.334666 28.9479C0.508159 29.1422 0.735373 29.2808 0.987596 29.3461C1.23982 29.4113 1.50573 29.4004 1.75172 29.3146C1.99771 29.2287 2.21275 29.0719 2.36964 28.8639C2.52654 28.656 2.61827 28.4061 2.63322 28.146C2.64346 27.973 2.61942 27.7997 2.56248 27.636C2.50554 27.4724 2.41682 27.3216 2.30142 27.1923C2.18602 27.063 2.04621 26.9578 1.89003 26.8827C1.73385 26.8076 1.56437 26.7641 1.39133 26.7547ZM21.3437 10.5118C21.1454 10.8625 20.8475 11.1466 20.4877 11.3281C20.2486 11.4487 19.9882 11.521 19.7212 11.5409C19.4542 11.5608 19.1859 11.5278 18.9316 11.444C18.6773 11.3601 18.4421 11.227 18.2393 11.0522C18.0365 10.8774 17.8701 10.6643 17.7497 10.4251C17.5685 10.0652 17.498 9.65963 17.5473 9.25966C17.5965 8.85969 17.7632 8.4833 18.0264 8.17808C18.2895 7.87285 18.6372 7.65249 19.0255 7.54485C19.4139 7.43721 19.8254 7.44712 20.2081 7.57334C20.5908 7.69956 20.9275 7.93642 21.1757 8.25396C21.4238 8.57151 21.5722 8.9555 21.6021 9.35737C21.632 9.75924 21.5421 10.161 21.3437 10.5118ZM6.55515 16.2935C6.83267 16.476 7.15809 16.5721 7.49024 16.5696C7.82238 16.5671 8.14632 16.4661 8.42107 16.2794C8.69582 16.0928 8.90902 15.8288 9.03371 15.521C9.1584 15.2131 9.18897 14.8752 9.12155 14.5499C9.05413 14.2247 8.89175 13.9268 8.65496 13.6938C8.41817 13.4609 8.1176 13.3034 7.7913 13.2414C7.465 13.1793 7.12761 13.2154 6.82185 13.3452C6.51608 13.4749 6.25566 13.6924 6.07355 13.9702C5.82965 14.3423 5.74337 14.7959 5.83367 15.2315C5.92397 15.6671 6.18345 16.049 6.55515 16.2935ZM7.88708 26.2913C8.23423 26.0867 8.63425 25.9896 9.03657 26.0123C9.57634 26.0434 10.0817 26.2874 10.4417 26.6908C10.8016 27.0943 10.9867 27.6241 10.9563 28.1639C10.9331 28.5662 10.7913 28.9526 10.5486 29.2743C10.3059 29.5959 9.97328 29.8385 9.59279 29.9711C9.2123 30.1038 8.80102 30.1207 8.41093 30.0197C8.02083 29.9187 7.66944 29.7043 7.40117 29.4036C7.1329 29.103 6.95979 28.7295 6.90372 28.3305C6.84766 27.9314 6.91115 27.5247 7.08618 27.1618C7.26121 26.7988 7.53992 26.4959 7.88708 26.2913ZM6.77824 39.7132C6.48194 39.863 6.23669 40.0972 6.07349 40.3863C5.91029 40.6754 5.83647 41.0064 5.86135 41.3375C5.88624 41.6685 6.00872 41.9848 6.21331 42.2462C6.41789 42.5077 6.6954 42.7026 7.01076 42.8064C7.32612 42.9102 7.66516 42.9181 7.98503 42.8292C8.30489 42.7403 8.59123 42.5586 8.80784 42.307C9.02444 42.0554 9.1616 41.7453 9.20196 41.4157C9.24232 41.0862 9.18408 40.7521 9.0346 40.4557C8.93527 40.2587 8.7981 40.0832 8.63092 39.9393C8.46374 39.7954 8.26983 39.6858 8.06028 39.6169C7.85074 39.5479 7.62965 39.5209 7.40967 39.5375C7.18969 39.554 6.97512 39.6137 6.77824 39.7132ZM16.0362 22.193C15.5617 22.1972 15.0967 22.0606 14.6999 21.8006C14.4361 21.628 14.2089 21.4052 14.0314 21.1448C13.8538 20.8843 13.7294 20.5915 13.6652 20.2829C13.601 19.9743 13.5983 19.6561 13.6572 19.3465C13.7162 19.0368 13.8356 18.7419 14.0087 18.4785C14.2689 18.0817 14.6408 17.771 15.0776 17.5856C15.5144 17.4003 15.9963 17.3486 16.4624 17.4371C16.9285 17.5256 17.3579 17.7503 17.6964 18.0829C18.0348 18.4154 18.267 18.8408 18.3636 19.3054C18.4603 19.7699 18.417 20.2526 18.2393 20.6925C18.0616 21.1325 17.7575 21.5098 17.3653 21.7769C16.9732 22.044 16.5106 22.1888 16.0362 22.193ZM39.8321 11.1676C40.17 11.388 40.5656 11.5033 40.969 11.4988C41.3724 11.4944 41.7654 11.3705 42.0984 11.1428C42.4314 10.915 42.6893 10.5937 42.8397 10.2194C42.9901 9.84503 43.0261 9.43452 42.9432 9.03972C42.8603 8.64491 42.6623 8.28355 42.374 8.0013C42.0858 7.71905 41.7204 7.52858 41.3239 7.45398C40.9275 7.37938 40.5178 7.42399 40.1467 7.58218C39.7756 7.74036 39.4597 8.00501 39.239 8.34269C39.0921 8.56698 38.9908 8.81808 38.9411 9.08158C38.8913 9.34508 38.8941 9.61581 38.9492 9.87824C39.0043 10.1407 39.1106 10.3897 39.2622 10.6109C39.4137 10.8322 39.6073 11.0213 39.8321 11.1676ZM40.1528 23.9053C39.6178 23.8746 39.0819 23.9495 38.5757 24.1259C38.0696 24.3023 37.6032 24.5766 37.2031 24.9332C36.395 25.6534 35.9062 26.6652 35.8441 27.7458C35.782 28.8265 36.1518 29.8875 36.872 30.6956C37.5922 31.5036 38.604 31.9924 39.6846 32.0545H39.921C40.7082 32.0541 41.4785 31.826 42.139 31.3977C42.7995 30.9694 43.322 30.3591 43.6434 29.6405C43.9649 28.9219 44.0716 28.1257 43.9507 27.3478C43.8299 26.5699 43.4865 25.8436 42.9621 25.2565C42.607 24.856 42.1757 24.5303 41.6934 24.2983C41.211 24.0664 40.6873 23.9328 40.1528 23.9053ZM23.3318 23.1595C22.6874 22.7628 22.1665 22.1941 21.8278 21.5174C21.5163 20.8955 21.3688 20.2044 21.3994 19.5095C21.43 18.8147 21.6377 18.1392 22.0026 17.5471C22.3676 16.955 22.8777 16.4659 23.4847 16.1264C24.0917 15.7868 24.7754 15.6079 25.4709 15.6067C26.226 15.6031 26.9671 15.8098 27.6114 16.2036C28.2556 16.5974 28.7775 17.1627 29.1186 17.8363C29.4337 18.4588 29.584 19.1516 29.5552 19.8487C29.5264 20.5458 29.3195 21.2238 28.9541 21.8182C28.5887 22.4125 28.0771 22.9033 27.4681 23.2437C26.8591 23.5841 26.1731 23.7628 25.4754 23.7626C24.7187 23.765 23.9763 23.5562 23.3318 23.1595ZM53.8229 16.289C54.1192 16.1394 54.3646 15.9054 54.528 15.6164C54.6913 15.3275 54.7654 14.9966 54.7407 14.6655C54.7161 14.3345 54.5939 14.0182 54.3895 13.7566C54.1852 13.495 53.9079 13.2999 53.5927 13.1958C53.2774 13.0918 52.9384 13.0835 52.6185 13.1721C52.2986 13.2607 52.0121 13.4421 51.7953 13.6934C51.5785 13.9448 51.441 14.2547 51.4003 14.5842C51.3595 14.9136 51.4174 15.2477 51.5665 15.5443C51.7672 15.9421 52.1175 16.2439 52.5406 16.3836C52.9637 16.5232 53.4249 16.4892 53.8229 16.289ZM42.4666 18.5495C42.7004 18.1366 43.0513 17.8023 43.4751 17.5889C43.7564 17.4468 44.063 17.3617 44.3773 17.3383C44.6915 17.3149 45.0073 17.3537 45.3066 17.4525C45.6058 17.5513 45.8826 17.7081 46.1212 17.914C46.3598 18.1199 46.5554 18.3708 46.6969 18.6524C46.9103 19.0762 46.9933 19.5537 46.9353 20.0246C46.8774 20.4956 46.681 20.9387 46.3712 21.2981C46.0614 21.6574 45.6519 21.9169 45.1946 22.0435C44.7374 22.1702 44.2528 22.1584 43.8022 22.0096C43.3517 21.8609 42.9553 21.5819 42.6633 21.2079C42.3713 20.8339 42.1967 20.3817 42.1617 19.9085C42.1267 19.4353 42.2328 18.9624 42.4666 18.5495ZM31.4816 13.5923C31.0731 13.8333 30.6022 13.9477 30.1286 13.9212C29.493 13.8849 28.8978 13.5978 28.4738 13.1228C28.0499 12.6478 27.8319 12.024 27.8678 11.3883C27.895 10.9148 28.0619 10.4599 28.3476 10.0812C28.6332 9.70249 29.0247 9.41697 29.4726 9.26071C29.9205 9.10446 30.4046 9.08448 30.8639 9.20331C31.3231 9.32214 31.7368 9.57443 32.0527 9.92831C32.3685 10.2822 32.5724 10.7218 32.6385 11.1915C32.7046 11.6612 32.63 12.14 32.4241 12.5673C32.2182 12.9946 31.8902 13.3513 31.4816 13.5923ZM17.1302 38.4111C17.5539 38.1975 17.9048 37.863 18.1384 37.45C18.372 37.0369 18.4778 36.5639 18.4426 36.0907C18.4073 35.6175 18.2325 35.1653 17.9403 34.7915C17.648 34.4176 17.2515 34.1388 16.8008 33.9903C16.35 33.8419 15.8654 33.8304 15.4082 33.9574C14.951 34.0844 14.5417 34.3441 14.2321 34.7037C13.9225 35.0633 13.7265 35.5067 13.6688 35.9777C13.6112 36.4487 13.6946 36.9262 13.9084 37.3499C14.195 37.9177 14.6954 38.3485 15.2996 38.5476C15.9037 38.7466 16.5622 38.6975 17.1302 38.4111ZM31.0241 19.9894C30.9504 19.0845 31.1805 18.181 31.6781 17.4216C32.05 16.8548 32.5572 16.3894 33.1539 16.0675C33.7506 15.7456 34.4181 15.5773 35.0961 15.5778C36.0039 15.5789 36.8854 15.8828 37.6011 16.4413C38.3168 16.9999 38.8257 17.7811 39.0475 18.6615C39.2692 19.5418 39.191 20.4709 38.8252 21.3018C38.4594 22.1327 37.827 22.8179 37.028 23.2489C36.2291 23.6799 35.3091 23.8322 34.4139 23.6816C33.5187 23.5309 32.6992 23.0861 32.0852 22.4173C31.4713 21.7486 31.0979 20.8942 31.0241 19.9894ZM38.7727 34.4848C38.4458 33.8366 37.9519 33.2873 37.3419 32.8936C36.7319 32.5 36.0279 32.2762 35.3025 32.2455C34.5772 32.2147 33.8568 32.378 33.2156 32.7186C32.5744 33.0592 32.0357 33.5646 31.6551 34.1828C31.2745 34.8011 31.0657 35.5097 31.0503 36.2355C31.0349 36.9613 31.2135 37.6781 31.5676 38.3119C31.9216 38.9457 32.4384 39.4736 33.0646 39.841C33.6907 40.2084 34.4036 40.4022 35.1296 40.4022C35.7682 40.3978 36.3971 40.2451 36.9668 39.9562C37.9302 39.4685 38.6612 38.619 38.9997 37.5935C39.3382 36.568 39.2566 35.4502 38.7727 34.4848ZM44.5669 33.806C45.0414 33.8021 45.5064 33.939 45.903 34.1994C46.434 34.5494 46.8046 35.0955 46.9337 35.7182C47.0629 36.3408 46.94 36.9893 46.592 37.5215C46.3316 37.9182 45.9594 38.2287 45.5225 38.4138C45.0857 38.599 44.6037 38.6504 44.1376 38.5616C43.6715 38.4728 43.2422 38.2478 42.9039 37.9151C42.5657 37.5823 42.3338 37.1567 42.2374 36.6921C42.1411 36.2275 42.1846 35.7448 42.3626 35.3049C42.5406 34.8651 42.8451 34.4879 43.2374 34.2211C43.6298 33.9543 44.0925 33.8098 44.5669 33.806ZM53.7156 28.0702C53.7383 27.6679 53.6412 27.2679 53.4366 26.9207C53.232 26.5736 52.9291 26.2949 52.5661 26.1199C52.2032 25.9448 51.7965 25.8813 51.3974 25.9374C50.9984 25.9935 50.6249 26.1666 50.3242 26.4348C50.0236 26.7031 49.8092 27.0545 49.7082 27.4446C49.6071 27.8347 49.624 28.246 49.7567 28.6265C49.8894 29.0069 50.1319 29.3396 50.4536 29.5822C50.7753 29.8249 51.1617 29.9668 51.564 29.9899C52.1038 30.0204 52.6336 29.8353 53.037 29.4753C53.4405 29.1154 53.6845 28.61 53.7156 28.0702ZM58.6162 26.7987C58.8413 26.6664 59.1005 26.6038 59.3611 26.6188C59.7104 26.6395 60.0372 26.7977 60.27 27.0589C60.5028 27.3201 60.6225 27.6629 60.603 28.0123C60.588 28.2729 60.4961 28.5232 60.3388 28.7316C60.1816 28.94 59.9661 29.0971 59.7195 29.1829C59.473 29.2688 59.2066 29.2797 58.9539 29.2141C58.7012 29.1486 58.4736 29.0096 58.2999 28.8147C58.1262 28.6198 58.0142 28.3778 57.9781 28.1192C57.9419 27.8607 57.9833 27.5972 58.0969 27.3622C58.2105 27.1271 58.3912 26.931 58.6162 26.7987ZM54.0456 39.7065C53.7679 39.5246 53.4424 39.4291 53.1104 39.4322C52.7785 39.4352 52.4548 39.5365 52.1805 39.7235C51.9061 39.9104 51.6933 40.1745 51.569 40.4823C51.4446 40.7901 51.4144 41.1279 51.482 41.453C51.5496 41.778 51.7121 42.0757 51.9489 42.3084C52.1857 42.5411 52.4861 42.6984 52.8123 42.7604C53.1385 42.8223 53.4757 42.7862 53.7813 42.6566C54.0869 42.5269 54.3473 42.3096 54.5294 42.032C54.6504 41.8476 54.7339 41.6411 54.7751 41.4244C54.8163 41.2077 54.8143 40.985 54.7694 40.769C54.7245 40.553 54.6374 40.348 54.5132 40.1657C54.389 39.9834 54.2301 39.8274 54.0456 39.7065ZM15.8533 51.8132C16.1143 51.8111 16.3701 51.8863 16.5883 52.0295C16.7333 52.1247 16.8581 52.2474 16.9556 52.3908C17.0531 52.5342 17.1214 52.6954 17.1566 52.8652C17.1918 53.0349 17.1932 53.21 17.1607 53.3803C17.1283 53.5506 17.0625 53.7129 16.9673 53.8578C16.824 54.076 16.6192 54.2467 16.3789 54.3485C16.1385 54.4503 15.8734 54.4786 15.617 54.4297C15.3605 54.3808 15.1244 54.257 14.9383 54.0739C14.7523 53.8908 14.6247 53.6566 14.5717 53.401C14.5187 53.1454 14.5427 52.8799 14.6406 52.6379C14.7386 52.396 14.906 52.1885 15.1219 52.0417C15.3377 51.8949 15.5922 51.8154 15.8533 51.8132ZM44.2532 51.8913C44.0201 52.0088 43.827 52.1928 43.6985 52.4201C43.5699 52.6473 43.5116 52.9076 43.531 53.1679C43.5504 53.4283 43.6465 53.677 43.8073 53.8827C43.968 54.0885 44.1862 54.2419 44.4341 54.3236C44.6821 54.4053 44.9487 54.4117 45.2003 54.3418C45.4519 54.272 45.6771 54.1291 45.8474 53.9313C46.0178 53.7335 46.1257 53.4896 46.1574 53.2304C46.1892 52.9713 46.1433 52.7086 46.0257 52.4755C45.9479 52.3205 45.8403 52.1825 45.709 52.0693C45.5777 51.956 45.4254 51.8698 45.2607 51.8155C45.096 51.7612 44.9223 51.74 44.7494 51.753C44.5765 51.766 44.4079 51.813 44.2532 51.8913ZM29.5763 36.0037C29.6501 36.9086 29.42 37.8123 28.9224 38.5717C28.5523 39.1398 28.0458 39.6062 27.4491 39.9283C26.8525 40.2503 26.1847 40.4179 25.5066 40.4156C24.5987 40.4149 23.7169 40.1114 23.0009 39.5532C22.2849 38.9949 21.7755 38.2138 21.5534 37.3335C21.3313 36.4531 21.4092 35.5239 21.7747 34.6928C22.1402 33.8617 22.7725 33.1762 23.5714 32.7449C24.3704 32.3137 25.2904 32.1612 26.1857 32.3116C27.0811 32.4621 27.9007 32.9068 28.5148 33.5756C29.129 34.2443 29.5025 35.0987 29.5763 36.0037ZM20.7687 44.8346C20.4315 44.614 20.0364 44.4983 19.6335 44.5022C19.2305 44.5061 18.8378 44.6293 18.5048 44.8564C18.1719 45.0834 17.9138 45.404 17.7631 45.7778C17.6124 46.1515 17.5758 46.5615 17.6581 46.956C17.7404 47.3504 17.9377 47.7117 18.2252 47.994C18.5128 48.2763 18.8775 48.4671 19.2734 48.5422C19.6694 48.6172 20.0786 48.5732 20.4495 48.4157C20.8205 48.2582 21.1363 47.9943 21.3573 47.6573C21.6532 47.2048 21.7574 46.6534 21.6471 46.1241C21.5367 45.5949 21.2208 45.1311 20.7687 44.8346ZM29.3355 52.8744C29.6216 52.7059 29.9512 52.6261 30.2827 52.6449C30.5029 52.6575 30.7185 52.7132 30.9171 52.8091C31.1157 52.905 31.2935 53.0391 31.4403 53.2037C31.5871 53.3683 31.7001 53.5602 31.7727 53.7685C31.8453 53.9767 31.8761 54.1973 31.8635 54.4175C31.8444 54.7489 31.7275 55.0673 31.5275 55.3323C31.3276 55.5974 31.0535 55.7972 30.74 55.9064C30.4265 56.0157 30.0876 56.0296 29.7662 55.9463C29.4448 55.8631 29.1553 55.6864 28.9343 55.4386C28.7134 55.1908 28.5708 54.883 28.5247 54.5542C28.4786 54.2254 28.531 53.8904 28.6753 53.5914C28.8197 53.2924 29.0494 53.0429 29.3355 52.8744ZM30.3005 42.0811C29.8265 42.0523 29.3546 42.1648 28.9446 42.4044C28.5346 42.644 28.2049 42.9999 27.9973 43.427C27.7897 43.8541 27.7136 44.3333 27.7785 44.8037C27.8434 45.2741 28.0465 45.7147 28.362 46.0696C28.6775 46.4246 29.0913 46.6779 29.5509 46.7974C30.0105 46.917 30.4952 46.8975 30.9437 46.7414C31.3922 46.5853 31.7843 46.2995 32.0703 45.9204C32.3563 45.5413 32.5233 45.0858 32.5502 44.6117C32.5868 43.9779 32.3704 43.3556 31.9487 42.8811C31.5269 42.4067 30.9342 42.119 30.3005 42.0811ZM39.2574 45.4918C39.4551 45.1399 39.7528 44.8545 40.1128 44.6718C40.3513 44.5502 40.6113 44.4768 40.8782 44.4558C41.145 44.4348 41.4134 44.4666 41.6679 44.5495C41.9224 44.6323 42.1581 44.7645 42.3615 44.9386C42.5648 45.1126 42.7319 45.325 42.853 45.5637C43.0366 45.9233 43.1093 46.3292 43.062 46.7301C43.0147 47.131 42.8495 47.5089 42.5874 47.8159C42.3252 48.1229 41.9779 48.3452 41.5893 48.4547C41.2008 48.5642 40.7884 48.556 40.4046 48.4311C40.0207 48.3061 39.6825 48.0701 39.4328 47.7529C39.1832 47.4356 39.0332 47.0515 39.002 46.649C38.9707 46.2465 39.0596 45.8438 39.2574 45.4918Z" fill="url(#paint0_linear_553_5828)"/>
<defs>
<linearGradient id="paint0_linear_553_5828" x1="0" y1="0" x2="69.6525" y2="14.8856" gradientUnits="userSpaceOnUse">
<stop stop-color="#0033AD"/>
<stop offset="1" stop-color="#5C8DFF"/>
</linearGradient>
</defs>
</svg>
