<svg xmlns="http://www.w3.org/2000/svg" width="600" height="70" viewBox="0 0 600 70" fill="none">
<g clip-path="url(#clip0_681_8959)">
<path fill-rule="evenodd" clip-rule="evenodd" d="M483.827 51.259C480.529 51.259 477.681 50.6518 475.283 49.4379C472.919 48.1926 471.097 46.3405 469.821 43.8812C468.543 41.4222 467.906 38.3558 467.906 34.6826C467.906 30.9783 468.543 27.9122 469.821 25.484C471.097 23.0249 472.919 21.1882 475.283 19.9742C477.681 18.7291 480.529 18.1064 483.827 18.1064C487.16 18.1064 490.008 18.7291 492.373 19.9742C494.77 21.1882 496.592 23.0249 497.835 25.484C499.113 27.9122 499.75 30.9783 499.75 34.6826C499.75 38.3558 499.113 41.4222 497.835 43.8812C496.592 46.3405 494.77 48.1926 492.373 49.4379C490.008 50.6518 487.16 51.259 483.827 51.259ZM483.827 48.0837C485.665 48.0837 487.33 47.8502 488.825 47.3833C490.318 46.8853 491.593 46.107 492.652 45.0486C493.711 43.9901 494.521 42.6516 495.08 41.0329C495.673 39.4143 495.969 37.4686 495.969 35.1962V34.2156C495.969 31.9122 495.673 29.9512 495.08 28.3322C494.521 26.7136 493.711 25.3751 492.652 24.3167C491.593 23.2583 490.318 22.4956 488.825 22.0287C487.33 21.5306 485.665 21.2816 483.827 21.2816C481.991 21.2816 480.326 21.5306 478.831 22.0287C477.369 22.4956 476.109 23.2583 475.05 24.3167C473.991 25.3751 473.166 26.7136 472.576 28.3322C472.013 29.9512 471.733 31.9122 471.733 34.2156V35.1962C471.733 37.4686 472.013 39.4143 472.576 41.0329C473.166 42.6516 473.991 43.9901 475.05 45.0486C476.109 46.107 477.369 46.8853 478.831 47.3833C480.326 47.8502 481.991 48.0837 483.827 48.0837ZM352.535 18.667V50.6987H377.331V47.5237H356.225V35.8968H374.996V32.6751H356.225V21.8422H377.048V18.667H352.535ZM393.47 33.9357L380.537 50.6987H384.927L395.618 36.6908H395.851L406.545 50.6987H411.075L398.139 33.8891L409.673 18.667H405.33L395.994 31.1341H395.758L386.233 18.667H381.703L393.47 33.9357ZM415.826 50.6987V18.667H431.513C433.695 18.667 435.483 19.0872 436.885 19.9277C438.317 20.7371 439.374 21.8577 440.059 23.2897C440.775 24.7216 441.135 26.3559 441.135 28.1925C441.135 30.0913 440.729 31.7879 439.919 33.282C439.11 34.7763 437.991 35.9437 436.559 36.784C435.127 37.5934 433.475 37.998 431.607 37.998H419.513V50.6987H415.826ZM419.513 34.823H431.327C433.132 34.823 434.597 34.2471 435.716 33.0954C436.839 31.9124 437.398 30.2938 437.398 28.2392C437.398 26.9006 437.165 25.7644 436.699 24.8305C436.262 23.8655 435.593 23.134 434.69 22.6359C433.788 22.1067 432.666 21.8422 431.327 21.8422H419.513V34.823ZM446.787 18.667V50.6987H466.307V47.477H450.477V18.667H446.787ZM506.568 18.667V50.6987H510.258V37.5311H523.474L529.869 50.6987H533.932L527.114 36.8776C528.826 36.2238 530.195 35.1187 531.224 33.5624C532.283 31.9747 532.81 30.0447 532.81 27.7722C532.81 26.029 532.453 24.4726 531.737 23.1029C531.051 21.7332 530.009 20.6593 528.61 19.881C527.238 19.0717 525.496 18.667 523.378 18.667H506.568ZM523.005 34.356H510.258V21.8422H523.005C524.343 21.8422 525.465 22.0912 526.368 22.5892C527.271 23.0562 527.954 23.7255 528.423 24.5971C528.889 25.4687 529.123 26.5271 529.123 27.7722C529.123 29.8268 528.577 31.4455 527.487 32.6285C526.398 33.7802 524.903 34.356 523.005 34.356ZM540.768 50.6987V18.667H565.281V21.8422H544.458V32.6751H563.228V35.8968H544.458V47.5237H565.563V50.6987H540.768ZM572.461 18.667V50.6987H576.148V37.5311H589.364L595.759 50.6987H599.822L593.004 36.8776C594.716 36.2238 596.088 35.1187 597.114 33.5624C598.173 31.9747 598.702 30.0447 598.702 27.7722C598.702 26.029 598.343 24.4726 597.627 23.1029C596.944 21.7332 595.898 20.6593 594.499 19.881C593.13 19.0717 591.385 18.667 589.27 18.667H572.461ZM588.897 34.356H576.148V21.8422H588.897C590.233 21.8422 591.355 22.0912 592.258 22.5892C593.161 23.0562 593.846 23.7255 594.313 24.5971C594.779 25.4687 595.012 26.5271 595.012 27.7722C595.012 29.8268 594.469 31.4455 593.377 32.6285C592.288 33.7802 590.796 34.356 588.897 34.356Z" fill="url(#paint0_linear_681_8959)"/>
<path fill-rule="evenodd" clip-rule="evenodd" d="M37.0949 4.12834C37.5028 4.15158 37.9086 4.05328 38.2609 3.8459C38.6128 3.63852 38.8957 3.33136 39.0732 2.96329C39.2507 2.5952 39.3149 2.18274 39.2581 1.77807C39.201 1.3734 39.0255 0.9947 38.7533 0.689882C38.4812 0.385065 38.1248 0.167821 37.7289 0.0656321C37.3333 -0.0365569 36.9163 -0.0190995 36.5305 0.115796C36.1448 0.250691 35.8076 0.496963 35.5618 0.82346C35.316 1.14996 35.1728 1.54201 35.1497 1.95002C35.119 2.49677 35.3067 3.03333 35.6716 3.44181C36.0362 3.85026 36.5481 4.0972 37.0949 4.12834ZM55.0646 5.15154C54.7431 5.15443 54.4281 5.06194 54.1596 4.88581C53.7996 4.64987 53.548 4.28071 53.46 3.85942C53.3722 3.43813 53.455 2.99914 53.6904 2.63889C53.8663 2.36992 54.1179 2.15915 54.4133 2.03323C54.7091 1.90731 55.0353 1.87191 55.3511 1.93149C55.6668 1.99109 55.9579 2.14299 56.1873 2.36799C56.4166 2.593 56.5741 2.88098 56.6397 3.19552C56.7055 3.51004 56.6764 3.837 56.5563 4.13497C56.4358 4.43297 56.2301 4.68861 55.9645 4.86957C55.6989 5.05053 55.3859 5.14866 55.0646 5.15154ZM20.1161 5.05524C20.4011 4.90885 20.6365 4.68139 20.7926 4.40152C20.9487 4.12163 21.0185 3.80183 20.9932 3.48237C20.9679 3.1629 20.8487 2.85804 20.6506 2.60619C20.4524 2.35434 20.1842 2.16673 19.8796 2.06699C19.5751 1.96725 19.2478 1.95984 18.9391 2.04568C18.6303 2.13152 18.3539 2.30679 18.1445 2.54941C17.9352 2.79203 17.8023 3.09115 17.7625 3.40915C17.7228 3.72715 17.778 4.04978 17.9213 4.33645C18.0176 4.52833 18.1509 4.69925 18.3136 4.83938C18.4762 4.97949 18.665 5.08602 18.869 5.15285C19.073 5.21966 19.2883 5.24545 19.5023 5.22868C19.7163 5.21195 19.9249 5.15299 20.1161 5.05524ZM21.6993 37.8281C20.8124 36.8322 20.3572 35.5249 20.4336 34.1935L20.4199 34.1963C20.4762 33.2177 20.8178 32.2766 21.4027 31.4895C21.9875 30.7027 22.79 30.1044 23.7111 29.768C24.6321 29.4319 25.6314 29.3729 26.5857 29.5982C27.5399 29.8234 28.4074 30.3233 29.0809 31.0358C29.7544 31.7483 30.2044 32.6424 30.3756 33.6078C30.5468 34.5732 30.4315 35.5677 30.0441 36.4684C29.6568 37.3691 29.0142 38.1365 28.1956 38.6761C27.3769 39.2157 26.4182 39.5041 25.4378 39.5049H25.1634C23.8321 39.4273 22.5861 38.8242 21.6993 37.8281ZM0.797608 33.1437C1.07373 32.9808 1.39193 32.9034 1.71201 32.9215C1.92493 32.9331 2.13347 32.9865 2.32565 33.0787C2.51782 33.1712 2.68985 33.3007 2.83185 33.4598C2.97385 33.6189 3.08302 33.8044 3.15309 34.0058C3.22315 34.2071 3.25273 34.4206 3.24014 34.6335C3.22173 34.9534 3.10886 35.2609 2.9158 35.5166C2.72274 35.7726 2.45815 35.9657 2.15546 36.071C1.85277 36.1767 1.52557 36.1904 1.21522 36.11C0.904861 36.0296 0.625278 35.8593 0.4118 35.62C0.198321 35.3808 0.0605281 35.0837 0.0158353 34.7662C-0.0288574 34.4488 0.0215559 34.1254 0.160704 33.8365C0.299852 33.5476 0.52149 33.3067 0.797608 33.1437ZM26.2625 12.9342C26.0185 13.3659 25.6519 13.7154 25.2092 13.9388C24.915 14.0871 24.5945 14.1761 24.266 14.2006C23.9374 14.225 23.6073 14.1845 23.2944 14.0813C22.9816 13.9781 22.6921 13.8143 22.4425 13.5992C22.193 13.3841 21.9883 13.1219 21.8402 12.8277C21.6171 12.3848 21.5305 11.8857 21.5911 11.3935C21.6517 10.9014 21.8568 10.4383 22.1805 10.0627C22.5043 9.68709 22.9322 9.41595 23.41 9.28349C23.8879 9.15104 24.3943 9.16324 24.8652 9.31855C25.3361 9.47386 25.7504 9.7653 26.0557 10.1561C26.361 10.5468 26.5436 11.0193 26.5804 11.5138C26.6173 12.0083 26.5066 12.5026 26.2625 12.9342ZM8.06554 20.0488C8.40702 20.2733 8.80746 20.3916 9.21616 20.3885C9.62486 20.3854 10.0235 20.2612 10.3615 20.0315C10.6996 19.8018 10.9619 19.477 11.1154 19.0982C11.2688 18.7194 11.3064 18.3036 11.2235 17.9034C11.1405 17.5032 10.9407 17.1365 10.6493 16.8499C10.3579 16.5633 9.98812 16.3696 9.58661 16.2932C9.1851 16.2168 8.76996 16.2613 8.39372 16.4209C8.01748 16.5806 7.69704 16.8482 7.47295 17.19C7.17284 17.6478 7.06667 18.206 7.17778 18.742C7.28889 19.278 7.60818 19.748 8.06554 20.0488ZM9.70509 32.3511C10.1323 32.0993 10.6245 31.9799 11.1195 32.0079C11.7837 32.046 12.4056 32.3465 12.8485 32.8427C13.2914 33.339 13.5191 33.9912 13.4817 34.6554C13.4532 35.1503 13.2786 35.6257 12.98 36.0216C12.6814 36.4175 12.2721 36.7157 11.8039 36.8792C11.3358 37.0425 10.8297 37.0633 10.3497 36.939C9.8697 36.8145 9.43729 36.5508 9.1072 36.1807C8.7771 35.8109 8.5641 35.3514 8.4951 34.8603C8.4261 34.3692 8.50424 33.8688 8.71963 33.4222C8.93499 32.9755 9.27793 32.603 9.70509 32.3511ZM8.34105 48.8665C7.97646 49.0509 7.67468 49.3389 7.47386 49.6948C7.27306 50.0506 7.18223 50.4577 7.21284 50.8651C7.24346 51.2725 7.39416 51.6616 7.6459 51.9834C7.89764 52.3052 8.23913 52.545 8.62716 52.6725C9.0152 52.8004 9.43238 52.81 9.82598 52.7008C10.2196 52.5913 10.5719 52.3677 10.8384 52.0583C11.105 51.7485 11.2737 51.3669 11.3234 50.9614C11.3731 50.5559 11.3014 50.145 11.1175 49.7801C10.9952 49.5378 10.8265 49.3219 10.6207 49.1447C10.415 48.9677 10.1764 48.8328 9.91858 48.748C9.66072 48.6632 9.3887 48.63 9.118 48.6503C8.84733 48.6706 8.5833 48.7441 8.34105 48.8665ZM19.7332 27.3082C19.1494 27.3133 18.5772 27.1453 18.0889 26.8253C17.7643 26.613 17.4848 26.3388 17.2663 26.0184C17.0479 25.6979 16.8947 25.3375 16.8157 24.9578C16.7367 24.5781 16.7334 24.1866 16.8059 23.8056C16.8784 23.4246 17.0254 23.0616 17.2384 22.7375C17.5585 22.2493 18.0163 21.867 18.5537 21.6389C19.0911 21.4108 19.6841 21.3472 20.2576 21.4561C20.8312 21.565 21.3596 21.8416 21.776 22.2508C22.1924 22.6599 22.4781 23.1834 22.597 23.755C22.716 24.3266 22.6627 24.9206 22.4441 25.4619C22.2254 26.0032 21.8512 26.4675 21.3687 26.7962C20.8861 27.1248 20.317 27.303 19.7332 27.3082ZM49.0129 13.7418C49.4285 14.0129 49.9155 14.1548 50.4118 14.1494C50.9081 14.1439 51.3918 13.9914 51.8014 13.7112C52.2112 13.431 52.5287 13.0356 52.7136 12.5749C52.8988 12.1143 52.9429 11.6092 52.8411 11.1234C52.7391 10.6376 52.4955 10.193 52.1407 9.84567C51.786 9.49838 51.3363 9.264 50.8485 9.1722C50.3608 9.08041 49.8568 9.1353 49.4 9.32995C48.9435 9.5246 48.5547 9.85026 48.2831 10.2658C48.1023 10.5417 47.9778 10.8507 47.9166 11.1749C47.8554 11.4992 47.8587 11.8323 47.9265 12.1552C47.9942 12.4781 48.1251 12.7845 48.3117 13.0568C48.4979 13.329 48.7363 13.5618 49.0129 13.7418ZM49.4077 29.4155C48.7493 29.3776 48.0898 29.4698 47.467 29.6868C46.8442 29.9038 46.2703 30.2413 45.7781 30.6803C44.7836 31.5664 44.1822 32.8114 44.106 34.1412C44.0294 35.4707 44.4843 36.7763 45.3707 37.7708C46.2569 38.765 47.5019 39.3664 48.8316 39.4429H49.1224C50.0909 39.4424 51.0387 39.1617 51.8516 38.6347C52.6643 38.1077 53.3071 37.3568 53.7027 36.4726C54.0983 35.5883 54.2297 34.6084 54.081 33.6514C53.932 32.6942 53.5095 31.8004 52.8645 31.0781C52.4275 30.5853 51.8966 30.1845 51.3032 29.8989C50.7098 29.6136 50.0654 29.4493 49.4077 29.4155ZM28.7089 28.4976C27.9158 28.0096 27.2749 27.3098 26.8581 26.4771C26.4748 25.7119 26.2934 24.8615 26.331 24.0065C26.3687 23.1515 26.6242 22.3202 27.0732 21.5917C27.5223 20.8631 28.1501 20.2614 28.8968 19.8436C29.6439 19.4257 30.485 19.2056 31.341 19.2042C32.2699 19.1997 33.1819 19.454 33.9747 19.9385C34.7673 20.4231 35.4096 21.1188 35.8293 21.9476C36.217 22.7135 36.4019 23.5661 36.3665 24.4238C36.3311 25.2816 36.0765 26.1159 35.6269 26.8472C35.1772 27.5786 34.5479 28.1824 33.7983 28.6013C33.0491 29.0203 32.2049 29.24 31.3465 29.2397C30.4153 29.2428 29.5018 28.9857 28.7089 28.4976ZM66.2271 20.043C66.5917 19.8589 66.8937 19.571 67.0946 19.2154C67.2957 18.8599 67.3867 18.4527 67.3566 18.0453C67.3261 17.638 67.1758 17.2488 66.9245 16.9269C66.6729 16.605 66.3316 16.3649 65.9439 16.2369C65.556 16.1089 65.1387 16.0987 64.745 16.2077C64.3516 16.3167 63.9991 16.5399 63.7321 16.8492C63.4655 17.1584 63.2962 17.5399 63.246 17.9452C63.1961 18.3506 63.2671 18.7617 63.4507 19.1267C63.6976 19.6161 64.1286 19.9875 64.6493 20.1593C65.1697 20.3312 65.7374 20.2893 66.2271 20.043ZM52.2542 22.8247C52.542 22.3166 52.9738 21.9052 53.4951 21.6426C53.8413 21.4679 54.2185 21.3631 54.6054 21.3343C54.9919 21.3055 55.3804 21.3533 55.7488 21.4748C56.117 21.5964 56.4575 21.7893 56.751 22.0427C57.0446 22.296 57.2855 22.6048 57.4594 22.9512C57.7222 23.4727 57.8243 24.0603 57.7529 24.6398C57.6816 25.2193 57.4399 25.7646 57.0586 26.2067C56.6775 26.6489 56.1735 26.9681 55.6111 27.124C55.0484 27.2798 54.452 27.2653 53.8975 27.0823C53.3433 26.8993 52.8556 26.556 52.4962 26.0958C52.137 25.6356 51.9222 25.0792 51.8792 24.4969C51.8361 23.9147 51.9664 23.3327 52.2542 22.8247ZM38.7365 16.7252C38.2339 17.0217 37.6545 17.1625 37.0718 17.1298C36.2896 17.0852 35.5571 16.7319 35.0355 16.1475C34.5137 15.563 34.2457 14.7954 34.2899 14.0132C34.3233 13.4305 34.5288 12.8708 34.8803 12.4048C35.2317 11.9388 35.7135 11.5875 36.2646 11.3952C36.8155 11.203 37.4114 11.1784 37.9766 11.3246C38.5414 11.4708 39.0506 11.7813 39.4391 12.2167C39.8279 12.6521 40.0789 13.193 40.1601 13.771C40.2416 14.349 40.1497 14.9381 39.8962 15.4639C39.643 15.9897 39.2394 16.4286 38.7365 16.7252ZM21.0778 47.2647C21.5992 47.0019 22.0309 46.5903 22.3184 46.082C22.6058 45.5739 22.7361 44.9917 22.6927 44.4095C22.6493 43.8271 22.4342 43.2707 22.0746 42.8106C21.715 42.3508 21.2271 42.0076 20.6725 41.8249C20.1179 41.6422 19.5216 41.6282 18.959 41.7846C18.3964 41.9407 17.8927 42.2603 17.5117 42.7028C17.1308 43.1453 16.8896 43.6907 16.8187 44.2704C16.7478 44.8499 16.8504 45.4375 17.1135 45.9588C17.4661 46.6575 18.0818 47.1876 18.8252 47.4326C19.5687 47.6776 20.3789 47.6169 21.0778 47.2647ZM38.1747 24.5964C38.0842 23.483 38.3673 22.3712 38.9794 21.4368C39.4373 20.7393 40.0612 20.1667 40.7956 19.7706C41.5297 19.3745 42.3511 19.1674 43.1852 19.168C44.3023 19.1694 45.3871 19.5433 46.2677 20.2306C47.1484 20.9178 47.7745 21.8792 48.0474 22.9624C48.3201 24.0456 48.2238 25.1889 47.7739 26.2113C47.3237 27.2337 46.5457 28.0768 45.5627 28.6071C44.5794 29.1375 43.4474 29.3248 42.3459 29.1397C41.2444 28.9542 40.2359 28.4069 39.4806 27.5838C38.7251 26.7611 38.2655 25.7098 38.1747 24.5964ZM47.7085 42.4327C47.3061 41.6351 46.6984 40.9591 45.9478 40.4749C45.1971 39.9904 44.331 39.7152 43.4383 39.6774C42.5458 39.6395 41.6594 39.8403 40.8704 40.2595C40.0816 40.6785 39.4188 41.3004 38.9502 42.0612C38.4819 42.8219 38.2251 43.6938 38.2062 44.5868C38.1873 45.4801 38.407 46.3621 38.8427 47.1418C39.2784 47.9218 39.9143 48.5715 40.6847 49.0236C41.455 49.4757 42.3321 49.7139 43.2257 49.7139C44.0114 49.7086 44.7854 49.5207 45.4863 49.1652C46.6718 48.5652 47.5714 47.5199 47.9878 46.2579C48.4043 44.9962 48.3039 43.6206 47.7085 42.4327ZM54.8381 41.5978C55.4219 41.5931 55.9942 41.7615 56.4822 42.082C57.1354 42.5127 57.5914 43.1846 57.7505 43.9508C57.9094 44.7168 57.7582 45.5149 57.33 46.1698C57.0095 46.6578 56.5516 47.04 56.0139 47.2677C55.4765 47.4957 54.8833 47.5588 54.3099 47.4496C53.7363 47.3404 53.2081 47.0636 52.792 46.654C52.3758 46.2447 52.0902 45.7209 51.9717 45.1492C51.8531 44.5774 51.9066 43.9835 52.1258 43.4422C52.3448 42.9012 52.7195 42.437 53.2021 42.1086C53.685 41.7805 54.2542 41.6027 54.8381 41.5978ZM66.0952 34.5404C66.1231 34.0454 66.0035 33.5533 65.752 33.1261C65.5001 32.6987 65.1273 32.3557 64.6806 32.1404C64.234 31.925 63.7336 31.8471 63.2428 31.916C62.7517 31.9851 62.2921 32.198 61.922 32.528C61.5522 32.8581 61.2883 33.2904 61.164 33.7705C61.0397 34.2507 61.0606 34.7566 61.2238 35.2249C61.3871 35.6929 61.6856 36.1022 62.0814 36.401C62.4771 36.6995 62.9525 36.874 63.4477 36.9025C64.1119 36.9401 64.7637 36.7121 65.2603 36.2693C65.7566 35.8265 66.057 35.2046 66.0952 34.5404ZM72.1253 32.9751C72.4021 32.8121 72.7212 32.7351 73.0419 32.7537C73.4715 32.7792 73.8737 32.9737 74.1601 33.2953C74.4465 33.6165 74.5939 34.0385 74.57 34.4684C74.5516 34.7891 74.4383 35.0969 74.2449 35.3534C74.0515 35.61 73.7862 35.8031 73.4828 35.9087C73.1793 36.0146 72.8515 36.0278 72.5406 35.9471C72.2298 35.8665 71.9497 35.6955 71.736 35.4558C71.5223 35.216 71.3845 34.918 71.3398 34.5998C71.2954 34.2818 71.3464 33.9576 71.4861 33.6684C71.626 33.3792 71.8482 33.1378 72.1253 32.9751ZM66.5024 48.858C66.1606 48.6342 65.7603 48.5168 65.3518 48.5206C64.9433 48.5242 64.545 48.649 64.2075 48.8789C63.8698 49.1091 63.6081 49.4339 63.455 49.8128C63.3019 50.1914 63.2649 50.607 63.348 51.007C63.4311 51.407 63.6311 51.7733 63.9225 52.0597C64.2138 52.3461 64.5837 52.5395 64.9847 52.6158C65.3861 52.6921 65.8012 52.6476 66.1773 52.4882C66.5532 52.3286 66.8736 52.0611 67.0978 51.7195C67.2468 51.4926 67.3494 51.2386 67.4001 50.9719C67.4506 50.7052 67.4484 50.4312 67.393 50.1656C67.3378 49.8997 67.2306 49.6476 67.0778 49.4232C66.9249 49.1988 66.7296 49.0067 66.5024 48.858ZM19.5072 63.7549C19.8284 63.7522 20.1431 63.8449 20.4117 64.0211C20.5901 64.1382 20.7436 64.2891 20.8636 64.4655C20.9836 64.6422 21.0676 64.8403 21.111 65.0493C21.1543 65.2581 21.156 65.4737 21.116 65.6831C21.0761 65.8927 20.9952 66.0924 20.878 66.2707C20.7017 66.5393 20.4497 66.7495 20.154 66.8746C19.8582 66.9999 19.5319 67.0345 19.2164 66.9744C18.9009 66.9143 18.6103 66.7618 18.3814 66.5366C18.1525 66.3113 17.9955 66.0233 17.9303 65.7086C17.8651 65.3942 17.8946 65.0674 18.0151 64.7698C18.1356 64.4721 18.3417 64.2167 18.6073 64.0361C18.8728 63.8554 19.186 63.7577 19.5072 63.7549ZM54.4517 63.8517C54.1647 63.9962 53.9274 64.2226 53.7691 64.5021C53.6108 64.7817 53.5392 65.1019 53.5631 65.4223C53.587 65.7427 53.7052 66.0489 53.903 66.3019C54.1008 66.5551 54.3694 66.7438 54.6745 66.8445C54.9795 66.9449 55.3077 66.9529 55.6171 66.8667C55.9266 66.7809 56.2037 66.605 56.4133 66.3617C56.6232 66.1183 56.7557 65.8182 56.7949 65.4994C56.8339 65.1803 56.7776 64.8571 56.6328 64.5704C56.537 64.3798 56.4045 64.21 56.2429 64.0706C56.0816 63.9312 55.8939 63.825 55.6915 63.7584C55.4887 63.6914 55.275 63.6654 55.0624 63.6813C54.8495 63.6975 54.6421 63.7551 54.4517 63.8517ZM36.3938 44.3018C36.4846 45.4154 36.2014 46.5274 35.5891 47.4618C35.1337 48.1608 34.5104 48.7348 33.7762 49.1309C33.042 49.5274 32.2204 49.7334 31.3861 49.7306C30.2689 49.7298 29.1839 49.3564 28.3027 48.6695C27.4217 47.9825 26.795 47.0215 26.5217 45.9383C26.2484 44.8549 26.3442 43.7114 26.794 42.6889C27.2437 41.6662 28.0217 40.8228 29.0047 40.292C29.988 39.7614 31.12 39.5737 32.2217 39.7589C33.3235 39.9441 34.332 40.4914 35.0876 41.3142C35.8431 42.137 36.303 43.1885 36.3938 44.3018ZM25.5561 55.168C25.1411 54.8966 24.6551 54.7542 24.1592 54.7589C23.6634 54.7636 23.1802 54.9153 22.7705 55.1948C22.3609 55.4741 22.0432 55.8686 21.8578 56.3284C21.6723 56.7883 21.6274 57.2928 21.7286 57.7784C21.8298 58.2637 22.0727 58.7081 22.4265 59.0555C22.7802 59.4031 23.2291 59.6376 23.7163 59.7301C24.2034 59.8223 24.707 59.7682 25.1634 59.5745C25.6198 59.3806 26.0085 59.0557 26.2804 58.6412C26.6445 58.0846 26.7727 57.4058 26.6369 56.7548C26.5011 56.1035 26.1124 55.5328 25.5561 55.168ZM36.0959 65.0611C36.4479 64.8537 36.8534 64.7554 37.2614 64.7788C37.5324 64.7941 37.7975 64.8627 38.0419 64.9807C38.2863 65.0986 38.5053 65.2635 38.6858 65.4663C38.8663 65.6687 39.0054 65.905 39.0948 66.1612C39.184 66.4174 39.2221 66.6888 39.2065 66.9598C39.1829 67.3675 39.0392 67.7593 38.7931 68.0855C38.547 68.4117 38.2098 68.6575 37.8241 68.7919C37.4383 68.9264 37.0213 68.9434 36.6257 68.841C36.2304 68.7384 35.8743 68.5211 35.6021 68.2161C35.3302 67.9113 35.1549 67.5327 35.0981 67.128C35.0414 66.7233 35.1061 66.3113 35.2836 65.9431C35.4611 65.5752 35.7437 65.2682 36.0959 65.0611ZM37.2834 51.7799C36.7002 51.7442 36.1194 51.8828 35.6149 52.1777C35.1103 52.4724 34.7048 52.9105 34.4494 53.4359C34.194 53.9615 34.1002 54.5511 34.18 55.13C34.2601 55.7089 34.5098 56.251 34.8983 56.6877C35.2865 57.1245 35.7954 57.4361 36.3611 57.5832C36.9265 57.7303 37.523 57.7064 38.0749 57.5143C38.6267 57.322 39.1092 56.9706 39.461 56.5039C39.8129 56.0375 40.0184 55.477 40.0516 54.8938C40.0966 54.1138 39.8305 53.3481 39.3114 52.7643C38.7924 52.1805 38.0631 51.8265 37.2834 51.7799ZM48.306 55.9769C48.5494 55.544 48.9159 55.1928 49.3587 54.9681C49.6523 54.8183 49.9721 54.7281 50.3005 54.702C50.6289 54.6762 50.959 54.7155 51.2723 54.8175C51.5853 54.9193 51.8753 55.082 52.1255 55.2963C52.376 55.5103 52.5815 55.7717 52.7304 56.0655C52.9562 56.5078 53.0457 57.0074 52.9875 57.5007C52.9293 57.9939 52.7261 58.459 52.4037 58.8367C52.0811 59.2145 51.6536 59.488 51.1754 59.6227C50.6975 59.7574 50.19 59.7473 49.7178 59.5937C49.2454 59.44 48.8292 59.1495 48.5219 58.7591C48.2147 58.3687 48.0303 57.896 47.9919 57.4008C47.9535 56.9056 48.0627 56.4101 48.306 55.9769Z" fill="#24262E"/>
<path fill-rule="evenodd" clip-rule="evenodd" d="M104.76 22.5921C109.622 22.5921 113.026 25.2642 113.026 30.2245H119.394C119.394 21.5221 112.977 17.3301 104.664 17.3301C94.4529 17.3301 88.5215 22.8747 88.5215 34.5921C88.5215 46.6003 94.4529 51.8513 104.664 51.8513C113.076 51.8513 119.394 47.769 119.394 39.064H113.268C113.268 43.9254 109.912 46.6003 104.763 46.6003C98.003 46.6003 94.8864 42.8555 94.8864 35.0777V34.1065C94.8918 26.4796 98.0496 22.5921 104.76 22.5921ZM136.23 17.9229L123.248 51.2781H129.668L132.34 44.0326H147.596L150.34 51.2781H157.051L144.06 17.9229H136.23ZM134.285 38.7733L137.69 29.6293C138.146 28.4232 138.844 26.2743 139.327 24.7857C139.564 24.0563 139.749 23.4854 139.83 23.2617H140.071C140.148 23.4768 140.323 24.0176 140.546 24.7119L140.546 24.7121L140.547 24.7125L140.547 24.7131L140.547 24.7135L140.547 24.7137C141.031 26.215 141.746 28.4329 142.211 29.6293L145.613 38.7706L134.285 38.7733ZM180.876 17.9229C188.217 17.9229 191.767 21.8625 191.767 28.0353C191.767 32.5593 189.773 35.8652 185.836 37.4208L192.969 51.2781H186.162L179.852 38.3837H169.498V51.2781H163.273V17.9229H180.876ZM169.498 33.1409H180.387C183.597 33.1409 185.493 31.1985 185.493 28.0353C185.493 25.023 183.743 23.2233 180.387 23.2233H169.498V33.1409ZM213.599 17.9229H200.271V51.2781H213.594C223.657 51.2781 229.78 46.0271 229.78 34.6005C229.78 23.1739 223.662 17.9229 213.599 17.9229ZM223.421 35.0861C223.372 42.381 219.92 45.9777 213.599 45.9777H206.502V23.2233H213.599C219.909 23.2233 223.421 26.8227 223.421 34.1149V35.0861ZM233.1 51.2781L246.087 17.9229H253.909L266.891 51.2781H260.181L257.459 44.0326H242.191L239.517 51.2781H233.1ZM247.541 29.6293L244.142 38.7733L255.47 38.7706L252.068 29.6293C251.594 28.4107 250.86 26.1323 250.376 24.6309C250.165 23.9756 250.001 23.4684 249.928 23.2617H249.681C249.601 23.4854 249.416 24.056 249.179 24.7851L249.179 24.7858C248.696 26.2744 247.998 28.4233 247.541 29.6293ZM295.344 37.761C295.344 38.1361 295.378 38.8894 295.406 39.5003C295.424 39.917 295.44 40.2674 295.44 40.3865L295.199 40.4825C295.139 40.4035 294.939 40.069 294.688 39.6485C294.328 39.0462 293.863 38.2675 293.553 37.8103L279.064 17.9229H273.125V51.2781H279.106V31.2946C279.106 30.7617 279.064 29.9001 279.035 29.2924L279.035 29.2916C279.019 28.961 279.007 28.7057 279.007 28.6197L279.251 28.4743C279.3 28.5397 279.415 28.7426 279.575 29.0255L279.575 29.0257C279.892 29.5845 280.385 30.4556 280.897 31.1985L295.484 51.2781H301.317V17.9229H295.339V37.761H295.344ZM309.336 34.6001C309.336 22.8827 315.657 17.3408 326.11 17.3408C336.562 17.3408 342.933 22.8827 342.933 34.6001C342.933 46.3175 336.573 51.8593 326.11 51.8593C315.646 51.8593 309.336 46.3175 309.336 34.6001ZM326.11 46.6083C332.916 46.6083 336.562 42.7674 336.562 35.1351V34.1145C336.562 26.4794 332.87 22.5918 326.11 22.5918C319.402 22.5918 315.706 26.4794 315.706 34.1145V35.1351C315.706 42.7674 319.352 46.6083 326.11 46.6083Z" fill="#24262E"/>
</g>
<defs>
<linearGradient id="paint0_linear_681_8959" x1="352.535" y1="18.1064" x2="446.295" y2="156.211" gradientUnits="userSpaceOnUse">
<stop stop-color="#0033AD"/>
<stop offset="1" stop-color="#5C8DFF"/>
</linearGradient>
<clipPath id="clip0_681_8959">
<rect width="600" height="69.1358" fill="white"/>
</clipPath>
</defs>
</svg>
