<svg xmlns="http://www.w3.org/2000/svg" width="600" height="70" fill="none"><g fill-rule="evenodd" clip-path="url(#a)" clip-rule="evenodd"><path fill="url(#b)" d="M483.827 51.259q-4.947 0-8.544-1.821-3.547-1.868-5.462-5.557-1.916-3.689-1.915-9.198-.001-5.556 1.915-9.199 1.915-3.69 5.462-5.51 3.597-1.868 8.544-1.868 4.999 0 8.546 1.868 3.596 1.82 5.462 5.51 1.916 3.642 1.915 9.199.001 5.51-1.915 9.198-1.866 3.69-5.462 5.557-3.547 1.821-8.546 1.821m0-3.175q2.756 0 4.998-.7 2.239-.748 3.827-2.335 1.589-1.588 2.428-4.016.89-2.428.889-5.837v-.98q0-3.456-.889-5.884-.839-2.428-2.428-4.015-1.588-1.588-3.827-2.288-2.242-.747-4.998-.747-2.754 0-4.996.747a9.24 9.24 0 0 0-3.781 2.288q-1.589 1.587-2.474 4.015-.844 2.429-.843 5.884v.98q0 3.409.843 5.837.885 2.428 2.474 4.016a9.7 9.7 0 0 0 3.781 2.334q2.242.7 4.996.7M352.535 18.667v32.032h24.796v-3.175h-21.106V35.897h18.771v-3.222h-18.771V21.842h20.823v-3.175zm40.935 15.269-12.933 16.763h4.39l10.691-14.008h.233l10.694 14.008h4.53l-12.936-16.81 11.534-15.222h-4.343l-9.336 12.467h-.236l-9.525-12.467h-4.53zm22.356 16.763V18.667h15.687c2.182 0 3.97.42 5.372 1.26q2.147 1.214 3.174 3.363 1.075 2.148 1.076 4.903 0 2.848-1.216 5.089-1.213 2.242-3.36 3.502-2.149 1.215-4.952 1.214h-12.094v12.7zm3.687-15.876h11.814q2.709 0 4.389-1.728 1.683-1.774 1.682-4.856 0-2.008-.699-3.408-.655-1.448-2.009-2.195-1.354-.794-3.363-.794h-11.814zm27.274-16.156v32.032h19.52v-3.222h-15.83v-28.81zm59.781 0v32.032h3.69V37.53h13.216l6.395 13.168h4.063l-6.818-13.821q2.567-.982 4.11-3.316 1.587-2.38 1.586-5.79 0-2.615-1.073-4.67-1.029-2.054-3.127-3.221-2.057-1.214-5.232-1.214zm16.437 15.689h-12.747V21.842h12.747q2.008 0 3.363.747a4.75 4.75 0 0 1 2.055 2.008q.7 1.308.7 3.175 0 3.082-1.636 4.857-1.634 1.727-4.482 1.727m17.763 16.343V18.667h24.513v3.175h-20.823v10.833h18.77v3.222h-18.77v11.627h21.105v3.175zm31.693-32.032v32.032h3.687V37.53h13.216l6.395 13.168h4.063l-6.818-13.821q2.57-.982 4.11-3.316 1.588-2.38 1.588-5.79 0-2.615-1.075-4.67c-.683-1.369-1.729-2.443-3.128-3.221q-2.055-1.214-5.229-1.214zm16.436 15.689h-12.749V21.842h12.749q2.005 0 3.361.747a4.74 4.74 0 0 1 2.055 2.008q.699 1.308.699 3.175.001 3.082-1.635 4.857-1.633 1.727-4.48 1.727"/><path fill="#24262E" d="M37.095 4.128A2.067 2.067 0 1 0 37.33.001a2.067 2.067 0 0 0-.235 4.127m17.97 1.024a1.623 1.623 0 1 1-.03-3.247 1.623 1.623 0 0 1 .03 3.247m-34.949-.097a1.625 1.625 0 1 0-1.485-2.89 1.625 1.625 0 0 0 1.485 2.89M21.7 37.828a5.03 5.03 0 0 1-1.265-3.635l-.014.003a5.022 5.022 0 0 1 8.66-3.16 5.02 5.02 0 0 1-3.642 8.469h-.275a5.03 5.03 0 0 1-3.464-1.677M.798 33.144a1.62 1.62 0 0 1 2.034.316 1.62 1.62 0 0 1 .084 2.057 1.62 1.62 0 0 1-1.7.593 1.621 1.621 0 0 1-.418-2.966m25.465-20.21a2.507 2.507 0 1 1-4.366-2.468 2.507 2.507 0 0 1 4.366 2.468M8.066 20.05a2.066 2.066 0 1 0 2.27-3.453 2.066 2.066 0 0 0-2.27 3.453m1.64 12.302a2.507 2.507 0 1 1 2.545 4.319 2.507 2.507 0 0 1-2.546-4.319M8.34 48.867a2.066 2.066 0 1 0 1.864 3.687 2.066 2.066 0 0 0-1.864-3.687m11.392-21.559a2.953 2.953 0 1 1-.052-5.905 2.953 2.953 0 0 1 .052 5.905m29.28-13.566a2.51 2.51 0 1 0 2.743-4.207 2.51 2.51 0 0 0-2.743 4.207m.395 15.674a5.021 5.021 0 1 0-.576 10.027h.29a5.022 5.022 0 0 0 2.181-9.544 5 5 0 0 0-1.895-.483m-20.7-.918a5 5 0 0 1-1.85-2.02 5.023 5.023 0 0 1 4.483-7.274 5.004 5.004 0 0 1 5.026 5.22 5.02 5.02 0 0 1-5.02 4.816 5 5 0 0 1-2.638-.742m37.52-8.455a2.065 2.065 0 1 0-1.862-3.688 2.065 2.065 0 0 0 1.861 3.688m-13.974 2.782a2.953 2.953 0 0 1 5.499 1.815 2.951 2.951 0 1 1-5.499-1.815m-13.517-6.1a2.951 2.951 0 1 1-3-5.083 2.951 2.951 0 0 1 3 5.083m-17.66 30.54a2.952 2.952 0 1 0-2.656-5.272 2.952 2.952 0 0 0 2.657 5.272m17.098-22.669a5.023 5.023 0 0 1 5.01-5.428 5.02 5.02 0 1 1-5.01 5.428m9.534 17.837a5.021 5.021 0 1 0-4.483 7.28 5.1 5.1 0 0 0 2.26-.548 5.02 5.02 0 0 0 2.223-6.732m7.13-.835a2.952 2.952 0 1 1 .047 5.903 2.952 2.952 0 0 1-.048-5.903m11.256-7.058a2.51 2.51 0 0 0-2.852-2.624 2.51 2.51 0 0 0-2.02 3.309 2.51 2.51 0 0 0 2.225 1.678 2.51 2.51 0 0 0 2.647-2.363m6.03-1.565a1.62 1.62 0 0 1 2.035.32 1.63 1.63 0 0 1 .085 2.058 1.62 1.62 0 0 1-1.704.594 1.624 1.624 0 0 1-.416-2.972m-5.623 15.883a2.065 2.065 0 1 0-2.262 3.455 2.065 2.065 0 0 0 2.262-3.455M19.507 63.755a1.624 1.624 0 1 1 .027 3.248 1.624 1.624 0 0 1-.027-3.248m34.945.097a1.624 1.624 0 1 0 1.46 2.9 1.624 1.624 0 0 0-1.46-2.9m-18.058-19.55a5.02 5.02 0 0 1-.805 3.16 5 5 0 0 1-4.203 2.269 5.021 5.021 0 1 1 5.008-5.43M25.556 55.168a2.509 2.509 0 1 0-2.746 4.199 2.509 2.509 0 0 0 2.746-4.199m10.54 9.893a2.06 2.06 0 0 1 2.59.405 2.07 2.07 0 0 1 .107 2.62 2.065 2.065 0 1 1-2.697-3.025m1.187-13.281a2.95 2.95 0 0 0-3.103 3.35 2.952 2.952 0 1 0 3.103-3.35m11.023 4.197a2.512 2.512 0 0 1 4.424.089 2.51 2.51 0 1 1-4.424-.09M104.76 22.592c4.862 0 8.266 2.672 8.266 7.633h6.368c0-8.703-6.417-12.895-14.73-12.895-10.211 0-16.142 5.545-16.142 17.262 0 12.008 5.93 17.26 16.142 17.26 8.412 0 14.73-4.083 14.73-12.788h-6.126c0 4.861-3.356 7.536-8.505 7.536-6.76 0-9.877-3.745-9.877-11.522v-.972c.006-7.626 3.164-11.514 9.874-11.514m31.47-4.67-12.982 33.356h6.42l2.672-7.245h15.256l2.744 7.245h6.711L144.06 17.923zm-1.945 20.851 3.405-9.144c.456-1.206 1.154-3.355 1.637-4.843.237-.73.422-1.3.503-1.524h.241c.077.215.252.756.475 1.45h.001v.001c.484 1.502 1.199 3.72 1.664 4.916l3.402 9.142zm46.591-20.85c7.341 0 10.891 3.94 10.891 10.112 0 4.524-1.994 7.83-5.931 9.386l7.133 13.857h-6.807l-6.31-12.894h-10.354v12.894h-6.225V17.923zM169.498 33.14h10.889c3.21 0 5.106-1.942 5.106-5.106 0-3.012-1.75-4.812-5.106-4.812h-10.889zm44.101-15.218h-13.328v33.355h13.323c10.063 0 16.186-5.25 16.186-16.678 0-11.426-6.118-16.677-16.181-16.677m9.822 17.163c-.049 7.295-3.501 10.892-9.822 10.892h-7.097V23.223h7.097c6.31 0 9.822 3.6 9.822 10.892zm9.679 16.192 12.987-33.355h7.822l12.982 33.355h-6.71l-2.722-7.245h-15.268l-2.674 7.245zm14.441-21.649-3.399 9.144 11.328-.002-3.402-9.142c-.474-1.218-1.208-3.497-1.692-4.998a78 78 0 0 0-.448-1.37h-.247c-.08.224-.265.795-.502 1.524-.483 1.49-1.181 3.638-1.638 4.844m47.803 8.132c0 .375.034 1.128.062 1.74.018.416.034.766.034.886l-.241.096c-.06-.08-.26-.414-.511-.834-.36-.603-.825-1.382-1.135-1.839l-14.489-19.887h-5.939v33.355h5.981V31.295c0-.533-.042-1.395-.071-2.003-.016-.331-.028-.586-.028-.672l.244-.146c.049.066.164.269.324.552.317.558.81 1.43 1.322 2.172l14.587 20.08h5.833V17.923h-5.978V37.76zm13.992-3.16c0-11.718 6.321-17.26 16.774-17.26 10.452 0 16.823 5.542 16.823 17.26 0 11.717-6.36 17.258-16.823 17.258s-16.774-5.541-16.774-17.259m16.774 12.007c6.806 0 10.452-3.84 10.452-11.473v-1.02c0-7.636-3.692-11.523-10.452-11.523-6.708 0-10.404 3.887-10.404 11.523v1.02c0 7.632 3.646 11.473 10.404 11.473"/></g><defs><linearGradient id="b" x1="352.535" x2="446.295" y1="18.106" y2="156.211" gradientUnits="userSpaceOnUse"><stop stop-color="#0033AD"/><stop offset="1" stop-color="#5C8DFF"/></linearGradient><clipPath id="a"><path fill="#fff" d="M0 0h600v69.136H0z"/></clipPath></defs></svg>