<svg width="21" height="22" viewBox="0 0 21 22" xmlns="http://www.w3.org/2000/svg">
<path d="M3.93748 20.0349C3.46342 20.0349 3.05609 19.8646 2.71548 19.524C2.37489 19.1834 2.20459 18.776 2.20459 18.302V14.1067L5.41737 10.5877L6.65475 11.8374L4.11058 14.6099H16.9017L14.486 11.8783L15.7357 10.6286L18.8078 14.1067V18.302C18.8078 18.776 18.6362 19.1834 18.2932 19.524C17.9502 19.8646 17.5399 20.0349 17.0625 20.0349L3.93748 20.0349ZM3.93748 18.302H17.0625V15.9224H3.93748V18.302ZM9.35962 12.7942L6.09169 9.50157C5.73218 9.1338 5.56495 8.72087 5.58999 8.26276C5.61503 7.80464 5.80414 7.399 6.15731 7.04584L10.6093 2.59379C10.9387 2.26987 11.3417 2.10677 11.8181 2.10451C12.2946 2.10225 12.7093 2.27359 13.0622 2.61853L16.3302 5.91118C16.6687 6.24978 16.8376 6.64813 16.8366 7.10623C16.8357 7.56435 16.644 7.98459 16.2617 8.36693L11.8344 12.7942C11.504 13.1246 11.0989 13.297 10.6189 13.3116C10.1389 13.3262 9.71913 13.1537 9.35962 12.7942ZM14.9178 7.0487L11.822 3.97765L7.4822 8.32981L10.5656 11.4009L14.9178 7.0487Z" />
</svg>
