<svg width="24" height="24" viewBox="0 0 24 24" xmlns="http://www.w3.org/2000/svg">
<path d="M19.9401 9.06C19.5001 5.73 16.5701 3 13.0001 3C9.47009 3 6.57009 5.61 6.08009 9L4.15009 12.48C3.74009 13.14 4.22009 14 5.00009 14H6.00009V16C6.00009 17.1 6.90009 18 8.00009 18H9.00009V21H16.0001V16.32C18.6201 15.07 20.3501 12.24 19.9401 9.06ZM14.8901 14.63L14.0001 15.05V19H11.0001V16H8.00009V12H6.70009L8.03009 9.67C8.21009 7.06 10.3501 5 13.0001 5C15.7601 5 18.0001 7.24 18.0001 10C18.0001 12.09 16.7101 13.88 14.8901 14.63Z"/>
<path d="M12.5001 12.54C12.0901 12.54 11.7601 12.85 11.7601 13.27C11.7601 13.68 12.0901 14.01 12.5001 14.01C12.9201 14.01 13.2301 13.68 13.2301 13.27C13.2301 12.85 12.9201 12.54 12.5001 12.54Z"/>
<path d="M12.5001 7C11.4701 7 10.7601 7.67 10.5001 8.45L11.4601 8.85C11.5901 8.46 11.8901 7.99 12.5101 7.99C13.4601 7.99 13.6401 8.88 13.3101 9.35C12.9901 9.8 12.4501 10.1 12.1701 10.61C11.9401 11.01 11.9901 11.48 11.9901 11.77H13.0501C13.0501 11.22 13.0901 11.12 13.1801 10.95C13.4101 10.53 13.8301 10.33 14.2701 9.68C14.6701 9.09 14.5201 8.3 14.2601 7.88C13.9501 7.39 13.3601 7 12.5001 7Z"/>
</svg>
