<svg xmlns="http://www.w3.org/2000/svg" width="79" height="100" fill="none"><path fill="#6C6F89" d="M0 93.19.24 6.592a6.62 6.62 0 0 1 1.954-4.667A6.63 6.63 0 0 1 6.877 0l65.47.181a6.63 6.63 0 0 1 4.673 1.952 6.62 6.62 0 0 1 1.927 4.678l-.24 86.596a6.62 6.62 0 0 1-1.953 4.668A6.63 6.63 0 0 1 72.07 100L6.6 99.819a6.63 6.63 0 0 1-4.672-1.952A6.62 6.62 0 0 1 0 93.19"/><path fill="#24262E" d="m5.093 67.047.154-55.672a6.2 6.2 0 0 1 1.83-4.37A6.2 6.2 0 0 1 11.463 5.2l56.266.156a6.2 6.2 0 0 1 4.376 1.827 6.2 6.2 0 0 1 1.805 4.381l-.213 77.06a6.2 6.2 0 0 1-1.83 4.37A6.2 6.2 0 0 1 67.48 94.8l-34.856-.097a27.66 27.66 0 0 1-19.49-8.14 27.6 27.6 0 0 1-8.042-19.515"/><path fill="#66BDFF" d="M61.282 29.655H17.41a2.634 2.634 0 0 1-2.633-2.63 2.63 2.63 0 0 1 2.633-2.629h43.873a2.633 2.633 0 0 1 2.633 2.63 2.63 2.63 0 0 1-2.633 2.63M27.061 17.53h-9.652a2.634 2.634 0 0 1-2.633-2.63 2.63 2.63 0 0 1 2.633-2.629h9.652a2.634 2.634 0 0 1 2.632 2.63 2.63 2.63 0 0 1-2.632 2.63M61.282 41.78H17.41a2.634 2.634 0 0 1-2.633-2.629 2.63 2.63 0 0 1 2.633-2.63h43.873a2.634 2.634 0 0 1 2.633 2.63 2.63 2.63 0 0 1-2.633 2.63M61.695 53.906H17.822a2.633 2.633 0 0 1-2.632-2.63 2.63 2.63 0 0 1 2.632-2.63h43.873a2.633 2.633 0 0 1 2.633 2.63 2.63 2.63 0 0 1-2.633 2.63M57.734 85.746c5.785 0 10.474-4.684 10.474-10.463S63.52 64.82 57.735 64.82 47.26 69.505 47.26 75.283c0 5.779 4.69 10.463 10.474 10.463"/><path fill="#24262E" d="M56.304 80.838a1.17 1.17 0 0 1-.932-.466l-2.858-3.806a1.163 1.163 0 0 1 1.526-1.7q.2.118.338.303l1.87 2.49 4.802-7.194a1.163 1.163 0 0 1 1.617-.326 1.166 1.166 0 0 1 .321 1.617l-5.715 8.563a1.17 1.17 0 0 1-.97.519"/><path fill="#66BDFF" fill-rule="evenodd" d="M26.456 66.073a.628.628 0 0 0 .503-1.043.629.629 0 0 0-1.094.382.627.627 0 0 0 .59.66m5.46.31a.493.493 0 1 1-.009-.986.493.493 0 0 1 .01.986M21.3 66.354a.493.493 0 1 0-.45-.877.493.493 0 0 0 .45.877m.097 8.841a1.526 1.526 0 0 0 1.437 1.612h.083a1.526 1.526 0 0 0 1.5-1.79 1.523 1.523 0 0 0-2.024-1.165 1.53 1.53 0 0 0-1 1.344zm-5.687-.386a.494.494 0 0 0-.394.819.493.493 0 1 0 .395-.819m7.457-6.064a.761.761 0 1 1-1.324-.75.761.761 0 0 1 1.324.75m-5.527 2.158a.628.628 0 1 0 .69-1.05.628.628 0 0 0-.69 1.05m.497 3.733a.763.763 0 0 1 .995 1.114.761.761 0 1 1-.995-1.114m-.412 5.011a.627.627 0 1 0 .565 1.12.627.627 0 0 0-.566-1.12m3.459-6.541a.898.898 0 0 1-.758-1.387.897.897 0 1 1 1.255 1.231.9.9 0 0 1-.497.156m8.894-4.116a.763.763 0 1 0 .833-1.278.763.763 0 0 0-.833 1.278m.12 4.755a1.527 1.527 0 0 0-1.61 1.434 1.523 1.523 0 0 0 1.435 1.609h.088a1.526 1.526 0 0 0 1.506-1.758 1.52 1.52 0 0 0-1.42-1.285m-6.286-.278a1.52 1.52 0 0 1-.497-2.096 1.526 1.526 0 0 1 2.096-.501 1.52 1.52 0 0 1 .502 2.096 1.53 1.53 0 0 1-1.3.726 1.5 1.5 0 0 1-.801-.225m11.397-2.565a.627.627 0 1 0-.564-1.12.627.627 0 0 0 .564 1.12m-4.246.844a.896.896 0 1 1 1.56.884.896.896 0 0 1-1.56-.884m-4.105-1.851a.897.897 0 0 1-1.172-1.311.896.896 0 1 1 1.172 1.31M21.59 79.16a.896.896 0 1 0-.805-1.601.896.896 0 0 0 .805 1.601m5.194-6.878a1.523 1.523 0 0 1 2.458-1.325 1.523 1.523 0 1 1-2.062 2.231 1.52 1.52 0 0 1-.396-.906m2.896 5.412a1.524 1.524 0 0 0-2.66-.112 1.523 1.523 0 1 0 2.745 1.273c.126-.383.096-.8-.085-1.16m2.168-.253a.897.897 0 1 1 .015 1.794.897.897 0 0 1-.015-1.794m3.42-2.142a.76.76 0 1 0-1.519-.085.76.76 0 0 0 1.52.085m1.83-.474a.494.494 0 1 1 .5.851.494.494 0 0 1-.5-.851m-1.708 4.819a.628.628 0 0 0-.784.971.627.627 0 1 0 .784-.971m-14.275 4.52a.494.494 0 1 1 .008.987.494.494 0 0 1-.008-.987m10.616.029a.493.493 0 1 0 .444.881.493.493 0 0 0-.444-.881m-5.487-5.932a1.52 1.52 0 0 1-1.52 1.647 1.526 1.526 0 0 1-1.478-1.15A1.52 1.52 0 0 1 24 77.044a1.526 1.526 0 0 1 2.244 1.217m-3.29 3.297a.761.761 0 1 0-.834 1.275.761.761 0 0 0 .833-1.275m3.2 3.016a.628.628 0 1 1 .525 1.132.628.628 0 0 1-.525-1.132m.36-4.044a.897.897 0 1 0-.109 1.79.897.897 0 0 0 .11-1.79m3.348 1.274a.762.762 0 1 1 1.328.747.762.762 0 0 1-1.328-.747" clip-rule="evenodd"/></svg>