<svg width="79" height="100" viewBox="0 0 79 100" fill="none" xmlns="http://www.w3.org/2000/svg">
<path d="M8.95766e-06 93.1894L0.240353 6.5926C0.247199 4.83989 0.949766 3.16146 2.19391 1.92554C3.43806 0.689612 5.12218 -0.00286959 6.8768 8.93836e-06L72.3476 0.181324C74.1023 0.188172 75.7825 0.889978 77.0198 2.13277C78.257 3.37557 78.9502 5.05786 78.9474 6.81057L78.707 93.4074C78.7002 95.1601 77.9976 96.8385 76.7535 98.0745C75.5093 99.3104 73.8252 100.003 72.0706 100L6.59976 99.8187C4.84515 99.8118 3.16489 99.11 1.92763 97.8672C0.690362 96.6244 -0.00287425 94.9421 8.95766e-06 93.1894Z" fill="#6C6F89"/>
<path d="M5.09281 67.0474L5.24732 11.3751C5.2537 9.73366 5.91167 8.16174 7.07685 7.00426C8.24204 5.84677 9.81929 5.19825 11.4626 5.20098L67.7292 5.35681C69.3725 5.36317 70.9462 6.0204 72.105 7.18431C73.2638 8.34823 73.9131 9.92378 73.9104 11.5653L73.6965 88.6247C73.6901 90.2662 73.0321 91.8381 71.8668 92.9956C70.7016 94.1531 69.1243 94.8016 67.481 94.7988L32.625 94.7023C25.3053 94.6738 18.2958 91.7462 13.1343 86.5617C7.97281 81.3772 5.08082 74.3592 5.09281 67.0474Z" fill="#24262E"/>
<path d="M61.2824 29.6554H17.4088C16.7106 29.6554 16.0411 29.3784 15.5474 28.8852C15.0537 28.3921 14.7764 27.7233 14.7764 27.0259C14.7764 26.3285 15.0537 25.6596 15.5474 25.1665C16.0411 24.6733 16.7106 24.3963 17.4088 24.3963H61.2824C61.9805 24.3963 62.6501 24.6733 63.1437 25.1665C63.6374 25.6596 63.9148 26.3285 63.9148 27.0259C63.9148 27.7233 63.6374 28.3921 63.1437 28.8852C62.6501 29.3784 61.9805 29.6554 61.2824 29.6554Z" fill="#66BDFF"/>
<path d="M27.061 17.5302H17.4088C16.7106 17.5302 16.0411 17.2531 15.5474 16.76C15.0537 16.2669 14.7764 15.598 14.7764 14.9006C14.7764 14.2032 15.0537 13.5344 15.5474 13.0412C16.0411 12.5481 16.7106 12.2711 17.4088 12.2711H27.061C27.7591 12.2711 28.4287 12.5481 28.9224 13.0412C29.416 13.5344 29.6934 14.2032 29.6934 14.9006C29.6934 15.598 29.416 16.2669 28.9224 16.76C28.4287 17.2531 27.7591 17.5302 27.061 17.5302Z" fill="#66BDFF"/>
<path d="M61.2824 41.7807H17.4088C16.7106 41.7807 16.0411 41.5036 15.5474 41.0105C15.0537 40.5174 14.7764 39.8485 14.7764 39.1511C14.7764 38.4537 15.0537 37.7849 15.5474 37.2917C16.0411 36.7986 16.7106 36.5215 17.4088 36.5215H61.2824C61.9805 36.5215 62.6501 36.7986 63.1437 37.2917C63.6374 37.7849 63.9148 38.4537 63.9148 39.1511C63.9148 39.8485 63.6374 40.5174 63.1437 41.0105C62.6501 41.5036 61.9805 41.7807 61.2824 41.7807Z" fill="#66BDFF"/>
<path d="M61.6954 53.9059H17.8219C17.1237 53.9059 16.4541 53.6289 15.9605 53.1357C15.4668 52.6426 15.1895 51.9738 15.1895 51.2763C15.1895 50.5789 15.4668 49.9101 15.9605 49.417C16.4541 48.9238 17.1237 48.6468 17.8219 48.6468H61.6954C62.3936 48.6468 63.0632 48.9238 63.5568 49.417C64.0505 49.9101 64.3279 50.5789 64.3279 51.2763C64.3279 51.9738 64.0505 52.6426 63.5568 53.1357C63.0632 53.6289 62.3936 53.9059 61.6954 53.9059Z" fill="#66BDFF"/>
<path d="M57.7341 85.7462C63.519 85.7462 68.2085 81.0617 68.2085 75.2831C68.2085 69.5046 63.519 64.8201 57.7341 64.8201C51.9493 64.8201 47.2598 69.5046 47.2598 75.2831C47.2598 81.0617 51.9493 85.7462 57.7341 85.7462Z" fill="#66BDFF"/>
<path d="M56.3037 80.8376C56.1228 80.8376 55.9444 80.7955 55.7827 80.7147C55.6209 80.6339 55.4802 80.5165 55.3717 80.3719L52.5141 76.5659C52.4221 76.4436 52.3551 76.3045 52.317 76.1563C52.2788 76.0082 52.2703 75.854 52.2919 75.7026C52.3135 75.5511 52.3647 75.4054 52.4427 75.2738C52.5207 75.1422 52.6238 75.0272 52.7463 74.9354C52.8688 74.8436 53.0083 74.7769 53.1566 74.739C53.3049 74.7011 53.4593 74.6927 53.6109 74.7144C53.7625 74.7362 53.9083 74.7875 54.0399 74.8656C54.1716 74.9437 54.2866 75.0469 54.3783 75.1694L56.2479 77.6592L61.0495 70.4646C61.1341 70.3369 61.2432 70.2272 61.3704 70.1417C61.4975 70.0562 61.6404 69.9966 61.7907 69.9663C61.941 69.936 62.0958 69.9357 62.2462 69.9653C62.3966 69.9949 62.5397 70.0539 62.6673 70.1388C62.7948 70.2238 62.9044 70.333 62.9896 70.4603C63.0748 70.5876 63.134 70.7305 63.1638 70.8807C63.1937 71.031 63.1935 71.1856 63.1634 71.3358C63.1333 71.4859 63.0738 71.6287 62.9884 71.7559L57.2733 80.3193C57.1699 80.4741 57.0308 80.602 56.8678 80.6921C56.7047 80.7822 56.5224 80.832 56.3361 80.8372C56.3253 80.8374 56.3145 80.8376 56.3037 80.8376Z" fill="#24262E"/>
<path fill-rule="evenodd" clip-rule="evenodd" d="M26.4556 66.0728C26.5796 66.0798 26.7028 66.05 26.8097 65.9871C26.9167 65.9241 27.0026 65.8309 27.0565 65.7193C27.1104 65.6076 27.13 65.4824 27.1127 65.3596C27.0954 65.2368 27.042 65.1219 26.9594 65.0295C26.8767 64.937 26.7684 64.8711 26.6482 64.84C26.528 64.809 26.4013 64.8143 26.2842 64.8553C26.167 64.8962 26.0646 64.9709 25.99 65.07C25.9153 65.1691 25.8717 65.288 25.8648 65.4118C25.8555 65.5777 25.9125 65.7405 26.0232 65.8645C26.134 65.9884 26.2896 66.0633 26.4556 66.0728ZM31.9167 66.383C31.8191 66.3839 31.7234 66.3559 31.6418 66.3024C31.5324 66.2308 31.456 66.1188 31.4293 65.991C31.4026 65.8632 31.4278 65.73 31.4993 65.6206C31.5527 65.539 31.6291 65.4751 31.7189 65.4369C31.8087 65.3987 31.9078 65.3879 32.0037 65.406C32.0996 65.4241 32.188 65.4702 32.2577 65.5385C32.3274 65.6067 32.3752 65.6941 32.3952 65.7895C32.4151 65.885 32.4063 65.9842 32.3698 66.0746C32.3332 66.165 32.2707 66.2426 32.1901 66.2975C32.1094 66.3524 32.0143 66.3822 31.9167 66.383ZM21.2988 66.354C21.3854 66.3096 21.4569 66.2406 21.5043 66.1557C21.5517 66.0708 21.5729 65.9737 21.5652 65.8768C21.5575 65.7799 21.5213 65.6874 21.4611 65.6109C21.4009 65.5345 21.3195 65.4776 21.227 65.4473C21.1345 65.4171 21.0351 65.4148 20.9413 65.4409C20.8475 65.4669 20.7635 65.5201 20.6999 65.5937C20.6363 65.6673 20.5959 65.7581 20.5839 65.8546C20.5718 65.9511 20.5886 66.049 20.6321 66.136C20.6614 66.1942 20.7019 66.246 20.7513 66.2885C20.8007 66.3311 20.858 66.3634 20.92 66.3837C20.982 66.4039 21.0473 66.4118 21.1123 66.4067C21.1774 66.4016 21.2407 66.3837 21.2988 66.354ZM21.3963 75.1952C21.3731 75.5992 21.5114 75.9958 21.7808 76.298C22.0502 76.6002 22.4286 76.7832 22.833 76.8068H22.9163C23.2142 76.8065 23.5054 76.719 23.754 76.5553C24.0027 76.3916 24.1979 76.1587 24.3156 75.8854C24.4333 75.6121 24.4683 75.3104 24.4163 75.0174C24.3643 74.7245 24.2275 74.4532 24.0229 74.237C23.8184 74.0208 23.5549 73.8692 23.265 73.8008C22.9752 73.7325 22.6716 73.7504 22.3919 73.8524C22.1121 73.9544 21.8683 74.136 21.6907 74.3747C21.513 74.6135 21.4093 74.899 21.3922 75.196L21.3963 75.1952ZM15.7095 74.809C15.6123 74.8036 15.5156 74.8271 15.4317 74.8765C15.3479 74.9259 15.2805 74.999 15.2383 75.0867C15.196 75.1743 15.1807 75.2725 15.1943 75.3688C15.2078 75.4651 15.2497 75.5553 15.3145 75.6278C15.3794 75.7004 15.4643 75.7521 15.5586 75.7765C15.6529 75.8009 15.7522 75.7968 15.8442 75.7647C15.9361 75.7327 16.0165 75.6741 16.0751 75.5965C16.1338 75.5188 16.1681 75.4256 16.1737 75.3285C16.1775 75.2639 16.1685 75.1992 16.1472 75.1381C16.1259 75.0769 16.0928 75.0206 16.0496 74.9724C16.0065 74.9241 15.9542 74.8848 15.8959 74.8568C15.8375 74.8288 15.7742 74.8125 15.7095 74.809ZM23.1664 68.7446C23.0922 68.8756 22.9809 68.9817 22.8464 69.0494C22.757 69.0945 22.6597 69.1214 22.5599 69.1289C22.4601 69.1363 22.3598 69.124 22.2648 69.0927C22.1697 69.0614 22.0818 69.0117 22.006 68.9464C21.9302 68.8811 21.8681 68.8016 21.823 68.7123C21.7553 68.5779 21.729 68.4265 21.7474 68.2772C21.7658 68.1278 21.8281 67.9873 21.9264 67.8733C22.0248 67.7594 22.1548 67.6771 22.2999 67.6369C22.4451 67.5967 22.5989 67.6004 22.7419 67.6476C22.885 67.6947 23.0108 67.7831 23.1035 67.9017C23.1963 68.0202 23.2517 68.1636 23.2629 68.3136C23.2741 68.4637 23.2405 68.6137 23.1664 68.7446ZM17.6391 70.9031C17.7428 70.9713 17.8645 71.0071 17.9886 71.0062C18.1128 71.0053 18.2338 70.9676 18.3365 70.8979C18.4392 70.8282 18.5189 70.7296 18.5655 70.6147C18.6121 70.4998 18.6235 70.3736 18.5983 70.2522C18.5731 70.1307 18.5125 70.0195 18.424 69.9325C18.3354 69.8456 18.2231 69.7868 18.1011 69.7636C17.9792 69.7404 17.8531 69.7539 17.7388 69.8024C17.6245 69.8508 17.5272 69.932 17.4591 70.0357C17.368 70.1746 17.3357 70.344 17.3695 70.5066C17.4032 70.6693 17.5002 70.8119 17.6391 70.9031ZM18.1364 74.6361C18.2661 74.5597 18.4156 74.5235 18.566 74.5319C18.7677 74.5435 18.9566 74.6346 19.0912 74.7853C19.2257 74.9359 19.2949 75.1337 19.2835 75.3352C19.2749 75.4854 19.2218 75.6297 19.1311 75.7498C19.0404 75.8699 18.9161 75.9605 18.7739 76.01C18.6317 76.0595 18.478 76.0658 18.3322 76.0281C18.1864 75.9904 18.055 75.9104 17.9547 75.7981C17.8545 75.6859 17.7898 75.5464 17.7688 75.3974C17.7479 75.2485 17.7716 75.0966 17.837 74.9611C17.9024 74.8256 18.0066 74.7125 18.1364 74.6361ZM17.7235 79.6471C17.6127 79.703 17.5211 79.7905 17.4601 79.8984C17.3991 80.0064 17.3715 80.13 17.3808 80.2536C17.3901 80.3772 17.4359 80.4952 17.5123 80.5928C17.5888 80.6905 17.6925 80.7632 17.8104 80.802C17.9282 80.8407 18.055 80.8437 18.1745 80.8105C18.2941 80.7773 18.4011 80.7095 18.4821 80.6155C18.563 80.5216 18.6143 80.4058 18.6294 80.2828C18.6445 80.1597 18.6227 80.035 18.5668 79.9243C18.5297 79.8508 18.4784 79.7853 18.4159 79.7315C18.3534 79.6778 18.281 79.6369 18.2027 79.6112C18.1243 79.5854 18.0417 79.5753 17.9595 79.5815C17.8773 79.5877 17.7971 79.61 17.7235 79.6471ZM21.1828 73.1058C21.0055 73.1073 20.8317 73.0564 20.6834 72.9593C20.5848 72.8948 20.4999 72.8116 20.4335 72.7144C20.3671 72.6172 20.3206 72.5078 20.2966 72.3926C20.2726 72.2774 20.2716 72.1586 20.2937 72.043C20.3157 71.9274 20.3603 71.8173 20.425 71.7189C20.5223 71.5708 20.6613 71.4548 20.8245 71.3856C20.9878 71.3164 21.1679 71.2971 21.3421 71.3301C21.5163 71.3632 21.6768 71.4471 21.8033 71.5712C21.9298 71.6954 22.0166 71.8542 22.0527 72.0277C22.0889 72.2011 22.0727 72.3813 22.0063 72.5456C21.9398 72.7098 21.8262 72.8507 21.6796 72.9504C21.533 73.0501 21.3601 73.1042 21.1828 73.1058ZM30.0772 68.9897C30.2035 69.072 30.3514 69.115 30.5022 69.1133C30.6529 69.1117 30.7998 69.0654 30.9243 68.9804C31.0487 68.8954 31.1452 68.7754 31.2014 68.6356C31.2576 68.4959 31.271 68.3426 31.2401 68.1952C31.2091 68.0478 31.135 67.9129 31.0273 67.8075C30.9196 67.7021 30.783 67.631 30.6348 67.6032C30.4866 67.5753 30.3335 67.592 30.1948 67.651C30.0561 67.7101 29.9381 67.8089 29.8556 67.935C29.8006 68.0187 29.7628 68.1125 29.7442 68.2108C29.7256 68.3092 29.7266 68.4103 29.7472 68.5083C29.7678 68.6063 29.8076 68.6992 29.8642 68.7818C29.9208 68.8644 29.9932 68.9351 30.0772 68.9897ZM30.1967 73.7451C29.9967 73.7337 29.7964 73.7616 29.6073 73.8275C29.4181 73.8933 29.2438 73.9958 29.0942 74.1289C28.7922 74.3978 28.6095 74.7755 28.5863 75.179C28.5631 75.5825 28.7013 75.9786 28.9705 76.2803C29.2397 76.582 29.6178 76.7645 30.0217 76.7877H30.1101C30.4043 76.7876 30.6922 76.7024 30.9391 76.5425C31.1859 76.3826 31.3812 76.1547 31.5014 75.8864C31.6215 75.6181 31.6614 75.3208 31.6162 75.0304C31.5711 74.74 31.4427 74.4688 31.2467 74.2496C31.114 74.1001 30.9528 73.9785 30.7725 73.8919C30.5922 73.8053 30.3965 73.7554 30.1967 73.7451ZM23.9107 73.4668C23.6699 73.3187 23.4752 73.1064 23.3486 72.8538C23.2321 72.6216 23.177 72.3635 23.1885 72.1041C23.1999 71.8447 23.2775 71.5925 23.4139 71.3714C23.5503 71.1504 23.741 70.9678 23.9679 70.841C24.1947 70.7142 24.4503 70.6474 24.7102 70.647C24.9924 70.6456 25.2695 70.7228 25.5102 70.8698C25.751 71.0168 25.9461 71.2279 26.0736 71.4794C26.1914 71.7118 26.2475 71.9705 26.2368 72.2307C26.226 72.491 26.1487 72.7442 26.0121 72.9661C25.8755 73.188 25.6843 73.3712 25.4567 73.4983C25.2291 73.6254 24.9727 73.6921 24.7119 73.692C24.4291 73.6929 24.1516 73.6149 23.9107 73.4668ZM35.3081 70.9015C35.4189 70.8457 35.5106 70.7583 35.5717 70.6504C35.6327 70.5425 35.6604 70.419 35.6512 70.2954C35.642 70.1718 35.5963 70.0537 35.5199 69.956C35.4436 69.8584 35.3399 69.7855 35.2221 69.7467C35.1043 69.7078 34.9776 69.7047 34.858 69.7378C34.7384 69.7709 34.6314 69.8386 34.5503 69.9324C34.4693 70.0263 34.4179 70.142 34.4027 70.265C34.3874 70.388 34.4091 70.5128 34.4648 70.6235C34.5398 70.772 34.6707 70.8847 34.8289 70.9368C34.987 70.989 35.1594 70.9763 35.3081 70.9015ZM31.0624 71.7457C31.1498 71.5916 31.281 71.4667 31.4394 71.3871C31.5445 71.334 31.6591 71.3023 31.7766 71.2935C31.894 71.2848 32.012 71.2993 32.1239 71.3361C32.2357 71.373 32.3392 71.4316 32.4284 71.5085C32.5175 71.5853 32.5907 71.679 32.6435 71.7841C32.7233 71.9424 32.7543 72.1206 32.7327 72.2965C32.711 72.4723 32.6376 72.6378 32.5218 72.7719C32.406 72.9061 32.253 73.0029 32.0821 73.0502C31.9111 73.0975 31.73 73.0931 31.5616 73.0376C31.3932 72.9821 31.2451 72.8779 31.1359 72.7383C31.0268 72.5986 30.9616 72.4298 30.9485 72.2531C30.9354 72.0765 30.975 71.8999 31.0624 71.7457ZM26.9569 69.8949C26.8042 69.9849 26.6282 70.0276 26.4512 70.0177C26.2136 70.0042 25.9911 69.897 25.8327 69.7196C25.6742 69.5423 25.5928 69.3094 25.6062 69.072C25.6163 68.8952 25.6788 68.7254 25.7855 68.584C25.8923 68.4426 26.0386 68.336 26.206 68.2777C26.3734 68.2193 26.5544 68.2119 26.726 68.2562C26.8976 68.3006 27.0523 68.3948 27.1703 68.5269C27.2884 68.6591 27.3646 68.8232 27.3893 68.9985C27.414 69.1739 27.3861 69.3527 27.3092 69.5122C27.2322 69.6718 27.1096 69.8049 26.9569 69.8949ZM21.5905 79.1612C21.7489 79.0815 21.88 78.9566 21.9674 78.8024C22.0547 78.6481 22.0942 78.4715 22.0811 78.2949C22.0679 78.1182 22.0025 77.9494 21.8933 77.8098C21.7841 77.6702 21.6359 77.5661 21.4674 77.5107C21.299 77.4553 21.1178 77.451 20.9469 77.4984C20.776 77.5458 20.6231 77.6428 20.5073 77.777C20.3916 77.9113 20.3184 78.0768 20.2968 78.2527C20.2753 78.4285 20.3065 78.6068 20.3864 78.765C20.4935 78.977 20.6805 79.1378 20.9063 79.2122C21.1321 79.2865 21.3782 79.2681 21.5905 79.1612ZM26.7837 72.283C26.7562 71.9452 26.8422 71.6078 27.0281 71.3243C27.1672 71.1127 27.3567 70.9389 27.5798 70.8188C27.8028 70.6986 28.0522 70.6357 28.3057 70.6359C28.645 70.6363 28.9744 70.7498 29.2419 70.9583C29.5094 71.1669 29.6997 71.4586 29.7825 71.7872C29.8654 72.1159 29.8362 72.4628 29.6995 72.773C29.5628 73.0832 29.3264 73.3391 29.0277 73.5C28.7291 73.6609 28.3853 73.7178 28.0507 73.6615C27.7161 73.6053 27.4098 73.4392 27.1803 73.1895C26.9508 72.9398 26.8113 72.6208 26.7837 72.283ZM29.6798 77.6953C29.5576 77.4532 29.373 77.2482 29.145 77.1012C28.917 76.9542 28.6538 76.8707 28.3827 76.8592C28.1116 76.8477 27.8423 76.9087 27.6027 77.0358C27.3631 77.163 27.1617 77.3517 27.0195 77.5825C26.8772 77.8134 26.7992 78.0779 26.7934 78.3489C26.7877 78.6199 26.8544 78.8875 26.9867 79.1242C27.1191 79.3608 27.3122 79.5579 27.5463 79.695C27.7803 79.8322 28.0467 79.9046 28.3181 79.9046C28.5568 79.9029 28.7918 79.8459 29.0047 79.7381C29.3649 79.556 29.6381 79.2388 29.7646 78.8559C29.8911 78.4731 29.8606 78.0557 29.6798 77.6953ZM31.8477 77.4419C32.0251 77.4404 32.1989 77.4916 32.3471 77.5888C32.5456 77.7194 32.6841 77.9233 32.7324 78.1558C32.7806 78.3883 32.7347 78.6304 32.6046 78.8291C32.5073 78.9772 32.3682 79.0931 32.2049 79.1623C32.0416 79.2314 31.8615 79.2506 31.6873 79.2174C31.5131 79.1843 31.3526 79.1003 31.2262 78.976C31.0998 78.8518 31.0131 78.6929 30.977 78.5194C30.941 78.346 30.9573 78.1657 31.0239 78.0015C31.0904 77.8373 31.2042 77.6965 31.3508 77.5969C31.4975 77.4973 31.6704 77.4433 31.8477 77.4419ZM35.2683 75.3003C35.2768 75.1501 35.2405 75.0007 35.1641 74.8711C35.0876 74.7415 34.9744 74.6375 34.8387 74.5721C34.7031 74.5068 34.551 74.483 34.4019 74.504C34.2527 74.5249 34.1132 74.5895 34.0008 74.6897C33.8884 74.7899 33.8083 74.9211 33.7705 75.0667C33.7328 75.2123 33.7391 75.3659 33.7887 75.508C33.8383 75.65 33.9289 75.7742 34.0491 75.8648C34.1694 75.9554 34.3138 76.0084 34.4642 76.017C34.6659 76.0284 34.8639 75.9593 35.0147 75.8249C35.1655 75.6905 35.2567 75.5018 35.2683 75.3003ZM37.098 74.8257C37.1821 74.7763 37.279 74.7529 37.3764 74.7585C37.507 74.7662 37.6291 74.8253 37.7161 74.9228C37.8031 75.0204 37.8479 75.1483 37.8406 75.2788C37.835 75.3761 37.8006 75.4695 37.7419 75.5473C37.6831 75.6251 37.6025 75.6838 37.5104 75.7159C37.4183 75.7479 37.3187 75.752 37.2242 75.7275C37.1298 75.703 37.0447 75.6511 36.9798 75.5784C36.9149 75.5056 36.873 75.4152 36.8595 75.3187C36.846 75.2222 36.8614 75.1238 36.9039 75.0361C36.9464 74.9483 37.0139 74.8751 37.098 74.8257ZM35.3898 79.645C35.286 79.5771 35.1644 79.5414 35.0403 79.5425C34.9162 79.5437 34.7952 79.5815 34.6927 79.6513C34.5901 79.7211 34.5106 79.8197 34.4641 79.9346C34.4177 80.0496 34.4064 80.1757 34.4316 80.297C34.4569 80.4184 34.5176 80.5295 34.6061 80.6164C34.6946 80.7033 34.8069 80.762 34.9289 80.7851C35.0508 80.8083 35.1768 80.7948 35.291 80.7464C35.4053 80.698 35.5026 80.6168 35.5706 80.5132C35.6159 80.4444 35.6471 80.3673 35.6625 80.2864C35.6779 80.2054 35.6771 80.1223 35.6603 80.0417C35.6435 79.961 35.611 79.8845 35.5646 79.8164C35.5182 79.7484 35.4588 79.6901 35.3898 79.645ZM21.1146 84.1649C21.2121 84.1641 21.3077 84.1922 21.3893 84.2457C21.4435 84.2812 21.4901 84.327 21.5266 84.3805C21.563 84.4341 21.5886 84.4942 21.6017 84.5576C21.6149 84.621 21.6154 84.6864 21.6033 84.75C21.5911 84.8136 21.5666 84.8741 21.531 84.9283C21.4774 85.0097 21.4009 85.0735 21.311 85.1115C21.2212 85.1495 21.1221 85.16 21.0262 85.1418C20.9304 85.1235 20.8421 85.0773 20.7726 85.0089C20.7031 84.9406 20.6554 84.8531 20.6356 84.7577C20.6158 84.6623 20.6247 84.5631 20.6613 84.4728C20.6979 84.3825 20.7605 84.305 20.8412 84.2502C20.9219 84.1954 21.017 84.1657 21.1146 84.1649ZM31.7313 84.194C31.6442 84.2379 31.572 84.3066 31.524 84.3914C31.4759 84.4762 31.4541 84.5734 31.4614 84.6706C31.4686 84.7678 31.5045 84.8607 31.5646 84.9375C31.6247 85.0143 31.7063 85.0716 31.7989 85.1021C31.8916 85.1326 31.9913 85.135 32.0853 85.1089C32.1793 85.0828 32.2635 85.0295 32.3272 84.9556C32.3908 84.8818 32.4312 84.7907 32.443 84.694C32.4549 84.5972 32.4378 84.4991 32.3938 84.4121C32.3647 84.3542 32.3245 84.3027 32.2754 84.2604C32.2264 84.2181 32.1694 84.1859 32.1079 84.1657C32.0463 84.1454 31.9814 84.1375 31.9168 84.1424C31.8521 84.1472 31.7891 84.1648 31.7313 84.194ZM26.2443 78.2619C26.2719 78.5998 26.1859 78.9372 25.9999 79.2207C25.8616 79.4328 25.6723 79.607 25.4492 79.7272C25.2262 79.8475 24.9766 79.91 24.7232 79.9092C24.3839 79.9089 24.0543 79.7956 23.7867 79.5872C23.519 79.3788 23.3287 79.0871 23.2457 78.7584C23.1626 78.4298 23.1917 78.0828 23.3284 77.7725C23.465 77.4622 23.7013 77.2063 23.9999 77.0453C24.2985 76.8843 24.6424 76.8273 24.977 76.8835C25.3117 76.9397 25.618 77.1057 25.8476 77.3554C26.0771 77.6051 26.2167 77.9241 26.2443 78.2619ZM22.9532 81.5594C22.8272 81.477 22.6795 81.4338 22.5289 81.4353C22.3783 81.4367 22.2315 81.4827 22.1071 81.5675C21.9827 81.6523 21.8862 81.772 21.8299 81.9115C21.7735 82.0511 21.7599 82.2041 21.7906 82.3514C21.8214 82.4987 21.8951 82.6336 22.0026 82.739C22.1101 82.8444 22.2464 82.9156 22.3944 82.9436C22.5423 82.9717 22.6953 82.9552 22.8339 82.8964C22.9726 82.8376 23.0906 82.7391 23.1732 82.6133C23.2838 82.4443 23.3228 82.2384 23.2815 82.0408C23.2403 81.8432 23.1222 81.6701 22.9532 81.5594ZM26.1544 84.5747C26.2613 84.5119 26.3845 84.482 26.5084 84.4891C26.5907 84.4938 26.6713 84.5146 26.7456 84.5504C26.8198 84.5862 26.8862 84.6362 26.9411 84.6977C26.996 84.7591 27.0382 84.8308 27.0653 84.9086C27.0925 84.9863 27.104 85.0687 27.0993 85.1509C27.0921 85.2746 27.0485 85.3935 26.9737 85.4924C26.899 85.5914 26.7965 85.666 26.6794 85.7068C26.5622 85.7476 26.4355 85.7528 26.3154 85.7217C26.1953 85.6906 26.0871 85.6246 26.0045 85.5321C25.9219 85.4396 25.8686 85.3247 25.8514 85.2019C25.8341 85.0792 25.8537 84.9541 25.9077 84.8424C25.9616 84.7308 26.0475 84.6376 26.1544 84.5747ZM26.5147 80.5315C26.3375 80.5207 26.1611 80.5627 26.0079 80.6522C25.8546 80.7416 25.7314 80.8745 25.6538 81.034C25.5762 81.1934 25.5478 81.3723 25.5721 81.548C25.5963 81.7236 25.6722 81.8881 25.7902 82.0206C25.9081 82.1531 26.0627 82.2477 26.2345 82.2923C26.4063 82.337 26.5875 82.3297 26.7551 82.2714C26.9227 82.2131 27.0693 82.1065 27.1762 81.9649C27.2831 81.8233 27.3455 81.6533 27.3555 81.4763C27.3692 81.2397 27.2883 81.0073 27.1307 80.8302C26.9731 80.653 26.7515 80.5456 26.5147 80.5315ZM29.8616 81.8049C29.9355 81.6735 30.0468 81.567 30.1814 81.4988C30.2705 81.4533 30.3677 81.4259 30.4674 81.4181C30.5672 81.4103 30.6675 81.4221 30.7626 81.4531C30.8577 81.484 30.9458 81.5334 31.0218 81.5983C31.0978 81.6633 31.1603 81.7426 31.2055 81.8317C31.2741 81.966 31.3013 82.1175 31.2836 82.2672C31.266 82.4169 31.2042 82.558 31.1062 82.6726C31.0083 82.7872 30.8784 82.8702 30.7332 82.9111C30.588 82.952 30.4339 82.9489 30.2904 82.9023C30.1469 82.8556 30.0205 82.7675 29.9272 82.6491C29.8339 82.5306 29.7778 82.3872 29.7662 82.2369C29.7545 82.0867 29.7877 81.9363 29.8616 81.8049Z" fill="#66BDFF"/>
</svg>
