<svg xmlns="http://www.w3.org/2000/svg" width="80" height="101" fill="none"><path fill="#E6E6E6" d="m.526 93.69.24-86.597A6.62 6.62 0 0 1 2.72 2.426 6.63 6.63 0 0 1 7.403.5l65.471.181a6.63 6.63 0 0 1 4.672 1.952 6.62 6.62 0 0 1 1.928 4.678l-.24 86.596a6.62 6.62 0 0 1-1.954 4.668 6.63 6.63 0 0 1-4.683 1.925l-65.47-.181a6.63 6.63 0 0 1-4.673-1.952A6.62 6.62 0 0 1 .526 93.69"/><path fill="#fff" d="m5.62 67.547.154-55.672a6.2 6.2 0 0 1 1.83-4.37A6.2 6.2 0 0 1 11.988 5.7l56.267.156a6.2 6.2 0 0 1 4.375 1.827 6.2 6.2 0 0 1 1.806 4.381l-.214 77.06a6.2 6.2 0 0 1-1.83 4.37 6.2 6.2 0 0 1-4.386 1.804l-34.856-.097a27.66 27.66 0 0 1-19.49-8.14 27.6 27.6 0 0 1-8.042-19.515"/><path fill="#006CFF" d="M61.809 30.155H17.935a2.633 2.633 0 0 1-2.632-2.63 2.63 2.63 0 0 1 2.632-2.629H61.81a2.634 2.634 0 0 1 2.632 2.63 2.63 2.63 0 0 1-2.632 2.63M27.587 18.03h-9.652a2.634 2.634 0 0 1-2.632-2.63 2.63 2.63 0 0 1 2.632-2.629h9.652a2.634 2.634 0 0 1 2.633 2.63 2.63 2.63 0 0 1-2.633 2.63M61.809 42.28H17.935a2.634 2.634 0 0 1-2.632-2.629 2.63 2.63 0 0 1 2.632-2.63H61.81a2.634 2.634 0 0 1 2.632 2.63 2.63 2.63 0 0 1-2.632 2.63M62.222 54.406H18.348a2.634 2.634 0 0 1-2.632-2.63 2.63 2.63 0 0 1 2.632-2.63h43.874a2.634 2.634 0 0 1 2.632 2.63 2.63 2.63 0 0 1-2.632 2.63M58.26 86.246c5.785 0 10.475-4.684 10.475-10.463S64.045 65.32 58.26 65.32c-5.785 0-10.475 4.685-10.475 10.463 0 5.779 4.69 10.463 10.474 10.463"/><path fill="#fff" d="M56.83 81.338a1.17 1.17 0 0 1-.932-.466l-2.858-3.806a1.165 1.165 0 1 1 1.865-1.397l1.87 2.49 4.8-7.194a1.163 1.163 0 0 1 1.619-.326 1.165 1.165 0 0 1 .32 1.617L57.8 80.819a1.17 1.17 0 0 1-.97.519"/><path fill="#006CFF" fill-rule="evenodd" d="M26.982 66.573a.628.628 0 1 0 .072-1.254.628.628 0 0 0-.072 1.254m5.461.31a.494.494 0 0 1-.198-.946.495.495 0 0 1 .677.353.492.492 0 0 1-.479.593m-10.618-.029a.493.493 0 1 0-.449-.876.493.493 0 0 0 .45.876m.098 8.841a1.525 1.525 0 0 0 1.437 1.612h.083a1.526 1.526 0 0 0 1.5-1.79 1.523 1.523 0 0 0-2.025-1.165 1.53 1.53 0 0 0-1 1.344zm-5.687-.386a.492.492 0 1 0-.055.983.492.492 0 0 0 .055-.983m7.457-6.064a.762.762 0 1 1-1.326-.751.762.762 0 0 1 1.326.75m-5.527 2.158a.627.627 0 1 0 .689-1.049.627.627 0 0 0-.69 1.05m.497 3.733a.762.762 0 1 1 .773 1.314.762.762 0 0 1-.773-1.314m-.413 5.011a.627.627 0 1 0 .565 1.12.627.627 0 0 0-.565-1.12m3.46-6.541a.897.897 0 0 1-.359-1.72.897.897 0 0 1 .855 1.565.9.9 0 0 1-.497.155m8.894-4.116a.763.763 0 0 0 .95-1.182.764.764 0 0 0-1.28.7.76.76 0 0 0 .33.482m.12 4.755a1.53 1.53 0 0 0-1.611 1.434 1.523 1.523 0 0 0 1.435 1.609h.089a1.526 1.526 0 0 0 1.506-1.757 1.52 1.52 0 0 0-1.42-1.286m-6.287-.278a1.52 1.52 0 0 1-.722-1.363 1.52 1.52 0 0 1 .78-1.263 1.53 1.53 0 0 1 2.105.639 1.522 1.522 0 0 1-1.362 2.212 1.5 1.5 0 0 1-.8-.225m11.398-2.565a.628.628 0 1 0-.566-1.122.628.628 0 0 0 .566 1.122m-4.246.844a.896.896 0 1 1 1.558.883.896.896 0 0 1-1.558-.883m-4.106-1.851a.897.897 0 0 1-1.17-1.31.897.897 0 1 1 1.17 1.31m-5.366 9.266a.896.896 0 1 0-.806-1.6.896.896 0 0 0 .806 1.6m5.193-6.878a1.52 1.52 0 0 1 1.522-1.647 1.525 1.525 0 0 1 1.394 2.137 1.524 1.524 0 0 1-2.52.417c-.229-.25-.368-.57-.396-.907m2.896 5.412a1.525 1.525 0 1 0-2.133 2c.234.137.5.21.772.21.238-.002.473-.059.686-.167a1.525 1.525 0 0 0 .675-2.043m2.168-.253a.9.9 0 0 1 .885.714.897.897 0 1 1-.885-.714m3.42-2.142a.76.76 0 0 0-.866-.796.763.763 0 0 0-.613 1.004.76.76 0 0 0 1.48-.208m1.83-.474a.494.494 0 1 1 .5.851.494.494 0 0 1-.5-.851m-1.708 4.819a.629.629 0 0 0-.958.652.626.626 0 1 0 .958-.652m-14.275 4.52a.493.493 0 1 1 .008.986.493.493 0 0 1-.008-.986m10.617.029a.494.494 0 1 0 .444.882.494.494 0 0 0-.444-.882m-5.487-5.932a1.52 1.52 0 0 1-1.521 1.647 1.53 1.53 0 0 1-1.478-1.15 1.522 1.522 0 0 1 1.732-1.876 1.526 1.526 0 0 1 1.267 1.379m-3.291 3.297a.763.763 0 0 0-1.163.793.76.76 0 1 0 1.163-.793m3.201 3.016a.628.628 0 0 1 .82.918.628.628 0 1 1-.82-.918m.36-4.044a.898.898 0 0 0-.942 1.017.896.896 0 1 0 .942-1.017m3.347 1.274a.762.762 0 1 1 1.329.747.762.762 0 0 1-1.329-.747" clip-rule="evenodd"/></svg>