<svg width="80" height="101" viewBox="0 0 80 101" fill="none" xmlns="http://www.w3.org/2000/svg">
<path d="M0.526376 93.6894L0.76672 7.0926C0.773566 5.33989 1.47613 3.66146 2.72028 2.42554C3.96442 1.18961 5.64854 0.49713 7.40317 0.500009L72.874 0.681324C74.6286 0.688172 76.3089 1.38998 77.5461 2.63277C78.7834 3.87557 79.4766 5.55786 79.4737 7.31057L79.2334 93.9074C79.2265 95.6601 78.524 97.3385 77.2798 98.5745C76.0357 99.8104 74.3516 100.503 72.597 100.5L7.12613 100.319C5.37151 100.312 3.69126 99.61 2.45399 98.3672C1.21673 97.1244 0.523493 95.4421 0.526376 93.6894Z" fill="#E6E6E6"/>
<path d="M5.61918 67.5474L5.77369 11.8751C5.78007 10.2337 6.43803 8.66174 7.60322 7.50426C8.7684 6.34677 10.3457 5.69825 11.9889 5.70098L68.2556 5.85681C69.8989 5.86317 71.4726 6.5204 72.6314 7.68431C73.7901 8.84823 74.4394 10.4238 74.4368 12.0653L74.2229 89.1247C74.2165 90.7662 73.5584 92.3381 72.3932 93.4956C71.2279 94.6531 69.6507 95.3016 68.0074 95.2988L33.1513 95.2023C25.8316 95.1738 18.8222 92.2462 13.6607 87.0617C8.49917 81.8772 5.60719 74.8592 5.61918 67.5474Z" fill="white"/>
<path d="M61.8087 30.1554H17.9351C17.237 30.1554 16.5674 29.8784 16.0738 29.3852C15.5801 28.8921 15.3027 28.2233 15.3027 27.5259C15.3027 26.8285 15.5801 26.1596 16.0738 25.6665C16.5674 25.1733 17.237 24.8963 17.9351 24.8963H61.8087C62.5069 24.8963 63.1764 25.1733 63.6701 25.6665C64.1638 26.1596 64.4411 26.8285 64.4411 27.5259C64.4411 28.2233 64.1638 28.8921 63.6701 29.3852C63.1764 29.8784 62.5069 30.1554 61.8087 30.1554Z" fill="#006CFF"/>
<path d="M27.5873 18.0302H17.9351C17.237 18.0302 16.5674 17.7531 16.0738 17.26C15.5801 16.7669 15.3027 16.098 15.3027 15.4006C15.3027 14.7032 15.5801 14.0344 16.0738 13.5412C16.5674 13.0481 17.237 12.7711 17.9351 12.7711H27.5873C28.2855 12.7711 28.9551 13.0481 29.4487 13.5412C29.9424 14.0344 30.2198 14.7032 30.2198 15.4006C30.2198 16.098 29.9424 16.7669 29.4487 17.26C28.9551 17.7531 28.2855 18.0302 27.5873 18.0302Z" fill="#006CFF"/>
<path d="M61.8087 42.2807H17.9351C17.237 42.2807 16.5674 42.0036 16.0738 41.5105C15.5801 41.0174 15.3027 40.3485 15.3027 39.6511C15.3027 38.9537 15.5801 38.2849 16.0738 37.7917C16.5674 37.2986 17.237 37.0215 17.9351 37.0215H61.8087C62.5069 37.0215 63.1764 37.2986 63.6701 37.7917C64.1638 38.2849 64.4411 38.9537 64.4411 39.6511C64.4411 40.3485 64.1638 41.0174 63.6701 41.5105C63.1764 42.0036 62.5069 42.2807 61.8087 42.2807Z" fill="#006CFF"/>
<path d="M62.2218 54.4059H18.3482C17.6501 54.4059 16.9805 54.1289 16.4868 53.6357C15.9932 53.1426 15.7158 52.4738 15.7158 51.7763C15.7158 51.0789 15.9932 50.4101 16.4868 49.917C16.9805 49.4238 17.6501 49.1468 18.3482 49.1468H62.2218C62.92 49.1468 63.5895 49.4238 64.0832 49.917C64.5769 50.4101 64.8542 51.0789 64.8542 51.7763C64.8542 52.4738 64.5769 53.1426 64.0832 53.6357C63.5895 54.1289 62.92 54.4059 62.2218 54.4059Z" fill="#006CFF"/>
<path d="M58.2605 86.2462C64.0454 86.2462 68.7349 81.5617 68.7349 75.7831C68.7349 70.0046 64.0454 65.3201 58.2605 65.3201C52.4757 65.3201 47.7861 70.0046 47.7861 75.7831C47.7861 81.5617 52.4757 86.2462 58.2605 86.2462Z" fill="#006CFF"/>
<path d="M56.8301 81.3376C56.6492 81.3376 56.4708 81.2955 56.309 81.2147C56.1473 81.1339 56.0066 81.0165 55.8981 80.8719L53.0405 77.0659C52.9485 76.9436 52.8815 76.8045 52.8433 76.6563C52.8052 76.5082 52.7967 76.354 52.8183 76.2026C52.8398 76.0511 52.8911 75.9054 52.969 75.7738C53.047 75.6422 53.1502 75.5272 53.2727 75.4354C53.3952 75.3436 53.5346 75.2769 53.683 75.239C53.8313 75.2011 53.9857 75.1927 54.1373 75.2144C54.2888 75.2362 54.4346 75.2875 54.5663 75.3656C54.698 75.4437 54.813 75.5469 54.9047 75.6694L56.7742 78.1592L61.5759 70.9646C61.6605 70.8369 61.7695 70.7272 61.8967 70.6417C62.0239 70.5562 62.1667 70.4966 62.317 70.4663C62.4673 70.436 62.6221 70.4357 62.7726 70.4653C62.923 70.4949 63.0661 70.5539 63.1936 70.6388C63.3212 70.7238 63.4307 70.833 63.5159 70.9603C63.6012 71.0876 63.6604 71.2305 63.6902 71.3807C63.72 71.531 63.7199 71.6856 63.6898 71.8358C63.6597 71.9859 63.6002 72.1287 63.5148 72.2559L57.7996 80.8193C57.6962 80.9741 57.5572 81.102 57.3942 81.1921C57.2311 81.2822 57.0488 81.332 56.8625 81.3372C56.8517 81.3374 56.8409 81.3376 56.8301 81.3376Z" fill="white"/>
<path fill-rule="evenodd" clip-rule="evenodd" d="M26.9822 66.5728C27.1061 66.5799 27.2293 66.55 27.3363 66.4871C27.4433 66.4242 27.5291 66.331 27.5831 66.2193C27.637 66.1076 27.6565 65.9825 27.6392 65.8597C27.6219 65.7369 27.5686 65.622 27.4859 65.5295C27.4032 65.437 27.2949 65.3711 27.1748 65.3401C27.0546 65.3091 26.9279 65.3144 26.8107 65.3553C26.6935 65.3962 26.5912 65.471 26.5165 65.57C26.4418 65.6691 26.3983 65.7881 26.3913 65.9119C26.382 66.0777 26.439 66.2406 26.5498 66.3645C26.6606 66.4884 26.8161 66.5634 26.9822 66.5728ZM32.4432 66.8831C32.3456 66.884 32.25 66.8559 32.1683 66.8025C32.059 66.7309 31.9826 66.6189 31.9559 66.491C31.9291 66.3632 31.9543 66.23 32.0258 66.1207C32.0792 66.0391 32.1557 65.9751 32.2454 65.9369C32.3352 65.8987 32.4344 65.888 32.5303 65.906C32.6262 65.9241 32.7146 65.9702 32.7842 66.0385C32.8539 66.1068 32.9018 66.1941 32.9217 66.2896C32.9417 66.385 32.9328 66.4842 32.8963 66.5746C32.8598 66.6651 32.7973 66.7426 32.7166 66.7975C32.636 66.8524 32.5408 66.8822 32.4432 66.8831ZM21.8253 66.8541C21.9119 66.8097 21.9834 66.7407 22.0308 66.6557C22.0782 66.5708 22.0994 66.4738 22.0918 66.3768C22.0841 66.2799 22.0479 66.1874 21.9877 66.111C21.9275 66.0346 21.846 65.9776 21.7535 65.9474C21.661 65.9171 21.5616 65.9149 21.4678 65.9409C21.374 65.967 21.2901 66.0201 21.2265 66.0938C21.1629 66.1674 21.1225 66.2581 21.1104 66.3546C21.0984 66.4511 21.1151 66.549 21.1587 66.636C21.1879 66.6942 21.2284 66.7461 21.2778 66.7886C21.3272 66.8311 21.3846 66.8634 21.4465 66.8837C21.5085 66.904 21.5739 66.9118 21.6389 66.9067C21.7039 66.9016 21.7673 66.8837 21.8253 66.8541ZM21.9229 75.6952C21.8997 76.0992 22.0379 76.4959 22.3073 76.798C22.5767 77.1002 22.9552 77.2832 23.3596 77.3068H23.4429C23.7407 77.3065 24.0319 77.2191 24.2806 77.0553C24.5292 76.8916 24.7244 76.6587 24.8421 76.3854C24.9598 76.1121 24.9948 75.8104 24.9428 75.5175C24.8908 75.2246 24.7541 74.9533 24.5495 74.7371C24.3449 74.5209 24.0814 74.3692 23.7916 74.3009C23.5017 74.2325 23.1982 74.2504 22.9184 74.3524C22.6386 74.4544 22.3949 74.636 22.2172 74.8748C22.0396 75.1136 21.9358 75.3991 21.9187 75.6961L21.9229 75.6952ZM16.236 75.3091C16.1388 75.3036 16.0421 75.3271 15.9583 75.3765C15.8744 75.4259 15.8071 75.4991 15.7648 75.5867C15.7225 75.6743 15.7072 75.7725 15.7208 75.8688C15.7344 75.9652 15.7762 76.0553 15.8411 76.1279C15.9059 76.2004 15.9909 76.2522 16.0851 76.2765C16.1794 76.3009 16.2788 76.2968 16.3707 76.2648C16.4627 76.2327 16.543 76.1742 16.6017 76.0965C16.6603 76.0189 16.6946 75.9256 16.7002 75.8285C16.704 75.7639 16.695 75.6992 16.6738 75.6381C16.6525 75.577 16.6193 75.5207 16.5762 75.4724C16.5331 75.4241 16.4808 75.3849 16.4224 75.3568C16.364 75.3288 16.3007 75.3126 16.236 75.3091ZM23.6929 69.2447C23.6188 69.3756 23.5074 69.4817 23.3729 69.5495C23.2836 69.5945 23.1862 69.6215 23.0864 69.6289C22.9866 69.6363 22.8864 69.624 22.7913 69.5927C22.6963 69.5614 22.6084 69.5117 22.5326 69.4464C22.4568 69.3812 22.3946 69.3016 22.3496 69.2123C22.2819 69.078 22.2555 68.9265 22.2739 68.7772C22.2923 68.6279 22.3546 68.4873 22.453 68.3734C22.5513 68.2594 22.6813 68.1771 22.8264 68.137C22.9716 68.0968 23.1254 68.1005 23.2685 68.1476C23.4115 68.1947 23.5373 68.2832 23.6301 68.4017C23.7228 68.5203 23.7783 68.6636 23.7895 68.8137C23.8006 68.9637 23.767 69.1137 23.6929 69.2447ZM18.1657 71.4032C18.2694 71.4713 18.391 71.5072 18.5152 71.5062C18.6393 71.5053 18.7604 71.4676 18.8631 71.3979C18.9658 71.3282 19.0455 71.2297 19.0921 71.1147C19.1387 70.9998 19.1501 70.8736 19.1249 70.7522C19.0997 70.6308 19.039 70.5195 18.9505 70.4326C18.862 70.3456 18.7497 70.2868 18.6277 70.2637C18.5057 70.2405 18.3796 70.254 18.2653 70.3024C18.1511 70.3508 18.0537 70.4321 17.9857 70.5358C17.8945 70.6747 17.8623 70.844 17.896 71.0067C17.9298 71.1693 18.0267 71.3119 18.1657 71.4032ZM18.6629 75.1361C18.7927 75.0597 18.9422 75.0235 19.0925 75.032C19.2943 75.0436 19.4832 75.1347 19.6177 75.2853C19.7522 75.4359 19.8214 75.6337 19.8101 75.8353C19.8014 75.9855 19.7484 76.1297 19.6577 76.2498C19.567 76.3699 19.4426 76.4605 19.3004 76.51C19.1582 76.5596 19.0045 76.5659 18.8587 76.5282C18.7129 76.4905 18.5816 76.4104 18.4813 76.2982C18.381 76.1859 18.3163 76.0465 18.2954 75.8975C18.2744 75.7485 18.2981 75.5966 18.3636 75.4611C18.429 75.3256 18.5332 75.2125 18.6629 75.1361ZM18.25 80.1472C18.1393 80.2031 18.0476 80.2905 17.9866 80.3985C17.9256 80.5064 17.898 80.63 17.9073 80.7536C17.9166 80.8772 17.9624 80.9953 18.0389 81.0929C18.1153 81.1905 18.2191 81.2633 18.3369 81.302C18.4548 81.3408 18.5815 81.3437 18.7011 81.3106C18.8206 81.2774 18.9276 81.2095 19.0086 81.1156C19.0896 81.0217 19.1408 80.9059 19.1559 80.7828C19.171 80.6598 19.1492 80.5351 19.0934 80.4244C19.0562 80.3508 19.005 80.2853 18.9425 80.2316C18.88 80.1778 18.8075 80.1369 18.7292 80.1112C18.6509 80.0855 18.5682 80.0754 18.486 80.0816C18.4038 80.0877 18.3236 80.11 18.25 80.1472ZM21.7094 73.6058C21.532 73.6074 21.3582 73.5564 21.2099 73.4593C21.1113 73.3949 21.0264 73.3117 20.96 73.2145C20.8937 73.1172 20.8472 73.0079 20.8232 72.8927C20.7992 72.7775 20.7982 72.6586 20.8202 72.543C20.8422 72.4274 20.8869 72.3173 20.9516 72.219C21.0488 72.0708 21.1878 71.9548 21.3511 71.8856C21.5143 71.8164 21.6944 71.7971 21.8687 71.8302C22.0429 71.8632 22.2034 71.9471 22.3299 72.0713C22.4564 72.1954 22.5432 72.3543 22.5793 72.5277C22.6154 72.7011 22.5992 72.8814 22.5328 73.0456C22.4664 73.2099 22.3527 73.3507 22.2061 73.4505C22.0596 73.5502 21.8867 73.6042 21.7094 73.6058ZM30.6038 69.4897C30.7301 69.572 30.8779 69.615 31.0287 69.6134C31.1795 69.6117 31.3264 69.5655 31.4508 69.4804C31.5753 69.3954 31.6717 69.2754 31.7279 69.1357C31.7841 68.9959 31.7976 68.8427 31.7666 68.6953C31.7356 68.5479 31.6616 68.4129 31.5539 68.3076C31.4461 68.2022 31.3095 68.1311 31.1614 68.1032C31.0132 68.0754 30.8601 68.092 30.7214 68.1511C30.5827 68.2101 30.4646 68.3089 30.3821 68.435C30.3272 68.5188 30.2893 68.6125 30.2707 68.7109C30.2522 68.8093 30.2532 68.9103 30.2738 69.0083C30.2944 69.1063 30.3341 69.1993 30.3908 69.2819C30.4474 69.3645 30.5198 69.4351 30.6038 69.4897ZM30.7233 74.2452C30.5233 74.2337 30.323 74.2617 30.1338 74.3275C29.9446 74.3934 29.7703 74.4958 29.6208 74.629C29.3188 74.8979 29.136 75.2756 29.1128 75.6791C29.0896 76.0825 29.2278 76.4787 29.497 76.7804C29.7662 77.0821 30.1444 77.2646 30.5483 77.2877H30.6366C30.9308 77.2876 31.2187 77.2024 31.4656 77.0425C31.7125 76.8826 31.9078 76.6548 32.0279 76.3865C32.1481 76.1182 32.188 75.8209 32.1428 75.5305C32.0976 75.24 31.9693 74.9689 31.7733 74.7496C31.6406 74.6001 31.4793 74.4785 31.2991 74.3919C31.1188 74.3053 30.9231 74.2554 30.7233 74.2452ZM24.4373 73.9669C24.1964 73.8188 24.0017 73.6065 23.8751 73.3538C23.7587 73.1216 23.7036 72.8636 23.715 72.6042C23.7264 72.3447 23.804 72.0925 23.9405 71.8715C24.0769 71.6504 24.2675 71.4678 24.4944 71.341C24.7213 71.2142 24.9768 71.1475 25.2368 71.147C25.519 71.1457 25.796 71.2228 26.0368 71.3699C26.2776 71.5169 26.4726 71.728 26.6001 71.9795C26.7179 72.2119 26.7741 72.4705 26.7633 72.7308C26.7526 72.991 26.6752 73.2442 26.5387 73.4661C26.4021 73.688 26.2109 73.8713 25.9833 73.9983C25.7556 74.1254 25.4992 74.1921 25.2384 74.1921C24.9556 74.193 24.6781 74.115 24.4373 73.9669ZM35.8347 71.4016C35.9454 71.3457 36.0372 71.2583 36.0982 71.1505C36.1593 71.0426 36.187 70.919 36.1778 70.7954C36.1685 70.6718 36.1229 70.5537 36.0465 70.4561C35.9701 70.3584 35.8665 70.2856 35.7486 70.2467C35.6308 70.2079 35.5041 70.2048 35.3846 70.2378C35.265 70.2709 35.1579 70.3386 35.0769 70.4325C34.9958 70.5263 34.9444 70.6421 34.9292 70.7651C34.914 70.8881 34.9356 71.0128 34.9913 71.1235C35.0663 71.272 35.1973 71.3847 35.3554 71.4369C35.5135 71.489 35.6859 71.4763 35.8347 71.4016ZM31.589 72.2458C31.6763 72.0916 31.8075 71.9668 31.9659 71.8871C32.0711 71.8341 32.1856 71.8023 32.3031 71.7936C32.4206 71.7848 32.5386 71.7993 32.6504 71.8362C32.7623 71.8731 32.8658 71.9316 32.9549 72.0085C33.0441 72.0854 33.1172 72.179 33.1701 72.2842C33.2499 72.4424 33.2809 72.6207 33.2592 72.7965C33.2375 72.9723 33.1642 73.1378 33.0484 73.272C32.9326 73.4061 32.7795 73.503 32.6086 73.5503C32.4377 73.5976 32.2566 73.5932 32.0882 73.5376C31.9198 73.4821 31.7716 73.3779 31.6625 73.2383C31.5533 73.0987 31.4881 72.9298 31.475 72.7532C31.4619 72.5765 31.5016 72.3999 31.589 72.2458ZM27.4834 70.3949C27.3307 70.4849 27.1547 70.5276 26.9777 70.5177C26.7402 70.5042 26.5177 70.397 26.3592 70.2197C26.2008 70.0423 26.1193 69.8094 26.1327 69.5721C26.1429 69.3953 26.2053 69.2254 26.3121 69.0841C26.4188 68.9427 26.5652 68.8361 26.7326 68.7777C26.9 68.7194 27.0809 68.7119 27.2525 68.7563C27.4242 68.8007 27.5788 68.8949 27.6969 69.027C27.8149 69.1591 27.8911 69.3232 27.9158 69.4986C27.9406 69.674 27.9127 69.8527 27.8357 70.0123C27.7587 70.1718 27.6362 70.305 27.4834 70.3949ZM22.1171 79.6613C22.2755 79.5815 22.4066 79.4566 22.4939 79.3024C22.5812 79.1482 22.6208 78.9716 22.6076 78.7949C22.5944 78.6182 22.5291 78.4494 22.4199 78.3098C22.3106 78.1702 22.1624 78.0662 21.994 78.0107C21.8255 77.9553 21.6444 77.951 21.4735 77.9984C21.3026 78.0458 21.1496 78.1428 21.0339 78.2771C20.9182 78.4113 20.8449 78.5769 20.8234 78.7527C20.8018 78.9286 20.833 79.1069 20.9129 79.265C21.02 79.477 21.2071 79.6379 21.4329 79.7122C21.6587 79.7865 21.9048 79.7682 22.1171 79.6613ZM27.3103 72.7831C27.2827 72.4452 27.3687 72.1079 27.5547 71.8244C27.6937 71.6127 27.8833 71.439 28.1063 71.3188C28.3293 71.1986 28.5788 71.1358 28.8322 71.136C29.1715 71.1364 29.501 71.2498 29.7685 71.4584C30.036 71.6669 30.2262 71.9586 30.3091 72.2873C30.3919 72.616 30.3627 72.9629 30.226 73.2731C30.0893 73.5833 29.8529 73.8391 29.5543 74C29.2557 74.1609 28.9118 74.2178 28.5772 74.1616C28.2426 74.1053 27.9363 73.9392 27.7069 73.6896C27.4774 73.4399 27.3378 73.1209 27.3103 72.7831ZM30.2063 78.1953C30.0841 77.9533 29.8995 77.7482 29.6715 77.6012C29.4435 77.4543 29.1804 77.3707 28.9093 77.3592C28.6382 77.3478 28.3689 77.4087 28.1293 77.5359C27.8896 77.663 27.6883 77.8518 27.546 78.0826C27.4037 78.3134 27.3257 78.5779 27.32 78.8489C27.3142 79.1199 27.3809 79.3876 27.5133 79.6242C27.6456 79.8608 27.8388 80.0579 28.0728 80.1951C28.3068 80.3323 28.5733 80.4046 28.8446 80.4046C29.0833 80.403 29.3184 80.346 29.5313 80.2381C29.8914 80.056 30.1646 79.7388 30.2911 79.356C30.4176 78.9731 30.3871 78.5558 30.2063 78.1953ZM32.3743 77.9419C32.5516 77.9405 32.7254 77.9916 32.8737 78.0888C33.0721 78.2195 33.2106 78.4234 33.2589 78.6558C33.3072 78.8883 33.2612 79.1304 33.1312 79.3291C33.0338 79.4772 32.8947 79.5932 32.7315 79.6623C32.5682 79.7314 32.388 79.7506 32.2138 79.7175C32.0396 79.6843 31.8791 79.6003 31.7527 79.4761C31.6263 79.3518 31.5396 79.1929 31.5036 79.0195C31.4676 78.846 31.4839 78.6658 31.5504 78.5016C31.6169 78.3373 31.7307 78.1965 31.8774 78.0969C32.024 77.9973 32.197 77.9434 32.3743 77.9419ZM35.7949 75.8003C35.8034 75.6501 35.7671 75.5008 35.6906 75.3712C35.6141 75.2416 35.5009 75.1375 35.3653 75.0721C35.2296 75.0068 35.0776 74.9831 34.9284 75.004C34.7793 75.025 34.6397 75.0896 34.5273 75.1897C34.4149 75.2899 34.3348 75.4211 34.2971 75.5667C34.2593 75.7124 34.2656 75.8659 34.3152 76.008C34.3648 76.1501 34.4555 76.2742 34.5757 76.3648C34.6959 76.4555 34.8403 76.5084 34.9907 76.5171C35.1925 76.5284 35.3905 76.4593 35.5413 76.3249C35.6921 76.1905 35.7833 76.0019 35.7949 75.8003ZM37.6246 75.3257C37.7087 75.2763 37.8056 75.2529 37.903 75.2585C38.0335 75.2663 38.1557 75.3254 38.2427 75.4229C38.3297 75.5204 38.3744 75.6484 38.3672 75.7788C38.3616 75.8761 38.3272 75.9696 38.2684 76.0474C38.2096 76.1252 38.1291 76.1838 38.0369 76.2159C37.9448 76.248 37.8452 76.252 37.7508 76.2275C37.6563 76.2031 37.5713 76.1512 37.5063 76.0784C37.4414 76.0056 37.3996 75.9153 37.386 75.8187C37.3725 75.7222 37.388 75.6238 37.4305 75.5361C37.4729 75.4483 37.5405 75.3751 37.6246 75.3257ZM35.9164 80.145C35.8125 80.0771 35.6909 80.0415 35.5668 80.0426C35.4428 80.0437 35.3218 80.0816 35.2192 80.1513C35.1167 80.2211 35.0372 80.3197 34.9907 80.4347C34.9442 80.5496 34.9329 80.6757 34.9582 80.7971C34.9835 80.9184 35.0442 81.0296 35.1327 81.1164C35.2212 81.2033 35.3335 81.2621 35.4554 81.2852C35.5773 81.3083 35.7033 81.2948 35.8176 81.2464C35.9318 81.198 36.0291 81.1169 36.0972 81.0133C36.1424 80.9444 36.1736 80.8673 36.189 80.7864C36.2044 80.7055 36.2037 80.6223 36.1869 80.5417C36.1701 80.4611 36.1376 80.3845 36.0911 80.3165C36.0447 80.2484 35.9853 80.1901 35.9164 80.145ZM21.6411 84.6649C21.7387 84.6641 21.8343 84.6922 21.9158 84.7457C21.97 84.7812 22.0167 84.827 22.0531 84.8806C22.0896 84.9341 22.1151 84.9943 22.1283 85.0577C22.1414 85.1211 22.1419 85.1864 22.1298 85.25C22.1177 85.3136 22.0931 85.3742 22.0575 85.4283C22.0039 85.5097 21.9274 85.5735 21.8376 85.6115C21.7477 85.6495 21.6486 85.66 21.5528 85.6418C21.457 85.6235 21.3687 85.5773 21.2992 85.509C21.2296 85.4406 21.1819 85.3532 21.1621 85.2578C21.1423 85.1623 21.1513 85.0632 21.1879 84.9728C21.2245 84.8825 21.2871 84.805 21.3678 84.7502C21.4484 84.6954 21.5436 84.6657 21.6411 84.6649ZM32.2579 84.694C32.1707 84.7379 32.0986 84.8066 32.0505 84.8914C32.0025 84.9763 31.9807 85.0735 31.9879 85.1707C31.9952 85.2679 32.0311 85.3607 32.0912 85.4375C32.1513 85.5144 32.2328 85.5716 32.3255 85.6021C32.4182 85.6326 32.5178 85.635 32.6118 85.6089C32.7059 85.5829 32.79 85.5295 32.8537 85.4557C32.9174 85.3818 32.9577 85.2908 32.9696 85.194C32.9814 85.0973 32.9643 84.9992 32.9204 84.9121C32.8913 84.8543 32.851 84.8028 32.802 84.7605C32.7529 84.7182 32.696 84.686 32.6344 84.6657C32.5729 84.6455 32.5079 84.6375 32.4433 84.6424C32.3787 84.6473 32.3157 84.6648 32.2579 84.694ZM26.7708 78.762C26.7984 79.0998 26.7124 79.4372 26.5264 79.7208C26.3881 79.9329 26.1988 80.107 25.9758 80.2273C25.7528 80.3475 25.5032 80.4101 25.2498 80.4092C24.9104 80.4089 24.5808 80.2956 24.3132 80.0872C24.0456 79.8788 23.8552 79.5872 23.7722 79.2585C23.6892 78.9298 23.7183 78.5828 23.8549 78.2726C23.9915 77.9623 24.2278 77.7063 24.5265 77.5453C24.8251 77.3843 25.1689 77.3274 25.5036 77.3835C25.8382 77.4397 26.1446 77.6058 26.3741 77.8554C26.6036 78.1051 26.7433 78.4241 26.7708 78.762ZM23.4798 82.0594C23.3537 81.9771 23.2061 81.9339 23.0555 81.9353C22.9049 81.9368 22.7581 81.9828 22.6336 82.0676C22.5092 82.1523 22.4127 82.272 22.3564 82.4116C22.3001 82.5511 22.2864 82.7042 22.3172 82.8515C22.3479 82.9987 22.4217 83.1336 22.5291 83.239C22.6366 83.3444 22.7729 83.4156 22.9209 83.4437C23.0689 83.4717 23.2219 83.4553 23.3605 83.3965C23.4991 83.3377 23.6172 83.2391 23.6998 83.1133C23.8104 82.9444 23.8493 82.7385 23.8081 82.5409C23.7668 82.3433 23.6487 82.1701 23.4798 82.0594ZM26.681 85.0748C26.7879 85.0119 26.9111 84.9821 27.035 84.9891C27.1173 84.9938 27.1979 85.0146 27.2721 85.0504C27.3463 85.0862 27.4128 85.1363 27.4677 85.1977C27.5225 85.2592 27.5647 85.3308 27.5919 85.4086C27.619 85.4864 27.6305 85.5687 27.6258 85.6509C27.6187 85.7747 27.575 85.8935 27.5003 85.9925C27.4255 86.0914 27.3231 86.166 27.2059 86.2068C27.0887 86.2476 26.9621 86.2528 26.8419 86.2217C26.7218 86.1906 26.6136 86.1247 26.531 86.0321C26.4484 85.9396 26.3951 85.8247 26.3779 85.702C26.3607 85.5792 26.3803 85.4541 26.4342 85.3425C26.4882 85.2308 26.574 85.1377 26.681 85.0748ZM27.0412 81.0315C26.8641 81.0207 26.6877 81.0628 26.5344 81.1522C26.3812 81.2417 26.258 81.3745 26.1804 81.534C26.1028 81.6935 26.0743 81.8724 26.0986 82.048C26.1229 82.2237 26.1988 82.3881 26.3167 82.5207C26.4346 82.6532 26.5893 82.7477 26.7611 82.7924C26.9328 82.837 27.114 82.8298 27.2816 82.7715C27.4493 82.7132 27.5958 82.6065 27.7027 82.4649C27.8096 82.3234 27.872 82.1533 27.8821 81.9763C27.8958 81.7397 27.8149 81.5073 27.6573 81.3302C27.4996 81.1531 27.2781 81.0457 27.0412 81.0315ZM30.3882 82.3049C30.4621 82.1735 30.5734 82.067 30.7079 81.9988C30.797 81.9534 30.8942 81.926 30.994 81.9181C31.0937 81.9103 31.194 81.9222 31.2891 81.9531C31.3843 81.984 31.4724 82.0334 31.5484 82.0984C31.6244 82.1634 31.6868 82.2427 31.7321 82.3318C31.8007 82.466 31.8279 82.6176 31.8102 82.7673C31.7925 82.917 31.7308 83.058 31.6328 83.1727C31.5348 83.2873 31.405 83.3703 31.2598 83.4112C31.1145 83.4521 30.9604 83.449 30.8169 83.4023C30.6735 83.3557 30.5471 83.2676 30.4537 83.1491C30.3604 83.0307 30.3044 82.8872 30.2927 82.737C30.281 82.5867 30.3143 82.4363 30.3882 82.3049Z" fill="#006CFF"/>
</svg>
