<svg width="30" height="30" viewBox="0 0 30 30" fill="none" xmlns="http://www.w3.org/2000/svg">
<rect width="30" height="30" rx="15" fill="url(#paint0_linear_721_12022)"/>
<path d="M21.6793 10.2894C21.5867 10.1977 21.4765 10.1249 21.3551 10.0752C21.2337 10.0256 21.1035 10 20.972 10C20.8405 10 20.7103 10.0256 20.5889 10.0752C20.4675 10.1249 20.3574 10.1977 20.2647 10.2894L12.8433 17.5877L9.72529 14.5157C9.62913 14.4245 9.51563 14.3528 9.39125 14.3047C9.26688 14.2565 9.13406 14.2329 9.0004 14.2352C8.86673 14.2375 8.73483 14.2656 8.61222 14.3179C8.48961 14.3702 8.3787 14.4458 8.28582 14.5402C8.19294 14.6346 8.11991 14.7461 8.07089 14.8682C8.02188 14.9904 7.99784 15.1208 8.00015 15.2521C8.00246 15.3834 8.03108 15.5129 8.08437 15.6333C8.13766 15.7537 8.21458 15.8626 8.31073 15.9539L12.136 19.7106C12.2286 19.8023 12.3388 19.8751 12.4602 19.9248C12.5816 19.9744 12.7118 20 12.8433 20C12.9748 20 13.105 19.9744 13.2264 19.9248C13.3478 19.8751 13.458 19.8023 13.5506 19.7106L21.6793 11.7275C21.7804 11.6359 21.8611 11.5247 21.9163 11.401C21.9715 11.2772 22 11.1436 22 11.0085C22 10.8733 21.9715 10.7397 21.9163 10.6159C21.8611 10.4922 21.7804 10.381 21.6793 10.2894Z" fill="white"/>
<defs>
<linearGradient id="paint0_linear_721_12022" x1="15" y1="30" x2="15" y2="0" gradientUnits="userSpaceOnUse">
<stop stop-color="#5A9C56"/>
<stop offset="1" stop-color="#184C78"/>
</linearGradient>
</defs>
</svg>
