<svg width="24" height="25" viewBox="0 0 24 25" fill="none" xmlns="http://www.w3.org/2000/svg">
<path d="M12 2.5C10.0222 2.5 8.08879 3.08649 6.4443 4.1853C4.79981 5.28412 3.51809 6.8459 2.76121 8.67317C2.00433 10.5004 1.8063 12.5111 2.19215 14.4509C2.578 16.3907 3.53041 18.1725 4.92894 19.5711C6.32746 20.9696 8.10929 21.922 10.0491 22.3079C11.9889 22.6937 13.9996 22.4957 15.8268 21.7388C17.6541 20.9819 19.2159 19.7002 20.3147 18.0557C21.4135 16.4112 22 14.4778 22 12.5C22 11.1868 21.7413 9.88642 21.2388 8.67317C20.7363 7.45991 19.9997 6.35752 19.0711 5.42893C18.1425 4.50035 17.0401 3.76375 15.8268 3.2612C14.6136 2.75866 13.3132 2.5 12 2.5Z" fill="#1EC198"/>
<path d="M16.9681 8.7491C16.9356 8.8763 16.8782 8.99585 16.7994 9.1009L10.7994 17.1005C10.7135 17.2151 10.6039 17.3099 10.4781 17.3784C10.3523 17.447 10.2132 17.4877 10.0703 17.4979C9.92745 17.508 9.78404 17.4873 9.64983 17.4372C9.51561 17.3871 9.39373 17.3088 9.29243 17.2075L6.29243 14.2077C6.11027 14.0191 6.00948 13.7665 6.01176 13.5043C6.01403 13.2421 6.1192 12.9913 6.30461 12.8059C6.49002 12.6205 6.74083 12.5153 7.00303 12.5131C7.26523 12.5108 7.51783 12.6116 7.70643 12.7937L9.89143 14.9786L15.1994 7.90096C15.2782 7.7959 15.3769 7.7074 15.4899 7.6405C15.6029 7.57359 15.728 7.5296 15.858 7.51103C15.988 7.49246 16.1204 7.49967 16.2476 7.53226C16.3748 7.56485 16.4944 7.62218 16.5994 7.70097C16.7045 7.77976 16.793 7.87847 16.8599 7.99146C16.9268 8.10445 16.9708 8.22952 16.9894 8.35951C17.008 8.48951 17.0007 8.62189 16.9681 8.7491Z" fill="#24262E"/>
</svg>
