<svg width="30" height="30" viewBox="0 0 30 30" fill="none" xmlns="http://www.w3.org/2000/svg">
<path d="M18.4 10.9875L13.0375 16.3625L10.975 14.3C10.8629 14.1691 10.725 14.0629 10.57 13.9878C10.4149 13.9128 10.246 13.8707 10.0738 13.864C9.90167 13.8574 9.73001 13.8864 9.5696 13.9492C9.40919 14.012 9.26351 14.1074 9.14169 14.2292C9.01987 14.351 8.92455 14.4967 8.86171 14.6571C8.79887 14.8175 8.76986 14.9892 8.77651 15.1613C8.78316 15.3335 8.82532 15.5024 8.90035 15.6575C8.97538 15.8125 9.08165 15.9504 9.21251 16.0625L12.15 19.0125C12.2668 19.1284 12.4053 19.22 12.5576 19.2822C12.7099 19.3444 12.873 19.376 13.0375 19.375C13.3654 19.3736 13.6797 19.2434 13.9125 19.0125L20.1625 12.7625C20.2797 12.6463 20.3727 12.508 20.4361 12.3557C20.4996 12.2034 20.5323 12.04 20.5323 11.875C20.5323 11.71 20.4996 11.5466 20.4361 11.3943C20.3727 11.242 20.2797 11.1037 20.1625 10.9875C19.9283 10.7547 19.6115 10.624 19.2813 10.624C18.951 10.624 18.6342 10.7547 18.4 10.9875ZM15 2.5C12.5277 2.5 10.111 3.23311 8.05538 4.60663C5.99976 5.98015 4.39761 7.93238 3.45151 10.2165C2.50542 12.5005 2.25787 15.0139 2.74019 17.4386C3.2225 19.8634 4.41301 22.0907 6.16117 23.8388C7.90933 25.587 10.1366 26.7775 12.5614 27.2598C14.9861 27.7421 17.4995 27.4946 19.7836 26.5485C22.0676 25.6024 24.0199 24.0002 25.3934 21.9446C26.7669 19.889 27.5 17.4723 27.5 15C27.5 13.3585 27.1767 11.733 26.5485 10.2165C25.9203 8.69989 24.9996 7.3219 23.8388 6.16117C22.6781 5.00043 21.3001 4.07969 19.7836 3.45151C18.267 2.82332 16.6415 2.5 15 2.5ZM15 25C13.0222 25 11.0888 24.4135 9.4443 23.3147C7.79981 22.2159 6.51809 20.6541 5.76121 18.8268C5.00433 16.9996 4.8063 14.9889 5.19215 13.0491C5.57801 11.1093 6.53041 9.32746 7.92894 7.92893C9.32746 6.53041 11.1093 5.578 13.0491 5.19215C14.9889 4.8063 16.9996 5.00433 18.8268 5.7612C20.6541 6.51808 22.2159 7.79981 23.3147 9.4443C24.4135 11.0888 25 13.0222 25 15C25 17.6522 23.9464 20.1957 22.0711 22.0711C20.1957 23.9464 17.6522 25 15 25Z" fill="white"/>
</svg>
