<svg width="18" height="18" viewBox="0 0 18 18" fill="none" xmlns="http://www.w3.org/2000/svg">
<circle cx="9" cy="9" r="9" fill="#6C6F89"/>
<path d="M8.99972 8.46425C8.85764 8.46425 8.72138 8.52069 8.62092 8.62116C8.52045 8.72162 8.46401 8.85789 8.46401 8.99997V11.1428C8.46401 11.2849 8.52045 11.4212 8.62092 11.5216C8.72138 11.6221 8.85764 11.6785 8.99972 11.6785C9.1418 11.6785 9.27806 11.6221 9.37853 11.5216C9.479 11.4212 9.53544 11.2849 9.53544 11.1428V8.99997C9.53544 8.85789 9.479 8.72162 9.37853 8.62116C9.27806 8.52069 9.1418 8.46425 8.99972 8.46425ZM9.20329 6.36425C9.07287 6.31067 8.92658 6.31067 8.79615 6.36425C8.73039 6.38975 8.67031 6.42798 8.61937 6.47675C8.57205 6.52882 8.534 6.58862 8.50687 6.65354C8.47688 6.71711 8.4622 6.78684 8.46401 6.85711C8.4636 6.92761 8.47712 6.9975 8.50377 7.06277C8.53043 7.12804 8.56972 7.18741 8.61937 7.23747C8.67144 7.28479 8.73123 7.32284 8.79615 7.34997C8.87731 7.38331 8.96542 7.39621 9.05273 7.38753C9.14004 7.37884 9.22389 7.34885 9.29689 7.30018C9.3699 7.25151 9.42983 7.18565 9.47142 7.1084C9.51302 7.03114 9.535 6.94485 9.53544 6.85711C9.53346 6.71527 9.47797 6.57941 9.38008 6.47675C9.32913 6.42798 9.26905 6.38975 9.20329 6.36425ZM8.99972 3.64282C7.94018 3.64282 6.90443 3.95701 6.02345 4.54566C5.14248 5.13431 4.45584 5.97099 4.05037 6.94988C3.6449 7.92877 3.53881 9.00591 3.74552 10.0451C3.95222 11.0843 4.46244 12.0388 5.21165 12.788C5.96086 13.5372 6.91541 14.0475 7.9546 14.2542C8.99378 14.4609 10.0709 14.3548 11.0498 13.9493C12.0287 13.5439 12.8654 12.8572 13.454 11.9762C14.0427 11.0953 14.3569 10.0595 14.3569 8.99997C14.3569 8.29646 14.2183 7.59983 13.9491 6.94988C13.6799 6.29992 13.2853 5.70935 12.7878 5.21189C12.2903 4.71444 11.6998 4.31983 11.0498 4.05061C10.3999 3.78139 9.70323 3.64282 8.99972 3.64282ZM8.99972 13.2857C8.15209 13.2857 7.32349 13.0343 6.61871 12.5634C5.91393 12.0925 5.36462 11.4231 5.04024 10.64C4.71586 9.85693 4.63099 8.99521 4.79636 8.16386C4.96172 7.33252 5.3699 6.56888 5.96927 5.96951C6.56863 5.37014 7.33227 4.96197 8.16362 4.7966C8.99497 4.63123 9.85668 4.71611 10.6398 5.04048C11.4229 5.36486 12.0922 5.91417 12.5632 6.61895C13.0341 7.32373 13.2854 8.15233 13.2854 8.99997C13.2854 10.1366 12.8339 11.2267 12.0302 12.0304C11.2265 12.8342 10.1364 13.2857 8.99972 13.2857Z" fill="#F6F9FF"/>
</svg>
