<svg width="21" height="21" viewBox="0 0 21 21" xmlns="http://www.w3.org/2000/svg">
<path d="M10.5003 0.916016C8.04353 0.923023 5.68325 1.87331 3.90699 3.5706V1.87435C3.90699 1.62018 3.80603 1.37643 3.6263 1.1967C3.44658 1.01698 3.20282 0.916016 2.94866 0.916016C2.69449 0.916016 2.45074 1.01698 2.27101 1.1967C2.09129 1.37643 1.99033 1.62018 1.99033 1.87435V6.18685C1.99033 6.44101 2.09129 6.68477 2.27101 6.86449C2.45074 7.04422 2.69449 7.14518 2.94866 7.14518H7.26116C7.51532 7.14518 7.75908 7.04422 7.9388 6.86449C8.11852 6.68477 8.21949 6.44101 8.21949 6.18685C8.21949 5.93268 8.11852 5.68893 7.9388 5.5092C7.75908 5.32948 7.51532 5.22852 7.26116 5.22852H4.96116C6.19336 3.94086 7.83568 3.12273 9.60575 2.91478C11.3758 2.70684 13.163 3.12208 14.6601 4.0891C16.1572 5.05613 17.2706 6.51452 17.8089 8.21352C18.3472 9.91253 18.2767 11.746 17.6096 13.3987C16.9426 15.0514 15.7205 16.42 14.1536 17.2693C12.5868 18.1186 10.773 18.3955 9.02407 18.0523C7.27518 17.7091 5.70048 16.7674 4.57073 15.389C3.44097 14.0105 2.82675 12.2816 2.83366 10.4993C2.83366 10.2452 2.73269 10.0014 2.55297 9.8217C2.37325 9.64198 2.12949 9.54102 1.87533 9.54102C1.62116 9.54102 1.3774 9.64198 1.19768 9.8217C1.01796 10.0014 0.916992 10.2452 0.916992 10.4993C0.916992 12.3948 1.47904 14.2476 2.53208 15.8236C3.58511 17.3995 5.08182 18.6279 6.83294 19.3532C8.58407 20.0785 10.511 20.2683 12.3699 19.8985C14.2289 19.5288 15.9365 18.616 17.2768 17.2758C18.617 15.9355 19.5297 14.2279 19.8995 12.369C20.2693 10.51 20.0795 8.58309 19.3542 6.83197C18.6288 5.08084 17.4005 3.58413 15.8245 2.5311C14.2486 1.47807 12.3957 0.916016 10.5003 0.916016ZM10.5003 6.66602C10.2462 6.66602 10.0024 6.76698 9.82268 6.9467C9.64296 7.12643 9.54199 7.37018 9.54199 7.62435V10.4993C9.54199 10.7535 9.64296 10.9973 9.82268 11.177C10.0024 11.3567 10.2462 11.4577 10.5003 11.4577H12.417C12.6712 11.4577 12.9149 11.3567 13.0946 11.177C13.2744 10.9973 13.3753 10.7535 13.3753 10.4993C13.3753 10.2452 13.2744 10.0014 13.0946 9.8217C12.9149 9.64198 12.6712 9.54102 12.417 9.54102H11.4587V7.62435C11.4587 7.37018 11.3577 7.12643 11.178 6.9467C10.9982 6.76698 10.7545 6.66602 10.5003 6.66602Z"/>
</svg>
