<svg width="14" height="14" viewBox="0 0 14 14" fill="none" xmlns="http://www.w3.org/2000/svg">
<path fill-rule="evenodd" clip-rule="evenodd" d="M3.08492 3.0876C3.31272 2.8598 3.68207 2.8598 3.90987 3.0876L6.9974 6.17512L10.0849 3.0876C10.3127 2.8598 10.6821 2.8598 10.9099 3.0876C11.1377 3.31541 11.1377 3.68475 10.9099 3.91256L7.82235 7.00008L10.9099 10.0876C11.1377 10.3154 11.1377 10.6848 10.9099 10.9126C10.6821 11.1404 10.3127 11.1404 10.0849 10.9126L6.9974 7.82504L3.90988 10.9126C3.68207 11.1404 3.31272 11.1404 3.08492 10.9126C2.85711 10.6848 2.85711 10.3154 3.08492 10.0876L6.17244 7.00008L3.08492 3.91256C2.85711 3.68475 2.85711 3.31541 3.08492 3.0876Z" fill="black"/>
</svg>
