<svg width="30" height="30" viewBox="0 0 30 30" fill="none" xmlns="http://www.w3.org/2000/svg">
<g opacity="0.5">
<path fill-rule="evenodd" clip-rule="evenodd" d="M9.96967 9.96967C10.2626 9.67678 10.7374 9.67678 11.0303 9.96967L15 13.9393L18.9697 9.96967C19.2626 9.67678 19.7374 9.67678 20.0303 9.96967C20.3232 10.2626 20.3232 10.7374 20.0303 11.0303L16.0607 15L20.0303 18.9697C20.3232 19.2626 20.3232 19.7374 20.0303 20.0303C19.7374 20.3232 19.2626 20.3232 18.9697 20.0303L15 16.0607L11.0303 20.0303C10.7374 20.3232 10.2626 20.3232 9.96967 20.0303C9.67678 19.7374 9.67678 19.2626 9.96967 18.9697L13.9393 15L9.96967 11.0303C9.67678 10.7374 9.67678 10.2626 9.96967 9.96967Z" fill="#231815"/>
<rect x="0.75" y="0.75" width="28.5" height="28.5" rx="14.25" stroke="#A3A3A3" stroke-width="1.5"/>
</g>
</svg>
