<svg width="186" height="165" viewBox="0 0 186 165" fill="none" xmlns="http://www.w3.org/2000/svg">
<path d="M92.7176 131.227C128.882 131.227 158.202 101.907 158.202 65.6133C158.202 29.3193 128.753 0 92.7176 0C56.5527 0 27.2334 29.3193 27.2334 65.6133C27.2334 101.907 56.5527 131.227 92.7176 131.227Z" fill="#F2F2F2"/>
<path d="M30.721 22.4737C32.7183 22.4737 34.3375 20.8545 34.3375 18.8572C34.3375 16.8599 32.7183 15.2407 30.721 15.2407C28.7236 15.2407 27.1045 16.8599 27.1045 18.8572C27.1045 20.8545 28.7236 22.4737 30.721 22.4737Z" fill="#F2F2F2"/>
<path d="M141.556 67.1621L145.046 66.1101C145.299 66.0367 145.299 65.6697 145.046 65.5963L141.556 64.5442C141.466 64.5198 141.401 64.4545 141.376 64.3648L140.324 60.8825C140.251 60.6297 139.884 60.6297 139.811 60.8825L138.759 64.3648C138.734 64.4545 138.669 64.5198 138.579 64.5442L135.097 65.5963C134.844 65.6697 134.844 66.0367 135.097 66.1101L138.587 67.1621C138.677 67.1866 138.742 67.2518 138.767 67.3415L139.819 70.832C139.892 71.0848 140.259 71.0848 140.333 70.832L141.385 67.3415C141.401 67.2518 141.466 67.1866 141.556 67.1621Z" fill="url(#paint0_linear_721_11981)"/>
<path d="M120.89 29.7062L124.38 28.6542C124.633 28.5808 124.633 28.2139 124.38 28.1405L120.89 27.0885C120.8 27.064 120.735 26.9988 120.71 26.9091L119.658 23.4269C119.585 23.1741 119.218 23.1741 119.145 23.4269L118.093 26.9091C118.068 26.9988 118.003 27.064 117.913 27.0885L114.431 28.1405C114.178 28.2139 114.178 28.5808 114.431 28.6542L117.921 29.7062C118.011 29.7307 118.076 29.7959 118.101 29.8856L119.153 33.3759C119.226 33.6287 119.593 33.6287 119.667 33.3759L120.719 29.8856C120.735 29.7959 120.8 29.7307 120.89 29.7062Z" fill="url(#paint1_linear_721_11981)"/>
<path d="M68.3947 34.0641L71.4489 33.1436C71.6701 33.0794 71.6701 32.7583 71.4489 32.694L68.3947 31.7736C68.3162 31.7521 68.2591 31.6951 68.2377 31.6166L67.3172 28.5697C67.253 28.3485 66.9318 28.3485 66.8676 28.5697L65.9471 31.6166C65.9257 31.6951 65.8686 31.7521 65.7901 31.7736L62.7431 32.694C62.5218 32.7583 62.5218 33.0794 62.7431 33.1436L65.7972 34.0641C65.8757 34.0855 65.9328 34.1425 65.9542 34.221L66.8748 37.275C66.939 37.4962 67.2601 37.4962 67.3243 37.275L68.2449 34.221C68.2591 34.1425 68.3162 34.0855 68.3947 34.0641Z" fill="url(#paint2_linear_721_11981)"/>
<path d="M46.4377 90.1567L49.4918 89.1047C49.7131 89.0313 49.7131 88.6643 49.4918 88.5909L46.4377 87.5389C46.3592 87.5144 46.3021 87.4491 46.2807 87.3594L45.3602 83.8771C45.2959 83.6243 44.9748 83.6243 44.9106 83.8771L43.9901 87.3594C43.9686 87.4491 43.9116 87.5144 43.8331 87.5389L40.786 88.5909C40.5648 88.6643 40.5648 89.0313 40.786 89.1047L43.8402 90.1567C43.9187 90.1812 43.9758 90.2464 43.9972 90.3361L44.9177 93.8266C44.9819 94.0794 45.3031 94.0794 45.3673 93.8266L46.2878 90.3361C46.3021 90.2464 46.3592 90.1812 46.4377 90.1567Z" fill="url(#paint3_linear_721_11981)"/>
<path d="M41.548 50.3789L43.7295 49.7214C43.8875 49.6755 43.8875 49.4462 43.7295 49.4003L41.548 48.7428C41.4919 48.7276 41.4511 48.6868 41.4358 48.6307L40.7783 46.4544C40.7324 46.2964 40.5031 46.2964 40.4572 46.4544L39.7997 48.6307C39.7844 48.6868 39.7436 48.7276 39.6875 48.7428L37.5111 49.4003C37.3531 49.4462 37.3531 49.6755 37.5111 49.7214L39.6926 50.3789C39.7487 50.3942 39.7895 50.4349 39.8048 50.491L40.4623 52.6724C40.5082 52.8304 40.7375 52.8304 40.7834 52.6724L41.4409 50.491C41.4511 50.4349 41.4919 50.3942 41.548 50.3789Z" fill="url(#paint4_linear_721_11981)"/>
<path d="M64.796 71.9565L66.9776 71.299C67.1356 71.2532 67.1356 71.0238 66.9776 70.978L64.796 70.3205C64.74 70.3052 64.6992 70.2644 64.6839 70.2084L64.0264 68.0321C63.9805 67.8741 63.7511 67.8741 63.7052 68.0321L63.0477 70.2084C63.0324 70.2644 62.9917 70.3052 62.9356 70.3205L60.7591 70.978C60.6011 71.0238 60.6011 71.2532 60.7591 71.299L62.9407 71.9565C62.9968 71.9718 63.0375 72.0126 63.0528 72.0686L63.7103 74.25C63.7562 74.408 63.9856 74.408 64.0315 74.25L64.689 72.0686C64.6992 72.0126 64.74 71.9718 64.796 71.9565Z" fill="url(#paint5_linear_721_11981)"/>
<path d="M83.2941 10.4878L85.4756 9.83029C85.6336 9.78442 85.6336 9.55507 85.4756 9.5092L83.2941 8.85173C83.238 8.83644 83.1972 8.79567 83.1819 8.7396L82.5244 6.56332C82.4785 6.40532 82.2492 6.40532 82.2033 6.56332L81.5458 8.7396C81.5305 8.79567 81.4897 8.83644 81.4336 8.85173L79.2572 9.5092C79.0992 9.55507 79.0992 9.78442 79.2572 9.83029L81.4387 10.4878C81.4948 10.5031 81.5356 10.5438 81.5509 10.5999L82.2084 12.7813C82.2543 12.9393 82.4836 12.9393 82.5295 12.7813L83.187 10.5999C83.1972 10.5438 83.238 10.5031 83.2941 10.4878Z" fill="url(#paint6_linear_721_11981)"/>
<path d="M134.987 103.936L137.169 103.279C137.327 103.233 137.327 103.003 137.169 102.957L134.987 102.3C134.931 102.285 134.891 102.244 134.875 102.188L134.218 100.012C134.172 99.8536 133.943 99.8536 133.897 100.012L133.239 102.188C133.224 102.244 133.183 102.285 133.127 102.3L130.951 102.957C130.793 103.003 130.793 103.233 130.951 103.279L133.132 103.936C133.188 103.951 133.229 103.992 133.244 104.048L133.902 106.23C133.948 106.388 134.177 106.388 134.223 106.23L134.88 104.048C134.891 103.992 134.931 103.951 134.987 103.936Z" fill="url(#paint7_linear_721_11981)"/>
<path d="M73.4288 75.624C67.9359 79.6259 60.7168 85.4326 60.7168 90.5331C60.7168 95.6336 60.7168 104.422 60.7168 104.422C60.7168 104.422 66.1311 97.7522 77.2737 98.7723C88.4163 99.7924 75.312 81.1168 75.312 81.1168L73.4288 75.624Z" fill="url(#paint8_linear_721_11981)"/>
<path d="M113.369 75.624C118.862 79.7044 126.081 85.4326 126.081 90.5331C126.081 95.6336 126.081 104.422 126.081 104.422C126.081 104.422 120.667 97.7522 109.524 98.7723C98.3819 99.7924 111.486 81.1168 111.486 81.1168L113.369 75.624Z" fill="url(#paint9_linear_721_11981)"/>
<g filter="url(#filter0_d_721_11981)">
<path d="M93.3599 19.4404C83.002 26.8165 70.6039 44.9428 72.8795 68.0127C75.0766 91.0825 77.0383 102.46 81.2757 105.207C85.5914 107.953 89.8288 108.581 93.3599 108.581C96.891 108.581 101.128 107.953 105.444 105.207C109.76 102.46 111.643 91.0825 113.84 68.0127C116.037 44.9428 103.639 26.8165 93.3599 19.4404Z" fill="url(#paint10_linear_721_11981)"/>
</g>
<g filter="url(#filter1_d_721_11981)">
<path d="M101.206 111.798H85.5126C84.2571 111.798 83.3154 110.778 83.3154 109.601V105.756H103.482V109.523C103.403 110.778 102.383 111.798 101.206 111.798Z" fill="url(#paint11_linear_721_11981)"/>
</g>
<path d="M94.4579 74.3687H92.2607V103.324H94.4579V74.3687Z" fill="url(#paint12_linear_721_11981)"/>
<path fill-rule="evenodd" clip-rule="evenodd" d="M93.3592 45.0596C90.1734 45.0596 87.5908 47.6422 87.5908 50.828C87.5908 54.0138 90.1734 56.5964 93.3592 56.5964C96.545 56.5964 99.1277 54.0138 99.1277 50.828C99.1277 47.6422 96.545 45.0596 93.3592 45.0596ZM83.5908 50.828C83.5908 45.433 87.9643 41.0596 93.3592 41.0596C98.7542 41.0596 103.128 45.433 103.128 50.828C103.128 56.2229 98.7542 60.5964 93.3592 60.5964C87.9643 60.5964 83.5908 56.2229 83.5908 50.828Z" fill="url(#paint13_linear_721_11981)"/>
<path d="M104.109 126.786C104.109 133.142 99.0087 165 92.6527 165C86.2968 165 81.1963 133.142 81.1963 126.786C81.1963 120.43 86.2968 115.33 92.6527 115.33C99.0087 115.33 104.109 120.509 104.109 126.786Z" fill="url(#paint14_linear_721_11981)"/>
<path d="M92.6532 150.327C90.3776 145.462 87.7881 131.965 87.7881 127.649C87.7881 124.981 89.9852 122.784 92.6532 122.784C95.3211 122.784 97.5182 124.981 97.5182 127.649C97.5182 131.965 94.9288 145.383 92.6532 150.327Z" fill="white"/>
<path d="M164.457 123.16C167.381 123.16 169.752 120.79 169.752 117.865C169.752 114.94 167.381 112.569 164.457 112.569C161.532 112.569 159.161 114.94 159.161 117.865C159.161 120.79 161.532 123.16 164.457 123.16Z" fill="#F2F2F2"/>
<path d="M172.206 102.495C174.204 102.495 175.823 100.876 175.823 98.8782C175.823 96.8809 174.204 95.2617 172.206 95.2617C170.209 95.2617 168.59 96.8809 168.59 98.8782C168.59 100.876 170.209 102.495 172.206 102.495Z" fill="#F2F2F2"/>
<path d="M10.8208 107.433C14.5301 107.433 17.5371 104.426 17.5371 100.716C17.5371 97.007 14.5301 94 10.8208 94C7.11149 94 4.10449 97.007 4.10449 100.716C4.10449 104.426 7.11149 107.433 10.8208 107.433Z" fill="#F2F2F2"/>
<defs>
<filter id="filter0_d_721_11981" x="50.6064" y="8.44043" width="85.4893" height="133.141" filterUnits="userSpaceOnUse" color-interpolation-filters="sRGB">
<feFlood flood-opacity="0" result="BackgroundImageFix"/>
<feColorMatrix in="SourceAlpha" type="matrix" values="0 0 0 0 0 0 0 0 0 0 0 0 0 0 0 0 0 0 127 0" result="hardAlpha"/>
<feOffset dy="11"/>
<feGaussianBlur stdDeviation="11"/>
<feColorMatrix type="matrix" values="0 0 0 0 0.397708 0 0 0 0 0.47749 0 0 0 0 0.575 0 0 0 0.27 0"/>
<feBlend mode="normal" in2="BackgroundImageFix" result="effect1_dropShadow_721_11981"/>
<feBlend mode="normal" in="SourceGraphic" in2="effect1_dropShadow_721_11981" result="shape"/>
</filter>
<filter id="filter1_d_721_11981" x="61.3154" y="94.7563" width="64.166" height="50.042" filterUnits="userSpaceOnUse" color-interpolation-filters="sRGB">
<feFlood flood-opacity="0" result="BackgroundImageFix"/>
<feColorMatrix in="SourceAlpha" type="matrix" values="0 0 0 0 0 0 0 0 0 0 0 0 0 0 0 0 0 0 127 0" result="hardAlpha"/>
<feOffset dy="11"/>
<feGaussianBlur stdDeviation="11"/>
<feColorMatrix type="matrix" values="0 0 0 0 0.397708 0 0 0 0 0.47749 0 0 0 0 0.575 0 0 0 0.27 0"/>
<feBlend mode="normal" in2="BackgroundImageFix" result="effect1_dropShadow_721_11981"/>
<feBlend mode="normal" in="SourceGraphic" in2="effect1_dropShadow_721_11981" result="shape"/>
</filter>
<linearGradient id="paint0_linear_721_11981" x1="140.072" y1="60.6929" x2="140.072" y2="71.0216" gradientUnits="userSpaceOnUse">
<stop stop-color="#0052CC"/>
<stop offset="1" stop-color="#88C9FF"/>
</linearGradient>
<linearGradient id="paint1_linear_721_11981" x1="119.406" y1="23.2373" x2="119.406" y2="33.5655" gradientUnits="userSpaceOnUse">
<stop stop-color="#0052CC"/>
<stop offset="1" stop-color="#88C9FF"/>
</linearGradient>
<linearGradient id="paint2_linear_721_11981" x1="67.096" y1="28.4038" x2="67.096" y2="37.4409" gradientUnits="userSpaceOnUse">
<stop stop-color="#0052CC"/>
<stop offset="1" stop-color="#88C9FF"/>
</linearGradient>
<linearGradient id="paint3_linear_721_11981" x1="45.1389" y1="83.6875" x2="45.1389" y2="94.0162" gradientUnits="userSpaceOnUse">
<stop stop-color="#0052CC"/>
<stop offset="1" stop-color="#88C9FF"/>
</linearGradient>
<linearGradient id="paint4_linear_721_11981" x1="40.6203" y1="46.3359" x2="40.6203" y2="52.7909" gradientUnits="userSpaceOnUse">
<stop stop-color="#0052CC"/>
<stop offset="1" stop-color="#88C9FF"/>
</linearGradient>
<linearGradient id="paint5_linear_721_11981" x1="63.8684" y1="67.9136" x2="63.8684" y2="74.3685" gradientUnits="userSpaceOnUse">
<stop stop-color="#0052CC"/>
<stop offset="1" stop-color="#88C9FF"/>
</linearGradient>
<linearGradient id="paint6_linear_721_11981" x1="82.3664" y1="6.44482" x2="82.3664" y2="12.8998" gradientUnits="userSpaceOnUse">
<stop stop-color="#0052CC"/>
<stop offset="1" stop-color="#88C9FF"/>
</linearGradient>
<linearGradient id="paint7_linear_721_11981" x1="134.06" y1="99.8931" x2="134.06" y2="106.348" gradientUnits="userSpaceOnUse">
<stop stop-color="#0052CC"/>
<stop offset="1" stop-color="#88C9FF"/>
</linearGradient>
<linearGradient id="paint8_linear_721_11981" x1="71.2404" y1="75.624" x2="71.2404" y2="104.422" gradientUnits="userSpaceOnUse">
<stop stop-color="#438F68"/>
<stop offset="1" stop-color="#6AD19C"/>
</linearGradient>
<linearGradient id="paint9_linear_721_11981" x1="115.558" y1="75.624" x2="115.558" y2="104.422" gradientUnits="userSpaceOnUse">
<stop stop-color="#438F68"/>
<stop offset="1" stop-color="#6AD19C"/>
</linearGradient>
<linearGradient id="paint10_linear_721_11981" x1="93.3377" y1="17.3785" x2="93.3377" y2="109.542" gradientUnits="userSpaceOnUse">
<stop stop-color="#FDFEFF"/>
<stop offset="0.9964" stop-color="#ECF0F5"/>
<stop offset="0.9965" stop-color="#EAEAEA"/>
</linearGradient>
<linearGradient id="paint11_linear_721_11981" x1="93.3921" y1="105.617" x2="93.3921" y2="111.864" gradientUnits="userSpaceOnUse">
<stop stop-color="#FDFEFF"/>
<stop offset="0.9964" stop-color="#ECF0F5"/>
</linearGradient>
<linearGradient id="paint12_linear_721_11981" x1="93.3595" y1="75.3745" x2="93.3595" y2="91.6267" gradientUnits="userSpaceOnUse">
<stop stop-color="#C9C9C9"/>
<stop offset="1" stop-color="#A4A4A4"/>
</linearGradient>
<linearGradient id="paint13_linear_721_11981" x1="93.3592" y1="41.0596" x2="93.3592" y2="60.5964" gradientUnits="userSpaceOnUse">
<stop stop-color="#438F68"/>
<stop offset="1" stop-color="#6AD19C"/>
</linearGradient>
<linearGradient id="paint14_linear_721_11981" x1="92.6453" y1="114.181" x2="92.6453" y2="165.536" gradientUnits="userSpaceOnUse">
<stop stop-color="#FDFEFF"/>
<stop offset="0.9964" stop-color="#ECF0F5"/>
<stop offset="0.9965" stop-color="#EAEAEA"/>
</linearGradient>
</defs>
</svg>
