<svg xmlns="http://www.w3.org/2000/svg" width="186" height="165" fill="none"><path fill="#F2F2F2" d="M92.718 131.227c36.164 0 65.484-29.32 65.484-65.614S128.753 0 92.718 0C56.553 0 27.233 29.32 27.233 65.613s29.32 65.614 65.485 65.614M30.721 22.474a3.617 3.617 0 1 0 0-7.233 3.617 3.617 0 0 0 0 7.233"/><path fill="url(#a)" d="m141.556 67.162 3.49-1.052c.253-.073.253-.44 0-.514l-3.49-1.052a.25.25 0 0 1-.18-.18l-1.052-3.482c-.073-.252-.44-.252-.513 0l-1.052 3.483a.25.25 0 0 1-.18.18l-3.482 1.051c-.253.074-.253.44 0 .514l3.49 1.052c.09.025.155.09.18.18l1.052 3.49c.073.253.44.253.514 0l1.052-3.49a.23.23 0 0 1 .171-.18"/><path fill="url(#b)" d="m120.89 29.706 3.49-1.052c.253-.073.253-.44 0-.514l-3.49-1.052a.25.25 0 0 1-.18-.179l-1.052-3.482c-.073-.253-.44-.253-.513 0l-1.052 3.482a.25.25 0 0 1-.18.18l-3.482 1.052c-.253.073-.253.44 0 .513l3.49 1.052c.09.025.155.09.18.18l1.052 3.49c.073.253.44.253.514 0l1.052-3.49a.23.23 0 0 1 .171-.18"/><path fill="url(#c)" d="m68.395 34.064 3.054-.92c.221-.065.221-.386 0-.45l-3.054-.92a.22.22 0 0 1-.157-.157l-.92-3.047c-.065-.221-.386-.221-.45 0l-.92 3.047a.22.22 0 0 1-.158.157l-3.047.92c-.221.064-.221.385 0 .45l3.054.92a.22.22 0 0 1 .157.157l.92 3.054c.065.221.386.221.45 0l.92-3.054a.2.2 0 0 1 .15-.157"/><path fill="url(#d)" d="m46.438 90.157 3.054-1.052c.221-.074.221-.44 0-.514l-3.054-1.052a.24.24 0 0 1-.157-.18l-.92-3.482c-.065-.253-.386-.253-.45 0l-.92 3.482a.24.24 0 0 1-.158.18l-3.047 1.052c-.221.073-.221.44 0 .514l3.054 1.052c.079.024.136.09.157.18l.92 3.49c.065.252.386.252.45 0l.92-3.49a.22.22 0 0 1 .15-.18"/><path fill="url(#e)" d="m41.548 50.379 2.182-.658c.158-.045.158-.275 0-.32l-2.182-.658a.16.16 0 0 1-.112-.112l-.658-2.177c-.046-.158-.275-.158-.32 0l-.658 2.177a.16.16 0 0 1-.112.112l-2.177.657c-.158.046-.158.276 0 .321l2.182.658a.16.16 0 0 1 .112.112l.657 2.181c.046.158.275.158.321 0l.658-2.181a.14.14 0 0 1 .107-.112"/><path fill="url(#f)" d="m64.796 71.957 2.182-.658c.158-.046.158-.275 0-.321l-2.182-.657a.16.16 0 0 1-.112-.113l-.658-2.176c-.045-.158-.275-.158-.32 0l-.658 2.176a.16.16 0 0 1-.112.112l-2.177.658c-.158.046-.158.275 0 .321l2.182.657a.16.16 0 0 1 .112.113l.657 2.181c.046.158.276.158.321 0l.658-2.181a.14.14 0 0 1 .107-.112"/><path fill="url(#g)" d="m83.294 10.488 2.182-.658c.158-.046.158-.275 0-.32l-2.182-.658a.16.16 0 0 1-.112-.112l-.658-2.177c-.046-.158-.275-.158-.32 0l-.658 2.177a.16.16 0 0 1-.112.112l-2.177.657c-.158.046-.158.275 0 .321l2.182.658a.16.16 0 0 1 .112.112l.657 2.181c.046.158.276.158.322 0l.657-2.181a.14.14 0 0 1 .107-.112"/><path fill="url(#h)" d="m134.987 103.936 2.182-.657c.158-.046.158-.276 0-.322l-2.182-.657a.16.16 0 0 1-.112-.112l-.657-2.176c-.046-.158-.275-.158-.321 0l-.658 2.176a.16.16 0 0 1-.112.112l-2.176.657c-.158.046-.158.276 0 .322l2.181.657a.16.16 0 0 1 .112.112l.658 2.182c.046.158.275.158.321 0l.657-2.182a.14.14 0 0 1 .107-.112"/><path fill="url(#i)" d="M73.429 75.624c-5.493 4.002-12.712 9.809-12.712 14.91v13.888s5.414-6.67 16.557-5.65-1.962-17.655-1.962-17.655z"/><path fill="url(#j)" d="M113.369 75.624c5.493 4.08 12.712 9.809 12.712 14.91v13.888s-5.414-6.67-16.557-5.65 1.962-17.655 1.962-17.655z"/><g filter="url(#k)"><path fill="url(#l)" d="M93.36 19.44c-10.358 7.377-22.756 25.503-20.48 48.573 2.197 23.07 4.158 34.447 8.396 37.194 4.315 2.746 8.553 3.374 12.084 3.374s7.768-.628 12.084-3.374 6.199-14.124 8.396-37.194-10.201-41.196-20.48-48.573"/></g><g filter="url(#m)"><path fill="url(#n)" d="M101.206 111.798H85.513a2.193 2.193 0 0 1-2.198-2.197v-3.845h20.167v3.767c-.079 1.255-1.099 2.275-2.276 2.275"/></g><path fill="url(#o)" d="M94.458 74.369H92.26v28.955h2.197z"/><path fill="url(#p)" fill-rule="evenodd" d="M93.36 45.06a5.768 5.768 0 1 0 0 11.536 5.768 5.768 0 0 0 0-11.536m-9.77 5.768c0-5.395 4.374-9.768 9.77-9.768 5.394 0 9.768 4.373 9.768 9.768s-4.374 9.768-9.769 9.768-9.768-4.373-9.768-9.768" clip-rule="evenodd"/><path fill="url(#q)" d="M104.109 126.786c0 6.356-5.1 38.214-11.456 38.214s-11.457-31.858-11.457-38.214a11.42 11.42 0 0 1 11.457-11.456c6.356 0 11.456 5.179 11.456 11.456"/><path fill="#fff" d="M92.653 150.327c-2.275-4.865-4.865-18.362-4.865-22.678 0-2.668 2.197-4.865 4.865-4.865s4.865 2.197 4.865 4.865c0 4.316-2.59 17.734-4.865 22.678"/><path fill="#F2F2F2" d="M164.457 123.16a5.295 5.295 0 1 0 0-10.591 5.296 5.296 0 1 0 0 10.591M172.206 102.495a3.616 3.616 0 1 0 .001-7.233 3.616 3.616 0 0 0-.001 7.233M10.82 107.433a6.716 6.716 0 1 0 0-13.433 6.716 6.716 0 0 0 0 13.433"/><defs><linearGradient id="a" x1="140.072" x2="140.072" y1="60.693" y2="71.022" gradientUnits="userSpaceOnUse"><stop stop-color="#0052CC"/><stop offset="1" stop-color="#88C9FF"/></linearGradient><linearGradient id="b" x1="119.406" x2="119.406" y1="23.237" y2="33.566" gradientUnits="userSpaceOnUse"><stop stop-color="#0052CC"/><stop offset="1" stop-color="#88C9FF"/></linearGradient><linearGradient id="c" x1="67.096" x2="67.096" y1="28.404" y2="37.441" gradientUnits="userSpaceOnUse"><stop stop-color="#0052CC"/><stop offset="1" stop-color="#88C9FF"/></linearGradient><linearGradient id="d" x1="45.139" x2="45.139" y1="83.688" y2="94.016" gradientUnits="userSpaceOnUse"><stop stop-color="#0052CC"/><stop offset="1" stop-color="#88C9FF"/></linearGradient><linearGradient id="e" x1="40.62" x2="40.62" y1="46.336" y2="52.791" gradientUnits="userSpaceOnUse"><stop stop-color="#0052CC"/><stop offset="1" stop-color="#88C9FF"/></linearGradient><linearGradient id="f" x1="63.868" x2="63.868" y1="67.914" y2="74.368" gradientUnits="userSpaceOnUse"><stop stop-color="#0052CC"/><stop offset="1" stop-color="#88C9FF"/></linearGradient><linearGradient id="g" x1="82.366" x2="82.366" y1="6.445" y2="12.9" gradientUnits="userSpaceOnUse"><stop stop-color="#0052CC"/><stop offset="1" stop-color="#88C9FF"/></linearGradient><linearGradient id="h" x1="134.06" x2="134.06" y1="99.893" y2="106.348" gradientUnits="userSpaceOnUse"><stop stop-color="#0052CC"/><stop offset="1" stop-color="#88C9FF"/></linearGradient><linearGradient id="i" x1="71.24" x2="71.24" y1="75.624" y2="104.422" gradientUnits="userSpaceOnUse"><stop stop-color="#438F68"/><stop offset="1" stop-color="#6AD19C"/></linearGradient><linearGradient id="j" x1="115.558" x2="115.558" y1="75.624" y2="104.422" gradientUnits="userSpaceOnUse"><stop stop-color="#438F68"/><stop offset="1" stop-color="#6AD19C"/></linearGradient><linearGradient id="l" x1="93.338" x2="93.338" y1="17.378" y2="109.542" gradientUnits="userSpaceOnUse"><stop stop-color="#FDFEFF"/><stop offset=".996" stop-color="#ECF0F5"/><stop offset=".997" stop-color="#EAEAEA"/></linearGradient><linearGradient id="n" x1="93.392" x2="93.392" y1="105.617" y2="111.864" gradientUnits="userSpaceOnUse"><stop stop-color="#FDFEFF"/><stop offset=".996" stop-color="#ECF0F5"/></linearGradient><linearGradient id="o" x1="93.359" x2="93.359" y1="75.374" y2="91.627" gradientUnits="userSpaceOnUse"><stop stop-color="#C9C9C9"/><stop offset="1" stop-color="#A4A4A4"/></linearGradient><linearGradient id="p" x1="93.359" x2="93.359" y1="41.06" y2="60.596" gradientUnits="userSpaceOnUse"><stop stop-color="#438F68"/><stop offset="1" stop-color="#6AD19C"/></linearGradient><linearGradient id="q" x1="92.645" x2="92.645" y1="114.181" y2="165.536" gradientUnits="userSpaceOnUse"><stop stop-color="#FDFEFF"/><stop offset=".996" stop-color="#ECF0F5"/><stop offset=".997" stop-color="#EAEAEA"/></linearGradient><filter id="k" width="85.489" height="133.141" x="50.606" y="8.44" color-interpolation-filters="sRGB" filterUnits="userSpaceOnUse"><feFlood flood-opacity="0" result="BackgroundImageFix"/><feColorMatrix in="SourceAlpha" result="hardAlpha" values="0 0 0 0 0 0 0 0 0 0 0 0 0 0 0 0 0 0 127 0"/><feOffset dy="11"/><feGaussianBlur stdDeviation="11"/><feColorMatrix values="0 0 0 0 0.397708 0 0 0 0 0.47749 0 0 0 0 0.575 0 0 0 0.27 0"/><feBlend in2="BackgroundImageFix" result="effect1_dropShadow_721_11981"/><feBlend in="SourceGraphic" in2="effect1_dropShadow_721_11981" result="shape"/></filter><filter id="m" width="64.166" height="50.042" x="61.315" y="94.756" color-interpolation-filters="sRGB" filterUnits="userSpaceOnUse"><feFlood flood-opacity="0" result="BackgroundImageFix"/><feColorMatrix in="SourceAlpha" result="hardAlpha" values="0 0 0 0 0 0 0 0 0 0 0 0 0 0 0 0 0 0 127 0"/><feOffset dy="11"/><feGaussianBlur stdDeviation="11"/><feColorMatrix values="0 0 0 0 0.397708 0 0 0 0 0.47749 0 0 0 0 0.575 0 0 0 0.27 0"/><feBlend in2="BackgroundImageFix" result="effect1_dropShadow_721_11981"/><feBlend in="SourceGraphic" in2="effect1_dropShadow_721_11981" result="shape"/></filter></defs></svg>