<svg xmlns="http://www.w3.org/2000/svg" width="24" height="12" fill="none"><path fill="#000" fill-opacity=".54" d="M16.24 7.65c-1.17-.52-2.61-.9-4.24-.9s-3.07.39-4.24.9A2.99 2.99 0 0 0 6 10.39V12h12v-1.61c0-1.18-.68-2.26-1.76-2.74M8.07 10a.96.96 0 0 1 .49-.52c1.1-.49 2.26-.73 3.43-.73 1.18 0 2.33.25 3.43.73.23.1.4.29.49.52zM1.22 8.58A2.01 2.01 0 0 0 0 10.43V12h4.5v-1.61c0-.83.23-1.61.63-2.29C4.76 8.04 4.39 8 4 8c-.99 0-1.93.21-2.78.58M22.78 8.58A6.95 6.95 0 0 0 20 8c-.39 0-.76.04-1.13.1.4.68.63 1.46.63 2.29V12H24v-1.57c0-.81-.48-1.53-1.22-1.85M12 6c1.66 0 3-1.34 3-3s-1.34-3-3-3-3 1.34-3 3 1.34 3 3 3m0-4c.55 0 1 .45 1 1s-.45 1-1 1-1-.45-1-1 .45-1 1-1M4 2.497 1.497 5 4 7.503 6.503 5zM20 3l-2.5 4h5z"/></svg>