<svg xmlns="http://www.w3.org/2000/svg" width="24" height="24" viewBox="0 0 24 24" fill="none">
    <path d="M11.7384 2C9.83669 2 7.97766 2.58649 6.39641 3.6853C4.81517 4.78412 3.58274 6.3459 2.85498 8.17317C2.12721 10.0004 1.9368 12.0111 2.30781 13.9509C2.67882 15.8907 3.5946 17.6725 4.93933 19.0711C6.28407 20.4696 7.99737 21.422 9.86257 21.8079C11.7278 22.1937 13.6611 21.9957 15.4181 21.2388C17.1751 20.4819 18.6768 19.2002 19.7333 17.5557C20.7899 15.9112 21.3538 13.9778 21.3538 12C21.3538 10.6868 21.1051 9.38642 20.6219 8.17317C20.1387 6.95991 19.4304 5.85752 18.5375 4.92893C17.6447 4.00035 16.5847 3.26375 15.4181 2.7612C14.2515 2.25866 13.0011 2 11.7384 2Z" fill="#1EC198"/>
    <path d="M16.5155 8.2491C16.4842 8.3763 16.429 8.49585 16.3533 8.6009L10.584 16.6005C10.5014 16.7151 10.396 16.8099 10.275 16.8784C10.1541 16.947 10.0204 16.9877 9.88299 16.9979C9.74559 17.008 9.6077 16.9873 9.47865 16.9372C9.3496 16.8871 9.2324 16.8088 9.135 16.7075L6.25038 13.7077C6.07523 13.5191 5.97831 13.2665 5.98051 13.0043C5.9827 12.7421 6.08382 12.4913 6.2621 12.3059C6.44037 12.1205 6.68154 12.0153 6.93365 12.0131C7.18576 12.0108 7.42865 12.1116 7.61 12.2937L9.71096 14.4786L14.8148 7.40096C14.8906 7.2959 14.9855 7.2074 15.0941 7.1405C15.2028 7.07359 15.3231 7.0296 15.4481 7.01103C15.5731 6.99246 15.7004 6.99967 15.8227 7.03226C15.945 7.06485 16.0599 7.12218 16.161 7.20097C16.262 7.27976 16.3471 7.37847 16.4114 7.49146C16.4757 7.60445 16.5181 7.72952 16.5359 7.85951C16.5538 7.98951 16.5468 8.12189 16.5155 8.2491Z" fill="#24262E"/>
</svg>