<svg xmlns="http://www.w3.org/2000/svg" width="24" height="24" fill="none"><path fill="#1EC198" d="M11.738 2c-1.901 0-3.76.586-5.342 1.685a9.93 9.93 0 0 0-3.541 4.488 10.37 10.37 0 0 0-.547 5.778 10.13 10.13 0 0 0 2.631 5.12 9.5 9.5 0 0 0 4.924 2.737 9.27 9.27 0 0 0 5.555-.57 9.7 9.7 0 0 0 4.315-3.682A10.3 10.3 0 0 0 21.353 12c0-1.313-.248-2.614-.731-3.827a10 10 0 0 0-2.084-3.244 9.6 9.6 0 0 0-3.12-2.168A9.3 9.3 0 0 0 11.738 2"/><path fill="#24262E" d="M16.516 8.25a1 1 0 0 1-.163.35l-5.769 8a1 1 0 0 1-.309.278.934.934 0 0 1-1.14-.17l-2.885-3a1.02 1.02 0 0 1-.27-.704 1.02 1.02 0 0 1 .282-.698.94.94 0 0 1 .672-.293.94.94 0 0 1 .676.28l2.101 2.186L14.815 7.4a1 1 0 0 1 .28-.26.94.94 0 0 1 .728-.109q.185.05.338.169a1 1 0 0 1 .25.29 1.03 1.03 0 0 1 .104.758"/></svg>