<svg width="14" height="15" viewBox="0 0 14 15" fill="none" xmlns="http://www.w3.org/2000/svg">
<path opacity="0.5" fill-rule="evenodd" clip-rule="evenodd" d="M4.49219 11.9368V13.0599C4.49219 14.1093 5.23466 15 6.19393 15H11.056C12.0153 15 12.7578 14.1093 12.7578 13.0599V4.08292C12.7578 3.03353 12.0153 2.14282 11.056 2.14282H8.13877V3.77878H11.056C11.1709 3.77878 11.2991 3.89285 11.2991 4.08292V13.0599C11.2991 13.2499 11.1709 13.364 11.056 13.364H6.19393C6.07909 13.364 5.95082 13.2499 5.95082 13.0599V11.9368H4.49219Z" fill="#24262E"/>
<path fill-rule="evenodd" clip-rule="evenodd" d="M2.3033 1.60714C2.18846 1.60714 2.0602 1.7192 2.0602 1.90593V10.7248C2.0602 10.9115 2.18846 11.0236 2.3033 11.0236H7.16541C7.28025 11.0236 7.40852 10.9115 7.40852 10.7248V1.90593C7.40852 1.7192 7.28025 1.60714 7.16541 1.60714H2.3033ZM0.601562 1.90593C0.601562 0.875023 1.34403 0 2.3033 0H7.16541C8.12468 0 8.86715 0.875023 8.86715 1.90593V10.7248C8.86715 11.7557 8.12468 12.6307 7.16541 12.6307H2.3033C1.34403 12.6307 0.601562 11.7557 0.601562 10.7248V1.90593Z" fill="#24262E"/>
</svg>
