<svg xmlns="http://www.w3.org/2000/svg" width="13" height="15" viewBox="0 0 13 15" fill="none">
<path opacity="0.5" fill-rule="evenodd" clip-rule="evenodd" d="M4 11.6411V12.6892C4 13.6687 4.76353 14.5 5.75 14.5H10.75C11.7365 14.5 12.5 13.6687 12.5 12.6892V4.31076C12.5 3.33133 11.7365 2.5 10.75 2.5H7.75V4.02689H10.75C10.8681 4.02689 11 4.13336 11 4.31076V12.6892C11 12.8666 10.8681 12.9731 10.75 12.9731H5.75C5.6319 12.9731 5.5 12.8666 5.5 12.6892V11.6411H4Z" fill="#333333"/>
<path fill-rule="evenodd" clip-rule="evenodd" d="M1.75 2C1.63191 2 1.5 2.10459 1.5 2.27887V10.5098C1.5 10.6841 1.6319 10.7887 1.75 10.7887H6.75C6.86809 10.7887 7 10.6841 7 10.5098V2.27887C7 2.10459 6.86809 2 6.75 2H1.75ZM0 2.27887C0 1.31669 0.763525 0.5 1.75 0.5H6.75C7.73647 0.5 8.5 1.31669 8.5 2.27887V10.5098C8.5 11.472 7.73647 12.2887 6.75 12.2887H1.75C0.763525 12.2887 0 11.472 0 10.5098V2.27887Z" fill="#333333"/>
</svg>
