<svg width="22" height="22" viewBox="0 0 22 22" fill="none" xmlns="http://www.w3.org/2000/svg">
<path d="M4.01061 20.6937C3.52172 20.6937 3.09776 20.5142 2.73874 20.1552C2.37971 19.7962 2.2002 19.3722 2.2002 18.8833V5.17916H4.01061V18.8833H14.7585V20.6937H4.01061ZM7.21895 17.5083C6.71478 17.5083 6.28318 17.3288 5.92415 16.9698C5.56513 16.6108 5.38561 16.1792 5.38561 15.675V3.07082C5.38561 2.58193 5.56513 2.15798 5.92415 1.79895C6.28318 1.43992 6.71478 1.26041 7.21895 1.26041H17.0731C17.562 1.26041 17.986 1.43992 18.345 1.79895C18.704 2.15798 18.8835 2.58193 18.8835 3.07082V15.675C18.8835 16.1792 18.704 16.6108 18.345 16.9698C17.986 17.3288 17.562 17.5083 17.0731 17.5083H7.21895ZM7.21895 15.675H17.0731V3.07082H7.21895V15.675Z" fill="#6C6F89"/>
</svg>
