<svg width="16" height="16" viewBox="0 0 16 16" fill="none" xmlns="http://www.w3.org/2000/svg">
<path d="M13.6547 3.21284L11.746 1.19217C11.6326 1.07787 11.4975 0.987288 11.3487 0.92571C11.1999 0.864132 11.0404 0.832789 10.8793 0.833508H5.55533C5.23135 0.833861 4.92073 0.962721 4.69164 1.19181C4.46255 1.42091 4.33369 1.73152 4.33333 2.05551V3.16684H3.222C2.89801 3.16719 2.5874 3.29605 2.35831 3.52515C2.12921 3.75424 2.00035 4.06486 2 4.38884V13.9448C2.00035 14.2688 2.12921 14.5794 2.35831 14.8085C2.5874 15.0376 2.89801 15.1665 3.222 15.1668H10.4447C10.7687 15.1665 11.0793 15.0376 11.3084 14.8085C11.5375 14.5794 11.6663 14.2688 11.6667 13.9448V12.8335H12.778C13.102 12.8332 13.4126 12.7043 13.6417 12.4752C13.8708 12.2461 13.9996 11.9355 14 11.6115V4.06684C14.0015 3.90876 13.9718 3.75194 13.9125 3.60539C13.8533 3.45883 13.7656 3.32543 13.6547 3.21284ZM10 13.8335H3.66667C3.57826 13.8335 3.49348 13.7984 3.43096 13.7359C3.36845 13.6734 3.33333 13.5886 3.33333 13.5002V4.83351C3.33333 4.7451 3.36845 4.66032 3.43096 4.59781C3.49348 4.53529 3.57826 4.50017 3.66667 4.50017H4.16667C4.21087 4.50017 4.25326 4.51773 4.28452 4.54899C4.31577 4.58025 4.33333 4.62264 4.33333 4.66684V11.6115C4.33333 11.9356 4.46208 12.2464 4.69125 12.4756C4.92042 12.7048 5.23124 12.8335 5.55533 12.8335H10.1667C10.2109 12.8335 10.2533 12.8511 10.2845 12.8823C10.3158 12.9136 10.3333 12.956 10.3333 13.0002V13.5002C10.3333 13.5886 10.2982 13.6734 10.2357 13.7359C10.1732 13.7984 10.0884 13.8335 10 13.8335ZM12.3333 11.5002H6C5.91159 11.5002 5.82681 11.4651 5.7643 11.4025C5.70179 11.34 5.66667 11.2552 5.66667 11.1668V2.50017C5.66667 2.41177 5.70179 2.32698 5.7643 2.26447C5.82681 2.20196 5.91159 2.16684 6 2.16684H10.69C10.7353 2.16691 10.7802 2.17623 10.8218 2.19423C10.8634 2.21223 10.9009 2.23852 10.932 2.27151L12.5753 4.01151C12.6338 4.07328 12.6665 4.15509 12.6667 4.24018V11.1668C12.6667 11.2552 12.6315 11.34 12.569 11.4025C12.5065 11.4651 12.4217 11.5002 12.3333 11.5002Z" fill="#6D7380"/>
</svg>
