<svg xmlns="http://www.w3.org/2000/svg" width="16" height="16" fill="none"><path fill="#6D7380" d="m13.655 3.213-1.909-2.02a1.21 1.21 0 0 0-.867-.36H5.555a1.223 1.223 0 0 0-1.222 1.223v1.11H3.222A1.223 1.223 0 0 0 2 4.39v9.556a1.223 1.223 0 0 0 1.222 1.222h7.223a1.223 1.223 0 0 0 1.222-1.222v-1.111h1.111A1.223 1.223 0 0 0 14 11.61V4.068a1.2 1.2 0 0 0-.345-.854M10 13.833H3.667a.333.333 0 0 1-.334-.333V4.834a.333.333 0 0 1 .334-.334h.5a.167.167 0 0 1 .166.167v6.945a1.22 1.22 0 0 0 1.222 1.222h4.612a.167.167 0 0 1 .166.166v.5a.333.333 0 0 1-.333.334m2.333-2.333H6a.333.333 0 0 1-.333-.333V2.5A.333.333 0 0 1 6 2.167h4.69a.33.33 0 0 1 .242.105l1.643 1.74a.33.33 0 0 1 .092.228v6.927a.333.333 0 0 1-.334.333"/></svg>