<svg xmlns="http://www.w3.org/2000/svg" width="14" height="15" fill="none"><path fill="#24262E" fill-rule="evenodd" d="M4.492 11.937v1.123c0 1.05.743 1.94 1.702 1.94h4.862c.96 0 1.702-.89 1.702-1.94V4.083c0-1.05-.743-1.94-1.702-1.94H8.139v1.636h2.917c.115 0 .243.114.243.304v8.977c0 .19-.128.304-.243.304H6.194c-.115 0-.243-.114-.243-.304v-1.123z" clip-rule="evenodd" opacity=".5"/><path fill="#24262E" fill-rule="evenodd" d="M2.303 1.607c-.115 0-.243.112-.243.299v8.819c0 .187.128.299.243.299h4.862c.115 0 .244-.112.244-.3V1.907c0-.187-.129-.299-.244-.299zm-1.701.299C.602.875 1.344 0 2.303 0h4.862c.96 0 1.702.875 1.702 1.906v8.819c0 1.03-.742 1.906-1.702 1.906H2.303c-.959 0-1.701-.875-1.701-1.906z" clip-rule="evenodd"/></svg>