<svg xmlns="http://www.w3.org/2000/svg" width="26" height="28" fill="none"><path fill="#6C6F89" d="M16.9 22.667q-1.367 0-2.3-.934-.933-.933-.934-2.3 0-1.365.934-2.3.933-.933 2.3-.933t2.3.933q.933.935.933 2.3 0 1.367-.933 2.3-.933.934-2.3.934M3.167 27.8q-1.067 0-1.85-.783-.784-.785-.784-1.85V4.833q0-1.099.784-1.883.782-.783 1.85-.783h2v-2h2.5v2h10.666v-2h2.5v2h2q1.1 0 1.884.783t.783 1.883v20.334q0 1.065-.784 1.85a2.57 2.57 0 0 1-1.883.783zm0-2.633h19.666V11H3.167zM3.167 9h19.666V4.833H3.167z"/></svg>