<svg width="26" height="28" viewBox="0 0 26 28" fill="none" xmlns="http://www.w3.org/2000/svg">
<path d="M16.8999 22.6667C15.9888 22.6667 15.2221 22.3555 14.5999 21.7333C13.9776 21.1111 13.6665 20.3444 13.6665 19.4333C13.6665 18.5222 13.9776 17.7555 14.5999 17.1333C15.2221 16.5111 15.9888 16.2 16.8999 16.2C17.811 16.2 18.5776 16.5111 19.1999 17.1333C19.8221 17.7555 20.1332 18.5222 20.1332 19.4333C20.1332 20.3444 19.8221 21.1111 19.1999 21.7333C18.5776 22.3555 17.811 22.6667 16.8999 22.6667ZM3.16654 27.8C2.45543 27.8 1.83876 27.5389 1.31654 27.0167C0.794314 26.4944 0.533203 25.8778 0.533203 25.1667V4.83332C0.533203 4.09999 0.794314 3.47221 1.31654 2.94999C1.83876 2.42777 2.45543 2.16666 3.16654 2.16666H5.16654V0.166656H7.66654V2.16666H18.3332V0.166656H20.8332V2.16666H22.8332C23.5665 2.16666 24.1943 2.42777 24.7165 2.94999C25.2388 3.47221 25.4999 4.09999 25.4999 4.83332V25.1667C25.4999 25.8778 25.2388 26.4944 24.7165 27.0167C24.1943 27.5389 23.5665 27.8 22.8332 27.8H3.16654ZM3.16654 25.1667H22.8332V11H3.16654V25.1667ZM3.16654 8.99999H22.8332V4.83332H3.16654V8.99999Z" fill="#6C6F89"/>
</svg>
