<svg width="30" height="30" viewBox="0 0 30 30"   xmlns="http://www.w3.org/2000/svg">
<path d="M25.5874 9.2125C25.5874 9.2125 25.5874 9.2125 25.5874 9.1125L25.5124 8.925C25.4863 8.88522 25.4571 8.84759 25.4249 8.8125C25.3915 8.75958 25.3539 8.70942 25.3124 8.6625L25.1999 8.575L24.9999 8.475L15.6249 2.6875C15.4263 2.56333 15.1967 2.4975 14.9624 2.4975C14.7282 2.4975 14.4986 2.56333 14.2999 2.6875L4.99994 8.475L4.88744 8.575L4.77494 8.6625C4.7335 8.70942 4.69588 8.75958 4.66244 8.8125C4.6303 8.84759 4.60104 8.88522 4.57494 8.925L4.49994 9.1125C4.49994 9.1125 4.49994 9.1125 4.49994 9.2125C4.48765 9.32049 4.48765 9.42952 4.49994 9.5375V20.4625C4.49951 20.6749 4.55323 20.884 4.65603 21.0699C4.75882 21.2558 4.9073 21.4124 5.08744 21.525L14.4624 27.3125C14.5201 27.3481 14.5836 27.3735 14.6499 27.3875C14.6499 27.3875 14.7124 27.3875 14.7499 27.3875C14.9614 27.4546 15.1885 27.4546 15.3999 27.3875C15.3999 27.3875 15.4624 27.3875 15.4999 27.3875C15.5663 27.3735 15.6297 27.3481 15.6874 27.3125L24.9999 21.525C25.1801 21.4124 25.3286 21.2558 25.4313 21.0699C25.5341 20.884 25.5879 20.6749 25.5874 20.4625V9.5375C25.5997 9.42952 25.5997 9.32049 25.5874 9.2125ZM13.7499 24.0125L6.87494 19.7625V11.7875L13.7499 16.025V24.0125ZM14.9999 13.8625L7.99994 9.5375L14.9999 5.225L21.9999 9.5375L14.9999 13.8625ZM23.1249 19.7625L16.2499 24.0125V16.025L23.1249 11.7875V19.7625Z"  />
</svg>
