<svg xmlns="http://www.w3.org/2000/svg" width="30" height="30"><path d="M25.587 9.213v-.1l-.075-.188a1 1 0 0 0-.087-.113 1 1 0 0 0-.113-.15l-.112-.087-.2-.1-9.375-5.787a1.25 1.25 0 0 0-1.325 0L5 8.474l-.113.1-.112.088q-.063.07-.113.15a1 1 0 0 0-.087.112l-.075.188v.1a1.4 1.4 0 0 0 0 .325v10.924a1.25 1.25 0 0 0 .587 1.063l9.375 5.788a.6.6 0 0 0 .188.075h.1c.211.067.438.067.65 0h.1a.6.6 0 0 0 .187-.076L25 21.526a1.25 1.25 0 0 0 .587-1.062V9.536a1.4 1.4 0 0 0 0-.325m-11.837 14.8-6.875-4.25v-7.976l6.875 4.238zM15 13.862 8 9.538l7-4.313 7 4.313zm8.125 5.9-6.875 4.25v-7.988l6.875-4.237z"/></svg>