<svg width="35" height="35" viewBox="0 0 35 35" fill="none" xmlns="http://www.w3.org/2000/svg">
<circle cx="17.5" cy="17.5" r="17.5" fill="#6D23E0"/>
<path d="M17.5 7C15.4233 7 13.3932 7.61581 11.6665 8.76957C9.9398 9.92332 8.59399 11.5632 7.79927 13.4818C7.00455 15.4004 6.79661 17.5116 7.20176 19.5484C7.6069 21.5852 8.60693 23.4562 10.0754 24.9246C11.5438 26.3931 13.4148 27.3931 15.4516 27.7982C17.4884 28.2034 19.5996 27.9955 21.5182 27.2007C23.4368 26.406 25.0767 25.0602 26.2304 23.3335C27.3842 21.6068 28 19.5767 28 17.5C28 16.1211 27.7284 14.7557 27.2007 13.4818C26.6731 12.2079 25.8996 11.0504 24.9246 10.0754C23.9496 9.10036 22.7921 8.32694 21.5182 7.79926C20.2443 7.27159 18.8789 7 17.5 7ZM17.5 25.9C15.8386 25.9 14.2146 25.4073 12.8332 24.4843C11.4518 23.5613 10.3752 22.2494 9.73942 20.7145C9.10364 19.1796 8.93729 17.4907 9.26141 15.8612C9.58552 14.2318 10.3855 12.7351 11.5603 11.5603C12.7351 10.3855 14.2318 9.58552 15.8612 9.2614C17.4907 8.93729 19.1796 9.10364 20.7145 9.73941C22.2494 10.3752 23.5613 11.4518 24.4843 12.8332C25.4073 14.2146 25.9 15.8386 25.9 17.5C25.9 19.7278 25.015 21.8644 23.4397 23.4397C21.8644 25.015 19.7278 25.9 17.5 25.9ZM20.755 18.1615L18.55 16.891V12.25C18.55 11.9715 18.4394 11.7045 18.2425 11.5075C18.0456 11.3106 17.7785 11.2 17.5 11.2C17.2215 11.2 16.9545 11.3106 16.7575 11.5075C16.5606 11.7045 16.45 11.9715 16.45 12.25V17.5C16.45 17.5 16.45 17.584 16.45 17.626C16.4562 17.6983 16.4739 17.7692 16.5025 17.836C16.5241 17.8983 16.5523 17.9581 16.5865 18.0145C16.6152 18.0742 16.6504 18.1305 16.6915 18.1825L16.8595 18.319L16.954 18.4135L19.684 19.9885C19.844 20.0792 20.0251 20.1263 20.209 20.125C20.4415 20.1266 20.6679 20.051 20.8528 19.9101C21.0378 19.7692 21.1707 19.5708 21.2307 19.3462C21.2908 19.1216 21.2746 18.8835 21.1847 18.669C21.0948 18.4546 20.9363 18.2761 20.734 18.1615H20.755Z" fill="white"/>
</svg>
