<svg width="50" height="50" viewBox="0 0 50 50" fill="none" xmlns="http://www.w3.org/2000/svg">
<circle cx="25" cy="25" r="25" fill="url(#paint0_linear_383_7079)"/>
<path fill-rule="evenodd" clip-rule="evenodd" d="M24.7056 10C24.8771 10.0244 25.0489 10.0464 25.2208 10.0683C25.5872 10.1152 25.9535 10.162 26.3159 10.2322C30.3326 11.0095 33.4307 13.143 35.6091 16.5977C36.8484 18.5632 37.4928 20.7283 37.6371 23.0443C37.6433 23.1437 37.6417 23.244 37.64 23.3518V23.3519V23.3519V23.3519V23.3519V23.352V23.352V23.352V23.3521V23.3521V23.3522V23.3523V23.3524V23.3525C37.6392 23.4049 37.6383 23.4592 37.6383 23.516C37.5506 23.5054 37.4638 23.4962 37.3781 23.4871L37.378 23.4871L37.3779 23.4871L37.3778 23.4871L37.3778 23.4871L37.3777 23.4871L37.3776 23.4871C37.1449 23.4624 36.9193 23.4385 36.6992 23.3893C36.6252 23.3729 36.5422 23.2056 36.5361 23.1038C36.4585 21.7851 36.2124 20.4979 35.7061 19.2805C33.8466 14.8091 30.5472 12.048 25.7557 11.2756C19.0246 10.191 12.684 14.683 11.3448 21.3673C9.97635 28.199 14.4926 34.961 21.3322 36.3154C23.0243 36.6507 24.7171 36.6495 26.4074 36.2936C26.4381 36.2871 26.4693 36.2837 26.5098 36.2793L26.5099 36.2793L26.5505 36.2749C26.5631 36.2734 26.5766 36.2718 26.5911 36.27C26.5911 36.3558 26.5917 36.441 26.5924 36.5257C26.5942 36.7775 26.596 37.0244 26.5814 37.2703C26.5784 37.3255 26.4529 37.4031 26.3735 37.4195C25.2609 37.645 24.1344 37.7141 23.0037 37.6432C20.795 37.5056 18.7166 36.9035 16.822 35.7552C13.2691 33.6041 11.0622 30.4878 10.2437 26.4068C10.17 26.0374 10.1206 25.6631 10.0712 25.2886C10.0483 25.115 10.0254 24.9413 10 24.768V22.8916C10.0184 22.7597 10.0361 22.6277 10.0539 22.4956L10.0539 22.4956C10.0922 22.2099 10.1306 21.924 10.1758 21.6396C11.0853 15.8968 15.5488 11.3053 21.2552 10.2462C21.6247 10.1779 21.9973 10.126 22.3699 10.0741C22.5433 10.0499 22.7167 10.0258 22.8897 10H24.705H24.7056ZM23.2681 35.4254C21.5765 35.3308 20.0165 34.921 18.5263 34.1546C18.5623 34.0779 18.6072 33.9997 18.6524 33.921C18.8487 33.5791 19.0504 33.2277 18.5566 32.9517C18.073 32.6813 17.8754 33.0339 17.6828 33.3774L17.6828 33.3774C17.6409 33.4521 17.5993 33.5264 17.555 33.5938C16.1417 32.6789 14.9958 31.5282 14.0767 30.1197C14.1464 30.0713 14.2247 30.026 14.3036 29.9804C14.644 29.7835 14.9946 29.5808 14.7042 29.0915C14.4257 28.6217 14.0823 28.8216 13.746 29.0174C13.6686 29.0624 13.5916 29.1072 13.5159 29.1436C12.7465 27.6552 12.3379 26.0934 12.2421 24.3945C12.2926 24.3945 12.3416 24.3949 12.3896 24.3952H12.3898H12.39H12.3901H12.3903H12.3905H12.3906H12.3908C12.4846 24.3959 12.5746 24.3965 12.6646 24.3945C13.063 24.3842 13.3219 24.1617 13.3207 23.8343C13.3194 23.5069 13.0648 23.2911 12.661 23.2778C12.5749 23.2749 12.4888 23.2756 12.3937 23.2764H12.3936L12.3934 23.2764C12.3467 23.2768 12.2978 23.2772 12.2457 23.2772C12.3306 21.5838 12.7477 20.0183 13.5074 18.5408C14.3156 18.9009 14.5532 18.9185 14.7157 18.582C14.9637 18.0683 14.6302 17.8781 14.3058 17.693C14.2306 17.6501 14.1558 17.6074 14.0888 17.561C14.7551 16.3824 16.2818 14.8515 17.5562 14.0864C17.584 14.1328 17.6113 14.1795 17.6387 14.2263L17.6387 14.2264C17.6953 14.3234 17.7521 14.4206 17.8139 14.515C17.9976 14.7964 18.3062 14.88 18.5736 14.7272C18.8403 14.5751 18.9234 14.2671 18.7724 13.9651C18.723 13.866 18.6673 13.77 18.6118 13.6744L18.6118 13.6743C18.5869 13.6314 18.562 13.5886 18.5378 13.5456C19.369 12.9272 22.1016 12.1869 23.279 12.273C23.279 12.3204 23.2782 12.3683 23.2773 12.4164V12.4164V12.4165V12.4165V12.4165V12.4165V12.4165V12.4165C23.2755 12.5241 23.2737 12.6332 23.2808 12.7416C23.3026 13.0842 23.5215 13.314 23.8204 13.3219C24.1296 13.3297 24.3667 13.0903 24.3885 12.7374C24.3946 12.6359 24.3933 12.5341 24.3918 12.4206V12.4205C24.3911 12.3665 24.3903 12.3099 24.3903 12.2493C26.0746 12.3233 27.6358 12.7489 29.1448 13.5147C29.1161 13.5657 29.0878 13.6147 29.0601 13.6626L29.0601 13.6627L29.06 13.6628L29.0599 13.6629C28.9995 13.7675 28.9423 13.8665 28.8908 13.9688C28.7392 14.2695 28.8235 14.5757 29.0933 14.7291C29.3601 14.8812 29.6693 14.7964 29.8512 14.515C29.9115 14.4218 29.9669 14.325 30.0271 14.2197C30.0533 14.1738 30.0805 14.1263 30.1094 14.0767C31.5245 14.9886 32.6692 16.1405 33.5932 17.5562C33.5478 17.5829 33.5031 17.6089 33.459 17.6346L33.4589 17.6346L33.4589 17.6347L33.4586 17.6348L33.4583 17.635L33.4583 17.635L33.4581 17.6351C33.3615 17.6912 33.2676 17.7458 33.1754 17.8036C32.8705 17.9945 32.7789 18.3013 32.9408 18.5784C33.1009 18.8518 33.4149 18.9258 33.732 18.7603C33.8219 18.7133 33.91 18.6621 34.0064 18.6062C34.0518 18.5798 34.0991 18.5524 34.1491 18.5238C34.9228 20.0262 35.3369 21.6032 35.4217 23.2978C35.3657 23.2978 35.3127 23.2981 35.2615 23.2985H35.2614H35.2613C35.1641 23.2991 35.0739 23.2998 34.9834 23.2978C32.9069 23.2499 30.8491 23.3875 28.8659 24.0538C28.3203 24.2369 27.8001 24.5279 27.3102 24.8365C26.8027 25.1573 26.5863 25.6593 26.5893 26.2807C26.5964 27.7196 26.5964 29.1585 26.5964 30.5974C26.5964 31.9723 26.5964 33.3472 26.6027 34.7221C26.6039 35.0271 26.5457 35.1726 26.2152 35.2077C25.7943 35.2523 25.3758 35.3189 24.9501 35.3866L24.9501 35.3866C24.7731 35.4148 24.5948 35.4432 24.4146 35.4703C24.4043 35.3743 24.4015 35.2742 24.3986 35.175V35.175C24.3865 34.7559 24.375 34.3549 23.8131 34.3686C23.2758 34.3818 23.2751 34.788 23.2744 35.191C23.2743 35.2709 23.2742 35.3507 23.2699 35.4272L23.2681 35.4254ZM24.3909 19.7V15.8277C24.3909 15.2626 24.2114 14.9867 23.8404 14.9807C23.4663 14.974 23.2765 15.2535 23.2765 15.8125C23.2765 16.3702 23.2763 16.9279 23.2761 17.4856V17.4857V17.4857V17.4858V17.4858V17.4859V17.4859V17.486V17.4866C23.2754 19.3994 23.2746 21.3124 23.2826 23.225C23.2838 23.4936 23.1977 23.6688 23.0007 23.8416C21.9193 24.7935 20.8435 25.7512 19.7674 26.7091L19.7644 26.7118C19.4556 26.9867 19.1468 27.2616 18.8379 27.5363C18.8069 27.5639 18.7756 27.5911 18.7442 27.6183L18.7442 27.6184C18.6382 27.7104 18.5322 27.8025 18.4396 27.9068C18.248 28.1214 18.2559 28.413 18.4396 28.624C18.6196 28.8308 18.9106 28.8732 19.1507 28.7198C19.2289 28.6698 19.2993 28.6067 19.369 28.5441L19.3854 28.5294C19.8362 28.1287 20.2867 27.7276 20.7373 27.3266C21.8457 26.3398 22.9541 25.3531 24.0671 24.3715C24.2994 24.1666 24.397 23.9398 24.3951 23.6336C24.3882 22.6287 24.3894 21.6233 24.3906 20.6182V20.6181V20.618V20.6179V20.6178V20.6178V20.6177V20.6176C24.391 20.3119 24.3914 20.0063 24.3915 19.7006L24.3909 19.7ZM29.3407 27.1295C30.974 27.5933 32.6528 27.6861 34.3389 27.7097V27.7091L34.348 27.794C34.7432 27.752 35.1386 27.7122 35.534 27.6723L35.5341 27.6723L35.5343 27.6723L35.5344 27.6723L35.5345 27.6723L35.5346 27.6723L35.5347 27.6723C36.4804 27.577 37.4262 27.4817 38.3683 27.3569C39.1262 27.2568 39.8725 27.0562 40.534 26.6433C41.1403 26.265 41.1476 25.7884 40.5164 25.4501C40.0696 25.2106 39.5821 25.0111 39.0886 24.8978C36.1705 24.2272 33.2324 24.229 30.295 24.7468C29.675 24.8559 29.0711 25.0779 28.4759 25.2967L28.4759 25.2967L28.3967 25.3258C28.0723 25.4452 27.7176 25.6332 27.7231 26.0558C27.7285 26.459 28.0747 26.6221 28.3833 26.767C28.6919 26.9119 29.0133 27.0368 29.3407 27.1295ZM30.4823 40.6061V37.3564C34.0473 37.8463 37.5595 37.9015 40.9845 36.4591V36.7829C40.9845 37.0043 40.9831 37.2257 40.9818 37.4471V37.4471V37.4471V37.4472V37.4472V37.4473C40.9786 37.9921 40.9754 38.5369 40.9917 39.0813C41.002 39.4099 40.8862 39.6524 40.6092 39.7689C40.4777 39.8241 40.3464 39.8809 40.2149 39.9379L40.2149 39.9379C39.6907 40.165 39.1636 40.3933 38.6145 40.5213C35.9995 41.13 33.3628 41.1342 30.7218 40.6698C30.6688 40.6604 30.6166 40.6451 30.5619 40.629L30.5242 40.618C30.5102 40.614 30.4961 40.61 30.4817 40.6061H30.4823ZM39.878 38.7624C39.8701 38.4641 39.6009 38.2101 39.3056 38.2222C39.0043 38.2343 38.7618 38.5005 38.777 38.8018C38.7921 39.0965 39.0358 39.3269 39.3299 39.3244C39.6318 39.3214 39.8865 39.0607 39.878 38.763V38.7624ZM35.8146 33.1906C34.0382 33.3191 32.2739 33.21 30.4823 32.9069V36.1808L30.5061 36.1887L30.5191 36.1931C30.5435 36.2014 30.5629 36.208 30.5829 36.2117C33.2712 36.7186 35.9571 36.7113 38.6224 36.0905C39.1999 35.9558 39.7544 35.7112 40.304 35.4686C40.4075 35.423 40.5108 35.3774 40.614 35.3326C40.771 35.2647 40.9602 35.044 40.9657 34.8882C40.9902 34.1746 40.9872 33.4599 40.9841 32.7301V32.7298V32.7295V32.7292V32.7289C40.9831 32.4838 40.982 32.2369 40.982 31.9877C39.336 32.8196 37.5886 33.0627 35.8146 33.1906ZM39.2978 34.8925C38.988 34.8797 38.7563 34.6227 38.7764 34.3141C38.7958 34.0109 39.0692 33.7708 39.3657 33.7969C39.6531 33.8224 39.8877 34.0837 39.8768 34.3668C39.8653 34.6706 39.6064 34.9052 39.2978 34.8925ZM40.9839 27.6049V27.6057C37.5609 29.0478 34.0441 28.9999 30.4829 28.5022V31.7416C30.4947 31.7485 30.5043 31.755 30.5127 31.7606L30.5127 31.7607L30.5128 31.7607C30.527 31.7704 30.5375 31.7775 30.549 31.7798C33.3064 32.2951 36.0596 32.2897 38.7897 31.624C39.3482 31.4879 39.8821 31.2371 40.4099 30.9891L40.4099 30.9891L40.4102 30.989L40.4104 30.9889L40.4107 30.9888C40.4917 30.9507 40.5726 30.9127 40.6534 30.8752C40.8032 30.8055 40.9639 30.5732 40.9693 30.4114C40.9915 29.712 40.9886 29.0116 40.9858 28.3125V28.3124V28.3124V28.3123L40.9858 28.3091V28.3087C40.9848 28.0742 40.9839 27.8398 40.9839 27.6057L40.9845 27.6055L40.9839 27.6049ZM39.3311 29.3704C39.0268 29.3661 38.7751 29.6159 38.7751 29.9221C38.7751 30.2204 39.0043 30.4562 39.3026 30.4659C39.6124 30.4762 39.8683 30.2398 39.8774 29.9348C39.8865 29.6365 39.633 29.374 39.3311 29.3704ZM28.9331 32.4997L28.9225 32.4955L28.9171 32.4933C28.5255 32.3375 28.1307 32.1805 27.711 32.0138C27.711 32.2298 27.7107 32.4447 27.7105 32.6588V32.6592C27.7096 33.4046 27.7088 34.1397 27.7182 34.8749C27.7194 34.9792 27.797 35.1083 27.8789 35.1817C28.2978 35.5576 28.8174 35.7304 29.3576 35.9068V32.6686L28.9331 32.4997ZM27.737 27.6103C27.8542 27.654 27.9714 27.6974 28.0884 27.7407L28.0887 27.7408C28.4784 27.885 28.8669 28.0288 29.2515 28.1826C29.3079 28.2051 29.3595 28.3197 29.3601 28.3918C29.3659 29.2024 29.3655 30.0134 29.3651 30.843V30.8434L29.3649 31.4742C28.8156 31.3099 28.3003 31.131 27.8819 30.7582C27.7946 30.6806 27.7188 30.5381 27.717 30.4247C27.7076 29.6699 27.7107 28.9152 27.7138 28.1607V28.1606L27.7158 27.6497C27.7158 27.6373 27.726 27.6245 27.7322 27.6167C27.7341 27.6142 27.7357 27.6122 27.7364 27.6109L27.737 27.6103ZM28.9401 40.1903C29.073 40.2561 29.2089 40.3233 29.3485 40.3933V37.0915C29.0782 36.9841 28.8133 36.8791 28.5474 36.7737C28.2712 36.6642 27.994 36.5543 27.7085 36.4409C27.7085 36.6992 27.7091 36.9556 27.7097 37.2105C27.7111 37.8639 27.7126 38.5079 27.7043 39.1517C27.7006 39.4027 27.7837 39.5949 27.9923 39.7076C28.2983 39.8727 28.6101 40.027 28.9401 40.1903Z" fill="white"/>
<defs>
<linearGradient id="paint0_linear_383_7079" x1="0" y1="25" x2="50" y2="25" gradientUnits="userSpaceOnUse">
<stop stop-color="#4776E6"/>
<stop offset="1" stop-color="#8E54E9"/>
</linearGradient>
</defs>
</svg>
