<svg xmlns="http://www.w3.org/2000/svg" width="35" height="35" fill="none"><circle cx="17.5" cy="17.5" r="17.5" fill="url(#a)"/><path fill="#fff" d="M17.5 7a10.5 10.5 0 1 0 0 21 10.5 10.5 0 0 0 0-21m0 18.9a8.4 8.4 0 1 1 0-16.8 8.4 8.4 0 0 1 0 16.8m3.255-7.738L18.55 16.89V12.25a1.05 1.05 0 0 0-2.1 0v5.376a.7.7 0 0 0 .053.21q.032.093.084.179a1 1 0 0 0 .105.168l.168.136.094.095 2.73 1.574c.16.091.341.138.525.137a1.05 1.05 0 0 0 .525-1.963z"/><defs><linearGradient id="a" x1="0" x2="35" y1="17.5" y2="17.5" gradientUnits="userSpaceOnUse"><stop stop-color="#4776E6"/><stop offset="1" stop-color="#8E54E9"/></linearGradient></defs></svg>