<svg width="50" height="50" viewBox="0 0 50 50" fill="none" xmlns="http://www.w3.org/2000/svg">
<circle cx="25" cy="25" r="25" fill="url(#paint0_linear_721_11922)"/>
<path d="M25 10C22.0333 10 19.1332 10.8797 16.6665 12.528C14.1997 14.1762 12.2771 16.5189 11.1418 19.2597C10.0065 22.0006 9.70945 25.0166 10.2882 27.9263C10.867 30.8361 12.2956 33.5088 14.3934 35.6066C16.4912 37.7044 19.1639 39.133 22.0736 39.7118C24.9834 40.2905 27.9994 39.9935 30.7403 38.8582C33.4811 37.7229 35.8238 35.8003 37.472 33.3335C39.1203 30.8668 40 27.9667 40 25C40 23.0302 39.612 21.0796 38.8582 19.2597C38.1044 17.4399 36.9995 15.7863 35.6066 14.3934C34.2137 13.0005 32.5601 11.8956 30.7403 11.1418C28.9204 10.388 26.9698 10 25 10ZM25 37C22.6266 37 20.3066 36.2962 18.3332 34.9776C16.3598 33.659 14.8217 31.7849 13.9135 29.5922C13.0052 27.3995 12.7676 24.9867 13.2306 22.6589C13.6936 20.3311 14.8365 18.1929 16.5147 16.5147C18.193 14.8365 20.3311 13.6936 22.6589 13.2306C24.9867 12.7676 27.3995 13.0052 29.5922 13.9134C31.7849 14.8217 33.6591 16.3598 34.9776 18.3332C36.2962 20.3065 37 22.6266 37 25C37 28.1826 35.7357 31.2348 33.4853 33.4853C31.2348 35.7357 28.1826 37 25 37ZM29.65 25.945L26.5 24.13V17.5C26.5 17.1022 26.342 16.7206 26.0607 16.4393C25.7794 16.158 25.3978 16 25 16C24.6022 16 24.2206 16.158 23.9393 16.4393C23.658 16.7206 23.5 17.1022 23.5 17.5V25C23.5 25 23.5 25.12 23.5 25.18C23.5089 25.2833 23.5342 25.3846 23.575 25.48C23.6059 25.569 23.6461 25.6545 23.695 25.735C23.736 25.8203 23.7864 25.9007 23.845 25.975L24.085 26.17L24.22 26.305L28.12 28.555C28.3486 28.6846 28.6072 28.7518 28.87 28.75C29.2021 28.7523 29.5256 28.6443 29.7898 28.443C30.0539 28.2417 30.2438 27.9584 30.3296 27.6375C30.4154 27.3166 30.3922 26.9764 30.2638 26.6701C30.1354 26.3638 29.909 26.1087 29.62 25.945H29.65Z" fill="white"/>
<defs>
<linearGradient id="paint0_linear_721_11922" x1="0" y1="25" x2="50" y2="25" gradientUnits="userSpaceOnUse">
<stop stop-color="#4776E6"/>
<stop offset="1" stop-color="#8E54E9"/>
</linearGradient>
</defs>
</svg>
