<svg width="30" height="30" viewBox="0 0 30 30" fill="none" xmlns="http://www.w3.org/2000/svg">
<path d="M17.4768 19.1014C17.8456 19.1014 18.1656 18.9658 18.4367 18.6947C18.7079 18.4235 18.8435 18.1035 18.8435 17.7348C18.8435 17.366 18.7079 17.046 18.4367 16.7748C18.1656 16.5037 17.8456 16.3681 17.4768 16.3681C17.0955 16.3681 16.7723 16.5037 16.5075 16.7748C16.2426 17.046 16.1101 17.366 16.1101 17.7348C16.1101 18.1035 16.2426 18.4235 16.5075 18.6947C16.7723 18.9658 17.0955 19.1014 17.4768 19.1014ZM16.6435 15.1464H18.2101C18.242 14.615 18.3396 14.1843 18.5029 13.8543C18.6662 13.5244 19.0053 13.1067 19.5203 12.6014C20.1077 12.0419 20.5213 11.542 20.7609 11.1019C21.0005 10.6618 21.1203 10.1568 21.1203 9.58697C21.1203 8.55479 20.7734 7.71897 20.0797 7.0795C19.386 6.44004 18.4655 6.1203 17.3182 6.1203C16.4626 6.1203 15.7014 6.34494 15.0348 6.7942C14.3681 7.24347 13.8855 7.87921 13.5869 8.70144L15.0869 9.33477C15.3314 8.79179 15.6356 8.37586 15.9997 8.08697C16.3638 7.79808 16.8054 7.65364 17.3246 7.65364C17.996 7.65364 18.5354 7.83938 18.9427 8.21087C19.35 8.58236 19.5536 9.05071 19.5536 9.61594C19.5536 10.0539 19.4536 10.4422 19.2536 10.781C19.0536 11.1197 18.6981 11.4821 18.1869 11.8681C17.5386 12.4749 17.1193 12.9853 16.929 13.3993C16.7386 13.8133 16.6435 14.3957 16.6435 15.1464ZM8.15651 24.4841C7.43413 24.4841 6.81345 24.2246 6.29445 23.7055C5.77542 23.1865 5.51591 22.5658 5.51591 21.8435V3.51594C5.51591 2.78838 5.77542 2.16325 6.29445 1.64054C6.81345 1.11782 7.43413 0.856468 8.15651 0.856468H26.484C27.2116 0.856468 27.8367 1.11782 28.3594 1.64054C28.8822 2.16325 29.1435 2.78838 29.1435 3.51594V21.8435C29.1435 22.5658 28.8822 23.1865 28.3594 23.7055C27.8367 24.2246 27.2116 24.4841 26.484 24.4841H8.15651ZM8.15651 21.8435H26.484V3.51594H8.15651V21.8435ZM3.51591 29.1435C2.78836 29.1435 2.16322 28.8822 1.64051 28.3595C1.1178 27.8368 0.856445 27.2116 0.856445 26.4841V5.51594H3.51591V26.4841H24.484V29.1435H3.51591Z" fill="#6C6F89"/>
</svg>
