<svg width="40" height="40" viewBox="0 0 40 40" fill="none" xmlns="http://www.w3.org/2000/svg">
<circle cx="20" cy="20" r="20" fill="#F6F9FF"/>
<path d="M11.3105 25.0257L18.8228 29.3614V20.7611L11.3105 16.4254V25.0257ZM21.018 29.3614L28.5138 25.0257V16.3962L21.018 20.7611V29.3614ZM12.5039 14.5879L19.9122 18.8944L27.3078 14.5879L19.9122 10.3105L12.5039 14.5879ZM9 26.3763V15.2739C9 14.8639 9.09976 14.4788 9.29928 14.1187C9.4988 13.7585 9.78413 13.4732 10.1553 13.2627L18.7569 8.29928C19.117 8.09976 19.5021 8 19.9122 8C20.3222 8 20.7073 8.09976 21.0674 8.29928L29.669 13.2627C30.0402 13.4732 30.3283 13.7585 30.5333 14.1187C30.7383 14.4788 30.8408 14.8639 30.8408 15.2739V25.0257C30.8408 25.4358 30.7383 25.8209 30.5333 26.181C30.3283 26.5412 30.0402 26.8265 29.669 27.037L21.0674 31.9839C20.7073 32.1944 20.3222 32.2997 19.9122 32.2997C19.5021 32.2997 19.117 32.1944 18.7569 31.9839L9 26.3763Z" fill="#0033AD"/>
</svg>
