<svg xmlns="http://www.w3.org/2000/svg" width="30" height="30" fill="none"><path fill="#6C6F89" d="M17.477 19.101q.553 0 .96-.406t.406-.96-.406-.96a1.31 1.31 0 0 0-.96-.407q-.572 0-.97.407a1.33 1.33 0 0 0-.397.96q0 .553.398.96.397.405.969.406m-.834-3.955h1.567q.048-.797.293-1.292.244-.495 1.017-1.253.882-.84 1.24-1.5.36-.66.36-1.514 0-1.548-1.04-2.507t-2.762-.96q-1.283 0-2.283.674-1 .675-1.448 1.907l1.5.634q.366-.815.913-1.248.546-.433 1.325-.433 1.006 0 1.618.557.61.557.61 1.405 0 .657-.3 1.165t-1.066 1.087q-.972.91-1.258 1.531-.285.622-.285 1.747m-8.486 9.338a2.54 2.54 0 0 1-1.863-.779 2.54 2.54 0 0 1-.778-1.861V3.515q0-1.092.778-1.875.78-.785 1.863-.785h18.327q1.092 0 1.875.785.784.783.784 1.875v18.327q.001 1.084-.784 1.863a2.57 2.57 0 0 1-1.875.778zm0-2.64h18.327V3.515H8.157zm-4.641 7.3a2.56 2.56 0 0 1-1.875-.784 2.56 2.56 0 0 1-.785-1.876V5.516h2.66v20.968h20.968v2.66z"/></svg>