<svg width="35" height="35" viewBox="0 0 35 35" fill="none" xmlns="http://www.w3.org/2000/svg">
<circle cx="17.5" cy="17.5" r="17.5" fill="#131316"/>
<path d="M25.6175 13.063C25.6175 13.063 25.6175 13.063 25.6175 12.9863L25.56 12.8425C25.54 12.812 25.5176 12.7832 25.4929 12.7563C25.4673 12.7157 25.4384 12.6773 25.4067 12.6413L25.3204 12.5742L25.1671 12.4975L17.9796 8.06046C17.8273 7.96527 17.6513 7.91479 17.4717 7.91479C17.2921 7.91479 17.1161 7.96527 16.9638 8.06046L9.83376 12.4975L9.74751 12.5742L9.66126 12.6413C9.62949 12.6773 9.60065 12.7157 9.57501 12.7563C9.55037 12.7832 9.52794 12.812 9.50792 12.8425L9.45042 12.9863C9.45042 12.9863 9.45042 12.9863 9.45042 13.063C9.441 13.1458 9.441 13.2293 9.45042 13.3121V21.688C9.4501 21.8508 9.49128 22.0111 9.57009 22.1536C9.6489 22.2961 9.76273 22.4162 9.90084 22.5025L17.0883 26.9396C17.1326 26.967 17.1812 26.9864 17.2321 26.9971C17.2321 26.9971 17.28 26.9971 17.3088 26.9971C17.4709 27.0486 17.645 27.0486 17.8071 26.9971C17.8071 26.9971 17.855 26.9971 17.8838 26.9971C17.9346 26.9864 17.9833 26.967 18.0275 26.9396L25.1671 22.5025C25.3052 22.4162 25.419 22.2961 25.4978 22.1536C25.5766 22.0111 25.6178 21.8508 25.6175 21.688V13.3121C25.6269 13.2293 25.6269 13.1458 25.6175 13.063ZM16.5421 24.4096L11.2713 21.1513V15.0371L16.5421 18.2859V24.4096ZM17.5004 16.628L12.1338 13.3121L17.5004 10.0059L22.8671 13.3121L17.5004 16.628ZM23.7296 21.1513L18.4588 24.4096V18.2859L23.7296 15.0371V21.1513Z" fill="#66BDFF"/>
</svg>
