<svg width="18" height="18" viewBox="0 0 22 22" xmlns="http://www.w3.org/2000/svg">
<path d="M11 19.3875C8.66249 19.3875 6.6802 18.574 5.05311 16.9469C3.42603 15.3198 2.61249 13.3375 2.61249 11C2.61249 8.6625 3.42603 6.67639 5.05311 5.04167C6.6802 3.40695 8.66249 2.58958 11 2.58958C11.1069 2.58958 11.2215 2.5934 11.3437 2.60104C11.466 2.60868 11.6264 2.62014 11.825 2.63542C11.3514 3.15486 10.9847 3.75451 10.725 4.43438C10.4653 5.11424 10.3354 5.82083 10.3354 6.55417C10.3354 7.975 10.8319 9.18577 11.825 10.1865C12.818 11.1872 14.0326 11.6875 15.4687 11.6875C16.2021 11.6875 16.9087 11.5691 17.5885 11.3323C18.2684 11.0955 18.868 10.7632 19.3875 10.3354C19.3875 10.5035 19.3913 10.6333 19.3989 10.725C19.4066 10.8167 19.4104 10.9007 19.4104 10.9771C19.4104 13.3146 18.593 15.3007 16.9583 16.9354C15.3236 18.5701 13.3375 19.3875 11 19.3875ZM11 17.5771C12.4972 17.5771 13.8111 17.1264 14.9417 16.225C16.0722 15.3236 16.7979 14.2694 17.1187 13.0625C16.7979 13.2 16.4503 13.3031 16.076 13.3719C15.7017 13.4406 15.3312 13.4674 14.9646 13.4521C13.2382 13.3299 11.7677 12.6729 10.5531 11.4813C9.33853 10.2896 8.67013 8.8 8.5479 7.0125C8.5479 6.72222 8.57464 6.40139 8.62811 6.05C8.68159 5.69861 8.79235 5.28611 8.9604 4.8125C7.66179 5.24028 6.58089 6.03472 5.7177 7.19583C4.8545 8.35695 4.4229 9.625 4.4229 11C4.4229 12.8333 5.06075 14.3878 6.33645 15.6635C7.61214 16.9392 9.16665 17.5771 11 17.5771Z"/>
</svg>
