<svg width="20" height="20" viewBox="0 0 20 20" fill="none" xmlns="http://www.w3.org/2000/svg">
<path d="M15.8346 3.33366H14.168V2.50033C14.168 2.27931 14.0802 2.06735 13.9239 1.91107C13.7676 1.75479 13.5556 1.66699 13.3346 1.66699C13.1136 1.66699 12.9017 1.75479 12.7454 1.91107C12.5891 2.06735 12.5013 2.27931 12.5013 2.50033V3.33366H7.5013V2.50033C7.5013 2.27931 7.4135 2.06735 7.25722 1.91107C7.10094 1.75479 6.88898 1.66699 6.66797 1.66699C6.44696 1.66699 6.23499 1.75479 6.07871 1.91107C5.92243 2.06735 5.83464 2.27931 5.83464 2.50033V3.33366H4.16797C3.50493 3.33366 2.86904 3.59705 2.4002 4.06589C1.93136 4.53473 1.66797 5.17062 1.66797 5.83366V15.8337C1.66797 16.4967 1.93136 17.1326 2.4002 17.6014C2.86904 18.0703 3.50493 18.3337 4.16797 18.3337H15.8346C16.4977 18.3337 17.1336 18.0703 17.6024 17.6014C18.0712 17.1326 18.3346 16.4967 18.3346 15.8337V5.83366C18.3346 5.17062 18.0712 4.53473 17.6024 4.06589C17.1336 3.59705 16.4977 3.33366 15.8346 3.33366ZM16.668 15.8337C16.668 16.0547 16.5802 16.2666 16.4239 16.4229C16.2676 16.5792 16.0556 16.667 15.8346 16.667H4.16797C3.94696 16.667 3.73499 16.5792 3.57871 16.4229C3.42243 16.2666 3.33464 16.0547 3.33464 15.8337V10.0003H16.668V15.8337ZM16.668 8.33366H3.33464V5.83366C3.33464 5.61265 3.42243 5.40068 3.57871 5.2444C3.73499 5.08812 3.94696 5.00033 4.16797 5.00033H5.83464V5.83366C5.83464 6.05467 5.92243 6.26663 6.07871 6.42291C6.23499 6.5792 6.44696 6.66699 6.66797 6.66699C6.88898 6.66699 7.10094 6.5792 7.25722 6.42291C7.4135 6.26663 7.5013 6.05467 7.5013 5.83366V5.00033H12.5013V5.83366C12.5013 6.05467 12.5891 6.26663 12.7454 6.42291C12.9017 6.5792 13.1136 6.66699 13.3346 6.66699C13.5556 6.66699 13.7676 6.5792 13.9239 6.42291C14.0802 6.26663 14.168 6.05467 14.168 5.83366V5.00033H15.8346C16.0556 5.00033 16.2676 5.08812 16.4239 5.2444C16.5802 5.40068 16.668 5.61265 16.668 5.83366V8.33366Z" fill="#667085"/>
</svg>
