<svg width="28" height="28" viewBox="0 0 28 28" fill="none" xmlns="http://www.w3.org/2000/svg">
<path fill-rule="evenodd" clip-rule="evenodd" d="M25.9726 8.14908C25.965 7.90219 25.9573 7.65528 25.9573 7.40932H26.009C26.009 7.21548 26.0096 7.02165 26.0102 6.82784C26.0115 6.40156 26.0128 5.97537 26.0078 5.54946C25.9898 3.93743 24.8686 2.47217 23.2914 2.12991C22.6813 1.99741 22.036 1.99887 21.4022 2.0003L21.2066 2.00059C19.2144 1.99999 17.6156 3.61503 17.6072 5.61142C17.6018 6.80119 17.6024 7.99097 17.6072 9.18074C17.615 10.972 18.9029 12.492 20.6737 12.7392C21.2224 12.8156 21.7858 12.8047 22.344 12.7938L22.5287 12.7904C24.2063 12.7609 25.7366 11.4418 25.9411 9.77263C26.0065 9.2383 25.9895 8.69372 25.9726 8.14908ZM20.0072 9.14947V7.38165C20.0072 7.20772 20.0069 7.0338 20.0066 6.85989V6.85984V6.85979C20.0058 6.45393 20.0051 6.04817 20.0084 5.6427C20.0144 4.90345 20.5143 4.403 21.2523 4.39578C21.6421 4.39157 22.0319 4.38796 22.4217 4.39698C23.0893 4.41202 23.5988 4.91187 23.6048 5.58074C23.615 6.78977 23.615 7.99879 23.6048 9.20781C23.5988 9.87729 23.0911 10.3777 22.4229 10.3934C22.0132 10.403 21.603 10.403 21.1934 10.3934C20.5257 10.3783 20.0289 9.87668 20.0072 9.20962V9.14947ZM8.24121 25.265C8.73865 25.6577 9.32391 25.843 9.92301 25.9994H12.0836C12.1041 25.9926 12.1245 25.9851 12.1449 25.9776L12.1449 25.9776L12.1449 25.9776L12.1449 25.9776L12.1449 25.9776C12.188 25.9617 12.231 25.9458 12.2755 25.9368C13.9675 25.6 15.194 24.1227 15.203 22.3964C15.209 21.1765 15.2126 19.9567 15.2012 18.7374C15.1862 17.1435 14.059 15.6722 12.5017 15.3359C11.8645 15.1981 11.1906 15.2009 10.5293 15.2036L10.3579 15.2042C8.41925 15.209 6.81684 16.8259 6.80301 18.7675C6.79459 19.9874 6.78797 21.2072 6.80542 22.4265C6.82226 23.5982 7.32271 24.5396 8.24121 25.265ZM12.8042 18.8638V20.6021C12.8042 20.7852 12.8046 20.9684 12.8049 21.1515V21.1516V21.1516V21.1517V21.1517C12.8057 21.5483 12.8065 21.9448 12.8036 22.3411C12.7982 23.0959 12.2978 23.5922 11.5393 23.5982L11.4405 23.599C11.0938 23.6018 10.7466 23.6047 10.4 23.597C9.7173 23.582 9.21083 23.0779 9.20602 22.3922C9.1976 21.1934 9.197 19.994 9.20602 18.7952C9.21083 18.1119 9.72271 17.6114 10.4084 17.5994C10.8084 17.5922 11.2084 17.5916 11.6078 17.5994C12.2905 17.6126 12.7868 18.1167 12.8042 18.8036V18.8638ZM19.0454 25.265C19.5429 25.6577 20.1281 25.843 20.7272 25.9994H22.8878C22.9083 25.9926 22.9287 25.9851 22.9491 25.9776L22.9492 25.9776L22.9492 25.9776C22.9922 25.9617 23.0353 25.9458 23.0797 25.9368C24.7717 25.6 25.9982 24.1227 26.0072 22.3964C26.0132 21.1765 26.0169 19.9567 26.0054 18.7374C25.9904 17.1435 24.8632 15.6722 23.3059 15.3359C22.6687 15.1981 21.9948 15.2009 21.3335 15.2036L21.1621 15.2042C19.2235 15.209 17.6211 16.8259 17.6072 18.7675C17.5988 19.9874 17.5922 21.2072 17.6096 22.4265C17.6265 23.5982 18.1269 24.5396 19.0454 25.265ZM23.6094 20.0565V20.0566V20.0566V20.0567V20.0568C23.6086 20.2422 23.6078 20.4276 23.6078 20.6129L23.6072 20.6117L23.6083 20.9986V20.9986V20.9987V20.9987V20.9988C23.6096 21.4496 23.611 21.9003 23.6072 22.3507C23.6006 23.0899 23.1008 23.5898 22.3627 23.5976H22.3626C21.9728 23.6018 21.5831 23.606 21.1934 23.5964C20.5257 23.5802 20.0156 23.0791 20.0102 22.412C20 21.203 20.0006 19.994 20.0102 18.785C20.0156 18.1173 20.5251 17.615 21.1922 17.6C21.6018 17.591 22.012 17.591 22.4217 17.6C23.0893 17.615 23.5934 18.1155 23.6054 18.7844C23.613 19.2083 23.6112 19.6324 23.6094 20.0565ZM2 24.5594L2.00918 24.538C2.02956 24.4905 2.04982 24.4433 2.06917 24.3952C2.29113 23.8508 2.8006 23.5368 3.34737 23.6066C3.89835 23.677 4.34226 24.1323 4.39579 24.6827C4.44993 25.2355 4.12632 25.7293 3.57474 25.9386C3.54383 25.9504 3.51374 25.965 3.48374 25.9795C3.46937 25.9864 3.45502 25.9934 3.4406 26H2.9606C2.47639 25.8436 2.15519 25.5242 2 25.0394V24.5594ZM7.98737 5.6024H12.7898V7.98556H8.01444V11.6042C5.98436 9.98074 4.01143 8.4024 2.00241 6.79458L2.03429 6.76907L2.04305 6.76206C4.02674 5.17499 5.98421 3.6089 7.98737 2.00661V5.6024ZM15.2042 11.5832C15.1976 10.9251 14.6508 10.3904 13.9916 10.397C13.3335 10.4036 12.7988 10.9498 12.8054 11.6096C12.812 12.2671 13.3588 12.8024 14.0181 12.7958C14.6755 12.7892 15.2108 12.2424 15.2042 11.5832Z" fill="#438F68"/>
</svg>
