<svg width="23" height="23" viewBox="0 0 23 23" xmlns="http://www.w3.org/2000/svg">
<path fill="#434656" d="M20.1243 17.25H18.2077V14.375C18.2077 14.1208 18.1067 13.8771 17.927 13.6973C17.7473 13.5176 17.5035 13.4167 17.2493 13.4167H12.4577V10.8196L13.5406 11.385C13.6985 11.4676 13.8764 11.5045 14.0541 11.4917C14.2319 11.4788 14.4025 11.4166 14.5469 11.312C14.6912 11.2075 14.8036 11.0648 14.8713 10.8999C14.939 10.735 14.9594 10.5546 14.9302 10.3787L14.5469 8.10749L16.1952 6.48791C16.32 6.36599 16.4092 6.2123 16.4531 6.04342C16.497 5.87453 16.494 5.69686 16.4443 5.52958C16.3888 5.35926 16.2866 5.20791 16.1494 5.09273C16.0122 4.97754 15.8455 4.90312 15.6681 4.87791L13.416 4.52333L12.3618 2.45333C12.2834 2.2913 12.1609 2.15465 12.0083 2.05904C11.8558 1.96343 11.6794 1.91272 11.4993 1.91272C11.3193 1.91272 11.1429 1.96343 10.9904 2.05904C10.8378 2.15465 10.7153 2.2913 10.6368 2.45333L9.58268 4.52333L7.29227 4.85874C7.1149 4.88395 6.94815 4.95837 6.81094 5.07356C6.67373 5.18875 6.57156 5.34009 6.51602 5.51041C6.46636 5.6777 6.46333 5.85536 6.50724 6.02425C6.55115 6.19313 6.64034 6.34683 6.76518 6.46874L8.45185 8.10749L8.06852 10.3787C8.0393 10.5546 8.0597 10.735 8.12741 10.8999C8.19512 11.0648 8.30746 11.2075 8.45182 11.312C8.59617 11.4166 8.76682 11.4788 8.94458 11.4917C9.12234 11.5045 9.30017 11.4676 9.4581 11.385L10.541 10.8196V13.4167H5.74935C5.49518 13.4167 5.25143 13.5176 5.07171 13.6973C4.89198 13.8771 4.79102 14.1208 4.79102 14.375V17.25H2.87435C2.62018 17.25 2.37643 17.351 2.1967 17.5307C2.01698 17.7104 1.91602 17.9542 1.91602 18.2083V20.125C1.91602 20.3792 2.01698 20.6229 2.1967 20.8026C2.37643 20.9824 2.62018 21.0833 2.87435 21.0833C3.12851 21.0833 3.37227 20.9824 3.55199 20.8026C3.73172 20.6229 3.83268 20.3792 3.83268 20.125V19.1667H7.66602V20.125C7.66602 20.3792 7.76698 20.6229 7.94671 20.8026C8.12643 20.9824 8.37018 21.0833 8.62435 21.0833C8.87852 21.0833 9.12227 20.9824 9.30199 20.8026C9.48172 20.6229 9.58268 20.3792 9.58268 20.125V18.2083C9.58268 17.9542 9.48172 17.7104 9.30199 17.5307C9.12227 17.351 8.87852 17.25 8.62435 17.25H6.70768V15.3333H16.291V17.25H14.3743C14.1202 17.25 13.8764 17.351 13.6967 17.5307C13.517 17.7104 13.416 17.9542 13.416 18.2083V20.125C13.416 20.3792 13.517 20.6229 13.6967 20.8026C13.8764 20.9824 14.1202 21.0833 14.3743 21.0833C14.6285 21.0833 14.8723 20.9824 15.052 20.8026C15.2317 20.6229 15.3327 20.3792 15.3327 20.125V19.1667H19.166V20.125C19.166 20.3792 19.267 20.6229 19.4467 20.8026C19.6264 20.9824 19.8702 21.0833 20.1243 21.0833C20.3785 21.0833 20.6223 20.9824 20.802 20.8026C20.9817 20.6229 21.0827 20.3792 21.0827 20.125V18.2083C21.0827 17.9542 20.9817 17.7104 20.802 17.5307C20.6223 17.351 20.3785 17.25 20.1243 17.25ZM11.4993 8.27041C11.342 8.2712 11.1874 8.31069 11.0489 8.38541L10.2823 8.78791L10.426 7.92541C10.4512 7.77285 10.439 7.61646 10.3906 7.46961C10.3422 7.32276 10.259 7.1898 10.1481 7.08208L9.52518 6.46874L10.3877 6.34416C10.542 6.32354 10.6889 6.26565 10.8158 6.17548C10.9427 6.08531 11.0458 5.96559 11.116 5.82666L11.4993 5.04083L11.8827 5.82666C11.9529 5.96559 12.0559 6.08531 12.1829 6.17548C12.3098 6.26565 12.4567 6.32354 12.611 6.34416L13.4735 6.46874L12.8506 7.08208C12.7397 7.1898 12.6565 7.32276 12.6081 7.46961C12.5597 7.61646 12.5475 7.77285 12.5727 7.92541L12.7164 8.78791L11.9498 8.38541C11.8113 8.31069 11.6567 8.2712 11.4993 8.27041Z" />
</svg>
