<svg xmlns="http://www.w3.org/2000/svg" width="17" height="21"><path d="M16.167 7.568a1.3 1.3 0 0 0-.058-.259v-.086a1 1 0 0 0-.182-.269l-5.75-5.75a1 1 0 0 0-.268-.182h-.096a1 1 0 0 0-.297-.105H3.709A2.875 2.875 0 0 0 .833 3.792v13.417a2.875 2.875 0 0 0 2.875 2.875h9.584a2.875 2.875 0 0 0 2.875-2.875V7.568m-5.75-3.383 2.482 2.482h-1.524a.96.96 0 0 1-.958-.958zm3.833 13.024a.96.96 0 0 1-.958.958H3.709a.96.96 0 0 1-.959-.958V3.792a.96.96 0 0 1 .958-.958H8.5v2.875a2.875 2.875 0 0 0 2.875 2.875h2.875zm-4.514-4.514-.277.287V10.5a.958.958 0 0 0-1.917 0v2.482l-.278-.287a.962.962 0 0 0-1.36 1.36l1.916 1.917a1 1 0 0 0 .316.202.9.9 0 0 0 .728 0 1 1 0 0 0 .317-.202l1.916-1.916a.962.962 0 1 0-1.36-1.361"/></svg>