<svg xmlns="http://www.w3.org/2000/svg" width="26" height="22" fill="none"><path fill="#434656" d="M14.689 11.285a6.343 6.343 0 0 0 2.21-4.814 6.46 6.46 0 0 0-1.904-4.576A6.51 6.51 0 0 0 10.399 0a6.51 6.51 0 0 0-4.596 1.895A6.46 6.46 0 0 0 3.9 6.471a6.34 6.34 0 0 0 2.21 4.814A10.4 10.4 0 0 0 1.662 15.1 10.3 10.3 0 0 0 0 20.706c0 .343.137.672.38.915a1.303 1.303 0 0 0 2.22-.915c0-2.06.821-4.034 2.284-5.49A7.82 7.82 0 0 1 10.4 12.94c2.069 0 4.052.818 5.515 2.274a7.75 7.75 0 0 1 2.284 5.49c0 .344.137.673.381.916a1.303 1.303 0 0 0 2.22-.915 10.3 10.3 0 0 0-1.663-5.605 10.4 10.4 0 0 0-4.447-3.816m-4.29-.932a3.9 3.9 0 0 1-2.166-.654 3.9 3.9 0 0 1-1.437-1.743 3.87 3.87 0 0 1 .846-4.23 3.905 3.905 0 0 1 4.25-.842 3.9 3.9 0 0 1 1.75 1.43 3.87 3.87 0 0 1-.486 4.902 3.9 3.9 0 0 1-2.757 1.137m15.222-3.067a1.3 1.3 0 0 0-1.846 0l-2.6 2.588-.806-.815a1.3 1.3 0 0 0-1.846 0 1.29 1.29 0 0 0 0 1.825l1.742 1.734a1.303 1.303 0 0 0 1.833 0l3.47-3.456a1.3 1.3 0 0 0 .34-1.44 1.3 1.3 0 0 0-.287-.436"/></svg>