<svg width="17" height="21" viewBox="0 0 17 21"  xmlns="http://www.w3.org/2000/svg">
<path d="M16.1668 7.56782C16.1568 7.47979 16.1376 7.39305 16.1093 7.30908V7.22283C16.0633 7.12429 16.0018 7.03371 15.9272 6.95449V6.95449L10.1772 1.20449C10.098 1.12995 10.0074 1.06849 9.90891 1.02241H9.81308C9.71989 0.972578 9.61975 0.937042 9.516 0.916992H3.7085C2.946 0.916992 2.21473 1.21989 1.67556 1.75906C1.1364 2.29823 0.833496 3.02949 0.833496 3.79199V17.2087C0.833496 17.9712 1.1364 18.7024 1.67556 19.2416C2.21473 19.7808 2.946 20.0837 3.7085 20.0837H13.2918C14.0543 20.0837 14.7856 19.7808 15.3248 19.2416C15.8639 18.7024 16.1668 17.9712 16.1668 17.2087V7.62533C16.1668 7.62533 16.1668 7.62532 16.1668 7.56782ZM10.4168 4.18491L12.8989 6.66699H11.3752C11.121 6.66699 10.8772 6.56602 10.6975 6.3863C10.5178 6.20658 10.4168 5.96282 10.4168 5.70866V4.18491ZM14.2502 17.2087C14.2502 17.4628 14.1492 17.7066 13.9695 17.8863C13.7898 18.066 13.546 18.167 13.2918 18.167H3.7085C3.45433 18.167 3.21057 18.066 3.03085 17.8863C2.85113 17.7066 2.75016 17.4628 2.75016 17.2087V3.79199C2.75016 3.53783 2.85113 3.29407 3.03085 3.11435C3.21057 2.93463 3.45433 2.83366 3.7085 2.83366H8.50016V5.70866C8.50016 6.47116 8.80306 7.20242 9.34223 7.74159C9.8814 8.28076 10.6127 8.58366 11.3752 8.58366H14.2502V17.2087ZM9.73641 12.6949L9.4585 12.9824V10.5003C9.4585 10.2462 9.35753 10.0024 9.17781 9.82268C8.99808 9.64296 8.75433 9.54199 8.50016 9.54199C8.246 9.54199 8.00224 9.64296 7.82252 9.82268C7.6428 10.0024 7.54183 10.2462 7.54183 10.5003V12.9824L7.26391 12.6949C7.08345 12.5145 6.8387 12.4131 6.5835 12.4131C6.32829 12.4131 6.08354 12.5145 5.90308 12.6949C5.72262 12.8754 5.62124 13.1201 5.62124 13.3753C5.62124 13.6305 5.72262 13.8753 5.90308 14.0557L7.81975 15.9724C7.91089 16.0597 8.01836 16.128 8.136 16.1737C8.25071 16.2244 8.37474 16.2505 8.50016 16.2505C8.62558 16.2505 8.74962 16.2244 8.86433 16.1737C8.98197 16.128 9.08944 16.0597 9.18058 15.9724L11.0972 14.0557C11.2777 13.8753 11.3791 13.6305 11.3791 13.3753C11.3791 13.1201 11.2777 12.8754 11.0972 12.6949C10.9168 12.5145 10.672 12.4131 10.4168 12.4131C10.1616 12.4131 9.91687 12.5145 9.73641 12.6949V12.6949Z"/>
</svg>
