<svg width="30" height="25" viewBox="0 0 30 25" fill="none" xmlns="http://www.w3.org/2000/svg">
<path d="M10.4665 24.0667C7.75536 24.0667 5.46647 23.1278 3.5998 21.25C1.73314 19.3722 0.799805 17.0889 0.799805 14.4C0.799805 11.6222 1.75536 9.39445 3.66647 7.71667C5.57758 6.03889 7.74425 5.25556 10.1665 5.36667L7.36647 2.6L9.13314 0.833336L14.8998 6.63334L9.0998 12.4333L7.36647 10.6667L10.3998 7.66667C8.37758 7.62222 6.67758 8.22222 5.2998 9.46667C3.92203 10.7111 3.23314 12.3556 3.23314 14.4C3.23314 16.4 3.93869 18.1056 5.3498 19.5167C6.76092 20.9278 8.46647 21.6333 10.4665 21.6333H14.7665V24.0667H10.4665ZM17.2331 11.6333V1.63334H29.8665V11.6333H17.2331ZM17.2331 24.0667V14.0667H29.8665V24.0667H17.2331ZM19.8665 21.4H27.2331V16.7333H19.8665V21.4Z" fill="#6C6F89"/>
</svg>
