<svg width="26" height="24" viewBox="0 0 26 24" fill="none" xmlns="http://www.w3.org/2000/svg">
<path d="M22.3332 16.6664C21.609 16.6701 20.9038 16.8984 20.3148 17.3197L17.4565 15.6281C17.5914 15.2095 17.6622 14.7729 17.6665 14.3331C17.6632 13.3011 17.3178 12.2993 16.6845 11.4845C16.0512 10.6697 15.1657 10.0877 14.1665 9.82974V7.12307C14.9449 6.84786 15.601 6.30633 16.0187 5.59418C16.4365 4.88203 16.589 4.04513 16.4494 3.23138C16.3098 2.41764 15.887 1.67945 15.2558 1.14728C14.6245 0.615119 13.8255 0.323242 12.9998 0.323242C12.1742 0.323242 11.3751 0.615119 10.7439 1.14728C10.1127 1.67945 9.68986 2.41764 9.55024 3.23138C9.41063 4.04513 9.56318 4.88203 9.98094 5.59418C10.3987 6.30633 11.0548 6.84786 11.8332 7.12307V9.82974C10.834 10.0877 9.94843 10.6697 9.31514 11.4845C8.68185 12.2993 8.33652 13.3011 8.33317 14.3331C8.33751 14.7729 8.40831 15.2095 8.54317 15.6281L5.68484 17.3197C5.09585 16.8984 4.39067 16.6701 3.66651 16.6664C2.97427 16.6664 2.29758 16.8717 1.72201 17.2563C1.14644 17.6408 0.697834 18.1875 0.432927 18.827C0.16802 19.4666 0.0987087 20.1703 0.233757 20.8492C0.368805 21.5282 0.702148 22.1518 1.19163 22.6413C1.68112 23.1308 2.30476 23.4641 2.98369 23.5992C3.66262 23.7342 4.36636 23.6649 5.0059 23.4C5.64544 23.1351 6.19206 22.6865 6.57665 22.1109C6.96123 21.5353 7.16651 20.8586 7.16651 20.1664C7.16219 19.8504 7.1151 19.5364 7.02651 19.2331L9.70984 17.6347C10.5842 18.5039 11.767 18.9918 12.9998 18.9918C14.2327 18.9918 15.4155 18.5039 16.2898 17.6347L18.9732 19.2331C18.7777 19.9396 18.809 20.6897 19.0627 21.3775C19.3163 22.0653 19.7796 22.6561 20.387 23.0665C20.9944 23.4769 21.7154 23.6862 22.4482 23.6649C23.1809 23.6436 23.8885 23.3927 24.4711 22.9477C25.0536 22.5027 25.4818 21.886 25.695 21.1846C25.9083 20.4833 25.896 19.7326 25.6598 19.0387C25.4236 18.3447 24.9754 17.7424 24.3786 17.3167C23.7817 16.8911 23.0662 16.6636 22.3332 16.6664ZM3.66651 21.3331C3.43576 21.3331 3.2102 21.2647 3.01834 21.1365C2.82648 21.0083 2.67695 20.826 2.58865 20.6129C2.50034 20.3997 2.47724 20.1651 2.52226 19.9388C2.56727 19.7125 2.67839 19.5046 2.84155 19.3414C3.00471 19.1783 3.21259 19.0672 3.4389 19.0222C3.66521 18.9771 3.89979 19.0002 4.11297 19.0885C4.32615 19.1768 4.50836 19.3264 4.63655 19.5182C4.76475 19.7101 4.83317 19.9357 4.83317 20.1664C4.83317 20.4758 4.71026 20.7726 4.49146 20.9914C4.27267 21.2102 3.97592 21.3331 3.66651 21.3331ZM12.9998 2.66641C13.2306 2.66641 13.4561 2.73483 13.648 2.86303C13.8399 2.99122 13.9894 3.17343 14.0777 3.38661C14.166 3.59979 14.1891 3.83437 14.1441 4.06068C14.0991 4.28699 13.988 4.49487 13.8248 4.65803C13.6616 4.82119 13.4538 4.93231 13.2274 4.97732C13.0011 5.02234 12.7666 4.99924 12.5534 4.91093C12.3402 4.82263 12.158 4.6731 12.0298 4.48124C11.9016 4.28938 11.8332 4.06382 11.8332 3.83307C11.8332 3.52365 11.9561 3.22691 12.1749 3.00812C12.3937 2.78932 12.6904 2.66641 12.9998 2.66641ZM12.9998 16.6664C12.5383 16.6664 12.0872 16.5296 11.7035 16.2732C11.3198 16.0168 11.0207 15.6524 10.8441 15.226C10.6675 14.7996 10.6213 14.3305 10.7113 13.8779C10.8014 13.4252 11.0236 13.0095 11.3499 12.6832C11.6762 12.3568 12.092 12.1346 12.5446 12.0446C12.9972 11.9545 13.4664 12.0007 13.8928 12.1774C14.3191 12.354 14.6835 12.653 14.9399 13.0367C15.1963 13.4205 15.3332 13.8716 15.3332 14.3331C15.3332 14.9519 15.0873 15.5454 14.6498 15.983C14.2122 16.4206 13.6187 16.6664 12.9998 16.6664ZM22.3332 21.3331C22.1024 21.3331 21.8769 21.2647 21.685 21.1365C21.4931 21.0083 21.3436 20.826 21.2553 20.6129C21.167 20.3997 21.1439 20.1651 21.1889 19.9388C21.2339 19.7125 21.3451 19.5046 21.5082 19.3414C21.6714 19.1783 21.8793 19.0672 22.1056 19.0222C22.3319 18.9771 22.5665 19.0002 22.7796 19.0885C22.9928 19.1768 23.175 19.3264 23.3032 19.5182C23.4314 19.7101 23.4998 19.9357 23.4998 20.1664C23.4998 20.4758 23.3769 20.7726 23.1581 20.9914C22.9393 21.2102 22.6426 21.3331 22.3332 21.3331Z" fill="#434656"/>
</svg>
