<svg xmlns="http://www.w3.org/2000/svg" width="80" height="80" fill="none"><path stroke="#6C6F89" d="M35.25 3.32a9.5 9.5 0 0 1 9.5 0l24.641 14.226a9.5 9.5 0 0 1 4.75 8.228v28.453a9.5 9.5 0 0 1-4.75 8.227L44.75 76.68a9.5 9.5 0 0 1-9.5 0L10.609 62.454a9.5 9.5 0 0 1-4.75-8.227V25.774a9.5 9.5 0 0 1 4.75-8.228z"/><g stroke="#BDBFCB"><g fill="#BDBFCB" stroke-width=".5"><path d="M40 17c-6.616 0-12 5.384-12 12 0 3.458 1.473 6.584 3.824 8.77.66.623 1.39 1.163 2.176 1.615A11.9 11.9 0 0 0 40 41a11.9 11.9 0 0 0 7.636-2.754A11.97 11.97 0 0 0 52 29c0-6.616-5.384-12-12-12Zm7.26 18.6a10 10 0 0 1-1.86 1.593 9.76 9.76 0 0 1-5.4 1.625 9.74 9.74 0 0 1-5.885-1.969 9.5 9.5 0 0 1-1.762-1.707A9.74 9.74 0 0 1 30.182 29c0-5.416 4.407-9.818 9.818-9.818s9.818 4.402 9.818 9.818c0 2.536-.97 4.855-2.558 6.6Z"/><path d="M46.284 34.444a6.92 6.92 0 0 0-3.424-4.037 4.25 4.25 0 0 0 1.377-3.134A4.28 4.28 0 0 0 39.964 23a4.28 4.28 0 0 0-4.274 4.273c0 1.16.465 2.213 1.22 2.983a6.94 6.94 0 0 0-3.604 3.789 6.8 6.8 0 0 0-.46 2.288c.574.542 1.21 1.012 1.894 1.406v-1.206c0-.342.033-.68.1-1.002a4.996 4.996 0 0 1 4.886-3.984 4.995 4.995 0 0 1 4.938 4.283c.029.228.048.465.048.703V38c.679-.347 1.315-.77 1.9-1.254v-.213c0-.732-.115-1.43-.329-2.09Zm-6.32-4.796a2.375 2.375 0 1 1 .001-4.75 2.375 2.375 0 0 1-.002 4.75Z"/></g><circle cx="25" cy="57" r="3.25" stroke-width="2.5"/><circle cx="40" cy="57" r="3.25" stroke-width="2.5"/><circle cx="55" cy="57" r="3.25" stroke-width="2.5"/><path stroke-width="2.5" d="M40 41v12M25 53v-7h30v7"/></g></svg>