<svg width="80" height="80" viewBox="0 0 80 80" fill="none" xmlns="http://www.w3.org/2000/svg">
<path d="M35.25 3.31976C38.1893 1.62275 41.8107 1.62275 44.75 3.31976L69.391 17.5463C72.3303 19.2433 74.141 22.3795 74.141 25.7735V54.2265C74.141 57.6205 72.3303 60.7567 69.391 62.4537L44.75 76.6802C41.8107 78.3772 38.1893 78.3772 35.25 76.6802L10.609 62.4537C7.66967 60.7567 5.85898 57.6205 5.85898 54.2265V25.7735C5.85898 22.3795 7.66967 19.2433 10.609 17.5463L35.25 3.31976Z" stroke="#3F3D56"/>
<path d="M40 17C33.3836 17 28 22.3836 28 29C28 32.4582 29.4727 35.5836 31.8236 37.7709C32.4836 38.3927 33.2145 38.9327 34 39.3854C35.7673 40.4109 37.8182 41 40 41C41.9636 41 43.8182 40.5255 45.4545 39.6854C46.2345 39.2873 46.9655 38.8018 47.6364 38.2455C50.2982 36.0473 52 32.72 52 29C52 22.3836 46.6164 17 40 17ZM47.26 35.6C46.7091 36.2054 46.0818 36.74 45.4 37.1927C43.8509 38.2182 41.9909 38.8182 40 38.8182C37.7964 38.8182 35.7563 38.0873 34.1146 36.8491C33.4545 36.3582 32.8654 35.7855 32.3527 35.1418C30.9945 33.4618 30.1818 31.3236 30.1818 29C30.1818 23.5836 34.5891 19.1818 40 19.1818C45.4109 19.1818 49.8182 23.5836 49.8182 29C49.8182 31.5363 48.8473 33.8545 47.26 35.6Z" fill="#3F3D56" stroke="#3F3D56" stroke-width="0.5"/>
<path d="M46.2835 34.4435C45.7232 32.6866 44.4744 31.2384 42.8599 30.4074C43.7052 29.6287 44.237 28.5128 44.237 27.2735C44.237 24.9183 42.3187 23 39.9635 23C37.6083 23 35.69 24.9183 35.69 27.2735C35.69 28.4321 36.1553 29.4862 36.9103 30.2555C35.2673 30.9962 33.9663 32.359 33.3063 34.0447C33.0309 34.7569 32.8647 35.5261 32.8457 36.3333C33.4202 36.8746 34.0565 37.3447 34.7403 37.7388V36.5328C34.7403 36.1909 34.7735 35.8538 34.84 35.5309C35.3053 33.2612 37.3186 31.547 39.726 31.547C42.2379 31.547 44.3224 33.4131 44.6643 35.83C44.6928 36.0579 44.7118 36.2954 44.7118 36.5328V38C45.3908 37.6534 46.0271 37.2308 46.6111 36.7465V36.5328C46.6111 35.8015 46.4972 35.1035 46.2835 34.4435ZM39.9635 29.6477C38.6529 29.6477 37.5893 28.5841 37.5893 27.2735C37.5893 25.963 38.6529 24.8993 39.9635 24.8993C41.274 24.8993 42.3376 25.963 42.3376 27.2735C42.3376 28.5841 41.274 29.6477 39.9635 29.6477Z" fill="#3F3D56" stroke="#3F3D56" stroke-width="0.5"/>
<circle cx="25" cy="57" r="3.25" stroke="#3F3D56" stroke-width="2.5"/>
<circle cx="40" cy="57" r="3.25" stroke="#3F3D56" stroke-width="2.5"/>
<circle cx="55" cy="57" r="3.25" stroke="#3F3D56" stroke-width="2.5"/>
<path d="M40 41L40 53" stroke="#3F3D56" stroke-width="2.5"/>
<path d="M25 53V46H55V53" stroke="#3F3D56" stroke-width="2.5"/>
</svg>
