<svg width="26" height="22" viewBox="0 0 26 22" fill="none" xmlns="http://www.w3.org/2000/svg">
<path d="M14.6887 11.2847C15.3823 10.687 15.9386 9.94773 16.3199 9.11709C16.7012 8.28644 16.8985 7.38386 16.8985 6.47059C16.8985 4.75448 16.2137 3.10866 14.9948 1.89519C13.776 0.681721 12.1228 0 10.3991 0C8.67531 0 7.02216 0.681721 5.80328 1.89519C4.58441 3.10866 3.89965 4.75448 3.89965 6.47059C3.89964 7.38386 4.09697 8.28644 4.47826 9.11709C4.85955 9.94773 5.41586 10.687 6.10945 11.2847C4.28979 12.105 2.74596 13.4297 1.66252 15.1005C0.579092 16.7712 0.00191324 18.7172 0 20.7059C0 21.0491 0.136951 21.3783 0.380727 21.621C0.624502 21.8637 0.955132 22 1.29988 22C1.64463 22 1.97526 21.8637 2.21904 21.621C2.46281 21.3783 2.59977 21.0491 2.59977 20.7059C2.59977 18.6466 3.42148 16.6716 4.88413 15.2154C6.34678 13.7592 8.33056 12.9412 10.3991 12.9412C12.4676 12.9412 14.4513 13.7592 15.914 15.2154C17.3767 16.6716 18.1984 18.6466 18.1984 20.7059C18.1984 21.0491 18.3353 21.3783 18.5791 21.621C18.8229 21.8637 19.1535 22 19.4982 22C19.843 22 20.1736 21.8637 20.4174 21.621C20.6612 21.3783 20.7981 21.0491 20.7981 20.7059C20.7962 18.7172 20.219 16.7712 19.1356 15.1005C18.0522 13.4297 16.5083 12.105 14.6887 11.2847ZM10.3991 10.3529C9.62779 10.3529 8.87383 10.1252 8.23253 9.69865C7.59124 9.27205 7.09141 8.66571 6.79626 7.9563C6.5011 7.24689 6.42388 6.46628 6.57435 5.71318C6.72481 4.96008 7.09622 4.26831 7.6416 3.72535C8.18697 3.18239 8.88182 2.81264 9.63828 2.66283C10.3947 2.51303 11.1788 2.58992 11.8914 2.88376C12.604 3.17761 13.213 3.67522 13.6415 4.31367C14.07 4.95212 14.2987 5.70273 14.2987 6.47059C14.2987 7.50025 13.8879 8.48774 13.1565 9.21583C12.4252 9.94391 11.4333 10.3529 10.3991 10.3529ZM25.6207 7.28588C25.4998 7.16459 25.3561 7.06831 25.1977 7.00261C25.0393 6.93691 24.8694 6.90308 24.6978 6.90308C24.5262 6.90308 24.3563 6.93691 24.1979 7.00261C24.0395 7.06831 23.8957 7.16459 23.7749 7.28588L21.1751 9.87412L20.3692 9.05882C20.2483 8.93753 20.1046 8.84125 19.9462 8.77555C19.7877 8.70985 19.6178 8.67603 19.4462 8.67603C19.2746 8.67603 19.1047 8.70985 18.9463 8.77555C18.7879 8.84125 18.6442 8.93753 18.5233 9.05882C18.2812 9.30129 18.1453 9.62929 18.1453 9.97118C18.1453 10.3131 18.2812 10.6411 18.5233 10.8835L20.2652 12.6176C20.5087 12.8587 20.8382 12.994 21.1816 12.994C21.525 12.994 21.8545 12.8587 22.098 12.6176L25.5687 9.16235C25.6999 9.04501 25.8058 8.90229 25.8799 8.7429C25.9539 8.58352 25.9946 8.41079 25.9995 8.23524C26.0044 8.05968 25.9733 7.88498 25.9082 7.72177C25.843 7.55856 25.7452 7.41025 25.6207 7.28588Z" fill="#434656"/>
</svg>
