<svg width="30" height="30" viewBox="0 0 30 30" fill="none" xmlns="http://www.w3.org/2000/svg">
<rect width="30" height="30" rx="5" fill="#DD4343" fill-opacity="0.1"/>
<path d="M10.5 15C10.5 15.495 10.905 15.9 11.4 15.9H18.6C19.095 15.9 19.5 15.495 19.5 15C19.5 14.505 19.095 14.1 18.6 14.1H11.4C10.905 14.1 10.5 14.505 10.5 15ZM15 6C10.032 6 6 10.032 6 15C6 19.968 10.032 24 15 24C19.968 24 24 19.968 24 15C24 10.032 19.968 6 15 6ZM15 22.2C11.031 22.2 7.8 18.969 7.8 15C7.8 11.031 11.031 7.8 15 7.8C18.969 7.8 22.2 11.031 22.2 15C22.2 18.969 18.969 22.2 15 22.2Z" fill="#DD4343"/>
</svg>
