<svg xmlns="http://www.w3.org/2000/svg" width="23" height="23"><path fill="#434656" d="M20.124 17.25h-1.916v-2.875a.96.96 0 0 0-.959-.958h-4.791V10.82l1.083.565a.96.96 0 0 0 1.39-1.006l-.384-2.272 1.648-1.62a.96.96 0 0 0 .25-.957.96.96 0 0 0-.777-.652l-2.252-.355-1.054-2.07a.957.957 0 0 0-1.725 0l-1.054 2.07-2.29.336a.96.96 0 0 0-.777.651.96.96 0 0 0 .25.959l1.686 1.638-.383 2.272a.958.958 0 0 0 1.39 1.006l1.082-.565v2.597H5.749a.96.96 0 0 0-.958.958v2.875H2.874a.96.96 0 0 0-.958.958v1.917a.958.958 0 1 0 1.917 0v-.958h3.833v.958a.958.958 0 1 0 1.917 0v-1.917a.96.96 0 0 0-.959-.958H6.708v-1.917h9.583v1.917h-1.917a.96.96 0 0 0-.958.958v1.917a.958.958 0 0 0 1.917 0v-.958h3.833v.958a.958.958 0 0 0 1.917 0v-1.917a.96.96 0 0 0-.959-.958M11.5 8.27a.96.96 0 0 0-.45.115l-.767.403.144-.863a.96.96 0 0 0-.278-.843l-.623-.613.863-.125a.96.96 0 0 0 .728-.517l.383-.786.384.786a.96.96 0 0 0 .728.517l.862.125-.622.613a.96.96 0 0 0-.278.843l.143.863-.766-.403a.96.96 0 0 0-.45-.115"/></svg>