<svg width="18" height="22" viewBox="0 0 18 22" fill="none" xmlns="http://www.w3.org/2000/svg">
<path d="M17.6663 7.68533C17.6551 7.5858 17.6333 7.48776 17.6013 7.39283V7.29533C17.5493 7.18394 17.4798 7.08155 17.3955 6.99199L10.8955 0.491992C10.806 0.407726 10.7036 0.338247 10.5922 0.286159C10.5598 0.281566 10.527 0.281566 10.4947 0.286159C10.3846 0.223045 10.2631 0.182532 10.1372 0.166992H3.58301C2.72105 0.166992 1.8944 0.509402 1.28491 1.1189C0.675418 1.72839 0.333008 2.55504 0.333008 3.41699V18.5837C0.333008 19.4456 0.675418 20.2723 1.28491 20.8818C1.8944 21.4913 2.72105 21.8337 3.58301 21.8337H14.4163C15.2783 21.8337 16.1049 21.4913 16.7144 20.8818C17.3239 20.2723 17.6663 19.4456 17.6663 18.5837V7.75033C17.6663 7.75033 17.6663 7.75033 17.6663 7.68533ZM11.1663 3.86116L13.9722 6.66699H12.2497C11.9624 6.66699 11.6868 6.55286 11.4836 6.34969C11.2805 6.14653 11.1663 5.87098 11.1663 5.58366V3.86116ZM15.4997 18.5837C15.4997 18.871 15.3855 19.1465 15.1824 19.3497C14.9792 19.5529 14.7037 19.667 14.4163 19.667H3.58301C3.29569 19.667 3.02014 19.5529 2.81698 19.3497C2.61381 19.1465 2.49967 18.871 2.49967 18.5837V3.41699C2.49967 3.12967 2.61381 2.85412 2.81698 2.65096C3.02014 2.4478 3.29569 2.33366 3.58301 2.33366H8.99967V5.58366C8.99967 6.44561 9.34208 7.27226 9.95158 7.88176C10.5611 8.49125 11.3877 8.83366 12.2497 8.83366H15.4997V18.5837ZM11.4805 11.3145L7.91634 14.8895L6.51884 13.4812C6.31485 13.2772 6.03817 13.1626 5.74967 13.1626C5.46118 13.1626 5.1845 13.2772 4.98051 13.4812C4.77651 13.6852 4.66191 13.9618 4.66191 14.2503C4.66191 14.5388 4.77651 14.8155 4.98051 15.0195L7.14717 17.1862C7.24788 17.2877 7.3677 17.3683 7.49972 17.4233C7.63173 17.4783 7.77333 17.5066 7.91634 17.5066C8.05935 17.5066 8.20095 17.4783 8.33297 17.4233C8.46498 17.3683 8.5848 17.2877 8.68551 17.1862L13.0188 12.8528C13.2228 12.6488 13.3374 12.3722 13.3374 12.0837C13.3374 11.7952 13.2228 11.5185 13.0188 11.3145C12.8148 11.1105 12.5382 10.9959 12.2497 10.9959C11.9612 10.9959 11.6845 11.1105 11.4805 11.3145Z" fill="#438F68"/>
</svg>
