<svg xmlns="http://www.w3.org/2000/svg" width="18" height="22" fill="none"><path fill="#438F68" d="M17.666 7.685a1.4 1.4 0 0 0-.065-.292v-.098a1.2 1.2 0 0 0-.206-.303l-6.5-6.5a1.2 1.2 0 0 0-.303-.206.4.4 0 0 0-.097 0 1 1 0 0 0-.358-.119H3.583a3.25 3.25 0 0 0-3.25 3.25v15.167a3.25 3.25 0 0 0 3.25 3.25h10.833a3.25 3.25 0 0 0 3.25-3.25V7.685m-6.5-3.824 2.806 2.806H12.25a1.084 1.084 0 0 1-1.084-1.083zM15.5 18.584a1.084 1.084 0 0 1-1.084 1.083H3.583A1.083 1.083 0 0 1 2.5 18.584V3.417a1.083 1.083 0 0 1 1.083-1.083H9v3.25a3.25 3.25 0 0 0 3.25 3.25h3.25zm-4.02-7.27L7.916 14.89 6.52 13.48A1.088 1.088 0 1 0 4.98 15.02l2.166 2.166a1.084 1.084 0 0 0 1.539 0l4.333-4.333a1.088 1.088 0 1 0-1.539-1.538"/></svg>