<svg width="38" height="38" viewBox="0 0 38 38" fill="none" xmlns="http://www.w3.org/2000/svg">
<rect width="38" height="38" rx="19" fill="#FFEBEE"/>
<path d="M19.6146 20.0414L17.2188 22.4269C17.1212 22.5237 17.0437 22.6389 16.9908 22.7658C16.9379 22.8928 16.9107 23.0289 16.9107 23.1664C16.9107 23.304 16.9379 23.4401 16.9908 23.567C17.0437 23.694 17.1212 23.8092 17.2188 23.906C17.3156 24.0037 17.4308 24.0812 17.5578 24.134C17.6847 24.1869 17.8209 24.2142 17.9584 24.2142C18.0959 24.2142 18.232 24.1869 18.359 24.134C18.4859 24.0812 18.6011 24.0037 18.698 23.906L22.8646 19.7394C22.9595 19.6403 23.0338 19.5235 23.0834 19.3956C23.1876 19.142 23.1876 18.8576 23.0834 18.6039C23.0338 18.4761 22.9595 18.3593 22.8646 18.2602L18.698 14.0935C18.6008 13.9964 18.4855 13.9194 18.3586 13.8668C18.2317 13.8142 18.0957 13.7872 17.9584 13.7872C17.821 13.7872 17.685 13.8142 17.5581 13.8668C17.4312 13.9194 17.3159 13.9964 17.2188 14.0935C17.1217 14.1907 17.0446 14.306 16.9921 14.4329C16.9395 14.5597 16.9124 14.6958 16.9124 14.8331C16.9124 14.9705 16.9395 15.1065 16.9921 15.2334C17.0446 15.3603 17.1217 15.4756 17.2188 15.5727L19.6146 17.9581H9.62504C9.34877 17.9581 9.08382 18.0679 8.88847 18.2632C8.69312 18.4586 8.58337 18.7235 8.58337 18.9998C8.58337 19.276 8.69312 19.541 8.88847 19.7363C9.08382 19.9317 9.34877 20.0414 9.62504 20.0414H19.6146ZM19 8.58311C17.0533 8.57442 15.143 9.11146 13.4859 10.1333C11.8289 11.1552 10.4913 12.6209 9.62504 14.3644C9.50072 14.613 9.48026 14.9008 9.56817 15.1646C9.65608 15.4283 9.84515 15.6463 10.0938 15.7706C10.3424 15.8949 10.6303 15.9154 10.894 15.8275C11.1577 15.7396 11.3757 15.5505 11.5 15.3019C12.1586 13.972 13.1603 12.8421 14.4017 12.0289C15.643 11.2158 17.079 10.7489 18.5612 10.6764C20.0435 10.604 21.5181 10.9287 22.8329 11.617C24.1476 12.3052 25.2547 13.3321 26.0397 14.5914C26.8248 15.8508 27.2593 17.2969 27.2984 18.7804C27.3375 20.2639 26.9797 21.7309 26.262 23.0298C25.5444 24.3287 24.4929 25.4124 23.2162 26.169C21.9396 26.9255 20.484 27.3274 19 27.3331C17.4468 27.3398 15.9231 26.9085 14.6039 26.0886C13.2847 25.2687 12.2233 24.0934 11.5417 22.6977C11.4174 22.4491 11.1994 22.26 10.9357 22.1721C10.6719 22.0842 10.3841 22.1046 10.1355 22.2289C9.88682 22.3533 9.69775 22.5713 9.60984 22.835C9.52193 23.0987 9.54239 23.3866 9.66671 23.6352C10.4926 25.2972 11.7475 26.7084 13.3016 27.7227C14.8557 28.7371 16.6526 29.3179 18.5064 29.405C20.3602 29.492 22.2037 29.0823 23.846 28.218C25.4884 27.3538 26.87 26.0664 27.848 24.4892C28.826 22.9119 29.3649 21.102 29.4089 19.2467C29.4529 17.3913 29.0004 15.5579 28.0982 13.9361C27.196 12.3142 25.877 10.9629 24.2774 10.0218C22.6778 9.08066 20.8559 8.58398 19 8.58311Z" fill="#C20024"/>
</svg>
