<svg xmlns="http://www.w3.org/2000/svg" width="38" height="38" fill="none"><rect width="38" height="38" fill="#FFEBEE" rx="19"/><path fill="#C20024" d="m19.615 20.041-2.396 2.386a1.04 1.04 0 0 0 0 1.479 1.04 1.04 0 0 0 1.14.228 1 1 0 0 0 .339-.228l4.167-4.167q.143-.15.218-.343a1.04 1.04 0 0 0 0-.792 1 1 0 0 0-.218-.344l-4.167-4.167a1.048 1.048 0 0 0-1.706.34 1.045 1.045 0 0 0 .227 1.14l2.396 2.385h-9.99a1.042 1.042 0 0 0 0 2.083zM19 8.583a10.42 10.42 0 0 0-9.375 5.781 1.048 1.048 0 1 0 1.875.938A8.334 8.334 0 1 1 19 27.333a8.26 8.26 0 0 1-7.458-4.635 1.048 1.048 0 0 0-1.875.937A10.416 10.416 0 1 0 19 8.583"/></svg>