<svg width="26" height="26" viewBox="0 0 26 26" fill="none" xmlns="http://www.w3.org/2000/svg">
<path d="M18.5076 25.471H3.1699C2.44752 25.471 1.82683 25.2115 1.30783 24.6925C0.788808 24.1735 0.529297 23.5528 0.529297 22.8304V3.16956C0.529297 2.44201 0.788808 1.81688 1.30783 1.29417C1.82683 0.771476 2.44752 0.510132 3.1699 0.510132H22.8308C23.5583 0.510132 24.1835 0.771476 24.7062 1.29417C25.2289 1.81688 25.4902 2.44201 25.4902 3.16956V18.4884L18.5076 25.471ZM17.1308 22.8304V20.2333C17.1308 19.4185 17.4442 18.6977 18.0711 18.0708C18.698 17.4439 19.4188 17.1304 20.2337 17.1304H22.8308V3.16956H3.1699V22.8304H17.1308ZM11.8873 18.413H14.1134V9.81303H18.4134V7.58697H7.5873V9.81303H11.8873V18.413Z" fill="#6C6F89"/>
</svg>
