<svg width="17" height="17" viewBox="0 0 17 17" xmlns="http://www.w3.org/2000/svg">
<path d="M7.84531 12.5768H9.27031V7.70801H7.84531V12.5768ZM8.49844 6.40176C8.73594 6.40176 8.93056 6.32589 9.08229 6.17415C9.23403 6.02242 9.3099 5.8344 9.3099 5.61009C9.3099 5.3594 9.23403 5.15818 9.08229 5.00644C8.93056 4.85471 8.73594 4.77884 8.49844 4.77884C8.26094 4.77884 8.06632 4.85471 7.91458 5.00644C7.76285 5.15818 7.68698 5.3594 7.68698 5.61009C7.68698 5.8344 7.76285 6.02242 7.91458 6.17415C8.06632 6.32589 8.26094 6.40176 8.49844 6.40176ZM8.49844 16.6934C7.36372 16.6934 6.30156 16.479 5.31198 16.0502C4.3224 15.6214 3.45486 15.0342 2.70937 14.2887C1.96389 13.5433 1.37674 12.6757 0.947917 11.6861C0.519097 10.6965 0.304688 9.6344 0.304688 8.49967C0.304688 7.35176 0.519097 6.28301 0.947917 5.29342C1.37674 4.30384 1.96059 3.4396 2.69948 2.70072C3.43837 1.96183 4.3059 1.37467 5.30208 0.939258C6.29826 0.503841 7.36372 0.286133 8.49844 0.286133C9.64635 0.286133 10.7184 0.503841 11.7146 0.939258C12.7108 1.37467 13.575 1.95853 14.3073 2.69082C15.0396 3.42311 15.6234 4.28735 16.0589 5.28353C16.4943 6.27971 16.712 7.35176 16.712 8.49967C16.712 9.6344 16.4943 10.6998 16.0589 11.696C15.6234 12.6922 15.0363 13.5597 14.2974 14.2986C13.5585 15.0375 12.6943 15.6214 11.7047 16.0502C10.7151 16.479 9.64635 16.6934 8.49844 16.6934ZM8.51823 15.1299C10.3523 15.1299 11.9125 14.4834 13.199 13.1903C14.4854 11.8972 15.1286 10.3271 15.1286 8.47988C15.1286 6.64585 14.4854 5.08561 13.199 3.79915C11.9125 2.5127 10.3457 1.86947 8.49844 1.86947C6.66441 1.86947 5.10087 2.5127 3.80781 3.79915C2.51476 5.08561 1.86823 6.65245 1.86823 8.49967C1.86823 10.3337 2.51476 11.8972 3.80781 13.1903C5.10087 14.4834 6.67101 15.1299 8.51823 15.1299Z" />
</svg>
