<svg xmlns="http://www.w3.org/2000/svg" width="17" height="17"><path d="M7.845 12.577H9.27V7.708H7.845zm.653-6.175a.8.8 0 0 0 .584-.228.77.77 0 0 0 .228-.564q0-.375-.228-.604a.8.8 0 0 0-.584-.227.8.8 0 0 0-.583.227q-.228.228-.228.604 0 .336.228.564a.8.8 0 0 0 .583.228m0 10.291a7.9 7.9 0 0 1-3.186-.643 8.3 8.3 0 0 1-2.603-1.761 8.3 8.3 0 0 1-1.761-2.603A7.9 7.9 0 0 1 .305 8.5q0-1.722.643-3.207a8.3 8.3 0 0 1 1.751-2.592A8.4 8.4 0 0 1 5.302.939 7.9 7.9 0 0 1 8.498.286q1.722 0 3.217.653a8.4 8.4 0 0 1 2.592 1.752 8.4 8.4 0 0 1 1.752 2.593q.653 1.494.653 3.216 0 1.702-.653 3.196a8.4 8.4 0 0 1-1.762 2.603 8.3 8.3 0 0 1-2.592 1.751 8 8 0 0 1-3.207.643m.02-1.563q2.75 0 4.681-1.94 1.93-1.94 1.93-4.71 0-2.751-1.93-4.68-1.93-1.93-4.7-1.93-2.752 0-4.691 1.93-1.94 1.928-1.94 4.7 0 2.75 1.94 4.69t4.71 1.94"/></svg>