<svg width="30" height="30" viewBox="0 0 30 30" fill="none" xmlns="http://www.w3.org/2000/svg">
<rect width="30" height="30" rx="15" fill="#C20024"/>
<path fill-rule="evenodd" clip-rule="evenodd" d="M10.2921 10.2838C9.90265 10.6766 9.90265 11.3064 10.2921 11.6992L16.5883 17.998H13.0003C12.6398 17.9979 12.3066 18.1888 12.1263 18.4985C11.946 18.8082 11.946 19.1898 12.1263 19.4995C12.3066 19.8092 12.6398 20 13.0003 20H19.0038C19.1079 20 19.2113 19.9838 19.3102 19.9518L19.317 19.9518H19.3294C19.4737 19.9025 19.6046 19.8207 19.7116 19.7129C19.7624 19.6621 19.8075 19.6061 19.8462 19.5458L19.8553 19.5312L19.862 19.52V19.5143C19.9526 19.3609 20.0002 19.1863 20 19.0085V13.0025C20 12.6478 19.8092 12.3202 19.4996 12.1428C19.19 11.9655 18.8085 11.9655 18.4988 12.1428C18.1892 12.3202 17.9985 12.6478 17.9985 13.0025V16.5915L11.7022 10.2927C11.5153 10.1054 11.2606 10 10.9949 10C10.7291 10 10.4745 10.1054 10.2876 10.2927L10.2921 10.2838Z" fill="#FFEBEE"/>
</svg>
