<svg width="22" height="22" viewBox="0 0 22 22" fill="none" xmlns="http://www.w3.org/2000/svg">
<path d="M11.9116 2.75065C11.9116 2.24439 11.5012 1.83398 10.9949 1.83398C10.4886 1.83398 10.0782 2.24439 10.0782 2.75065V12.4505L7.52188 9.89414C7.1639 9.53616 6.5835 9.53616 6.22552 9.89414C5.86754 10.2521 5.86754 10.8325 6.22552 11.1905L10.2988 15.2638C10.467 15.4598 10.7164 15.584 10.9949 15.584L10.9967 15.584C11.232 15.5845 11.4674 15.495 11.6469 15.3155L15.7719 11.1905C16.1299 10.8325 16.1299 10.2521 15.7719 9.89414C15.4139 9.53616 14.8335 9.53616 14.4755 9.89414L11.9116 12.4581V2.75065Z" fill="#438F68"/>
<path d="M19.2487 10.084C19.755 10.084 20.1654 10.4944 20.1654 11.0007V19.2507C20.1654 19.7569 19.755 20.1673 19.2487 20.1673H2.7487C2.24244 20.1673 1.83203 19.7569 1.83203 19.2507V11.0045C1.83203 10.4982 2.24244 10.0878 2.7487 10.0878C3.25496 10.0878 3.66536 10.4982 3.66536 11.0045V18.334H18.332V11.0007C18.332 10.4944 18.7424 10.084 19.2487 10.084Z" fill="#438F68"/>
</svg>
