<svg width="18" height="18" viewBox="0 0 18 18" fill="none" xmlns="http://www.w3.org/2000/svg">
<path d="M9.82727 1.49996C9.82727 1.03972 9.45418 0.666626 8.99394 0.666626C8.5337 0.666626 8.1606 1.03972 8.1606 1.49996V10.318L5.83665 7.99404C5.51121 7.6686 4.98358 7.6686 4.65814 7.99404C4.3327 8.31947 4.3327 8.84711 4.65814 9.17255L8.36116 12.8756C8.51399 13.0537 8.74078 13.1666 8.99394 13.1666L8.99562 13.1666C9.20948 13.1671 9.42348 13.0857 9.58665 12.9225L13.3367 9.17255C13.6621 8.84711 13.6621 8.31947 13.3367 7.99404C13.0112 7.6686 12.4836 7.6686 12.1581 7.99404L9.82727 10.3249V1.49996Z" fill="white"/>
<path d="M16.4974 8.16663C16.9576 8.16663 17.3307 8.53972 17.3307 8.99996V16.5C17.3307 16.9602 16.9576 17.3333 16.4974 17.3333H1.4974C1.03716 17.3333 0.664062 16.9602 0.664062 16.5V9.00342C0.664062 8.54318 1.03716 8.17008 1.4974 8.17008C1.95763 8.17008 2.33073 8.54318 2.33073 9.00342V15.6666H15.6641V8.99996C15.6641 8.53972 16.0372 8.16663 16.4974 8.16663Z" fill="white"/>
</svg>
