<svg width="24" height="24" viewBox="0 0 24 24" fill="none" xmlns="http://www.w3.org/2000/svg">
<rect width="24" height="24" rx="12" transform="matrix(1 0 0 -1 0 24)" fill="#DD4343" fill-opacity="0.15"/>
<path fill-rule="evenodd" clip-rule="evenodd" d="M7.29202 7.28378C6.90261 7.67658 6.90261 8.30644 7.29202 8.69921L13.5883 14.998H10.0003C9.63976 14.9979 9.30654 15.1888 9.12626 15.4985C8.94599 15.8082 8.94599 16.1898 9.12626 16.4995C9.30654 16.8092 9.63976 17 10.0003 17H16.0038C16.1079 17 16.2113 16.9838 16.3102 16.9518L16.317 16.9518H16.3294C16.4737 16.9025 16.6046 16.8207 16.7116 16.7129C16.7624 16.6621 16.8075 16.6061 16.8462 16.5458L16.8553 16.5312L16.862 16.52V16.5143C16.9526 16.3609 17.0002 16.1863 17 16.0085V10.0025C17 9.64783 16.8092 9.32017 16.4996 9.14283C16.19 8.96553 15.8085 8.96553 15.4988 9.14283C15.1892 9.32017 14.9985 9.64783 14.9985 10.0025V13.5915L8.70214 7.29275C8.51524 7.10542 8.26056 7 7.99484 7C7.72912 7 7.47444 7.10542 7.28753 7.29275L7.29202 7.28378Z" fill="#DD4343"/>
</svg>
