<svg width="10" height="10" viewBox="0 0 10 10" fill="none" xmlns="http://www.w3.org/2000/svg">
<path fill-rule="evenodd" clip-rule="evenodd" d="M0.292052 0.283781C-0.0973507 0.676579 -0.0973507 1.30644 0.292052 1.69921L6.58834 7.99798H3.00034C2.63979 7.99795 2.30657 8.18877 2.12629 8.49846C1.94601 8.80819 1.94601 9.18976 2.12629 9.49949C2.30657 9.80918 2.63979 10 3.00034 10H9.00379C9.10787 10 9.21126 9.98378 9.31023 9.95181L9.31699 9.95177H9.32941C9.47373 9.90248 9.60459 9.82071 9.71164 9.71286C9.76237 9.6621 9.80751 9.60607 9.84623 9.54576L9.85527 9.53118L9.86203 9.51995V9.51434C9.95258 9.36093 10.0002 9.1863 10 9.00852V3.00246C10 2.64783 9.80923 2.32017 9.49961 2.14283C9.19 1.96553 8.80846 1.96553 8.49885 2.14283C8.18923 2.32017 7.99846 2.64783 7.99846 3.00246V6.59152L1.70217 0.292749C1.51527 0.105421 1.26059 0 0.994869 0C0.729147 0 0.474468 0.105421 0.287566 0.292749L0.292052 0.283781Z" fill="#C20024"/>
</svg>
