<svg width="20" height="20" viewBox="0 0 20 20" fill="none" xmlns="http://www.w3.org/2000/svg">
<path d="M10.9155 1.75004C10.9155 1.24378 10.5051 0.833374 9.9988 0.833374C9.49254 0.833374 9.08213 1.24378 9.08213 1.75004V11.4499L6.52578 8.89353C6.1678 8.53554 5.5874 8.53554 5.22942 8.89353C4.87144 9.25151 4.87144 9.83191 5.22942 10.1899L9.30274 14.2632C9.47086 14.4592 9.72033 14.5834 9.9988 14.5834L10.0007 14.5834C10.2359 14.5839 10.4713 14.4944 10.6508 14.3149L14.7758 10.1899C15.1338 9.83191 15.1338 9.25151 14.7758 8.89353C14.4178 8.53554 13.8374 8.53554 13.4794 8.89353L10.9155 11.4575V1.75004Z" fill="#438F68"/>
<path d="M18.2526 9.08337C18.7589 9.08337 19.1693 9.49378 19.1693 10V18.25C19.1693 18.7563 18.7589 19.1667 18.2526 19.1667H1.7526C1.24634 19.1667 0.835938 18.7563 0.835938 18.25V10.0038C0.835938 9.49758 1.24634 9.08718 1.7526 9.08718C2.25887 9.08718 2.66927 9.49758 2.66927 10.0038V17.3334H17.3359V10C17.3359 9.49378 17.7463 9.08337 18.2526 9.08337Z" fill="#438F68"/>
</svg>
