<svg width="19" height="20" viewBox="0 0 19 20" fill="none" xmlns="http://www.w3.org/2000/svg">
<path d="M11.5 8.8125H14.4688"  stroke-width="1.2" stroke-linecap="square" stroke-linejoin="round"/>
<path d="M11.5 11.1875H14.4688"  stroke-width="1.2" stroke-linecap="square" stroke-linejoin="round"/>
<path fill-rule="evenodd" clip-rule="evenodd" d="M5.65508 9.40664C5.65508 8.75425 6.18394 8.22539 6.83633 8.22539C7.48871 8.22539 8.01758 8.75425 8.01758 9.40664C8.01758 10.059 7.48871 10.5879 6.83633 10.5879C6.83616 10.5879 6.83599 10.5879 6.83581 10.5879C6.18366 10.5876 5.65508 10.0589 5.65508 9.40664ZM8.50824 11.1022C8.94614 10.6704 9.21758 10.0702 9.21758 9.40664C9.21758 8.09151 8.15146 7.02539 6.83633 7.02539C5.5212 7.02539 4.45508 8.09151 4.45508 9.40664C4.45508 10.0701 4.72638 10.6701 5.16409 11.1019C5.11303 11.1366 5.06294 11.1729 5.01391 11.2109C4.49244 11.6147 4.1199 12.1804 3.95484 12.819L3.80469 13.3999H5.07816L5.11666 13.1193C5.21516 12.7382 5.43746 12.4007 5.74865 12.1597C6.05984 11.9187 6.44227 11.7879 6.83586 11.7879C7.22944 11.7879 7.61188 11.9186 7.92309 12.1596C8.23429 12.4006 8.45662 12.7381 8.55515 13.1191L8.62349 13.3997H9.86714L9.71694 12.8188C9.55184 12.1802 9.17927 11.6146 8.65776 11.2108C8.60894 11.173 8.55907 11.1368 8.50824 11.1022Z" fill="#434656"/>
<path d="M16.0312 4.0625H2.96875H2.375V15.3438V15.9375H16.0312H16.625V4.0625H16.0312Z"  stroke-width="1.2" stroke-linecap="round" stroke-linejoin="round"/>
</svg>
