<svg width="24" height="24" viewBox="0 0 24 24" fill="none" xmlns="http://www.w3.org/2000/svg">
<path d="M8.50008 7.04212C8.50008 3.83379 5.49008 1.78046 5.36175 1.69879C5.16882 1.56838 4.94128 1.4987 4.70841 1.4987C4.47555 1.4987 4.24801 1.56838 4.05508 1.69879C3.92675 1.79212 0.916748 3.83379 0.916748 7.04212C0.916748 8.04774 1.31623 9.01216 2.0273 9.72324C2.73838 10.4343 3.7028 10.8338 4.70841 10.8338C5.71403 10.8338 6.67845 10.4343 7.38953 9.72324C8.1006 9.01216 8.50008 8.04774 8.50008 7.04212ZM4.70841 8.50046C4.32164 8.50046 3.95071 8.34681 3.67722 8.07332C3.40373 7.79983 3.25008 7.4289 3.25008 7.04212C3.34609 5.93598 3.86917 4.91073 4.70841 4.18379C5.55266 4.9068 6.07686 5.93424 6.16675 7.04212C6.16675 7.4289 6.0131 7.79983 5.73961 8.07332C5.46612 8.34681 5.09519 8.50046 4.70841 8.50046ZM11.7784 9.86546C11.5855 9.73505 11.3579 9.66537 11.1251 9.66537C10.8922 9.66537 10.6647 9.73505 10.4717 9.86546C10.2734 10.0055 5.58341 13.2488 5.58341 18.1255C5.58341 19.5952 6.16727 21.0047 7.20653 22.044C8.24579 23.0833 9.65534 23.6671 11.1251 23.6671C12.5948 23.6671 14.0044 23.0833 15.0436 22.044C16.0829 21.0047 16.6667 19.5952 16.6667 18.1255C16.6667 13.1671 12.0001 9.99379 11.7784 9.86546ZM11.1251 21.3338C10.7038 21.3338 10.2866 21.2508 9.8973 21.0896C9.50805 20.9283 9.15437 20.692 8.85645 20.3941C8.55852 20.0962 8.3222 19.7425 8.16097 19.3532C7.99973 18.964 7.91675 18.5468 7.91675 18.1255C7.91675 15.4305 10.0284 13.2605 11.1367 12.2921C12.2334 13.2138 14.3334 15.3605 14.3334 18.1255C14.3334 18.5468 14.2504 18.964 14.0892 19.3532C13.928 19.7425 13.6916 20.0962 13.3937 20.3941C13.0958 20.692 12.7421 20.9283 12.3529 21.0896C11.9636 21.2508 11.5464 21.3338 11.1251 21.3338ZM19.0701 0.532123C18.8771 0.401718 18.6496 0.332031 18.4167 0.332031C18.1839 0.332031 17.9563 0.401718 17.7634 0.532123C17.6001 0.64879 13.7501 3.30879 13.7501 7.33379C13.7501 8.57147 14.2417 9.75845 15.1169 10.6336C15.9921 11.5088 17.1791 12.0005 18.4167 12.0005C19.6544 12.0005 20.8414 11.5088 21.7166 10.6336C22.5917 9.75845 23.0834 8.57147 23.0834 7.33379C23.0834 3.26212 19.2334 0.637123 19.0701 0.532123ZM18.4167 9.66713C17.7979 9.66713 17.2044 9.42129 16.7668 8.98371C16.3292 8.54612 16.0834 7.95263 16.0834 7.33379C16.1634 6.49136 16.411 5.67343 16.8117 4.9281C17.2124 4.18278 17.7581 3.52511 18.4167 2.99379C19.0778 3.52285 19.6253 4.17996 20.0262 4.92573C20.4272 5.67149 20.6734 6.49055 20.7501 7.33379C20.7501 7.95263 20.5042 8.54612 20.0667 8.98371C19.6291 9.42129 19.0356 9.66713 18.4167 9.66713Z" fill="#0048DB"/>
</svg>
