<svg xmlns="http://www.w3.org/2000/svg" width="24" height="24" fill="none"><path fill="#434656" d="M8.5 7.042C8.5 3.834 5.49 1.78 5.362 1.7a1.17 1.17 0 0 0-1.307 0C3.927 1.792.917 3.834.917 7.042a3.792 3.792 0 0 0 7.583 0M4.708 8.5A1.46 1.46 0 0 1 3.25 7.042a4.27 4.27 0 0 1 1.458-2.858 4.2 4.2 0 0 1 1.459 2.858A1.46 1.46 0 0 1 4.708 8.5m7.07 1.365a1.17 1.17 0 0 0-1.306 0c-.199.14-4.889 3.384-4.889 8.26a5.542 5.542 0 0 0 11.084 0c0-4.958-4.667-8.131-4.889-8.26m-.653 11.469a3.21 3.21 0 0 1-3.208-3.209c0-2.694 2.111-4.864 3.22-5.833 1.096.922 3.196 3.069 3.196 5.833a3.21 3.21 0 0 1-3.208 3.209M19.07.532a1.17 1.17 0 0 0-1.307 0C17.6.65 13.75 3.31 13.75 7.334a4.666 4.666 0 1 0 9.333 0c0-4.072-3.85-6.697-4.013-6.802m-.653 9.135a2.333 2.333 0 0 1-2.334-2.333 6.35 6.35 0 0 1 2.334-4.34 6.29 6.29 0 0 1 2.333 4.34 2.334 2.334 0 0 1-2.333 2.333"/></svg>