<svg width="40" height="41" viewBox="0 0 40 41" fill="none" xmlns="http://www.w3.org/2000/svg">
<path d="M20 0.75C8.96 0.75 0 9.71 0 20.75C0 31.79 8.96 40.75 20 40.75C31.04 40.75 40 31.79 40 20.75C40 9.71 31.04 0.75 20 0.75ZM18 36.61C10.1 35.63 4 28.91 4 20.75C4 19.51 4.16 18.33 4.42 17.17L14 26.75V28.75C14 30.95 15.8 32.75 18 32.75V36.61ZM31.8 31.53C31.28 29.91 29.8 28.75 28 28.75H26V22.75C26 21.65 25.1 20.75 24 20.75H12V16.75H16C17.1 16.75 18 15.85 18 14.75V10.75H22C24.2 10.75 26 8.95 26 6.75V5.93C31.86 8.31 36 14.05 36 20.75C36 24.91 34.4 28.69 31.8 31.53Z" fill="#2E5780"/>
</svg>
