<svg width="32" height="32" viewBox="0 0 32 32" fill="none" xmlns="http://www.w3.org/2000/svg">
<rect x="1" y="1" width="30" height="30" rx="15" fill="#0052CC"/>
<path d="M23.5 12.43C23.5006 12.3313 23.4817 12.2335 23.4443 12.1421C23.407 12.0507 23.352 11.9676 23.2825 11.8975L20.1025 8.71751C20.0324 8.648 19.9493 8.59301 19.8579 8.55568C19.7666 8.51836 19.6687 8.49944 19.57 8.50001C19.4713 8.49944 19.3735 8.51836 19.2821 8.55568C19.1907 8.59301 19.1076 8.648 19.0375 8.71751L16.915 10.84L8.71751 19.0375C8.648 19.1076 8.59301 19.1907 8.55568 19.2821C8.51836 19.3735 8.49944 19.4713 8.50001 19.57V22.75C8.50001 22.9489 8.57903 23.1397 8.71968 23.2803C8.86033 23.421 9.0511 23.5 9.25001 23.5H12.43C12.535 23.5057 12.6399 23.4893 12.7381 23.4518C12.8363 23.4144 12.9255 23.3567 13 23.2825L21.1525 15.085L23.2825 13C23.351 12.9273 23.4067 12.8437 23.4475 12.7525C23.4547 12.6927 23.4547 12.6323 23.4475 12.5725C23.451 12.5376 23.451 12.5024 23.4475 12.4675L23.5 12.43ZM12.1225 22H10V19.8775L17.4475 12.43L19.57 14.5525L12.1225 22ZM20.6275 13.495L18.505 11.3725L19.57 10.315L21.685 12.43L20.6275 13.495Z" fill="white"/>
<rect x="1" y="1" width="30" height="30" rx="15" stroke="white" stroke-width="2"/>
</svg>
