<svg xmlns="http://www.w3.org/2000/svg" width="22" height="18" viewBox="0 0 22 18" fill="none">
<path fill-rule="evenodd" clip-rule="evenodd" d="M2.10666 2.55395C2.27204 2.22692 2.61212 2 3.00009 2H19.0001C19.3881 2 19.7281 2.22692 19.8935 2.55395L11.0001 8.77934L2.10666 2.55395ZM0.000135348 2.98266C-2.68281e-05 2.99253 -4.31758e-05 3.00239 8.58362e-05 3.01225V15C8.58362e-05 16.6523 1.3478 18 3.00009 18H19.0001C20.6524 18 22.0001 16.6523 22.0001 15V3.01236C22.0002 3.00242 22.0002 2.99247 22 2.98251C21.9906 1.33822 20.6465 0 19.0001 0H3.00009C1.35359 0 0.00952624 1.3383 0.000135348 2.98266ZM20.0001 4.92066V15C20.0001 15.5477 19.5478 16 19.0001 16H3.00009C2.45237 16 2.00009 15.5477 2.00009 15V4.92066L10.4266 10.8192C10.7709 11.0603 11.2292 11.0603 11.5735 10.8192L20.0001 4.92066Z" fill="#667085"/>
</svg>
