<svg width="30" height="30" viewBox="0 0 30 30" fill="none" xmlns="http://www.w3.org/2000/svg">
<path d="M27.1377 11.6125L22.1377 6.61249C22.0211 6.49594 21.8828 6.40349 21.7305 6.34041C21.5782 6.27734 21.415 6.24487 21.2502 6.24487C20.9173 6.24487 20.5981 6.37711 20.3627 6.61249C20.1273 6.84787 19.9951 7.16711 19.9951 7.49999C19.9951 7.83286 20.1273 8.15211 20.3627 8.38749L23.2377 11.25H8.75017C8.41865 11.25 8.10071 11.3817 7.86629 11.6161C7.63187 11.8505 7.50017 12.1685 7.50017 12.5C7.50017 12.8315 7.63187 13.1495 7.86629 13.3839C8.10071 13.6183 8.41865 13.75 8.75017 13.75H26.2502C26.497 13.7488 26.7379 13.6745 26.9425 13.5366C27.1472 13.3987 27.3064 13.2033 27.4002 12.975C27.4959 12.7473 27.5221 12.4965 27.4753 12.254C27.4286 12.0115 27.3111 11.7883 27.1377 11.6125ZM21.2502 16.25H3.75017C3.50339 16.2512 3.2625 16.3255 3.05785 16.4634C2.8532 16.6013 2.69395 16.7967 2.60017 17.025C2.50445 17.2526 2.4783 17.5035 2.52501 17.746C2.57173 17.9885 2.68923 18.2117 2.86267 18.3875L7.86267 23.3875C7.97888 23.5046 8.11713 23.5976 8.26945 23.6611C8.42178 23.7246 8.58516 23.7572 8.75017 23.7572C8.91519 23.7572 9.07857 23.7246 9.2309 23.6611C9.38322 23.5976 9.52147 23.5046 9.63767 23.3875C9.75484 23.2713 9.84783 23.133 9.91129 22.9807C9.97475 22.8284 10.0074 22.665 10.0074 22.5C10.0074 22.335 9.97475 22.1716 9.91129 22.0193C9.84783 21.8669 9.75484 21.7287 9.63767 21.6125L6.76267 18.75H21.2502C21.5817 18.75 21.8996 18.6183 22.1341 18.3839C22.3685 18.1495 22.5002 17.8315 22.5002 17.5C22.5002 17.1685 22.3685 16.8505 22.1341 16.6161C21.8996 16.3817 21.5817 16.25 21.2502 16.25Z" fill="white"/>
</svg>
