<svg width="24" height="18" viewBox="0 0 24 18" fill="none" xmlns="http://www.w3.org/2000/svg">
<path d="M23.3283 5.83839L18.6617 1.17172C18.5529 1.06294 18.4237 0.976655 18.2816 0.917784C18.1395 0.858914 17.9872 0.828613 17.8333 0.828613C17.5226 0.828613 17.2247 0.952033 17.005 1.17172C16.7853 1.39141 16.6619 1.68937 16.6619 2.00005C16.6619 2.31074 16.7853 2.6087 17.005 2.82839L19.6883 5.50005H6.16667C5.85725 5.50005 5.5605 5.62297 5.34171 5.84176C5.12292 6.06056 5 6.3573 5 6.66672C5 6.97614 5.12292 7.27289 5.34171 7.49168C5.5605 7.71047 5.85725 7.83339 6.16667 7.83339H22.5C22.7303 7.83224 22.9552 7.76294 23.1462 7.63421C23.3372 7.50549 23.4858 7.32311 23.5733 7.11005C23.6627 6.89759 23.6871 6.66343 23.6435 6.4371C23.5999 6.21078 23.4902 6.00245 23.3283 5.83839ZM17.8333 10.1667H1.5C1.26967 10.1679 1.04483 10.2372 0.853828 10.3659C0.662821 10.4946 0.51419 10.677 0.426667 10.8901C0.337324 11.1025 0.312914 11.3367 0.356517 11.563C0.40012 11.7893 0.509783 11.9977 0.671667 12.1617L5.33833 16.8284C5.44679 16.9377 5.57582 17.0245 5.71799 17.0838C5.86016 17.143 6.01265 17.1735 6.16667 17.1735C6.32068 17.1735 6.47317 17.143 6.61534 17.0838C6.75751 17.0245 6.88654 16.9377 6.995 16.8284C7.10435 16.7199 7.19114 16.5909 7.25037 16.4487C7.3096 16.3066 7.3401 16.1541 7.3401 16.0001C7.3401 15.846 7.3096 15.6936 7.25037 15.5514C7.19114 15.4092 7.10435 15.2802 6.995 15.1717L4.31167 12.5001H17.8333C18.1428 12.5001 18.4395 12.3771 18.6583 12.1583C18.8771 11.9396 19 11.6428 19 11.3334C19 11.024 18.8771 10.7272 18.6583 10.5084C18.4395 10.2896 18.1428 10.1667 17.8333 10.1667Z" fill="#0033AD"/>
</svg>
