<svg width="24" height="24" viewBox="0 0 24 24" fill="none" xmlns="http://www.w3.org/2000/svg">
<path d="M12.0005 16C11.8027 16 11.6093 16.0586 11.4449 16.1685C11.2804 16.2784 11.1523 16.4346 11.0766 16.6173C11.0009 16.8 10.9811 17.0011 11.0197 17.1951C11.0583 17.3891 11.1535 17.5673 11.2933 17.7071C11.4332 17.847 11.6114 17.9422 11.8054 17.9808C11.9993 18.0194 12.2004 17.9996 12.3831 17.9239C12.5659 17.8482 12.722 17.72 12.8319 17.5556C12.9418 17.3911 13.0005 17.1978 13.0005 17C13.0005 16.7348 12.8951 16.4804 12.7076 16.2929C12.52 16.1054 12.2657 16 12.0005 16ZM22.6705 17.47L14.6205 3.47C14.3603 3.00351 13.9802 2.61495 13.5196 2.34447C13.0591 2.07398 12.5346 1.93137 12.0005 1.93137C11.4663 1.93137 10.9419 2.07398 10.4813 2.34447C10.0207 2.61495 9.64065 3.00351 9.38046 3.47L1.38046 17.47C1.11125 17.924 0.966598 18.441 0.9611 18.9688C0.955602 19.4966 1.08945 20.0165 1.34914 20.476C1.60883 20.9356 1.98516 21.3185 2.44014 21.586C2.89512 21.8536 3.41264 21.9964 3.94046 22H20.0605C20.5925 22.0052 21.1164 21.8689 21.5784 21.6049C22.0403 21.3409 22.4238 20.9589 22.6894 20.4978C22.9551 20.0368 23.0933 19.5134 23.09 18.9813C23.0866 18.4493 22.9418 17.9277 22.6705 17.47ZM20.9405 19.47C20.8528 19.6259 20.7249 19.7555 20.5701 19.8452C20.4154 19.9349 20.2393 19.9815 20.0605 19.98H3.94046C3.76157 19.9815 3.58556 19.9349 3.43077 19.8452C3.27599 19.7555 3.14811 19.6259 3.06046 19.47C2.97269 19.318 2.92648 19.1455 2.92648 18.97C2.92648 18.7945 2.97269 18.622 3.06046 18.47L11.0605 4.47C11.1444 4.3062 11.2719 4.16873 11.4289 4.07274C11.5859 3.97675 11.7664 3.92596 11.9505 3.92596C12.1345 3.92596 12.315 3.97675 12.472 4.07274C12.629 4.16873 12.7565 4.3062 12.8405 4.47L20.8905 18.47C20.9897 18.6198 21.0467 18.7936 21.0555 18.9731C21.0643 19.1526 21.0245 19.3312 20.9405 19.49V19.47ZM12.0005 8C11.7352 8 11.4809 8.10535 11.2933 8.29289C11.1058 8.48043 11.0005 8.73478 11.0005 9V13C11.0005 13.2652 11.1058 13.5196 11.2933 13.7071C11.4809 13.8946 11.7352 14 12.0005 14C12.2657 14 12.52 13.8946 12.7076 13.7071C12.8951 13.5196 13.0005 13.2652 13.0005 13V9C13.0005 8.73478 12.8951 8.48043 12.7076 8.29289C12.52 8.10535 12.2657 8 12.0005 8Z" fill="black"/>
</svg>
