<svg width="18" height="16" viewBox="0 0 18 16" fill="none" xmlns="http://www.w3.org/2000/svg">
<path fill-rule="evenodd" clip-rule="evenodd" d="M10.7843 0.00110696V1.77801H13.9558L13.9636 1.79801C11.0551 4.70349 8.14623 7.6093 5.24482 10.5073L6.50251 11.7671C9.40833 8.86395 12.3165 5.95813 15.2332 3.04384V6.21706H17.0057V6.11335C17.0055 5.97444 17.0052 5.83552 17.0049 5.6966C17.0043 5.41798 17.0036 5.13936 17.0036 4.86074V0.476259C17.0036 0.45852 17.0036 0.440787 17.0036 0.42306C17.0035 0.308019 17.0035 0.193199 17.0067 0.0783785C17.0084 0.0204248 16.9898 -0.00160432 16.9298 9.02313e-05C16.8168 0.00347933 16.7038 0.00333812 16.5909 0.00319691C16.5683 0.00316867 16.5457 0.00314042 16.5231 0.00314042H12.1515C11.8709 0.00314042 11.5905 0.00253813 11.31 0.00193573C11.1697 0.00163437 11.0294 0.00133298 10.889 0.00110696H10.7843ZM17.0058 8.00563H15.2276V14.2151H2.775V1.77307H8.99164V0.0012429H8.87505H4.51192C3.99779 0.0012429 3.48367 0.00158181 2.96988 0.00361527C2.94231 0.00368299 2.91467 0.00352067 2.88699 0.00335814C2.77615 0.00270728 2.66475 0.00205311 2.55573 0.016155C2.10396 0.0747864 1.7254 0.273727 1.42614 0.62111C1.16823 0.920029 1.01233 1.26436 1.00318 1.65784C0.991793 2.16078 0.992553 2.66417 0.993312 3.16746C0.993502 3.29328 0.993691 3.41909 0.993691 3.54489C0.993488 4.45222 0.994017 5.35955 0.994546 6.26688C0.994898 6.87177 0.99525 7.47666 0.995386 8.08154C0.995612 9.06168 0.995537 10.0417 0.995461 11.0216C0.995424 11.5116 0.995386 12.0015 0.995386 12.4914C0.995386 12.6284 0.995772 12.7653 0.996157 12.9022C0.997218 13.2787 0.998278 13.6553 0.991319 14.0318C0.982169 14.5093 1.07672 14.9513 1.38479 15.3305C1.70981 15.7301 2.13107 15.967 2.64452 15.9859C3.10097 16.0027 3.55832 16.0005 4.01564 15.9983C4.1882 15.9974 4.36076 15.9966 4.53327 15.9968C6.04989 15.9981 7.56618 15.9988 9.0828 15.9992H13.4883C13.6746 15.9992 13.8609 15.999 14.0472 15.9989C14.4199 15.9986 14.7927 15.9983 15.1656 15.9992C15.5326 15.9998 15.8769 15.9192 16.1853 15.7141C16.6859 15.3813 16.975 14.9153 16.9964 14.3141C17.0121 13.8698 17.0098 13.4248 17.0075 12.9799C17.0067 12.821 17.0058 12.6621 17.0058 12.5033C17.0061 11.527 17.006 10.5509 17.0059 9.57473C17.0059 9.08663 17.0058 8.59851 17.0058 8.11035V8.00563Z" fill="#438F68"/>
</svg>
