<svg width="26" height="28" viewBox="0 0 26 28" fill="none" xmlns="http://www.w3.org/2000/svg">
<path d="M16.9001 22.6667C15.989 22.6667 15.2223 22.3556 14.6001 21.7333C13.9779 21.1111 13.6668 20.3444 13.6668 19.4333C13.6668 18.5222 13.9779 17.7556 14.6001 17.1333C15.2223 16.5111 15.989 16.2 16.9001 16.2C17.8112 16.2 18.5779 16.5111 19.2001 17.1333C19.8223 17.7556 20.1334 18.5222 20.1334 19.4333C20.1334 20.3444 19.8223 21.1111 19.2001 21.7333C18.5779 22.3556 17.8112 22.6667 16.9001 22.6667ZM3.16678 27.8C2.45567 27.8 1.839 27.5389 1.31678 27.0167C0.794558 26.4944 0.533447 25.8778 0.533447 25.1667V4.83333C0.533447 4.1 0.794558 3.47222 1.31678 2.95C1.839 2.42778 2.45567 2.16666 3.16678 2.16666H5.16678V0.166664H7.66678V2.16666H18.3334V0.166664H20.8334V2.16666H22.8334C23.5668 2.16666 24.1946 2.42778 24.7168 2.95C25.239 3.47222 25.5001 4.1 25.5001 4.83333V25.1667C25.5001 25.8778 25.239 26.4944 24.7168 27.0167C24.1946 27.5389 23.5668 27.8 22.8334 27.8H3.16678ZM3.16678 25.1667H22.8334V11H3.16678V25.1667ZM3.16678 9H22.8334V4.83333H3.16678V9Z" fill="#6C6F89"/>
</svg>
