<svg xmlns="http://www.w3.org/2000/svg" width="175" height="47" viewBox="0 0 175 47" fill="none">
  <g clip-path="url(#clip0_23321_91965)">
    <path fill-rule="evenodd" clip-rule="evenodd" d="M19.3156 2.14969C19.528 2.16179 19.7393 2.1106 19.9227 2.00261C20.106 1.89463 20.2533 1.73469 20.3457 1.54303C20.4381 1.35136 20.4717 1.13658 20.442 0.925864C20.4124 0.715147 20.3209 0.517954 20.1791 0.359231C20.0374 0.200508 19.8519 0.0873867 19.6457 0.0341756C19.4397 -0.0190357 19.2226 -0.00994538 19.0217 0.0602964C18.8209 0.130538 18.6453 0.258775 18.5173 0.428787C18.3894 0.598798 18.3147 0.802944 18.3027 1.0154C18.2867 1.3001 18.3844 1.5795 18.5744 1.7922C18.7643 2.00489 19.0309 2.13347 19.3156 2.14969ZM28.6729 2.68233C28.5054 2.68383 28.3414 2.63567 28.2016 2.54396C28.0141 2.4211 27.8831 2.22887 27.8373 2.0095C27.7916 1.79013 27.8347 1.56154 27.9573 1.37395C28.0489 1.2339 28.1799 1.12415 28.3337 1.05858C28.4877 0.99301 28.6576 0.974574 28.822 1.0056C28.9864 1.03663 29.138 1.11573 29.2574 1.23289C29.3769 1.35006 29.4589 1.50001 29.493 1.6638C29.5273 1.82757 29.5121 1.99783 29.4496 2.15299C29.3869 2.30816 29.2797 2.44127 29.1414 2.5355C29.0031 2.62973 28.8401 2.68083 28.6729 2.68233ZM10.4742 2.63263C10.6227 2.5564 10.7453 2.43796 10.8265 2.29221C10.9078 2.14649 10.9441 1.97996 10.931 1.8136C10.9178 1.64726 10.8557 1.48851 10.7526 1.35737C10.6494 1.22623 10.5097 1.12854 10.3511 1.0766C10.1925 1.02467 10.0221 1.02081 9.86136 1.0655C9.70059 1.1102 9.55663 1.20147 9.44761 1.3278C9.3386 1.45414 9.2694 1.6099 9.24871 1.77549C9.22803 1.94107 9.25679 2.10907 9.33139 2.25834C9.38151 2.35826 9.45094 2.44726 9.53564 2.52023C9.62033 2.59319 9.71864 2.64866 9.82487 2.68346C9.93112 2.71824 10.0432 2.73167 10.1546 2.72294C10.2661 2.71421 10.3747 2.68353 10.4742 2.63263ZM11.299 19.698C10.8372 19.1794 10.6002 18.4987 10.64 17.8054L10.6328 17.8069C10.6621 17.2973 10.84 16.8073 11.1445 16.3974C11.4491 15.9877 11.867 15.6761 12.3466 15.501C12.8262 15.326 13.3465 15.2953 13.8434 15.4126C14.3403 15.5299 14.792 15.7901 15.1427 16.1611C15.4934 16.5321 15.7277 16.9977 15.8169 17.5004C15.906 18.0031 15.846 18.521 15.6443 18.99C15.4426 19.459 15.108 19.8586 14.6817 20.1396C14.2554 20.4206 13.7562 20.5706 13.2457 20.5711H13.1028C12.4096 20.5307 11.7608 20.2167 11.299 19.698ZM0.415326 17.2584C0.559104 17.1736 0.724797 17.1333 0.891466 17.1426C1.00234 17.1487 1.11093 17.1766 1.211 17.2246C1.31107 17.2727 1.40065 17.3401 1.47459 17.423C1.54853 17.5059 1.60537 17.6024 1.64186 17.7073C1.67834 17.8121 1.69374 17.9233 1.68719 18.034C1.6776 18.2007 1.61883 18.3609 1.5183 18.494C1.41777 18.6273 1.27999 18.7279 1.12238 18.7827C0.964764 18.8377 0.794387 18.8449 0.632781 18.803C0.471174 18.7611 0.325591 18.6724 0.21443 18.5479C0.103268 18.4233 0.0315179 18.2686 0.00824565 18.1033C-0.0150264 17.938 0.0112245 17.7696 0.083681 17.6191C0.156137 17.4687 0.271547 17.3433 0.415326 17.2584ZM13.6756 6.73526C13.5485 6.96001 13.3576 7.14204 13.127 7.25833C12.9739 7.3356 12.807 7.38191 12.6359 7.39466C12.4648 7.40739 12.2929 7.38629 12.13 7.33256C11.9671 7.27883 11.8164 7.19353 11.6864 7.08151C11.5565 6.9695 11.4499 6.83299 11.3728 6.67976C11.2566 6.44914 11.2115 6.18927 11.243 5.933C11.2746 5.67673 11.3814 5.43557 11.55 5.24C11.7186 5.04443 11.9414 4.90324 12.1902 4.83427C12.439 4.7653 12.7027 4.77166 12.9479 4.85253C13.1932 4.9334 13.4089 5.08516 13.5679 5.28863C13.7268 5.49209 13.8219 5.73811 13.8411 5.9956C13.8603 6.2531 13.8026 6.5105 13.6756 6.73526ZM4.20007 10.4398C4.37789 10.5567 4.5864 10.6183 4.79921 10.6167C5.01203 10.6151 5.21959 10.5504 5.39563 10.4308C5.57166 10.3112 5.70827 10.1421 5.78816 9.9448C5.86806 9.74754 5.88764 9.53101 5.84444 9.32263C5.80124 9.11424 5.6972 8.92334 5.54549 8.7741C5.39376 8.62486 5.20119 8.52397 4.99211 8.4842C4.78304 8.44444 4.56687 8.46758 4.37096 8.55071C4.17504 8.63384 4.00819 8.77321 3.8915 8.9512C3.73523 9.18957 3.67994 9.48023 3.7378 9.75933C3.79566 10.0384 3.96191 10.2832 4.20007 10.4398ZM5.05347 16.8456C5.27591 16.7144 5.53221 16.6523 5.78999 16.6669C6.13584 16.6867 6.45964 16.8431 6.69027 17.1016C6.9209 17.36 7.0395 17.6996 7.01999 18.0454C7.00517 18.3031 6.91427 18.5507 6.75877 18.7569C6.60327 18.963 6.39017 19.1183 6.14637 19.2034C5.90259 19.2884 5.63907 19.2993 5.38913 19.2346C5.13919 19.1697 4.91403 19.0324 4.74214 18.8397C4.57026 18.6471 4.45934 18.4079 4.42341 18.1521C4.38749 17.8964 4.42817 17.6359 4.54033 17.4033C4.65247 17.1707 4.83104 16.9767 5.05347 16.8456ZM4.34301 25.4454C4.15317 25.5414 3.99603 25.6914 3.89146 25.8767C3.7869 26.062 3.7396 26.274 3.75554 26.4861C3.77149 26.6983 3.84996 26.9009 3.98104 27.0684C4.11213 27.236 4.28994 27.3609 4.492 27.4273C4.69406 27.4939 4.91129 27.4989 5.11624 27.442C5.32119 27.385 5.50464 27.2686 5.64343 27.1074C5.78223 26.9461 5.8701 26.7474 5.89596 26.5363C5.92183 26.3251 5.8845 26.1111 5.78873 25.9211C5.72509 25.795 5.6372 25.6826 5.53007 25.5903C5.42296 25.4981 5.29871 25.4279 5.16446 25.3837C5.03019 25.3396 4.88854 25.3223 4.74759 25.3329C4.60664 25.3434 4.46916 25.3817 4.34301 25.4454ZM10.2748 14.2197C9.97086 14.2224 9.67289 14.1349 9.41863 13.9683C9.24961 13.8578 9.10407 13.715 8.99032 13.5481C8.87656 13.3813 8.79683 13.1936 8.75569 12.9959C8.71456 12.7982 8.71282 12.5943 8.75059 12.3959C8.78834 12.1975 8.86487 12.0085 8.97577 11.8397C9.14247 11.5855 9.38082 11.3864 9.66066 11.2677C9.94049 11.1489 10.2493 11.1158 10.5479 11.1725C10.8466 11.2292 11.1217 11.3732 11.3386 11.5863C11.5554 11.7993 11.7042 12.0719 11.7661 12.3695C11.828 12.6672 11.8003 12.9765 11.6865 13.2584C11.5726 13.5402 11.3777 13.782 11.1265 13.9531C10.8752 14.1243 10.5788 14.217 10.2748 14.2197ZM25.5216 7.15546C25.738 7.29667 25.9916 7.37053 26.25 7.3677C26.5084 7.36487 26.7603 7.28547 26.9736 7.13956C27.187 6.99363 27.3523 6.78774 27.4486 6.54789C27.545 6.30804 27.568 6.04501 27.515 5.79206C27.4619 5.5391 27.335 5.30756 27.1503 5.12671C26.9656 4.94587 26.7314 4.82383 26.4774 4.77603C26.2234 4.72823 25.961 4.75681 25.7231 4.85817C25.4854 4.95953 25.283 5.1291 25.1416 5.34546C25.0474 5.48916 24.9826 5.65004 24.9507 5.81889C24.9189 5.98771 24.9206 6.16117 24.9559 6.32933C24.9911 6.49747 25.0593 6.657 25.1564 6.79877C25.2534 6.94053 25.3776 7.06174 25.5216 7.15546ZM25.7271 15.3169C25.3843 15.2971 25.0409 15.3451 24.7166 15.4581C24.3923 15.5711 24.0934 15.7469 23.8371 15.9754C23.3193 16.4369 23.0061 17.0851 22.9664 17.7776C22.9266 18.4699 23.1634 19.1497 23.625 19.6676C24.0864 20.1853 24.7347 20.4984 25.4271 20.5383H25.5786C26.0829 20.538 26.5764 20.3919 26.9997 20.1174C27.4229 19.843 27.7576 19.452 27.9636 18.9916C28.1696 18.5311 28.238 18.0209 28.1606 17.5226C28.083 17.0241 27.863 16.5587 27.5271 16.1826C27.2996 15.926 27.0231 15.7173 26.7141 15.5686C26.4051 15.42 26.0696 15.3344 25.7271 15.3169ZM14.9494 14.839C14.5364 14.5849 14.2027 14.2205 13.9857 13.7869C13.7861 13.3884 13.6916 12.9456 13.7112 12.5004C13.7308 12.0552 13.8639 11.6223 14.0977 11.243C14.3316 10.8636 14.6584 10.5503 15.0473 10.3327C15.4363 10.1151 15.8743 10.0005 16.32 9.99976C16.8037 9.99744 17.2786 10.1299 17.6914 10.3822C18.1041 10.6345 18.4386 10.9967 18.6571 11.4283C18.859 11.8271 18.9553 12.2711 18.9369 12.7177C18.9184 13.1643 18.7859 13.5988 18.5517 13.9796C18.3176 14.3604 17.9899 14.6749 17.5996 14.893C17.2094 15.1111 16.7699 15.2256 16.3229 15.2254C15.838 15.227 15.3623 15.0931 14.9494 14.839ZM34.4859 10.4369C34.6757 10.3411 34.833 10.1911 34.9376 10.006C35.0423 9.82081 35.0897 9.60879 35.074 9.39669C35.0581 9.18459 34.9799 8.98193 34.849 8.81431C34.718 8.6467 34.5403 8.52167 34.3384 8.455C34.1364 8.38834 33.9191 8.38306 33.7141 8.4398C33.5093 8.49656 33.3257 8.61279 33.1867 8.77383C33.0479 8.93486 32.9597 9.13347 32.9336 9.34456C32.9076 9.55564 32.9446 9.76971 33.0401 9.95974C33.1687 10.2146 33.3931 10.408 33.6643 10.4975C33.9353 10.5869 34.2309 10.5651 34.4859 10.4369ZM27.2096 11.8852C27.3594 11.6206 27.5843 11.4064 27.8557 11.2697C28.036 11.1787 28.2324 11.1241 28.4339 11.1092C28.6351 11.0942 28.8374 11.119 29.0293 11.1823C29.221 11.2456 29.3983 11.3461 29.5511 11.478C29.704 11.6099 29.8294 11.7707 29.92 11.9511C30.0569 12.2226 30.11 12.5286 30.0729 12.8304C30.0357 13.1321 29.9099 13.4161 29.7113 13.6463C29.5129 13.8766 29.2504 14.0428 28.9576 14.1239C28.6646 14.2051 28.354 14.1975 28.0653 14.1022C27.7767 14.0069 27.5227 13.8281 27.3356 13.5885C27.1486 13.3489 27.0367 13.0592 27.0143 12.756C26.9919 12.4528 27.0597 12.1498 27.2096 11.8852ZM20.1711 8.70896C19.9094 8.86336 19.6077 8.93668 19.3043 8.91967C18.897 8.89646 18.5156 8.71247 18.244 8.40814C17.9723 8.10383 17.8327 7.70408 17.8557 7.29681C17.8731 6.99338 17.9801 6.70193 18.1631 6.45928C18.3461 6.21664 18.597 6.0337 18.884 5.93358C19.1709 5.83347 19.4811 5.82067 19.7754 5.89681C20.0696 5.97294 20.3347 6.1346 20.537 6.36134C20.7394 6.58808 20.8701 6.86973 20.9124 7.17068C20.9549 7.47166 20.907 7.77841 20.775 8.05221C20.6431 8.32601 20.433 8.55456 20.1711 8.70896ZM10.9758 24.6111C11.2473 24.4743 11.4721 24.26 11.6218 23.9953C11.7715 23.7307 11.8393 23.4276 11.8167 23.1244C11.7941 22.8211 11.6821 22.5314 11.4948 22.2919C11.3076 22.0524 11.0535 21.8737 10.7647 21.7786C10.4759 21.6834 10.1654 21.6761 9.87249 21.7576C9.57953 21.8389 9.31727 22.0053 9.1189 22.2357C8.92053 22.4661 8.79494 22.7501 8.75803 23.052C8.72111 23.3537 8.77453 23.6597 8.91152 23.9311C9.09514 24.295 9.41576 24.571 9.80286 24.6986C10.19 24.8261 10.6119 24.7946 10.9758 24.6111ZM19.878 12.8078C19.8309 12.2281 19.9783 11.6491 20.297 11.1626C20.5354 10.7994 20.8603 10.5012 21.2427 10.295C21.625 10.0887 22.0527 9.98087 22.487 9.98117C23.0687 9.98191 23.6336 10.1766 24.0921 10.5345C24.5507 10.8924 24.8767 11.3929 25.0189 11.957C25.1609 12.521 25.1107 13.1164 24.8764 13.6487C24.642 14.1811 24.2369 14.6201 23.725 14.8963C23.213 15.1724 22.6236 15.27 22.05 15.1736C21.4764 15.077 20.9513 14.792 20.558 14.3634C20.1646 13.935 19.9253 13.3876 19.878 12.8078ZM24.8429 22.0954C24.6333 21.6801 24.3169 21.3281 23.926 21.076C23.5351 20.8237 23.0841 20.6804 22.6193 20.6607C22.1546 20.641 21.693 20.7456 21.2821 20.9639C20.8714 21.182 20.5263 21.5059 20.2823 21.902C20.0384 22.2981 19.9047 22.7521 19.8949 23.2171C19.885 23.6823 19.9994 24.1416 20.2263 24.5476C20.4531 24.9537 20.7843 25.292 21.1854 25.5274C21.5866 25.7629 22.0433 25.8869 22.5086 25.8869C22.9177 25.8841 23.3207 25.7863 23.6857 25.6011C24.303 25.2887 24.7714 24.7444 24.9883 24.0873C25.2051 23.4303 25.1529 22.714 24.8429 22.0954ZM28.5553 21.6604C28.8593 21.658 29.1573 21.7457 29.4114 21.9126C29.7516 22.1369 29.989 22.4867 30.0719 22.8857C30.1546 23.2846 30.0759 23.7001 29.8529 24.0411C29.686 24.2953 29.4476 24.4943 29.1676 24.6129C28.8877 24.7316 28.5789 24.7644 28.2803 24.7076C27.9816 24.6507 27.7066 24.5066 27.4899 24.2933C27.2731 24.0801 27.1244 23.8074 27.0627 23.5097C27.001 23.212 27.0289 22.9027 27.143 22.6209C27.257 22.3391 27.4521 22.0974 27.7034 21.9264C27.9549 21.7556 28.2513 21.663 28.5553 21.6604ZM34.4171 17.9854C34.4317 17.7277 34.3694 17.4714 34.2384 17.249C34.1073 17.0264 33.9131 16.8479 33.6806 16.7357C33.448 16.6236 33.1874 16.583 32.9319 16.6189C32.6761 16.6549 32.4369 16.7657 32.2441 16.9376C32.0516 17.1094 31.9141 17.3346 31.8494 17.5846C31.7847 17.8346 31.7956 18.098 31.8806 18.3419C31.9656 18.5856 32.121 18.7987 32.3271 18.9543C32.5331 19.1097 32.7807 19.2006 33.0386 19.2154C33.3844 19.235 33.7239 19.1163 33.9824 18.8857C34.2409 18.6551 34.3973 18.3313 34.4171 17.9854ZM37.5571 17.1707C37.7013 17.0859 37.8674 17.0457 38.0344 17.0554C38.2581 17.0687 38.4676 17.17 38.6167 17.3374C38.7659 17.5047 38.8426 17.7244 38.8301 17.9483C38.8206 18.1153 38.7616 18.2756 38.6609 18.4091C38.5601 18.5427 38.422 18.6433 38.264 18.6983C38.106 18.7534 37.9353 18.7603 37.7734 18.7183C37.6116 18.6763 37.4657 18.5873 37.3544 18.4624C37.2431 18.3376 37.1714 18.1824 37.1481 18.0167C37.125 17.8511 37.1516 17.6823 37.2243 17.5317C37.2971 17.3811 37.4129 17.2554 37.5571 17.1707ZM34.6286 25.4411C34.4506 25.3246 34.2421 25.2634 34.0294 25.2654C33.8167 25.2673 33.6093 25.3323 33.4336 25.452C33.2577 25.5719 33.1214 25.741 33.0417 25.9383C32.962 26.1354 32.9427 26.3519 32.986 26.5601C33.0293 26.7684 33.1334 26.9591 33.2851 27.1083C33.4369 27.2574 33.6294 27.3581 33.8383 27.3979C34.0473 27.4376 34.2634 27.4144 34.4593 27.3314C34.655 27.2483 34.8219 27.109 34.9386 26.9311C35.0161 26.813 35.0696 26.6807 35.096 26.5419C35.1223 26.403 35.1211 26.2603 35.0923 26.122C35.0636 25.9836 35.0077 25.8523 34.9281 25.7354C34.8486 25.6186 34.7469 25.5186 34.6286 25.4411ZM10.1576 33.1983C10.3249 33.1969 10.4888 33.2451 10.6286 33.3369C10.7215 33.3979 10.8015 33.4764 10.8639 33.5683C10.9264 33.6603 10.9702 33.7634 10.9927 33.8723C11.0153 33.981 11.0162 34.0933 10.9954 34.2023C10.9746 34.3114 10.9325 34.4154 10.8715 34.5083C10.7796 34.6481 10.6484 34.7576 10.4944 34.8227C10.3404 34.888 10.1705 34.906 10.0062 34.8747C9.84194 34.8434 9.69063 34.764 9.57143 34.6467C9.45223 34.5294 9.37047 34.3794 9.33653 34.2156C9.30257 34.0519 9.31794 33.8817 9.38069 33.7267C9.44343 33.5717 9.55073 33.4387 9.68903 33.3447C9.82731 33.2506 9.9904 33.1997 10.1576 33.1983ZM28.3543 33.2484C28.2049 33.3237 28.0813 33.4416 27.9989 33.5871C27.9164 33.7327 27.8791 33.8994 27.8916 34.0663C27.904 34.2331 27.9656 34.3926 28.0686 34.5243C28.1716 34.6561 28.3114 34.7544 28.4703 34.8069C28.6291 34.8591 28.8 34.8633 28.9611 34.8184C29.1223 34.7737 29.2666 34.6821 29.3757 34.5554C29.485 34.4287 29.554 34.2724 29.5744 34.1064C29.5947 33.9403 29.5654 33.772 29.49 33.6227C29.4401 33.5234 29.3711 33.435 29.287 33.3624C29.203 33.2899 29.1053 33.2346 28.9999 33.1999C28.8943 33.165 28.783 33.1514 28.6723 33.1597C28.5614 33.1681 28.4534 33.1981 28.3543 33.2484ZM18.9504 23.0686C18.9977 23.6484 18.8503 24.2274 18.5314 24.714C18.2943 25.078 17.9697 25.3769 17.5874 25.5831C17.2051 25.7896 16.7773 25.8969 16.3429 25.8954C15.7611 25.895 15.1961 25.7006 14.7373 25.3429C14.2786 24.9851 13.9522 24.4847 13.8099 23.9207C13.6676 23.3566 13.7175 22.7611 13.9517 22.2287C14.1859 21.6961 14.591 21.257 15.1029 20.9806C15.6149 20.7043 16.2043 20.6066 16.778 20.703C17.3517 20.7994 17.8769 21.0844 18.2703 21.5129C18.6637 21.9413 18.9031 22.4889 18.9504 23.0686ZM13.3071 28.7269C13.091 28.5856 12.8379 28.5114 12.5797 28.5139C12.3215 28.5163 12.0699 28.5953 11.8566 28.7409C11.6433 28.8863 11.4779 29.0917 11.3813 29.3311C11.2848 29.5706 11.2613 29.8333 11.314 30.0861C11.3668 30.3389 11.4932 30.5703 11.6774 30.7511C11.8617 30.9321 12.0954 31.0543 12.3491 31.1024C12.6027 31.1504 12.865 31.1223 13.1026 31.0214C13.3403 30.9204 13.5427 30.7513 13.6842 30.5354C13.8738 30.2456 13.9406 29.8921 13.8699 29.5531C13.7992 29.214 13.5968 28.9169 13.3071 28.7269ZM18.7961 33.8781C18.9794 33.7701 19.1906 33.719 19.403 33.7311C19.5441 33.7391 19.6821 33.7749 19.8094 33.8363C19.9367 33.8977 20.0507 33.9836 20.1447 34.0891C20.2387 34.1946 20.3111 34.3176 20.3577 34.451C20.4041 34.5844 20.424 34.7257 20.4159 34.8669C20.4036 35.0791 20.3287 35.2831 20.2006 35.453C20.0724 35.6229 19.8969 35.7509 19.696 35.8209C19.4951 35.8909 19.278 35.8997 19.072 35.8464C18.8661 35.793 18.6807 35.6799 18.539 35.521C18.3974 35.3623 18.3061 35.1651 18.2766 34.9544C18.247 34.7437 18.2807 34.5291 18.3731 34.3374C18.4656 34.1459 18.6127 33.986 18.7961 33.8781ZM19.4144 26.9626C19.1107 26.944 18.8083 27.0161 18.5456 27.1697C18.2829 27.3231 18.0717 27.5513 17.9387 27.8249C17.8057 28.0986 17.7569 28.4056 17.7984 28.707C17.8401 29.0084 17.9701 29.2907 18.1724 29.5181C18.3746 29.7456 18.6396 29.9079 18.9341 29.9844C19.2286 30.061 19.5391 30.0486 19.8266 29.9486C20.1139 29.8484 20.3651 29.6654 20.5483 29.4224C20.7316 29.1796 20.8386 28.8877 20.8559 28.584C20.8793 28.1779 20.7407 27.7791 20.4704 27.4751C20.2001 27.1711 19.8204 26.9869 19.4144 26.9626ZM25.1533 29.148C25.28 28.9226 25.4709 28.7397 25.7014 28.6226C25.8543 28.5447 26.0209 28.4977 26.1919 28.4841C26.3629 28.4707 26.5347 28.4911 26.6979 28.5443C26.8609 28.5973 27.0119 28.682 27.1421 28.7936C27.2726 28.905 27.3796 29.0411 27.4571 29.194C27.5747 29.4244 27.6213 29.6846 27.591 29.9414C27.5607 30.1983 27.4549 30.4404 27.287 30.6371C27.119 30.8339 26.8964 30.9763 26.6474 31.0464C26.3986 31.1166 26.1343 31.1113 25.8884 31.0313C25.6424 30.9513 25.4257 30.8 25.2657 30.5967C25.1057 30.3934 25.0097 30.1473 24.9897 29.8894C24.9697 29.6316 25.0266 29.3736 25.1533 29.148ZM45.9256 26.4283V9.74894H58.6903V11.4023H47.8463V17.0431H57.6206V18.7209H47.8463V24.775H58.8363V26.4283H45.9256ZM67.2419 17.6996L60.5069 26.4283H62.7924L68.3603 19.1341H68.4819L74.0497 26.4283H76.4081L69.6733 17.6753L75.6789 9.74894H73.4176L68.5549 16.2407H68.4333L63.4731 9.74894H61.1147L67.2419 17.6996ZM78.8823 26.4283V9.74894H87.0519C88.1864 9.74894 89.1186 9.96776 89.848 10.4054C90.5936 10.8269 91.1447 11.4104 91.5013 12.156C91.8741 12.9017 92.0606 13.7526 92.0606 14.709C92.0606 15.6977 91.8499 16.5811 91.4284 17.3593C91.0069 18.1373 90.4234 18.7451 89.6777 19.1827C88.9322 19.6041 88.073 19.8149 87.1004 19.8149H80.8031V26.4283H78.8823ZM80.8031 18.1616H86.9546C87.8947 18.1616 88.6566 17.8617 89.2402 17.262C89.8236 16.646 90.1154 15.8031 90.1154 14.7333C90.1154 14.0363 89.9939 13.4447 89.7507 12.9584C89.5237 12.4559 89.1753 12.075 88.7051 11.8156C88.2351 11.5401 87.6516 11.4023 86.9546 11.4023H80.8031V18.1616ZM95.0046 9.74894V26.4283H105.168V24.7507H96.9254V9.74894H95.0046ZM114.292 26.7201C112.574 26.7201 111.091 26.404 109.842 25.7719C108.61 25.1234 107.662 24.159 106.998 22.8784C106.333 21.598 106.001 20.0013 106.001 18.0886C106.001 16.1597 106.333 14.5631 106.998 13.2988C107.662 12.0182 108.61 11.0619 109.842 10.4297C111.091 9.78136 112.574 9.45717 114.292 9.45717C116.026 9.45717 117.509 9.78136 118.741 10.4297C119.989 11.0619 120.938 12.0182 121.586 13.2988C122.251 14.5631 122.583 16.1597 122.583 18.0886C122.583 20.0013 122.251 21.598 121.586 22.8784C120.938 24.159 119.989 25.1234 118.741 25.7719C117.509 26.404 116.026 26.7201 114.292 26.7201ZM114.292 25.0667C115.248 25.0667 116.115 24.9451 116.893 24.702C117.672 24.4427 118.336 24.0374 118.887 23.4863C119.438 22.9353 119.86 22.2383 120.152 21.3953C120.46 20.5524 120.613 19.5394 120.613 18.3561V17.8454C120.613 16.646 120.46 15.6249 120.152 14.782C119.86 13.939 119.438 13.242 118.887 12.6909C118.336 12.1398 117.672 11.7427 116.893 11.4995C116.115 11.2402 115.248 11.1105 114.292 11.1105C113.336 11.1105 112.468 11.2402 111.69 11.4995C110.928 11.7427 110.272 12.1398 109.721 12.6909C109.17 13.242 108.74 13.939 108.432 14.782C108.14 15.6249 107.995 16.646 107.995 17.8454V18.3561C107.995 19.5394 108.14 20.5524 108.432 21.3953C108.74 22.2383 109.17 22.9353 109.721 23.4863C110.272 24.0374 110.928 24.4427 111.69 24.702C112.468 24.9451 113.336 25.0667 114.292 25.0667ZM126.133 9.74894V26.4283H128.054V19.5719H134.935L138.266 26.4283H140.381L136.831 19.2314C137.723 18.891 138.436 18.3156 138.971 17.5051C139.522 16.6784 139.798 15.6734 139.798 14.4901C139.798 13.5824 139.611 12.772 139.238 12.0588C138.882 11.3456 138.339 10.7863 137.609 10.3811C136.896 9.95966 135.988 9.74894 134.886 9.74894H126.133ZM134.692 17.9184H128.054V11.4023H134.692C135.389 11.4023 135.972 11.532 136.442 11.7913C136.912 12.0345 137.269 12.383 137.512 12.8368C137.755 13.2907 137.877 13.8418 137.877 14.4901C137.877 15.56 137.593 16.4029 137.026 17.0189C136.458 17.6186 135.68 17.9184 134.692 17.9184ZM143.941 26.4283V9.74894H156.706V11.4023H145.861V17.0431H155.636V18.7209H145.861V24.775H156.851V26.4283H143.941ZM160.443 9.74894V26.4283H162.364V19.5719H169.246L172.576 26.4283H174.691L171.141 19.2314C172.033 18.891 172.746 18.3156 173.281 17.5051C173.833 16.6784 174.109 15.6734 174.109 14.4901C174.109 13.5824 173.921 12.772 173.549 12.0588C173.191 11.3456 172.649 10.7863 171.92 10.3811C171.206 9.95966 170.299 9.74894 169.197 9.74894H160.443ZM169.001 17.9184H162.364V11.4023H169.001C169.699 11.4023 170.283 11.532 170.753 11.7913C171.223 12.0345 171.579 12.383 171.823 12.8368C172.066 13.2907 172.187 13.8418 172.187 14.4901C172.187 15.56 171.903 16.4029 171.336 17.0189C170.769 17.6186 169.99 17.9184 169.001 17.9184Z" fill="url(#paint0_linear_23321_91965)"/>
  </g>
  <defs>
    <linearGradient id="paint0_linear_23321_91965" x1="2.36491e-07" y1="2.27371e-07" x2="109.096" y2="104.889" gradientUnits="userSpaceOnUse">
      <stop stop-color="#0033AD"/>
      <stop offset="1" stop-color="#5C8DFF"/>
    </linearGradient>
    <clipPath id="clip0_23321_91965">
      <rect width="175" height="36" fill="white"/>
    </clipPath>
  </defs>
</svg>
