<svg width="31" height="23" viewBox="0 0 31 23" fill="none" xmlns="http://www.w3.org/2000/svg">
<path d="M11.2491 11.4609C11.2491 12.5052 11.6639 13.5067 12.4024 14.2452C13.1408 14.9836 14.1423 15.3984 15.1866 15.3984C16.2309 15.3984 17.2324 14.9836 17.9708 14.2452C18.7093 13.5067 19.1241 12.5052 19.1241 11.4609C19.1241 10.4166 18.7093 9.41513 17.9708 8.6767C17.2324 7.93828 16.2309 7.52344 15.1866 7.52344C14.1423 7.52344 13.1408 7.93828 12.4024 8.6767C11.6639 9.41513 11.2491 10.4166 11.2491 11.4609V11.4609ZM30.4515 10.5539C27.1186 3.5332 22.0807 0 15.3272 0C8.5702 0 3.53582 3.5332 0.203011 10.5574C0.0693304 10.8405 0 11.1496 0 11.4627C0 11.7757 0.0693304 12.0849 0.203011 12.368C3.53582 19.3887 8.57371 22.9219 15.3272 22.9219C22.0843 22.9219 27.1186 19.3887 30.4515 12.3645C30.7222 11.7949 30.7222 11.134 30.4515 10.5539V10.5539ZM15.1866 17.6484C11.7694 17.6484 8.99911 14.8781 8.99911 11.4609C8.99911 8.04375 11.7694 5.27344 15.1866 5.27344C18.6038 5.27344 21.3741 8.04375 21.3741 11.4609C21.3741 14.8781 18.6038 17.6484 15.1866 17.6484Z" fill="#438F68"/>
</svg>
