<svg xmlns="http://www.w3.org/2000/svg" width="291" height="149" fill="none"><path fill="#D6E2FF" d="M128.972 5.279a3.4 3.4 0 0 1 3.678 0l10.656 6.746c1.138.721 1.839 2.053 1.839 3.494v13.493c0 1.441-.701 2.773-1.839 3.494l-10.656 6.746a3.4 3.4 0 0 1-3.678 0l-10.656-6.746c-1.138-.721-1.839-2.053-1.839-3.494V15.52c0-1.441.701-2.773 1.839-3.494z"/><path fill="#D6E2FF" d="M189.955 55.18c-2.648 25.976-20.44 36.786-40.754 36.786-20.043 0-46.225-10.996-47.767-26.942a3.2 3.2 0 0 1 .126-1.269c3.157-9.78 23.072-11.68 38.225-24.065 13.809-11.285 19.697-35.657 29.278-35.657 10.593 1.452 22.069 28.88 20.892 51.146"/><path fill="#0033AD" fill-rule="evenodd" d="M151.482 37.352c-1.462 0-2.648 1.3-2.648 2.904v2.42h-26.189c-1.462 0-2.648 1.3-2.648 2.904v31.785c0 1.604 1.186 2.904 2.648 2.904h44.727c1.462 0 2.648-1.3 2.648-2.904V40.256c0-1.604-1.186-2.904-2.648-2.904z" clip-rule="evenodd"/><path fill="#F6F9FF" d="M159.427 24.121h-32.663c-1.462 0-2.648 1.3-2.648 2.904v32.43c0 1.605 1.186 2.905 2.648 2.905h32.663c1.462 0 2.648-1.3 2.648-2.904v-32.43c0-1.605-1.186-2.905-2.648-2.905"/><path fill="#0033AD" fill-rule="evenodd" d="M132.986 33.116a1.08 1.08 0 0 0 0 1.425.864.864 0 0 0 1.301 0l.91-.998.91.999a.864.864 0 0 0 1.301 0 1.08 1.08 0 0 0 0-1.427l-.911-.998.911-.998a1.08 1.08 0 0 0 0-1.426.864.864 0 0 0-1.301 0l-.91.998-.91-.998a.864.864 0 0 0-1.301 0 1.08 1.08 0 0 0 0 1.426l.91.998zm16.11 0a1.08 1.08 0 0 0 0 1.425.864.864 0 0 0 1.301 0l.91-.998.911.999a.863.863 0 0 0 1.3 0 1.08 1.08 0 0 0 0-1.427l-.91-.998.91-.998a1.08 1.08 0 0 0 0-1.426.863.863 0 0 0-1.3 0l-.911.998-.91-.998a.863.863 0 0 0-1.3 0 1.08 1.08 0 0 0 0 1.426l.91.998z" clip-rule="evenodd"/><path stroke="#0033AD" stroke-linecap="round" stroke-width="2" d="m136.99 43.12.212-.238c3.717-4.183 9.878-4.075 13.471.238"/><path fill="#5C8DFF" d="M115.32 51.016c-.267-1.77.978-3.38 2.613-3.38h45.157c1.285 0 2.384 1.012 2.608 2.4l4.323 26.823c.287 1.779-.96 3.41-2.607 3.41h-45.429c-1.296 0-2.401-1.028-2.613-2.43z"/><path fill="#F6F9FF" d="M164.355 44.45c3.332 0 6.033-2.962 6.033-6.615s-2.701-6.615-6.033-6.615c-3.331 0-6.032 2.961-6.032 6.615 0 3.653 2.701 6.615 6.032 6.615" opacity=".5"/><path fill="#6C6F89" fill-rule="evenodd" d="M168.916 44.772c-1.283 1.016-2.858 1.615-4.561 1.615-4.306 0-7.797-3.829-7.797-8.552s3.491-8.55 7.797-8.55c4.307 0 7.798 3.828 7.798 8.55 0 1.983-.615 3.808-1.648 5.258l5.684 6.684a1.294 1.294 0 0 1-.055 1.71 1.036 1.036 0 0 1-1.559-.06zm1.472-6.937c0 3.654-2.701 6.616-6.033 6.616-3.331 0-6.032-2.962-6.032-6.616s2.701-6.615 6.032-6.615 6.033 2.962 6.033 6.615" clip-rule="evenodd"/><path fill="#434656" d="M20.988 106.469V115h-1.113v-8.531zm2.742 0v.926h-6.59v-.926zm2.186-.469v9h-1.084v-9zm-.258 5.59-.451-.018q.006-.65.193-1.201.187-.556.528-.967.34-.41.808-.633a2.4 2.4 0 0 1 1.05-.228q.468 0 .843.129.375.123.639.398.27.276.41.715.14.434.14 1.061V115h-1.09v-4.166q0-.498-.146-.797a.9.9 0 0 0-.428-.439 1.5 1.5 0 0 0-.691-.141q-.405 0-.738.17a1.75 1.75 0 0 0-.569.469q-.234.298-.369.685a2.5 2.5 0 0 0-.129.809m8.414 3.527q-.662 0-1.2-.222a2.7 2.7 0 0 1-.92-.639 2.85 2.85 0 0 1-.587-.973 3.6 3.6 0 0 1-.205-1.23v-.246q0-.774.229-1.377.228-.61.62-1.032.395-.422.891-.638a2.55 2.55 0 0 1 1.032-.217q.68 0 1.171.234.498.235.815.657a2.8 2.8 0 0 1 .469.984q.152.563.152 1.23v.487h-4.734v-.885h3.65v-.082a2.7 2.7 0 0 0-.176-.82 1.5 1.5 0 0 0-.469-.657q-.321-.257-.878-.257a1.47 1.47 0 0 0-1.213.615 2.3 2.3 0 0 0-.346.744 3.8 3.8 0 0 0-.123 1.014v.246q0 .452.123.849.129.393.37.692.245.298.591.468.351.17.797.17.575 0 .972-.234.4-.234.698-.627l.656.522q-.205.31-.522.591-.315.282-.779.457-.456.177-1.084.176m4.817-5.461V115h-1.084v-6.34h1.054zm1.98-1.031-.006 1.008a1.5 1.5 0 0 0-.258-.035 3 3 0 0 0-.27-.012q-.375 0-.661.117a1.4 1.4 0 0 0-.486.328 1.6 1.6 0 0 0-.317.504 2.4 2.4 0 0 0-.146.633l-.305.176q0-.574.111-1.078.117-.504.358-.891.24-.393.609-.609a1.7 1.7 0 0 1 1.16-.194.8.8 0 0 1 .211.053m3.516 6.492q-.663 0-1.201-.222a2.7 2.7 0 0 1-.92-.639 2.85 2.85 0 0 1-.586-.973 3.6 3.6 0 0 1-.205-1.23v-.246q0-.774.228-1.377.229-.61.621-1.032.393-.422.89-.638a2.55 2.55 0 0 1 1.032-.217q.68 0 1.172.234.498.235.815.657a2.8 2.8 0 0 1 .468.984q.153.563.153 1.23v.487h-4.735v-.885h3.65v-.082a2.7 2.7 0 0 0-.175-.82 1.5 1.5 0 0 0-.469-.657q-.323-.257-.879-.257a1.47 1.47 0 0 0-1.213.615 2.3 2.3 0 0 0-.346.744 3.8 3.8 0 0 0-.123 1.014v.246q0 .452.123.849.13.393.37.692.246.298.592.468.352.17.796.17.574 0 .973-.234t.697-.627l.657.522q-.206.31-.522.591-.315.282-.78.457-.456.177-1.083.176m10.4-1.799q0-.234-.105-.433-.1-.206-.416-.369-.31-.17-.938-.293a7.5 7.5 0 0 1-.955-.264 3 3 0 0 1-.72-.369 1.6 1.6 0 0 1-.452-.51 1.4 1.4 0 0 1-.158-.685q0-.375.164-.709a1.9 1.9 0 0 1 .475-.592q.31-.258.744-.405.433-.146.967-.146.761 0 1.3.269.54.27.827.721.287.445.287.99H54.72a.93.93 0 0 0-.158-.509 1.17 1.17 0 0 0-.452-.416q-.293-.164-.72-.164-.451 0-.733.14a.94.94 0 0 0-.404.346.87.87 0 0 0-.064.762.7.7 0 0 0 .222.252q.159.11.445.211.288.099.733.199.78.176 1.283.422.504.246.75.603t.246.867q0 .417-.176.762-.17.346-.498.598a2.5 2.5 0 0 1-.773.386 3.5 3.5 0 0 1-1.002.135q-.838 0-1.418-.299t-.879-.773-.299-1.002h1.09q.024.445.258.709.234.258.574.369.34.106.674.106.445 0 .744-.118.305-.117.463-.322a.75.75 0 0 0 .158-.469m5.139 1.799q-.663 0-1.201-.222a2.7 2.7 0 0 1-.92-.639 2.85 2.85 0 0 1-.586-.973 3.6 3.6 0 0 1-.205-1.23v-.246q0-.774.228-1.377.23-.61.621-1.032.393-.422.891-.638a2.55 2.55 0 0 1 1.031-.217q.68 0 1.172.234.498.235.815.657a2.8 2.8 0 0 1 .468.984q.153.563.153 1.23v.487h-4.735v-.885h3.65v-.082a2.7 2.7 0 0 0-.175-.82 1.5 1.5 0 0 0-.469-.657q-.323-.257-.879-.257a1.47 1.47 0 0 0-1.213.615 2.3 2.3 0 0 0-.345.744 3.8 3.8 0 0 0-.123 1.014v.246q0 .452.123.849.128.393.369.692.246.298.591.468.352.17.797.17.575 0 .973-.234a2.4 2.4 0 0 0 .697-.627l.657.522q-.206.31-.522.591-.315.282-.78.457-.456.177-1.083.176m6.363 0q-.662 0-1.201-.222a2.7 2.7 0 0 1-.92-.639 2.85 2.85 0 0 1-.586-.973 3.6 3.6 0 0 1-.205-1.23v-.246q0-.774.228-1.377.23-.61.622-1.032t.89-.638a2.55 2.55 0 0 1 1.032-.217q.68 0 1.171.234.498.235.815.657a2.8 2.8 0 0 1 .469.984q.152.563.152 1.23v.487h-4.735v-.885h3.65v-.082a2.7 2.7 0 0 0-.175-.82 1.5 1.5 0 0 0-.469-.657q-.322-.257-.879-.257a1.47 1.47 0 0 0-1.212.615 2.3 2.3 0 0 0-.346.744 3.8 3.8 0 0 0-.123 1.014v.246q0 .452.123.849.129.393.369.692.246.298.592.468.351.17.797.17.574 0 .972-.234a2.4 2.4 0 0 0 .698-.627l.656.522q-.205.31-.522.591-.315.282-.779.457-.457.177-1.084.176m4.81-5.197V115h-1.09v-6.34h1.032zm-.222 1.67-.504-.018a4.3 4.3 0 0 1 .17-1.201q.165-.556.486-.967.323-.41.803-.633a2.6 2.6 0 0 1 1.113-.228q.445 0 .82.129.376.123.651.392.275.27.428.692t.152 1.019V115H73.91v-4.172q0-.498-.17-.797a.97.97 0 0 0-.468-.433 1.7 1.7 0 0 0-.715-.141q-.48 0-.803.17a1.35 1.35 0 0 0-.516.469 2.1 2.1 0 0 0-.281.685 4 4 0 0 0-.082.809m4.107-.598-.726.223q.005-.522.17-1.002.17-.48.486-.856.323-.375.791-.591.47-.223 1.072-.223.51 0 .903.135.398.134.668.416.275.275.416.709t.14 1.031V115h-1.09v-4.178q0-.533-.17-.826a.9.9 0 0 0-.468-.416 1.9 1.9 0 0 0-.715-.123q-.358 0-.633.123a1.3 1.3 0 0 0-.463.34q-.187.211-.287.486a1.8 1.8 0 0 0-.094.586m9.252 2.326q0-.234-.105-.433-.1-.206-.416-.369-.31-.17-.938-.293a7.5 7.5 0 0 1-.955-.264 3 3 0 0 1-.72-.369 1.6 1.6 0 0 1-.452-.51 1.4 1.4 0 0 1-.158-.685q0-.375.164-.709a1.9 1.9 0 0 1 .475-.592q.31-.258.744-.405.434-.146.967-.146.762 0 1.3.269.54.27.827.721.287.445.287.99H84.17a.93.93 0 0 0-.158-.509 1.16 1.16 0 0 0-.451-.416q-.294-.164-.721-.164-.45 0-.733.14a.94.94 0 0 0-.404.346.87.87 0 0 0-.064.762.7.7 0 0 0 .222.252q.159.11.446.211.287.099.732.199.78.176 1.283.422.504.246.75.603t.246.867q0 .417-.175.762-.17.346-.499.598a2.5 2.5 0 0 1-.773.386 3.5 3.5 0 0 1-1.002.135q-.837 0-1.418-.299-.58-.299-.879-.773t-.299-1.002h1.09q.024.445.258.709.234.258.574.369.34.106.674.106.445 0 .744-.118.305-.117.463-.322a.75.75 0 0 0 .158-.469m8.139-4.658v.832h-3.428v-.832zm-2.267-1.541h1.084v6.311q0 .323.1.486a.48.48 0 0 0 .257.217q.158.053.34.053.135 0 .281-.024.152-.029.228-.047l.006.885q-.129.041-.34.076a2.5 2.5 0 0 1-.498.041q-.398 0-.732-.158a1.18 1.18 0 0 1-.533-.527q-.195-.375-.194-1.008zm3.134 4.781v-.134q0-.686.2-1.272.198-.591.574-1.025.375-.44.908-.68a2.8 2.8 0 0 1 1.195-.246q.668 0 1.201.246.54.24.914.68.382.434.58 1.025.2.587.2 1.272v.134q0 .685-.2 1.272-.198.585-.58 1.025-.374.434-.908.68-.527.24-1.195.24t-1.201-.24a2.7 2.7 0 0 1-.914-.68 3.1 3.1 0 0 1-.575-1.025 4 4 0 0 1-.199-1.272m1.084-.134v.134q0 .475.112.897.111.415.333.738.229.322.569.51.34.182.79.182.447 0 .78-.182.34-.188.563-.51.222-.323.334-.738.117-.421.117-.897v-.134q0-.47-.117-.885a2.3 2.3 0 0 0-.34-.744 1.6 1.6 0 0 0-.563-.516 1.6 1.6 0 0 0-.785-.187q-.445 0-.785.187-.334.188-.562.516-.223.322-.334.744a3.4 3.4 0 0 0-.112.885m9.018-5.766h1.09v7.77l-.094 1.23h-.996zm5.373 5.777v.123q0 .691-.164 1.284-.165.585-.481 1.019a2.2 2.2 0 0 1-.773.674q-.457.24-1.049.24a2.6 2.6 0 0 1-1.06-.205 2.1 2.1 0 0 1-.762-.603 3.1 3.1 0 0 1-.498-.95 6 6 0 0 1-.252-1.254v-.539q.07-.702.252-1.259a3.1 3.1 0 0 1 .498-.95q.31-.398.762-.603.45-.211 1.048-.211t1.061.234q.462.229.773.657.316.428.481 1.025.164.592.164 1.318m-1.09.123v-.123a4.3 4.3 0 0 0-.088-.89 2.3 2.3 0 0 0-.281-.739 1.4 1.4 0 0 0-.51-.503q-.317-.188-.779-.188-.41 0-.715.141-.299.14-.51.381-.21.234-.346.539a3 3 0 0 0-.193.621v1.412q.094.41.305.791.217.375.574.615.363.24.897.24.438 0 .75-.176.315-.181.509-.498.2-.316.293-.732.094-.415.094-.891m5.092 3.217q-.663 0-1.201-.222a2.7 2.7 0 0 1-.92-.639 2.8 2.8 0 0 1-.586-.973 3.6 3.6 0 0 1-.205-1.23v-.246q0-.774.228-1.377.23-.61.621-1.032a2.7 2.7 0 0 1 .891-.638 2.55 2.55 0 0 1 1.031-.217q.68 0 1.172.234.499.235.814.657.317.416.469.984.153.563.153 1.23v.487h-4.735v-.885h3.651v-.082a2.7 2.7 0 0 0-.176-.82 1.5 1.5 0 0 0-.469-.657q-.323-.257-.879-.257a1.47 1.47 0 0 0-1.213.615 2.3 2.3 0 0 0-.345.744 3.8 3.8 0 0 0-.123 1.014v.246q0 .452.123.849.129.393.369.692.246.298.592.468.352.17.796.17.574 0 .973-.234t.697-.627l.657.522a3 3 0 0 1-.522.591q-.317.282-.779.457-.457.177-1.084.176m10.447-1.201v-3.264q0-.374-.152-.65a1 1 0 0 0-.446-.434 1.6 1.6 0 0 0-.738-.152 1.7 1.7 0 0 0-.721.141 1.24 1.24 0 0 0-.48.369.8.8 0 0 0-.17.492h-1.084q0-.34.176-.674.175-.335.504-.603.333-.276.797-.434.468-.164 1.043-.164.692 0 1.218.234.534.235.832.709.305.469.305 1.178v2.953q0 .317.053.674.058.357.17.615V115h-1.131a2 2 0 0 1-.129-.498 4 4 0 0 1-.047-.586m.188-2.76.011.762h-1.095q-.463 0-.827.076a1.9 1.9 0 0 0-.609.217 1.04 1.04 0 0 0-.375.369 1 1 0 0 0-.129.51q0 .299.135.545a1 1 0 0 0 .404.392q.276.141.674.141.498 0 .879-.211.381-.21.603-.516.23-.305.247-.591l.462.521a1.6 1.6 0 0 1-.222.545 2.6 2.6 0 0 1-.487.574q-.299.27-.714.451a2.3 2.3 0 0 1-.926.176q-.645 0-1.131-.252a1.93 1.93 0 0 1-.75-.674 1.8 1.8 0 0 1-.264-.955q0-.51.2-.896.199-.393.574-.651.374-.263.902-.398t1.178-.135zm6.662-1.277v7.559h-1.09v-8.778h.996zm4.271 1.898v.123q0 .691-.164 1.284-.164.585-.48 1.019a2.2 2.2 0 0 1-.768.674q-.457.24-1.049.24a2.7 2.7 0 0 1-1.066-.199 2.1 2.1 0 0 1-.785-.58 3 3 0 0 1-.516-.914 5.3 5.3 0 0 1-.258-1.201v-.657q.07-.702.264-1.259t.51-.95q.322-.398.779-.603a2.5 2.5 0 0 1 1.055-.211q.598 0 1.06.234.464.229.779.657.317.428.475 1.025.164.592.164 1.318m-1.09.123v-.123q0-.474-.099-.89a2.3 2.3 0 0 0-.311-.739 1.5 1.5 0 0 0-.527-.503 1.5 1.5 0 0 0-.768-.188q-.41 0-.715.141-.299.14-.509.381a2 2 0 0 0-.346.539q-.129.299-.193.621v1.517q.117.411.328.774.21.357.562.58.352.217.885.217.44 0 .756-.182a1.5 1.5 0 0 0 .527-.51q.211-.323.311-.738.099-.421.099-.897m3.557-2.244V115h-1.084v-6.34h1.055zm1.98-1.031-.005 1.008a1.5 1.5 0 0 0-.258-.035 3 3 0 0 0-.27-.012q-.375 0-.662.117a1.4 1.4 0 0 0-.486.328 1.6 1.6 0 0 0-.317.504 2.4 2.4 0 0 0-.146.633l-.305.176q0-.574.112-1.078.117-.504.357-.891a1.74 1.74 0 0 1 .609-.609 1.7 1.7 0 0 1 1.16-.194.8.8 0 0 1 .211.053m.598 3.275v-.134q0-.686.199-1.272.2-.591.575-1.025.374-.44.908-.68a2.8 2.8 0 0 1 1.195-.246q.668 0 1.201.246.54.24.914.68.381.434.58 1.025.2.587.2 1.272v.134q0 .685-.2 1.272-.199.585-.58 1.025-.374.434-.908.68-.528.24-1.195.24a2.9 2.9 0 0 1-1.201-.24 2.7 2.7 0 0 1-.914-.68 3.1 3.1 0 0 1-.575-1.025 4 4 0 0 1-.199-1.272m1.084-.134v.134q0 .475.111.897.112.415.334.738.229.322.569.51.34.182.791.182.445 0 .779-.182.34-.188.563-.51.222-.323.334-.738a3.3 3.3 0 0 0 .117-.897v-.134q0-.47-.117-.885a2.3 2.3 0 0 0-.34-.744 1.6 1.6 0 0 0-.563-.516 1.6 1.6 0 0 0-.785-.187q-.446 0-.785.187-.334.188-.563.516a2.4 2.4 0 0 0-.334.744 3.4 3.4 0 0 0-.111.885m6.041-5.766h1.09v7.77l-.094 1.23h-.996zm5.373 5.777v.123q0 .691-.164 1.284-.163.585-.48 1.019a2.24 2.24 0 0 1-.774.674q-.457.24-1.049.24a2.6 2.6 0 0 1-1.06-.205 2.1 2.1 0 0 1-.762-.603 3.1 3.1 0 0 1-.498-.95 6 6 0 0 1-.252-1.254v-.539q.07-.702.252-1.259a3.1 3.1 0 0 1 .498-.95q.31-.398.762-.603.451-.211 1.049-.211t1.06.234q.464.229.774.657.317.428.48 1.025.164.592.164 1.318m-1.09.123v-.123a4.3 4.3 0 0 0-.088-.89 2.3 2.3 0 0 0-.281-.739 1.4 1.4 0 0 0-.51-.503q-.316-.188-.779-.188a1.7 1.7 0 0 0-.715.141q-.298.14-.51.381a2 2 0 0 0-.345.539 3 3 0 0 0-.194.621v1.412q.094.41.305.791.217.375.574.615.364.24.897.24.44 0 .75-.176.317-.181.51-.498.198-.316.293-.732.093-.415.093-.891m3.639-5.9v9h-1.09v-9zm4.371 9.117q-.662 0-1.201-.222a2.7 2.7 0 0 1-.92-.639 2.85 2.85 0 0 1-.586-.973 3.6 3.6 0 0 1-.205-1.23v-.246q0-.774.228-1.377.23-.61.622-1.032t.89-.638a2.55 2.55 0 0 1 1.031-.217q.68 0 1.172.234.498.235.815.657.316.416.468.984.153.563.153 1.23v.487h-4.735v-.885h3.651v-.082a2.7 2.7 0 0 0-.176-.82 1.5 1.5 0 0 0-.469-.657q-.322-.257-.879-.257a1.47 1.47 0 0 0-1.212.615 2.3 2.3 0 0 0-.346.744 3.8 3.8 0 0 0-.123 1.014v.246q0 .452.123.849.129.393.369.692.246.298.592.468.351.17.797.17.574 0 .972-.234t.698-.627l.656.522a3 3 0 0 1-.522.591 2.5 2.5 0 0 1-.779.457q-.457.177-1.084.176m4.811-5.197V115h-1.09v-6.34h1.031zm-.223 1.67-.504-.018q.006-.65.17-1.201.163-.556.486-.967t.803-.633q.48-.228 1.113-.228.446 0 .821.129.374.123.65.392.275.27.428.692t.152 1.019V115h-1.084v-4.172q0-.498-.17-.797a.97.97 0 0 0-.469-.433 1.7 1.7 0 0 0-.714-.141q-.481 0-.803.17a1.35 1.35 0 0 0-.516.469 2.1 2.1 0 0 0-.281.685 4 4 0 0 0-.082.809m4.107-.598-.726.223q.006-.522.17-1.002.17-.48.486-.856a2.3 2.3 0 0 1 .791-.591q.47-.223 1.072-.223.51 0 .903.135.398.134.668.416.275.275.416.709t.14 1.031V115h-1.09v-4.178q0-.533-.169-.826a.9.9 0 0 0-.469-.416 1.9 1.9 0 0 0-.715-.123 1.5 1.5 0 0 0-.633.123 1.3 1.3 0 0 0-.463.34q-.187.211-.287.486a1.8 1.8 0 0 0-.094.586M177.598 115h-1.084v-7.008q0-.686.246-1.154.252-.475.72-.715.47-.246 1.114-.246a3.2 3.2 0 0 1 .75.094l-.059.884a2 2 0 0 0-.281-.041 4 4 0 0 0-.305-.011q-.345 0-.597.14a.88.88 0 0 0-.375.399 1.5 1.5 0 0 0-.129.65zm1.347-6.34v.832h-3.433v-.832zm3.698 6.457q-.663 0-1.202-.222a2.75 2.75 0 0 1-.92-.639 2.85 2.85 0 0 1-.585-.973 3.6 3.6 0 0 1-.206-1.23v-.246q0-.774.229-1.377.228-.61.621-1.032a2.7 2.7 0 0 1 .891-.638 2.55 2.55 0 0 1 1.031-.217q.68 0 1.172.234.498.235.814.657.316.416.469.984.153.563.152 1.23v.487h-4.734v-.885h3.65v-.082a2.7 2.7 0 0 0-.175-.82 1.5 1.5 0 0 0-.469-.657q-.323-.257-.879-.257a1.47 1.47 0 0 0-1.213.615 2.3 2.3 0 0 0-.346.744 3.8 3.8 0 0 0-.123 1.014v.246q0 .452.123.849.129.393.369.692.247.298.592.468.352.17.797.17.574 0 .973-.234.398-.234.697-.627l.656.522q-.204.31-.521.591-.317.282-.779.457-.457.177-1.084.176m6.386-6.457v.832h-3.427v-.832zm-2.267-1.541h1.084v6.311q0 .323.099.486a.48.48 0 0 0 .258.217q.159.053.34.053.135 0 .281-.024.153-.029.229-.047l.006.885a3 3 0 0 1-.34.076 2.5 2.5 0 0 1-.498.041q-.399 0-.733-.158a1.18 1.18 0 0 1-.533-.527q-.193-.375-.193-1.008zm6.076 7.108q.387 0 .715-.159.327-.158.539-.433.21-.282.24-.639h1.031a1.9 1.9 0 0 1-.381 1.049q-.345.48-.908.779a2.6 2.6 0 0 1-1.236.293q-.715 0-1.248-.252a2.5 2.5 0 0 1-.879-.691 3.1 3.1 0 0 1-.522-1.008 4.3 4.3 0 0 1-.169-1.213v-.246q0-.639.169-1.207.176-.575.522-1.014.351-.44.879-.691.532-.252 1.248-.252.744 0 1.301.305.557.298.873.82.322.516.351 1.172h-1.031a1.6 1.6 0 0 0-.223-.709 1.4 1.4 0 0 0-.515-.504 1.44 1.44 0 0 0-.756-.193q-.498 0-.838.199-.334.194-.533.527a2.4 2.4 0 0 0-.281.733 4 4 0 0 0-.082.814v.246q0 .416.082.82.081.405.275.733.199.328.533.527.34.194.844.194m4.828-8.227v9h-1.084v-9zm-.258 5.59-.451-.018q.006-.65.193-1.201.188-.556.528-.967a2.4 2.4 0 0 1 .808-.633 2.4 2.4 0 0 1 1.049-.228q.47 0 .844.129.375.123.639.398.269.276.41.715.14.434.14 1.061V115h-1.089v-4.166q0-.498-.147-.797a.9.9 0 0 0-.428-.439 1.5 1.5 0 0 0-.691-.141q-.405 0-.738.17a1.75 1.75 0 0 0-.569.469 2.4 2.4 0 0 0-.369.685 2.5 2.5 0 0 0-.129.809m6.961-2.93V115h-1.09v-6.34zm-1.172-1.681q0-.264.158-.446.165-.181.481-.181.31 0 .475.181a.63.63 0 0 1 .169.446.6.6 0 0 1-.169.433q-.165.176-.475.176-.316 0-.481-.176a.64.64 0 0 1-.158-.433m3.996 3.035V115h-1.084v-6.34h1.026zm-.257 1.576-.452-.018q.006-.65.194-1.201.188-.556.527-.967.34-.41.809-.633a2.4 2.4 0 0 1 1.048-.228q.47 0 .844.129.375.123.639.398.27.276.41.715.141.434.141 1.061V115h-1.09v-4.166q0-.498-.147-.797a.9.9 0 0 0-.427-.439 1.5 1.5 0 0 0-.692-.141 1.6 1.6 0 0 0-.738.17 1.75 1.75 0 0 0-.568.469q-.235.298-.37.685a2.5 2.5 0 0 0-.128.809m9.914-2.93h.984v6.205q0 .838-.34 1.43a2.2 2.2 0 0 1-.949.896q-.603.31-1.395.311-.327 0-.773-.106a3.1 3.1 0 0 1-.867-.345 2.16 2.16 0 0 1-.709-.651l.568-.644q.399.48.832.668.44.187.867.187.516 0 .891-.193t.58-.574q.211-.375.211-.926v-4.863zm-4.366 3.24v-.123q0-.726.17-1.318a3.2 3.2 0 0 1 .498-1.025q.329-.428.791-.657a2.3 2.3 0 0 1 1.043-.234q.598 0 1.043.211.452.205.762.603.317.393.498.95.182.557.252 1.259v.539a5.5 5.5 0 0 1-.252 1.254 3 3 0 0 1-.498.95 2.1 2.1 0 0 1-.762.603q-.45.205-1.054.205a2.2 2.2 0 0 1-1.032-.24 2.4 2.4 0 0 1-.785-.674 3.2 3.2 0 0 1-.504-1.019 4.7 4.7 0 0 1-.17-1.284m1.084-.123v.123q0 .476.094.891.1.416.299.732.205.316.521.498.317.176.756.176.54 0 .891-.228.351-.23.557-.604.21-.375.328-.814v-1.412a3 3 0 0 0-.2-.621 1.9 1.9 0 0 0-.339-.539 1.5 1.5 0 0 0-.51-.381 1.7 1.7 0 0 0-.715-.141q-.445 0-.768.188a1.5 1.5 0 0 0-.521.503 2.4 2.4 0 0 0-.299.739 4 4 0 0 0-.094.89m11.543-3.117v.832h-3.427v-.832zm-2.267-1.541h1.084v6.311q0 .323.099.486a.48.48 0 0 0 .258.217q.159.053.34.053.135 0 .281-.024.153-.029.229-.047l.006.885a3 3 0 0 1-.34.076 2.5 2.5 0 0 1-.498.041q-.399 0-.733-.158a1.18 1.18 0 0 1-.533-.527q-.193-.375-.193-1.008zm4.623-1.119v9h-1.084v-9zm-.258 5.59-.451-.018q.006-.65.193-1.201.187-.556.528-.967a2.4 2.4 0 0 1 .808-.633 2.4 2.4 0 0 1 1.049-.228q.469 0 .844.129.375.123.638.398.27.276.411.715.14.434.14 1.061V115h-1.09v-4.166q0-.498-.146-.797a.9.9 0 0 0-.428-.439 1.5 1.5 0 0 0-.691-.141q-.405 0-.739.17a1.8 1.8 0 0 0-.568.469 2.4 2.4 0 0 0-.369.685 2.5 2.5 0 0 0-.129.809m6.961-2.93V115h-1.09v-6.34zm-1.172-1.681q0-.264.158-.446.165-.181.481-.181.31 0 .474.181.17.182.17.446a.6.6 0 0 1-.17.433q-.163.176-.474.176-.316 0-.481-.176a.64.64 0 0 1-.158-.433m6.604 6.339q0-.234-.106-.433-.1-.206-.416-.369-.31-.17-.937-.293a7.5 7.5 0 0 1-.955-.264 3 3 0 0 1-.721-.369 1.54 1.54 0 0 1-.451-.51 1.4 1.4 0 0 1-.159-.685q0-.375.164-.709.17-.334.475-.592.31-.258.744-.405a3 3 0 0 1 .967-.146q.762 0 1.301.269.539.27.826.721.287.445.287.99h-1.084a.93.93 0 0 0-.158-.509 1.17 1.17 0 0 0-.451-.416q-.294-.164-.721-.164-.451 0-.732.14a.94.94 0 0 0-.405.346.87.87 0 0 0-.064.762.7.7 0 0 0 .223.252q.157.11.445.211.287.099.732.199.78.176 1.283.422.504.246.75.603.247.357.247.867 0 .417-.176.762-.171.346-.498.598a2.5 2.5 0 0 1-.774.386 3.5 3.5 0 0 1-1.002.135q-.837 0-1.418-.299-.579-.299-.879-.773a1.85 1.85 0 0 1-.298-1.002h1.089q.024.445.258.709.235.258.574.369.34.106.674.106.445 0 .744-.118.306-.117.463-.322a.75.75 0 0 0 .159-.469m9.48.452V106h1.09v9h-.996zm-4.266-1.87v-.123q0-.726.176-1.318.181-.597.51-1.025.334-.428.791-.657a2.25 2.25 0 0 1 1.031-.234q.598 0 1.043.211.451.205.762.603.317.393.498.95.182.557.252 1.259v.539a5.5 5.5 0 0 1-.252 1.254 3 3 0 0 1-.498.95 2.1 2.1 0 0 1-.762.603 2.5 2.5 0 0 1-1.055.205q-.556 0-1.019-.24a2.4 2.4 0 0 1-.791-.674 3.3 3.3 0 0 1-.51-1.019 4.5 4.5 0 0 1-.176-1.284m1.09-.123v.123q0 .476.094.891.1.416.305.732.204.316.521.498.316.176.756.176.538 0 .885-.228.352-.23.562-.604.211-.375.328-.814v-1.412a3 3 0 0 0-.205-.621 1.9 1.9 0 0 0-.34-.539 1.44 1.44 0 0 0-.509-.381 1.65 1.65 0 0 0-.709-.141q-.445 0-.768.188a1.5 1.5 0 0 0-.521.503 2.3 2.3 0 0 0-.305.739 4 4 0 0 0-.094.89m9.692 2.139v-3.264q0-.374-.153-.65a1 1 0 0 0-.445-.434 1.6 1.6 0 0 0-.738-.152q-.41 0-.721.141a1.24 1.24 0 0 0-.48.369.8.8 0 0 0-.17.492h-1.084q0-.34.175-.674a2 2 0 0 1 .504-.603q.335-.276.797-.434.469-.164 1.043-.164.691 0 1.219.234.533.235.832.709.305.469.305 1.178v2.953q0 .317.052.674.059.357.17.615V115h-1.131a2 2 0 0 1-.128-.498 4 4 0 0 1-.047-.586m.187-2.76.012.762h-1.096q-.463 0-.826.076a1.9 1.9 0 0 0-.609.217 1.04 1.04 0 0 0-.375.369 1 1 0 0 0-.129.51q0 .299.134.545.135.246.405.392.275.141.674.141.498 0 .879-.211.38-.21.603-.516.228-.305.246-.591l.463.521a1.6 1.6 0 0 1-.223.545 2.6 2.6 0 0 1-1.201 1.025 2.3 2.3 0 0 1-.926.176q-.644 0-1.13-.252a1.9 1.9 0 0 1-.75-.674 1.8 1.8 0 0 1-.264-.955q0-.51.199-.896.2-.393.574-.651.375-.263.903-.398.527-.135 1.177-.135zm5.256-2.496v.832h-3.428v-.832zm-2.268-1.541h1.084v6.311q0 .323.1.486a.48.48 0 0 0 .258.217q.158.053.34.053.134 0 .281-.024.153-.029.228-.047l.006.885a3 3 0 0 1-.34.076 2.5 2.5 0 0 1-.498.041q-.397 0-.732-.158a1.17 1.17 0 0 1-.533-.527q-.194-.375-.194-1.008zm7.278 6.797v-3.264q0-.374-.153-.65a1 1 0 0 0-.445-.434 1.6 1.6 0 0 0-.738-.152q-.41 0-.721.141a1.24 1.24 0 0 0-.48.369.8.8 0 0 0-.17.492h-1.084q0-.34.176-.674.176-.335.503-.603.335-.276.797-.434.469-.164 1.043-.164.691 0 1.219.234.534.235.832.709.305.469.305 1.178v2.953q0 .317.053.674.058.357.169.615V115h-1.13a2 2 0 0 1-.129-.498 4 4 0 0 1-.047-.586m.187-2.76.012.762h-1.096q-.462 0-.826.076a1.9 1.9 0 0 0-.609.217 1.04 1.04 0 0 0-.375.369 1 1 0 0 0-.129.51q0 .299.135.545a.97.97 0 0 0 .404.392q.276.141.674.141.498 0 .879-.211.381-.21.603-.516.229-.305.246-.591l.463.521a1.6 1.6 0 0 1-.223.545 2.6 2.6 0 0 1-1.201 1.025 2.3 2.3 0 0 1-.925.176q-.645 0-1.131-.252a1.9 1.9 0 0 1-.75-.674 1.8 1.8 0 0 1-.264-.955q0-.51.199-.896.2-.393.574-.651.375-.263.903-.398.527-.135 1.178-.135zm2.619 3.27q0-.276.17-.463.176-.193.504-.193.329 0 .498.193a.65.65 0 0 1 .176.463.65.65 0 0 1-.176.457q-.17.187-.498.187t-.504-.187a.66.66 0 0 1-.17-.457M4.494 125.654h-2.28v-.92h2.28q.663 0 1.072-.211.41-.21.598-.585.193-.375.193-.856 0-.44-.193-.826a1.43 1.43 0 0 0-.598-.621q-.41-.24-1.072-.24H2.48V129H1.348v-8.531h3.146q.967 0 1.635.334.668.333 1.014.926.345.585.345 1.341 0 .82-.345 1.401-.346.58-1.014.884-.668.3-1.635.299M9.932 120v9h-1.09v-9zm4.37 9.117q-.66 0-1.2-.222a2.7 2.7 0 0 1-.92-.639 2.85 2.85 0 0 1-.586-.973 3.6 3.6 0 0 1-.205-1.23v-.246q0-.774.228-1.377.229-.61.621-1.032.393-.422.89-.638a2.55 2.55 0 0 1 1.032-.217q.68 0 1.172.234.498.235.814.657a2.8 2.8 0 0 1 .47.984q.151.563.152 1.23v.487h-4.735v-.885h3.65v-.082a2.7 2.7 0 0 0-.175-.82 1.5 1.5 0 0 0-.469-.657q-.322-.257-.879-.257a1.47 1.47 0 0 0-1.213.615 2.3 2.3 0 0 0-.345.744 3.8 3.8 0 0 0-.123 1.014v.246q0 .452.123.849.129.393.369.692.246.298.591.468.352.17.797.17.574 0 .973-.234a2.4 2.4 0 0 0 .697-.627l.657.522q-.206.31-.522.591-.315.282-.78.457-.456.177-1.083.176m7.471-1.201v-3.264q0-.374-.152-.65a1 1 0 0 0-.445-.434 1.6 1.6 0 0 0-.738-.152q-.41 0-.721.141a1.24 1.24 0 0 0-.48.369.8.8 0 0 0-.17.492h-1.085q0-.34.176-.674.175-.335.504-.603.334-.276.797-.434a3.2 3.2 0 0 1 1.043-.164q.69 0 1.219.234.533.235.832.709.304.469.304 1.178v2.953q0 .317.053.674.06.357.17.615V129h-1.13a2 2 0 0 1-.13-.498 4 4 0 0 1-.047-.586m.188-2.76.012.762h-1.096q-.463 0-.826.076a1.9 1.9 0 0 0-.61.217q-.246.147-.375.369a1 1 0 0 0-.128.51q0 .299.134.545.135.246.405.392.275.141.673.141.498 0 .88-.211.38-.21.603-.516.228-.305.246-.591l.463.521a1.6 1.6 0 0 1-.223.545 2.6 2.6 0 0 1-1.201 1.025 2.3 2.3 0 0 1-.926.176q-.645 0-1.13-.252a1.93 1.93 0 0 1-.75-.674 1.8 1.8 0 0 1-.264-.955q0-.51.199-.896.2-.393.574-.651.375-.263.902-.398.528-.135 1.178-.135zm6.293 2.162a.9.9 0 0 0-.106-.433q-.1-.206-.416-.369-.311-.17-.937-.293a7.5 7.5 0 0 1-.955-.264 3 3 0 0 1-.72-.369 1.6 1.6 0 0 1-.452-.51 1.4 1.4 0 0 1-.158-.685q0-.375.164-.709a1.9 1.9 0 0 1 .474-.592q.311-.258.745-.405.433-.146.966-.146.762 0 1.301.269.54.27.826.721.287.445.287.99H28.19a.93.93 0 0 0-.158-.509 1.16 1.16 0 0 0-.45-.416q-.294-.164-.722-.164-.45 0-.732.14a.94.94 0 0 0-.404.346.87.87 0 0 0-.065.762.7.7 0 0 0 .223.252q.158.11.445.211.288.099.733.199.78.176 1.283.422.504.246.75.603t.246.867q0 .417-.176.762-.17.346-.498.598a2.5 2.5 0 0 1-.773.386q-.446.135-1.002.135-.839 0-1.418-.299-.58-.299-.88-.773-.297-.474-.298-1.002h1.09q.022.445.258.709.234.258.574.369.34.106.674.106.446 0 .744-.118.304-.117.463-.322a.75.75 0 0 0 .158-.469m5.139 1.799q-.663 0-1.202-.222a2.7 2.7 0 0 1-.92-.639 2.85 2.85 0 0 1-.585-.973 3.6 3.6 0 0 1-.206-1.23v-.246q0-.774.229-1.377.229-.61.621-1.032.393-.422.89-.638a2.55 2.55 0 0 1 1.032-.217q.68 0 1.172.234.498.235.814.657a2.8 2.8 0 0 1 .469.984q.152.563.152 1.23v.487h-4.734v-.885h3.65v-.082a2.7 2.7 0 0 0-.175-.82 1.5 1.5 0 0 0-.47-.657q-.321-.257-.878-.257a1.47 1.47 0 0 0-1.213.615 2.3 2.3 0 0 0-.346.744 3.8 3.8 0 0 0-.123 1.014v.246q0 .452.123.849.13.393.37.692.245.298.591.468.352.17.797.17.574 0 .973-.234a2.4 2.4 0 0 0 .697-.627l.656.522q-.204.31-.521.591-.316.282-.78.457-.457.177-1.083.176m7.792-5.461V129h-1.083v-6.34h1.054zm1.981-1.031-.006 1.008a1.5 1.5 0 0 0-.258-.035 3 3 0 0 0-.27-.012q-.375 0-.661.117a1.4 1.4 0 0 0-.487.328 1.6 1.6 0 0 0-.316.504 2.4 2.4 0 0 0-.146.633l-.305.176q0-.574.111-1.078.117-.504.357-.891.24-.393.61-.609a1.7 1.7 0 0 1 1.16-.194.8.8 0 0 1 .211.053m3.516 6.492q-.663 0-1.202-.222a2.7 2.7 0 0 1-.92-.639 2.85 2.85 0 0 1-.585-.973 3.6 3.6 0 0 1-.206-1.23v-.246q0-.774.229-1.377.229-.61.621-1.032.393-.422.89-.638a2.55 2.55 0 0 1 1.032-.217q.68 0 1.172.234.498.235.814.657a2.8 2.8 0 0 1 .47.984q.15.563.151 1.23v.487h-4.734v-.885h3.65v-.082a2.7 2.7 0 0 0-.175-.82 1.5 1.5 0 0 0-.47-.657q-.321-.257-.878-.257a1.47 1.47 0 0 0-1.213.615 2.3 2.3 0 0 0-.346.744 3.8 3.8 0 0 0-.123 1.014v.246q0 .452.123.849.13.393.37.692.245.298.591.468.352.17.797.17.574 0 .973-.234.398-.234.697-.627l.656.522q-.204.31-.521.591-.316.282-.78.457-.456.177-1.083.176m5.35-.117h-1.085v-7.008q0-.686.246-1.154a1.65 1.65 0 0 1 .721-.715q.47-.246 1.113-.246a3.2 3.2 0 0 1 .75.094l-.058.884a2 2 0 0 0-.282-.041 4 4 0 0 0-.304-.011q-.346 0-.598.14a.9.9 0 0 0-.375.399 1.5 1.5 0 0 0-.129.65zm1.347-6.34v.832h-3.434v-.832zm2.29.996V129h-1.083v-6.34h1.055zm1.981-1.031-.005 1.008a1.5 1.5 0 0 0-.258-.035 3 3 0 0 0-.27-.012q-.374 0-.662.117a1.4 1.4 0 0 0-.486.328 1.6 1.6 0 0 0-.317.504 2.4 2.4 0 0 0-.146.633l-.305.176q0-.574.111-1.078.118-.504.358-.891.24-.393.61-.609a1.7 1.7 0 0 1 1.16-.194.8.8 0 0 1 .21.053m3.516 6.492q-.662 0-1.201-.222a2.7 2.7 0 0 1-.92-.639 2.85 2.85 0 0 1-.586-.973 3.6 3.6 0 0 1-.205-1.23v-.246q0-.774.228-1.377.23-.61.621-1.032.394-.422.891-.638a2.55 2.55 0 0 1 1.031-.217q.68 0 1.172.234.498.235.815.657a2.8 2.8 0 0 1 .468.984q.153.563.153 1.23v.487h-4.735v-.885h3.65v-.082a2.7 2.7 0 0 0-.175-.82 1.5 1.5 0 0 0-.469-.657q-.323-.257-.879-.257a1.47 1.47 0 0 0-1.212.615 2.3 2.3 0 0 0-.346.744 3.8 3.8 0 0 0-.123 1.014v.246q0 .452.123.849.129.393.369.692.246.298.592.468.351.17.797.17.574 0 .972-.234a2.4 2.4 0 0 0 .697-.627l.657.522q-.205.31-.522.591-.315.282-.779.457-.457.177-1.084.176m7.424-1.799q0-.234-.106-.433-.1-.206-.416-.369-.311-.17-.937-.293a7.5 7.5 0 0 1-.955-.264 3 3 0 0 1-.72-.369 1.6 1.6 0 0 1-.452-.51 1.4 1.4 0 0 1-.158-.685q0-.375.164-.709.17-.334.474-.592.311-.258.745-.405.433-.146.966-.146.762 0 1.301.269.54.27.826.721.287.445.287.99h-1.084a.93.93 0 0 0-.158-.509 1.17 1.17 0 0 0-.451-.416q-.292-.164-.72-.164-.453 0-.733.14a.94.94 0 0 0-.404.346.87.87 0 0 0-.065.762.7.7 0 0 0 .223.252q.158.11.445.211.287.099.732.199.78.176 1.284.422t.75.603.246.867q0 .417-.176.762-.17.346-.498.598a2.5 2.5 0 0 1-.773.386 3.5 3.5 0 0 1-1.002.135q-.839 0-1.418-.299-.58-.299-.88-.773-.298-.474-.298-1.002h1.09q.022.445.258.709.234.258.574.369.34.106.674.106.445 0 .744-.118.304-.117.463-.322a.75.75 0 0 0 .158-.469M72.182 120v9h-1.084v-9zm-.258 5.59-.451-.018q.006-.65.193-1.201.187-.556.527-.967t.809-.633a2.4 2.4 0 0 1 1.049-.228q.468 0 .843.129.375.123.64.398.269.276.41.715.14.434.14 1.061V129h-1.09v-4.166q0-.498-.146-.797a.9.9 0 0 0-.428-.439 1.5 1.5 0 0 0-.692-.141q-.404 0-.738.17a1.75 1.75 0 0 0-.568.469 2.4 2.4 0 0 0-.37.685 2.5 2.5 0 0 0-.128.809m11.414-2.93v.832H79.91v-.832zm-2.268-1.541h1.084v6.311q0 .323.1.486a.48.48 0 0 0 .258.217q.158.053.34.053.135 0 .28-.024.153-.029.23-.047l.005.885q-.129.041-.34.076a2.5 2.5 0 0 1-.498.041q-.398 0-.732-.158a1.18 1.18 0 0 1-.533-.527q-.195-.375-.194-1.008zM85.693 120v9H84.61v-9zm-.257 5.59-.452-.018q.006-.65.194-1.201.187-.556.527-.967t.809-.633a2.4 2.4 0 0 1 1.049-.228q.468 0 .843.129.375.123.639.398.27.276.41.715.14.434.14 1.061V129h-1.09v-4.166q0-.498-.146-.797a.9.9 0 0 0-.427-.439 1.5 1.5 0 0 0-.692-.141q-.404 0-.738.17a1.75 1.75 0 0 0-.568.469q-.235.298-.37.685a2.5 2.5 0 0 0-.128.809m8.414 3.527q-.663 0-1.202-.222a2.7 2.7 0 0 1-.92-.639 2.85 2.85 0 0 1-.585-.973 3.6 3.6 0 0 1-.206-1.23v-.246q0-.774.229-1.377.229-.61.621-1.032.393-.422.89-.638a2.55 2.55 0 0 1 1.032-.217q.68 0 1.172.234.498.235.814.657.317.416.47.984.15.563.151 1.23v.487h-4.734v-.885h3.65v-.082a2.7 2.7 0 0 0-.175-.82 1.5 1.5 0 0 0-.47-.657q-.321-.257-.878-.257a1.47 1.47 0 0 0-1.213.615 2.3 2.3 0 0 0-.346.744 3.8 3.8 0 0 0-.123 1.014v.246q0 .452.123.849.13.393.37.692.245.298.591.468.352.17.797.17.574 0 .973-.234a2.4 2.4 0 0 0 .697-.627l.656.522q-.204.31-.521.591-.316.282-.78.457-.456.177-1.083.176m7.793-5.238v7.559h-1.09v-8.778h.996zm4.271 1.898v.123q0 .691-.164 1.284-.164.585-.48 1.019a2.2 2.2 0 0 1-.768.674q-.457.24-1.049.24a2.7 2.7 0 0 1-1.066-.199 2.1 2.1 0 0 1-.785-.58 3 3 0 0 1-.516-.914 5.3 5.3 0 0 1-.258-1.201v-.657q.07-.702.264-1.259t.51-.95a2.1 2.1 0 0 1 .779-.603 2.5 2.5 0 0 1 1.055-.211q.597 0 1.06.234.463.229.779.657.317.428.475 1.025.164.592.164 1.318m-1.09.123v-.123q0-.474-.099-.89a2.3 2.3 0 0 0-.311-.739 1.5 1.5 0 0 0-.527-.503 1.5 1.5 0 0 0-.768-.188 1.7 1.7 0 0 0-.715.141q-.299.14-.509.381a2 2 0 0 0-.346.539 3 3 0 0 0-.194.621v1.517q.118.411.329.774.21.357.562.58.351.217.885.217.44 0 .756-.182a1.5 1.5 0 0 0 .527-.51q.211-.323.311-.738.099-.421.099-.897m6.211 2.016v-3.264q0-.374-.152-.65a1 1 0 0 0-.445-.434 1.6 1.6 0 0 0-.739-.152q-.41 0-.72.141a1.24 1.24 0 0 0-.481.369.8.8 0 0 0-.17.492h-1.084q0-.34.176-.674.175-.335.504-.603.333-.276.797-.434.468-.164 1.043-.164.692 0 1.218.234.534.235.832.709.305.469.305 1.178v2.953q0 .317.053.674.059.357.17.615V129h-1.131a2 2 0 0 1-.129-.498 4 4 0 0 1-.047-.586m.188-2.76.011.762h-1.095q-.463 0-.827.076a1.9 1.9 0 0 0-.609.217 1.04 1.04 0 0 0-.375.369 1 1 0 0 0-.129.51q0 .299.135.545a1 1 0 0 0 .404.392q.275.141.674.141.498 0 .879-.211.38-.21.604-.516.228-.305.246-.591l.463.521a1.6 1.6 0 0 1-.223.545 2.63 2.63 0 0 1-1.201 1.025 2.3 2.3 0 0 1-.926.176q-.645 0-1.131-.252a1.93 1.93 0 0 1-.75-.674 1.8 1.8 0 0 1-.264-.955q0-.51.2-.896.198-.393.574-.651a2.8 2.8 0 0 1 .902-.398q.528-.135 1.178-.135zm6.709-2.496h.984v6.205q0 .838-.34 1.43a2.2 2.2 0 0 1-.949.896q-.603.31-1.395.311-.327 0-.773-.106a3.1 3.1 0 0 1-.867-.345 2.16 2.16 0 0 1-.709-.651l.568-.644q.399.48.832.668.44.187.867.187.516 0 .891-.193t.58-.574q.211-.375.211-.926v-4.863zm-4.366 3.24v-.123q0-.726.17-1.318a3.2 3.2 0 0 1 .498-1.025q.329-.428.791-.657a2.3 2.3 0 0 1 1.043-.234q.598 0 1.043.211.452.205.762.603.317.393.498.95t.252 1.259v.539a5.5 5.5 0 0 1-.252 1.254 3 3 0 0 1-.498.95 2.1 2.1 0 0 1-.762.603q-.45.205-1.054.205a2.2 2.2 0 0 1-1.032-.24 2.4 2.4 0 0 1-.785-.674 3.2 3.2 0 0 1-.504-1.019 4.7 4.7 0 0 1-.17-1.284m1.084-.123v.123q0 .476.094.891.1.416.299.732.206.317.521.498.316.176.756.176.54 0 .891-.228.351-.23.557-.604.21-.375.328-.814v-1.412a3 3 0 0 0-.2-.621 1.9 1.9 0 0 0-.339-.539 1.5 1.5 0 0 0-.51-.381 1.7 1.7 0 0 0-.715-.141q-.445 0-.768.188-.315.182-.521.503a2.4 2.4 0 0 0-.299.739 4 4 0 0 0-.094.89m8.543 3.34a3.1 3.1 0 0 1-1.201-.222 2.75 2.75 0 0 1-.92-.639 2.85 2.85 0 0 1-.586-.973 3.6 3.6 0 0 1-.205-1.23v-.246q0-.774.229-1.377.228-.61.621-1.032.392-.422.89-.638a2.6 2.6 0 0 1 1.032-.217q.679 0 1.172.234.498.235.814.657.316.416.469.984.152.563.152 1.23v.487h-4.734v-.885h3.65v-.082a2.7 2.7 0 0 0-.176-.82 1.5 1.5 0 0 0-.468-.657q-.322-.257-.879-.257a1.47 1.47 0 0 0-1.213.615 2.3 2.3 0 0 0-.346.744 3.8 3.8 0 0 0-.123 1.014v.246q0 .452.123.849.129.393.369.692.246.298.592.468.351.17.797.17.574 0 .973-.234.398-.234.697-.627l.656.522a3 3 0 0 1-.521.591q-.317.282-.78.457-.456.177-1.084.176m6.422-3.217v-.134q0-.686.199-1.272.2-.591.575-1.025.374-.44.908-.68a2.8 2.8 0 0 1 1.195-.246q.669 0 1.201.246.54.24.914.68.381.434.581 1.025.199.587.199 1.272v.134q0 .685-.199 1.272a3 3 0 0 1-.581 1.025q-.374.434-.908.68-.527.24-1.195.24t-1.201-.24a2.7 2.7 0 0 1-.914-.68 3.1 3.1 0 0 1-.575-1.025 4 4 0 0 1-.199-1.272m1.084-.134v.134q0 .475.112.897.11.415.334.738.228.323.568.51.34.182.791.182.446 0 .779-.182.34-.187.563-.51t.334-.738a3.3 3.3 0 0 0 .117-.897v-.134q0-.47-.117-.885a2.3 2.3 0 0 0-.34-.744 1.6 1.6 0 0 0-.563-.516 1.6 1.6 0 0 0-.785-.187q-.445 0-.785.187-.334.188-.562.516-.223.322-.334.744a3.4 3.4 0 0 0-.112.885m7.131-2.11V129h-1.084v-6.34h1.055zm1.981-1.031-.006 1.008a1.5 1.5 0 0 0-.258-.035 3 3 0 0 0-.27-.012q-.375 0-.662.117a1.4 1.4 0 0 0-.486.328 1.6 1.6 0 0 0-.317.504 2.4 2.4 0 0 0-.146.633l-.305.176q0-.574.112-1.078.117-.504.357-.891a1.74 1.74 0 0 1 .609-.609 1.7 1.7 0 0 1 1.161-.194.8.8 0 0 1 .211.053m6.632.035v.832h-3.427v-.832zm-2.267-1.541h1.084v6.311q0 .323.099.486a.48.48 0 0 0 .258.217q.159.053.34.053.135 0 .281-.024.153-.029.229-.047l.006.885a3 3 0 0 1-.34.076 2.5 2.5 0 0 1-.498.041q-.399 0-.733-.158a1.18 1.18 0 0 1-.533-.527q-.193-.375-.193-1.008zm4.623 2.537V129h-1.084v-6.34h1.055zm1.98-1.031-.006 1.008a1.5 1.5 0 0 0-.257-.035 3 3 0 0 0-.27-.012q-.375 0-.662.117a1.4 1.4 0 0 0-.486.328 1.6 1.6 0 0 0-.317.504 2.4 2.4 0 0 0-.146.633l-.305.176q0-.574.111-1.078.118-.504.358-.891a1.74 1.74 0 0 1 .609-.609 1.7 1.7 0 0 1 1.16-.194.8.8 0 0 1 .211.053m2.889 5.719 1.764-5.684h1.16l-2.543 7.319a4 4 0 0 1-.235.503 2.4 2.4 0 0 1-.363.522 1.7 1.7 0 0 1-.539.398 1.6 1.6 0 0 1-.744.159q-.129 0-.328-.036a3 3 0 0 1-.281-.058l-.006-.879q.047.006.146.012.106.01.147.011.369 0 .627-.099a.95.95 0 0 0 .433-.323q.182-.222.311-.615zm-1.295-5.684 1.647 4.922.281 1.143-.78.398-2.332-6.463zm11.912 5.256v-3.264q0-.374-.152-.65a1 1 0 0 0-.445-.434 1.6 1.6 0 0 0-.739-.152q-.41 0-.72.141a1.24 1.24 0 0 0-.481.369.8.8 0 0 0-.17.492h-1.084q0-.34.176-.674.175-.335.504-.603.333-.276.797-.434.468-.164 1.043-.164.692 0 1.218.234.534.235.832.709.305.469.305 1.178v2.953q0 .317.053.674.059.357.17.615V129h-1.131a2 2 0 0 1-.129-.498 4 4 0 0 1-.047-.586m.188-2.76.011.762h-1.095q-.463 0-.827.076a1.9 1.9 0 0 0-.609.217 1.04 1.04 0 0 0-.375.369 1 1 0 0 0-.129.51q0 .299.135.545a1 1 0 0 0 .404.392q.275.141.674.141.498 0 .879-.211.38-.21.604-.516.228-.305.246-.591l.463.521a1.6 1.6 0 0 1-.223.545 2.63 2.63 0 0 1-1.201 1.025 2.3 2.3 0 0 1-.926.176q-.645 0-1.131-.252a1.93 1.93 0 0 1-.75-.674 1.8 1.8 0 0 1-.264-.955q0-.51.2-.896.198-.393.574-.651a2.8 2.8 0 0 1 .902-.398q.528-.135 1.178-.135zm6.709-2.496h.984v6.205q0 .838-.34 1.43a2.2 2.2 0 0 1-.949.896q-.603.31-1.395.311-.327 0-.773-.106a3.1 3.1 0 0 1-.867-.345 2.16 2.16 0 0 1-.709-.651l.568-.644q.399.48.832.668.44.187.867.187.516 0 .891-.193t.58-.574q.211-.375.211-.926v-4.863zm-4.366 3.24v-.123q0-.726.17-1.318a3.2 3.2 0 0 1 .498-1.025q.329-.428.791-.657a2.3 2.3 0 0 1 1.043-.234q.598 0 1.043.211.452.205.762.603.317.393.498.95.182.557.252 1.259v.539a5.5 5.5 0 0 1-.252 1.254 3 3 0 0 1-.498.95 2.1 2.1 0 0 1-.762.603q-.45.205-1.054.205a2.2 2.2 0 0 1-1.032-.24 2.4 2.4 0 0 1-.785-.674 3.2 3.2 0 0 1-.504-1.019 4.7 4.7 0 0 1-.17-1.284m1.084-.123v.123q0 .476.094.891.1.416.299.732.206.317.521.498.317.176.756.176.54 0 .891-.228.351-.23.557-.604.21-.375.328-.814v-1.412a3 3 0 0 0-.2-.621 1.9 1.9 0 0 0-.339-.539 1.5 1.5 0 0 0-.51-.381 1.7 1.7 0 0 0-.715-.141q-.445 0-.768.188-.315.182-.521.503a2.4 2.4 0 0 0-.299.739 4 4 0 0 0-.094.89m9.651 2.139v-3.264q0-.374-.153-.65a1 1 0 0 0-.445-.434 1.6 1.6 0 0 0-.738-.152q-.41 0-.721.141a1.24 1.24 0 0 0-.48.369.8.8 0 0 0-.17.492h-1.084q0-.34.176-.674.176-.335.503-.603.335-.276.797-.434.469-.164 1.043-.164.691 0 1.219.234.534.235.832.709.305.469.305 1.178v2.953q0 .317.053.674.058.357.169.615V129h-1.13a2 2 0 0 1-.129-.498 4 4 0 0 1-.047-.586m.187-2.76.012.762h-1.096q-.462 0-.826.076a1.9 1.9 0 0 0-.609.217 1.04 1.04 0 0 0-.375.369 1 1 0 0 0-.129.51q0 .299.135.545a.97.97 0 0 0 .404.392q.275.141.674.141.498 0 .879-.211.381-.21.603-.516.229-.305.246-.591l.463.521a1.6 1.6 0 0 1-.223.545 2.6 2.6 0 0 1-1.201 1.025 2.3 2.3 0 0 1-.925.176q-.645 0-1.131-.252a1.9 1.9 0 0 1-.75-.674 1.8 1.8 0 0 1-.264-.955q0-.51.199-.896.2-.393.574-.651.375-.263.903-.398.527-.135 1.178-.135zm3.78-2.496V129h-1.09v-6.34zm-1.172-1.681q0-.264.158-.446.163-.181.48-.181.311 0 .475.181a.63.63 0 0 1 .17.446.6.6 0 0 1-.17.433q-.164.176-.475.176-.317 0-.48-.176a.64.64 0 0 1-.158-.433m3.996 3.035V129h-1.084v-6.34h1.025zm-.258 1.576-.451-.018q.006-.65.193-1.201.187-.556.528-.967a2.4 2.4 0 0 1 .808-.633 2.4 2.4 0 0 1 1.049-.228q.469 0 .844.129.375.123.638.398.27.276.411.715.14.434.14 1.061V129h-1.09v-4.166q0-.498-.146-.797a.9.9 0 0 0-.428-.439 1.5 1.5 0 0 0-.691-.141q-.405 0-.739.17a1.8 1.8 0 0 0-.568.469 2.4 2.4 0 0 0-.369.685 2.5 2.5 0 0 0-.129.809m9.961-2.93V129h-1.09v-6.34zm-1.172-1.681q0-.264.158-.446.165-.181.481-.181.31 0 .474.181.17.182.17.446a.6.6 0 0 1-.17.433q-.163.176-.474.176-.316 0-.481-.176a.64.64 0 0 1-.158-.433m3.996 3.035V129h-1.084v-6.34h1.026zm-.258 1.576-.451-.018q.006-.65.194-1.201.187-.556.527-.967a2.4 2.4 0 0 1 .808-.633 2.4 2.4 0 0 1 1.049-.228q.47 0 .844.129.375.123.639.398.269.276.41.715.14.434.14 1.061V129h-1.089v-4.166q0-.498-.147-.797a.9.9 0 0 0-.428-.439 1.5 1.5 0 0 0-.691-.141q-.405 0-.738.17a1.8 1.8 0 0 0-.569.469 2.4 2.4 0 0 0-.369.685 2.5 2.5 0 0 0-.129.809m12.522 2.326v-3.264q0-.374-.153-.65a1 1 0 0 0-.445-.434 1.6 1.6 0 0 0-.738-.152q-.41 0-.721.141a1.24 1.24 0 0 0-.48.369.8.8 0 0 0-.17.492h-1.084q0-.34.176-.674.176-.335.503-.603.335-.276.797-.434a3.2 3.2 0 0 1 1.043-.164q.692 0 1.219.234.534.235.832.709.305.469.305 1.178v2.953q0 .317.053.674.058.357.169.615V129h-1.13a2 2 0 0 1-.129-.498 4 4 0 0 1-.047-.586m.187-2.76.012.762h-1.096q-.463 0-.826.076a1.9 1.9 0 0 0-.609.217 1.04 1.04 0 0 0-.375.369 1 1 0 0 0-.129.51q0 .299.135.545a.97.97 0 0 0 .404.392q.275.141.674.141.498 0 .879-.211.381-.21.603-.516.23-.305.246-.591l.463.521a1.6 1.6 0 0 1-.222.545 2.63 2.63 0 0 1-1.202 1.025 2.3 2.3 0 0 1-.925.176q-.645 0-1.131-.252a1.9 1.9 0 0 1-.75-.674 1.8 1.8 0 0 1-.264-.955q0-.51.199-.896.2-.393.574-.651.375-.263.903-.398.527-.135 1.178-.135zm7.196 3.844h-1.084v-7.008q0-.686.246-1.154.252-.475.72-.715.47-.246 1.114-.246a3.2 3.2 0 0 1 .75.094l-.059.884a2 2 0 0 0-.281-.041 4 4 0 0 0-.305-.011q-.345 0-.597.14a.88.88 0 0 0-.375.399 1.5 1.5 0 0 0-.129.65zm1.347-6.34v.832h-3.433v-.832zm3.698 6.457q-.663 0-1.202-.222a2.75 2.75 0 0 1-.92-.639 2.85 2.85 0 0 1-.585-.973 3.6 3.6 0 0 1-.206-1.23v-.246q0-.774.229-1.377.228-.61.621-1.032a2.7 2.7 0 0 1 .891-.638 2.55 2.55 0 0 1 1.031-.217q.68 0 1.172.234.498.235.814.657.316.416.469.984.152.563.152 1.23v.487h-4.734v-.885h3.65v-.082a2.7 2.7 0 0 0-.175-.82 1.5 1.5 0 0 0-.469-.657q-.323-.257-.879-.257a1.47 1.47 0 0 0-1.213.615 2.3 2.3 0 0 0-.346.744 3.8 3.8 0 0 0-.123 1.014v.246q0 .452.123.849.129.393.369.692.247.298.592.468.352.17.797.17.574 0 .973-.234.398-.234.697-.627l.656.522q-.204.31-.521.591-.317.282-.779.457-.457.177-1.084.176m5.337-1.242 1.629-5.215h.715l-.14 1.037-1.659 5.303h-.697zm-1.095-5.215 1.388 5.274.1 1.066h-.732l-1.84-6.34zm4.998 5.233 1.324-5.233h1.078l-1.84 6.34h-.726zm-1.401-5.233 1.594 5.127.182 1.213h-.692l-1.705-5.314-.14-1.026zm8.971 1.26V129h-1.09v-6.34h1.031zm-.223 1.67-.503-.018q.005-.65.169-1.201.165-.556.487-.967t.803-.633q.48-.228 1.113-.228.445 0 .82.129.375.123.651.392.275.27.427.692.153.422.153 1.019V129h-1.084v-4.172q0-.498-.17-.797a.98.98 0 0 0-.469-.433 1.7 1.7 0 0 0-.715-.141q-.48 0-.803.17a1.35 1.35 0 0 0-.515.469 2.1 2.1 0 0 0-.282.685 4 4 0 0 0-.082.809m4.108-.598-.727.223q.006-.522.17-1.002.17-.48.487-.856a2.3 2.3 0 0 1 .791-.591 2.46 2.46 0 0 1 1.072-.223q.51 0 .902.135.398.134.668.416.275.275.416.709t.141 1.031V129h-1.09v-4.178q0-.533-.17-.826a.9.9 0 0 0-.469-.416 1.9 1.9 0 0 0-.715-.123q-.357 0-.632.123a1.3 1.3 0 0 0-.463.34 1.5 1.5 0 0 0-.287.486 1.8 1.8 0 0 0-.094.586m5.273.908v-.134q0-.686.2-1.272a3 3 0 0 1 .574-1.025q.374-.44.908-.68a2.8 2.8 0 0 1 1.195-.246q.669 0 1.201.246.54.24.914.68.381.434.581 1.025.198.587.199 1.272v.134q0 .685-.199 1.272a3 3 0 0 1-.581 1.025q-.374.434-.908.68-.527.24-1.195.24t-1.201-.24a2.7 2.7 0 0 1-.914-.68 3.1 3.1 0 0 1-.574-1.025 4 4 0 0 1-.2-1.272m1.084-.134v.134q0 .475.112.897.11.415.334.738.228.323.568.51.34.182.791.182.446 0 .779-.182.34-.187.563-.51t.334-.738a3.3 3.3 0 0 0 .117-.897v-.134q0-.47-.117-.885a2.3 2.3 0 0 0-.34-.744 1.6 1.6 0 0 0-.563-.516 1.6 1.6 0 0 0-.785-.187q-.445 0-.785.187-.334.188-.562.516-.223.322-.334.744a3.4 3.4 0 0 0-.112.885m7.125-1.846V129h-1.09v-6.34h1.032zm-.222 1.67-.504-.018q.005-.65.17-1.201.163-.556.486-.967t.803-.633q.48-.228 1.113-.228.445 0 .82.129.375.123.651.392.275.27.427.692.153.422.153 1.019V129h-1.084v-4.172q0-.498-.17-.797a.98.98 0 0 0-.469-.433 1.7 1.7 0 0 0-.715-.141q-.48 0-.802.17a1.35 1.35 0 0 0-.516.469 2.1 2.1 0 0 0-.281.685 4 4 0 0 0-.082.809m4.107-.598-.727.223q.006-.522.17-1.002a2.7 2.7 0 0 1 .487-.856 2.3 2.3 0 0 1 .791-.591 2.46 2.46 0 0 1 1.072-.223q.51 0 .902.135.4.134.668.416.276.275.416.709.141.434.141 1.031V129h-1.09v-4.178q0-.533-.17-.826a.88.88 0 0 0-.469-.416 1.9 1.9 0 0 0-.714-.123q-.359 0-.633.123a1.3 1.3 0 0 0-.463.34 1.5 1.5 0 0 0-.287.486 1.8 1.8 0 0 0-.094.586m8.191 4.125a3.1 3.1 0 0 1-1.201-.222 2.75 2.75 0 0 1-.92-.639 2.85 2.85 0 0 1-.586-.973 3.6 3.6 0 0 1-.205-1.23v-.246q0-.774.229-1.377.228-.61.621-1.032a2.7 2.7 0 0 1 .891-.638 2.55 2.55 0 0 1 1.031-.217q.68 0 1.172.234.498.235.814.657.316.416.469.984.152.563.152 1.23v.487h-4.734v-.885h3.65v-.082a2.7 2.7 0 0 0-.176-.82 1.47 1.47 0 0 0-.468-.657q-.322-.257-.879-.257a1.47 1.47 0 0 0-1.213.615 2.3 2.3 0 0 0-.346.744 3.8 3.8 0 0 0-.123 1.014v.246q0 .452.123.849.129.393.369.692.247.298.592.468.352.17.797.17.574 0 .973-.234.398-.234.697-.627l.656.522a3 3 0 0 1-.521.591q-.317.282-.78.457-.457.177-1.084.176m4.817-5.103V129h-1.084v-6.34h1.025zm-.258 1.576-.451-.018q.006-.65.193-1.201.188-.556.528-.967a2.4 2.4 0 0 1 .808-.633 2.4 2.4 0 0 1 1.049-.228q.468 0 .844.129.375.123.638.398.27.276.411.715.14.434.14 1.061V129h-1.09v-4.166q0-.498-.146-.797a.9.9 0 0 0-.428-.439 1.5 1.5 0 0 0-.691-.141q-.405 0-.739.17a1.8 1.8 0 0 0-.568.469 2.4 2.4 0 0 0-.369.685 2.5 2.5 0 0 0-.129.809m8.461-2.93v.832h-3.428v-.832zm-2.268-1.541h1.084v6.311q0 .323.1.486a.48.48 0 0 0 .258.217q.158.053.34.053.134 0 .281-.024.152-.029.228-.047l.006.885a3 3 0 0 1-.34.076 2.5 2.5 0 0 1-.498.041q-.398 0-.732-.158a1.17 1.17 0 0 1-.533-.527q-.194-.375-.194-1.008zm7.231 6.199q0-.234-.106-.433-.1-.206-.416-.369-.31-.17-.937-.293a7.5 7.5 0 0 1-.955-.264 3 3 0 0 1-.721-.369 1.6 1.6 0 0 1-.451-.51 1.4 1.4 0 0 1-.158-.685q0-.375.164-.709.17-.334.474-.592.31-.258.745-.405.433-.146.966-.146.762 0 1.301.269.539.27.826.721.287.445.287.99h-1.084a.93.93 0 0 0-.158-.509 1.16 1.16 0 0 0-.451-.416q-.292-.164-.721-.164-.45 0-.732.14a.94.94 0 0 0-.404.346.87.87 0 0 0-.065.762.7.7 0 0 0 .223.252q.158.11.445.211.288.099.733.199.779.176 1.283.422t.75.603.246.867q0 .417-.176.762a1.7 1.7 0 0 1-.498.598 2.5 2.5 0 0 1-.773.386 3.5 3.5 0 0 1-1.002.135q-.839 0-1.418-.299-.58-.299-.879-.773a1.85 1.85 0 0 1-.299-1.002h1.09q.022.445.258.709.234.258.574.369.34.106.674.106.446 0 .744-.118.304-.117.463-.322a.75.75 0 0 0 .158-.469m2.525 1.108q0-.276.17-.463.175-.193.504-.193.328 0 .498.193a.65.65 0 0 1 .176.463.65.65 0 0 1-.176.457q-.17.187-.498.187t-.504-.187a.66.66 0 0 1-.17-.457" opacity=".8"/></svg>