<svg width="23" height="23" viewBox="0 0 23 23" fill="none" xmlns="http://www.w3.org/2000/svg">
<path d="M11.5013 19.166H4.79297C4.5388 19.166 4.29505 19.0651 4.11532 18.8853C3.9356 18.7056 3.83464 18.4618 3.83464 18.2077V4.79102C3.83464 4.53685 3.9356 4.29309 4.11532 4.11337C4.29505 3.93365 4.5388 3.83268 4.79297 3.83268H9.58464V6.70768C9.58464 7.47018 9.88754 8.20145 10.4267 8.74061C10.9659 9.27978 11.6971 9.58268 12.4596 9.58268H15.3346V10.541C15.3346 10.7952 15.4356 11.0389 15.6153 11.2187C15.795 11.3984 16.0388 11.4993 16.293 11.4993C16.5471 11.4993 16.7909 11.3984 16.9706 11.2187C17.1503 11.0389 17.2513 10.7952 17.2513 10.541V8.62435C17.2513 8.62435 17.2513 8.62435 17.2513 8.56685C17.2413 8.47881 17.222 8.39208 17.1938 8.3081V8.22185C17.1477 8.12331 17.0863 8.03274 17.0117 7.95352L11.2617 2.20352C11.1825 2.12897 11.0919 2.06751 10.9934 2.02143C10.9648 2.01737 10.9357 2.01737 10.9071 2.02143C10.8098 1.9656 10.7023 1.92976 10.5909 1.91602H4.79297C4.03047 1.91602 3.2992 2.21892 2.76004 2.75808C2.22087 3.29725 1.91797 4.02852 1.91797 4.79102V18.2077C1.91797 18.9702 2.22087 19.7014 2.76004 20.2406C3.2992 20.7798 4.03047 21.0827 4.79297 21.0827H11.5013C11.7555 21.0827 11.9992 20.9817 12.1789 20.802C12.3587 20.6223 12.4596 20.3785 12.4596 20.1243C12.4596 19.8702 12.3587 19.6264 12.1789 19.4467C11.9992 19.267 11.7555 19.166 11.5013 19.166ZM11.5013 5.18393L13.9834 7.66602H12.4596C12.2055 7.66602 11.9617 7.56505 11.782 7.38533C11.6023 7.2056 11.5013 6.96185 11.5013 6.70768V5.18393ZM6.70964 7.66602C6.45547 7.66602 6.21171 7.76698 6.03199 7.94671C5.85227 8.12643 5.7513 8.37018 5.7513 8.62435C5.7513 8.87852 5.85227 9.12227 6.03199 9.30199C6.21171 9.48172 6.45547 9.58268 6.70964 9.58268H7.66797C7.92213 9.58268 8.16589 9.48172 8.34561 9.30199C8.52534 9.12227 8.6263 8.87852 8.6263 8.62435C8.6263 8.37018 8.52534 8.12643 8.34561 7.94671C8.16589 7.76698 7.92213 7.66602 7.66797 7.66602H6.70964ZM20.8067 19.4439L19.6855 18.3323C20.0438 17.7067 20.1873 16.9809 20.0938 16.2661C20.0004 15.5512 19.6751 14.8867 19.168 14.3743C18.7013 13.891 18.0999 13.5595 17.442 13.4229C16.7842 13.2862 16.1005 13.3509 15.48 13.6084C14.8594 13.866 14.3308 14.3044 13.963 14.8666C13.5952 15.4289 13.4053 16.0889 13.418 16.7606C13.4147 17.3387 13.5626 17.9075 13.8469 18.4108C14.1313 18.9141 14.5423 19.3342 15.0392 19.6297C15.5361 19.9251 16.1016 20.0855 16.6796 20.0949C17.2575 20.1044 17.828 19.9625 18.3342 19.6835L19.4459 20.8048C19.535 20.8946 19.641 20.9659 19.7577 21.0145C19.8745 21.0632 19.9998 21.0882 20.1263 21.0882C20.2528 21.0882 20.3781 21.0632 20.4949 21.0145C20.6116 20.9659 20.7176 20.8946 20.8067 20.8048C20.8965 20.7157 20.9678 20.6097 21.0165 20.4929C21.0651 20.3761 21.0902 20.2509 21.0902 20.1243C21.0902 19.9978 21.0651 19.8726 21.0165 19.7558C20.9678 19.639 20.8965 19.533 20.8067 19.4439ZM17.7688 17.7669C17.4951 18.0243 17.1335 18.1676 16.7578 18.1676C16.382 18.1676 16.0204 18.0243 15.7467 17.7669C15.4829 17.4983 15.3349 17.137 15.3346 16.7606C15.3327 16.5716 15.369 16.3841 15.4415 16.2095C15.5139 16.0349 15.621 15.8768 15.7563 15.7448C16.0118 15.4907 16.3544 15.3433 16.7146 15.3327C16.9084 15.3208 17.1025 15.349 17.2848 15.4157C17.4671 15.4824 17.6337 15.586 17.7741 15.72C17.9144 15.8541 18.0256 16.0158 18.1005 16.1948C18.1755 16.3739 18.2126 16.5665 18.2096 16.7606C18.2017 17.1412 18.0432 17.503 17.7688 17.7669ZM12.4596 11.4993H6.70964C6.45547 11.4993 6.21171 11.6003 6.03199 11.78C5.85227 11.9598 5.7513 12.2035 5.7513 12.4577C5.7513 12.7118 5.85227 12.9556 6.03199 13.1353C6.21171 13.315 6.45547 13.416 6.70964 13.416H12.4596C12.7138 13.416 12.9576 13.315 13.1373 13.1353C13.317 12.9556 13.418 12.7118 13.418 12.4577C13.418 12.2035 13.317 11.9598 13.1373 11.78C12.9576 11.6003 12.7138 11.4993 12.4596 11.4993ZM10.543 17.2493C10.7971 17.2493 11.0409 17.1484 11.2206 16.9687C11.4003 16.7889 11.5013 16.5452 11.5013 16.291C11.5013 16.0368 11.4003 15.7931 11.2206 15.6134C11.0409 15.4336 10.7971 15.3327 10.543 15.3327H6.70964C6.45547 15.3327 6.21171 15.4336 6.03199 15.6134C5.85227 15.7931 5.7513 16.0368 5.7513 16.291C5.7513 16.5452 5.85227 16.7889 6.03199 16.9687C6.21171 17.1484 6.45547 17.2493 6.70964 17.2493H10.543Z" fill="#0033AD"/>
</svg>
