<svg width="23" height="23" viewBox="0 0 23 23" fill="none" xmlns="http://www.w3.org/2000/svg">
<path d="M11.4998 19.166H4.7915C4.53734 19.166 4.29358 19.0651 4.11386 18.8853C3.93414 18.7056 3.83317 18.4618 3.83317 18.2077V4.79102C3.83317 4.53685 3.93414 4.29309 4.11386 4.11337C4.29358 3.93365 4.53734 3.83268 4.7915 3.83268H9.58317V6.70768C9.58317 7.47018 9.88607 8.20145 10.4252 8.74061C10.9644 9.27978 11.6957 9.58268 12.4582 9.58268H15.3332V10.541C15.3332 10.7952 15.4341 11.0389 15.6139 11.2187C15.7936 11.3984 16.0373 11.4993 16.2915 11.4993C16.5457 11.4993 16.7894 11.3984 16.9691 11.2187C17.1489 11.0389 17.2498 10.7952 17.2498 10.541V8.62435C17.2498 8.62435 17.2498 8.62435 17.2498 8.56685C17.2399 8.47881 17.2206 8.39208 17.1923 8.3081V8.22185C17.1463 8.12331 17.0848 8.03274 17.0103 7.95352L11.2603 2.20352C11.181 2.12897 11.0905 2.06751 10.9919 2.02143C10.9633 2.01737 10.9343 2.01737 10.9057 2.02143C10.8083 1.9656 10.7008 1.92976 10.5894 1.91602H4.7915C4.02901 1.91602 3.29774 2.21892 2.75857 2.75808C2.2194 3.29725 1.9165 4.02852 1.9165 4.79102V18.2077C1.9165 18.9702 2.2194 19.7014 2.75857 20.2406C3.29774 20.7798 4.02901 21.0827 4.7915 21.0827H11.4998C11.754 21.0827 11.9978 20.9817 12.1775 20.802C12.3572 20.6223 12.4582 20.3785 12.4582 20.1243C12.4582 19.8702 12.3572 19.6264 12.1775 19.4467C11.9978 19.267 11.754 19.166 11.4998 19.166ZM11.4998 5.18393L13.9819 7.66602H12.4582C12.204 7.66602 11.9602 7.56505 11.7805 7.38533C11.6008 7.2056 11.4998 6.96185 11.4998 6.70768V5.18393ZM6.70817 7.66602C6.454 7.66602 6.21025 7.76698 6.03053 7.94671C5.8508 8.12643 5.74984 8.37018 5.74984 8.62435C5.74984 8.87852 5.8508 9.12227 6.03053 9.30199C6.21025 9.48172 6.454 9.58268 6.70817 9.58268H7.6665C7.92067 9.58268 8.16443 9.48172 8.34415 9.30199C8.52387 9.12227 8.62484 8.87852 8.62484 8.62435C8.62484 8.37018 8.52387 8.12643 8.34415 7.94671C8.16443 7.76698 7.92067 7.66602 7.6665 7.66602H6.70817ZM20.8053 19.4439L19.684 18.3323C20.0424 17.7067 20.1858 16.9809 20.0924 16.2661C19.9989 15.5512 19.6737 14.8867 19.1665 14.3743C18.6998 13.891 18.0984 13.5595 17.4406 13.4229C16.7828 13.2862 16.099 13.3509 15.4785 13.6084C14.858 13.866 14.3294 14.3044 13.9616 14.8666C13.5938 15.4289 13.4038 16.0889 13.4165 16.7606C13.4132 17.3387 13.5611 17.9075 13.8455 18.4108C14.1299 18.9141 14.5409 19.3342 15.0378 19.6297C15.5346 19.9251 16.1001 20.0855 16.6781 20.0949C17.2561 20.1044 17.8265 19.9625 18.3328 19.6835L19.4444 20.8048C19.5335 20.8946 19.6395 20.9659 19.7563 21.0145C19.8731 21.0632 19.9983 21.0882 20.1248 21.0882C20.2513 21.0882 20.3766 21.0632 20.4934 21.0145C20.6102 20.9659 20.7162 20.8946 20.8053 20.8048C20.8951 20.7157 20.9664 20.6097 21.015 20.4929C21.0637 20.3761 21.0887 20.2509 21.0887 20.1243C21.0887 19.9978 21.0637 19.8726 21.015 19.7558C20.9664 19.639 20.8951 19.533 20.8053 19.4439ZM17.7673 17.7669C17.4936 18.0243 17.132 18.1676 16.7563 18.1676C16.3806 18.1676 16.019 18.0243 15.7453 17.7669C15.4814 17.4983 15.3335 17.137 15.3332 16.7606C15.3312 16.5716 15.3675 16.3841 15.44 16.2095C15.5125 16.0349 15.6196 15.8768 15.7548 15.7448C16.0103 15.4907 16.353 15.3433 16.7132 15.3327C16.9069 15.3208 17.101 15.349 17.2834 15.4157C17.4657 15.4824 17.6322 15.586 17.7726 15.72C17.913 15.8541 18.0241 16.0158 18.0991 16.1948C18.174 16.3739 18.2112 16.5665 18.2082 16.7606C18.2002 17.1412 18.0417 17.503 17.7673 17.7669ZM12.4582 11.4993H6.70817C6.454 11.4993 6.21025 11.6003 6.03053 11.78C5.8508 11.9598 5.74984 12.2035 5.74984 12.4577C5.74984 12.7118 5.8508 12.9556 6.03053 13.1353C6.21025 13.315 6.454 13.416 6.70817 13.416H12.4582C12.7123 13.416 12.9561 13.315 13.1358 13.1353C13.3155 12.9556 13.4165 12.7118 13.4165 12.4577C13.4165 12.2035 13.3155 11.9598 13.1358 11.78C12.9561 11.6003 12.7123 11.4993 12.4582 11.4993ZM10.5415 17.2493C10.7957 17.2493 11.0394 17.1484 11.2191 16.9687C11.3989 16.7889 11.4998 16.5452 11.4998 16.291C11.4998 16.0368 11.3989 15.7931 11.2191 15.6134C11.0394 15.4336 10.7957 15.3327 10.5415 15.3327H6.70817C6.454 15.3327 6.21025 15.4336 6.03053 15.6134C5.8508 15.7931 5.74984 16.0368 5.74984 16.291C5.74984 16.5452 5.8508 16.7889 6.03053 16.9687C6.21025 17.1484 6.454 17.2493 6.70817 17.2493H10.5415Z"/>
</svg>
