<svg width="26" height="26" viewBox="0 0 26 26" fill="none" xmlns="http://www.w3.org/2000/svg">
<path d="M22.4358 18.1026L19.8142 15.481C19.7135 15.3794 19.5936 15.2988 19.4616 15.2438C19.3296 15.1888 19.188 15.1605 19.045 15.1605C18.902 15.1605 18.7604 15.1888 18.6284 15.2438C18.4964 15.2988 18.3765 15.3794 18.2758 15.481L14.3975 19.3593C14.2971 19.4605 14.2177 19.5806 14.1637 19.7126C14.1098 19.8446 14.0825 19.9859 14.0833 20.1285V22.7501C14.0833 23.0374 14.1975 23.313 14.4006 23.5162C14.6038 23.7193 14.8793 23.8335 15.1667 23.8335H17.7883C17.9309 23.8343 18.0722 23.807 18.2042 23.753C18.3362 23.6991 18.4563 23.6197 18.5575 23.5193L22.4358 19.641C22.5374 19.5403 22.618 19.4204 22.673 19.2884C22.728 19.1564 22.7563 19.0148 22.7563 18.8718C22.7563 18.7288 22.728 18.5872 22.673 18.4552C22.618 18.3232 22.5374 18.2033 22.4358 18.1026ZM17.3333 21.6668H16.25V20.5835L19.045 17.7885L20.1283 18.8718L17.3333 21.6668ZM10.8333 21.6668H6.5C6.21268 21.6668 5.93713 21.5527 5.73397 21.3495C5.5308 21.1463 5.41667 20.8708 5.41667 20.5835V5.41679C5.41667 5.12948 5.5308 4.85393 5.73397 4.65076C5.93713 4.4476 6.21268 4.33346 6.5 4.33346H11.9167V7.58346C11.9167 8.44541 12.2591 9.27207 12.8686 9.88156C13.4781 10.4911 14.3047 10.8335 15.1667 10.8335H18.4167V11.9168C18.4167 12.2041 18.5308 12.4797 18.734 12.6828C18.9371 12.886 19.2127 13.0001 19.5 13.0001C19.7873 13.0001 20.0629 12.886 20.266 12.6828C20.4692 12.4797 20.5833 12.2041 20.5833 11.9168V9.75013C20.5833 9.75013 20.5833 9.75013 20.5833 9.68513C20.572 9.58561 20.5503 9.48756 20.5183 9.39263V9.29513C20.4662 9.18374 20.3968 9.08135 20.3125 8.99179L13.8125 2.49179C13.7229 2.40753 13.6206 2.33805 13.5092 2.28596C13.4768 2.28137 13.444 2.28137 13.4117 2.28596L13.065 2.16679H6.5C5.63805 2.16679 4.8114 2.5092 4.2019 3.1187C3.59241 3.72819 3.25 4.55484 3.25 5.41679V20.5835C3.25 21.4454 3.59241 22.2721 4.2019 22.8816C4.8114 23.4911 5.63805 23.8335 6.5 23.8335H10.8333C11.1207 23.8335 11.3962 23.7193 11.5994 23.5162C11.8025 23.313 11.9167 23.0374 11.9167 22.7501C11.9167 22.4628 11.8025 22.1873 11.5994 21.9841C11.3962 21.7809 11.1207 21.6668 10.8333 21.6668ZM14.0833 5.86096L16.8892 8.66679H15.1667C14.8793 8.66679 14.6038 8.55266 14.4006 8.34949C14.1975 8.14633 14.0833 7.87078 14.0833 7.58346V5.86096ZM8.66667 15.1668H15.1667C15.454 15.1668 15.7295 15.0527 15.9327 14.8495C16.1359 14.6463 16.25 14.3708 16.25 14.0835C16.25 13.7961 16.1359 13.5206 15.9327 13.3174C15.7295 13.1143 15.454 13.0001 15.1667 13.0001H8.66667C8.37935 13.0001 8.1038 13.1143 7.90063 13.3174C7.69747 13.5206 7.58333 13.7961 7.58333 14.0835C7.58333 14.3708 7.69747 14.6463 7.90063 14.8495C8.1038 15.0527 8.37935 15.1668 8.66667 15.1668ZM8.66667 10.8335H9.75C10.0373 10.8335 10.3129 10.7193 10.516 10.5162C10.7192 10.313 10.8333 10.0374 10.8333 9.75013C10.8333 9.46281 10.7192 9.18726 10.516 8.9841C10.3129 8.78093 10.0373 8.66679 9.75 8.66679H8.66667C8.37935 8.66679 8.1038 8.78093 7.90063 8.9841C7.69747 9.18726 7.58333 9.46281 7.58333 9.75013C7.58333 10.0374 7.69747 10.313 7.90063 10.5162C8.1038 10.7193 8.37935 10.8335 8.66667 10.8335ZM10.8333 17.3335H8.66667C8.37935 17.3335 8.1038 17.4476 7.90063 17.6508C7.69747 17.8539 7.58333 18.1295 7.58333 18.4168C7.58333 18.7041 7.69747 18.9797 7.90063 19.1828C8.1038 19.386 8.37935 19.5001 8.66667 19.5001H10.8333C11.1207 19.5001 11.3962 19.386 11.5994 19.1828C11.8025 18.9797 11.9167 18.7041 11.9167 18.4168C11.9167 18.1295 11.8025 17.8539 11.5994 17.6508C11.3962 17.4476 11.1207 17.3335 10.8333 17.3335Z" fill="#0033AD"/>
</svg>
