<svg width="24" height="24" viewBox="0 0 24 24" fill="none" xmlns="http://www.w3.org/2000/svg">
<g clip-path="url(#clip0_20172_285924)">
<path d="M19 13V6.749C19.0001 6.67006 18.9845 6.59189 18.9543 6.51896C18.9241 6.44603 18.8798 6.37978 18.824 6.324L15.676 3.176C15.5636 3.06345 15.4111 3.00014 15.252 3H3.6C3.44087 3 3.28826 3.06321 3.17574 3.17574C3.06321 3.28826 3 3.44087 3 3.6V22.4C3 22.5591 3.06321 22.7117 3.17574 22.8243C3.28826 22.9368 3.44087 23 3.6 23H12M7 11H15M7 7H11M7 15H10" stroke="#0033AD" stroke-width="2" stroke-linecap="round" stroke-linejoin="round"/>
<path d="M15 3V6.4C15 6.55913 15.0632 6.71174 15.1757 6.82426C15.2883 6.93679 15.4409 7 15.6 7H19M18.992 16.125L21.548 16.774C21.814 16.842 22.001 17.084 21.993 17.358C21.821 23.116 18.5 24 18.5 24C18.5 24 15.179 23.116 15.007 17.358C15.0039 17.2246 15.0463 17.0941 15.1271 16.988C15.208 16.8819 15.3226 16.8064 15.452 16.774L18.008 16.125C18.331 16.043 18.669 16.043 18.992 16.125Z" stroke="#0033AD" stroke-width="2" stroke-linecap="round" stroke-linejoin="round"/>
</g>
<defs>
<clipPath id="clip0_20172_285924">
<rect width="24" height="24" fill="white"/>
</clipPath>
</defs>
</svg>
