<svg width="20" height="20" viewBox="0 0 20 20" fill="none" xmlns="http://www.w3.org/2000/svg">
<path d="M7.50016 8.33268H8.3335C8.55451 8.33268 8.76647 8.24488 8.92275 8.0886C9.07903 7.93232 9.16683 7.72036 9.16683 7.49935C9.16683 7.27834 9.07903 7.06637 8.92275 6.91009C8.76647 6.75381 8.55451 6.66602 8.3335 6.66602H7.50016C7.27915 6.66602 7.06719 6.75381 6.91091 6.91009C6.75463 7.06637 6.66683 7.27834 6.66683 7.49935C6.66683 7.72036 6.75463 7.93232 6.91091 8.0886C7.06719 8.24488 7.27915 8.33268 7.50016 8.33268ZM7.50016 9.99935C7.27915 9.99935 7.06719 10.0871 6.91091 10.2434C6.75463 10.3997 6.66683 10.6117 6.66683 10.8327C6.66683 11.0537 6.75463 11.2657 6.91091 11.4219C7.06719 11.5782 7.27915 11.666 7.50016 11.666H12.5002C12.7212 11.666 12.9331 11.5782 13.0894 11.4219C13.2457 11.2657 13.3335 11.0537 13.3335 10.8327C13.3335 10.6117 13.2457 10.3997 13.0894 10.2434C12.9331 10.0871 12.7212 9.99935 12.5002 9.99935H7.50016ZM16.6668 7.44935C16.6581 7.37279 16.6414 7.29737 16.6168 7.22435V7.14935C16.5768 7.06367 16.5233 6.9849 16.4585 6.91602L11.4585 1.91602C11.3896 1.8512 11.3108 1.79775 11.2252 1.75768C11.2003 1.75415 11.175 1.75415 11.1502 1.75768C11.0655 1.70913 10.972 1.67797 10.8752 1.66602H5.8335C5.17045 1.66602 4.53457 1.92941 4.06573 2.39825C3.59689 2.86709 3.3335 3.50297 3.3335 4.16602V15.8327C3.3335 16.4957 3.59689 17.1316 4.06573 17.6005C4.53457 18.0693 5.17045 18.3327 5.8335 18.3327H14.1668C14.8299 18.3327 15.4658 18.0693 15.9346 17.6005C16.4034 17.1316 16.6668 16.4957 16.6668 15.8327V7.49935C16.6668 7.49935 16.6668 7.49935 16.6668 7.44935ZM11.6668 4.50768L13.8252 6.66602H12.5002C12.2791 6.66602 12.0672 6.57822 11.9109 6.42194C11.7546 6.26566 11.6668 6.0537 11.6668 5.83268V4.50768ZM15.0002 15.8327C15.0002 16.0537 14.9124 16.2657 14.7561 16.4219C14.5998 16.5782 14.3878 16.666 14.1668 16.666H5.8335C5.61248 16.666 5.40052 16.5782 5.24424 16.4219C5.08796 16.2657 5.00016 16.0537 5.00016 15.8327V4.16602C5.00016 3.945 5.08796 3.73304 5.24424 3.57676C5.40052 3.42048 5.61248 3.33268 5.8335 3.33268H10.0002V5.83268C10.0002 6.49572 10.2636 7.13161 10.7324 7.60045C11.2012 8.06929 11.8371 8.33268 12.5002 8.33268H15.0002V15.8327ZM12.5002 13.3327H7.50016C7.27915 13.3327 7.06719 13.4205 6.91091 13.5768C6.75463 13.733 6.66683 13.945 6.66683 14.166C6.66683 14.387 6.75463 14.599 6.91091 14.7553C7.06719 14.9116 7.27915 14.9993 7.50016 14.9993H12.5002C12.7212 14.9993 12.9331 14.9116 13.0894 14.7553C13.2457 14.599 13.3335 14.387 13.3335 14.166C13.3335 13.945 13.2457 13.733 13.0894 13.5768C12.9331 13.4205 12.7212 13.3327 12.5002 13.3327Z" fill="black"/>
</svg>
