<svg xmlns="http://www.w3.org/2000/svg" width="18" height="16" viewBox="0 0 18 16" fill="none">
<path fill-rule="evenodd" clip-rule="evenodd" d="M0.744311 0.901425C0.880343 0.605865 1.17595 0.416504 1.50131 0.416504H16.5013C16.8267 0.416504 17.1223 0.605865 17.2583 0.901425C17.3943 1.19699 17.3459 1.54469 17.1343 1.79183L11.3346 8.56527V14.9998C11.3346 15.2879 11.1859 15.5556 10.9412 15.7076C10.6965 15.8597 10.3906 15.8746 10.1323 15.747L7.13233 14.2655C6.84798 14.1251 6.66798 13.8355 6.66798 13.5184V8.56527L0.868317 1.79183C0.656703 1.54469 0.608279 1.19699 0.744311 0.901425ZM3.31192 2.08317L8.13431 7.71525C8.26359 7.86624 8.33465 8.05847 8.33465 8.25724V13.0005L9.66798 13.6589V8.25724C9.66798 8.05847 9.73903 7.86624 9.86832 7.71525L14.6907 2.08317H3.31192Z" fill="#0033AD"/>
</svg>
