<svg width="19" height="20" viewBox="0 0 19 20" xmlns="http://www.w3.org/2000/svg">
<path d="M7.51746 15.7714V14.2036H16.9159V15.7714H7.51746ZM7.51746 10.7839V9.21607H16.9159V10.7839H7.51746ZM7.51746 5.77664V4.20878H16.9159V5.77664H7.51746ZM3.62238 16.4925C3.20437 16.4925 2.8468 16.3494 2.54967 16.0631C2.25256 15.7769 2.104 15.4207 2.104 14.9947C2.104 14.5757 2.25032 14.2189 2.54294 13.9243C2.83558 13.6298 3.19388 13.4825 3.61785 13.4825C4.0418 13.4825 4.39529 13.6321 4.67833 13.9313C4.96136 14.2305 5.10288 14.5903 5.10288 15.0105C5.10288 15.4198 4.95792 15.7691 4.66799 16.0585C4.37806 16.3479 4.02952 16.4925 3.62238 16.4925ZM3.62238 11.505C3.20437 11.505 2.8468 11.3574 2.54967 11.062C2.25256 10.7666 2.104 10.4116 2.104 9.99683C2.104 9.58208 2.25345 9.22808 2.55234 8.93483C2.85125 8.64159 3.20972 8.49496 3.62774 8.49496C4.03487 8.49496 4.38251 8.64264 4.67067 8.938C4.95881 9.23336 5.10288 9.58841 5.10288 10.0032C5.10288 10.4179 4.95792 10.7719 4.66799 11.0652C4.37806 11.3584 4.02952 11.505 3.62238 11.505ZM3.60259 6.49775C3.19001 6.49775 2.8371 6.35007 2.54385 6.05471C2.25062 5.75935 2.104 5.4043 2.104 4.98954C2.104 4.57479 2.25152 4.22079 2.54655 3.92754C2.84156 3.63429 3.19536 3.48767 3.60795 3.48767C4.02053 3.48767 4.37283 3.63535 4.66485 3.93071C4.95687 4.22607 5.10288 4.58112 5.10288 4.99588C5.10288 5.41063 4.95598 5.76463 4.66218 6.05788C4.36836 6.35112 4.01517 6.49775 3.60259 6.49775Z"  />
</svg>
