<svg width="18" height="17" viewBox="0 0 18 17" fill="none" xmlns="http://www.w3.org/2000/svg">
<path fill-rule="evenodd" clip-rule="evenodd" d="M0.744311 1.40155C0.880343 1.10599 1.17595 0.916626 1.50131 0.916626H16.5013C16.8267 0.916626 17.1223 1.10599 17.2583 1.40155C17.3943 1.69711 17.3459 2.04481 17.1343 2.29195L11.3346 9.06539V15.5C11.3346 15.788 11.1859 16.0557 10.9412 16.2077C10.6965 16.3598 10.3906 16.3747 10.1323 16.2472L7.13233 14.7657C6.84798 14.6252 6.66798 14.3356 6.66798 14.0185V9.06539L0.868317 2.29195C0.656703 2.04481 0.608279 1.69711 0.744311 1.40155ZM3.31192 2.58329L8.13431 8.21537C8.26359 8.36636 8.33465 8.55859 8.33465 8.75737V13.5006L9.66798 14.159V8.75737C9.66798 8.55859 9.73903 8.36636 9.86832 8.21537L14.6907 2.58329H3.31192Z" fill="#438F68"/>
</svg>
