<svg width="20" height="21" viewBox="0 0 20 21" fill="none" xmlns="http://www.w3.org/2000/svg">
<path d="M15.8359 17.1667H4.16927C3.94826 17.1667 3.7363 17.2545 3.58002 17.4108C3.42374 17.567 3.33594 17.779 3.33594 18C3.33594 18.221 3.42374 18.433 3.58002 18.5893C3.7363 18.7456 3.94826 18.8333 4.16927 18.8333H15.8359C16.057 18.8333 16.2689 18.7456 16.4252 18.5893C16.5815 18.433 16.6693 18.221 16.6693 18C16.6693 17.779 16.5815 17.567 16.4252 17.4108C16.2689 17.2545 16.057 17.1667 15.8359 17.1667ZM7.26094 6.92502L9.16927 5.00835V14.6667C9.16927 14.8877 9.25707 15.0997 9.41335 15.2559C9.56963 15.4122 9.78159 15.5 10.0026 15.5C10.2236 15.5 10.4356 15.4122 10.5919 15.2559C10.7481 15.0997 10.8359 14.8877 10.8359 14.6667V5.00835L12.7443 6.92502C12.8217 7.00312 12.9139 7.06512 13.0155 7.10742C13.117 7.14973 13.2259 7.17151 13.3359 7.17151C13.4459 7.17151 13.5549 7.14973 13.6564 7.10742C13.758 7.06512 13.8501 7.00312 13.9276 6.92502C14.0057 6.84755 14.0677 6.75538 14.11 6.65383C14.1523 6.55228 14.1741 6.44336 14.1741 6.33335C14.1741 6.22334 14.1523 6.11442 14.11 6.01287C14.0677 5.91132 14.0057 5.81915 13.9276 5.74168L10.5943 2.40835C10.515 2.33248 10.4216 2.27301 10.3193 2.23335C10.1164 2.15 9.88882 2.15 9.68594 2.23335C9.58364 2.27301 9.49019 2.33248 9.41094 2.40835L6.0776 5.74168C5.99991 5.81938 5.93827 5.91162 5.89622 6.01314C5.85417 6.11466 5.83253 6.22347 5.83253 6.33335C5.83253 6.44323 5.85417 6.55204 5.89622 6.65356C5.93827 6.75507 5.99991 6.84732 6.0776 6.92502C6.1553 7.00271 6.24754 7.06435 6.34906 7.1064C6.45058 7.14845 6.55939 7.17009 6.66927 7.17009C6.77915 7.17009 6.88796 7.14845 6.98948 7.1064C7.091 7.06435 7.18324 7.00271 7.26094 6.92502Z" fill="#667085"/>
</svg>
