<svg width="463" height="489" viewBox="0 0 463 489" fill="none" xmlns="http://www.w3.org/2000/svg">
<path d="M188.468 488.742C188.182 488.742 187.894 488.734 187.604 488.719C183.628 488.499 179.901 486.773 177.229 483.916C174.557 481.059 173.154 477.298 173.325 473.448C173.495 469.599 175.225 465.968 178.14 463.342C181.054 460.716 184.92 459.306 188.901 459.416C192.882 459.526 196.659 461.147 199.414 463.929C202.169 466.712 203.682 470.432 203.625 474.285C203.569 478.138 201.947 481.815 199.111 484.52C196.275 487.225 192.452 488.742 188.47 488.742H188.468ZM59.1847 475.229C56.5366 475.226 53.9653 474.368 51.8778 472.791C49.7903 471.215 48.3058 469.01 47.6592 466.525C47.0127 464.041 47.241 461.418 48.3081 459.073C49.3752 456.729 51.2201 454.795 53.5508 453.579C55.8815 452.362 58.5649 451.933 61.1762 452.358C63.7875 452.784 66.1776 454.04 67.9682 455.927C69.7588 457.815 70.8476 460.227 71.0623 462.78C71.277 465.334 70.6053 467.884 69.1535 470.027C68.0738 471.631 66.5955 472.948 64.854 473.857C63.1125 474.766 61.1633 475.237 59.1847 475.229ZM320.804 474.668C317.655 474.668 314.635 473.458 312.409 471.303C310.182 469.149 308.932 466.227 308.932 463.18C308.932 460.133 310.183 457.211 312.409 455.057C314.636 452.903 317.656 451.692 320.805 451.692C323.954 451.692 326.974 452.903 329.2 455.057C331.427 457.211 332.678 460.133 332.678 463.18C332.678 466.227 331.427 469.149 329.201 471.303C326.974 473.458 323.954 474.668 320.806 474.668H320.804ZM93.3725 423.958C88.4813 423.958 83.7905 422.078 80.332 418.732C76.8735 415.385 74.9306 410.846 74.9307 406.114C74.9308 401.381 76.8738 396.843 80.3324 393.496C83.7911 390.15 88.4819 388.27 93.3731 388.27C98.2643 388.27 102.955 390.15 106.414 393.496C109.872 396.843 111.815 401.381 111.816 406.114C111.816 410.846 109.873 415.385 106.414 418.732C102.956 422.078 98.2649 423.958 93.3737 423.958H93.3725ZM286.357 423.547C281.494 423.547 276.83 421.678 273.392 418.351C269.953 415.023 268.022 410.511 268.022 405.805C268.022 401.1 269.954 396.588 273.392 393.261C276.831 389.933 281.495 388.064 286.358 388.064C291.221 388.064 295.885 389.933 299.323 393.261C302.762 396.588 304.694 401.1 304.694 405.805C304.694 410.511 302.762 415.023 299.324 418.351C295.885 421.678 291.222 423.547 286.359 423.547H286.357ZM188.295 409.087C187.879 409.087 187.458 409.075 187.038 409.052C181.364 408.735 176.047 406.27 172.236 402.191C168.425 398.111 166.426 392.744 166.672 387.25C166.917 381.756 169.387 376.576 173.547 372.83C177.708 369.084 183.224 367.072 188.906 367.229C194.587 367.387 199.976 369.701 203.908 373.671C207.84 377.642 209.999 382.95 209.919 388.448C209.839 393.947 207.527 399.194 203.481 403.056C199.435 406.918 193.981 409.084 188.297 409.087H188.295ZM-29.5065 366.262C-30.9898 363.413 -31.4721 360.174 -30.88 357.036C-30.2879 353.898 -28.6538 351.032 -26.2259 348.874C-23.7979 346.717 -20.7085 345.384 -17.4268 345.079C-14.1451 344.774 -10.8502 345.514 -8.04217 347.185C-5.23418 348.857 -3.06648 351.369 -1.86811 354.341C-0.669739 357.312 -0.506126 360.581 -1.40212 363.651C-2.29811 366.721 -4.20477 369.424 -6.8327 371.35C-9.46061 373.276 -12.6663 374.32 -15.9631 374.324C-18.7713 374.328 -21.5253 373.576 -23.9171 372.152C-26.3089 370.728 -28.2442 368.689 -29.5065 366.262ZM395.48 373.446C392.11 373.441 388.838 372.348 386.182 370.342C383.526 368.335 381.637 365.529 380.815 362.366C379.992 359.204 380.283 355.867 381.641 352.883C383 349.899 385.348 347.438 388.314 345.89C391.28 344.343 394.695 343.796 398.018 344.337C401.341 344.879 404.383 346.477 406.662 348.879C408.941 351.281 410.327 354.35 410.601 357.6C410.875 360.85 410.02 364.095 408.173 366.822C406.798 368.864 404.915 370.54 402.698 371.697C400.481 372.854 397.999 373.455 395.48 373.446ZM126.057 346.949C118.655 342.254 113.248 335.139 110.823 326.903C108.398 318.668 109.118 309.863 112.85 302.099C116.583 294.335 123.079 288.13 131.151 284.62C139.223 281.109 148.332 280.527 156.811 282.98C165.29 285.432 172.574 290.756 177.329 297.978C182.085 305.199 183.996 313.836 182.711 322.308C181.427 330.781 177.034 338.523 170.335 344.119C163.636 349.715 155.08 352.791 146.23 352.784C139.059 352.795 132.044 350.766 126.057 346.949ZM200.184 333.009C195.791 324.571 195.042 314.792 198.101 305.82C201.16 296.849 207.777 289.42 216.496 285.169C220.816 283.061 225.522 281.798 230.347 281.451C235.172 281.103 240.019 281.679 244.614 283.145C249.208 284.611 253.459 286.938 257.124 289.994C260.789 293.05 263.795 296.774 265.972 300.955C275.112 318.49 267.791 339.955 249.655 348.789C245.336 350.896 240.63 352.159 235.806 352.507C230.983 352.854 226.135 352.279 221.541 350.813C216.947 349.348 212.697 347.021 209.032 343.966C205.368 340.911 202.361 337.188 200.184 333.009ZM41.5528 325.957C39.4331 321.886 38.7439 317.257 39.5899 312.773C40.4358 308.289 42.7708 304.194 46.2403 301.11C49.7097 298.026 54.1244 296.122 58.8139 295.686C63.5036 295.25 68.2121 296.307 72.2248 298.695C76.2376 301.083 79.3354 304.673 81.0482 308.92C82.7609 313.166 82.995 317.837 81.715 322.224C80.4349 326.611 77.7105 330.474 73.9554 333.227C70.2003 335.98 65.6195 337.472 60.9083 337.477C56.895 337.484 52.959 336.41 49.5406 334.375C46.1223 332.341 43.3565 329.426 41.5528 325.957ZM318.418 336.923C313.603 336.917 308.928 335.358 305.132 332.493C301.336 329.627 298.637 325.618 297.461 321.101C296.285 316.584 296.699 311.816 298.639 307.553C300.578 303.289 303.932 299.773 308.169 297.561C312.406 295.349 317.285 294.568 322.033 295.341C326.781 296.113 331.126 298.396 334.382 301.828C337.638 305.259 339.619 309.643 340.01 314.286C340.401 318.929 339.18 323.566 336.541 327.462C334.575 330.376 331.886 332.767 328.721 334.419C325.556 336.072 322.014 336.932 318.418 336.923ZM100.583 280.122C80.3152 278.999 64.7518 262.141 65.8997 242.533C67.0547 223.01 84.3688 207.842 104.772 208.995C125.055 210.108 140.612 226.969 139.458 246.574C138.919 255.656 134.813 264.195 127.981 270.442C121.148 276.69 112.105 280.174 102.704 280.182C102.006 280.18 101.298 280.157 100.583 280.122ZM274.222 279.749C253.947 278.632 238.389 261.772 239.543 242.159C240.684 222.646 258.012 207.481 278.412 208.629C287.98 209.15 296.961 213.262 303.445 220.089C309.93 226.916 313.406 235.921 313.137 245.19C312.867 254.458 308.873 263.26 302.002 269.724C295.131 276.188 285.926 279.804 276.342 279.804C275.64 279.803 274.928 279.784 274.221 279.748L274.222 279.749ZM-3.453 262.582C-3.80362 262.582 -4.15746 262.572 -4.51177 262.553C-9.33896 262.285 -13.8634 260.191 -17.1071 256.721C-20.3508 253.252 -22.0532 248.687 -21.8462 244.013C-21.6393 239.339 -19.5396 234.932 -16.0011 231.743C-12.4626 228.555 -7.76954 226.842 -2.93639 226.975C1.89676 227.108 6.48172 229.076 9.82738 232.454C13.173 235.831 15.0106 240.347 14.9429 245.025C14.8752 249.702 12.9076 254.166 9.46555 257.452C6.02345 260.737 1.38332 262.58 -3.45177 262.582H-3.453ZM382.479 261.761C382.127 261.761 381.771 261.751 381.415 261.731C376.592 261.463 372.072 259.369 368.832 255.902C365.592 252.434 363.892 247.873 364.099 243.203C364.307 238.533 366.406 234.13 369.942 230.945C373.478 227.76 378.167 226.049 382.996 226.182C387.825 226.315 392.406 228.282 395.748 231.656C399.091 235.031 400.927 239.543 400.859 244.217C400.792 248.891 398.826 253.351 395.387 256.634C391.948 259.917 387.312 261.758 382.481 261.761H382.479ZM-72.0946 256.443C-72.3218 256.443 -72.5511 256.437 -72.7805 256.424C-75.8123 256.257 -78.6633 254.975 -80.7492 252.84C-82.8352 250.704 -83.9982 247.878 -84 244.94C-84 244.719 -83.9933 244.497 -83.9798 244.274C-83.8037 241.282 -82.429 238.473 -80.1476 236.446C-77.8662 234.418 -74.8578 233.33 -71.7611 233.414C-68.6645 233.498 -65.7234 234.746 -63.5625 236.894C-61.4016 239.041 -60.191 241.919 -60.1877 244.917C-60.1877 245.138 -60.194 245.36 -60.2067 245.584C-60.3838 248.519 -61.7131 251.278 -63.9228 253.297C-66.1324 255.315 -69.0555 256.441 -72.0943 256.443L-72.0946 256.443ZM450.419 255.311C447.297 255.139 444.37 253.785 442.271 251.542C440.172 249.298 439.07 246.346 439.203 243.323C439.336 240.3 440.694 237.448 442.982 235.386C445.27 233.323 448.305 232.214 451.431 232.299C454.558 232.385 457.523 233.657 459.688 235.841C461.853 238.025 463.042 240.945 462.999 243.971C462.956 246.997 461.684 249.885 459.458 252.01C457.232 254.136 454.231 255.328 451.103 255.33C450.877 255.33 450.649 255.324 450.418 255.312L450.419 255.311ZM113.032 187.794C103.892 170.245 111.214 148.785 129.351 139.946C134.488 137.454 140.153 136.15 145.899 136.137C152.728 136.112 159.428 137.934 165.245 141.396C171.061 144.858 175.763 149.823 178.82 155.732C187.959 173.271 180.639 194.734 162.5 203.573C157.365 206.07 151.7 207.376 145.953 207.389C139.124 207.412 132.424 205.59 126.608 202.128C120.791 198.666 116.089 193.702 113.032 187.794ZM212.539 201.36C195.556 190.587 190.8 168.466 201.939 152.041C204.593 148.127 208.017 144.758 212.016 142.125C216.015 139.491 220.511 137.646 225.248 136.695C229.984 135.743 234.868 135.703 239.62 136.578C244.372 137.452 248.9 139.224 252.944 141.792C269.929 152.551 274.681 174.682 263.549 191.111C258.188 199.014 249.803 204.532 240.238 206.454C230.672 208.376 220.709 206.544 212.54 201.36L212.539 201.36ZM48.6854 190.259C44.3402 187.5 41.1667 183.32 39.745 178.482C38.3232 173.645 38.7483 168.475 40.9425 163.916C43.1367 159.357 46.9533 155.715 51.6947 153.655C56.4361 151.595 61.7854 151.255 66.7646 152.697C71.7438 154.139 76.0203 157.266 78.8121 161.508C81.6039 165.75 82.7247 170.822 81.9693 175.798C81.214 180.773 78.6331 185.32 74.6985 188.605C70.7639 191.891 65.7384 193.697 60.5409 193.693C56.3279 193.69 52.2074 192.497 48.6857 190.259H48.6854ZM318.128 193.143C312.408 193.143 306.922 190.944 302.877 187.031C298.832 183.117 296.56 177.809 296.56 172.274C296.56 166.74 298.833 161.432 302.878 157.518C306.922 153.605 312.408 151.406 318.128 151.406C323.849 151.406 329.334 153.605 333.379 157.518C337.424 161.432 339.696 166.74 339.697 172.274C339.697 177.809 337.424 183.117 333.38 187.031C329.335 190.944 323.849 193.143 318.129 193.143H318.128ZM-16.5073 144.606C-20.5324 144.606 -24.3927 143.059 -27.2388 140.305C-30.0849 137.551 -31.6838 133.816 -31.6837 129.921C-31.6836 126.027 -30.0846 122.292 -27.2383 119.538C-24.3921 116.784 -20.5318 115.237 -16.5067 115.237C-12.4815 115.237 -8.62125 116.784 -5.77502 119.538C-2.92879 122.292 -1.32976 126.027 -1.32967 129.921C-1.3296 133.816 -2.92848 137.551 -5.7746 140.305C-8.62071 143.059 -12.4809 144.606 -16.5061 144.606H-16.5073ZM381.438 135.671C379.951 132.82 379.466 129.577 380.057 126.436C380.648 123.294 382.282 120.424 384.712 118.263C387.142 116.101 390.234 114.766 393.519 114.46C396.805 114.154 400.104 114.893 402.915 116.566C405.727 118.238 407.897 120.753 409.098 123.728C410.298 126.703 410.462 129.975 409.565 133.049C408.668 136.122 406.759 138.828 404.128 140.756C401.497 142.685 398.287 143.729 394.987 143.732C392.178 143.737 389.423 142.986 387.03 141.563C384.637 140.14 382.701 138.1 381.438 135.672L381.438 135.671ZM189.188 121.527C188.775 121.527 188.36 121.515 187.943 121.492C182.265 121.178 176.943 118.715 173.128 114.635C169.312 110.554 167.309 105.185 167.552 99.6878C167.795 94.1904 170.265 89.0062 174.426 85.2561C178.588 81.5059 184.107 79.491 189.792 79.6469C195.477 79.8028 200.87 82.117 204.805 86.0892C208.74 90.0615 210.902 95.3726 210.823 100.875C210.744 106.377 208.43 111.627 204.381 115.492C200.333 119.356 194.876 121.524 189.189 121.527H189.188ZM76.2189 90.9946C74.4207 87.5365 73.8376 83.6053 74.5579 79.7974C75.2782 75.9896 77.2626 72.5131 80.2101 69.8954C83.1576 67.2777 86.9072 65.6619 90.8898 65.293C94.8725 64.9241 98.8708 65.8224 102.278 67.8515C105.685 69.8806 108.315 72.9297 109.769 76.5362C111.223 80.1427 111.421 84.1096 110.334 87.8349C109.246 91.5602 106.932 94.8407 103.743 97.1783C100.554 99.5159 96.6642 100.783 92.6633 100.788C89.2532 100.792 85.909 99.8788 83.0048 98.1493C80.1006 96.4199 77.751 93.9426 76.2189 90.9948V90.9946ZM275.515 97.4634C271.818 95.1185 269.117 91.5643 267.906 87.451C266.695 83.3376 267.055 78.9399 268.92 75.0621C270.785 71.1843 274.03 68.0855 278.062 66.3324C282.094 64.5793 286.643 64.289 290.878 65.5148C295.113 66.7405 298.75 69.4002 301.125 73.0076C303.5 76.615 304.453 80.9289 303.811 85.1605C303.168 89.3921 300.973 93.2586 297.627 96.0528C294.28 98.8471 290.006 100.382 285.585 100.378C282.007 100.375 278.507 99.3625 275.515 97.4639V97.4634ZM47.5676 30.7644C46.4012 28.525 46.0219 25.9785 46.4872 23.5115C46.9525 21.0445 48.237 18.7918 50.1457 17.0953C52.0544 15.3989 54.4831 14.3513 57.063 14.1117C59.643 13.8722 62.2333 14.4536 64.4406 15.7678C66.648 17.0821 68.3519 19.0573 69.2937 21.3936C70.2354 23.7299 70.3636 26.2997 69.6587 28.7129C68.9538 31.1262 67.4544 33.2509 65.3881 34.7647C63.3217 36.2785 60.8014 37.0985 58.2096 37.1004C56.0029 37.1032 53.839 36.5121 51.9596 35.3932C50.0803 34.2743 48.5596 32.6716 47.5676 30.7644ZM313.271 34.6586C310.879 33.1407 309.132 30.8404 308.349 28.1785C307.566 25.5165 307.799 22.6708 309.006 20.1618C310.214 17.6527 312.314 15.648 314.924 14.5142C317.533 13.3804 320.477 13.1934 323.217 13.9873C325.957 14.7812 328.311 16.503 329.847 18.8378C331.383 21.1726 331.999 23.9643 331.582 26.7025C331.166 29.4406 329.744 31.9422 327.578 33.7496C325.412 35.5571 322.646 36.5497 319.785 36.5459C317.47 36.543 315.206 35.8867 313.271 34.6576L313.271 34.6586ZM188.987 29.3145C188.698 29.3145 188.406 29.3066 188.114 29.2906C184.141 29.0709 180.416 27.347 177.746 24.4917C175.076 21.6364 173.674 17.8791 173.844 14.0319C174.014 10.1846 175.741 6.55661 178.654 3.932C181.566 1.3074 185.428 -0.102938 189.407 0.00585779C193.385 0.114653 197.159 1.73384 199.913 4.51341C202.668 7.29298 204.181 11.0096 204.126 14.86C204.071 18.7104 202.452 22.3851 199.619 25.0899C196.786 27.7947 192.967 29.3122 188.988 29.3145H188.987Z" fill="#1F213A"/>
</svg>
