<svg xmlns="http://www.w3.org/2000/svg" width="463" height="489" fill="none"><path fill="#1F213A" d="M188.468 488.742q-.429 0-.864-.023c-3.976-.22-7.703-1.946-10.375-4.803s-4.075-6.618-3.904-10.468c.17-3.849 1.9-7.48 4.815-10.106 2.914-2.626 6.78-4.036 10.761-3.926s7.758 1.731 10.513 4.513 4.268 6.503 4.211 10.356-1.678 7.53-4.514 10.235-6.659 4.222-10.641 4.222zM59.185 475.229a12.15 12.15 0 0 1-7.307-2.438 11.5 11.5 0 0 1-4.219-6.266 11.17 11.17 0 0 1 .65-7.452c1.066-2.344 2.911-4.278 5.242-5.494a12.25 12.25 0 0 1 7.625-1.221 12.03 12.03 0 0 1 6.792 3.569c1.79 1.888 2.88 4.3 3.094 6.853a11.23 11.23 0 0 1-1.909 7.247 11.7 11.7 0 0 1-4.299 3.83 12.15 12.15 0 0 1-5.67 1.372m261.619-.561c-3.149 0-6.169-1.21-8.395-3.365-2.227-2.154-3.477-5.076-3.477-8.123s1.251-5.969 3.477-8.123 5.247-3.365 8.396-3.365 6.169 1.211 8.395 3.365 3.478 5.076 3.478 8.123-1.251 5.969-3.477 8.123c-2.227 2.155-5.247 3.365-8.395 3.365zm-227.431-50.71c-4.892 0-9.583-1.88-13.041-5.226s-5.401-7.886-5.401-12.618 1.943-9.271 5.401-12.618c3.46-3.346 8.15-5.226 13.041-5.226s9.582 1.88 13.041 5.226 5.401 7.885 5.402 12.618c0 4.732-1.943 9.271-5.402 12.618s-8.15 5.226-13.04 5.226zm192.984-.411c-4.863 0-9.527-1.869-12.965-5.196s-5.37-7.84-5.37-12.546 1.932-9.217 5.37-12.544 8.103-5.197 12.966-5.197 9.527 1.869 12.965 5.197c3.439 3.327 5.371 7.839 5.371 12.544 0 4.706-1.932 9.218-5.37 12.546s-8.102 5.196-12.965 5.196zm-98.062-14.46q-.625 0-1.257-.035c-5.674-.317-10.991-2.782-14.802-6.861-3.811-4.08-5.81-9.447-5.564-14.941s2.715-10.674 6.875-14.42 9.677-5.758 15.359-5.601c5.681.158 11.07 2.472 15.002 6.442s6.091 9.279 6.011 14.777c-.08 5.499-2.392 10.746-6.438 14.608s-9.5 6.028-15.184 6.031zm-217.801-42.825a14.23 14.23 0 0 1-1.374-9.226c.592-3.138 2.226-6.004 4.654-8.162a15.4 15.4 0 0 1 8.8-3.795 15.56 15.56 0 0 1 9.384 2.106c2.808 1.672 4.976 4.184 6.174 7.156a14.2 14.2 0 0 1 .466 9.31c-.896 3.07-2.803 5.773-5.43 7.699a15.5 15.5 0 0 1-9.131 2.974 15.5 15.5 0 0 1-7.954-2.172 14.84 14.84 0 0 1-5.59-5.89m424.986 7.184a15.48 15.48 0 0 1-9.298-3.104c-2.656-2.007-4.545-4.813-5.367-7.976a14.2 14.2 0 0 1 .826-9.483c1.359-2.984 3.707-5.445 6.673-6.993a15.6 15.6 0 0 1 9.704-1.553c3.323.542 6.365 2.14 8.644 4.542s3.665 5.471 3.939 8.721a14.3 14.3 0 0 1-2.428 9.222 14.9 14.9 0 0 1-5.475 4.875 15.5 15.5 0 0 1-7.218 1.749m-269.423-26.497c-7.402-4.695-12.809-11.81-15.234-20.046s-1.705-17.04 2.027-24.804 10.229-13.969 18.301-17.479a38 38 0 0 1 25.66-1.64c8.479 2.452 15.763 7.776 20.518 14.998s6.667 15.858 5.382 24.33c-1.284 8.473-5.677 16.215-12.376 21.811s-15.255 8.672-24.105 8.665c-7.171.011-14.186-2.018-20.173-5.835m74.127-13.94c-4.393-8.438-5.142-18.217-2.083-27.189 3.059-8.971 9.676-16.4 18.395-20.651a37.8 37.8 0 0 1 13.851-3.718 38 38 0 0 1 14.267 1.694 37.2 37.2 0 0 1 12.51 6.849 35.8 35.8 0 0 1 8.848 10.961c9.14 17.535 1.819 39-16.317 47.834a37.8 37.8 0 0 1-13.849 3.718 38 38 0 0 1-14.265-1.694 37.2 37.2 0 0 1-12.509-6.847 35.8 35.8 0 0 1-8.848-10.957m-158.631-7.052a20.34 20.34 0 0 1-1.963-13.184c.846-4.484 3.18-8.579 6.65-11.663s7.884-4.988 12.574-5.424a22.23 22.23 0 0 1 13.41 3.009c4.014 2.388 7.111 5.978 8.824 10.225a20.3 20.3 0 0 1 .667 13.304c-1.28 4.387-4.005 8.25-7.76 11.003s-8.335 4.245-13.047 4.25a22.16 22.16 0 0 1-11.367-3.102c-3.419-2.034-6.184-4.949-7.988-8.418m276.865 10.966c-4.815-.006-9.49-1.565-13.286-4.43-3.796-2.866-6.495-6.875-7.671-11.392a20.3 20.3 0 0 1 1.178-13.548c1.939-4.264 5.293-7.78 9.53-9.992a22.27 22.27 0 0 1 13.864-2.22c4.748.772 9.093 3.055 12.349 6.487s5.237 7.815 5.628 12.458-.83 9.28-3.469 13.176a21.3 21.3 0 0 1-7.82 6.957 22.15 22.15 0 0 1-10.303 2.504m-217.835-56.801c-20.268-1.123-35.831-17.981-34.683-37.589 1.155-19.523 18.469-34.691 38.872-33.538 20.283 1.113 35.84 17.974 34.686 37.579-.539 9.082-4.645 17.621-11.477 23.868-6.833 6.248-15.876 9.732-25.277 9.74a46 46 0 0 1-2.121-.06m173.639-.373c-20.275-1.117-35.833-17.977-34.679-37.59 1.141-19.513 18.469-34.678 38.869-33.53 9.568.521 18.549 4.633 25.033 11.46s9.961 15.832 9.692 25.101-4.264 18.07-11.135 24.534-16.076 10.08-25.66 10.08a43 43 0 0 1-2.121-.056zM-3.453 262.582q-.526 0-1.059-.029c-4.827-.268-9.351-2.362-12.595-5.832s-4.946-8.034-4.74-12.708c.208-4.674 2.307-9.081 5.846-12.27 3.538-3.188 8.231-4.901 13.065-4.768s9.418 2.101 12.763 5.479c3.346 3.377 5.184 7.893 5.116 12.571-.068 4.677-2.035 9.141-5.477 12.427s-8.083 5.128-12.918 5.13zm385.932-.821q-.529 0-1.064-.03c-4.823-.268-9.343-2.362-12.583-5.829-3.24-3.468-4.94-8.029-4.733-12.699s2.307-9.073 5.843-12.258 8.225-4.896 13.054-4.763 9.41 2.1 12.752 5.474 5.179 7.887 5.111 12.561c-.067 4.674-2.033 9.134-5.472 12.417s-8.075 5.124-12.906 5.127zm-454.574-5.318q-.34 0-.686-.019c-3.031-.167-5.882-1.449-7.968-3.584-2.086-2.136-3.25-4.962-3.251-7.9q0-.332.02-.666c.176-2.992 1.551-5.801 3.832-7.828 2.282-2.028 5.29-3.116 8.387-3.032 3.096.084 6.038 1.332 8.198 3.48s3.372 5.025 3.375 8.023q0 .331-.019.667c-.177 2.935-1.506 5.694-3.716 7.713-2.21 2.018-5.132 3.144-8.171 3.146m522.514-1.132c-3.122-.172-6.049-1.526-8.148-3.769s-3.201-5.196-3.068-8.219 1.491-5.875 3.779-7.937 5.323-3.172 8.449-3.087c3.127.086 6.092 1.358 8.257 3.542s3.354 5.104 3.311 8.13-1.315 5.914-3.541 8.039-5.227 3.318-8.355 3.32q-.339 0-.685-.018zm-337.387-67.517c-9.14-17.549-1.818-39.009 16.319-47.848a38.1 38.1 0 0 1 16.548-3.809c6.829-.025 13.529 1.797 19.346 5.259 5.816 3.462 10.518 8.427 13.575 14.336 9.139 17.539 1.819 39.002-16.32 47.841a38.06 38.06 0 0 1-16.547 3.816c-6.829.023-13.529-1.799-19.345-5.261-5.817-3.462-10.519-8.426-13.576-14.334m99.507 13.566c-16.983-10.773-21.739-32.894-10.6-49.319a36.2 36.2 0 0 1 10.077-9.916 37.5 37.5 0 0 1 13.232-5.43 38 38 0 0 1 14.372-.117 37.5 37.5 0 0 1 13.324 5.214c16.985 10.759 21.737 32.89 10.605 49.319-5.361 7.903-13.746 13.421-23.311 15.343-9.566 1.922-19.529.09-27.698-5.094zM48.685 190.259c-4.345-2.759-7.518-6.939-8.94-11.777a20.3 20.3 0 0 1 1.198-14.566c2.194-4.559 6.01-8.201 10.752-10.261a22.3 22.3 0 0 1 15.07-.958c4.979 1.442 9.255 4.569 12.047 8.811s3.913 9.314 3.157 14.29-3.336 9.522-7.27 12.807c-3.935 3.286-8.96 5.092-14.158 5.088a22.15 22.15 0 0 1-11.855-3.434m269.443 2.884c-5.72 0-11.206-2.199-15.251-6.112s-6.317-9.222-6.317-14.757c0-5.534 2.273-10.842 6.318-14.756 4.044-3.913 9.53-6.112 15.25-6.112s11.206 2.199 15.251 6.112 6.317 9.222 6.318 14.756-2.273 10.843-6.317 14.757-9.531 6.112-15.251 6.112zm-334.635-48.537c-4.025 0-7.886-1.547-10.732-4.301s-4.445-6.489-4.445-10.384c0-3.894 1.6-7.629 4.446-10.383s6.706-4.301 10.731-4.301c4.026 0 7.886 1.547 10.732 4.301s4.445 6.489 4.445 10.383c0 3.895-1.598 7.63-4.445 10.384-2.846 2.754-6.706 4.301-10.731 4.301zm397.945-8.935a14.25 14.25 0 0 1-1.381-9.235c.591-3.142 2.225-6.012 4.655-8.173a15.4 15.4 0 0 1 8.807-3.803 15.57 15.57 0 0 1 9.396 2.106c2.812 1.672 4.982 4.187 6.183 7.162a14.22 14.22 0 0 1 .467 9.321c-.897 3.073-2.806 5.779-5.437 7.707a15.5 15.5 0 0 1-9.141 2.976 15.5 15.5 0 0 1-7.957-2.169 14.83 14.83 0 0 1-5.592-5.891zm-192.25-14.144q-.62 0-1.245-.035c-5.678-.314-11-2.777-14.815-6.857-3.816-4.081-5.819-9.45-5.576-14.947.243-5.498 2.713-10.682 6.874-14.432 4.162-3.75 9.681-5.765 15.366-5.61 5.685.157 11.078 2.471 15.013 6.443s6.097 9.284 6.018 14.786-2.393 10.752-6.442 14.617c-4.048 3.864-9.505 6.032-15.192 6.035zM76.218 90.995a17.27 17.27 0 0 1-1.66-11.198c.72-3.807 2.705-7.284 5.652-9.902s6.697-4.233 10.68-4.602 7.98.53 11.388 2.558c3.407 2.03 6.037 5.079 7.491 8.685a17.25 17.25 0 0 1 .565 11.299c-1.088 3.725-3.402 7.006-6.591 9.343a18.8 18.8 0 0 1-11.08 3.61c-3.41.004-6.754-.91-9.658-2.639a18 18 0 0 1-6.786-7.154m199.297 6.468c-3.697-2.344-6.398-5.899-7.609-10.012a17.27 17.27 0 0 1 1.014-12.389c1.865-3.878 5.11-6.977 9.142-8.73a18.97 18.97 0 0 1 12.816-.817c4.235 1.225 7.872 3.885 10.247 7.493a17.34 17.34 0 0 1 2.686 12.153c-.643 4.231-2.838 8.098-6.184 10.892s-7.621 4.329-12.042 4.325a18.84 18.84 0 0 1-10.07-2.914M47.568 30.764a11.2 11.2 0 0 1-1.08-7.252 11.43 11.43 0 0 1 3.658-6.417 12.1 12.1 0 0 1 6.917-2.983c2.58-.24 5.17.342 7.378 1.656a11.62 11.62 0 0 1 4.853 5.626 11.17 11.17 0 0 1 .365 7.319 11.52 11.52 0 0 1-4.27 6.052 12.17 12.17 0 0 1-7.18 2.335 12.2 12.2 0 0 1-6.25-1.707 11.66 11.66 0 0 1-4.391-4.629M313.27 34.66c-2.392-1.518-4.139-3.819-4.922-6.48a11.18 11.18 0 0 1 .657-8.017c1.208-2.51 3.308-4.514 5.918-5.648a12.28 12.28 0 0 1 8.293-.527c2.74.794 5.094 2.516 6.63 4.85a11.22 11.22 0 0 1 1.735 7.866c-.416 2.738-1.838 5.24-4.004 7.047a12.14 12.14 0 0 1-7.793 2.796 12.2 12.2 0 0 1-6.514-1.888m-124.284-5.344q-.434 0-.873-.024c-3.973-.22-7.698-1.944-10.368-4.8s-4.072-6.612-3.902-10.46c.17-3.846 1.897-7.474 4.81-10.099s6.774-4.035 10.753-3.926 7.752 1.728 10.506 4.507 4.268 6.497 4.213 10.347-1.674 7.525-4.507 10.23-6.652 4.222-10.631 4.224z"/></svg>