<svg width="21" height="21" viewBox="0 0 21 21" fill="none" xmlns="http://www.w3.org/2000/svg">
<path fill-rule="evenodd" clip-rule="evenodd" d="M12.2498 10.5006C12.2498 10.0364 12.0654 9.59126 11.7372 9.26306C11.409 8.93485 10.9638 8.75047 10.4997 8.75047C10.0355 8.75047 9.59038 8.93485 9.26217 9.26306C8.93397 9.59126 8.74958 10.0364 8.74958 10.5006C8.74958 10.9647 8.93397 11.4098 9.26217 11.7381C9.59038 12.0663 10.0355 12.2506 10.4997 12.2506C10.9638 12.2506 11.409 12.0663 11.7372 11.7381C12.0654 11.4099 12.2498 10.9647 12.2498 10.5006ZM11.3747 13.8905C12.1257 13.6958 12.7908 13.2573 13.2656 12.6438C13.7404 12.0302 13.998 11.2764 13.998 10.5006C13.998 9.72475 13.7404 8.9709 13.2656 8.35735C12.7908 7.74379 12.1257 7.30528 11.3747 7.11064L11.3747 2.62517C11.3747 2.39309 11.2825 2.17052 11.1184 2.00642C10.9543 1.84231 10.7317 1.75012 10.4997 1.75012C10.2676 1.75012 10.045 1.84231 9.88092 2.00642C9.71682 2.17052 9.62463 2.39309 9.62463 2.62517L9.62463 7.11064C8.87363 7.30528 8.20853 7.74379 7.73372 8.35735C7.25892 8.9709 7.0013 9.72475 7.0013 10.5006C7.0013 11.2764 7.25892 12.0302 7.73372 12.6438C8.20853 13.2573 8.87363 13.6958 9.62463 13.8905L9.62463 18.3759C9.62463 18.608 9.71682 18.8306 9.88092 18.9947C10.045 19.1588 10.2676 19.251 10.4997 19.251C10.7317 19.251 10.9543 19.1588 11.1184 18.9947C11.2825 18.8306 11.3747 18.608 11.3747 18.3759L11.3747 13.8905Z" />
</svg>
