<svg width="24" height="24" viewBox="0 0 24 24" fill="none" xmlns="http://www.w3.org/2000/svg">
<path opacity="0.1" fill-rule="evenodd" clip-rule="evenodd" d="M0 12C0 5.37258 5.37258 0 12 0C18.6274 0 24 5.37258 24 12C24 18.6274 18.6274 24 12 24C5.37258 24 0 18.6274 0 12Z" fill="white"/>
<g clip-path="url(#clip0_468_4236)">
<path fill-rule="evenodd" clip-rule="evenodd" d="M12 5C8.1325 5 5 8.1325 5 12C5 15.0975 7.00375 17.7138 9.78625 18.6413C10.1363 18.7025 10.2675 18.4925 10.2675 18.3088C10.2675 18.1425 10.2587 17.5913 10.2587 17.005C8.5 17.3288 8.045 16.5763 7.905 16.1825C7.82625 15.9813 7.485 15.36 7.1875 15.1938C6.9425 15.0625 6.5925 14.7388 7.17875 14.73C7.73 14.7213 8.12375 15.2375 8.255 15.4475C8.885 16.5063 9.89125 16.2088 10.2937 16.025C10.355 15.57 10.5387 15.2638 10.74 15.0888C9.1825 14.9138 7.555 14.31 7.555 11.6325C7.555 10.8713 7.82625 10.2413 8.2725 9.75125C8.2025 9.57625 7.9575 8.85875 8.3425 7.89625C8.3425 7.89625 8.92875 7.7125 10.2675 8.61375C10.8275 8.45625 11.4225 8.3775 12.0175 8.3775C12.6125 8.3775 13.2075 8.45625 13.7675 8.61375C15.1062 7.70375 15.6925 7.89625 15.6925 7.89625C16.0775 8.85875 15.8325 9.57625 15.7625 9.75125C16.2087 10.2413 16.48 10.8625 16.48 11.6325C16.48 14.3188 14.8438 14.9138 13.2863 15.0888C13.54 15.3075 13.7587 15.7275 13.7587 16.3837C13.7587 17.32 13.75 18.0725 13.75 18.3088C13.75 18.4925 13.8812 18.7113 14.2312 18.6413C15.6209 18.1721 16.8284 17.279 17.6838 16.0876C18.5393 14.8963 18.9996 13.4667 19 12C19 8.1325 15.8675 5 12 5Z" fill="white"/>
</g>
<defs>
<clipPath id="clip0_468_4236">
<rect width="14" height="14" fill="white" transform="translate(5 5)"/>
</clipPath>
</defs>
</svg>
