<svg width="17" height="19" viewBox="0 0 17 19"  xmlns="http://www.w3.org/2000/svg">
<path d="M1.93797 18.5344C1.46391 18.5344 1.05658 18.3641 0.715969 18.0235C0.375375 17.6829 0.205078 17.2755 0.205078 16.8015V12.6062L3.41786 9.08722L4.65524 10.337L2.11107 13.1094H14.9022L12.4865 10.3778L13.7362 9.1281L16.8082 12.6062V16.8015C16.8082 17.2755 16.6367 17.6829 16.2937 18.0235C15.9507 18.3641 15.5404 18.5344 15.063 18.5344L1.93797 18.5344ZM1.93797 16.8015H15.063V14.4219H1.93797V16.8015ZM7.36011 11.2937L4.09218 8.00108C3.73267 7.63332 3.56544 7.22038 3.59048 6.76227C3.61551 6.30415 3.80462 5.89851 4.1578 5.54535L8.60982 1.0933C8.93922 0.769378 9.34216 0.606286 9.81864 0.604026C10.2951 0.601766 10.7098 0.773105 11.0627 1.11804L14.3306 4.41069C14.6692 4.74929 14.8381 5.14764 14.8371 5.60574C14.8361 6.06386 14.6445 6.4841 14.2621 6.86644L9.83487 11.2937C9.50451 11.6241 9.09934 11.7966 8.61936 11.8111C8.13937 11.8257 7.71961 11.6532 7.36011 11.2937ZM12.9183 5.54821L9.82249 2.47716L5.48268 6.82932L8.5661 9.90038L12.9183 5.54821Z"  />
</svg>
