<svg width="20" height="19" viewBox="0 0 20 19" fill="none" xmlns="http://www.w3.org/2000/svg">
<path d="M4.06249 17.674C3.63357 17.674 3.26503 17.5199 2.95686 17.2117C2.64871 16.9036 2.49463 16.535 2.49463 16.1061V12.3104L5.40143 9.12653L6.52097 10.2573L4.2191 12.7656H15.7921L13.6064 10.2942L14.7371 9.16353L17.5165 12.3104V16.1061C17.5165 16.535 17.3614 16.9036 17.051 17.2117C16.7406 17.5199 16.3695 17.674 15.9375 17.674L4.06249 17.674ZM4.06249 16.1061H15.9375V13.9531H4.06249V16.1061ZM8.96823 11.1229L6.01153 8.14384C5.68626 7.8111 5.53495 7.43749 5.55761 7.02302C5.58026 6.60853 5.75136 6.24152 6.0709 5.92199L10.0989 1.89395C10.3969 1.60087 10.7615 1.45331 11.1926 1.45127C11.6237 1.44922 11.9989 1.60424 12.3182 1.91633L15.2749 4.89539C15.5812 5.20174 15.734 5.56215 15.7331 5.97663C15.7323 6.39112 15.5589 6.77133 15.2129 7.11727L11.2073 11.1229C10.9084 11.4218 10.5418 11.5778 10.1076 11.591C9.67327 11.6042 9.29349 11.4482 8.96823 11.1229ZM13.997 5.92458L11.1961 3.14601L7.26961 7.08368L10.0594 9.86225L13.997 5.92458Z" fill="#F6F9FF"/>
</svg>
