<svg width="21" height="20" viewBox="0 0 21 20" fill="none" xmlns="http://www.w3.org/2000/svg">
<path fill-rule="evenodd" clip-rule="evenodd" d="M8.32838 0.0299821C8.77778 0.0799155 9.10161 0.484706 9.05168 0.934107L7.11859 18.3319C7.06865 18.7813 6.66386 19.1051 6.21446 19.0552C5.76506 19.0053 5.44123 18.6005 5.49116 18.1511L7.42425 0.753282C7.47419 0.303881 7.87898 -0.0199514 8.32838 0.0299821Z" fill="#438F68"/>
<path fill-rule="evenodd" clip-rule="evenodd" d="M14.1276 0.029982C14.577 0.0799155 14.9009 0.484706 14.8509 0.934107L12.9178 18.3319C12.8679 18.7813 12.4631 19.1051 12.0137 19.0552C11.5643 19.0053 11.2405 18.6005 11.2904 18.1511L13.2235 0.753282C13.2734 0.303881 13.6782 -0.0199513 14.1276 0.029982Z" fill="#438F68"/>
<path fill-rule="evenodd" clip-rule="evenodd" d="M1.13666 6.64288C1.13666 6.19071 1.50321 5.82416 1.95538 5.82416H19.3532C19.8053 5.82416 20.1719 6.19071 20.1719 6.64288C20.1719 7.09504 19.8053 7.4616 19.3532 7.4616H1.95538C1.50321 7.4616 1.13666 7.09504 1.13666 6.64288Z" fill="#438F68"/>
<path fill-rule="evenodd" clip-rule="evenodd" d="M0.171875 12.4422C0.171875 11.99 0.538428 11.6235 0.990595 11.6235H18.3884C18.8406 11.6235 19.2071 11.99 19.2071 12.4422C19.2071 12.8944 18.8406 13.2609 18.3884 13.2609H0.990595C0.538428 13.2609 0.171875 12.8944 0.171875 12.4422Z" fill="#438F68"/>
</svg>
