<svg xmlns="http://www.w3.org/2000/svg" width="22" height="22" viewBox="0 0 22 22" fill="none">
<g clip-path="url(#clip0_13734_100859)">
<path d="M9.0763 3.88604C9.70727 3.73834 10.3533 3.66452 11.0013 3.66604C17.418 3.66604 21.0846 10.9994 21.0846 10.9994C21.0846 10.9994 19.8646 13.0204 19.1046 13.9235M12.9446 12.9427C12.6929 13.2129 12.3893 13.4296 12.0519 13.5799C11.7146 13.7302 11.3505 13.811 10.9812 13.8175C10.612 13.8241 10.2452 13.7561 9.90278 13.6178C9.56036 13.4795 9.2493 13.2736 8.98816 13.0125C8.72703 12.7514 8.52116 12.4403 8.38285 12.0979C8.24454 11.7555 8.17662 11.3887 8.18313 11.0195C8.18965 10.6502 8.27047 10.2861 8.42077 9.94873C8.57108 9.6114 8.78778 9.3078 9.05797 9.05604M16.4463 16.4444C14.8793 17.6388 12.9713 18.3005 11.0013 18.3327C4.58464 18.3327 0.917969 10.9994 0.917969 10.9994C2.0582 8.87444 3.63968 7.01793 5.5563 5.55437L16.4463 16.4444Z" stroke="#98A2B3" stroke-width="2" stroke-linecap="round" stroke-linejoin="round"/>
<path d="M0.917969 0.916016L21.0846 21.0827" stroke="#98A2B3" stroke-width="2" stroke-linecap="round" stroke-linejoin="round"/>
<path d="M0.917969 10.9993C0.917969 10.9993 4.58464 3.66602 11.0013 3.66602C17.418 3.66602 21.0846 10.9993 21.0846 10.9993C21.0846 10.9993 17.418 18.3327 11.0013 18.3327C4.58464 18.3327 0.917969 10.9993 0.917969 10.9993Z" stroke="#98A2B3" stroke-width="2" stroke-linecap="round" stroke-linejoin="round"/>
<path d="M11 13.75C12.5188 13.75 13.75 12.5188 13.75 11C13.75 9.48122 12.5188 8.25 11 8.25C9.48122 8.25 8.25 9.48122 8.25 11C8.25 12.5188 9.48122 13.75 11 13.75Z" stroke="#98A2B3" stroke-width="2" stroke-linecap="round" stroke-linejoin="round"/>
</g>
<defs>
<clipPath id="clip0_13734_100859">
<rect width="22" height="22" fill="white"/>
</clipPath>
</defs>
</svg>
