<svg width="30" height="30" viewBox="0 0 30 30" fill="none" xmlns="http://www.w3.org/2000/svg">
<path fill-rule="evenodd" clip-rule="evenodd" d="M2.5 3.75C3.19036 3.75 3.75 4.30964 3.75 5V22.5C3.75 23.1904 4.30964 23.75 5 23.75H27.5C28.1904 23.75 28.75 24.3096 28.75 25C28.75 25.6904 28.1904 26.25 27.5 26.25H5C2.92893 26.25 1.25 24.5711 1.25 22.5V5C1.25 4.30964 1.80964 3.75 2.5 3.75Z" fill="#0033AD"/>
<path fill-rule="evenodd" clip-rule="evenodd" d="M25.6202 6.41491C26.2196 6.75742 26.4279 7.52099 26.0854 8.12039L22.1022 15.0909C21.2153 16.6429 19.3562 17.3532 17.6604 16.788L13.7585 15.4873C13.2617 15.3217 12.7143 15.4834 12.3872 15.8923L8.47613 20.7811C8.04487 21.3202 7.25825 21.4076 6.71918 20.9763C6.1801 20.545 6.0927 19.7584 6.52396 19.2193L10.435 14.3306C11.4164 13.1037 13.0586 12.6188 14.5491 13.1156L18.451 14.4162C19.0163 14.6047 19.636 14.3679 19.9316 13.8506L23.9147 6.88004C24.2573 6.28064 25.0208 6.0724 25.6202 6.41491Z" fill="#0033AD"/>
</svg>
