<svg width="13" height="13" viewBox="0 0 13 13" fill="none" xmlns="http://www.w3.org/2000/svg">
<path d="M6.44502 12.3458C4.82195 12.3458 3.44753 11.7759 2.32177 10.6362C1.19602 9.49646 0.637297 8.11252 0.645599 6.48439H1.88338C1.89016 7.76469 2.33221 8.85537 3.20952 9.75643C4.08682 10.6575 5.16516 11.108 6.44452 11.108C7.738 11.108 8.83718 10.6524 9.74207 9.74106C10.647 8.82975 11.0994 7.72388 11.0994 6.42346C11.0994 5.1543 10.6436 4.08176 9.73197 3.20585C8.82036 2.32995 7.72454 1.89199 6.44452 1.89199C5.78329 1.89199 5.16044 2.03432 4.57597 2.31896C3.99152 2.60361 3.47895 2.98506 3.03827 3.46332H4.49343V4.51564H1.05116V1.09782H2.08582V2.65693C2.64515 2.03329 3.30016 1.54211 4.05083 1.18342C4.80151 0.824729 5.59941 0.645386 6.44452 0.645386C7.25521 0.645386 8.01755 0.798578 8.73155 1.10496C9.44554 1.41135 10.0714 1.82748 10.609 2.35335C11.1467 2.87924 11.5691 3.49394 11.8763 4.19745C12.1836 4.90097 12.3372 5.65807 12.3372 6.46876C12.3372 7.27945 12.1836 8.04176 11.8763 8.7557C11.5691 9.46963 11.1467 10.0921 10.609 10.6232C10.0714 11.1543 9.44554 11.5742 8.73155 11.8828C8.01755 12.1915 7.25538 12.3458 6.44502 12.3458ZM8.40919 9.09987L6.00294 6.72487V3.32814H7.03758V6.28126L9.16055 8.34851L8.40919 9.09987Z" fill="#F6F9FF"/>
</svg>
