<svg width="30" height="30" viewBox="0 0 30 30" fill="none" xmlns="http://www.w3.org/2000/svg">
<rect width="30" height="30" rx="15" fill="#0052CC"/>
<path d="M21.9826 18.0964H17.9856C17.7516 18.0964 17.5271 18.1893 17.3617 18.3548C17.1962 18.5203 17.1032 18.7447 17.1032 18.9787C17.1032 19.2127 17.1962 19.4372 17.3617 19.6026C17.5271 19.7681 17.7516 19.8611 17.9856 19.8611H20.1032C19.1299 20.8782 17.8748 21.5811 16.499 21.8794C15.1231 22.1777 13.6896 22.0578 12.3824 21.5351C11.0753 21.0124 9.95428 20.1109 9.16344 18.9462C8.37261 17.7816 7.94808 16.4071 7.94439 14.9993C7.94439 14.7653 7.85143 14.5409 7.68596 14.3754C7.52049 14.2099 7.29605 14.117 7.06204 14.117C6.82803 14.117 6.6036 14.2099 6.43812 14.3754C6.27265 14.5409 6.17969 14.7653 6.17969 14.9993C6.18435 16.7224 6.69341 18.4064 7.64404 19.8435C8.59468 21.2806 9.94528 22.4079 11.5292 23.0863C13.1131 23.7647 14.8609 23.9645 16.5571 23.6611C18.2532 23.3576 19.8234 22.5642 21.0738 21.3787V22.9405C21.0738 23.1745 21.1668 23.3989 21.3322 23.5644C21.4977 23.7299 21.7221 23.8228 21.9562 23.8228C22.1902 23.8228 22.4146 23.7299 22.5801 23.5644C22.7456 23.3989 22.8385 23.1745 22.8385 22.9405V18.9699C22.8363 18.7419 22.746 18.5237 22.5864 18.3608C22.4269 18.198 22.2105 18.1032 21.9826 18.0964ZM15.0032 6.17578C12.7412 6.18223 10.5681 7.05718 8.93263 8.6199V7.05813C8.93263 6.82412 8.83967 6.59969 8.67419 6.43422C8.50872 6.26874 8.28429 6.17578 8.05028 6.17578C7.81626 6.17578 7.59183 6.26874 7.42636 6.43422C7.26088 6.59969 7.16792 6.82412 7.16792 7.05813V11.0287C7.16792 11.2627 7.26088 11.4872 7.42636 11.6526C7.59183 11.8181 7.81626 11.9111 8.05028 11.9111H12.0209C12.2549 11.9111 12.4793 11.8181 12.6448 11.6526C12.8103 11.4872 12.9032 11.2627 12.9032 11.0287C12.9032 10.7947 12.8103 10.5703 12.6448 10.4048C12.4793 10.2393 12.2549 10.1464 12.0209 10.1464H9.90322C10.876 9.12978 12.1304 8.4271 13.5053 8.12852C14.8803 7.82994 16.3131 7.94909 17.6199 8.47066C18.9267 8.99223 20.0478 9.89244 20.8393 11.0557C21.6308 12.219 22.0566 13.5923 22.062 14.9993C22.062 15.2333 22.155 15.4578 22.3205 15.6232C22.4859 15.7887 22.7104 15.8817 22.9444 15.8817C23.1784 15.8817 23.4028 15.7887 23.5683 15.6232C23.7338 15.4578 23.8267 15.2333 23.8267 14.9993C23.8267 13.8406 23.5985 12.6932 23.1551 11.6227C22.7117 10.5522 22.0617 9.57947 21.2424 8.76013C20.4231 7.94079 19.4504 7.29086 18.3798 6.84743C17.3093 6.40401 16.1619 6.17578 15.0032 6.17578Z" fill="white"/>
</svg>
