<svg width="30" height="30" viewBox="0 0 30 30" fill="none" xmlns="http://www.w3.org/2000/svg">
<rect width="30" height="30" rx="15" fill="#E3E5E9"/>
<path d="M15 13.167C14.6374 13.167 14.2829 13.2745 13.9815 13.476C13.68 13.6774 13.445 13.9637 13.3062 14.2987C13.1675 14.6337 13.1312 15.0024 13.2019 15.358C13.2726 15.7136 13.4472 16.0403 13.7036 16.2967C13.96 16.5531 14.2867 16.7277 14.6423 16.7984C14.998 16.8692 15.3666 16.8329 15.7016 16.6941C16.0366 16.5553 16.3229 16.3204 16.5244 16.0189C16.7258 15.7174 16.8333 15.3629 16.8333 15.0003C16.8333 14.5141 16.6402 14.0478 16.2964 13.704C15.9525 13.3601 15.4862 13.167 15 13.167ZM8.58333 13.167C8.22074 13.167 7.86628 13.2745 7.56479 13.476C7.2633 13.6774 7.02832 13.9637 6.88956 14.2987C6.75079 14.6337 6.71449 15.0024 6.78523 15.358C6.85597 15.7136 7.03058 16.0403 7.28697 16.2967C7.54337 16.5531 7.87004 16.7277 8.22567 16.7984C8.5813 16.8692 8.94992 16.8329 9.28492 16.6941C9.61992 16.5553 9.90625 16.3204 10.1077 16.0189C10.3091 15.7174 10.4167 15.3629 10.4167 15.0003C10.4167 14.5141 10.2235 14.0478 9.8797 13.704C9.53588 13.3601 9.06956 13.167 8.58333 13.167ZM21.4167 13.167C21.0541 13.167 20.6996 13.2745 20.3981 13.476C20.0966 13.6774 19.8616 13.9637 19.7229 14.2987C19.5841 14.6337 19.5478 15.0024 19.6186 15.358C19.6893 15.7136 19.8639 16.0403 20.1203 16.2967C20.3767 16.5531 20.7034 16.7277 21.059 16.7984C21.4146 16.8692 21.7833 16.8329 22.1183 16.6941C22.4533 16.5553 22.7396 16.3204 22.941 16.0189C23.1425 15.7174 23.25 15.3629 23.25 15.0003C23.25 14.5141 23.0568 14.0478 22.713 13.704C22.3692 13.3601 21.9029 13.167 21.4167 13.167Z" fill="#667085"/>
</svg>
