<svg width="17" height="21" viewBox="0 0 17 21"   xmlns="http://www.w3.org/2000/svg">
<path d="M16.0423 7.24158C15.9708 7.07743 15.8549 6.93657 15.7075 6.83494C15.5602 6.73331 15.3873 6.67499 15.2085 6.66658H10.8193L12.0364 2.12408C12.0752 1.98193 12.0806 1.83276 12.0524 1.68816C12.0241 1.54356 11.9629 1.40743 11.8735 1.29033C11.7842 1.17436 11.6696 1.08037 11.5383 1.01558C11.4071 0.950798 11.2628 0.916929 11.1164 0.916578H4.40808C4.19173 0.909167 3.97924 0.975227 3.80522 1.104C3.6312 1.23277 3.50591 1.41667 3.44975 1.62574L0.881417 11.2091C0.842655 11.3512 0.837189 11.5004 0.865444 11.645C0.893699 11.7896 0.954915 11.9257 1.04433 12.0428C1.13459 12.1601 1.25078 12.2549 1.3838 12.3197C1.51681 12.3845 1.66303 12.4177 1.811 12.4166H5.51975L3.78517 18.8757C3.72834 19.084 3.7435 19.3054 3.8282 19.504C3.9129 19.7026 4.06218 19.8667 4.25184 19.9699C4.4415 20.073 4.66043 20.1091 4.87317 20.0723C5.0859 20.0355 5.27997 19.9279 5.42392 19.767L15.8698 8.26699C15.9941 8.1308 16.0766 7.9616 16.1072 7.77972C16.1378 7.59783 16.1152 7.41097 16.0423 7.24158ZM6.66017 15.5599L7.68558 11.7266C7.72435 11.5844 7.72981 11.4353 7.70156 11.2907C7.6733 11.1461 7.61209 11.0099 7.52267 10.8928C7.43339 10.7769 7.31874 10.6829 7.1875 10.6181C7.05627 10.5533 6.91194 10.5194 6.76558 10.5191H3.08558L5.13642 2.83324H9.861L8.64392 7.37574C8.60484 7.52051 8.60028 7.67242 8.6306 7.81926C8.66092 7.96611 8.72527 8.10379 8.81849 8.22124C8.9117 8.33869 9.03117 8.43263 9.1673 8.4955C9.30342 8.55837 9.4524 8.58843 9.60225 8.58324H13.0235L6.66017 15.5599Z" fill="#434656"/>
</svg>
