<svg width="113" height="50" viewBox="0 0 113 50" fill="none" xmlns="http://www.w3.org/2000/svg">
<g clip-path="url(#clip0_22094_291579)">
<path d="M31.6213 24.577V25.8882C31.6213 29.7473 27.4454 32.157 24.1035 30.2284L22.9688 29.5729C21.4191 28.6768 20.4629 27.0229 20.4629 25.2326V23.9215C20.4629 20.0624 24.6388 17.6526 27.9807 19.5812L29.1153 20.2368C30.665 21.1329 31.6213 22.7868 31.6213 24.577Z" fill="#434656"/>
<path d="M49.8502 10.3159L34.4939 19.1829C34.1832 19.3613 33.8023 19.3613 33.4915 19.1829L18.8649 10.7369C18.1974 10.35 18.1974 9.38573 18.8649 9.00078L34.2192 0.133817C34.53 -0.0446056 34.9129 -0.0446056 35.2216 0.133817L49.8483 8.57979C50.5159 8.96474 50.5159 9.93099 49.8483 10.3159H49.8502Z" fill="#434656"/>
<path d="M50.5802 11.5808C51.2478 11.1958 52.0838 11.677 52.0838 12.4488V29.3368C52.0838 29.6956 51.8933 30.0264 51.5826 30.2048L36.2242 39.0718C35.5567 39.4567 34.7207 38.9756 34.7207 38.2037V21.3178C34.7207 20.959 34.9111 20.6282 35.2219 20.4497L50.5802 11.5808Z" fill="#434656"/>
<path d="M16.8619 29.3631L1.50356 38.2301C0.835979 38.615 0 38.1339 0 37.362V20.472C0 20.1132 0.192455 19.7824 0.501186 19.604L15.8576 10.737C16.5271 10.3521 17.3631 10.8332 17.3631 11.6051V28.493C17.3631 28.8519 17.1727 29.1827 16.8619 29.3611V29.3631Z" fill="#434656"/>
<path d="M33.2185 40.808L17.8621 49.675C17.5514 49.8534 17.1685 49.8534 16.8577 49.675L2.23311 41.229C1.56553 40.8441 1.56553 39.8778 2.23311 39.4929L17.5894 30.628C17.9002 30.4495 18.2811 30.4495 18.5918 30.628L33.2185 39.0719C33.886 39.4568 33.886 40.4211 33.2185 40.808Z" fill="#434656"/>
<path d="M62.8701 14.9999V10.6211H67.4753V14.9999H62.8701ZM62.8701 37.9134V18.0576H67.4753V37.9134H62.8701Z" fill="#434656"/>
<path d="M72.3809 37.9123V18.0565H76.2314L76.6085 21.1897H76.873C77.1246 20.5605 77.4267 19.9817 77.7788 19.4532C78.1564 18.8996 78.6345 18.4592 79.2131 18.132C79.7923 17.7797 80.497 17.6035 81.3272 17.6035C81.7298 17.6035 82.0949 17.6413 82.422 17.7168C82.7741 17.7923 83.0387 17.8678 83.2147 17.9433V22.2844H81.8178C81.0376 22.2844 80.346 22.3976 79.7418 22.6241C79.1376 22.8254 78.622 23.1526 78.1939 23.6056C77.7913 24.0586 77.4892 24.6248 77.2881 25.3042C77.0866 25.9837 76.9861 26.7765 76.9861 27.6824V37.9123H72.3809Z" fill="#434656"/>
<path d="M86.0576 14.9999V10.6211H90.6628V14.9999H86.0576ZM86.0576 37.9134V18.0576H90.6628V37.9134H86.0576Z" fill="#434656"/>
<path d="M103.307 38.3666C101.872 38.3666 100.615 38.2156 99.5323 37.9136C98.45 37.5865 97.5443 37.1461 96.8141 36.5924C96.0844 36.0388 95.5307 35.3971 95.1531 34.6673C94.801 33.9123 94.625 33.0944 94.625 32.2136C94.625 32.0877 94.625 31.9745 94.625 31.8738C94.65 31.7732 94.6625 31.6977 94.6625 31.6474H99.1927C99.1927 31.6977 99.1927 31.748 99.1927 31.7984C99.1927 31.8487 99.1927 31.899 99.1927 31.9493C99.2177 32.6288 99.4318 33.1825 99.8344 33.6103C100.237 34.0129 100.765 34.3023 101.42 34.4785C102.074 34.6547 102.766 34.7427 103.496 34.7427C104.15 34.7427 104.767 34.6798 105.345 34.554C105.949 34.403 106.44 34.1765 106.818 33.8745C107.22 33.5474 107.422 33.1321 107.422 32.6288C107.422 31.9745 107.17 31.4712 106.667 31.1189C106.164 30.7665 105.496 30.4772 104.666 30.2506C103.861 30.0241 102.993 29.7851 102.061 29.5334C101.231 29.307 100.401 29.0553 99.5698 28.7785C98.7396 28.5016 97.9844 28.1493 97.3052 27.7215C96.6505 27.2937 96.1099 26.74 95.6818 26.0605C95.2792 25.3811 95.0781 24.538 95.0781 23.5314C95.0781 22.5499 95.2917 21.6943 95.7198 20.9645C96.1474 20.2347 96.7391 19.6307 97.4938 19.1525C98.249 18.6492 99.1422 18.2717 100.174 18.0201C101.206 17.7684 102.326 17.6426 103.533 17.6426C104.716 17.6426 105.786 17.7684 106.742 18.0201C107.723 18.2717 108.567 18.6366 109.271 19.1148C110.001 19.5678 110.555 20.134 110.932 20.8135C111.335 21.4678 111.536 22.1976 111.536 23.0029C111.536 23.179 111.524 23.3552 111.498 23.5314C111.498 23.7075 111.498 23.8082 111.498 23.8334H107.006V23.5691C107.006 23.091 106.855 22.6883 106.554 22.3612C106.277 22.0088 105.861 21.732 105.308 21.5307C104.779 21.3293 104.113 21.2287 103.307 21.2287C102.703 21.2287 102.174 21.279 101.722 21.3797C101.269 21.4804 100.891 21.6188 100.589 21.7949C100.313 21.9711 100.098 22.1724 99.9474 22.3989C99.7964 22.6254 99.7208 22.8771 99.7208 23.1539C99.7208 23.6321 99.9099 24.0096 100.287 24.2864C100.665 24.5632 101.168 24.8023 101.797 25.0036C102.452 25.2049 103.156 25.4188 103.911 25.6453C104.817 25.897 105.748 26.1612 106.705 26.438C107.661 26.6897 108.542 27.0168 109.347 27.4195C110.178 27.8222 110.844 28.3884 111.347 29.1182C111.851 29.848 112.103 30.8169 112.103 32.0248C112.103 33.1825 111.876 34.1765 111.423 35.007C110.995 35.8123 110.379 36.4666 109.573 36.9699C108.793 37.448 107.862 37.8004 106.78 38.0269C105.723 38.2534 104.566 38.3666 103.307 38.3666Z" fill="#434656"/>
</g>
<defs>
<clipPath id="clip0_22094_291579">
<rect width="112.5" height="50" fill="white"/>
</clipPath>
</defs>
</svg>
