<svg width="26" height="22" viewBox="0 0 26 22" fill="none" xmlns="http://www.w3.org/2000/svg">
<path d="M12.9993 16.8333C14.288 16.8333 15.3327 15.7887 15.3327 14.5C15.3327 13.2113 14.288 12.1667 12.9993 12.1667C11.7106 12.1667 10.666 13.2113 10.666 14.5C10.666 15.7887 11.7106 16.8333 12.9993 16.8333ZM15.3327 2.83333C15.3327 3.45203 15.0919 4.01448 14.699 4.43209L17.7601 8.25858C17.846 8.36597 17.9952 8.39875 18.1183 8.33725L21.2109 6.79096C21.1814 6.64298 21.166 6.48996 21.166 6.33333C21.166 5.04467 22.2107 4 23.4994 4C24.788 4 25.8327 5.04467 25.8327 6.33333C25.8327 7.44387 25.0569 8.37321 24.0176 8.6089L21.9128 19.8346C21.7317 20.8002 20.8886 21.5 19.9061 21.5H6.0926C5.11012 21.5 4.26695 20.8002 4.0859 19.8346L1.98108 8.6089C0.941849 8.37321 0.166016 7.44387 0.166016 6.33333C0.166016 5.04467 1.21068 4 2.49935 4C3.78801 4 4.83268 5.04467 4.83268 6.33333C4.83268 6.48996 4.81725 6.64298 4.78782 6.79096L7.88041 8.33726C8.00343 8.39875 8.15269 8.36597 8.2386 8.25858L11.2997 4.43209C10.9068 4.01448 10.666 3.45203 10.666 2.83333C10.666 1.54467 11.7106 0.5 12.9993 0.5C14.288 0.5 15.3327 1.54467 15.3327 2.83333ZM12.9993 5.16667C12.9841 5.16667 12.9688 5.16651 12.9536 5.16622L9.60512 9.35185C9.00371 10.1035 7.95887 10.333 7.09779 9.90252L3.81461 8.26091C3.78009 8.28451 3.74491 8.3072 3.70909 8.32896L5.80593 19.5121C5.83179 19.65 5.95224 19.75 6.0926 19.75H19.9061C20.0465 19.75 20.1669 19.65 20.1928 19.5121L22.2896 8.32898C22.2538 8.30721 22.2186 8.28451 22.1841 8.26091L18.9009 9.90252C18.0398 10.333 16.9949 10.1035 16.3935 9.35185L13.0451 5.16622C13.0299 5.16651 13.0146 5.16667 12.9993 5.16667Z" fill="#434656"/>
</svg>
