<svg width="20" height="21" viewBox="0 0 20 21" fill="none" xmlns="http://www.w3.org/2000/svg">
<path d="M12.7443 14.075L10.8359 15.9917V6.33335C10.8359 6.11234 10.7481 5.90038 10.5919 5.7441C10.4356 5.58782 10.2236 5.50002 10.0026 5.50002C9.78159 5.50002 9.56963 5.58782 9.41335 5.7441C9.25707 5.90038 9.16927 6.11234 9.16927 6.33335V15.9917L7.26094 14.075C7.10402 13.9181 6.89119 13.8299 6.66927 13.8299C6.44735 13.8299 6.23452 13.9181 6.0776 14.075C5.92068 14.2319 5.83253 14.4448 5.83253 14.6667C5.83253 14.8886 5.92068 15.1014 6.0776 15.2584L9.41094 18.5917C9.49019 18.6676 9.58364 18.727 9.68594 18.7667C9.78569 18.8108 9.89355 18.8335 10.0026 18.8335C10.1117 18.8335 10.2195 18.8108 10.3193 18.7667C10.4216 18.727 10.515 18.6676 10.5943 18.5917L13.9276 15.2584C14.0845 15.1014 14.1727 14.8886 14.1727 14.6667C14.1727 14.4448 14.0845 14.2319 13.9276 14.075C13.8499 13.9973 13.7577 13.9357 13.6561 13.8936C13.5546 13.8516 13.4458 13.8299 13.3359 13.8299C13.114 13.8299 12.9012 13.9181 12.7443 14.075ZM15.8359 2.16669H4.16927C3.94826 2.16669 3.7363 2.25448 3.58002 2.41076C3.42374 2.56704 3.33594 2.77901 3.33594 3.00002C3.33594 3.22103 3.42374 3.433 3.58002 3.58928C3.7363 3.74556 3.94826 3.83335 4.16927 3.83335H15.8359C16.057 3.83335 16.2689 3.74556 16.4252 3.58928C16.5815 3.433 16.6693 3.22103 16.6693 3.00002C16.6693 2.77901 16.5815 2.56704 16.4252 2.41076C16.2689 2.25448 16.057 2.16669 15.8359 2.16669Z" fill="#667085"/>
</svg>
