<svg width="18" height="18" viewBox="0 0 22 22"  xmlns="http://www.w3.org/2000/svg">
<g clip-path="url(#clip0_850_3050)">
<path d="M11 13.75C11.7639 13.75 12.417 13.4865 12.9594 12.9594C13.5017 12.4323 13.7729 11.7792 13.7729 11C13.7729 10.2361 13.5056 9.58299 12.9708 9.04063C12.4361 8.49826 11.7792 8.22708 11 8.22708C10.2361 8.22708 9.58681 8.49444 9.05208 9.02917C8.51736 9.56389 8.25 10.2208 8.25 11C8.25 11.7639 8.51354 12.4132 9.04063 12.9479C9.56771 13.4826 10.2208 13.75 11 13.75ZM11 15.5833C9.73195 15.5833 8.65104 15.1365 7.75729 14.2427C6.86354 13.349 6.41667 12.2681 6.41667 11C6.41667 9.73195 6.86354 8.65104 7.75729 7.75729C8.65104 6.86354 9.73195 6.41667 11 6.41667C12.2681 6.41667 13.349 6.86354 14.2427 7.75729C15.1365 8.65104 15.5833 9.73195 15.5833 11C15.5833 12.2681 15.1365 13.349 14.2427 14.2427C13.349 15.1365 12.2681 15.5833 11 15.5833ZM1.60417 11.9167C1.34444 11.9167 1.12674 11.8288 0.951042 11.6531C0.775347 11.4774 0.6875 11.2597 0.6875 11C0.6875 10.7403 0.775347 10.5226 0.951042 10.3469C1.12674 10.1712 1.34444 10.0833 1.60417 10.0833H3.89583C4.15556 10.0833 4.37326 10.1712 4.54896 10.3469C4.72465 10.5226 4.8125 10.7403 4.8125 11C4.8125 11.2597 4.72465 11.4774 4.54896 11.6531C4.37326 11.8288 4.15556 11.9167 3.89583 11.9167H1.60417ZM18.1042 11.9167C17.8444 11.9167 17.6267 11.8288 17.451 11.6531C17.2753 11.4774 17.1875 11.2597 17.1875 11C17.1875 10.7403 17.2753 10.5226 17.451 10.3469C17.6267 10.1712 17.8444 10.0833 18.1042 10.0833H20.3958C20.6556 10.0833 20.8733 10.1712 21.049 10.3469C21.2247 10.5226 21.3125 10.7403 21.3125 11C21.3125 11.2597 21.2247 11.4774 21.049 11.6531C20.8733 11.8288 20.6556 11.9167 20.3958 11.9167H18.1042ZM11 4.8125C10.7403 4.8125 10.5226 4.72465 10.3469 4.54896C10.1712 4.37326 10.0833 4.15556 10.0833 3.89583V1.60417C10.0833 1.34444 10.1712 1.12674 10.3469 0.951042C10.5226 0.775347 10.7403 0.6875 11 0.6875C11.2597 0.6875 11.4774 0.775347 11.6531 0.951042C11.8288 1.12674 11.9167 1.34444 11.9167 1.60417V3.89583C11.9167 4.15556 11.8288 4.37326 11.6531 4.54896C11.4774 4.72465 11.2597 4.8125 11 4.8125ZM11 21.3125C10.7403 21.3125 10.5226 21.2247 10.3469 21.049C10.1712 20.8733 10.0833 20.6556 10.0833 20.3958V18.1042C10.0833 17.8444 10.1712 17.6267 10.3469 17.451C10.5226 17.2753 10.7403 17.1875 11 17.1875C11.2597 17.1875 11.4774 17.2753 11.6531 17.451C11.8288 17.6267 11.9167 17.8444 11.9167 18.1042V20.3958C11.9167 20.6556 11.8288 20.8733 11.6531 21.049C11.4774 21.2247 11.2597 21.3125 11 21.3125ZM5.33958 6.62292L4.03333 5.33958C3.85 5.17153 3.76215 4.95764 3.76979 4.69792C3.77743 4.43819 3.86528 4.21667 4.03333 4.03333C4.21667 3.85 4.43056 3.75833 4.675 3.75833C4.91944 3.75833 5.14097 3.85 5.33958 4.03333L6.62292 5.33958C6.79097 5.52292 6.875 5.73681 6.875 5.98125C6.875 6.22569 6.79097 6.43194 6.62292 6.6C6.45486 6.78333 6.24479 6.87882 5.99271 6.88646C5.74062 6.8941 5.52292 6.80625 5.33958 6.62292ZM16.6604 17.9667L15.3771 16.6604C15.209 16.4771 15.125 16.2632 15.125 16.0188C15.125 15.7743 15.209 15.5604 15.3771 15.3771C15.5451 15.1938 15.7552 15.1021 16.0073 15.1021C16.2594 15.1021 16.4771 15.1938 16.6604 15.3771L17.9667 16.6604C18.15 16.8285 18.2378 17.0424 18.2302 17.3021C18.2226 17.5618 18.1347 17.7833 17.9667 17.9667C17.7833 18.15 17.5694 18.2417 17.325 18.2417C17.0806 18.2417 16.859 18.15 16.6604 17.9667ZM15.3771 6.62292C15.1938 6.45486 15.1021 6.24479 15.1021 5.99271C15.1021 5.74062 15.1938 5.52292 15.3771 5.33958L16.6604 4.03333C16.8285 3.85 17.0424 3.76215 17.3021 3.76979C17.5618 3.77743 17.7833 3.86528 17.9667 4.03333C18.15 4.21667 18.2417 4.43056 18.2417 4.675C18.2417 4.91944 18.15 5.14097 17.9667 5.33958L16.6604 6.62292C16.4924 6.79097 16.2823 6.875 16.0302 6.875C15.7781 6.875 15.5604 6.79097 15.3771 6.62292ZM4.03333 17.9667C3.85 17.7833 3.75833 17.5694 3.75833 17.325C3.75833 17.0806 3.85 16.859 4.03333 16.6604L5.33958 15.3771C5.52292 15.1938 5.73299 15.1021 5.96979 15.1021C6.2066 15.1021 6.41667 15.1938 6.6 15.3771C6.79861 15.5451 6.89792 15.7552 6.89792 16.0073C6.89792 16.2594 6.80625 16.4771 6.62292 16.6604L5.33958 17.9667C5.17153 18.15 4.95764 18.2378 4.69792 18.2302C4.43819 18.2226 4.21667 18.1347 4.03333 17.9667Z" />
</g>
<defs>
<clipPath id="clip0_850_3050">
<rect width="22" height="22" fill="white"/>
</clipPath>
</defs>
</svg>
