<svg width="26" height="26" viewBox="0 0 26 26" fill="none" xmlns="http://www.w3.org/2000/svg">
<path d="M21.5256 9.31665C21.4449 9.1311 21.3138 8.97186 21.1473 8.85697C20.9807 8.74209 20.7852 8.67616 20.5831 8.66665H15.6215L16.9973 3.53165C17.0411 3.37097 17.0473 3.20234 17.0153 3.03888C16.9834 2.87542 16.9142 2.72152 16.8131 2.58915C16.7122 2.45805 16.5826 2.35181 16.4342 2.27857C16.2859 2.20533 16.1227 2.16705 15.9573 2.16665H8.37395C8.12938 2.15827 7.88917 2.23295 7.69245 2.37852C7.49574 2.52409 7.3541 2.73198 7.29062 2.96832L4.38729 13.8017C4.34347 13.9623 4.33729 14.131 4.36923 14.2944C4.40117 14.4579 4.47037 14.6118 4.57145 14.7442C4.67349 14.8767 4.80483 14.9838 4.95519 15.0571C5.10555 15.1304 5.27085 15.1679 5.43812 15.1667H9.63062L7.66979 22.4683C7.60554 22.7038 7.62268 22.954 7.71843 23.1785C7.81418 23.403 7.98293 23.5886 8.19733 23.7052C8.41173 23.8218 8.65922 23.8626 8.8997 23.8209C9.14018 23.7793 9.35956 23.6577 9.52229 23.4758L21.3306 10.4758C21.4712 10.3219 21.5644 10.1306 21.599 9.92498C21.6336 9.71937 21.6081 9.50814 21.5256 9.31665ZM10.9198 18.72L12.079 14.3867C12.1228 14.226 12.129 14.0573 12.097 13.8939C12.0651 13.7304 11.9959 13.5765 11.8948 13.4442C11.7939 13.3131 11.6643 13.2068 11.5159 13.1336C11.3676 13.0603 11.2044 13.022 11.039 13.0217H6.87895L9.19729 4.33332H14.5381L13.1623 9.46832C13.1181 9.63196 13.113 9.80369 13.1472 9.96969C13.1815 10.1357 13.2543 10.2913 13.3596 10.4241C13.465 10.5569 13.6001 10.6631 13.7539 10.7341C13.9078 10.8052 14.0762 10.8392 14.2456 10.8333H18.1131L10.9198 18.72Z" fill="#434656"/>
</svg>
