<svg width="24" height="24" viewBox="0 0 24 24" fill="none" xmlns="http://www.w3.org/2000/svg">
<path opacity="0.1" fill-rule="evenodd" clip-rule="evenodd" d="M0 12C0 5.37258 5.37258 0 12 0C18.6274 0 24 5.37258 24 12C24 18.6274 18.6274 24 12 24C5.37258 24 0 18.6274 0 12Z" fill="white"/>
<g clip-path="url(#clip0_468_4231)">
<path d="M8.61725 17.25H6.07756V9.07137H8.61725V17.25ZM7.34588 7.95575C6.53388 7.95575 5.875 7.28288 5.875 6.47088C5.875 6.08077 6.02997 5.70665 6.30581 5.43081C6.58165 5.15497 6.95577 5 7.34588 5C7.73598 5 8.1101 5.15497 8.38594 5.43081C8.66178 5.70665 8.81675 6.08077 8.81675 6.47088C8.81675 7.28288 8.15788 7.95575 7.34588 7.95575ZM18.1224 17.25H15.5884V13.2688C15.5884 12.3198 15.5691 11.1031 14.268 11.1031C12.9476 11.1031 12.7451 12.1339 12.7451 13.2005V17.25H10.208V9.07137H12.6436V10.187H12.679C13.0181 9.54431 13.8463 8.86619 15.0818 8.86619C17.6521 8.86619 18.1246 10.5589 18.1246 12.7573V17.25H18.1224Z" fill="white"/>
</g>
<defs>
<clipPath id="clip0_468_4231">
<rect width="14" height="14" fill="white" transform="translate(5 5)"/>
</clipPath>
</defs>
</svg>
