<svg width="24" height="25" viewBox="0 0 24 25" fill="none" xmlns="http://www.w3.org/2000/svg">
<path d="M21.94 11.232C21.57 8.76203 19.32 7.00203 16.82 7.00203H13.95C13.43 7.00203 13 7.43203 13 7.95203C13 8.47203 13.43 8.90203 13.95 8.90203H16.85C18.45 8.90203 19.8899 10.042 20.07 11.632C20.24 13.062 19.43 14.322 18.2199 14.852L19.62 16.252C21.25 15.232 22.26 13.342 21.94 11.232ZM4.11995 3.56203C3.72995 3.17203 3.09995 3.17203 2.70995 3.56203C2.31995 3.95203 2.31995 4.58203 2.70995 4.97203L5.10995 7.37203C3.16995 8.17203 1.83995 10.142 2.01995 12.412C2.22995 15.052 4.58995 17.002 7.22995 17.002H10.05C10.57 17.002 11 16.572 11 16.052C11 15.532 10.57 15.102 10.05 15.102H7.15995C5.52995 15.102 4.05995 13.912 3.90995 12.282C3.75995 10.562 5.01995 9.11203 6.65995 8.93203L8.75995 11.032C8.32995 11.122 7.99995 11.492 7.99995 11.952V12.052C7.99995 12.572 8.42995 13.002 8.94995 13.002H10.7299L13 15.272V17.002H14.7299L18.03 20.302C18.42 20.692 19.05 20.692 19.44 20.302C19.83 19.912 19.83 19.282 19.44 18.892L4.11995 3.56203ZM16 11.952C16 11.432 15.57 11.002 15.05 11.002H14.39L15.88 12.492C15.95 12.362 16 12.212 16 12.052V11.952Z" fill="#DD4343"/>
</svg>
