<svg width="18" height="18" viewBox="0 0 18 18" fill="none" xmlns="http://www.w3.org/2000/svg">
<path d="M13.5 8.115C13.3011 8.115 13.1103 8.19402 12.9697 8.33467C12.829 8.47532 12.75 8.66609 12.75 8.865V14.25C12.75 14.4489 12.671 14.6397 12.5303 14.7803C12.3897 14.921 12.1989 15 12 15H3.75C3.55109 15 3.36032 14.921 3.21967 14.7803C3.07902 14.6397 3 14.4489 3 14.25V6C3 5.80109 3.07902 5.61032 3.21967 5.46967C3.36032 5.32902 3.55109 5.25 3.75 5.25H9.135C9.33391 5.25 9.52468 5.17098 9.66533 5.03033C9.80598 4.88968 9.885 4.69891 9.885 4.5C9.885 4.30109 9.80598 4.11032 9.66533 3.96967C9.52468 3.82902 9.33391 3.75 9.135 3.75H3.75C3.15326 3.75 2.58097 3.98705 2.15901 4.40901C1.73705 4.83097 1.5 5.40326 1.5 6V14.25C1.5 14.8467 1.73705 15.419 2.15901 15.841C2.58097 16.2629 3.15326 16.5 3.75 16.5H12C12.5967 16.5 13.169 16.2629 13.591 15.841C14.0129 15.419 14.25 14.8467 14.25 14.25V8.865C14.25 8.66609 14.171 8.47532 14.0303 8.33467C13.8897 8.19402 13.6989 8.115 13.5 8.115ZM16.44 1.965C16.3639 1.78174 16.2183 1.63611 16.035 1.56C15.9448 1.52157 15.848 1.50118 15.75 1.5H11.25C11.0511 1.5 10.8603 1.57902 10.7197 1.71967C10.579 1.86032 10.5 2.05109 10.5 2.25C10.5 2.44891 10.579 2.63968 10.7197 2.78033C10.8603 2.92098 11.0511 3 11.25 3H13.9425L6.2175 10.7175C6.1472 10.7872 6.09141 10.8702 6.05333 10.9616C6.01525 11.053 5.99565 11.151 5.99565 11.25C5.99565 11.349 6.01525 11.447 6.05333 11.5384C6.09141 11.6298 6.1472 11.7128 6.2175 11.7825C6.28722 11.8528 6.37017 11.9086 6.46157 11.9467C6.55296 11.9847 6.65099 12.0043 6.75 12.0043C6.84901 12.0043 6.94704 11.9847 7.03843 11.9467C7.12983 11.9086 7.21278 11.8528 7.2825 11.7825L15 4.0575V6.75C15 6.94891 15.079 7.13968 15.2197 7.28033C15.3603 7.42098 15.5511 7.5 15.75 7.5C15.9489 7.5 16.1397 7.42098 16.2803 7.28033C16.421 7.13968 16.5 6.94891 16.5 6.75V2.25C16.4988 2.15199 16.4784 2.05517 16.44 1.965Z" fill="#0052CC"/>
</svg>
