<svg width="40" height="40" viewBox="0 0 40 40" fill="none" xmlns="http://www.w3.org/2000/svg">
<circle cx="20" cy="20" r="20" fill="#F6F9FF"/>
<path d="M15.2166 28.3417C15.975 28.8083 16.7333 29.1583 17.55 29.3333C18.3666 29.5083 19.1833 29.625 20 29.625C22.5666 29.625 24.8416 28.6917 26.7083 26.825C28.6333 24.9583 29.5666 22.7417 29.5666 20.1167V18.8917L31.725 21.05L33.0083 19.7667L28.4583 15.2167L23.9083 19.7667L25.1916 21.05L27.2916 18.95V20.1167C27.2916 22.1 26.5916 23.7917 25.1333 25.1917C23.675 26.5917 21.9833 27.35 20 27.35C19.4166 27.35 18.8333 27.2917 18.3083 27.175C17.7833 27.0583 17.3166 26.8833 16.85 26.7083L15.2166 28.3417ZM6.99164 20.35L11.5416 24.9L16.15 20.35L14.8666 19.0667L12.7083 21.225V19.9417C12.7083 17.9583 13.4083 16.2667 14.8666 14.8667C16.325 13.4667 18.0166 12.7083 20 12.7083C20.5833 12.7083 21.1666 12.7667 21.6916 12.8833C22.2166 13 22.6833 13.175 23.15 13.35L24.7833 11.7167C24.025 11.25 23.2666 10.9 22.45 10.725C21.6333 10.4917 20.8166 10.4333 20 10.4333C17.375 10.4333 15.1583 11.3667 13.2333 13.2333C11.3083 15.1 10.375 17.3167 10.375 19.8833V21.225L8.21664 19.0667L6.99164 20.35Z" fill="#0033AD"/>
<path d="M18.775 22.1583L18.3083 23.675H16.85L17.3166 22.1583H16.9083V20.9333H17.725L17.9583 20.2333H16.9083V19.0083H18.3666L19.2416 16.3833H20.8166L21.6333 19.0083H22.975V20.2333H22.0416L22.275 20.9333H22.975V22.1583H22.6833L23.15 23.675H21.6333L21.225 22.1583H18.775ZM20.8166 20.875L20.6416 20.175H19.3583L19.1833 20.875H20.8166ZM20.2916 18.95L20 18.0167L19.7083 18.95H20.2916Z" fill="#0033AD"/>
</svg>
