<svg width="50" height="50" viewBox="0 0 50 50" fill="none" xmlns="http://www.w3.org/2000/svg">
<circle cx="25" cy="25" r="25" fill="url(#paint0_linear_721_11927)"/>
<path fill-rule="evenodd" clip-rule="evenodd" d="M30.07 30.265H36.865C37.2524 30.2766 37.6203 30.4377 37.8915 30.7145C38.1627 30.9914 38.3163 31.3625 38.32 31.75V38.5C38.32 38.8978 38.162 39.2794 37.8807 39.5607C37.5994 39.842 37.2178 40 36.82 40C36.4222 40 36.0406 39.842 35.7593 39.5607C35.478 39.2794 35.32 38.8978 35.32 38.5V35.845C33.1943 37.8603 30.525 39.2091 27.6415 39.725C24.7581 40.2408 21.7867 39.9011 19.0941 38.7478C16.4015 37.5945 14.1055 35.6781 12.4894 33.235C10.8733 30.792 10.0079 27.9292 10 25C10 24.6022 10.158 24.2206 10.4393 23.9393C10.7206 23.658 11.1022 23.5 11.5 23.5C11.8978 23.5 12.2794 23.658 12.5607 23.9393C12.842 24.2206 13 24.6022 13 25C13.0063 27.3932 13.728 29.7299 15.0724 31.7098C16.4168 33.6897 18.3225 35.2223 20.5447 36.1109C22.7668 36.9994 25.2039 37.2032 27.5427 36.6961C29.8816 36.189 32.0154 34.9941 33.67 33.265H30.07C29.6722 33.265 29.2906 33.107 29.0093 32.8257C28.728 32.5444 28.57 32.1628 28.57 31.765C28.57 31.3672 28.728 30.9856 29.0093 30.7043C29.2906 30.423 29.6722 30.265 30.07 30.265ZM14.68 14.155C17.4602 11.4984 21.1546 10.011 25 10C26.9698 10 28.9204 10.388 30.7403 11.1418C32.5601 11.8956 34.2137 13.0005 35.6066 14.3934C36.9995 15.7863 38.1044 17.4399 38.8582 19.2597C39.612 21.0796 40 23.0302 40 25C40 25.3978 39.842 25.7794 39.5607 26.0607C39.2794 26.342 38.8978 26.5 38.5 26.5C38.1022 26.5 37.7206 26.342 37.4393 26.0607C37.158 25.7794 37 25.3978 37 25C36.9908 22.6081 36.2669 20.2735 34.9213 18.2959C33.5758 16.3183 31.6699 14.788 29.4484 13.9013C27.2269 13.0146 24.7911 12.8121 22.4536 13.3197C20.1161 13.8272 17.9837 15.0218 16.33 16.75H19.93C20.3278 16.75 20.7094 16.908 20.9907 17.1893C21.272 17.4706 21.43 17.8522 21.43 18.25C21.43 18.6478 21.272 19.0294 20.9907 19.3107C20.7094 19.592 20.3278 19.75 19.93 19.75H13.18C12.7822 19.75 12.4006 19.592 12.1193 19.3107C11.838 19.0294 11.68 18.6478 11.68 18.25V11.5C11.68 11.1022 11.838 10.7206 12.1193 10.4393C12.4006 10.158 12.7822 10 13.18 10C13.5778 10 13.9594 10.158 14.2407 10.4393C14.522 10.7206 14.68 11.1022 14.68 11.5V14.155ZM29.4811 21.7977C29.1843 22.0804 28.7861 22.2356 28.3753 22.2356H23.8753C23.6894 22.2356 23.5152 22.3062 23.3901 22.4253C23.2658 22.5437 23.2003 22.6995 23.2003 22.8571C23.2003 23.0146 23.2658 23.1704 23.3901 23.2888C23.5152 23.408 23.6894 23.4785 23.8753 23.4785H26.1253C27.1329 23.4785 28.1033 23.8595 28.8221 24.5441C29.5417 25.2294 29.9503 26.1637 29.9503 27.1428C29.9503 28.1219 29.5417 29.0562 28.8221 29.7415C28.2111 30.3234 27.4182 30.686 26.5753 30.7816V31.4285C26.5753 31.8393 26.4037 32.2285 26.1061 32.512C25.8093 32.7947 25.4111 32.9499 25.0003 32.9499C24.5895 32.9499 24.1913 32.7947 23.8945 32.512C23.5968 32.2285 23.4253 31.8393 23.4253 31.4285V30.8071H21.6253C21.2145 30.8071 20.8163 30.6518 20.5195 30.3691C20.2218 30.0857 20.0503 29.6964 20.0503 29.2856C20.0503 28.8749 20.2218 28.4856 20.5195 28.2022C20.8163 27.9194 21.2145 27.7642 21.6253 27.7642H26.1253C26.3112 27.7642 26.4854 27.6937 26.6104 27.5745C26.7348 27.4561 26.8003 27.3003 26.8003 27.1428C26.8003 26.9853 26.7348 26.8295 26.6104 26.711C26.4854 26.5919 26.3112 26.5214 26.1253 26.5214H23.8753C22.8677 26.5214 21.8973 26.1404 21.1785 25.4558C20.4589 24.7705 20.0503 23.8362 20.0503 22.8571C20.0503 21.878 20.4589 20.9437 21.1785 20.2584C21.7895 19.6764 22.5824 19.3139 23.4253 19.2182V18.5714C23.4253 18.1606 23.5968 17.7713 23.8945 17.4879C24.1913 17.2051 24.5895 17.0499 25.0003 17.0499C25.4111 17.0499 25.8093 17.2051 26.1061 17.4879C26.4037 17.7713 26.5753 18.1606 26.5753 18.5714V19.1928H28.3753C28.7861 19.1928 29.1843 19.348 29.4811 19.6307C29.7787 19.9142 29.9503 20.3034 29.9503 20.7142C29.9503 21.125 29.7787 21.5142 29.4811 21.7977ZM29.1705 21.4719C29.0369 21.5992 28.8731 21.6911 28.6951 21.7414C28.8732 21.6911 29.0371 21.5992 29.1708 21.4718C29.3818 21.2709 29.5003 20.9984 29.5003 20.7142C29.5003 20.4301 29.3818 20.1575 29.1708 19.9566C28.9598 19.7557 28.6737 19.6428 28.3753 19.6428H26.1253V18.5714C26.1253 18.2872 26.0068 18.0147 25.7958 17.8137C25.5848 17.6128 25.2987 17.4999 25.0003 17.4999C24.9035 17.4999 24.808 17.5118 24.7159 17.5347C24.8079 17.5119 24.9033 17.5 25 17.5C25.2984 17.5 25.5845 17.6129 25.7955 17.8138C26.0065 18.0147 26.125 18.2873 26.125 18.5714V19.6429H28.375C28.6734 19.6429 28.9595 19.7557 29.1705 19.9567C29.3815 20.1576 29.5 20.4301 29.5 20.7143C29.5 20.9984 29.3815 21.271 29.1705 21.4719ZM23.0795 22.0995C23.2221 21.9637 23.3991 21.8681 23.5909 21.8204C23.3992 21.8681 23.2223 21.9637 23.0798 22.0995C22.8688 22.3004 22.7503 22.5729 22.7503 22.8571C22.7503 23.1412 22.8688 23.4138 23.0798 23.6147C23.2908 23.8156 23.5769 23.9285 23.8753 23.9285H26.1253C27.0204 23.9285 27.8788 24.2671 28.5118 24.8699C29.1447 25.4727 29.5003 26.2903 29.5003 27.1428C29.5003 27.9953 29.1447 28.8128 28.5118 29.4156C28.1266 29.7825 27.6578 30.0515 27.1481 30.2059C27.6577 30.0515 28.1263 29.7825 28.5115 29.4157C29.1444 28.8129 29.5 27.9953 29.5 27.1429C29.5 26.2904 29.1444 25.4728 28.5115 24.87C27.8786 24.2672 27.0201 23.9286 26.125 23.9286H23.875C23.5766 23.9286 23.2905 23.8157 23.0795 23.6148C22.8685 23.4138 22.75 23.1413 22.75 22.8571C22.75 22.573 22.8685 22.3005 23.0795 22.0995ZM26.125 30.3571H26.1253V31.4285C26.1253 31.7127 26.0068 31.9852 25.7958 32.1861C25.6665 32.3092 25.5091 32.3992 25.3379 32.4505C25.509 32.3992 25.6663 32.3092 25.7955 32.1862C26.0065 31.9853 26.125 31.7127 26.125 31.4286V30.3571ZM21.625 28.2143C21.5283 28.2143 21.4329 28.2261 21.3409 28.249C21.433 28.2261 21.5285 28.2142 21.6253 28.2142H26.1253C26.222 28.2142 26.3174 28.2024 26.4094 28.1795C26.3173 28.2024 26.2218 28.2143 26.125 28.2143H21.625ZM23.875 19.6428C23.5831 19.6428 23.2951 19.6788 23.0175 19.7483C23.2951 19.6789 23.5831 19.6429 23.875 19.6429V19.6428Z" fill="white"/>
<defs>
<linearGradient id="paint0_linear_721_11927" x1="0" y1="25" x2="50" y2="25" gradientUnits="userSpaceOnUse">
<stop stop-color="#2193B0"/>
<stop offset="1" stop-color="#6DD5ED"/>
</linearGradient>
</defs>
</svg>
