<svg width="30" height="30" viewBox="0 0 30 30" fill="none" xmlns="http://www.w3.org/2000/svg">
<path d="M5.38411 12.1811L8.57831 13.5492C8.94062 12.8623 9.32128 12.1739 9.72031 11.484C10.1194 10.7942 10.5367 10.1314 10.9725 9.49566L8.54641 9.01883L5.38411 12.1811ZM10.7058 15.1261L15.0073 19.4464C16.3493 18.7932 17.5508 18.122 18.6116 17.4326C19.6725 16.7432 20.5411 16.0604 21.2174 15.384C22.9672 13.6217 24.258 11.8338 25.0899 10.0203C25.9218 8.20677 26.3899 6.07971 26.4942 3.63913C24.0537 3.74349 21.9266 4.2116 20.1131 5.04346C18.2996 5.87535 16.5179 7.16618 14.7682 8.91593C14.0918 9.59227 13.409 10.4609 12.7196 11.5217C12.0303 12.5826 11.359 13.784 10.7058 15.1261ZM18.5088 11.6435C18.0769 11.2116 17.8609 10.6836 17.8609 10.0594C17.8609 9.43524 18.0769 8.90722 18.5088 8.47533C18.9406 8.05602 19.4655 7.84636 20.0834 7.84636C20.7013 7.84636 21.2262 8.05602 21.658 8.47533C22.0774 8.90722 22.287 9.43524 22.287 10.0594C22.287 10.6836 22.0774 11.2116 21.658 11.6435C21.2262 12.0628 20.7013 12.2724 20.0834 12.2724C19.4655 12.2724 18.9406 12.0628 18.5088 11.6435ZM17.9334 24.7493L21.1145 21.587L20.6377 19.1609C20.002 19.5966 19.3392 20.0172 18.6493 20.4225C17.9595 20.8278 17.2711 21.2053 16.5841 21.5551L17.9334 24.7493ZM29.2146 0.937631C29.3895 4.3367 28.9834 7.33092 27.9964 9.9203C27.0095 12.5097 25.4286 14.8981 23.2537 17.0855C23.2064 17.1203 23.159 17.1645 23.1117 17.2181C23.0643 17.2718 23.0233 17.316 22.9885 17.3507L23.7218 21.0551C23.8136 21.5015 23.7907 21.9336 23.653 22.3515C23.5153 22.7694 23.2865 23.1382 22.9667 23.458L17.0595 29.3987L13.9247 22.1015L8.03191 16.2087L0.734772 13.0739L6.69421 7.16663C7.01401 6.84683 7.37971 6.61809 7.79131 6.4804C8.20291 6.34271 8.63191 6.31976 9.07831 6.41156L12.7826 7.1449C12.8174 7.11012 12.8585 7.07775 12.9058 7.0478C12.9532 7.01784 13.0005 6.98548 13.0479 6.9507C15.2353 4.7507 17.6269 3.1548 20.2225 2.163C22.8182 1.17122 25.8155 0.762765 29.2146 0.937631ZM3.38261 20.242C4.26087 19.3638 5.31765 18.9222 6.55294 18.9174C7.78821 18.9126 8.83868 19.343 9.70437 20.2087C10.5575 21.0618 10.9817 22.1092 10.9769 23.3507C10.972 24.5923 10.5368 25.6459 9.67104 26.5116C9.00535 27.1773 7.97588 27.7242 6.58264 28.1522C5.18939 28.5803 3.23769 28.9358 0.727539 29.219C1.01063 26.7088 1.36063 24.7483 1.77754 23.3377C2.19445 21.9271 2.72947 20.8952 3.38261 20.242ZM5.25367 22.1276C4.95512 22.4483 4.70559 22.914 4.50511 23.5247C4.30462 24.1353 4.11548 24.9585 3.93771 25.9942C4.97346 25.8164 5.79665 25.621 6.40727 25.408C7.01789 25.1949 7.47732 24.9391 7.78554 24.6406C8.17007 24.3131 8.36162 23.8974 8.36017 23.3935C8.35871 22.8896 8.18309 22.4454 7.83334 22.0609C7.44881 21.7111 7.00461 21.5418 6.50074 21.5529C5.99689 21.564 5.58121 21.7556 5.25367 22.1276Z" fill="#6C6F89"/>
</svg>
