<svg width="35" height="35" viewBox="0 0 35 35" fill="none" xmlns="http://www.w3.org/2000/svg">
<circle cx="17.5" cy="17.5" r="17.5" fill="#B60000"/>
<path fill-rule="evenodd" clip-rule="evenodd" d="M20.711 20.8345H25.0145C25.2598 20.8419 25.4928 20.9439 25.6646 21.1192C25.8364 21.2945 25.9337 21.5296 25.936 21.775V26.05C25.936 26.302 25.8359 26.5436 25.6578 26.7218C25.4796 26.8999 25.238 27 24.986 27C24.734 27 24.4924 26.8999 24.3142 26.7218C24.1361 26.5436 24.036 26.302 24.036 26.05V24.3685C22.6897 25.6449 20.9991 26.4991 19.173 26.8258C17.3468 27.1525 15.4649 26.9374 13.7596 26.207C12.0543 25.4765 10.6001 24.2628 9.57662 22.7155C8.55311 21.1683 8.00502 19.3552 8 17.5C8 17.248 8.10009 17.0064 8.27825 16.8282C8.45641 16.6501 8.69804 16.55 8.95 16.55C9.20196 16.55 9.44359 16.6501 9.62175 16.8282C9.79991 17.0064 9.9 17.248 9.9 17.5C9.90397 19.0157 10.361 20.4956 11.2125 21.7495C12.064 23.0034 13.2709 23.9741 14.6783 24.5369C16.0856 25.0996 17.6291 25.2287 19.1104 24.9075C20.5917 24.5863 21.9431 23.8296 22.991 22.7345H20.711C20.459 22.7345 20.2174 22.6344 20.0392 22.4563C19.8611 22.2781 19.761 22.0365 19.761 21.7845C19.761 21.5325 19.8611 21.2909 20.0392 21.1127C20.2174 20.9346 20.459 20.8345 20.711 20.8345ZM10.964 10.6315C12.7248 8.94897 15.0646 8.00695 17.5 8C18.7476 8 19.9829 8.24572 21.1355 8.72314C22.2881 9.20056 23.3354 9.90033 24.2175 10.7825C25.0997 11.6646 25.7994 12.7119 26.2769 13.8645C26.7543 15.0171 27 16.2524 27 17.5C27 17.752 26.8999 17.9936 26.7218 18.1718C26.5436 18.3499 26.302 18.45 26.05 18.45C25.798 18.45 25.5564 18.3499 25.3782 18.1718C25.2001 17.9936 25.1 17.752 25.1 17.5C25.0941 15.9851 24.6357 14.5065 23.7835 13.2541C22.9313 12.0016 21.7243 11.0324 20.3173 10.4708C18.9104 9.90926 17.3677 9.78098 15.8873 10.1025C14.4069 10.4239 13.0563 11.1805 12.009 12.275H14.289C14.541 12.275 14.7826 12.3751 14.9608 12.5532C15.1389 12.7314 15.239 12.973 15.239 13.225C15.239 13.477 15.1389 13.7186 14.9608 13.8968C14.7826 14.0749 14.541 14.175 14.289 14.175H10.014C9.76204 14.175 9.52041 14.0749 9.34225 13.8968C9.16409 13.7186 9.064 13.477 9.064 13.225V8.95C9.064 8.69804 9.16409 8.45641 9.34225 8.27825C9.52041 8.10009 9.76204 8 10.014 8C10.266 8 10.5076 8.10009 10.6858 8.27825C10.8639 8.45641 10.964 8.69804 10.964 8.95V10.6315ZM20.3382 15.4719C20.1502 15.651 19.8981 15.7493 19.6379 15.7493H16.7879C16.6701 15.7493 16.5598 15.794 16.4806 15.8694C16.4018 15.9444 16.3604 16.0431 16.3604 16.1429C16.3604 16.2426 16.4018 16.3413 16.4806 16.4163C16.5598 16.4917 16.6701 16.5364 16.7879 16.5364H18.2129C18.851 16.5364 19.4656 16.7777 19.9209 17.2113C20.3766 17.6453 20.6354 18.237 20.6354 18.8571C20.6354 19.4772 20.3766 20.069 19.9209 20.503C19.5339 20.8716 19.0317 21.1012 18.4979 21.1617V21.5714C18.4979 21.8316 18.3892 22.0781 18.2007 22.2576C18.0127 22.4367 17.7606 22.535 17.5004 22.535C17.2402 22.535 16.988 22.4367 16.8 22.2576C16.6115 22.0781 16.5029 21.8316 16.5029 21.5714V21.1779H15.3629C15.1027 21.1779 14.8505 21.0795 14.6625 20.9005C14.474 20.721 14.3654 20.4744 14.3654 20.2143C14.3654 19.9541 14.474 19.7076 14.6625 19.5281C14.8505 19.349 15.1027 19.2507 15.3629 19.2507H18.2129C18.3306 19.2507 18.4409 19.206 18.5201 19.1306C18.5989 19.0556 18.6404 18.9569 18.6404 18.8571C18.6404 18.7574 18.5989 18.6587 18.5201 18.5837C18.4409 18.5082 18.3306 18.4636 18.2129 18.4636H16.7879C16.1497 18.4636 15.5351 18.2223 15.0799 17.7887C14.6241 17.3547 14.3654 16.763 14.3654 16.1429C14.3654 15.5228 14.6241 14.931 15.0799 14.497C15.4669 14.1284 15.969 13.8988 16.5029 13.8383V13.4286C16.5029 13.1684 16.6115 12.9219 16.8 12.7424C16.988 12.5633 17.2402 12.465 17.5004 12.465C17.7606 12.465 18.0127 12.5633 18.2007 12.7424C18.3892 12.9219 18.4979 13.1684 18.4979 13.4286V13.8221H19.6379C19.8981 13.8221 20.1502 13.9204 20.3382 14.0995C20.5267 14.279 20.6354 14.5255 20.6354 14.7857C20.6354 15.0459 20.5267 15.2924 20.3382 15.4719ZM19.6379 15.4643H16.7879C16.5989 15.4643 16.4177 15.5358 16.284 15.663C16.1504 15.7903 16.0754 15.9629 16.0754 16.1429C16.0754 16.3228 16.1504 16.4954 16.284 16.6227C16.4056 16.7385 16.5666 16.8081 16.737 16.8197C16.5664 16.8082 16.4053 16.7385 16.2837 16.6227C16.15 16.4954 16.075 16.3228 16.075 16.1428C16.075 15.9629 16.15 15.7903 16.2837 15.663C16.4173 15.5357 16.5985 15.4643 16.7875 15.4643H19.6375C19.8264 15.4643 20.0077 15.3928 20.1413 15.2655C20.2749 15.1383 20.35 14.9657 20.35 14.7857C20.35 14.6057 20.2749 14.4331 20.1413 14.3059C20.0197 14.1901 19.8587 14.1205 19.6884 14.1088C19.8589 14.1204 20.02 14.19 20.1417 14.3059C20.2753 14.4331 20.3504 14.6057 20.3504 14.7857C20.3504 14.9657 20.2753 15.1383 20.1417 15.2655C20.0081 15.3928 19.8268 15.4643 19.6379 15.4643ZM19.7239 17.4176C19.3599 17.071 18.8781 16.8622 18.3681 16.8268C18.8783 16.8622 19.3602 17.0709 19.7243 17.4177C20.1252 17.7994 20.3504 18.3172 20.3504 18.8571C20.3504 19.397 20.1252 19.9148 19.7243 20.2966C19.3234 20.6784 18.7798 20.8929 18.2129 20.8929V21.5714C18.2129 21.7514 18.1378 21.924 18.0042 22.0512C17.8706 22.1785 17.6893 22.25 17.5004 22.25C17.4833 22.25 17.4663 22.2494 17.4495 22.2483C17.4662 22.2494 17.4831 22.25 17.5 22.25C17.6889 22.25 17.8702 22.1785 18.0038 22.0512C18.1374 21.924 18.2125 21.7514 18.2125 21.5714V20.8928C18.7794 20.8928 19.3231 20.6784 19.7239 20.2966C20.1248 19.9148 20.35 19.397 20.35 18.8571C20.35 18.3172 20.1248 17.7994 19.7239 17.4176ZM16.7875 20.8928V20.8929H15.3629C15.3458 20.8929 15.3288 20.8923 15.312 20.8911C15.3287 20.8923 15.3456 20.8928 15.3625 20.8928H16.7875ZM18.2125 18.1785C18.2295 18.1785 18.2465 18.1791 18.2634 18.1803C18.2466 18.1791 18.2298 18.1786 18.2129 18.1786H16.7879C16.7447 18.1786 16.7016 18.1773 16.6588 18.1749C16.7015 18.1773 16.7444 18.1785 16.7875 18.1785H18.2125ZM18.0038 12.9487C17.8822 12.8329 17.7212 12.7633 17.5509 12.7517C17.7214 12.7632 17.8825 12.8329 18.0042 12.9487C18.1378 13.076 18.2129 13.2486 18.2129 13.4286V14.1071H18.2125V13.4285C18.2125 13.2486 18.1374 13.076 18.0038 12.9487Z" fill="white"/>
</svg>
