<svg width="35" height="35" viewBox="0 0 35 35" fill="none" xmlns="http://www.w3.org/2000/svg">
<circle cx="17.5" cy="17.5" r="17.5" fill="#131316"/>
<path d="M25.0815 14.3217L22.1286 17.4522C21.9557 17.6355 21.8627 17.8799 21.87 18.1318C21.8774 18.3836 21.9845 18.6223 22.1678 18.7951C22.3511 18.968 22.5955 19.061 22.8474 19.0537C23.0992 19.0463 23.3378 18.9392 23.5107 18.7559L25.0752 17.0974C25.1527 18.6111 24.7759 20.1134 23.9932 21.4113C23.2104 22.7093 22.0574 23.7435 20.6824 24.3811C19.3073 25.0188 17.773 25.2307 16.2766 24.9897C14.7802 24.7486 13.39 24.0657 12.2847 23.0286C12.1014 22.8557 11.857 22.7627 11.6051 22.77C11.3533 22.7774 11.1147 22.8845 10.9418 23.0678C10.7689 23.251 10.6759 23.4955 10.6833 23.7474C10.6906 23.9992 10.7977 24.2378 10.981 24.4107C12.334 25.68 14.029 26.5254 15.8568 26.8425C17.6847 27.1597 19.5654 26.9347 21.2669 26.1954C22.9684 25.456 24.4161 24.2347 25.4315 22.6821C26.4469 21.1295 26.9855 19.3135 26.9809 17.4584L28.204 18.6122C28.3873 18.7851 28.6318 18.8781 28.8836 18.8707C29.1355 18.8634 29.3741 18.7563 29.547 18.573C29.7199 18.3897 29.8129 18.1452 29.8055 17.8934C29.7982 17.6415 29.6911 17.4029 29.5078 17.23L26.398 14.2967C26.2178 14.13 25.9801 14.0394 25.7347 14.0441C25.4893 14.0488 25.2552 14.1482 25.0815 14.3217ZM10.5889 10.9814C8.92285 12.7578 8.00265 15.1062 8.01838 17.5416L6.79519 16.3878C6.6119 16.2149 6.36745 16.1219 6.1156 16.1293C5.86375 16.1366 5.62514 16.2437 5.45226 16.427C5.27937 16.6103 5.18638 16.8548 5.19373 17.1066C5.20108 17.3585 5.30818 17.5971 5.49147 17.77L8.60128 20.7033C8.78456 20.8762 9.02902 20.9692 9.28087 20.9619C9.53271 20.9545 9.77133 20.8474 9.94421 20.6641L12.8776 17.5543C13.0505 17.371 13.1435 17.1266 13.1361 16.8747C13.1288 16.6229 13.0217 16.3843 12.8384 16.2114C12.6551 16.0385 12.4106 15.9455 12.1588 15.9528C11.9069 15.9602 11.6683 16.0673 11.4954 16.2506L9.93098 17.9091C9.85343 16.3962 10.2298 14.8947 11.0117 13.5972C11.7937 12.2997 12.9455 11.2655 14.3195 10.6273C15.6934 9.98919 17.2267 9.77618 18.7225 10.0157C20.2184 10.2552 21.6085 10.9362 22.7145 11.9714C22.8978 12.1443 23.1422 12.2373 23.3941 12.23C23.6459 12.2226 23.8846 12.1155 24.0574 11.9322C24.2303 11.7489 24.3233 11.5045 24.316 11.2526C24.3086 11.0008 24.2015 10.7622 24.0182 10.5893C23.1107 9.73326 22.0435 9.06436 20.8774 8.62078C19.7114 8.1772 18.4694 7.96764 17.2224 8.00404C15.9753 8.04045 14.7477 8.32213 13.6095 8.83298C12.4714 9.34383 11.445 10.0739 10.5889 10.9814Z" fill="#66BDFF"/>
<path d="M15.1523 18.1662C15.0795 18.1662 15.015 18.1662 14.9503 18.1662C14.7479 18.1662 14.5456 18.1688 14.3433 18.1654C14.1576 18.1622 14.0199 18.0341 14.0014 17.8553C13.9852 17.6991 14.1116 17.5405 14.2828 17.5059C14.3254 17.4972 14.3699 17.4939 14.4135 17.4938C14.7357 17.4928 15.0578 17.4932 15.3799 17.4934C15.4067 17.4934 15.428 17.4952 15.441 17.4619C15.5255 17.2453 15.6129 17.0297 15.6993 16.8139C15.7011 16.8093 15.7009 16.804 15.7024 16.7935C15.685 16.7925 15.6686 16.791 15.6523 16.791C15.4462 16.7908 15.2401 16.7913 15.0341 16.7907C14.8382 16.7901 14.6873 16.6539 14.6758 16.4684C14.6654 16.3021 14.8161 16.1319 15.0001 16.1225C15.2116 16.1116 15.4241 16.1166 15.6362 16.1152C15.7396 16.1145 15.8431 16.1123 15.9464 16.1163C15.9866 16.1178 16.0014 16.1031 16.0141 16.0707C16.1211 15.7973 16.2295 15.5246 16.3376 15.2515C16.4857 14.8776 16.6338 14.5038 16.7818 14.1298C16.9011 13.8285 17.0193 13.5268 17.1397 13.2259C17.1966 13.0839 17.3266 12.9986 17.4759 13C17.6288 13.0014 17.7449 13.0857 17.8055 13.2327C18.0024 13.7114 18.2011 14.1895 18.3987 14.6678C18.5918 15.1353 18.7849 15.6028 18.9764 16.071C18.9914 16.1077 19.0073 16.1227 19.051 16.1224C19.3466 16.1202 19.6424 16.1215 19.9381 16.1212C20.1481 16.121 20.3078 16.2678 20.3055 16.46C20.3031 16.642 20.1318 16.7955 19.9327 16.7949C19.7231 16.7943 19.5136 16.7947 19.3041 16.7949C19.2957 16.7949 19.2874 16.7957 19.274 16.7963C19.3218 16.9139 19.3679 17.0284 19.4148 17.1425C19.458 17.2476 19.5047 17.3517 19.5447 17.4579C19.5589 17.4961 19.5795 17.5041 19.6174 17.5039C19.9518 17.5028 20.2862 17.5028 20.6207 17.5033C20.7611 17.5035 20.8766 17.5566 20.949 17.673C21.0757 17.877 20.9559 18.1253 20.7055 18.1622C20.5644 18.183 20.4184 18.1746 20.2745 18.1765C20.1237 18.1785 19.9729 18.1769 19.8149 18.1769C19.8508 18.2649 19.8842 18.3479 19.9184 18.4305C20.0977 18.8632 20.2772 19.2959 20.4567 19.7284C20.564 19.987 20.6714 20.2456 20.7794 20.5039C20.8315 20.6286 20.8394 20.7515 20.7574 20.867C20.6771 20.98 20.5574 21.0113 20.4234 20.9966C20.2916 20.9822 20.1999 20.912 20.15 20.7934C20.0861 20.6417 20.0229 20.4897 19.9603 20.3375C19.8303 20.022 19.7013 19.7062 19.5712 19.3908C19.4093 18.9984 19.2461 18.6066 19.0853 18.214C19.0722 18.182 19.0574 18.1712 19.0215 18.1713C17.9965 18.1724 16.9716 18.1722 15.9466 18.1721C15.9196 18.1721 15.8991 18.1717 15.8859 18.2046C15.7129 18.638 15.5375 19.0706 15.3631 19.5035C15.1945 19.9222 15.0265 20.3412 14.8579 20.7599C14.7807 20.9517 14.5627 21.0102 14.4161 20.9533C14.2235 20.8786 14.1427 20.6823 14.2165 20.5012C14.362 20.1445 14.5033 19.7862 14.6467 19.4289C14.7718 19.1171 14.8977 18.8055 15.0229 18.4938C15.0657 18.3873 15.1073 18.2804 15.1527 18.166L15.1523 18.1662ZM16.1856 17.501H18.7889C18.783 17.4832 18.7792 17.4689 18.7736 17.4553C18.6896 17.2513 18.6041 17.0479 18.5221 16.8432C18.5071 16.8058 18.4896 16.7936 18.4471 16.7937C17.9701 16.7951 17.493 16.7941 17.016 16.7938C16.833 16.7937 16.6501 16.7938 16.466 16.7938C16.3725 17.0295 16.2801 17.2626 16.1856 17.501ZM17.4923 14.2906C17.4881 14.2904 17.4839 14.2903 17.4798 14.2901C17.2381 14.8958 16.9965 15.5013 16.7524 16.1132H18.24C17.9897 15.5032 17.741 14.897 17.4924 14.2906H17.4923Z" fill="#66BDFF" stroke="#66BDFF" stroke-width="0.3"/>
</svg>
