<svg xmlns="http://www.w3.org/2000/svg" width="20" height="22" viewBox="0 0 20 22" fill="none">
<path fill-rule="evenodd" clip-rule="evenodd" d="M8.32062 3.32062C8.76602 2.87522 9.37011 2.625 10 2.625C10.6299 2.625 11.234 2.87522 11.6794 3.32062C12.1248 3.76602 12.375 4.37011 12.375 5V7.375H7.625V5C7.625 4.37011 7.87522 3.76602 8.32062 3.32062ZM5.625 7.375V5C5.625 3.83968 6.08594 2.72688 6.90641 1.90641C7.72688 1.08594 8.83968 0.625 10 0.625C11.1603 0.625 12.2731 1.08594 13.0936 1.90641C13.9141 2.72688 14.375 3.83968 14.375 5V7.375H17.5C18.4665 7.375 19.25 8.1585 19.25 9.125V19.625C19.25 20.5915 18.4665 21.375 17.5 21.375H2.5C1.5335 21.375 0.75 20.5915 0.75 19.625V9.125C0.75 8.1585 1.5335 7.375 2.5 7.375H5.625ZM13.375 9.375H6.625H2.75V19.375H17.25V9.375H13.375Z" fill="#667085"/>
</svg>
