<svg width="117" height="52" viewBox="0 0 117 52" fill="none" xmlns="http://www.w3.org/2000/svg">
<g clip-path="url(#clip0_4_1850)">
<path d="M32.8857 25.5609V26.9245C32.8857 30.938 28.5428 33.444 25.0673 31.4384L23.8872 30.7566C22.2755 29.8246 21.281 28.1046 21.281 26.2427V24.8792C21.281 20.8657 25.6239 18.3596 29.0995 20.3653L30.2796 21.047C31.8912 21.979 32.8857 23.6991 32.8857 25.5609Z" fill="#434656"/>
<path d="M51.8439 10.7286L35.8734 19.9502C35.5502 20.1358 35.154 20.1358 34.8309 19.9502L19.6192 11.1664C18.9249 10.764 18.9249 9.76116 19.6192 9.36081L35.5877 0.139169C35.9109 -0.0463898 36.3091 -0.0463898 36.6302 0.139169L51.8419 8.92298C52.5362 9.32333 52.5362 10.3282 51.8419 10.7286H51.8439Z" fill="#434656"/>
<path d="M52.603 12.0443C53.2972 11.644 54.1667 12.1444 54.1667 12.9471V30.5106C54.1667 30.8838 53.9686 31.2278 53.6454 31.4133L37.6728 40.635C36.9785 41.0353 36.1091 40.535 36.1091 39.7322V22.1708C36.1091 21.7976 36.3071 21.4536 36.6303 21.268L52.603 12.0443Z" fill="#434656"/>
<path d="M17.5364 30.5375L1.5637 39.7592C0.869418 40.1594 0 39.6591 0 38.8564V21.2908C0 20.9176 0.200153 20.5736 0.521233 20.3881L16.4919 11.1664C17.1882 10.7661 18.0576 11.2665 18.0576 12.0692V29.6326C18.0576 30.0059 17.8596 30.3499 17.5364 30.5354V30.5375Z" fill="#434656"/>
<path d="M34.5474 42.4404L18.5768 51.6621C18.2536 51.8477 17.8554 51.8477 17.5323 51.6621L2.32266 42.8783C1.62837 42.478 1.62837 41.473 2.32266 41.0727L18.2932 31.8532C18.6164 31.6676 19.0126 31.6676 19.3357 31.8532L34.5474 40.6349C35.2417 41.0352 35.2417 42.038 34.5474 42.4404Z" fill="#434656"/>
<path d="M65.3851 15.5995V11.0455H70.1745V15.5995H65.3851ZM65.3851 39.4295V18.7794H70.1745V39.4295H65.3851Z" fill="#434656"/>
<path d="M75.2765 39.4294V18.7794H79.281L79.6732 22.0379H79.9484C80.21 21.3835 80.5242 20.7816 80.8903 20.232C81.283 19.6562 81.7803 19.1982 82.3821 18.8579C82.9844 18.4915 83.7173 18.3083 84.5807 18.3083C84.9994 18.3083 85.3791 18.3476 85.7193 18.4261C86.0855 18.5046 86.3606 18.5831 86.5437 18.6616V23.1764H85.0909C84.2795 23.1764 83.5602 23.2942 82.9319 23.5297C82.3035 23.7391 81.7673 24.0793 81.322 24.5505C80.9033 25.0215 80.5892 25.6104 80.3801 26.317C80.1704 27.0237 80.0659 27.8482 80.0659 28.7904V39.4294H75.2765Z" fill="#434656"/>
<path d="M89.5001 15.5995V11.0455H94.2895V15.5995H89.5001ZM89.5001 39.4295V18.7794H94.2895V39.4295H89.5001Z" fill="#434656"/>
<path d="M107.44 39.9006C105.947 39.9006 104.639 39.7435 103.514 39.4294C102.388 39.0892 101.446 38.6312 100.687 38.0554C99.9277 37.4796 99.3519 36.8122 98.9592 36.0532C98.5931 35.268 98.41 34.4174 98.41 33.5014C98.41 33.3705 98.41 33.2527 98.41 33.148C98.436 33.0434 98.449 32.9648 98.449 32.9125H103.16C103.16 32.9648 103.16 33.0172 103.16 33.0695C103.16 33.1219 103.16 33.1742 103.16 33.2266C103.186 33.9332 103.409 34.509 103.828 34.954C104.246 35.3727 104.796 35.6737 105.477 35.8569C106.157 36.0401 106.877 36.1317 107.636 36.1317C108.316 36.1317 108.957 36.0663 109.559 35.9354C110.187 35.7784 110.698 35.5429 111.09 35.2287C111.509 34.8885 111.719 34.4566 111.719 33.9332C111.719 33.2527 111.457 32.7293 110.933 32.3629C110.41 31.9965 109.716 31.6955 108.853 31.4599C108.015 31.2244 107.112 30.9757 106.144 30.714C105.28 30.4785 104.417 30.2168 103.553 29.9289C102.689 29.641 101.904 29.2745 101.197 28.8296C100.517 28.3847 99.9543 27.8089 99.509 27.1022C99.0903 26.3956 98.8812 25.5188 98.8812 24.4719C98.8812 23.4512 99.1033 22.5613 99.5486 21.8023C99.9933 21.0433 100.609 20.4152 101.393 19.9179C102.179 19.3945 103.108 19.0019 104.181 18.7401C105.254 18.4784 106.419 18.3475 107.675 18.3475C108.905 18.3475 110.017 18.4784 111.012 18.7401C112.032 19.0019 112.909 19.3814 113.642 19.8786C114.401 20.3498 114.977 20.9386 115.37 21.6453C115.788 22.3258 115.998 23.0847 115.998 23.9223C115.998 24.1055 115.985 24.2887 115.958 24.4719C115.958 24.6551 115.958 24.7598 115.958 24.7859H111.286V24.5112C111.286 24.0139 111.129 23.5951 110.816 23.2549C110.528 22.8884 110.096 22.6005 109.52 22.3912C108.97 22.1818 108.277 22.0771 107.44 22.0771C106.811 22.0771 106.261 22.1295 105.791 22.2342C105.319 22.3389 104.927 22.4828 104.613 22.666C104.325 22.8492 104.102 23.0586 103.945 23.2941C103.788 23.5297 103.71 23.7914 103.71 24.0793C103.71 24.5766 103.906 24.9692 104.298 25.2571C104.691 25.545 105.215 25.7936 105.869 26.003C106.55 26.2124 107.282 26.4348 108.067 26.6704C109.01 26.9321 109.978 27.2069 110.973 27.4948C111.967 27.7566 112.883 28.0968 113.721 28.5155C114.585 28.9343 115.278 29.5231 115.801 30.2822C116.325 31.0412 116.587 32.0488 116.587 33.3051C116.587 34.509 116.351 35.5429 115.88 36.4065C115.435 37.244 114.794 37.9245 113.956 38.448C113.145 38.9452 112.176 39.3117 111.051 39.5472C109.952 39.7827 108.748 39.9006 107.44 39.9006Z" fill="#434656"/>
</g>
<defs>
<clipPath id="clip0_4_1850">
<rect width="117" height="52" fill="white"/>
</clipPath>
</defs>
</svg>
