<svg width="55" height="50" viewBox="0 0 55 50" fill="none" xmlns="http://www.w3.org/2000/svg">
<path fill-rule="evenodd" clip-rule="evenodd" d="M26.9167 2.9956C27.2128 3.01246 27.5072 2.94114 27.7627 2.79066C28.0182 2.64017 28.2233 2.41729 28.3521 2.15021C28.4809 1.88312 28.5277 1.58383 28.4863 1.2902C28.445 0.99656 28.3176 0.721771 28.1201 0.50059C27.9226 0.279409 27.6639 0.121774 27.3768 0.0476237C27.0897 -0.0265262 26.787 -0.0138589 26.5071 0.0840232C26.2272 0.181905 25.9826 0.360605 25.8043 0.597516C25.626 0.834427 25.5219 1.11891 25.5053 1.41497C25.483 1.8117 25.6192 2.20104 25.8838 2.49743C26.1485 2.79382 26.52 2.973 26.9167 2.9956ZM39.9555 3.73791C39.7224 3.74001 39.4939 3.6729 39.2989 3.54509C39.0377 3.37389 38.8551 3.10602 38.7913 2.80032C38.7275 2.49463 38.7876 2.17609 38.9585 1.91469C39.086 1.71952 39.2686 1.56658 39.4831 1.47521C39.6976 1.38384 39.9344 1.35815 40.1635 1.40139C40.3926 1.44463 40.6038 1.55486 40.7702 1.71812C40.9366 1.88139 41.0509 2.09036 41.0986 2.31859C41.1462 2.54682 41.1251 2.78406 41.0379 3.00028C40.9507 3.21651 40.8013 3.40201 40.6086 3.53331C40.416 3.66461 40.1887 3.73582 39.9555 3.73791ZM14.596 3.66845C14.8028 3.56223 14.9736 3.39719 15.0869 3.1941C15.2001 2.99101 15.2508 2.75895 15.2324 2.52714C15.2141 2.29533 15.1276 2.07413 14.9838 1.89138C14.84 1.70863 14.6454 1.5725 14.4244 1.50013C14.2034 1.42776 13.9659 1.42238 13.7419 1.48466C13.5179 1.54695 13.3173 1.67413 13.1654 1.85018C13.0134 2.02623 12.917 2.24328 12.8882 2.47403C12.8594 2.70477 12.8994 2.93888 13.0034 3.14689C13.0732 3.28612 13.17 3.41015 13.288 3.51182C13.406 3.61349 13.543 3.69079 13.6911 3.73928C13.8391 3.78776 13.9953 3.80647 14.1506 3.79431C14.3059 3.78215 14.4573 3.73938 14.596 3.66845ZM15.7452 27.4492C15.1017 26.7265 14.7714 25.778 14.8269 24.8119L14.8169 24.8139C14.8577 24.1036 15.1056 23.4208 15.53 22.8498C15.9544 22.2788 16.5367 21.8446 17.205 21.6007C17.8733 21.3568 18.5985 21.3139 19.2909 21.4774C19.9833 21.6408 20.6127 22.0034 21.1014 22.5205C21.5901 23.0375 21.9167 23.6863 22.041 24.3868C22.1652 25.0873 22.0816 25.8089 21.8005 26.4624C21.5193 27.116 21.053 27.6729 20.459 28.0645C19.865 28.4561 19.1694 28.6652 18.4579 28.6659H18.2589C17.2928 28.6095 16.3888 28.1719 15.7452 27.4492ZM0.578758 24.0495C0.779113 23.9313 1.01001 23.8752 1.24226 23.8882C1.39676 23.8966 1.54808 23.9354 1.68753 24.0024C1.82698 24.0695 1.9518 24.1634 2.05484 24.2788C2.15788 24.3943 2.23709 24.5289 2.28793 24.6751C2.33877 24.8212 2.36023 24.9759 2.35109 25.1304C2.33774 25.3626 2.25584 25.5857 2.11575 25.7714C1.97567 25.9571 1.78367 26.0971 1.56404 26.1737C1.3444 26.2503 1.10698 26.2601 0.881783 26.2019C0.656584 26.1436 0.453713 26.0199 0.298809 25.8463C0.143905 25.6728 0.0439202 25.4572 0.0114904 25.2269C-0.0209394 24.9965 0.0156413 24.7617 0.11661 24.5522C0.217578 24.3426 0.378402 24.1677 0.578758 24.0495ZM19.0572 9.3855C18.8801 9.69871 18.6141 9.95237 18.2929 10.1144C18.0794 10.2221 17.8469 10.2866 17.6085 10.3044C17.3701 10.3221 17.1305 10.2927 16.9035 10.2179C16.6765 10.143 16.4664 10.0241 16.2854 9.86801C16.1043 9.71193 15.9558 9.52169 15.8483 9.30818C15.6864 8.98681 15.6235 8.62467 15.6675 8.26756C15.7115 7.91045 15.8603 7.57439 16.0953 7.30186C16.3302 7.02934 16.6406 6.83258 16.9874 6.73648C17.3341 6.64037 17.7016 6.64922 18.0433 6.76192C18.385 6.87462 18.6856 7.08609 18.9071 7.36962C19.1287 7.65314 19.2612 7.99598 19.2879 8.3548C19.3146 8.71362 19.2343 9.0723 19.0572 9.3855ZM5.85295 14.5477C6.10074 14.7107 6.39129 14.7965 6.68785 14.7943C6.98441 14.792 7.27364 14.7019 7.51895 14.5352C7.76426 14.3686 7.95463 14.1329 8.06596 13.858C8.17729 13.5831 8.20458 13.2814 8.14438 12.991C8.08419 12.7006 7.9392 12.4346 7.72778 12.2266C7.51636 12.0187 7.248 11.8781 6.95666 11.8227C6.66531 11.7673 6.36408 11.7995 6.09107 11.9153C5.81806 12.0312 5.58555 12.2254 5.42295 12.4734C5.20518 12.8056 5.12815 13.2106 5.20877 13.5995C5.28939 13.9885 5.52108 14.3295 5.85295 14.5477ZM7.04183 23.4744C7.35179 23.2917 7.70895 23.2051 8.06816 23.2253C8.5501 23.2531 9.00132 23.471 9.32271 23.8312C9.64409 24.1914 9.80935 24.6644 9.78217 25.1464C9.76152 25.5056 9.63485 25.8506 9.41816 26.1378C9.20148 26.425 8.90451 26.6415 8.56479 26.76C8.22506 26.8785 7.85785 26.8936 7.50955 26.8034C7.16125 26.7132 6.84751 26.5218 6.60798 26.2533C6.36845 25.9849 6.21389 25.6514 6.16383 25.2951C6.11377 24.9388 6.17046 24.5757 6.32674 24.2516C6.48302 23.9276 6.73187 23.6571 7.04183 23.4744ZM6.05192 35.4582C5.78736 35.5919 5.56839 35.8011 5.42268 36.0592C5.27696 36.3173 5.21105 36.6129 5.23327 36.9085C5.25549 37.2041 5.36484 37.4864 5.54751 37.7199C5.73018 37.9533 5.97796 38.1274 6.25952 38.22C6.54109 38.3127 6.84381 38.3198 7.12941 38.2404C7.415 38.161 7.67066 37.9988 7.86406 37.7741C8.05746 37.5495 8.17992 37.2726 8.21595 36.9783C8.25199 36.6841 8.19999 36.3858 8.06652 36.1212C7.97784 35.9453 7.85536 35.7886 7.70609 35.6601C7.55683 35.5316 7.3837 35.4338 7.1966 35.3722C7.0095 35.3106 6.81211 35.2865 6.6157 35.3013C6.41928 35.3161 6.22771 35.3694 6.05192 35.4582ZM14.318 19.8152C13.8944 19.8189 13.4792 19.697 13.1249 19.4648C12.8894 19.3108 12.6865 19.1118 12.528 18.8793C12.3695 18.6468 12.2584 18.3852 12.2011 18.1097C12.1438 17.8342 12.1413 17.5501 12.194 17.2736C12.2466 16.9972 12.3532 16.7338 12.5078 16.4986C12.7401 16.1444 13.0722 15.867 13.4621 15.7015C13.8521 15.536 14.2824 15.4898 14.6986 15.5688C15.1148 15.6479 15.4982 15.8485 15.8003 16.1454C16.1025 16.4424 16.3098 16.8222 16.3961 17.2369C16.4824 17.6517 16.4438 18.0827 16.2851 18.4755C16.1264 18.8683 15.8549 19.2052 15.5047 19.4437C15.1546 19.6821 14.7416 19.8114 14.318 19.8152ZM35.5641 9.97107C35.8658 10.1679 36.2191 10.2708 36.5792 10.2668C36.9394 10.2629 37.2903 10.1523 37.5876 9.94892C37.8849 9.74558 38.1152 9.45866 38.2495 9.12444C38.3838 8.79021 38.4159 8.42368 38.3419 8.07118C38.2679 7.71868 38.0911 7.39603 37.8337 7.14402C37.5764 6.89201 37.2501 6.72195 36.8961 6.65534C36.5422 6.58874 36.1764 6.62857 35.845 6.7698C35.5137 6.91104 35.2317 7.14734 35.0346 7.44883C34.9034 7.64909 34.813 7.87329 34.7686 8.10856C34.7242 8.34383 34.7266 8.58555 34.7758 8.81986C34.825 9.05418 34.92 9.27648 35.0553 9.47403C35.1905 9.67158 35.3635 9.84048 35.5641 9.97107ZM35.8508 21.344C35.3731 21.3166 34.8946 21.3835 34.4427 21.541C33.9908 21.6984 33.5744 21.9434 33.2171 22.2618C32.4957 22.9048 32.0592 23.8082 32.0038 24.773C31.9483 25.7379 32.2784 26.6853 32.9215 27.4067C33.5646 28.1282 34.4679 28.5647 35.4328 28.6201H35.6438C36.3467 28.6197 37.0344 28.4161 37.6242 28.0336C38.2139 27.6512 38.6804 27.1063 38.9674 26.4647C39.2545 25.8231 39.3497 25.1122 39.2418 24.4177C39.1339 23.7231 38.8273 23.0746 38.3591 22.5504C38.0421 22.1929 37.657 21.9021 37.2263 21.6949C36.7957 21.4878 36.3281 21.3685 35.8508 21.344ZM20.8322 20.6781C20.2568 20.324 19.7917 19.8162 19.4893 19.212C19.2112 18.6567 19.0796 18.0396 19.1069 17.4192C19.1342 16.7988 19.3196 16.1957 19.6454 15.667C19.9713 15.1384 20.4268 14.7017 20.9687 14.3986C21.5107 14.0954 22.1211 13.9357 22.7421 13.9346C23.4163 13.9314 24.078 14.1159 24.6532 14.4675C25.2284 14.8191 25.6944 15.3239 25.999 15.9253C26.2803 16.4811 26.4145 17.0997 26.3888 17.7221C26.3631 18.3445 26.1783 18.9499 25.8521 19.4805C25.5259 20.0112 25.0691 20.4494 24.5254 20.7533C23.9816 21.0573 23.369 21.2168 22.7461 21.2166C22.0705 21.2188 21.4076 21.0323 20.8322 20.6781ZM48.056 14.5438C48.3205 14.4102 48.5396 14.2013 48.6855 13.9433C48.8314 13.6853 48.8975 13.3898 48.8755 13.0942C48.8535 12.7987 48.7444 12.5163 48.5619 12.2827C48.3795 12.0491 48.1319 11.8749 47.8504 11.782C47.569 11.6891 47.2663 11.6818 46.9807 11.7608C46.695 11.8399 46.4392 12.0019 46.2456 12.2263C46.052 12.4507 45.9293 12.7275 45.8929 13.0216C45.8566 13.3157 45.9082 13.6141 46.0413 13.8789C46.2205 14.234 46.5333 14.5035 46.9111 14.6282C47.2888 14.7529 47.7006 14.7225 48.056 14.5438ZM37.9168 16.5621C38.1255 16.1934 38.4389 15.8949 38.8172 15.7044C39.0684 15.5776 39.3421 15.5016 39.6227 15.4807C39.9033 15.4598 40.1853 15.4944 40.4525 15.5826C40.7196 15.6708 40.9668 15.8108 41.1798 15.9947C41.3928 16.1785 41.5675 16.4025 41.6938 16.6539C41.8844 17.0323 41.9585 17.4587 41.9067 17.8792C41.8549 18.2996 41.6797 18.6953 41.403 19.0162C41.1264 19.337 40.7608 19.5687 40.3525 19.6817C39.9442 19.7948 39.5116 19.7843 39.1093 19.6515C38.707 19.5187 38.3531 19.2696 38.0924 18.9357C37.8317 18.6017 37.6758 18.198 37.6446 17.7755C37.6133 17.353 37.708 16.9307 37.9168 16.5621ZM28.1087 12.136C27.7439 12.3511 27.3235 12.4533 26.9006 12.4296C26.3331 12.3972 25.8017 12.1408 25.4231 11.7168C25.0446 11.2927 24.85 10.7357 24.882 10.1681C24.9063 9.7453 25.0554 9.33916 25.3104 9.00103C25.5655 8.66291 25.915 8.40798 26.3149 8.26847C26.7148 8.12896 27.1471 8.11112 27.5571 8.21722C27.9671 8.32331 28.3365 8.54858 28.6185 8.86454C28.9006 9.18051 29.0826 9.57299 29.1416 9.99238C29.2007 10.4118 29.134 10.8392 28.9502 11.2208C28.7663 11.6023 28.4735 11.9208 28.1087 12.136ZM15.2947 34.2957C15.673 34.1049 15.9863 33.8063 16.1949 33.4375C16.4035 33.0687 16.498 32.6464 16.4665 32.2238C16.435 31.8013 16.2789 31.3976 16.018 31.0638C15.7571 30.73 15.403 30.4811 15.0006 30.3485C14.5982 30.216 14.1655 30.2057 13.7572 30.3191C13.349 30.4325 12.9836 30.6644 12.7071 30.9855C12.4307 31.3065 12.2557 31.7024 12.2042 32.1229C12.1528 32.5435 12.2272 32.9699 12.4181 33.3481C12.674 33.8551 13.1208 34.2398 13.6602 34.4175C14.1997 34.5952 14.7876 34.5514 15.2947 34.2957ZM27.7003 17.8476C27.6344 17.0398 27.8399 16.233 28.2841 15.555C28.6162 15.0489 29.0691 14.6334 29.6019 14.346C30.1346 14.0586 30.7306 13.9083 31.3359 13.9087C32.1465 13.9097 32.9335 14.1811 33.5725 14.6798C34.2115 15.1784 34.666 15.876 34.8639 16.662C35.0619 17.448 34.9921 18.2776 34.6655 19.0195C34.3389 19.7613 33.7743 20.3731 33.0609 20.7579C32.3475 21.1428 31.5262 21.2787 30.7268 21.1442C29.9275 21.0098 29.1959 20.6125 28.6477 20.0155C28.0995 19.4184 27.7661 18.6555 27.7003 17.8476ZM34.6187 30.79C34.3268 30.2112 33.8858 29.7208 33.3411 29.3693C32.7965 29.0179 32.1679 28.8181 31.5203 28.7906C30.8726 28.7632 30.2294 28.909 29.6569 29.2131C29.0845 29.5171 28.6035 29.9684 28.2637 30.5204C27.9238 31.0724 27.7374 31.7051 27.7237 32.3531C27.7099 33.0012 27.8693 33.6412 28.1855 34.2071C28.5016 34.773 28.963 35.2443 29.5221 35.5724C30.0812 35.9004 30.7176 36.0734 31.3658 36.0734C31.9361 36.0695 32.4976 35.9332 33.0062 35.6752C33.8664 35.2398 34.5191 34.4812 34.8213 33.5656C35.1235 32.65 35.0507 31.652 34.6187 30.79ZM39.7922 30.1839C40.2158 30.1805 40.6309 30.3027 40.9851 30.5352C41.4592 30.8477 41.7901 31.3353 41.9054 31.8912C42.0207 32.4472 41.9109 33.0262 41.6002 33.5014C41.3677 33.8555 41.0354 34.1328 40.6454 34.2981C40.2553 34.4634 39.825 34.5093 39.4088 34.43C38.9926 34.3508 38.6093 34.1499 38.3073 33.8528C38.0053 33.5556 37.7982 33.1756 37.7122 32.7608C37.6262 32.346 37.6651 31.915 37.824 31.5223C37.983 31.1296 38.2548 30.7928 38.6051 30.5546C38.9554 30.3164 39.3685 30.1874 39.7922 30.1839ZM47.9603 25.0627C47.9806 24.7035 47.8939 24.3464 47.7113 24.0364C47.5286 23.7264 47.2581 23.4776 46.934 23.3213C46.61 23.165 46.2468 23.1084 45.8906 23.1584C45.5343 23.2085 45.2008 23.363 44.9324 23.6026C44.6639 23.8421 44.4725 24.1558 44.3823 24.5041C44.2921 24.8524 44.3072 25.2196 44.4257 25.5594C44.5441 25.8991 44.7607 26.1961 45.0479 26.4127C45.3351 26.6294 45.6801 26.7561 46.0393 26.7768C46.5213 26.8039 46.9943 26.6387 47.3545 26.3173C47.7147 25.9959 47.9326 25.5447 47.9603 25.0627ZM52.3359 23.9274C52.5368 23.8092 52.7683 23.7533 53.001 23.7667C53.3128 23.7852 53.6046 23.9265 53.8124 24.1597C54.0203 24.3929 54.1272 24.699 54.1098 25.0109C54.0964 25.2436 54.0143 25.4671 53.8739 25.6532C53.7335 25.8392 53.5411 25.9795 53.321 26.0562C53.1009 26.1329 52.8629 26.1426 52.6373 26.084C52.4117 26.0255 52.2085 25.9014 52.0534 25.7274C51.8983 25.5534 51.7983 25.3373 51.7661 25.1064C51.7338 24.8756 51.7707 24.6403 51.8722 24.4305C51.9736 24.2206 52.135 24.0455 52.3359 23.9274ZM48.255 35.4522C48.007 35.2898 47.7164 35.2046 47.42 35.2073C47.1236 35.21 46.8347 35.3005 46.5897 35.4674C46.3447 35.6343 46.1547 35.87 46.0437 36.1449C45.9327 36.4197 45.9057 36.7213 45.9661 37.0115C46.0264 37.3018 46.1715 37.5676 46.3829 37.7753C46.5943 37.9831 46.8626 38.1235 47.1538 38.1789C47.445 38.2342 47.7461 38.202 48.019 38.0862C48.2919 37.9705 48.5243 37.7764 48.687 37.5286C48.795 37.3639 48.8695 37.1795 48.9063 36.986C48.9431 36.7925 48.9413 36.5937 48.9012 36.4009C48.8611 36.208 48.7834 36.025 48.6725 35.8622C48.5616 35.6995 48.4197 35.5602 48.255 35.4522ZM14.1546 46.2618C14.3877 46.2599 14.616 46.3271 14.8109 46.455C14.9403 46.5399 15.0518 46.6495 15.1388 46.7775C15.2259 46.9055 15.2869 47.0495 15.3183 47.2011C15.3497 47.3526 15.351 47.5089 15.322 47.661C15.293 47.8131 15.2343 47.958 15.1493 48.0874C15.0214 48.2822 14.8385 48.4346 14.6239 48.5255C14.4093 48.6164 14.1726 48.6416 13.9436 48.5979C13.7147 48.5543 13.5038 48.4437 13.3377 48.2803C13.1716 48.1168 13.0577 47.9077 13.0104 47.6795C12.9631 47.4513 12.9845 47.2142 13.0719 46.9982C13.1594 46.7821 13.3089 46.5969 13.5016 46.4658C13.6943 46.3347 13.9216 46.2638 14.1546 46.2618ZM39.512 46.3316C39.3038 46.4365 39.1314 46.6008 39.0166 46.8036C38.9019 47.0065 38.8498 47.2389 38.8671 47.4714C38.8844 47.7038 38.9703 47.9259 39.1138 48.1096C39.2573 48.2933 39.4521 48.4303 39.6735 48.5032C39.8949 48.5762 40.133 48.5819 40.3576 48.5195C40.5822 48.4572 40.7833 48.3296 40.9354 48.153C41.0875 47.9763 41.1838 47.7586 41.2122 47.5272C41.2405 47.2958 41.1996 47.0612 41.0946 46.8531C41.0251 46.7148 40.929 46.5915 40.8118 46.4904C40.6946 46.3893 40.5585 46.3123 40.4115 46.2639C40.2645 46.2154 40.1094 46.1964 39.955 46.2081C39.8006 46.2197 39.6501 46.2616 39.512 46.3316ZM26.4075 32.1461C26.4734 32.9541 26.2679 33.761 25.8236 34.439C25.4932 34.9462 25.041 35.3627 24.5082 35.6502C23.9755 35.9378 23.3793 36.0874 22.7739 36.0853C21.9632 36.0847 21.1759 35.8138 20.5366 35.3153C19.8973 34.8169 19.4425 34.1195 19.2442 33.3335C19.0459 32.5474 19.1154 31.7177 19.4418 30.9757C19.7682 30.2336 20.3327 29.6216 21.046 29.2366C21.7594 28.8515 22.5808 28.7153 23.3802 28.8497C24.1797 28.984 24.9115 29.3811 25.4598 29.9782C26.0081 30.5753 26.3416 31.3382 26.4075 32.1461ZM18.5436 40.031C18.2425 39.834 17.8898 39.7307 17.53 39.7342C17.1703 39.7376 16.8196 39.8477 16.5223 40.0504C16.2251 40.2531 15.9946 40.5394 15.8601 40.8731C15.7255 41.2067 15.6929 41.5728 15.7663 41.925C15.8398 42.2772 16.016 42.5998 16.2727 42.8519C16.5294 43.1039 16.8551 43.2743 17.2086 43.3413C17.5621 43.4083 17.9275 43.369 18.2587 43.2284C18.5898 43.0877 18.8719 42.8521 19.0692 42.5512C19.3334 42.1472 19.4264 41.6549 19.3279 41.1823C19.2294 40.7098 18.9473 40.2957 18.5436 40.031ZM26.1923 47.2093C26.4478 47.0589 26.7421 46.9876 27.038 47.0044C27.2346 47.0156 27.4271 47.0654 27.6045 47.151C27.7818 47.2366 27.9406 47.3563 28.0716 47.5033C28.2027 47.6502 28.3036 47.8216 28.3684 48.0076C28.4332 48.1935 28.4607 48.3904 28.4494 48.587C28.4324 48.883 28.3281 49.1672 28.1495 49.4039C27.971 49.6405 27.7263 49.8189 27.4463 49.9165C27.1664 50.014 26.8639 50.0264 26.5769 49.9521C26.2899 49.8777 26.0315 49.7199 25.8342 49.4987C25.6369 49.2775 25.5096 49.0027 25.4684 48.7091C25.4273 48.4156 25.4741 48.1164 25.6029 47.8494C25.7318 47.5825 25.9369 47.3597 26.1923 47.2093ZM27.054 37.5724C26.6308 37.5467 26.2094 37.6471 25.8433 37.8611C25.4773 38.075 25.1829 38.3928 24.9975 38.7741C24.8122 39.1555 24.7442 39.5833 24.8022 40.0033C24.8601 40.4233 25.0415 40.8167 25.3232 41.1336C25.6049 41.4505 25.9743 41.6767 26.3847 41.7834C26.795 41.8902 27.2279 41.8728 27.6283 41.7334C28.0287 41.594 28.3788 41.3389 28.6341 41.0004C28.8895 40.6618 29.0386 40.2552 29.0626 39.8318C29.0953 39.266 28.9021 38.7103 28.5256 38.2867C28.149 37.8631 27.6198 37.6062 27.054 37.5724ZM35.0511 40.6177C35.2276 40.3035 35.4935 40.0487 35.8149 39.8856C36.0278 39.777 36.26 39.7114 36.4982 39.6927C36.7365 39.6739 36.9761 39.7024 37.2033 39.7763C37.4306 39.8503 37.641 39.9683 37.8226 40.1237C38.0042 40.2791 38.1533 40.4688 38.2615 40.6819C38.4253 41.0029 38.4903 41.3654 38.4481 41.7233C38.4058 42.0813 38.2584 42.4187 38.0243 42.6928C37.7902 42.9669 37.4801 43.1654 37.1332 43.2632C36.7862 43.3609 36.4181 43.3536 36.0754 43.242C35.7326 43.1305 35.4307 42.9197 35.2077 42.6365C34.9848 42.3533 34.8509 42.0103 34.823 41.6509C34.7952 41.2915 34.8745 40.932 35.0511 40.6177Z" fill="url(#paint0_linear_2531_9762)"/>
<defs>
<linearGradient id="paint0_linear_2531_9762" x1="27.0558" y1="50" x2="27.0558" y2="0" gradientUnits="userSpaceOnUse">
<stop stop-color="#5A9C56"/>
<stop offset="1" stop-color="#184C78"/>
</linearGradient>
</defs>
</svg>
