<svg width="234" height="216" viewBox="0 0 234 216" fill="none" xmlns="http://www.w3.org/2000/svg">
<g clip-path="url(#clip0_602_6010)">
<path opacity="0.15" fill-rule="evenodd" clip-rule="evenodd" d="M116.394 12.9542C117.675 13.0271 118.948 12.7187 120.053 12.068C121.158 11.4172 122.045 10.4534 122.602 9.29839C123.159 8.1434 123.361 6.84914 123.182 5.57934C123.004 4.30954 122.452 3.12124 121.598 2.16475C120.744 1.20828 119.626 0.526601 118.384 0.205945C117.142 -0.11471 115.834 -0.0599313 114.623 0.363347C113.413 0.786634 112.355 1.5594 111.584 2.58391C110.813 3.6084 110.363 4.83861 110.291 6.1189C110.195 7.83453 110.783 9.51822 111.928 10.7999C113.072 12.0816 114.679 12.8565 116.394 12.9542ZM172.781 16.1641C171.772 16.1732 170.784 15.883 169.941 15.3302C168.812 14.5899 168.022 13.4315 167.746 12.1096C167.47 10.7876 167.73 9.41015 168.469 8.27972C169.021 7.43575 169.81 6.77437 170.738 6.37925C171.665 5.98414 172.689 5.87304 173.68 6.06003C174.671 6.24701 175.584 6.72367 176.304 7.4297C177.023 8.13572 177.518 9.03939 177.724 10.0264C177.93 11.0133 177.838 12.0392 177.461 12.9743C177.084 13.9093 176.438 14.7115 175.605 15.2793C174.772 15.8471 173.789 16.155 172.781 16.1641ZM63.1187 15.8637C64.0132 15.4043 64.7519 14.6906 65.2416 13.8124C65.7314 12.9341 65.9504 11.9306 65.8711 10.9282C65.7918 9.92576 65.4177 8.96918 64.7959 8.1789C64.1741 7.38861 63.3324 6.79992 62.3768 6.48696C61.4211 6.17399 60.3943 6.15072 59.4254 6.42009C58.4566 6.68945 57.5891 7.2394 56.9322 8.00071C56.2752 8.76203 55.8582 9.70067 55.7336 10.6985C55.6089 11.6963 55.7823 12.7087 56.2318 13.6082C56.5339 14.2103 56.9522 14.7467 57.4626 15.1863C57.973 15.626 58.5654 15.9603 59.2056 16.17C59.8458 16.3796 60.5212 16.4605 61.1928 16.408C61.8644 16.3554 62.5189 16.1704 63.1187 15.8637ZM64.1193 107.297C63.8795 111.475 65.3079 115.577 68.0908 118.702C70.8736 121.827 74.7833 123.719 78.9607 123.963H79.8216C82.8982 123.96 85.9064 123.056 88.4751 121.362C91.0438 119.669 93.0604 117.261 94.2761 114.435C95.4918 111.608 95.8533 108.488 95.3161 105.459C94.7789 102.429 93.3665 99.6236 91.2531 97.3877C89.1397 95.1519 86.4179 93.5838 83.4236 92.8769C80.4294 92.1701 77.2936 92.3555 74.4035 93.4102C71.5133 94.4649 68.9952 96.3428 67.16 98.8121C65.3248 101.281 64.2528 104.234 64.0763 107.306L64.1193 107.297ZM5.37204 103.303C4.36771 103.246 3.3692 103.489 2.50278 104C1.63639 104.511 0.94089 105.268 0.504275 106.174C0.0676293 107.08 -0.0905433 108.095 0.049685 109.092C0.189944 110.088 0.622317 111.02 1.29218 111.77C1.96204 112.521 2.83936 113.056 3.8132 113.308C4.78705 113.56 5.81375 113.517 6.76355 113.186C7.71335 112.855 8.54361 112.249 9.14942 111.446C9.75519 110.643 10.1093 109.679 10.1671 108.674C10.2066 108.006 10.1138 107.337 9.89395 106.705C9.67411 106.073 9.33155 105.491 8.88599 104.992C8.44043 104.493 7.90061 104.086 7.29758 103.797C6.69455 103.507 6.04016 103.339 5.37204 103.303ZM82.4043 40.5869C81.6385 41.9413 80.4882 43.0382 79.099 43.739C78.176 44.2046 77.1703 44.4837 76.1394 44.5605C75.1085 44.6373 74.0725 44.5101 73.0908 44.1863C72.109 43.8625 71.2007 43.3484 70.4177 42.6735C69.6347 41.9985 68.9924 41.1758 68.5275 40.2525C67.8277 38.8628 67.5557 37.2968 67.7458 35.7524C67.9359 34.2081 68.5797 32.7549 69.5956 31.5764C70.6115 30.3978 71.9541 29.547 73.4536 29.1314C74.953 28.7158 76.542 28.7541 78.0197 29.2414C79.4973 29.7288 80.7973 30.6433 81.7553 31.8694C82.7134 33.0954 83.2863 34.578 83.4019 36.1297C83.5174 37.6814 83.1702 39.2325 82.4043 40.5869ZM25.3099 62.9106C26.3814 63.6152 27.6379 63.9862 28.9204 63.9766C30.2028 63.9669 31.4536 63.5771 32.5144 62.8564C33.5752 62.1357 34.3984 61.1165 34.8799 59.9279C35.3613 58.7392 35.4793 57.4344 35.219 56.1786C34.9587 54.9228 34.3317 53.7725 33.4175 52.8731C32.5032 51.9738 31.3427 51.3658 30.0828 51.1262C28.8229 50.8866 27.5202 51.0261 26.3396 51.527C25.159 52.0279 24.1535 52.8678 23.4504 53.9403C22.5087 55.3768 22.1755 57.1283 22.5242 58.8102C22.8728 60.4921 23.8747 61.9668 25.3099 62.9106ZM30.4545 101.513C31.7949 100.723 33.3394 100.348 34.8928 100.435C36.9769 100.555 38.9282 101.498 40.318 103.055C41.7078 104.613 42.4224 106.659 42.3049 108.743C42.2156 110.296 41.6678 111.788 40.7308 113.03C39.7937 114.272 38.5095 115.209 37.0404 115.721C35.5713 116.233 33.9833 116.298 32.4771 115.908C30.9709 115.518 29.6142 114.691 28.5784 113.53C27.5425 112.369 26.8741 110.927 26.6577 109.386C26.4412 107.845 26.6864 106.275 27.3622 104.874C28.038 103.472 29.1141 102.303 30.4545 101.513ZM26.1761 153.336C25.0321 153.914 24.0852 154.819 23.4551 155.935C22.8249 157.051 22.5399 158.329 22.636 159.608C22.7321 160.886 23.205 162.107 23.9949 163.116C24.7848 164.126 25.8563 164.879 27.0739 165.279C28.2916 165.68 29.6006 165.711 30.8357 165.367C32.0707 165.024 33.1763 164.323 34.0126 163.351C34.849 162.38 35.3785 161.182 35.5344 159.91C35.6902 158.637 35.4653 157.347 34.8882 156.203C34.5046 155.442 33.975 154.765 33.3295 154.209C32.684 153.653 31.9353 153.23 31.1263 152.964C30.3172 152.698 29.4635 152.594 28.6142 152.658C27.7648 152.721 26.9363 152.952 26.1761 153.336ZM61.9204 85.689C60.0885 85.7053 58.2929 85.178 56.7607 84.1738C55.7423 83.5077 54.8652 82.6473 54.1797 81.6418C53.4941 80.6362 53.0137 79.5054 52.7658 78.3139C52.5179 77.1225 52.5075 75.8938 52.735 74.6983C52.9626 73.5028 53.4238 72.3639 54.092 71.3469C55.0966 69.815 56.5329 68.6153 58.2192 67.8996C59.9056 67.1839 61.7662 66.9843 63.566 67.326C65.3658 67.6678 67.0238 68.5355 68.3305 69.8195C69.6371 71.1035 70.5337 72.7461 70.9068 74.5396C71.28 76.3331 71.1129 78.197 70.4269 79.8956C69.7407 81.5942 68.5664 83.0512 67.0522 84.0824C65.5381 85.1136 63.7522 85.6727 61.9204 85.689ZM153.799 43.1191C155.103 43.9701 156.631 44.4151 158.188 44.3981C159.746 44.3811 161.263 43.9026 162.549 43.0233C163.835 42.144 164.831 40.9032 165.411 39.4579C165.992 38.0126 166.131 36.4275 165.811 34.9032C165.491 33.3788 164.726 31.9835 163.613 30.8938C162.5 29.804 161.09 29.0686 159.559 28.7805C158.028 28.4925 156.446 28.6647 155.013 29.2755C153.581 29.8862 152.361 30.9081 151.509 32.2119C150.941 33.0779 150.55 34.0474 150.358 35.0648C150.166 36.0822 150.177 37.1275 150.39 38.1408C150.602 39.1541 151.013 40.1154 151.598 40.9697C152.183 41.824 152.931 42.5544 153.799 43.1191ZM155.032 92.3004C152.966 92.1817 150.897 92.471 148.943 93.152C146.989 93.833 145.188 94.8921 143.643 96.2691C140.523 99.05 138.636 102.956 138.396 107.129C138.156 111.301 139.584 115.398 142.365 118.518C145.146 121.638 149.052 123.525 153.224 123.765H154.137C157.177 123.764 160.151 122.883 162.701 121.229C165.251 119.575 167.269 117.219 168.51 114.444C169.751 111.67 170.163 108.596 169.696 105.592C169.23 102.589 167.904 99.7842 165.879 97.5172C164.508 95.9711 162.843 94.7135 160.98 93.8179C159.118 92.9222 157.096 92.4063 155.032 92.3004ZM90.0809 89.4206C87.5927 87.889 85.5814 85.6932 84.2736 83.0804C83.0709 80.6792 82.5016 78.0106 82.6198 75.3278C82.7379 72.6449 83.5395 70.0366 84.9486 67.7505C86.3577 65.4644 88.3275 63.5762 90.6712 62.2651C93.0149 60.9539 95.6547 60.2633 98.3402 60.2587C101.255 60.2448 104.117 61.0427 106.604 62.5632C109.092 64.0836 111.107 66.2665 112.424 68.8674C113.641 71.2708 114.221 73.9458 114.11 76.6373C113.999 79.3288 113.2 81.9469 111.789 84.2417C110.378 86.5365 108.403 88.4315 106.052 89.7458C103.7 91.0602 101.051 91.7499 98.3574 91.7493C95.4355 91.7587 92.5692 90.9521 90.0809 89.4206ZM207.813 62.8931C208.957 62.3157 209.904 61.412 210.535 60.2963C211.166 59.1806 211.452 57.903 211.357 56.6248C211.261 55.3467 210.79 54.1254 210.001 53.1154C209.212 52.1053 208.141 51.3518 206.924 50.9502C205.707 50.5485 204.398 50.5166 203.163 50.8586C201.927 51.2005 200.821 51.901 199.984 52.8714C199.147 53.8418 198.616 55.0387 198.459 56.3107C198.302 57.5827 198.525 58.8727 199.101 60.0178C199.875 61.5536 201.228 62.7191 202.862 63.2583C204.495 63.7974 206.276 63.6661 207.813 62.8931ZM163.965 71.6213C164.868 70.0271 166.223 68.7363 167.859 67.9122C168.945 67.3639 170.129 67.0352 171.343 66.9448C172.556 66.8545 173.775 67.0043 174.931 67.3857C176.086 67.7671 177.155 68.3726 178.076 69.1676C178.997 69.9626 179.753 70.9314 180.299 72.0186C181.123 73.6548 181.443 75.4987 181.219 77.317C180.996 79.1353 180.238 80.8464 179.041 82.2339C177.845 83.6214 176.264 84.623 174.498 85.112C172.733 85.6011 170.862 85.5556 169.122 84.9813C167.383 84.407 165.852 83.3297 164.725 81.8857C163.597 80.4417 162.923 78.6958 162.788 76.8687C162.653 75.0417 163.063 73.2156 163.965 71.6213ZM121.552 52.4809C119.975 53.4114 118.157 53.8532 116.328 53.7507C113.874 53.6108 111.576 52.5021 109.939 50.6682C108.302 48.8343 107.46 46.4255 107.599 43.9712C107.704 42.1427 108.349 40.3864 109.452 38.9242C110.554 37.462 112.066 36.3596 113.795 35.7563C115.525 35.153 117.394 35.0759 119.167 35.5347C120.94 35.9935 122.537 36.9676 123.757 38.334C124.977 39.7003 125.764 41.3976 126.019 43.2112C126.274 45.0248 125.986 46.8734 125.191 48.5234C124.396 50.1733 123.13 51.5505 121.552 52.4809ZM66.1383 148.309C67.7743 147.484 69.129 146.193 70.031 144.598C70.933 143.003 71.3417 141.176 71.2056 139.349C71.0694 137.522 70.3945 135.776 69.2661 134.333C68.1377 132.889 66.6066 131.813 64.8663 131.24C63.1261 130.666 61.255 130.622 59.4896 131.112C57.7242 131.603 56.1439 132.606 54.9485 133.994C53.7531 135.383 52.9962 137.094 52.7738 138.913C52.5513 140.732 52.8732 142.575 53.6987 144.211C54.8053 146.404 56.7374 148.067 59.0701 148.836C61.4028 149.604 63.9452 149.415 66.1383 148.309ZM119.781 77.1806C119.496 73.6869 120.384 70.1981 122.306 67.2663C123.742 65.0776 125.7 63.2807 128.004 62.0378C130.308 60.7949 132.885 60.1451 135.503 60.1469C139.008 60.1514 142.411 61.3248 145.175 63.4813C147.938 65.6378 149.903 68.6543 150.759 72.0534C151.615 75.4524 151.313 79.0399 149.901 82.248C148.489 85.4561 146.047 88.1017 142.962 89.7659C139.877 91.4301 136.325 92.0179 132.869 91.4364C129.412 90.8549 126.248 89.1371 123.878 86.5551C121.507 83.9731 120.065 80.6742 119.781 77.1806ZM149.699 133.149C148.437 130.646 146.53 128.525 144.174 127.005C141.819 125.485 139.101 124.621 136.3 124.502C133.499 124.384 130.718 125.014 128.242 126.329C125.767 127.644 123.687 129.596 122.217 131.983C120.747 134.37 119.941 137.106 119.882 139.908C119.823 142.711 120.512 145.478 121.879 147.926C123.246 150.373 125.241 152.411 127.659 153.829C130.077 155.248 132.829 155.996 135.632 155.996C138.098 155.979 140.526 155.39 142.726 154.274C146.446 152.391 149.268 149.111 150.575 145.152C151.882 141.192 151.567 136.876 149.699 133.149ZM172.073 130.528C173.905 130.513 175.7 131.042 177.232 132.047C179.282 133.398 180.713 135.507 181.211 137.911C181.71 140.315 181.235 142.819 179.892 144.874C178.886 146.405 177.449 147.604 175.763 148.319C174.076 149.034 172.215 149.233 170.415 148.89C168.615 148.547 166.958 147.678 165.652 146.393C164.346 145.109 163.45 143.465 163.078 141.671C162.706 139.878 162.875 138.014 163.562 136.315C164.249 134.617 165.425 133.161 166.94 132.131C168.455 131.101 170.241 130.543 172.073 130.528ZM207.397 108.382C207.485 106.828 207.11 105.284 206.32 103.943C205.53 102.603 204.361 101.527 202.959 100.851C201.558 100.175 199.987 99.93 198.447 100.146C196.906 100.363 195.464 101.031 194.303 102.067C193.142 103.103 192.314 104.46 191.924 105.966C191.534 107.472 191.6 109.06 192.112 110.529C192.624 111.998 193.561 113.283 194.803 114.22C196.045 115.157 197.537 115.704 199.09 115.794C201.174 115.911 203.22 115.197 204.777 113.807C206.335 112.417 207.277 110.466 207.397 108.382ZM226.321 103.472C227.19 102.961 228.191 102.719 229.197 102.777C230.546 102.857 231.808 103.468 232.706 104.477C233.605 105.485 234.068 106.809 233.992 108.158C233.935 109.164 233.58 110.131 232.972 110.935C232.365 111.74 231.533 112.346 230.581 112.678C229.629 113.01 228.6 113.051 227.625 112.798C226.649 112.545 225.77 112.009 225.1 111.256C224.429 110.504 223.997 109.569 223.857 108.571C223.718 107.573 223.877 106.555 224.316 105.648C224.754 104.74 225.452 103.983 226.321 103.472ZM208.672 153.31C207.6 152.608 206.344 152.239 205.062 152.251C203.78 152.263 202.53 152.654 201.471 153.376C200.412 154.098 199.59 155.117 199.11 156.306C198.63 157.494 198.513 158.799 198.774 160.054C199.035 161.309 199.663 162.458 200.577 163.357C201.491 164.255 202.651 164.862 203.911 165.102C205.17 165.341 206.472 165.201 207.652 164.701C208.832 164.2 209.837 163.361 210.54 162.289C211.008 161.577 211.33 160.78 211.489 159.943C211.648 159.107 211.641 158.247 211.467 157.413C211.294 156.579 210.957 155.787 210.478 155.084C209.998 154.38 209.385 153.777 208.672 153.31ZM61.2091 200.056C62.217 200.047 63.2046 200.338 64.0473 200.891C64.607 201.258 65.0889 201.732 65.4654 202.286C65.8419 202.839 66.1056 203.462 66.2415 204.117C66.3774 204.773 66.3828 205.449 66.2574 206.106C66.1321 206.764 65.8783 207.39 65.5107 207.95C64.9574 208.792 64.1667 209.452 63.2386 209.845C62.3105 210.238 61.2868 210.347 60.2968 210.158C59.3068 209.969 58.3949 209.491 57.6766 208.784C56.9583 208.077 56.4657 207.173 56.2611 206.186C56.0565 205.199 56.1491 204.174 56.5272 203.24C56.9053 202.306 57.5519 201.504 58.3853 200.938C59.2186 200.371 60.2013 200.064 61.2091 200.056ZM170.867 200.357C169.967 200.81 169.221 201.521 168.725 202.398C168.229 203.276 168.004 204.28 168.079 205.286C168.153 206.291 168.525 207.251 169.145 208.046C169.766 208.84 170.608 209.432 171.566 209.748C172.523 210.063 173.553 210.088 174.524 209.818C175.495 209.549 176.365 208.997 177.023 208.233C177.68 207.469 178.097 206.528 178.219 205.527C178.342 204.527 178.165 203.512 177.711 202.612C177.41 202.014 176.995 201.481 176.488 201.044C175.981 200.606 175.393 200.273 174.757 200.064C174.121 199.854 173.45 199.772 172.783 199.823C172.115 199.873 171.464 200.054 170.867 200.357ZM114.197 139.013C114.482 142.507 113.594 145.996 111.672 148.929C110.243 151.122 108.288 152.923 105.984 154.167C103.68 155.41 101.102 156.057 98.4839 156.048C94.9783 156.045 91.5737 154.874 88.8091 152.718C86.0445 150.563 84.0777 147.547 83.2202 144.148C82.3627 140.749 82.6634 137.161 84.0746 133.952C85.4859 130.743 87.9272 128.096 91.012 126.431C94.0968 124.766 97.6489 124.177 101.106 124.758C104.563 125.339 107.728 127.056 110.099 129.638C112.47 132.22 113.912 135.519 114.197 139.013ZM80.1918 173.11C78.8898 172.259 77.3645 171.812 75.8087 171.827C74.2529 171.842 72.7364 172.318 71.451 173.194C70.1656 174.071 69.1689 175.309 68.587 176.752C68.0051 178.195 67.864 179.778 68.1816 181.301C68.4992 182.824 69.2613 184.219 70.3714 185.309C71.4816 186.399 72.89 187.136 74.4186 187.426C75.9473 187.715 77.5276 187.545 78.9597 186.937C80.3918 186.329 81.6115 185.31 82.4645 184.009C83.6071 182.262 84.0096 180.133 83.5834 178.089C83.1573 176.046 81.9374 174.255 80.1918 173.11ZM113.264 204.153C114.368 203.502 115.641 203.194 116.921 203.267C117.771 203.315 118.603 203.531 119.37 203.901C120.137 204.271 120.824 204.789 121.391 205.424C121.958 206.06 122.394 206.801 122.674 207.605C122.954 208.409 123.073 209.26 123.024 210.111C122.951 211.39 122.5 212.62 121.727 213.643C120.955 214.666 119.897 215.438 118.687 215.86C117.476 216.282 116.168 216.335 114.927 216.014C113.686 215.692 112.568 215.01 111.715 214.053C110.862 213.096 110.311 211.908 110.133 210.639C109.955 209.369 110.158 208.075 110.715 206.921C111.272 205.767 112.159 204.803 113.264 204.153ZM116.994 162.479C115.164 162.368 113.342 162.802 111.759 163.727C110.175 164.652 108.903 166.026 108.101 167.676C107.3 169.325 107.005 171.175 107.256 172.991C107.507 174.807 108.291 176.509 109.509 177.879C110.728 179.249 112.325 180.227 114.1 180.689C115.874 181.151 117.746 181.076 119.477 180.473C121.209 179.87 122.723 178.767 123.827 177.303C124.931 175.839 125.576 174.08 125.68 172.25C125.821 169.803 124.986 167.4 123.358 165.568C121.729 163.736 119.441 162.625 116.994 162.479ZM151.579 175.648C152.342 174.289 153.492 173.187 154.882 172.482C155.803 172.012 156.807 171.729 157.837 171.647C158.867 171.566 159.903 171.689 160.886 172.009C161.869 172.329 162.779 172.839 163.564 173.511C164.349 174.183 164.994 175.004 165.462 175.925C166.171 177.313 166.451 178.881 166.269 180.429C166.086 181.977 165.449 183.436 164.436 184.621C163.424 185.807 162.083 186.665 160.583 187.088C159.083 187.511 157.491 187.479 156.008 186.996C154.526 186.514 153.22 185.603 152.256 184.378C151.292 183.153 150.713 181.67 150.593 180.116C150.472 178.561 150.815 177.007 151.579 175.648Z" fill="url(#paint0_linear_602_6010)"/>
<path d="M122.57 162.953C114.367 162.953 107.01 161.651 100.5 159.047C93.9896 156.378 88.4557 152.699 83.8984 148.012C79.4062 143.324 75.9557 137.888 73.5469 131.703C71.138 125.453 69.9336 118.812 69.9336 111.781V107.875C69.9336 99.8672 71.0729 92.543 73.3516 85.9023C75.6302 79.2617 78.8854 73.5 83.1172 68.6172C87.4141 63.7344 92.6224 59.9909 98.7422 57.3867C104.862 54.7174 111.763 53.3828 119.445 53.3828C126.932 53.3828 133.573 54.6198 139.367 57.0938C145.161 59.5677 150.012 63.0833 153.918 67.6406C157.889 72.1979 160.884 77.6667 162.902 84.0469C164.921 90.362 165.93 97.3932 165.93 105.141V116.859H81.9453V98.1094H138.293V95.9609C138.293 92.0547 137.577 88.5716 136.145 85.5117C134.777 82.3867 132.694 79.9128 129.895 78.0898C127.095 76.2669 123.514 75.3555 119.152 75.3555C115.441 75.3555 112.251 76.1693 109.582 77.7969C106.913 79.4245 104.732 81.7031 103.039 84.6328C101.411 87.5625 100.174 91.013 99.3281 94.9844C98.5469 98.8906 98.1562 103.188 98.1562 107.875V111.781C98.1562 116.013 98.7422 119.919 99.9141 123.5C101.151 127.081 102.876 130.173 105.09 132.777C107.368 135.382 110.103 137.4 113.293 138.832C116.548 140.264 120.227 140.98 124.328 140.98C129.406 140.98 134.126 140.004 138.488 138.051C142.915 136.033 146.724 133.005 149.914 128.969L163.586 143.812C161.372 147.003 158.345 150.062 154.504 152.992C150.728 155.922 146.171 158.331 140.832 160.219C135.493 162.042 129.406 162.953 122.57 162.953Z" fill="#0033AD"/>
</g>
<defs>
<linearGradient id="paint0_linear_602_6010" x1="0" y1="0" x2="268.933" y2="57.4741" gradientUnits="userSpaceOnUse">
<stop stop-color="#0033AD"/>
<stop offset="1" stop-color="#5C8DFF"/>
</linearGradient>
<clipPath id="clip0_602_6010">
<rect width="234" height="216" fill="white"/>
</clipPath>
</defs>
</svg>
