<svg width="55" height="52" viewBox="0 0 55 52" fill="none" xmlns="http://www.w3.org/2000/svg">
<path fill-rule="evenodd" clip-rule="evenodd" d="M52.0275 10.7697L36.0003 20.0268C35.676 20.213 35.2785 20.213 34.9542 20.0268L19.6886 11.2092C18.9918 10.8053 18.9918 9.7986 19.6886 9.39672L35.7137 0.139703C36.038 -0.0465677 36.4376 -0.0465677 36.7598 0.139703L52.0254 8.95721C52.7222 9.35909 52.7222 10.3678 52.0254 10.7697H52.0275ZM33.0013 27.0277C33.0013 31.0566 28.643 33.5723 25.1551 31.5589L23.9709 30.8745C22.3535 29.939 21.3555 28.2123 21.3555 26.3433V24.9746C21.3555 20.9457 25.7138 18.4299 29.2017 20.4434L30.3859 21.1277C32.0033 22.0633 33.0013 23.79 33.0013 25.6589V27.0277ZM54.3579 12.9967C54.3579 12.1909 53.4854 11.6886 52.7887 12.0905L36.7594 21.3496C36.4351 21.5359 36.2363 21.8812 36.2363 22.2559V39.8846C36.2363 40.6904 37.1088 41.1927 37.8056 40.7909L53.8348 31.5338C54.1591 31.3476 54.3579 31.0022 54.3579 30.6276V12.9967ZM17.5986 30.6546L1.56924 39.9116C0.872501 40.3134 0 39.8112 0 39.0054V21.3724C0 20.9978 0.200863 20.6525 0.523081 20.4662L16.5503 11.2091C17.2492 10.8073 18.1216 11.3096 18.1216 12.1154V29.7463C18.1216 30.1209 17.9229 30.4662 17.5986 30.6525V30.6546ZM18.6429 51.8603L34.6701 42.6033C35.3669 42.1993 35.3669 41.1926 34.6701 40.7908L19.4045 31.9754C19.0802 31.7891 18.6827 31.7891 18.3584 31.9754L2.33115 41.2303C1.63441 41.6321 1.63441 42.641 2.33115 43.0428L17.5947 51.8603C17.919 52.0466 18.3186 52.0466 18.6429 51.8603Z" fill="url(#paint0_linear_576_5297)"/>
<defs>
<linearGradient id="paint0_linear_576_5297" x1="0" y1="0" x2="62.6561" y2="12.934" gradientUnits="userSpaceOnUse">
<stop stop-color="#0033AD"/>
<stop offset="1" stop-color="#5C8DFF"/>
</linearGradient>
</defs>
</svg>
