<svg xmlns="http://www.w3.org/2000/svg" width="272" height="252" fill="none"><g clip-path="url(#a)"><path fill="url(#b)" fill-rule="evenodd" d="M135.209 15.048a7.53 7.53 0 0 0 7.211-4.247 7.53 7.53 0 0 0-1.166-8.286 7.53 7.53 0 0 0-8.102-2.093 7.53 7.53 0 0 0-5.033 6.686 7.53 7.53 0 0 0 7.09 7.94m65.501 3.728a5.919 5.919 0 0 1-5.009-9.158 5.92 5.92 0 0 1 6.053-2.579 5.92 5.92 0 0 1-1.044 11.737m-127.39-.348a5.92 5.92 0 1 0-8-2.62 5.93 5.93 0 0 0 8 2.62m5.773 119.458a18.34 18.34 0 0 1-4.613-13.248l-.05.01a18.3 18.3 0 0 1 11.996-16.141 18.302 18.302 0 0 1 23.084 24.423 18.3 18.3 0 0 1-16.79 11.068h-1a18.33 18.33 0 0 1-12.627-6.112M2.907 120.809a5.93 5.93 0 0 1 5.57-.237 5.9 5.9 0 0 1 3.333 5.666 5.91 5.91 0 0 1-3.953 5.241 5.907 5.907 0 0 1-7.8-4.756 5.91 5.91 0 0 1 2.85-5.914M95.73 47.147a9.14 9.14 0 1 1-15.912-8.999 9.14 9.14 0 0 1 15.912 8.999M29.4 73.078a7.53 7.53 0 1 0 8.274-12.583 7.53 7.53 0 0 0-8.274 12.583m5.973 44.841a9.136 9.136 0 0 1 11.458 1.792 9.15 9.15 0 0 1 2.308 6.607 9.14 9.14 0 1 1-13.766-8.399m-4.973 60.199a7.531 7.531 0 1 0 6.795 13.442 7.531 7.531 0 0 0-6.795-13.442m41.523-78.58a10.76 10.76 0 0 1-5.994-1.76 10.75 10.75 0 0 1-3.1-14.9 10.76 10.76 0 1 1 9.094 16.66m106.727-49.45a9.15 9.15 0 1 0-2.66-12.67 9.14 9.14 0 0 0 2.66 12.67m1.439 57.13a18.306 18.306 0 1 0-2.1 36.55h1.06a18.31 18.31 0 0 0 16.695-10.827 18.3 18.3 0 0 0-3.055-19.663 18.084 18.084 0 0 0-12.6-6.06m-75.444-3.345a18.23 18.23 0 0 1-6.746-7.365 18.31 18.31 0 0 1 16.34-26.51 18.24 18.24 0 0 1 16.36 10 18.314 18.314 0 0 1-7.403 24.253 18.3 18.3 0 0 1-8.937 2.327 18.23 18.23 0 0 1-9.614-2.705m136.755-30.815a7.53 7.53 0 0 0 4.117-7.281 7.537 7.537 0 0 0-9.519-6.698 7.535 7.535 0 0 0-5.464 6.333 7.53 7.53 0 0 0 .746 4.306 7.54 7.54 0 0 0 10.12 3.34m-50.934 10.138a10.766 10.766 0 0 1 12.738-4.92 10.75 10.75 0 0 1 6.235 5.382 10.75 10.75 0 0 1-1.461 11.866 10.758 10.758 0 0 1-18.879-6.232 10.76 10.76 0 0 1 1.367-6.096m-49.269-22.233a10.76 10.76 0 0 1-6.068 1.475 10.77 10.77 0 0 1-10.14-11.36 10.762 10.762 0 0 1 13.438-9.8 10.76 10.76 0 0 1 7.959 8.917 10.75 10.75 0 0 1-.962 6.17 10.75 10.75 0 0 1-4.227 4.598M76.831 172.278a10.76 10.76 0 0 0 5.886-10.407 10.76 10.76 0 0 0-7.364-9.421 10.76 10.76 0 0 0-6.246-.147 10.755 10.755 0 0 0-7.8 9.061 10.76 10.76 0 0 0 15.524 10.914m62.315-82.623c-.33-4.058.702-8.111 2.933-11.517a18.32 18.32 0 0 1 15.33-8.27 18.302 18.302 0 0 1 16.726 25.673 18.3 18.3 0 0 1-19.785 10.674 18.3 18.3 0 0 1-15.204-16.56m34.754 65.013a18.3 18.3 0 0 0-15.565-10.043 18.3 18.3 0 0 0-16.359 8.689 18.301 18.301 0 0 0 15.584 27.894 18.5 18.5 0 0 0 8.24-2 18.307 18.307 0 0 0 8.1-24.54m25.987-3.045a10.76 10.76 0 0 1 5.993 1.765 10.78 10.78 0 0 1 3.09 14.9 10.76 10.76 0 0 1-11.008 4.665 10.756 10.756 0 0 1-7.961-14.607 10.77 10.77 0 0 1 3.923-4.861 10.77 10.77 0 0 1 5.963-1.862m41.033-25.725a9.142 9.142 0 0 0-10.397-9.566 9.141 9.141 0 0 0 .747 18.176 9.15 9.15 0 0 0 9.65-8.61m21.98-5.703a5.91 5.91 0 0 1 7.417 1.167 5.93 5.93 0 0 1 1.494 4.276 5.921 5.921 0 1 1-8.911-5.443m-20.5 57.893a7.526 7.526 0 0 0-11.108 3.48 7.53 7.53 0 0 0 1.704 8.19 7.53 7.53 0 1 0 9.404-11.67m-171.296 54.3a5.92 5.92 0 1 1 .098 11.839 5.92 5.92 0 0 1-.099-11.839m127.376.351a5.92 5.92 0 1 0 7.95 2.62 5.9 5.9 0 0 0-3.431-2.96 5.9 5.9 0 0 0-4.519.34m-65.827-71.259a18.3 18.3 0 0 1-2.933 11.518 18.2 18.2 0 0 1-15.32 8.27 18.302 18.302 0 0 1-16.738-25.667 18.303 18.303 0 0 1 34.991 5.879M93.15 201.088a9.132 9.132 0 0 0-10.154.098 9.138 9.138 0 0 0 3.447 16.531 9.15 9.15 0 0 0 5.275-.567 9.15 9.15 0 0 0 4.072-3.402 9.15 9.15 0 0 0-2.64-12.66m38.423 36.059a7.52 7.52 0 0 1 7.093-.293 7.542 7.542 0 0 1 4.245 7.214 7.54 7.54 0 0 1-5.039 6.678 7.536 7.536 0 0 1-9.936-6.065 7.53 7.53 0 0 1 3.637-7.534m4.328-48.409a10.75 10.75 0 0 0-10.33 6.036 10.76 10.76 0 0 0 1.636 11.853 10.765 10.765 0 0 0 11.579 3.013 10.76 10.76 0 0 0 7.205-9.552 10.75 10.75 0 0 0-10.09-11.35m40.172 15.298a9.16 9.16 0 0 1 3.837-3.678 9.126 9.126 0 0 1 10.085 1.197 9.1 9.1 0 0 1 2.205 2.803 9.15 9.15 0 0 1-1.191 10.102 9.15 9.15 0 0 1-14.936-10.424" clip-rule="evenodd"/></g><defs><linearGradient id="b" x1="0" x2="312.399" y1="0" y2="66.764" gradientUnits="userSpaceOnUse"><stop stop-color="#0033AD"/><stop offset="1" stop-color="#5C8DFF"/></linearGradient><clipPath id="a"><path fill="#fff" d="M0 0h272v252H0z"/></clipPath></defs></svg>