<svg width="117" height="52" viewBox="0 0 117 52" fill="none" xmlns="http://www.w3.org/2000/svg">
<path fill-rule="evenodd" clip-rule="evenodd" d="M52.0277 10.7697L36.0006 20.0268C35.6763 20.213 35.2787 20.213 34.9544 20.0268L19.6888 11.2092C18.9921 10.8053 18.9921 9.7986 19.6888 9.39672L35.7139 0.139703C36.0382 -0.0465677 36.4378 -0.0465677 36.7601 0.139703L52.0257 8.95721C52.7224 9.35909 52.7224 10.3678 52.0257 10.7697H52.0277ZM33.0023 25.659V27.0278C33.0023 31.0567 28.644 33.5724 25.1561 31.559L23.9719 30.8746C22.3545 29.9391 21.3564 28.2124 21.3564 26.3434V24.9746C21.3564 20.9457 25.7148 18.43 29.2026 20.4434L30.3869 21.1278C32.0043 22.0634 33.0023 23.79 33.0023 25.659ZM54.3587 12.9967C54.3587 12.191 53.4862 11.6887 52.7895 12.0905L36.7602 21.3496C36.4358 21.5359 36.2371 21.8813 36.2371 22.2559V39.8846C36.2371 40.6905 37.1096 41.1927 37.8063 40.7909L53.8356 31.5339C54.1599 31.3476 54.3587 31.0022 54.3587 30.6276V12.9967ZM17.5986 30.6546L1.56924 39.9117C0.872501 40.3135 0 39.8112 0 39.0055V21.3725C0 20.9978 0.200863 20.6525 0.523081 20.4663L16.5503 11.2092C17.2492 10.8074 18.1216 11.3097 18.1216 12.1154V29.7463C18.1216 30.1209 17.9229 30.4663 17.5986 30.6526V30.6546ZM18.6426 51.8603L34.6699 42.6033C35.3666 42.1993 35.3666 41.1926 34.6699 40.7908L19.4043 31.9754C19.08 31.7891 18.6824 31.7891 18.3581 31.9754L2.33087 41.2303C1.63412 41.6321 1.63412 42.6409 2.33087 43.0428L17.5944 51.8603C17.9187 52.0466 18.3183 52.0466 18.6426 51.8603ZM65.6169 15.6593V11.0878H70.4233V15.6593H65.6169ZM65.6169 39.5807V18.8515H70.4233V39.5807H65.6169ZM75.5434 18.8515V39.5807H80.3498V28.9008C80.3498 27.955 80.4547 27.1274 80.665 26.418C80.8749 25.7087 81.1901 25.1175 81.6103 24.6446C82.0572 24.1717 82.5953 23.8301 83.2259 23.6199C83.8564 23.3835 84.5783 23.2653 85.3926 23.2653H86.8505V18.7332C86.6668 18.6544 86.3906 18.5756 86.0232 18.4968C85.6818 18.4179 85.3007 18.3785 84.8806 18.3785C84.0141 18.3785 83.2786 18.5625 82.6741 18.9303C82.0702 19.2718 81.5712 19.7316 81.1771 20.3096C80.8096 20.8613 80.4943 21.4656 80.2318 22.1224H79.9557L79.5621 18.8515H75.5434ZM89.8174 15.6593V11.0878H94.6238V15.6593H89.8174ZM89.8174 39.5807V18.8515H94.6238V39.5807H89.8174ZM103.881 39.5807C105.01 39.896 106.323 40.0536 107.82 40.0536C109.134 40.0536 110.342 39.9354 111.445 39.699C112.574 39.4625 113.546 39.0946 114.36 38.5955C115.201 38.07 115.844 37.3869 116.291 36.5462C116.764 35.6792 117 34.6414 117 33.4328C117 32.1718 116.737 31.1603 116.212 30.3984C115.687 29.6364 114.991 29.0453 114.124 28.6249C113.284 28.2046 112.364 27.863 111.366 27.6003C110.368 27.3113 109.396 27.0354 108.45 26.7727C107.663 26.5363 106.927 26.3129 106.245 26.1027C105.588 25.8926 105.062 25.643 104.668 25.354C104.275 25.065 104.077 24.6709 104.077 24.1717C104.077 23.8827 104.156 23.6199 104.314 23.3835C104.471 23.147 104.695 22.9369 104.983 22.7529C105.299 22.569 105.693 22.4246 106.166 22.3195C106.638 22.2144 107.19 22.1618 107.82 22.1618C108.661 22.1618 109.357 22.2669 109.908 22.4771C110.486 22.6873 110.919 22.9763 111.209 23.3441C111.523 23.6856 111.681 24.106 111.681 24.6052V24.881H116.369V24.5658C116.396 24.3819 116.409 24.1979 116.409 24.014C116.409 23.1733 116.199 22.4114 115.779 21.7283C115.384 21.0189 114.807 20.4278 114.045 19.9549C113.31 19.4557 112.43 19.0748 111.405 18.812C110.407 18.5493 109.291 18.4179 108.056 18.4179C106.796 18.4179 105.627 18.5493 104.55 18.812C103.473 19.0748 102.541 19.4689 101.753 19.9943C100.965 20.4935 100.348 21.124 99.9015 21.8859C99.4547 22.6479 99.2318 23.5411 99.2318 24.5658C99.2318 25.6167 99.4416 26.4968 99.8618 27.2062C100.309 27.9156 100.873 28.4936 101.556 28.9402C102.265 29.3868 103.053 29.7547 103.92 30.0437C104.787 30.3327 105.653 30.5954 106.52 30.8318C107.492 31.0946 108.398 31.3442 109.239 31.5806C110.105 31.8171 110.801 32.1192 111.327 32.487C111.852 32.8548 112.115 33.3803 112.115 34.0634C112.115 34.5888 111.904 35.0224 111.484 35.3639C111.09 35.6792 110.578 35.9156 109.948 36.0733C109.344 36.2046 108.7 36.2703 108.017 36.2703C107.256 36.2703 106.533 36.1784 105.851 35.9945C105.167 35.8105 104.616 35.5084 104.196 35.0881C103.776 34.6414 103.552 34.0634 103.526 33.354V33.1964V33.0388H98.798C98.798 33.0913 98.785 33.1702 98.7589 33.2752V33.6299C98.7589 34.5495 98.9426 35.4033 99.3101 36.1915C99.7042 36.9534 100.282 37.6234 101.044 38.2014C101.806 38.7794 102.751 39.2392 103.881 39.5807Z" fill="url(#paint0_linear_553_5817)"/>
<defs>
<linearGradient id="paint0_linear_553_5817" x1="0" y1="0" x2="117.426" y2="52.1742" gradientUnits="userSpaceOnUse">
<stop stop-color="#0033AD"/>
<stop offset="1" stop-color="#5C8DFF"/>
</linearGradient>
</defs>
</svg>
