<svg xmlns="http://www.w3.org/2000/svg" width="272" height="252" viewBox="0 0 272 252" fill="none">
<g clip-path="url(#clip0_674_7508)">
<path fill-rule="evenodd" clip-rule="evenodd" d="M135.209 15.0478C136.696 15.1325 138.175 14.7742 139.459 14.0183C140.742 13.2624 141.773 12.1428 142.42 10.8012C143.067 9.45951 143.302 7.95608 143.094 6.48105C142.887 5.00603 142.246 3.62568 141.254 2.51462C140.262 1.40356 138.963 0.611707 137.52 0.239229C136.078 -0.13325 134.558 -0.0696177 133.152 0.422075C131.746 0.913767 130.517 1.81143 129.621 3.00151C128.726 4.19159 128.203 5.62061 128.119 7.10782C128.007 9.10072 128.691 11.0565 130.021 12.5454C131.35 14.0342 133.216 14.9343 135.209 15.0478ZM200.71 18.7763C199.538 18.7868 198.39 18.4497 197.411 17.8077C196.099 16.9477 195.182 15.6021 194.861 14.0665C194.541 12.5309 194.843 10.9308 195.701 9.61766C196.342 8.63729 197.259 7.86902 198.336 7.41004C199.414 6.95107 200.603 6.82202 201.754 7.03922C202.905 7.25643 203.966 7.81012 204.802 8.63026C205.638 9.45039 206.212 10.5001 206.451 11.6466C206.691 12.793 206.585 13.9848 206.147 15.0709C205.708 16.1571 204.958 17.0889 203.99 17.7485C203.022 18.4081 201.881 18.7658 200.71 18.7763ZM73.3197 18.4284C74.3587 17.8948 75.2168 17.0657 75.7857 16.0455C76.3546 15.0254 76.609 13.8597 76.5169 12.6952C76.4247 11.5308 75.9902 10.4196 75.2679 9.5016C74.5456 8.58359 73.5679 7.89976 72.4578 7.53621C71.3477 7.17267 70.1549 7.14564 69.0295 7.45853C67.9041 7.77143 66.8964 8.41026 66.1333 9.29462C65.3702 10.179 64.8858 11.2693 64.741 12.4284C64.5962 13.5875 64.7975 14.7635 65.3197 15.8084C65.6706 16.5078 66.1566 17.1308 66.7495 17.6416C67.3423 18.1523 68.0305 18.5406 68.7741 18.7842C69.5178 19.0277 70.3023 19.1217 71.0824 19.0606C71.8626 18.9995 72.6229 18.7847 73.3197 18.4284ZM79.093 137.886C75.8604 134.256 74.2011 129.491 74.4797 124.638L74.4297 124.648C74.6347 121.081 75.88 117.651 78.0118 114.782C80.1436 111.914 83.0687 109.733 86.4259 108.507C89.7832 107.282 93.4257 107.067 96.9039 107.888C100.382 108.709 103.544 110.531 105.999 113.128C108.454 115.725 110.094 118.984 110.718 122.503C111.342 126.022 110.922 129.647 109.51 132.93C108.098 136.213 105.756 139.01 102.772 140.977C99.7879 142.944 96.2935 143.994 92.7197 143.998H91.7197C86.8671 143.715 82.3256 141.517 79.093 137.886ZM2.90728 120.809C3.91373 120.215 5.07358 119.933 6.24026 119.998C7.01636 120.041 7.77649 120.236 8.47698 120.572C9.17747 120.909 9.80452 121.381 10.3221 121.961C10.8397 122.541 11.2376 123.217 11.493 123.951C11.7484 124.685 11.8562 125.463 11.8103 126.238C11.7432 127.405 11.3318 128.526 10.6281 129.458C9.92439 130.391 8.95994 131.095 7.85665 131.479C6.75335 131.864 5.56071 131.914 4.42947 131.621C3.29822 131.328 2.27914 130.707 1.50101 129.835C0.72288 128.963 0.220625 127.88 0.0577197 126.723C-0.105185 125.566 0.0785711 124.387 0.585767 123.334C1.09296 122.281 1.90083 121.403 2.90728 120.809ZM95.7289 47.1468C94.8392 48.7201 93.503 49.9943 91.8893 50.8083C90.8171 51.3492 89.6489 51.6734 88.4514 51.7626C87.2539 51.8517 86.0505 51.704 84.9101 51.3279C83.7697 50.9518 82.7145 50.3547 81.805 49.5706C80.8955 48.7865 80.1494 47.8309 79.6093 46.7583C78.7964 45.144 78.4805 43.3249 78.7013 41.531C78.9222 39.7371 79.6699 38.049 80.85 36.68C82.0302 35.311 83.5897 34.3227 85.3315 33.8399C87.0733 33.3571 88.9191 33.4016 90.6356 33.9677C92.3521 34.5338 93.8622 35.5961 94.975 37.0204C96.0878 38.4446 96.7534 40.1668 96.8876 41.9692C97.0218 43.7717 96.6185 45.5735 95.7289 47.1468ZM29.4005 73.0784C30.6452 73.8969 32.1048 74.3278 33.5945 74.3166C35.0842 74.3054 36.5371 73.8526 37.7694 73.0154C39.0016 72.1783 39.9579 70.9944 40.5171 69.6136C41.0764 68.2328 41.2135 66.7171 40.9111 65.2584C40.6087 63.7997 39.8804 62.4634 38.8184 61.4187C37.7563 60.374 36.4083 59.6678 34.9448 59.3894C33.4813 59.1111 31.9681 59.2731 30.5967 59.855C29.2253 60.4369 28.0573 61.4125 27.2405 62.6584C26.1466 64.327 25.7596 66.3616 26.1646 68.3153C26.5696 70.269 27.7334 71.9821 29.4005 73.0784ZM35.3743 117.919C36.9314 117.001 38.7255 116.566 40.5299 116.668C42.9509 116.807 45.2175 117.902 46.8319 119.711C48.4463 121.52 49.2765 123.897 49.1399 126.318C49.0362 128.122 48.3999 129.855 47.3114 131.298C46.2229 132.741 44.7312 133.828 43.0246 134.424C41.3181 135.019 39.4735 135.095 37.7239 134.642C35.9743 134.188 34.3982 133.227 33.195 131.878C31.9918 130.53 31.2154 128.855 30.9639 127.065C30.7124 125.275 30.9972 123.451 31.7823 121.823C32.5673 120.195 33.8173 118.837 35.3743 117.919ZM30.4011 178.118C29.0722 178.79 27.9722 179.84 27.2402 181.137C26.5083 182.434 26.1772 183.918 26.2888 185.403C26.4004 186.888 26.9497 188.306 27.8673 189.479C28.7849 190.652 30.0296 191.526 31.444 191.991C32.8584 192.457 34.379 192.492 35.8137 192.094C37.2483 191.695 38.5325 190.88 39.504 189.752C40.4756 188.623 41.0907 187.232 41.2717 185.754C41.4528 184.276 41.1915 182.778 40.5211 181.448C40.0756 180.565 39.4604 179.778 38.7105 179.132C37.9607 178.487 37.091 177.995 36.1512 177.686C35.2113 177.377 34.2198 177.256 33.2331 177.33C32.2465 177.404 31.2841 177.672 30.4011 178.118ZM71.9239 99.5381C69.796 99.557 67.7102 98.9446 65.9304 97.7781C64.7473 97.0044 63.7285 96.0049 62.9322 94.8368C62.1359 93.6688 61.5778 92.3551 61.2898 90.9711C61.0019 89.5871 60.9897 88.1599 61.2541 86.7712C61.5184 85.3825 62.0541 84.0595 62.8304 82.8781C63.9973 81.0986 65.6657 79.7051 67.6246 78.8737C69.5834 78.0423 71.7449 77.8105 73.8355 78.2074C75.9262 78.6044 77.8522 79.6124 79.37 81.1039C80.8878 82.5954 81.9293 84.5034 82.3627 86.5868C82.7962 88.6702 82.6021 90.8354 81.8052 92.8085C81.0082 94.7816 79.644 96.4741 77.8852 97.6719C76.1263 98.8698 74.0518 99.5192 71.9239 99.5381ZM178.651 50.0882C180.166 51.0767 181.941 51.5937 183.75 51.5739C185.559 51.5541 187.322 50.9983 188.815 49.9769C190.309 48.9554 191.466 47.5142 192.14 45.8352C192.815 44.1563 192.976 42.3151 192.605 40.5444C192.233 38.7737 191.345 37.1529 190.052 35.887C188.759 34.6211 187.12 33.7668 185.342 33.4322C183.564 33.0976 181.727 33.2977 180.062 34.0072C178.398 34.7167 176.981 35.9037 175.991 37.4182C175.332 38.4241 174.878 39.5503 174.655 40.7322C174.432 41.914 174.444 43.1282 174.691 44.3053C174.938 45.4823 175.415 46.599 176.095 47.5914C176.774 48.5837 177.643 49.4322 178.651 50.0882ZM180.09 107.218C177.69 107.08 175.286 107.416 173.016 108.207C170.746 108.998 168.654 110.228 166.86 111.828C163.235 115.058 161.043 119.596 160.765 124.443C160.486 129.289 162.144 134.048 165.375 137.673C168.605 141.297 173.143 143.489 177.99 143.768H179.05C182.58 143.766 186.035 142.743 188.998 140.822C191.96 138.901 194.303 136.164 195.745 132.941C197.187 129.718 197.666 126.146 197.124 122.658C196.581 119.169 195.041 115.911 192.69 113.278C191.097 111.482 189.162 110.021 186.999 108.98C184.836 107.94 182.487 107.341 180.09 107.218ZM104.646 103.873C101.755 102.094 99.419 99.5433 97.8998 96.5083C96.5027 93.7191 95.8414 90.6192 95.9787 87.5027C96.1159 84.3862 97.0471 81.3564 98.6839 78.7009C100.321 76.0453 102.609 73.8519 105.331 72.3289C108.054 70.8058 111.12 70.0036 114.24 69.9983C117.626 69.9821 120.95 70.909 123.84 72.6751C126.729 74.4413 129.07 76.977 130.6 79.9983C132.013 82.79 132.687 85.8974 132.558 89.0239C132.429 92.1504 131.501 95.1916 129.862 97.8573C128.223 100.523 125.929 102.724 123.197 104.251C120.466 105.778 117.389 106.579 114.26 106.578C110.866 106.589 107.536 105.652 104.646 103.873ZM241.401 73.0582C242.73 72.3874 243.831 71.3377 244.563 70.0417C245.296 68.7457 245.628 67.2615 245.518 65.7768C245.407 64.2921 244.859 62.8735 243.943 61.7002C243.026 60.5269 241.782 59.6517 240.369 59.185C238.955 58.7184 237.434 58.6814 235.999 59.0786C234.565 59.4759 233.28 60.2895 232.307 61.4168C231.335 62.544 230.718 63.9343 230.535 65.4119C230.353 66.8895 230.612 68.388 231.281 69.7182C232.181 71.5022 233.752 72.8561 235.65 73.4823C237.547 74.1086 239.616 73.956 241.401 73.0582ZM190.467 83.1964C191.516 81.3445 193.09 79.8451 194.99 78.8878C196.252 78.2509 197.627 77.869 199.037 77.7641C200.446 77.6591 201.862 77.8331 203.205 78.2762C204.547 78.7192 205.788 79.4226 206.858 80.3461C207.928 81.2695 208.806 82.3949 209.44 83.6578C210.398 85.5585 210.77 87.7003 210.51 89.8125C210.25 91.9247 209.369 93.9124 207.979 95.5241C206.59 97.1359 204.753 98.2993 202.703 98.8674C200.652 99.4355 198.478 99.3826 196.457 98.7155C194.437 98.0484 192.659 96.797 191.349 95.1196C190.04 93.4422 189.257 91.4141 189.1 89.2918C188.943 87.1695 189.418 85.0483 190.467 83.1964ZM141.198 60.9627C139.366 62.0435 137.254 62.5568 135.13 62.4377C132.279 62.2752 129.609 60.9873 127.708 58.857C125.806 56.7268 124.829 53.9286 124.99 51.0777C125.112 48.9537 125.861 46.9135 127.142 45.215C128.423 43.5165 130.179 42.2359 132.188 41.5351C134.196 40.8343 136.368 40.7447 138.428 41.2777C140.487 41.8106 142.343 42.9422 143.759 44.5294C145.176 46.1166 146.091 48.0881 146.387 50.1948C146.684 52.3016 146.349 54.4489 145.425 56.3655C144.502 58.2821 143.031 59.8819 141.198 60.9627ZM76.8306 172.278C78.731 171.32 80.3047 169.82 81.3524 167.967C82.4002 166.115 82.875 163.993 82.7168 161.871C82.5587 159.748 81.7746 157.72 80.4639 156.043C79.1531 154.367 77.3746 153.116 75.3531 152.45C73.3316 151.784 71.1581 151.733 69.1074 152.303C67.0567 152.872 65.2209 154.037 63.8323 155.65C62.4437 157.263 61.5646 159.251 61.3062 161.364C61.0478 163.476 61.4217 165.618 62.3806 167.518C63.666 170.065 65.9103 171.997 68.62 172.89C71.3298 173.783 74.2831 173.562 76.8306 172.278ZM139.146 89.6547C138.816 85.5965 139.848 81.5438 142.079 78.1382C143.748 75.5957 146.022 73.5084 148.699 72.0647C151.375 70.6209 154.369 69.8661 157.409 69.8682C161.481 69.8734 165.435 71.2364 168.645 73.7414C171.855 76.2465 174.137 79.7505 175.132 83.6989C176.126 87.6473 175.775 91.8146 174.135 95.5412C172.494 99.2678 169.658 102.341 166.075 104.274C162.491 106.207 158.365 106.89 154.35 106.215C150.335 105.539 146.659 103.544 143.906 100.544C141.152 97.545 139.477 93.713 139.146 89.6547ZM173.9 154.668C172.433 151.761 170.218 149.297 167.482 147.532C164.746 145.766 161.589 144.763 158.335 144.625C155.082 144.487 151.851 145.219 148.975 146.747C146.1 148.274 143.684 150.541 141.976 153.314C140.269 156.087 139.333 159.265 139.264 162.52C139.195 165.776 139.996 168.991 141.584 171.833C143.172 174.676 145.49 177.044 148.298 178.692C151.106 180.34 154.303 181.208 157.56 181.208C160.424 181.189 163.245 180.504 165.8 179.208C170.121 177.021 173.4 173.211 174.918 168.611C176.436 164.012 176.07 158.998 173.9 154.668ZM199.887 151.623C202.015 151.606 204.101 152.22 205.88 153.388C208.261 154.958 209.923 157.407 210.503 160.2C211.082 162.992 210.531 165.901 208.97 168.288C207.802 170.067 206.133 171.46 204.173 172.29C202.214 173.121 200.052 173.351 197.962 172.953C195.871 172.555 193.946 171.546 192.429 170.053C190.912 168.561 189.871 166.652 189.439 164.568C189.007 162.484 189.202 160.319 190.001 158.346C190.799 156.374 192.165 154.682 193.924 153.485C195.684 152.289 197.759 151.641 199.887 151.623ZM240.92 125.898C241.022 124.094 240.586 122.3 239.669 120.743C238.751 119.185 237.392 117.935 235.764 117.15C234.136 116.365 232.312 116.081 230.523 116.332C228.733 116.584 227.058 117.36 225.709 118.563C224.361 119.766 223.399 121.342 222.946 123.092C222.493 124.842 222.569 126.686 223.164 128.393C223.759 130.099 224.847 131.591 226.29 132.68C227.732 133.768 229.465 134.404 231.27 134.508C233.691 134.645 236.067 133.814 237.877 132.2C239.686 130.586 240.781 128.319 240.92 125.898ZM262.9 120.195C263.909 119.601 265.072 119.32 266.241 119.388C267.807 119.481 269.273 120.19 270.317 121.362C271.361 122.533 271.898 124.071 271.811 125.638C271.744 126.807 271.331 127.929 270.626 128.864C269.921 129.799 268.954 130.503 267.848 130.888C266.742 131.274 265.547 131.322 264.414 131.028C263.281 130.734 262.26 130.111 261.481 129.237C260.702 128.363 260.2 127.277 260.037 126.117C259.875 124.958 260.061 123.776 260.57 122.722C261.08 121.668 261.89 120.788 262.9 120.195ZM242.4 178.088C241.154 177.272 239.695 176.844 238.206 176.858C236.717 176.871 235.265 177.326 234.035 178.164C232.804 179.003 231.85 180.187 231.292 181.568C230.734 182.948 230.599 184.463 230.902 185.921C231.205 187.379 231.934 188.714 232.996 189.758C234.058 190.802 235.406 191.507 236.868 191.785C238.331 192.063 239.844 191.901 241.215 191.32C242.585 190.738 243.753 189.763 244.57 188.518C245.113 187.691 245.487 186.765 245.672 185.793C245.856 184.821 245.848 183.822 245.646 182.854C245.445 181.885 245.054 180.966 244.497 180.148C243.94 179.33 243.228 178.63 242.4 178.088ZM71.1035 232.388C72.2742 232.378 73.4214 232.716 74.4003 233.358C75.0505 233.785 75.6102 234.335 76.0476 234.978C76.4849 235.622 76.7913 236.344 76.9492 237.106C77.107 237.867 77.1133 238.653 76.9677 239.416C76.822 240.18 76.5272 240.908 76.1002 241.558C75.4574 242.537 74.539 243.303 73.4609 243.759C72.3828 244.216 71.1936 244.342 70.0436 244.123C68.8936 243.904 67.8344 243.348 67 242.527C66.1656 241.706 65.5933 240.656 65.3557 239.509C65.118 238.363 65.2256 237.172 65.6648 236.087C66.104 235.002 66.8551 234.071 67.8232 233.413C68.7912 232.754 69.9328 232.398 71.1035 232.388ZM198.48 232.739C197.434 233.266 196.569 234.091 195.992 235.11C195.415 236.129 195.154 237.296 195.241 238.464C195.328 239.632 195.759 240.748 196.48 241.67C197.201 242.593 198.18 243.281 199.292 243.648C200.404 244.014 201.6 244.043 202.728 243.729C203.856 243.416 204.866 242.775 205.63 241.888C206.395 241.001 206.878 239.907 207.021 238.745C207.163 237.582 206.958 236.404 206.43 235.359C206.081 234.664 205.598 234.045 205.009 233.537C204.421 233.029 203.737 232.642 202.999 232.399C202.26 232.155 201.481 232.06 200.706 232.118C199.93 232.177 199.174 232.387 198.48 232.739ZM132.653 161.48C132.984 165.539 131.952 169.592 129.72 172.998C128.06 175.546 125.788 177.638 123.112 179.082C120.436 180.527 117.441 181.278 114.4 181.268C110.328 181.265 106.373 179.904 103.161 177.4C99.95 174.896 97.6654 171.393 96.6693 167.445C95.6731 163.496 96.0224 159.328 97.6618 155.601C99.3012 151.873 102.137 148.799 105.72 146.864C109.304 144.93 113.43 144.246 117.446 144.921C121.462 145.596 125.138 147.591 127.892 150.59C130.646 153.589 132.322 157.422 132.653 161.48ZM93.1496 201.088C91.6371 200.099 89.8653 199.58 88.0581 199.597C86.2508 199.614 84.4893 200.167 82.9961 201.186C81.503 202.204 80.3452 203.642 79.6692 205.318C78.9933 206.994 78.8294 208.833 79.1983 210.603C79.5673 212.372 80.4525 213.992 81.7421 215.258C83.0316 216.525 84.6677 217.38 86.4434 217.717C88.2191 218.053 90.0547 217.856 91.7183 217.15C93.3819 216.443 94.7986 215.259 95.7896 213.748C97.1169 211.719 97.5843 209.245 97.0893 206.872C96.5943 204.498 95.1773 202.418 93.1496 201.088ZM131.573 237.147C132.856 236.391 134.334 236.033 135.821 236.118C136.809 236.174 137.775 236.424 138.666 236.854C139.557 237.284 140.355 237.885 141.013 238.624C141.671 239.362 142.178 240.223 142.504 241.157C142.829 242.091 142.968 243.08 142.911 244.068C142.825 245.554 142.301 246.982 141.404 248.171C140.507 249.36 139.278 250.256 137.872 250.746C136.466 251.236 134.946 251.298 133.504 250.925C132.063 250.551 130.765 249.759 129.773 248.647C128.782 247.536 128.143 246.156 127.936 244.681C127.729 243.206 127.965 241.704 128.612 240.362C129.259 239.021 130.289 237.902 131.573 237.147ZM135.901 188.738C133.775 188.608 131.658 189.113 129.819 190.188C127.98 191.262 126.502 192.859 125.571 194.774C124.64 196.69 124.298 198.839 124.589 200.949C124.881 203.059 125.791 205.035 127.207 206.627C128.622 208.219 130.477 209.355 132.539 209.891C134.6 210.427 136.774 210.34 138.786 209.64C140.797 208.939 142.556 207.658 143.838 205.957C145.121 204.257 145.87 202.214 145.991 200.088C146.155 197.245 145.185 194.454 143.293 192.326C141.401 190.198 138.743 188.908 135.901 188.738ZM176.073 204.036C176.96 202.458 178.296 201.178 179.91 200.358C180.98 199.813 182.146 199.484 183.343 199.389C184.54 199.295 185.743 199.438 186.885 199.81C188.026 200.181 189.083 200.774 189.995 201.555C190.908 202.335 191.657 203.288 192.2 204.358C193.023 205.971 193.349 207.792 193.137 209.59C192.925 211.388 192.184 213.083 191.009 214.46C189.833 215.837 188.275 216.834 186.532 217.325C184.79 217.816 182.94 217.779 181.219 217.219C179.497 216.659 177.98 215.6 176.86 214.177C175.74 212.754 175.068 211.031 174.928 209.226C174.788 207.421 175.186 205.615 176.073 204.036Z" fill="url(#paint0_linear_674_7508)"/>
</g>
<defs>
<linearGradient id="paint0_linear_674_7508" x1="0" y1="0" x2="312.399" y2="66.7639" gradientUnits="userSpaceOnUse">
<stop stop-color="#0033AD"/>
<stop offset="1" stop-color="#5C8DFF"/>
</linearGradient>
<clipPath id="clip0_674_7508">
<rect width="272" height="252" fill="white"/>
</clipPath>
</defs>
</svg>
