<svg width="145" height="64" viewBox="0 0 145 64" fill="none" xmlns="http://www.w3.org/2000/svg">
<path fill-rule="evenodd" clip-rule="evenodd" d="M64.0527 13.2551L44.3212 24.6483C43.922 24.8775 43.4325 24.8775 43.0333 24.6483L24.2394 13.796C23.3816 13.2988 23.3816 12.0598 24.2394 11.5652L43.9683 0.171942C44.3676 -0.0573141 44.8596 -0.0573141 45.2563 0.171942L64.0502 11.0243C64.908 11.5189 64.908 12.7604 64.0502 13.2551H64.0527ZM40.63 33.265C40.63 38.2236 35.2644 41.3198 30.9704 38.8418L29.5124 37.9995C27.5212 36.8481 26.2925 34.723 26.2925 32.4226V30.738C26.2925 25.7794 31.6581 22.6831 35.9521 25.1611L37.4101 26.0034C39.4013 27.1549 40.63 29.28 40.63 31.5803V33.265ZM66.9224 15.996C66.9224 15.0043 65.8482 14.386 64.9905 14.8807L45.2564 26.2765C44.8571 26.5058 44.6124 26.9308 44.6124 27.3919V49.0888C44.6124 50.0806 45.6866 50.6987 46.5443 50.2042L66.2784 38.8109C66.6777 38.5816 66.9224 38.1566 66.9224 37.6955V15.996ZM21.6661 37.7288L1.93194 49.122C1.07416 49.6166 0 48.9984 0 48.0067V26.3046C0 25.8435 0.247288 25.4185 0.643979 25.1893L20.3755 13.7959C21.2359 13.3014 22.31 13.9196 22.31 14.9113V36.6108C22.31 37.0719 22.0653 37.497 21.6661 37.7262V37.7288ZM22.9514 63.828L42.683 52.4348C43.5407 51.9376 43.5407 50.6986 42.683 50.2041L23.8891 39.3543C23.4898 39.125 23.0004 39.125 22.6011 39.3543L2.86959 50.745C2.01181 51.2395 2.01181 52.4811 2.86959 52.9757L21.6609 63.828C22.0602 64.0573 22.5522 64.0573 22.9514 63.828ZM80.7827 19.273V13.6465H86.7V19.273H80.7827ZM80.7827 48.7147V23.2018H86.7V48.7147H80.7827ZM93.0034 23.2018V48.7147H98.9207V35.5702C98.9207 34.4061 99.0499 33.3875 99.3088 32.5145C99.5672 31.6414 99.9553 30.9139 100.473 30.3318C101.023 29.7498 101.685 29.3294 102.462 29.0707C103.238 28.7797 104.127 28.6342 105.129 28.6342H106.924V23.0562C106.698 22.9593 106.358 22.8622 105.905 22.7653C105.485 22.6682 105.016 22.6197 104.499 22.6197C103.432 22.6197 102.526 22.8461 101.782 23.2988C101.039 23.7192 100.424 24.285 99.9392 24.9964C99.4869 25.6754 99.0987 26.4192 98.7755 27.2276H98.4355L97.951 23.2018H93.0034ZM110.577 19.273V13.6465H116.494V19.273H110.577ZM110.577 48.7147V23.2018H116.494V48.7147H110.577ZM127.89 48.7147C129.281 49.1027 130.897 49.2968 132.741 49.2968C134.357 49.2968 135.844 49.1512 137.203 48.8602C138.593 48.5692 139.79 48.1165 140.792 47.5021C141.827 46.8554 142.619 46.0146 143.168 44.9799C143.751 43.9129 144.042 42.6356 144.042 41.1481C144.042 39.596 143.719 38.3511 143.071 37.4134C142.425 36.4756 141.568 35.7481 140.501 35.2307C139.466 34.7133 138.335 34.293 137.106 33.9696C135.877 33.6139 134.681 33.2744 133.516 32.951C132.547 32.66 131.641 32.3852 130.801 32.1264C129.992 31.8678 129.345 31.5606 128.86 31.2049C128.375 30.8492 128.132 30.3642 128.132 29.7498C128.132 29.3941 128.229 29.0707 128.423 28.7797C128.618 28.4887 128.893 28.23 129.248 28.0036C129.636 27.7773 130.121 27.5995 130.703 27.4701C131.285 27.3407 131.964 27.2761 132.741 27.2761C133.775 27.2761 134.632 27.4054 135.311 27.6641C136.022 27.9228 136.556 28.2785 136.912 28.7312C137.299 29.1515 137.493 29.6689 137.493 30.2833V30.6228H143.266V30.2348C143.298 30.0085 143.314 29.7821 143.314 29.5557C143.314 28.521 143.055 27.5833 142.538 26.7425C142.053 25.8695 141.341 25.1419 140.404 24.5599C139.498 23.9455 138.415 23.4766 137.154 23.1533C135.925 22.8299 134.551 22.6682 133.031 22.6682C131.479 22.6682 130.04 22.8299 128.715 23.1533C127.389 23.4766 126.241 23.9617 125.271 24.6084C124.301 25.2228 123.541 25.9988 122.991 26.9365C122.441 27.8743 122.167 28.9737 122.167 30.2348C122.167 31.5282 122.425 32.6115 122.942 33.4846C123.493 34.3576 124.187 35.069 125.028 35.6187C125.901 36.1684 126.872 36.6211 127.938 36.9768C129.006 37.3325 130.072 37.6559 131.14 37.9469C132.336 38.2702 133.452 38.5774 134.487 38.8685C135.553 39.1595 136.411 39.5313 137.057 39.9841C137.704 40.4367 138.027 41.0835 138.027 41.9242C138.027 42.5709 137.768 43.1045 137.251 43.5248C136.766 43.9129 136.136 44.2039 135.359 44.3979C134.616 44.5595 133.823 44.6404 132.983 44.6404C132.045 44.6404 131.156 44.5272 130.315 44.3009C129.474 44.0745 128.796 43.7027 128.278 43.1853C127.761 42.6356 127.486 41.9242 127.454 41.0511V40.8571V40.6631H121.633C121.633 40.7278 121.617 40.8248 121.585 40.9541V41.3906C121.585 42.5224 121.811 43.5733 122.263 44.5434C122.748 45.4811 123.46 46.3057 124.397 47.0171C125.336 47.7285 126.499 48.2944 127.89 48.7147Z" fill="url(#paint0_linear_367_2312)"/>
<defs>
<linearGradient id="paint0_linear_367_2312" x1="0" y1="0" x2="144.552" y2="64.2455" gradientUnits="userSpaceOnUse">
<stop stop-color="#0033AD"/>
<stop offset="1" stop-color="#5C8DFF"/>
</linearGradient>
</defs>
</svg>
