<svg xmlns="http://www.w3.org/2000/svg" width="175" height="36" fill="none"><path fill="url(#a)" fill-rule="evenodd" d="M19.316 2.15A1.076 1.076 0 1 0 19.438 0a1.076 1.076 0 0 0-.122 2.149m9.357.532a.845.845 0 1 1-.016-1.69.845.845 0 0 1 .016 1.69m-18.199-.05a.845.845 0 1 0-.771-1.503.845.845 0 0 0 .771 1.504m.825 17.066a2.62 2.62 0 0 1-.659-1.893l-.007.002a2.616 2.616 0 0 1 5.184-.307 2.615 2.615 0 0 1-2.571 3.071h-.143a2.62 2.62 0 0 1-1.804-.873M.415 17.258a.845.845 0 1 1 .859 1.455.845.845 0 0 1-.859-1.455m13.26-10.523a1.306 1.306 0 1 1-2.272-1.285 1.306 1.306 0 0 1 2.273 1.285M4.2 10.44a1.076 1.076 0 1 0 1.182-1.798A1.076 1.076 0 0 0 4.2 10.44m.853 6.406a1.304 1.304 0 0 1 1.706 1.91 1.306 1.306 0 1 1-1.706-1.91m-.71 8.6a1.076 1.076 0 1 0 .97 1.92 1.076 1.076 0 0 0-.97-1.92m5.932-11.226a1.537 1.537 0 1 1-.027-3.075 1.537 1.537 0 0 1 .027 3.075m15.247-7.065a1.307 1.307 0 1 0 1.428-2.189 1.307 1.307 0 0 0-1.428 2.19m.205 8.162a2.613 2.613 0 0 0-2.76 2.46 2.615 2.615 0 0 0 2.46 2.761h.152a2.615 2.615 0 0 0 1.135-4.97 2.6 2.6 0 0 0-.987-.251m-10.778-.478a2.6 2.6 0 0 1-1.238-2.339A2.616 2.616 0 0 1 16.32 10a2.606 2.606 0 0 1 2.617 2.718 2.615 2.615 0 0 1-2.614 2.507 2.6 2.6 0 0 1-1.374-.386m19.537-4.402a1.076 1.076 0 1 0-.97-1.92 1.076 1.076 0 0 0 .97 1.92m-7.276 1.448a1.537 1.537 0 1 1 2.675 1.515 1.537 1.537 0 0 1-2.675-1.515M20.17 8.71a1.537 1.537 0 1 1-1.561-2.647 1.537 1.537 0 0 1 1.561 2.647m-9.195 15.902a1.536 1.536 0 1 0-1.383-2.744 1.536 1.536 0 0 0 1.383 2.744m8.902-11.803a2.616 2.616 0 0 1 4.214-2.274 2.615 2.615 0 1 1-4.214 2.274m4.965 9.287a2.615 2.615 0 1 0-2.334 3.792c.409-.003.812-.1 1.177-.286a2.615 2.615 0 0 0 1.157-3.506m3.712-.435a1.537 1.537 0 1 1 .025 3.075 1.537 1.537 0 0 1-.025-3.075m5.862-3.675a1.306 1.306 0 1 0-2.607-.147 1.306 1.306 0 0 0 2.607.147m3.14-.814a.845.845 0 1 1 .857 1.456.845.845 0 0 1-.857-1.456m-2.928 8.27a1.076 1.076 0 1 0-1.179 1.8 1.076 1.076 0 0 0 1.179-1.8m-24.471 7.757a.845.845 0 1 1 .014 1.69.845.845 0 0 1-.014-1.69m18.196.05a.846.846 0 1 0 .762 1.511.846.846 0 0 0-.762-1.51m-9.404-10.18a2.614 2.614 0 1 1-5.21.426 2.614 2.614 0 0 1 5.21-.425m-5.643 5.659a1.306 1.306 0 1 0-1.43 2.186 1.306 1.306 0 0 0 1.43-2.186m5.49 5.151a1.075 1.075 0 1 1 1.09 1.853 1.075 1.075 0 0 1-1.09-1.853m.617-6.915a1.535 1.535 0 0 0-1.616 1.744 1.537 1.537 0 1 0 1.616-1.744m5.74 2.185a1.31 1.31 0 0 1 1.988-.354 1.307 1.307 0 1 1-1.989.354m20.772-2.72V9.748H58.69v1.654H47.846v5.641h9.775v1.678h-9.775v6.054h10.99v1.653zM67.242 17.7l-6.735 8.728h2.285l5.568-7.294h.122l5.568 7.294h2.358l-6.735-8.753L75.68 9.75h-2.261l-4.863 6.492h-.122l-4.96-6.492h-2.358zm11.64 8.728V9.748h8.17q1.702 0 2.796.657a3.9 3.9 0 0 1 1.653 1.751q.56 1.119.56 2.553 0 1.483-.633 2.65a4.6 4.6 0 0 1-1.75 1.824q-1.119.632-2.578.632h-6.297v6.613zm1.921-8.266h6.152q1.41 0 2.285-.9.875-.924.875-2.529 0-1.045-.364-1.775a2.4 2.4 0 0 0-1.046-1.142q-.705-.414-1.75-.414h-6.152zm14.202-8.413v16.68h10.163V24.75h-8.243V9.749zm19.287 16.971q-2.577 0-4.45-.948-1.848-.973-2.844-2.894-.997-1.92-.997-4.79 0-2.892.997-4.79.996-1.92 2.844-2.868 1.873-.973 4.45-.973 2.601 0 4.449.973 1.873.948 2.845 2.869.997 1.896.997 4.79 0 2.868-.997 4.79-.972 1.92-2.845 2.893-1.848.948-4.449.948m0-1.653q1.434 0 2.601-.365a5 5 0 0 0 1.994-1.216q.827-.826 1.265-2.09.462-1.266.461-3.04v-.51q0-1.8-.461-3.064-.438-1.264-1.265-2.091a4.8 4.8 0 0 0-1.994-1.192q-1.167-.389-2.601-.389-1.435 0-2.602.39a4.8 4.8 0 0 0-1.969 1.19q-.827.828-1.289 2.092-.437 1.265-.437 3.063v.511q0 1.774.437 3.04.462 1.264 1.289 2.09a5.04 5.04 0 0 0 1.969 1.216q1.167.365 2.602.365m11.841-15.318v16.68h1.921v-6.857h6.881l3.331 6.856h2.115l-3.55-7.197a4.38 4.38 0 0 0 2.14-1.726q.827-1.24.827-3.015 0-1.362-.56-2.431a3.87 3.87 0 0 0-1.629-1.678q-1.07-.632-2.723-.632zm8.559 8.17h-6.638v-6.517h6.638q1.045 0 1.75.39.705.364 1.07 1.045t.365 1.653q0 1.605-.851 2.529-.852.9-2.334.9m9.249 8.51V9.748h12.765v1.653h-10.845v5.641h9.775v1.678h-9.775v6.054h10.99v1.653zm16.502-16.68v16.68h1.921v-6.857h6.882l3.33 6.856h2.115l-3.55-7.197a4.38 4.38 0 0 0 2.14-1.726q.828-1.24.828-3.015-.001-1.362-.56-2.431a3.9 3.9 0 0 0-1.629-1.678q-1.07-.632-2.723-.632zm8.558 8.17h-6.637v-6.517h6.637q1.047 0 1.752.39.704.364 1.07 1.045.364.681.364 1.653 0 1.605-.851 2.529-.851.9-2.335.9" clip-rule="evenodd"/><defs><linearGradient id="a" x1="0" x2="109.096" y1="0" y2="104.889" gradientUnits="userSpaceOnUse"><stop stop-color="#3DABFF"/><stop offset="1" stop-color="#66BDFF"/></linearGradient></defs></svg>