<svg width="205" height="55" viewBox="0 0 205 55" fill="none" xmlns="http://www.w3.org/2000/svg">
<path fill-rule="evenodd" clip-rule="evenodd" d="M29.6084 3.29516C29.934 3.3137 30.2579 3.23525 30.5389 3.06972C30.82 2.90419 31.0456 2.65902 31.1873 2.36523C31.329 2.07143 31.3804 1.74221 31.335 1.41921C31.2895 1.09622 31.1493 0.793948 30.9321 0.550649C30.7148 0.30735 30.4303 0.133951 30.1145 0.0523861C29.7986 -0.0291788 29.4657 -0.0152448 29.1578 0.0924255C28.8499 0.200096 28.5809 0.396665 28.3847 0.657267C28.1886 0.917869 28.0741 1.2308 28.0558 1.55646C28.0313 1.99287 28.1811 2.42115 28.4722 2.74717C28.7633 3.0732 29.172 3.2703 29.6084 3.29516ZM43.951 4.11167C43.6945 4.11398 43.4432 4.04016 43.2287 3.89956C42.9414 3.71124 42.7406 3.41659 42.6704 3.08032C42.6002 2.74406 42.6663 2.39367 42.8542 2.10612C42.9945 1.89144 43.1954 1.72321 43.4313 1.6227C43.6673 1.5222 43.9277 1.49394 44.1798 1.5415C44.4318 1.58906 44.664 1.71031 44.8471 1.8899C45.0302 2.0695 45.1559 2.29936 45.2083 2.55041C45.2608 2.80147 45.2375 3.06243 45.1416 3.30028C45.0457 3.53813 44.8813 3.74218 44.6694 3.88661C44.4575 4.03104 44.2075 4.10937 43.951 4.11167ZM16.0556 4.03529C16.2832 3.91845 16.471 3.7369 16.5956 3.5135C16.7202 3.2901 16.7759 3.03484 16.7557 2.77985C16.7356 2.52486 16.6404 2.28154 16.4822 2.08051C16.3241 1.87949 16.11 1.72974 15.8669 1.65013C15.6238 1.57052 15.3626 1.56461 15.1162 1.63312C14.8697 1.70164 14.6491 1.84153 14.482 2.03519C14.3149 2.22884 14.2088 2.46761 14.1771 2.72142C14.1454 2.97523 14.1894 3.23276 14.3038 3.46157C14.3806 3.61472 14.4871 3.75115 14.6169 3.86299C14.7467 3.97483 14.8974 4.05987 15.0602 4.1132C15.2231 4.16653 15.3949 4.1871 15.5657 4.17373C15.7365 4.16036 15.903 4.11331 16.0556 4.03529ZM17.3197 30.1941C16.6119 29.3992 16.2485 28.3557 16.3095 27.2931L16.2986 27.2953C16.3435 26.514 16.6162 25.7629 17.083 25.1348C17.5498 24.5067 18.1903 24.029 18.9255 23.7607C19.6607 23.4924 20.4583 23.4453 21.22 23.6251C21.9816 23.8049 22.674 24.2037 23.2115 24.7725C23.7491 25.3412 24.1084 26.0549 24.2451 26.8255C24.3817 27.596 24.2897 28.3898 23.9805 29.1087C23.6713 29.8276 23.1583 30.4402 22.5049 30.8709C21.8515 31.3016 21.0863 31.5316 20.3037 31.5325H20.0847C19.0221 31.4704 18.0276 30.989 17.3197 30.1941ZM0.636633 26.4545C0.857024 26.3245 1.11101 26.2627 1.36649 26.277C1.53644 26.2862 1.70289 26.3289 1.85628 26.4027C2.00967 26.4764 2.14698 26.5798 2.26032 26.7067C2.37366 26.8337 2.4608 26.9818 2.51672 27.1426C2.57265 27.3033 2.59626 27.4735 2.5862 27.6434C2.57151 27.8989 2.48143 28.1443 2.32733 28.3485C2.17323 28.5528 1.96204 28.7068 1.72044 28.7911C1.47884 28.8754 1.21768 28.8862 0.969961 28.8221C0.722242 28.758 0.499084 28.6219 0.32869 28.431C0.158295 28.2401 0.0483122 28.003 0.0126394 27.7496C-0.0230334 27.4962 0.0172055 27.2379 0.128271 27.0074C0.239336 26.7769 0.416242 26.5845 0.636633 26.4545ZM20.9629 10.324C20.768 10.6686 20.4755 10.9476 20.1221 11.1258C19.8873 11.2443 19.6315 11.3153 19.3692 11.3348C19.107 11.3543 18.8435 11.322 18.5938 11.2396C18.344 11.1573 18.113 11.0265 17.9138 10.8548C17.7147 10.6831 17.5513 10.4738 17.433 10.239C17.255 9.88546 17.1858 9.48712 17.2342 9.09429C17.2825 8.70147 17.4463 8.3318 17.7047 8.03202C17.9631 7.73225 18.3046 7.51582 18.6861 7.4101C19.0675 7.30439 19.4717 7.31412 19.8475 7.43809C20.2234 7.56206 20.5541 7.79468 20.7978 8.10656C21.0415 8.41844 21.1872 8.79556 21.2166 9.19026C21.246 9.58496 21.1577 9.97951 20.9629 10.324ZM6.43817 16.0025C6.71073 16.1818 7.03034 16.2761 7.35656 16.2737C7.68277 16.2712 8.00093 16.1721 8.27077 15.9887C8.54061 15.8054 8.75001 15.5462 8.87247 15.2438C8.99494 14.9414 9.02496 14.6095 8.95874 14.2901C8.89253 13.9707 8.73305 13.6781 8.50048 13.4493C8.26792 13.2205 7.97272 13.0659 7.65225 13.0049C7.33177 12.944 7.00041 12.9795 6.7001 13.1069C6.39979 13.2343 6.14403 13.4479 5.96517 13.7208C5.72562 14.0861 5.64089 14.5317 5.72957 14.9595C5.81825 15.3873 6.07311 15.7625 6.43817 16.0025ZM7.74613 25.8218C8.08708 25.6209 8.47996 25.5255 8.87509 25.5478C9.40523 25.5783 9.90157 25.818 10.2551 26.2142C10.6086 26.6105 10.7904 27.1308 10.7605 27.661C10.7378 28.0561 10.5985 28.4356 10.3601 28.7515C10.1217 29.0675 9.79507 29.3057 9.42138 29.436C9.04769 29.5663 8.64375 29.5829 8.26062 29.4837C7.87749 29.3845 7.53238 29.1739 7.2689 28.8786C7.00542 28.5833 6.8354 28.2165 6.78033 27.8246C6.72527 27.4327 6.78763 27.0332 6.95953 26.6768C7.13144 26.3203 7.40517 26.0228 7.74613 25.8218ZM6.65706 39.004C6.36605 39.1511 6.12518 39.3812 5.96489 39.6651C5.80461 39.949 5.7321 40.2741 5.75654 40.5993C5.78099 40.9244 5.90128 41.235 6.10221 41.4918C6.30314 41.7486 6.5757 41.9401 6.88543 42.042C7.19515 42.1439 7.52814 42.1517 7.84229 42.0644C8.15645 41.9771 8.43767 41.7986 8.65041 41.5515C8.86315 41.3044 8.99786 40.9998 9.0375 40.6761C9.07714 40.3525 9.01994 40.0244 8.87312 39.7332C8.77557 39.5398 8.64084 39.3674 8.47665 39.2261C8.31246 39.0847 8.12201 38.9771 7.91621 38.9094C7.7104 38.8417 7.49327 38.8152 7.27721 38.8314C7.06116 38.8476 6.85043 38.9063 6.65706 39.004ZM15.7499 21.7967C15.2839 21.8008 14.8272 21.6667 14.4374 21.4113C14.1783 21.2419 13.9552 21.023 13.7809 20.7672C13.6065 20.5114 13.4843 20.2238 13.4212 19.9207C13.3582 19.6176 13.3555 19.3051 13.4134 19.001C13.4713 18.6969 13.5886 18.4072 13.7586 18.1485C14.0141 17.7588 14.3794 17.4537 14.8084 17.2716C15.2374 17.0896 15.7107 17.0388 16.1685 17.1257C16.6263 17.2127 17.048 17.4334 17.3804 17.76C17.7128 18.0866 17.9408 18.5044 18.0357 18.9606C18.1307 19.4169 18.0882 19.891 17.9137 20.3231C17.7391 20.7551 17.4404 21.1257 17.0553 21.3881C16.6701 21.6504 16.2158 21.7926 15.7499 21.7967ZM39.1206 10.9681C39.4524 11.1846 39.841 11.2978 40.2372 11.2935C40.6334 11.2892 41.0194 11.1675 41.3464 10.9438C41.6734 10.7201 41.9268 10.4045 42.0745 10.0368C42.2222 9.6692 42.2576 9.26602 42.1762 8.87827C42.0948 8.49052 41.9002 8.1356 41.6172 7.85839C41.3341 7.58118 40.9752 7.39412 40.5858 7.32085C40.1964 7.24758 39.7941 7.2914 39.4296 7.44675C39.0651 7.60211 38.7549 7.86204 38.5381 8.19368C38.3938 8.41397 38.2943 8.66059 38.2455 8.91938C38.1966 9.17818 38.1994 9.44407 38.2535 9.70182C38.3076 9.95957 38.412 10.2041 38.5608 10.4214C38.7096 10.6387 38.8999 10.8245 39.1206 10.9681ZM39.436 23.4784C38.9104 23.4482 38.3841 23.5218 37.887 23.695C37.3899 23.8683 36.9318 24.1377 36.5389 24.4879C35.7453 25.1953 35.2652 26.189 35.2042 27.2503C35.1432 28.3117 35.5063 29.3538 36.2137 30.1474C36.9211 30.941 37.9147 31.4211 38.9761 31.4821H39.2082C39.9814 31.4817 40.7379 31.2577 41.3866 30.837C42.0353 30.4163 42.5485 29.817 42.8642 29.1112C43.18 28.4054 43.2848 27.6234 43.166 26.8594C43.0473 26.0954 42.7101 25.3821 42.1951 24.8054C41.8463 24.4121 41.4227 24.0923 40.949 23.8644C40.4753 23.6366 39.9609 23.5054 39.436 23.4784ZM22.9154 22.746C22.2824 22.3564 21.7708 21.7978 21.4382 21.1332C21.1322 20.5224 20.9874 19.8436 21.0175 19.1612C21.0475 18.4787 21.2514 17.8153 21.6099 17.2338C21.9683 16.6522 22.4694 16.1719 23.0655 15.8384C23.6617 15.5049 24.3332 15.3292 25.0163 15.3281C25.7578 15.3245 26.4857 15.5275 27.1185 15.9143C27.7512 16.301 28.2638 16.8563 28.5988 17.5179C28.9083 18.1292 29.0559 18.8097 29.0276 19.4943C28.9994 20.1789 28.7961 20.8449 28.4372 21.4286C28.0784 22.0123 27.5759 22.4944 26.9778 22.8287C26.3797 23.163 25.7059 23.3385 25.0207 23.3383C24.2774 23.3407 23.5483 23.1355 22.9154 22.746ZM52.8615 15.9981C53.1526 15.8512 53.3936 15.6214 53.554 15.3376C53.7145 15.0538 53.7872 14.7288 53.763 14.4037C53.7388 14.0785 53.6188 13.7679 53.4181 13.511C53.2174 13.254 52.945 13.0624 52.6355 12.9602C52.3259 12.858 51.9929 12.8499 51.6787 12.9369C51.3645 13.0239 51.0832 13.2021 50.8702 13.4489C50.6572 13.6958 50.5222 14.0002 50.4822 14.3238C50.4422 14.6473 50.499 14.9755 50.6455 15.2667C50.8425 15.6574 51.1866 15.9539 51.6022 16.091C52.0177 16.2282 52.4706 16.1947 52.8615 15.9981ZM41.7084 18.2183C41.938 17.8127 42.2827 17.4844 42.6989 17.2748C42.9752 17.1353 43.2763 17.0517 43.5849 17.0287C43.8936 17.0057 44.2037 17.0438 44.4976 17.1409C44.7915 17.2379 45.0634 17.3919 45.2977 17.5941C45.532 17.7963 45.7242 18.0428 45.8631 18.3193C46.0728 18.7355 46.1543 19.2045 46.0973 19.6671C46.0404 20.1296 45.8476 20.5648 45.5433 20.9178C45.2389 21.2707 44.8368 21.5255 44.3877 21.6499C43.9386 21.7743 43.4627 21.7627 43.0202 21.6166C42.5776 21.4706 42.1884 21.1965 41.9016 20.8292C41.6148 20.4619 41.4434 20.0178 41.409 19.553C41.3746 19.0883 41.4788 18.6238 41.7084 18.2183ZM30.9196 13.3496C30.5183 13.5862 30.0559 13.6986 29.5907 13.6726C28.9665 13.637 28.3819 13.3549 27.9655 12.8885C27.5491 12.422 27.335 11.8092 27.3703 11.185C27.397 10.7198 27.561 10.2731 27.8415 9.90114C28.1221 9.52921 28.5066 9.24879 28.9465 9.09532C29.3863 8.94186 29.8618 8.92224 30.3129 9.03895C30.7639 9.15565 31.1702 9.40344 31.4804 9.751C31.7907 10.0986 31.9909 10.5303 32.0558 10.9916C32.1208 11.453 32.0475 11.9232 31.8453 12.3429C31.643 12.7626 31.3209 13.1129 30.9196 13.3496ZM16.8243 37.7252C17.2404 37.5154 17.585 37.1869 17.8145 36.7812C18.0439 36.3756 18.1479 35.911 18.1132 35.4462C18.0786 34.9814 17.9069 34.5374 17.6199 34.1702C17.3329 33.803 16.9434 33.5292 16.5007 33.3834C16.0581 33.2375 15.5821 33.2263 15.1331 33.351C14.684 33.4757 14.282 33.7308 13.9779 34.084C13.6738 34.4372 13.4813 34.8726 13.4248 35.3352C13.3682 35.7978 13.45 36.2668 13.66 36.6829C13.9415 37.2406 14.433 37.6637 15.0263 37.8592C15.6197 38.0547 16.2664 38.0065 16.8243 37.7252ZM30.4703 19.6324C30.3979 18.7437 30.6239 17.8563 31.1126 17.1105C31.4779 16.5538 31.976 16.0967 32.562 15.7806C33.1481 15.4644 33.8036 15.2991 34.4695 15.2996C35.3611 15.3007 36.2269 15.5992 36.9298 16.1477C37.6327 16.6963 38.1326 17.4636 38.3503 18.3282C38.5681 19.1928 38.4913 20.1054 38.132 20.9214C37.7728 21.7375 37.1517 22.4104 36.367 22.8337C35.5823 23.257 34.6788 23.4066 33.7995 23.2587C32.9203 23.1107 32.1155 22.6738 31.5125 22.017C30.9095 21.3602 30.5427 20.5211 30.4703 19.6324ZM38.0806 33.869C37.7595 33.2324 37.2744 32.6929 36.6753 32.3063C36.0762 31.9197 35.3847 31.6999 34.6724 31.6697C33.96 31.6395 33.2524 31.7999 32.6227 32.1344C31.993 32.4688 31.4639 32.9653 31.0901 33.5725C30.7163 34.1796 30.5112 34.8756 30.4961 35.5884C30.481 36.3013 30.6563 37.0053 31.0041 37.6278C31.3518 38.2503 31.8594 38.7687 32.4744 39.1296C33.0893 39.4905 33.7894 39.6807 34.5025 39.6807C35.1297 39.6764 35.7474 39.5265 36.3069 39.2428C37.2531 38.7638 37.9711 37.9294 38.3035 36.9222C38.6359 35.915 38.5558 34.8172 38.0806 33.869ZM43.7713 33.2023C44.2373 33.1985 44.6939 33.333 45.0835 33.5887C45.605 33.9324 45.969 34.4688 46.0958 35.0803C46.2226 35.6919 46.1019 36.3288 45.7601 36.8515C45.5044 37.2411 45.1389 37.5461 44.7098 37.7279C44.2807 37.9097 43.8074 37.9602 43.3496 37.873C42.8918 37.7858 42.4701 37.5649 42.138 37.238C41.8058 36.9112 41.5779 36.4932 41.4833 36.0369C41.3887 35.5806 41.4315 35.1065 41.6063 34.6745C41.7811 34.2425 42.0801 33.8721 42.4655 33.61C42.8509 33.348 43.3053 33.2061 43.7713 33.2023ZM52.7564 27.569C52.7787 27.1738 52.6833 26.781 52.4824 26.44C52.2815 26.0991 51.9839 25.8253 51.6275 25.6534C51.271 25.4815 50.8716 25.4192 50.4796 25.4742C50.0877 25.5293 49.7209 25.6993 49.4256 25.9628C49.1303 26.2263 48.9198 26.5714 48.8205 26.9545C48.7213 27.3376 48.7379 27.7416 48.8683 28.1153C48.9986 28.489 49.2368 28.8156 49.5527 29.054C49.8686 29.2923 50.2481 29.4317 50.6432 29.4544C51.1734 29.4843 51.6938 29.3025 52.09 28.949C52.4862 28.5955 52.7259 28.0991 52.7564 27.569ZM57.5694 26.3201C57.7904 26.1902 58.045 26.1287 58.301 26.1434C58.644 26.1637 58.965 26.3192 59.1936 26.5757C59.4222 26.8322 59.5398 27.1689 59.5207 27.512C59.506 27.768 59.4157 28.0138 59.2612 28.2185C59.1068 28.4232 58.8951 28.5774 58.653 28.6618C58.4108 28.7461 58.1491 28.7568 57.901 28.6924C57.6528 28.628 57.4293 28.4915 57.2587 28.3001C57.0881 28.1087 56.9781 27.871 56.9426 27.6171C56.9071 27.3631 56.9477 27.1044 57.0593 26.8735C57.1708 26.6427 57.3483 26.4501 57.5694 26.3201ZM53.0804 38.9975C52.8076 38.8188 52.488 38.725 52.162 38.728C51.8359 38.731 51.5181 38.8305 51.2486 39.0141C50.9791 39.1977 50.7701 39.457 50.648 39.7594C50.5259 40.0617 50.4962 40.3935 50.5626 40.7127C50.629 41.0319 50.7886 41.3243 51.0211 41.5529C51.2537 41.7814 51.5488 41.9359 51.8691 41.9968C52.1895 42.0576 52.5207 42.0222 52.8208 41.8948C53.121 41.7675 53.3767 41.554 53.5556 41.2814C53.6744 41.1003 53.7564 40.8975 53.7969 40.6847C53.8373 40.4718 53.8354 40.2531 53.7913 40.041C53.7472 39.8289 53.6617 39.6275 53.5397 39.4485C53.4177 39.2694 53.2616 39.1162 53.0804 38.9975ZM15.5701 50.888C15.8264 50.8859 16.0776 50.9598 16.292 51.1005C16.4344 51.1939 16.5569 51.3145 16.6527 51.4553C16.7485 51.5961 16.8156 51.7544 16.8501 51.9212C16.8847 52.0879 16.8861 52.2598 16.8542 52.4271C16.8223 52.5944 16.7578 52.7538 16.6642 52.8961C16.5235 53.1104 16.3224 53.2781 16.0863 53.378C15.8502 53.478 15.5898 53.5057 15.338 53.4577C15.0861 53.4097 14.8542 53.2881 14.6715 53.1083C14.4888 52.9285 14.3635 52.6985 14.3114 52.4475C14.2594 52.1964 14.2829 51.9356 14.3791 51.698C14.4753 51.4603 14.6398 51.2565 14.8517 51.1124C15.0637 50.9682 15.3137 50.8901 15.5701 50.888ZM43.463 50.9647C43.2341 51.0801 43.0444 51.2608 42.9182 51.484C42.7919 51.7071 42.7347 51.9628 42.7537 52.2185C42.7727 52.4742 42.8672 52.7185 43.0251 52.9205C43.1829 53.1226 43.3972 53.2733 43.6407 53.3535C43.8843 53.4338 44.1461 53.44 44.3932 53.3714C44.6403 53.3028 44.8615 53.1625 45.0288 52.9682C45.1961 52.7739 45.3021 52.5344 45.3332 52.2799C45.3644 52.0254 45.3194 51.7673 45.2039 51.5384C45.1275 51.3862 45.0218 51.2507 44.8928 51.1394C44.7639 51.0282 44.6143 50.9435 44.4525 50.8902C44.2908 50.8369 44.1202 50.8161 43.9504 50.8288C43.7806 50.8416 43.615 50.8878 43.463 50.9647ZM29.0483 35.3607C29.1208 36.2495 28.8948 37.137 28.406 37.8829C28.0425 38.4408 27.5451 38.8989 26.9591 39.2152C26.3731 39.5315 25.7172 39.6961 25.0513 39.6938C24.1596 39.6932 23.2935 39.3951 22.5903 38.8468C21.8871 38.2986 21.3868 37.5314 21.1686 36.6668C20.9505 35.8022 21.027 34.8895 21.386 34.0732C21.745 33.257 22.366 32.5838 23.1506 32.1602C23.9353 31.7366 24.8389 31.5868 25.7183 31.7346C26.5976 31.8823 27.4026 32.3192 28.0058 32.976C28.6089 33.6328 28.9758 34.4719 29.0483 35.3607ZM20.398 44.034C20.0668 43.8174 19.6788 43.7038 19.2831 43.7076C18.8873 43.7114 18.5016 43.8324 18.1746 44.0554C17.8476 44.2784 17.5941 44.5933 17.4461 44.9604C17.2981 45.3274 17.2622 45.7301 17.343 46.1175C17.4238 46.505 17.6176 46.8597 17.9 47.137C18.1824 47.4143 18.5406 47.6017 18.9295 47.6754C19.3183 47.7491 19.7203 47.7059 20.0846 47.5512C20.4489 47.3965 20.7591 47.1373 20.9761 46.8063C21.2668 46.3619 21.3691 45.8204 21.2607 45.3006C21.1523 44.7807 20.842 44.3252 20.398 44.034ZM28.8115 51.9302C29.0925 51.7647 29.4162 51.6863 29.7418 51.7048C29.9581 51.7171 30.1698 51.7719 30.3649 51.8661C30.56 51.9602 30.7346 52.0919 30.8788 52.2536C31.023 52.4152 31.1339 52.6037 31.2052 52.8083C31.2765 53.0128 31.3068 53.2294 31.2943 53.4457C31.2756 53.7712 31.1608 54.0839 30.9644 54.3442C30.768 54.6045 30.4988 54.8007 30.1909 54.9081C29.883 55.0154 29.5502 55.029 29.2345 54.9473C28.9189 54.8655 28.6346 54.6919 28.4175 54.4486C28.2005 54.2052 28.0605 53.9029 28.0152 53.58C27.9699 53.2571 28.0214 52.928 28.1632 52.6343C28.3049 52.3407 28.5305 52.0956 28.8115 51.9302ZM29.7593 41.3296C29.2938 41.3013 28.8303 41.4118 28.4276 41.6472C28.0249 41.8825 27.7011 42.232 27.4972 42.6515C27.2933 43.071 27.2185 43.5416 27.2823 44.0036C27.3461 44.4657 27.5455 44.8984 27.8554 45.247C28.1653 45.5955 28.5717 45.8443 29.0231 45.9618C29.4745 46.0792 29.9506 46.0601 30.391 45.9067C30.8315 45.7534 31.2166 45.4727 31.4975 45.1004C31.7783 44.728 31.9424 44.2807 31.9688 43.815C32.0047 43.1926 31.7923 42.5813 31.378 42.1154C30.9638 41.6494 30.3817 41.3668 29.7593 41.3296ZM38.5562 44.6795C38.7504 44.3338 39.0428 44.0535 39.3964 43.8741C39.6306 43.7547 39.886 43.6826 40.1481 43.6619C40.4102 43.6413 40.6737 43.6726 40.9237 43.7539C41.1737 43.8353 41.4052 43.9652 41.6049 44.1361C41.8046 44.307 41.9687 44.5156 42.0877 44.7501C42.2679 45.1032 42.3394 45.5019 42.2929 45.8957C42.2465 46.2894 42.0842 46.6605 41.8268 46.9621C41.5693 47.2636 41.2282 47.4819 40.8465 47.5895C40.4649 47.697 40.06 47.6889 39.6829 47.5662C39.3059 47.4435 38.9738 47.2117 38.7286 46.9002C38.4833 46.5886 38.3361 46.2113 38.3054 45.816C38.2747 45.4207 38.362 45.0252 38.5562 44.6795Z" fill="white"/>
<path fill-rule="evenodd" clip-rule="evenodd" d="M79.9881 21.243C82.5223 21.243 84.2971 22.636 84.2971 25.2218H87.6165C87.6165 20.6853 84.2714 18.5 79.938 18.5C74.615 18.5 71.5229 21.3904 71.5229 27.4986C71.5229 33.7584 74.615 36.4957 79.938 36.4957C84.3229 36.4957 87.6165 34.3676 87.6165 29.8297H84.423C84.423 32.364 82.6739 33.7584 79.9895 33.7584C76.4656 33.7584 74.8409 31.8062 74.8409 27.7517V27.2454C74.8438 23.2696 76.4899 21.243 79.9881 21.243ZM96.3936 18.8089L89.6261 36.1968H92.9727L94.3657 32.4198H102.319L103.749 36.1968H107.247L100.475 18.8089H96.3936ZM95.3796 29.6782L97.1545 24.9114C97.3925 24.2828 97.7562 23.1625 98.0081 22.3865L98.0081 22.3865L98.0083 22.3858L98.0087 22.3848L98.0088 22.3845C98.1319 22.0052 98.2282 21.7085 98.27 21.592H98.3959C98.4361 21.7042 98.527 21.986 98.6436 22.3479L98.6436 22.348L98.6437 22.3481L98.6437 22.3482C98.896 23.1308 99.2689 24.2876 99.5114 24.9114L101.285 29.6767L95.3796 29.6782ZM119.667 18.8089C123.494 18.8089 125.344 20.8627 125.344 24.0805C125.344 26.4389 124.305 28.1622 122.252 28.9731L125.971 36.1968H122.422L119.133 29.4751H113.736V36.1968H110.491V18.8089H119.667ZM113.736 26.742H119.412C121.085 26.742 122.074 25.7295 122.074 24.0805C122.074 22.5102 121.161 21.572 119.412 21.572H113.736V26.742ZM136.726 18.8089H129.778V36.1968H136.723C141.968 36.1968 145.161 33.4595 145.161 27.5029C145.161 21.5463 141.971 18.8089 136.726 18.8089ZM141.845 27.756C141.82 31.5588 140.021 33.4338 136.726 33.4338H133.026V21.572H136.726C140.015 21.572 141.845 23.4484 141.845 27.2498V27.756ZM150.236 36.1968H146.891L153.661 18.8089H157.739L164.506 36.1968H161.008L159.589 32.4198H151.631L150.236 36.1968ZM154.419 24.9114L152.647 29.6782L158.553 29.6767L156.779 24.9114C156.532 24.2762 156.149 23.0886 155.897 22.3059C155.787 21.9643 155.702 21.6998 155.664 21.592H155.535C155.493 21.7087 155.396 22.0062 155.273 22.3864C155.021 23.1624 154.657 24.2827 154.419 24.9114ZM179.371 30.0565L179.371 30.0571C179.38 30.2744 179.389 30.4571 179.389 30.5191L179.263 30.5692C179.232 30.528 179.128 30.3536 178.997 30.1344C178.809 29.8204 178.566 29.4145 178.405 29.1762L170.852 18.8089H167.756V36.1968H170.874V25.7796C170.874 25.5018 170.852 25.0526 170.837 24.7358L170.837 24.7354C170.828 24.5631 170.822 24.43 170.822 24.3851L170.949 24.3093C170.975 24.3435 171.035 24.4492 171.118 24.5966C171.283 24.8879 171.541 25.3421 171.807 25.7295L179.412 36.1968H182.452V18.8089H179.336V29.1504H179.339C179.339 29.3459 179.356 29.7381 179.371 30.0565ZM186.632 27.5029C186.632 21.3946 189.927 18.5057 195.376 18.5057C200.825 18.5057 204.146 21.3946 204.146 27.5029C204.146 33.6111 200.831 36.5 195.376 36.5C189.922 36.5 186.632 33.6111 186.632 27.5029ZM195.376 33.7627C198.924 33.7627 200.825 31.7605 200.825 27.7817V27.2497C200.825 23.2696 198.9 21.2431 195.376 21.2431C191.879 21.2431 189.953 23.2696 189.953 27.2497V27.7817C189.953 31.7605 191.854 33.7627 195.376 33.7627Z" fill="white"/>
</svg>
