<svg width="162" height="46" viewBox="0 0 162 46" fill="none" xmlns="http://www.w3.org/2000/svg">
<path fill-rule="evenodd" clip-rule="evenodd" d="M66.4643 18.1998C68.3995 18.1998 69.7548 19.3784 69.7548 21.5661H72.2896C72.2896 17.7279 69.7352 15.879 66.426 15.879C62.3612 15.879 60 18.3245 60 23.4925C60 28.7887 62.3612 31.1047 66.426 31.1047C69.7745 31.1047 72.2896 29.3042 72.2896 25.4648H69.8509C69.8509 27.609 68.5153 28.7887 66.4654 28.7887C63.7744 28.7887 62.5337 27.1371 62.5337 23.7067V23.2783C62.5359 19.9144 63.7929 18.1998 66.4643 18.1998ZM78.9931 16.1405L73.8252 30.8519H76.3808L77.4445 27.6563H83.5178L84.6099 30.8519H87.2812L82.11 16.1405H78.9931ZM78.2188 25.3367L79.5741 21.3037C79.7559 20.7718 80.0336 19.8241 80.2259 19.1676L80.226 19.1674L80.226 19.1674L80.2262 19.1667L80.2263 19.1662L80.2265 19.1656L80.2269 19.1644C80.3207 18.8441 80.3941 18.5936 80.426 18.4952H80.5221C80.5528 18.5901 80.6222 18.8286 80.7113 19.1349C80.904 19.7971 81.1888 20.7758 81.374 21.3037L82.7282 25.3355L78.2188 25.3367ZM96.7639 16.1406C99.6864 16.1406 101.1 17.8781 101.1 20.6007C101.1 22.596 100.306 24.0541 98.7384 24.7402L101.578 30.852H98.8684L96.3565 25.1649H92.2349V30.852H89.7568V16.1406H96.7639ZM92.2349 22.8525H96.5695C97.8473 22.8525 98.6019 21.9958 98.6019 20.6007C98.6019 19.2721 97.9052 18.4783 96.5695 18.4783H92.2349V22.8525ZM109.791 16.1406H104.485V30.852H109.789C113.795 30.852 116.232 28.536 116.232 23.4963C116.232 18.4565 113.797 16.1406 109.791 16.1406ZM113.701 23.7104C113.681 26.9279 112.307 28.5142 109.791 28.5142H106.966V18.4783H109.791C112.303 18.4783 113.701 20.0659 113.701 23.2821V23.7104ZM120.107 30.852H117.553L122.723 16.1406H125.836L131.004 30.852H128.333L127.25 27.6563H121.172L120.107 30.852ZM123.302 21.3037L121.949 25.3367L126.458 25.3355L125.104 21.3037C124.915 20.7666 124.623 19.7626 124.431 19.1004L124.43 19.0998L124.43 19.0992L124.43 19.099C124.346 18.8101 124.281 18.5864 124.252 18.4953H124.154C124.122 18.5935 124.048 18.8435 123.955 19.1632L123.954 19.1657L123.954 19.1674C123.761 19.824 123.483 20.7718 123.302 21.3037ZM142.331 24.8902C142.331 25.0557 142.345 25.3879 142.356 25.6574C142.363 25.8411 142.37 25.9957 142.37 26.0482L142.274 26.0906C142.25 26.0557 142.17 25.9083 142.07 25.723L142.07 25.7227L142.07 25.7226C141.927 25.457 141.742 25.1136 141.618 24.912L135.851 16.1406H133.486V30.852H135.867V22.0382C135.867 21.8033 135.851 21.4234 135.839 21.1554V21.1551L135.839 21.1537C135.833 21.0084 135.828 20.8963 135.828 20.8584L135.925 20.7943C135.944 20.8232 135.99 20.9126 136.054 21.0374L136.054 21.0376C136.18 21.2841 136.377 21.6682 136.58 21.9958L142.387 30.852H144.709V16.1406H142.329V24.8902H142.331ZM147.901 23.4962C147.901 18.3282 150.418 15.884 154.579 15.884C158.74 15.884 161.275 18.3282 161.275 23.4962C161.275 28.6642 158.744 31.1085 154.579 31.1085C150.413 31.1085 147.901 28.6642 147.901 23.4962ZM154.579 28.7925C157.288 28.7925 158.74 27.0984 158.74 23.7322V23.282C158.74 19.9146 157.27 18.2 154.579 18.2C151.908 18.2 150.437 19.9146 150.437 23.282V23.7322C150.437 27.0984 151.889 28.7925 154.579 28.7925Z" fill="black"/>
<g clip-path="url(#clip0_1016_13681)">
<path d="M24.9056 45.9999C24.8794 45.9999 24.8531 45.9991 24.8266 45.9976C24.4632 45.977 24.1225 45.8146 23.8782 45.5456C23.634 45.2767 23.5058 44.9228 23.5214 44.5604C23.537 44.1981 23.6951 43.8564 23.9615 43.6092C24.2279 43.3621 24.5813 43.2293 24.9452 43.2397C25.3091 43.25 25.6543 43.4026 25.9061 43.6645C26.158 43.9264 26.2963 44.2765 26.2911 44.6392C26.2859 45.0018 26.1377 45.3479 25.8784 45.6025C25.6192 45.8571 25.2698 45.9999 24.9057 45.9999H24.9056ZM13.0881 44.728C12.8461 44.7277 12.611 44.647 12.4202 44.4986C12.2294 44.3502 12.0937 44.1427 12.0346 43.9088C11.9755 43.675 11.9964 43.4282 12.0939 43.2075C12.1915 42.9868 12.3601 42.8048 12.5732 42.6903C12.7862 42.5758 13.0315 42.5354 13.2702 42.5755C13.5089 42.6155 13.7273 42.7337 13.891 42.9114C14.0547 43.089 14.1542 43.316 14.1738 43.5564C14.1935 43.7967 14.1321 44.0367 13.9994 44.2384C13.9007 44.3894 13.7655 44.5133 13.6063 44.5989C13.4472 44.6844 13.269 44.7288 13.0881 44.728ZM37.0021 44.6752C36.7142 44.6752 36.4382 44.5613 36.2347 44.3585C36.0312 44.1557 35.9168 43.8807 35.9168 43.594C35.9169 43.3072 36.0312 43.0322 36.2347 42.8294C36.4383 42.6267 36.7143 42.5128 37.0021 42.5128C37.29 42.5128 37.566 42.6267 37.7695 42.8294C37.9731 43.0322 38.0874 43.3072 38.0874 43.594C38.0874 43.8807 37.9731 44.1557 37.7696 44.3585C37.5661 44.5613 37.29 44.6752 37.0022 44.6752H37.0021ZM16.2131 39.9025C15.7661 39.9025 15.3373 39.7255 15.0211 39.4105C14.705 39.0956 14.5274 38.6684 14.5274 38.2229C14.5274 37.7775 14.705 37.3503 15.0212 37.0354C15.3373 36.7204 15.7661 36.5435 16.2132 36.5435C16.6603 36.5435 17.0891 36.7204 17.4052 37.0354C17.7214 37.3503 17.899 37.7775 17.899 38.2229C17.899 38.6684 17.7214 39.0956 17.4053 39.4105C17.0891 39.7255 16.6603 39.9025 16.2133 39.9025H16.2131ZM33.8534 39.8638C33.4089 39.8638 32.9825 39.6878 32.6682 39.3747C32.3539 39.0615 32.1773 38.6368 32.1774 38.1939C32.1774 37.7511 32.354 37.3263 32.6683 37.0132C32.9826 36.7001 33.4089 36.5241 33.8534 36.5241C34.2979 36.5241 34.7243 36.7001 35.0386 37.0132C35.3529 37.3263 35.5295 37.7511 35.5295 38.1939C35.5295 38.6368 35.3529 39.0615 35.0386 39.3747C34.7243 39.6878 34.298 39.8638 33.8535 39.8638H33.8534ZM24.8898 38.5028C24.8517 38.5028 24.8133 38.5017 24.7749 38.4995C24.2562 38.4696 23.7702 38.2377 23.4219 37.8537C23.0735 37.4697 22.8908 36.9646 22.9132 36.4475C22.9356 35.9304 23.1614 35.4429 23.5417 35.0903C23.922 34.7377 24.4263 34.5483 24.9456 34.5631C25.4649 34.5779 25.9574 34.7957 26.3169 35.1694C26.6763 35.5431 26.8737 36.0427 26.8664 36.5603C26.8591 37.0778 26.6477 37.5717 26.2778 37.9351C25.908 38.2986 25.4095 38.5025 24.89 38.5028H24.8898ZM4.9811 34.4721C4.84552 34.204 4.80144 33.8991 4.85556 33.6037C4.90968 33.3084 5.05904 33.0387 5.28098 32.8356C5.50291 32.6325 5.7853 32.5071 6.08528 32.4784C6.38525 32.4497 6.68643 32.5193 6.9431 32.6766C7.19977 32.8339 7.39792 33.0704 7.50746 33.3501C7.617 33.6298 7.63195 33.9374 7.55005 34.2264C7.46815 34.5153 7.29387 34.7697 7.05366 34.951C6.81345 35.1323 6.52042 35.2306 6.21907 35.2309C5.96238 35.2313 5.71064 35.1605 5.49202 35.0265C5.27339 34.8925 5.09649 34.7005 4.9811 34.4721ZM43.828 35.1482C43.52 35.1478 43.2209 35.045 42.9781 34.8561C42.7353 34.6672 42.5626 34.4031 42.4875 34.1055C42.4123 33.8078 42.4389 33.4937 42.563 33.2129C42.6872 32.932 42.9018 32.7004 43.1729 32.5547C43.4441 32.4091 43.7562 32.3576 44.06 32.4086C44.3638 32.4595 44.6418 32.6099 44.8501 32.836C45.0584 33.0621 45.1851 33.3509 45.2101 33.6568C45.2352 33.9627 45.1571 34.2682 44.9882 34.5248C44.8625 34.717 44.6904 34.8748 44.4878 34.9837C44.2851 35.0926 44.0583 35.1491 43.828 35.1482ZM19.2007 32.6544C18.5242 32.2125 18.0299 31.5428 17.8082 30.7677C17.5866 29.9926 17.6524 29.1639 17.9936 28.4331C18.3347 27.7024 18.9286 27.1184 19.6664 26.788C20.4043 26.4576 21.2368 26.4028 22.0119 26.6336C22.7869 26.8645 23.4527 27.3656 23.8874 28.0452C24.3221 28.7249 24.4968 29.5378 24.3794 30.3352C24.262 31.1326 23.8604 31.8613 23.2481 32.388C22.6358 32.9147 21.8536 33.2042 21.0447 33.2036C20.3893 33.2046 19.748 33.0136 19.2007 32.6544ZM25.9765 31.3423C25.575 30.5482 25.5065 29.6278 25.7861 28.7834C26.0658 27.939 26.6706 27.2398 27.4676 26.8397C27.8624 26.6413 28.2926 26.5224 28.7336 26.4897C29.1746 26.457 29.6178 26.5112 30.0377 26.6492C30.4577 26.7872 30.8463 27.0062 31.1812 27.2938C31.5162 27.5814 31.791 27.932 31.99 28.3254C32.8255 29.9759 32.1563 31.9961 30.4985 32.8276C30.1037 33.0259 29.6736 33.1448 29.2327 33.1775C28.7917 33.2102 28.3486 33.156 27.9287 33.0181C27.5088 32.8802 27.1203 32.6612 26.7853 32.3737C26.4503 32.0861 26.1755 31.7357 25.9765 31.3423ZM11.4764 30.6786C11.2827 30.2955 11.2197 29.8598 11.297 29.4378C11.3743 29.0157 11.5878 28.6303 11.9049 28.3401C12.2221 28.0498 12.6256 27.8706 13.0542 27.8296C13.4829 27.7885 13.9133 27.888 14.2801 28.1127C14.6469 28.3375 14.9301 28.6754 15.0866 29.0751C15.2432 29.4748 15.2646 29.9144 15.1476 30.3273C15.0306 30.7402 14.7815 31.1038 14.4383 31.3629C14.095 31.622 13.6763 31.7624 13.2457 31.7629C12.8788 31.7635 12.5191 31.6624 12.2066 31.471C11.8941 31.2795 11.6413 31.0051 11.4764 30.6786ZM36.7839 31.7107C36.3438 31.7102 35.9165 31.5635 35.5695 31.2938C35.2226 31.0241 34.9758 30.6468 34.8683 30.2216C34.7608 29.7964 34.7987 29.3477 34.976 28.9464C35.1533 28.5451 35.4598 28.2142 35.8471 28.006C36.2344 27.7978 36.6804 27.7243 37.1144 27.797C37.5483 27.8698 37.9456 28.0846 38.2432 28.4076C38.5408 28.7306 38.7218 29.1432 38.7576 29.5802C38.7933 30.0172 38.6818 30.4536 38.4405 30.8203C38.2608 31.0945 38.0151 31.3196 37.7257 31.4751C37.4364 31.6306 37.1127 31.7116 36.7839 31.7107ZM16.8722 26.3647C15.0196 26.259 13.597 24.6723 13.7019 22.8268C13.8075 20.9893 15.3901 19.5617 17.2551 19.6702C19.1092 19.7749 20.5311 21.3619 20.4257 23.2072C20.3765 24.0619 20.0011 24.8656 19.3766 25.4536C18.752 26.0417 17.9254 26.3696 17.0661 26.3703C17.0023 26.3702 16.9376 26.368 16.8722 26.3647ZM32.7441 26.3296C30.8908 26.2244 29.4687 24.6376 29.5742 22.7916C29.6785 20.9551 31.2624 19.5278 33.1271 19.6358C34.0017 19.6848 34.8226 20.0718 35.4153 20.7144C36.008 21.357 36.3259 22.2045 36.3012 23.0769C36.2766 23.9492 35.9114 24.7776 35.2834 25.386C34.6553 25.9944 33.8139 26.3347 32.9379 26.3347C32.8738 26.3346 32.8086 26.3328 32.744 26.3295L32.7441 26.3296ZM7.36259 24.7138C7.33054 24.7138 7.29819 24.7129 7.26581 24.7111C6.82457 24.6859 6.411 24.4887 6.1145 24.1622C5.818 23.8357 5.66239 23.406 5.68131 22.9661C5.70023 22.5262 5.89215 22.1114 6.2156 21.8113C6.53904 21.5112 6.96802 21.35 7.40981 21.3625C7.85159 21.375 8.27069 21.5603 8.57651 21.8781C8.88233 22.196 9.0503 22.621 9.04411 23.0613C9.03792 23.5016 8.85807 23.9217 8.54344 24.231C8.2288 24.5402 7.80466 24.7137 7.3627 24.7138H7.36259ZM42.6396 24.6365C42.6074 24.6365 42.5749 24.6356 42.5424 24.6337C42.1015 24.6085 41.6883 24.4114 41.3922 24.085C41.096 23.7587 40.9406 23.3294 40.9596 22.8899C40.9785 22.4503 41.1704 22.0359 41.4936 21.7361C41.8168 21.4364 42.2454 21.2753 42.6868 21.2879C43.1282 21.3004 43.547 21.4855 43.8525 21.8031C44.1581 22.1207 44.3259 22.5454 44.3197 22.9853C44.3135 23.4252 44.1338 23.845 43.8195 24.154C43.5051 24.463 43.0813 24.6363 42.6398 24.6365H42.6396ZM1.08824 24.136C1.06748 24.136 1.04651 24.1355 1.02554 24.1343C0.748417 24.1185 0.487817 23.9978 0.297144 23.7969C0.106471 23.5959 0.000161776 23.3299 0 23.0533C0 23.0326 0.000616576 23.0117 0.00185038 22.9907C0.0179476 22.709 0.143605 22.4447 0.35214 22.2539C0.560676 22.063 0.835666 21.9607 1.11872 21.9685C1.40178 21.9764 1.67061 22.0939 1.86814 22.296C2.06566 22.4982 2.17632 22.7691 2.17662 23.0512C2.17662 23.072 2.17604 23.0929 2.17488 23.114C2.15869 23.3902 2.03719 23.6499 1.83521 23.8399C1.63323 24.0299 1.36604 24.1358 1.08826 24.136L1.08824 24.136ZM48.8498 24.0295C48.5644 24.0133 48.2969 23.8859 48.105 23.6747C47.9132 23.4636 47.8125 23.1857 47.8246 22.9011C47.8368 22.6166 47.9608 22.3482 48.17 22.1541C48.3792 21.96 48.6566 21.8556 48.9423 21.8636C49.2281 21.8716 49.4992 21.9914 49.6971 22.1969C49.8949 22.4025 50.0036 22.6774 49.9997 22.9622C49.9958 23.2469 49.8795 23.5187 49.676 23.7188C49.4726 23.9188 49.1982 24.0311 48.9124 24.0313C48.8917 24.0313 48.8708 24.0307 48.8498 24.0295L48.8498 24.0295ZM18.0101 17.6748C17.1747 16.0231 17.844 14.0033 19.5019 13.1714C19.9714 12.9369 20.4892 12.8141 21.0144 12.8128C21.6387 12.8106 22.2511 12.982 22.7828 13.3079C23.3145 13.6337 23.7442 14.101 24.0237 14.6571C24.8591 16.3079 24.1899 18.328 22.5319 19.1599C22.0625 19.3949 21.5447 19.5179 21.0194 19.5191C20.3952 19.5213 19.7828 19.3498 19.2511 19.024C18.7194 18.6981 18.2896 18.2309 18.0101 17.6748ZM27.1059 18.9516C25.5534 17.9377 25.1187 15.8557 26.137 14.3098C26.3795 13.9414 26.6925 13.6243 27.058 13.3764C27.4236 13.1286 27.8346 12.9549 28.2675 12.8654C28.7004 12.7758 29.1468 12.7721 29.5812 12.8544C30.0156 12.9367 30.4295 13.1035 30.7992 13.3451C32.3517 14.3578 32.7861 16.4407 31.7686 17.987C31.2785 18.7308 30.5121 19.2502 29.6377 19.4311C28.7633 19.612 27.8527 19.4395 27.1059 18.9516L27.1059 18.9516ZM12.1284 17.9068C11.7312 17.6471 11.4412 17.2537 11.3112 16.7984C11.1812 16.3432 11.2201 15.8565 11.4207 15.4274C11.6212 14.9984 11.9701 14.6555 12.4035 14.4616C12.8369 14.2677 13.3259 14.2357 13.781 14.3715C14.2361 14.5072 14.627 14.8016 14.8822 15.2008C15.1374 15.6 15.2399 16.0775 15.1708 16.5457C15.1018 17.014 14.8659 17.4419 14.5062 17.7512C14.1466 18.0604 13.6872 18.2304 13.2121 18.23C12.827 18.2297 12.4504 18.1174 12.1284 17.9068H12.1284ZM36.7574 18.1783C36.2346 18.1783 35.7331 17.9713 35.3634 17.603C34.9937 17.2346 34.786 16.735 34.786 16.2141C34.786 15.6932 34.9937 15.1936 35.3634 14.8253C35.7332 14.4569 36.2346 14.25 36.7575 14.25C37.2803 14.25 37.7818 14.4569 38.1515 14.8253C38.5212 15.1936 38.729 15.6932 38.729 16.2141C38.729 16.735 38.5213 17.2346 38.1516 17.603C37.7819 17.9713 37.2804 18.1783 36.7575 18.1783H36.7574ZM6.16933 13.61C5.8014 13.61 5.44855 13.4644 5.18839 13.2052C4.92824 12.946 4.78209 12.5944 4.78209 12.2279C4.7821 11.8613 4.92827 11.5098 5.18843 11.2506C5.4486 10.9914 5.80146 10.8458 6.16938 10.8458C6.53731 10.8458 6.89017 10.9914 7.15034 11.2506C7.4105 11.5098 7.55667 11.8613 7.55667 12.2279C7.55668 12.5944 7.41053 12.946 7.15037 13.2052C6.89022 13.4644 6.53737 13.61 6.16944 13.61H6.16933ZM42.5444 12.769C42.4085 12.5007 42.3642 12.1955 42.4182 11.8998C42.4722 11.6041 42.6216 11.334 42.8437 11.1306C43.0658 10.9271 43.3485 10.8015 43.6488 10.7726C43.9491 10.7438 44.2506 10.8134 44.5076 10.9708C44.7646 11.1283 44.963 11.365 45.0727 11.645C45.1824 11.925 45.1974 12.233 45.1154 12.5222C45.0334 12.8115 44.859 13.0662 44.6185 13.2477C44.378 13.4291 44.0846 13.5275 43.7829 13.5277C43.5261 13.5282 43.2743 13.4575 43.0556 13.3236C42.8369 13.1896 42.6599 12.9976 42.5444 12.7692L42.5444 12.769ZM24.9714 11.4378C24.9337 11.4378 24.8957 11.4367 24.8576 11.4345C24.3386 11.405 23.8521 11.1731 23.5034 10.7891C23.1546 10.4051 22.9715 9.89973 22.9937 9.38232C23.0159 8.8649 23.2416 8.37697 23.622 8.02401C24.0024 7.67105 24.507 7.4814 25.0266 7.49608C25.5462 7.51075 26.0392 7.72856 26.3989 8.10242C26.7586 8.47629 26.9562 8.97617 26.949 9.49401C26.9417 10.0118 26.7302 10.506 26.3602 10.8698C25.9901 11.2335 25.4913 11.4375 24.9714 11.4378H24.9714ZM14.6452 8.56411C14.4808 8.23864 14.4275 7.86863 14.4934 7.51024C14.5592 7.15185 14.7406 6.82464 15.01 6.57827C15.2794 6.3319 15.6222 6.17981 15.9862 6.14509C16.3503 6.11038 16.7157 6.19492 17.0272 6.3859C17.3386 6.57687 17.579 6.86386 17.7119 7.2033C17.8448 7.54273 17.8629 7.9161 17.7635 8.26672C17.6641 8.61735 17.4526 8.9261 17.1611 9.14612C16.8696 9.36614 16.514 9.48541 16.1483 9.48584C15.8366 9.48627 15.5309 9.40029 15.2655 9.23751C15 9.07473 14.7852 8.84158 14.6452 8.56414V8.56411ZM32.8623 9.17295C32.5244 8.95225 32.2775 8.61774 32.1668 8.23059C32.0561 7.84344 32.089 7.42953 32.2595 7.06455C32.4299 6.69957 32.7265 6.40792 33.0951 6.24292C33.4636 6.07792 33.8795 6.0506 34.2666 6.16597C34.6537 6.28133 34.9862 6.53166 35.2033 6.87119C35.4203 7.21071 35.5075 7.61674 35.4488 8.01501C35.39 8.41329 35.1894 8.7772 34.8835 9.04019C34.5776 9.30318 34.1869 9.44769 33.7828 9.44728C33.4557 9.44701 33.1358 9.3517 32.8623 9.173V9.17295ZM12.0262 2.89529C11.9196 2.68451 11.885 2.44484 11.9275 2.21264C11.97 1.98045 12.0874 1.76843 12.2619 1.60876C12.4364 1.44909 12.6584 1.35049 12.8942 1.32795C13.13 1.3054 13.3668 1.36012 13.5686 1.48381C13.7703 1.60751 13.9261 1.79341 14.0122 2.01331C14.0982 2.2332 14.11 2.47507 14.0455 2.7022C13.9811 2.92933 13.844 3.12931 13.6552 3.27179C13.4663 3.41426 13.2359 3.49145 12.999 3.49162C12.7973 3.49189 12.5995 3.43625 12.4277 3.33094C12.2559 3.22563 12.1169 3.07479 12.0262 2.89529ZM36.3135 3.2618C36.0948 3.11894 35.9351 2.90244 35.8635 2.6519C35.792 2.40136 35.8133 2.13352 35.9237 1.89737C36.034 1.66122 36.226 1.47253 36.4645 1.36582C36.7031 1.25911 36.9722 1.24151 37.2226 1.31623C37.4731 1.39096 37.6882 1.55301 37.8286 1.77276C37.969 1.99251 38.0253 2.25526 37.9873 2.51298C37.9492 2.77069 37.8192 3.00613 37.6212 3.17625C37.4232 3.34637 37.1704 3.43979 36.9089 3.43944C36.6973 3.43916 36.4904 3.37739 36.3134 3.26171L36.3135 3.2618ZM24.953 2.75882C24.9266 2.75882 24.8999 2.75808 24.8732 2.75657C24.51 2.73589 24.1696 2.57364 23.9255 2.3049C23.6814 2.03616 23.5533 1.68252 23.5688 1.32043C23.5843 0.958328 23.7423 0.61686 24.0085 0.369833C24.2747 0.122807 24.6277 -0.00993259 24.9914 0.000307191C25.355 0.010547 25.7 0.162944 25.9518 0.424555C26.2035 0.686167 26.3418 1.03598 26.3368 1.39837C26.3318 1.76076 26.1838 2.10663 25.9249 2.3612C25.6659 2.61577 25.3169 2.75861 24.9531 2.75882H24.953Z" fill="url(#paint0_linear_1016_13681)"/>
</g>
<defs>
<linearGradient id="paint0_linear_1016_13681" x1="24.9999" y1="45.9999" x2="24.9999" y2="-0.000244141" gradientUnits="userSpaceOnUse">
<stop stop-color="#5A9C56"/>
<stop offset="1" stop-color="#184C78"/>
</linearGradient>
<clipPath id="clip0_1016_13681">
<rect width="50" height="46" fill="white"/>
</clipPath>
</defs>
</svg>
