<svg width="55" height="52" viewBox="0 0 55 52" fill="none" xmlns="http://www.w3.org/2000/svg">
<path d="M32.8857 25.5609V26.9245C32.8857 30.938 28.5428 33.444 25.0673 31.4384L23.8872 30.7566C22.2755 29.8246 21.281 28.1046 21.281 26.2427V24.8792C21.281 20.8657 25.6239 18.3596 29.0995 20.3653L30.2796 21.047C31.8912 21.979 32.8857 23.6991 32.8857 25.5609Z" fill="#434656"/>
<path d="M51.8439 10.7286L35.8734 19.9502C35.5502 20.1358 35.154 20.1358 34.8309 19.9502L19.6192 11.1664C18.9249 10.764 18.9249 9.76116 19.6192 9.36081L35.5877 0.139169C35.9109 -0.0463898 36.3091 -0.0463898 36.6302 0.139169L51.8419 8.92298C52.5362 9.32333 52.5362 10.3282 51.8419 10.7286H51.8439Z" fill="#434656"/>
<path d="M52.603 12.0443C53.2972 11.644 54.1667 12.1444 54.1667 12.9471V30.5106C54.1667 30.8838 53.9686 31.2278 53.6454 31.4133L37.6728 40.635C36.9785 41.0353 36.1091 40.535 36.1091 39.7322V22.1708C36.1091 21.7976 36.3071 21.4536 36.6303 21.268L52.603 12.0443Z" fill="#434656"/>
<path d="M17.5364 30.5375L1.5637 39.7592C0.869418 40.1594 0 39.6591 0 38.8564V21.2908C0 20.9176 0.200153 20.5736 0.521233 20.3881L16.4919 11.1664C17.1882 10.7661 18.0576 11.2665 18.0576 12.0692V29.6326C18.0576 30.0059 17.8596 30.3499 17.5364 30.5354V30.5375Z" fill="#434656"/>
<path d="M34.5474 42.4404L18.5768 51.6621C18.2536 51.8477 17.8554 51.8477 17.5323 51.6621L2.32266 42.8783C1.62837 42.478 1.62837 41.473 2.32266 41.0727L18.2932 31.8532C18.6164 31.6676 19.0126 31.6676 19.3357 31.8532L34.5474 40.6349C35.2417 41.0352 35.2417 42.038 34.5474 42.4404Z" fill="#434656"/>
</svg>
