<svg width="30" height="30" viewBox="0 0 30 30" fill="none" xmlns="http://www.w3.org/2000/svg">
<path fill-rule="evenodd" clip-rule="evenodd" d="M2.5 3.75C3.19036 3.75 3.75 4.30964 3.75 5V22.5C3.75 23.1904 4.30964 23.75 5 23.75H27.5C28.1904 23.75 28.75 24.3096 28.75 25C28.75 25.6904 28.1904 26.25 27.5 26.25H5C2.92893 26.25 1.25 24.5711 1.25 22.5V5C1.25 4.30964 1.80964 3.75 2.5 3.75Z" fill="#434656"/>
<path fill-rule="evenodd" clip-rule="evenodd" d="M6.88004 6.41491C6.28064 6.75742 6.0724 7.52099 6.41491 8.12039L10.3981 15.0909C11.2849 16.6429 13.144 17.3532 14.8398 16.788L18.7417 15.4873C19.2386 15.3217 19.786 15.4834 20.1131 15.8923L24.0241 20.7811C24.4554 21.3202 25.242 21.4076 25.7811 20.9763C26.3202 20.545 26.4076 19.7584 25.9763 19.2193L22.0653 14.3306C21.0838 13.1037 19.4416 12.6188 17.9512 13.1156L14.0493 14.4162C13.484 14.6047 12.8643 14.3679 12.5687 13.8506L8.58552 6.88004C8.24301 6.28064 7.47944 6.0724 6.88004 6.41491Z" fill="#434656"/>
</svg>
