<svg width="35" height="35" viewBox="0 0 35 35" fill="none" xmlns="http://www.w3.org/2000/svg">
<circle cx="17.5" cy="17.5" r="17.5" fill="#7A501D"/>
<path d="M26.9502 18.5468C26.6718 18.5468 26.4048 18.4362 26.2079 18.2394C26.011 18.0425 25.9004 17.7755 25.9004 17.497V14.7781L19.2973 21.3917C19.1997 21.4901 19.0836 21.5682 18.9557 21.6215C18.8277 21.6748 18.6905 21.7023 18.5519 21.7023C18.4133 21.7023 18.2761 21.6748 18.1482 21.6215C18.0203 21.5682 17.9042 21.4901 17.8066 21.3917L14.3528 17.9275L8.79943 23.4913C8.60175 23.689 8.33364 23.8 8.05408 23.8C7.77452 23.8 7.50641 23.689 7.30873 23.4913C7.11105 23.2936 7 23.0255 7 22.746C7 22.4664 7.11105 22.1983 7.30873 22.0006L13.6074 15.7019C13.705 15.6035 13.8211 15.5254 13.9491 15.4721C14.077 15.4188 14.2142 15.3914 14.3528 15.3914C14.4914 15.3914 14.6286 15.4188 14.7565 15.4721C14.8844 15.5254 15.0005 15.6035 15.0981 15.7019L18.5519 19.1662L24.4202 13.2979H21.7013C21.4229 13.2979 21.1559 13.1873 20.959 12.9904C20.7621 12.7936 20.6515 12.5265 20.6515 12.2481C20.6515 11.9697 20.7621 11.7027 20.959 11.5058C21.1559 11.3089 21.4229 11.1983 21.7013 11.1983H26.9502C27.0874 11.2 27.2229 11.2285 27.3491 11.2823C27.6056 11.3888 27.8095 11.5927 27.916 11.8492C27.9698 11.9754 27.9983 12.1109 28 12.2481V17.497C28 17.7755 27.8894 18.0425 27.6925 18.2394C27.4957 18.4362 27.2286 18.5468 26.9502 18.5468Z" fill="white"/>
</svg>
