<svg width="50" height="50" viewBox="0 0 50 50" fill="none" xmlns="http://www.w3.org/2000/svg">
<circle cx="25" cy="25" r="25" fill="url(#paint0_linear_383_7055)"/>
<path fill-rule="evenodd" clip-rule="evenodd" d="M9.78301 10C9.43537 9.99808 9.17545 10.091 9 10.3932V14.0242C9.14166 14.3192 9.36909 14.4356 9.70178 14.4336C11.0929 14.4276 12.4843 14.4281 13.8758 14.4286H13.8758H13.8758H13.8759H13.8759H13.8759H13.8759C14.602 14.4288 15.3281 14.4291 16.0542 14.4284C16.5689 14.4278 16.7502 14.2439 16.7521 13.7195C16.756 12.7253 16.7554 11.7317 16.7521 10.7376C16.7502 10.1859 16.565 10.0065 16.0061 10.0065C15.4355 10.0063 14.865 10.0067 14.2945 10.0071C12.7905 10.008 11.2867 10.009 9.78301 10ZM11.4378 11.6739H11.4379H11.4379H11.4379H11.4379H11.4379H11.4379C11.5469 11.6745 11.6559 11.6752 11.7649 11.6752L11.7662 11.6759C11.8663 11.6757 11.9664 11.675 12.0666 11.6744C12.3228 11.6727 12.5793 11.6711 12.8358 11.6772C13.1932 11.6856 13.4076 11.8818 13.4212 12.1938C13.4355 12.52 13.2191 12.7675 12.8618 12.7747C12.1379 12.789 11.4134 12.7883 10.6895 12.7753C10.3386 12.7688 10.1001 12.5122 10.1118 12.2028C10.1229 11.8994 10.3509 11.6856 10.6953 11.6772C10.9426 11.6708 11.1902 11.6724 11.4378 11.6739ZM14.7585 11.6741C14.7836 11.6743 14.8088 11.6746 14.8339 11.6746V11.6752C14.8553 11.6752 14.8768 11.675 14.8983 11.6748C14.9414 11.6743 14.9846 11.6739 15.0275 11.6752C15.4025 11.6882 15.6234 11.8805 15.6338 12.2028C15.6448 12.5368 15.4155 12.7604 15.0353 12.7792C14.8956 12.7857 14.7553 12.7844 14.6156 12.7792C14.2315 12.7649 13.9937 12.5518 13.9911 12.2256C13.9885 11.8903 14.2159 11.6869 14.6078 11.6746C14.658 11.6733 14.7083 11.6737 14.7585 11.6741ZM9 23.1676C9.02674 22.9682 9.05108 22.7684 9.07542 22.5686C9.12795 22.1372 9.1805 21.7058 9.25732 21.2786C9.62381 19.2486 10.4276 17.4019 11.6531 15.7436C11.7318 15.637 11.9111 15.5487 12.045 15.5467C13.082 15.5305 14.1198 15.5298 15.1568 15.5467C15.3076 15.5493 15.4921 15.6305 15.6007 15.7371C16.0828 16.2102 16.5604 16.6876 17.038 17.165L17.0381 17.1651C17.5157 17.6425 17.9932 18.12 18.4754 18.593C18.604 18.719 18.8146 18.8568 18.9686 18.838C19.1479 18.8159 19.3591 18.6612 19.4624 18.5033C19.595 18.2993 19.5034 18.0679 19.3253 17.8899C19.0935 17.6583 18.8621 17.4262 18.6308 17.1941L18.6307 17.194L18.6304 17.1937L18.63 17.1933L18.6296 17.1929L18.6293 17.1926C18.2815 16.8436 17.9336 16.4945 17.5838 16.1471C17.423 15.9876 17.2574 15.8329 17.082 15.669L17.0818 15.6689L17.0817 15.6687L17.0813 15.6683L17.081 15.6681C16.998 15.5905 16.9128 15.5109 16.8249 15.4278C17.6794 15.0022 17.8958 14.305 17.8678 13.4648C17.8425 12.7091 17.8555 11.952 17.8704 11.1957C17.8724 11.0859 17.9549 10.913 18.042 10.8799C19.3935 10.3665 20.7945 10.0845 22.265 10.026V23.2923H21.92C17.7378 23.2923 13.5564 23.2923 9.37428 23.2897C9.29025 23.2897 9.2065 23.2726 9.12266 23.2555C9.08203 23.2472 9.04137 23.2389 9.00065 23.2325V23.1676H9ZM9 24.3996L11.1088 24.3992H11.1104H11.1105H11.1106H11.1107H11.1108H11.1109H11.111C14.8596 24.3984 18.6079 24.3976 22.3566 24.4041C22.4983 24.4041 22.6607 24.4828 22.777 24.5724C22.9327 24.6924 23.0755 24.8294 23.224 24.972L23.224 24.972C23.2862 25.0318 23.3495 25.0925 23.4151 25.1534C21.8309 27.0066 21.07 29.1113 21.1948 31.5045C21.3202 33.9016 22.3014 35.9134 24.1039 37.6146H21.7218C21.7218 37.5532 21.7224 37.4931 21.7231 37.434V37.4339V37.4338V37.4337V37.4337V37.4337V37.4337V37.4337V37.4337V37.4336V37.4336C21.7245 37.3063 21.7258 37.1833 21.7205 37.0609C21.6847 36.1824 21.0297 35.5047 20.1512 35.4761C19.6134 35.459 19.0749 35.4615 18.5362 35.464H18.5362H18.5361H18.536H18.536H18.5359H18.5358H18.5357L18.535 35.464C18.2957 35.4651 18.0564 35.4663 17.8171 35.4657H17.3915C17.4396 35.405 17.481 35.3521 17.5184 35.3042L17.5185 35.3041C17.58 35.2252 17.631 35.16 17.6839 35.0966C17.8837 34.8564 18.0839 34.6165 18.2842 34.3766L18.2844 34.3765C18.6242 33.9695 18.964 33.5625 19.3013 33.1537C19.5787 32.8177 19.5774 32.4896 19.311 32.27C19.0426 32.049 18.7288 32.1134 18.4455 32.4519C17.6839 33.3642 16.923 34.2772 16.1621 35.1908C15.8807 35.528 15.5253 35.5807 15.1471 35.3273C13.0125 33.9003 11.3952 32.0256 10.3041 29.702C9.59132 28.1827 9.17025 26.5836 9.05458 24.9058C9.04967 24.8339 9.03463 24.7626 9.01959 24.6913C9.01274 24.6588 9.00589 24.6264 9 24.5939V24.3996ZM13.2796 40.9994C12.9787 40.8434 12.8702 40.6023 12.8761 40.2605C12.8877 39.596 12.8859 38.9311 12.8841 38.2662C12.8832 37.9266 12.8823 37.587 12.8832 37.2474C12.8845 36.7627 13.0651 36.5762 13.544 36.5755C15.6825 36.5729 17.821 36.5729 19.9595 36.5755C20.4371 36.5762 20.6165 36.7633 20.6178 37.2507C20.6189 37.6095 20.618 37.9683 20.6171 38.327C20.6155 38.9728 20.6138 39.6184 20.6243 40.2638C20.6301 40.6056 20.5229 40.848 20.2175 41H13.2796V40.9994ZM15.9644 39.3295H15.9644H15.9645H15.9646H15.9647H15.9648H15.9649C16.2183 39.3312 16.4717 39.3329 16.7248 39.3261C17.0699 39.317 17.2901 39.1058 17.2992 38.7985C17.309 38.4957 17.0907 38.239 16.7593 38.2312C16.0165 38.215 15.2738 38.215 14.5311 38.2312C14.1977 38.2384 13.9827 38.4905 13.9905 38.7959C13.9983 39.1065 14.214 39.3164 14.561 39.3261C14.8005 39.3327 15.0403 39.3313 15.2801 39.3299C15.3956 39.3292 15.5111 39.3285 15.6267 39.3287V39.3281C15.7391 39.3281 15.8516 39.3288 15.9641 39.3295H15.9641H15.9642H15.9643H15.9644ZM18.6853 39.3235V39.3274C18.7126 39.3274 18.7399 39.3278 18.7672 39.3282C18.8262 39.329 18.8852 39.3299 18.9439 39.3268C19.2902 39.3073 19.504 39.1039 19.5092 38.7913C19.5151 38.4827 19.3032 38.2501 18.9653 38.2293C18.7411 38.2156 18.5092 38.2104 18.2908 38.2533C18.0017 38.3098 17.8574 38.5178 17.8698 38.818C17.8815 39.0941 18.0751 39.2923 18.3623 39.3216C18.4357 39.3292 18.51 39.3272 18.5844 39.3253C18.618 39.3244 18.6517 39.3235 18.6853 39.3235ZM37.2539 40.1904C37.5359 40.562 37.8556 40.8629 38.3098 40.9994H38.8934L39.1786 40.8648C40.0578 40.4522 40.3054 39.2559 39.5854 38.6133C39.0032 38.0938 38.3866 37.6135 37.8024 37.1585L37.8024 37.1585C37.5565 36.967 37.3163 36.7799 37.0869 36.5963L35.595 38.0805C35.7443 38.2697 35.8998 38.4651 36.0592 38.6654L36.0604 38.6669L36.0625 38.6695L36.0625 38.6695C36.4487 39.1547 36.8573 39.668 37.2539 40.1904ZM32.1731 13.6578L23.4236 22.4073V10.054C25.9487 10.0533 29.5233 11.1482 32.1731 13.6578ZM33.0617 14.5243L33.0614 14.5239H33.0621L33.0617 14.5243ZM33.0617 14.5243C35.7055 17.5029 36.8998 21.013 36.6295 25.0214C32.6488 21.4417 28.5115 21.2195 24.139 24.3372C24.0408 24.2291 23.9149 24.0898 23.7987 23.9614L23.716 23.87L33.0617 14.5243ZM22.2877 31.036C22.2864 26.7642 25.7447 23.2943 30.0048 23.2917C34.2986 23.2897 37.7744 26.7415 37.7816 31.0152C37.7887 35.2616 34.3149 38.7783 30.1061 38.7855C25.7707 38.7933 22.289 35.3422 22.2877 31.036ZM30.0139 24.3989C26.3808 24.3885 23.4002 27.3705 23.3937 31.0217C23.3872 34.6716 26.349 37.66 29.9879 37.6763C33.6625 37.6925 36.6749 34.71 36.6821 31.0483C36.6892 27.3835 33.7067 24.41 30.0132 24.3989H30.0139ZM30.0399 25.5036C27.0046 25.4893 24.5101 27.9683 24.4984 31.0113C24.486 34.0556 26.9578 36.5554 29.9937 36.569C33.053 36.5827 35.5612 34.1063 35.5761 31.0581C35.5904 28.0118 33.105 25.5179 30.0399 25.5036Z" fill="white"/>
<defs>
<linearGradient id="paint0_linear_383_7055" x1="0" y1="25" x2="50" y2="25" gradientUnits="userSpaceOnUse">
<stop stop-color="#F2709C"/>
<stop offset="1" stop-color="#FF9472"/>
</linearGradient>
</defs>
</svg>
