<svg width="50" height="50" viewBox="0 0 50 50" fill="none" xmlns="http://www.w3.org/2000/svg">
<circle cx="25" cy="25" r="25" fill="url(#paint0_linear_721_11908)"/>
<path d="M38.5003 26.4954C38.1026 26.4954 37.7211 26.3374 37.4399 26.0561C37.1586 25.7749 37.0006 25.3934 37.0006 24.9957V21.1115L27.5675 30.5596C27.4281 30.7001 27.2623 30.8117 27.0795 30.8878C26.8968 30.964 26.7007 31.0032 26.5028 31.0032C26.3048 31.0032 26.1088 30.964 25.926 30.8878C25.7433 30.8117 25.5774 30.7001 25.438 30.5596L20.504 25.6106L12.5706 33.559C12.2882 33.8414 11.9052 34 11.5058 34C11.1065 34 10.7234 33.8414 10.441 33.559C10.1586 33.2766 10 32.8935 10 32.4942C10 32.0948 10.1586 31.7118 10.441 31.4294L19.4392 22.4312C19.5786 22.2907 19.7445 22.1791 19.9272 22.103C20.11 22.0268 20.306 21.9876 20.504 21.9876C20.702 21.9876 20.898 22.0268 21.0807 22.103C21.2635 22.1791 21.4294 22.2907 21.5688 22.4312L26.5028 27.3802L34.886 18.9969H31.0018C30.6041 18.9969 30.2226 18.8389 29.9414 18.5577C29.6602 18.2764 29.5021 17.895 29.5021 17.4972C29.5021 17.0995 29.6602 16.718 29.9414 16.4368C30.2226 16.1555 30.6041 15.9975 31.0018 15.9975H38.5003C38.6963 15.9999 38.8899 16.0407 39.0702 16.1175C39.4366 16.2697 39.7278 16.5609 39.88 16.9274C39.9569 17.1077 39.9976 17.3013 40 17.4972V24.9957C40 25.3934 39.842 25.7749 39.5608 26.0561C39.2795 26.3374 38.8981 26.4954 38.5003 26.4954Z" fill="white"/>
<defs>
<linearGradient id="paint0_linear_721_11908" x1="0" y1="25" x2="50" y2="25" gradientUnits="userSpaceOnUse">
<stop stop-color="#F2709C"/>
<stop offset="1" stop-color="#FF9472"/>
</linearGradient>
</defs>
</svg>
