<svg width="16" height="14" viewBox="0 0 16 14" fill="none" xmlns="http://www.w3.org/2000/svg">
<path fill-rule="evenodd" clip-rule="evenodd" d="M10.9451 0.51727L15.8403 2.93591C15.9013 2.96604 15.923 3.04129 15.8873 3.0987L11.0697 10.8345L7.70159 5.42602L10.7188 0.580994C10.7509 0.529541 10.8102 0.499997 10.8697 0.499997C10.8706 0.499997 10.8714 0.500129 10.8722 0.500262C10.873 0.50038 10.8737 0.500499 10.8744 0.500523C10.8986 0.501155 10.9228 0.506264 10.9451 0.51727ZM0.785288 0.587732L5.5878 2.96056C5.6267 2.97978 5.65127 3.01912 5.65127 3.06209V13.3361C5.65127 13.528 5.54639 13.6423 5.39684 13.6423C5.34376 13.6423 5.28503 13.6279 5.22337 13.5974L0.785288 11.4046C0.628387 11.3271 0.5 11.1219 0.5 10.9485V0.761944C0.5 0.698695 0.517214 0.648137 0.54658 0.613169C0.576585 0.57741 0.619221 0.557819 0.669638 0.557819C0.705026 0.557819 0.744197 0.567404 0.785288 0.587732ZM15.5256 13.594L11.213 11.4633L15.9535 3.85126V13.3327C15.9535 13.5927 15.761 13.7103 15.5256 13.594ZM6.10659 3.72302V8.94349L10.8026 11.2637L6.10659 3.72302Z" fill="#98A2B3"/>
</svg>
