<svg width="31" height="30" viewBox="0 0 31 30" fill="none" xmlns="http://www.w3.org/2000/svg">
<path fill-rule="evenodd" clip-rule="evenodd" d="M5.99811 6.25037C5.66657 6.25037 5.34861 6.38207 5.11418 6.6165C4.87975 6.85093 4.74805 7.16889 4.74805 7.50043C4.74805 7.83197 4.87975 8.14992 5.11418 8.38436C5.34861 8.61879 5.66657 8.75049 5.99811 8.75049H25.9991C26.3306 8.75049 26.6486 8.61879 26.883 8.38436C27.1175 8.14992 27.2492 7.83197 27.2492 7.50043C27.2492 7.16889 27.1175 6.85093 26.883 6.6165C26.6486 6.38207 26.3306 6.25037 25.9991 6.25037H5.99811ZM4.74805 15.0008C4.74805 14.6693 4.87975 14.3513 5.11418 14.1169C5.34861 13.8824 5.66657 13.7507 5.99811 13.7507H25.9991C26.3306 13.7507 26.6486 13.8824 26.883 14.1169C27.1175 14.3513 27.2492 14.6693 27.2492 15.0008C27.2492 15.3323 27.1175 15.6503 26.883 15.8847C26.6486 16.1192 26.3306 16.2509 25.9991 16.2509H5.99811C5.66657 16.2509 5.34861 16.1192 5.11418 15.8847C4.87975 15.6503 4.74805 15.3323 4.74805 15.0008ZM4.74805 22.5012C4.74805 22.1696 4.87975 21.8517 5.11418 21.6172C5.34861 21.3828 5.66657 21.2511 5.99811 21.2511H25.9991C26.3306 21.2511 26.6486 21.3828 26.883 21.6172C27.1175 21.8517 27.2492 22.1696 27.2492 22.5012C27.2492 22.8327 27.1175 23.1507 26.883 23.3851C26.6486 23.6195 26.3306 23.7512 25.9991 23.7512H5.99811C5.66657 23.7512 5.34861 23.6195 5.11418 23.3851C4.87975 23.1507 4.74805 22.8327 4.74805 22.5012Z" fill="#29744D"/>
</svg>
