<svg width="23" height="23" viewBox="0 0 23 23" fill="none" xmlns="http://www.w3.org/2000/svg">
<path d="M11.5002 0.958496C10.181 0.96015 8.89156 1.35073 7.79317 2.08139C6.69478 2.81204 5.8362 3.85033 5.32482 5.0664C4.81344 6.28246 4.67196 7.62231 4.91808 8.91836C5.1642 10.2144 5.78699 11.4091 6.70855 12.3531V21.0835C6.70905 21.2469 6.75129 21.4074 6.83128 21.5498C6.91127 21.6923 7.02634 21.8119 7.16556 21.8973C7.30479 21.9828 7.46355 22.0313 7.62677 22.0381C7.78999 22.0449 7.95225 22.0099 8.09813 21.9364L11.5002 20.2402L14.9023 21.9364C15.0358 22.0048 15.1835 22.0409 15.3336 22.0418C15.513 22.0424 15.689 21.9926 15.8415 21.8981C15.9796 21.8118 16.0934 21.6917 16.1722 21.5491C16.251 21.4066 16.2922 21.2464 16.2919 21.0835V12.3531C17.2134 11.4091 17.8362 10.2144 18.0824 8.91836C18.3285 7.62231 18.187 6.28246 17.6756 5.0664C17.1642 3.85033 16.3057 2.81204 15.2073 2.08139C14.1089 1.35073 12.8194 0.96015 11.5002 0.958496V0.958496ZM14.3752 19.531L11.9315 18.3139C11.7977 18.2465 11.65 18.2114 11.5002 18.2114C11.3504 18.2114 11.2027 18.2465 11.069 18.3139L8.62522 19.531V13.7235C9.23177 14.0099 9.87784 14.2037 10.5419 14.2985V15.3335C10.5419 15.5877 10.6429 15.8314 10.8226 16.0111C11.0023 16.1909 11.2461 16.2918 11.5002 16.2918C11.7544 16.2918 11.9981 16.1909 12.1779 16.0111C12.3576 15.8314 12.4586 15.5877 12.4586 15.3335V14.2985C13.1226 14.2037 13.7687 14.0099 14.3752 13.7235V19.531ZM11.5002 12.4585C10.5525 12.4585 9.6261 12.1775 8.83811 11.651C8.05013 11.1244 7.43597 10.3761 7.0733 9.50052C6.71063 8.62496 6.61573 7.66151 6.80062 6.73202C6.98551 5.80253 7.44187 4.94874 8.112 4.27861C8.78212 3.60848 9.63592 3.15212 10.5654 2.96723C11.4949 2.78235 12.4583 2.87724 13.3339 3.23991C14.2095 3.60258 14.9578 4.21674 15.4843 5.00472C16.0109 5.79271 16.2919 6.71913 16.2919 7.66683C16.2919 8.93766 15.787 10.1564 14.8884 11.055C13.9898 11.9537 12.771 12.4585 11.5002 12.4585V12.4585Z"/>
</svg>
