<svg width="23" height="23" viewBox="0 0 23 23" xmlns="http://www.w3.org/2000/svg">
<path d="M11.5 0.958252C10.1808 0.959906 8.89132 1.35049 7.79293 2.08114C6.69454 2.8118 5.83595 3.85009 5.32457 5.06615C4.81319 6.28222 4.67171 7.62207 4.91783 8.91812C5.16395 10.2142 5.78674 11.4089 6.70831 12.3528V21.0833C6.7088 21.2466 6.75105 21.4071 6.83103 21.5496C6.91102 21.692 7.02609 21.8116 7.16532 21.8971C7.30455 21.9826 7.46331 22.031 7.62653 22.0378C7.78975 22.0447 7.952 22.0097 8.09789 21.9362L11.5 20.2399L14.9021 21.9362C15.0356 22.0046 15.1833 22.0407 15.3333 22.0416C15.5127 22.0422 15.6887 21.9924 15.8412 21.8978C15.9793 21.8115 16.0932 21.6914 16.172 21.5489C16.2508 21.4064 16.292 21.2461 16.2916 21.0833V12.3528C17.2132 11.4089 17.836 10.2142 18.0821 8.91812C18.3282 7.62207 18.1868 6.28222 17.6754 5.06615C17.164 3.85009 16.3054 2.8118 15.207 2.08114C14.1086 1.35049 12.8192 0.959906 11.5 0.958252ZM14.375 19.5308L11.9312 18.3137C11.7975 18.2463 11.6498 18.2112 11.5 18.2112C11.3502 18.2112 11.2025 18.2463 11.0687 18.3137L8.62497 19.5308V13.7233C9.23152 14.0097 9.8776 14.2035 10.5416 14.2983V15.3333C10.5416 15.5874 10.6426 15.8312 10.8223 16.0109C11.0021 16.1906 11.2458 16.2916 11.5 16.2916C11.7541 16.2916 11.9979 16.1906 12.1776 16.0109C12.3573 15.8312 12.4583 15.5874 12.4583 15.3333V14.2983C13.1223 14.2035 13.7684 14.0097 14.375 13.7233V19.5308ZM11.5 12.4583C10.5523 12.4583 9.62585 12.1772 8.83787 11.6507C8.04988 11.1242 7.43572 10.3758 7.07305 9.50028C6.71038 8.62471 6.61549 7.66127 6.80038 6.73178C6.98527 5.80229 7.44163 4.94849 8.11175 4.27837C8.78188 3.60824 9.63567 3.15188 10.5652 2.96699C11.4947 2.7821 12.4581 2.87699 13.3337 3.23966C14.2092 3.60233 14.9576 4.21649 15.4841 5.00448C16.0106 5.79246 16.2916 6.71888 16.2916 7.66659C16.2916 8.93741 15.7868 10.1562 14.8882 11.0548C13.9896 11.9534 12.7708 12.4583 11.5 12.4583Z" fill="#434656"/>
</svg>
