<svg width="23" height="23" viewBox="0 0 23 23" fill="none" xmlns="http://www.w3.org/2000/svg">
<path d="M9.10482 2.39581L9.39683 2.39753C13.7581 2.44914 17.2507 3.65878 17.2507 5.74998L17.2514 9.18378C19.9705 9.64034 22.0423 12.0053 22.0423 14.8541C22.0423 18.0298 19.4679 20.6041 16.2923 20.6041C15.4287 20.6041 14.5913 20.4129 13.8293 20.0512C12.4851 20.4078 10.8372 20.6041 9.10482 20.6041C4.70622 20.6041 1.11806 19.44 0.96413 17.3881L0.958984 17.25V5.74998L0.96413 5.61188C1.11806 3.55999 4.70621 2.39581 9.10482 2.39581ZM2.87528 15.6949L2.87565 17.25C2.87565 17.4054 3.1358 17.6001 3.59534 17.7955L3.8654 17.9019C3.96177 17.9372 4.06437 17.9724 4.17282 18.0071L4.51541 18.1096C4.57532 18.1264 4.6366 18.1431 4.6992 18.1595L5.09043 18.2555C5.42912 18.3332 5.79874 18.4045 6.19357 18.4658L6.6791 18.5344L7.18665 18.592C7.79079 18.6524 8.43539 18.6875 9.10482 18.6875C9.96484 18.6875 10.7979 18.6346 11.5682 18.5357L11.8447 18.4968L11.7414 18.3692L11.6533 18.2521C11.6298 18.2201 11.6068 18.1879 11.584 18.1555L11.7414 18.3692C11.6511 18.2523 11.5653 18.1321 11.4842 18.0086C11.468 17.9839 11.4524 17.9598 11.437 17.9356C11.4119 17.896 11.3869 17.8556 11.3624 17.8148C11.3383 17.7748 11.3147 17.7345 11.2917 17.694C11.275 17.6647 11.2589 17.6358 11.243 17.6067C11.2181 17.5611 11.1938 17.515 11.17 17.4686C11.1498 17.4289 11.1298 17.3887 11.1103 17.3482C11.0903 17.3068 11.0711 17.2656 11.0523 17.2241C11.0354 17.1868 11.0187 17.149 11.0025 17.1111C10.9833 17.066 10.9647 17.021 10.9468 16.9757C10.9325 16.9397 10.9184 16.9032 10.9047 16.8665C10.8848 16.8133 10.8657 16.7598 10.8474 16.7059C10.8469 16.7044 10.8464 16.7032 10.846 16.7019C10.2818 16.7479 9.69774 16.7708 9.10482 16.7708C6.60667 16.7708 4.36994 16.3953 2.87528 15.6949ZM16.2923 11.0208C15.1888 11.0208 14.1629 11.4883 13.4395 12.2936C12.8115 12.9927 12.459 13.8947 12.459 14.8541C12.459 15.0747 12.4775 15.2926 12.5141 15.5063C12.7082 16.6409 13.4081 17.6263 14.4047 18.1915C14.9754 18.5151 15.6202 18.6875 16.2923 18.6875C18.4094 18.6875 20.1256 16.9712 20.1256 14.8541C20.1256 12.7371 18.4094 11.0208 16.2923 11.0208ZM18.4074 12.739C18.7528 13.0845 18.7794 13.6281 18.4871 14.004L18.4074 14.0943L15.5324 16.9693C15.1581 17.3435 14.5513 17.3435 14.1771 16.9693C13.8316 16.6238 13.805 16.0802 14.0974 15.7043L14.1771 15.614L17.0521 12.739C17.4263 12.3647 18.0331 12.3647 18.4074 12.739ZM2.87528 11.8616L2.87565 13.4166C2.87565 13.5721 3.1358 13.7667 3.59534 13.9621L3.8654 14.0686C3.96177 14.1039 4.06437 14.139 4.17282 14.1737L4.51541 14.2763C4.57532 14.2931 4.6366 14.3097 4.6992 14.3262L5.09043 14.4222C5.42912 14.4998 5.79874 14.5711 6.19357 14.6325L6.6791 14.7011L7.18665 14.7587C7.79079 14.819 8.43539 14.8541 9.10482 14.8541C9.59384 14.8541 10.0754 14.8371 10.5435 14.8038C10.5484 14.1307 10.6705 13.4762 10.8964 12.8635C10.317 12.9131 9.71586 12.9375 9.10482 12.9375C6.60667 12.9375 4.36994 12.562 2.87528 11.8616ZM15.3353 8.0278C13.8407 8.72847 11.6035 9.10415 9.10482 9.10415C6.60667 9.10415 4.36994 8.72863 2.87528 8.02825L2.87565 9.58331C2.87565 9.73875 3.1358 9.9334 3.59534 10.1288L3.8654 10.2352C3.96177 10.2706 4.06437 10.3057 4.17282 10.3404L4.51541 10.443C4.57532 10.4598 4.6366 10.4764 4.6992 10.4928L5.09043 10.5888C5.42912 10.6665 5.79874 10.7378 6.19357 10.7991L6.6791 10.8677L7.18665 10.9254C7.79079 10.9857 8.43539 11.0208 9.10482 11.0208C10.2207 11.0208 11.2947 10.9321 12.2517 10.7662C13.0601 9.96338 14.0881 9.42003 15.2104 9.20608L15.334 9.1856L15.3353 8.0278ZM9.10482 4.31248C8.43539 4.31248 7.79078 4.3476 7.18665 4.40791L6.6791 4.46555L6.19356 4.53415C5.79873 4.59549 5.42912 4.6668 5.09042 4.74446L4.6992 4.84047C4.63659 4.8569 4.57531 4.87353 4.51541 4.89033L4.17282 4.99288C4.06437 5.02758 3.96177 5.06272 3.8654 5.09806L3.59534 5.20449C3.1358 5.39989 2.87565 5.59454 2.87565 5.74998C2.87565 5.90541 3.1358 6.10007 3.59534 6.29547L3.8654 6.40189C3.96177 6.43724 4.06437 6.47237 4.17282 6.50707L4.51541 6.60963C4.57532 6.62643 4.6366 6.64305 4.6992 6.65949L5.09043 6.7555C5.42912 6.83316 5.79874 6.90447 6.19357 6.96581L6.6791 7.0344L7.18665 7.09204C7.79079 7.15236 8.43539 7.18748 9.10482 7.18748C9.77424 7.18748 10.4188 7.15236 11.023 7.09204L11.5305 7.0344L12.0161 6.96581C12.4109 6.90447 12.7805 6.83316 13.1192 6.7555L13.5104 6.65949C13.573 6.64305 13.6343 6.62643 13.6942 6.60963L14.0368 6.50707C14.1453 6.47237 14.2479 6.43724 14.3442 6.40189L14.6143 6.29547C15.0738 6.10007 15.334 5.90541 15.334 5.74998C15.334 5.59454 15.0738 5.39989 14.6143 5.20449L14.3442 5.09806C14.2479 5.06272 14.1453 5.02758 14.0368 4.99288L13.6942 4.89033C13.6343 4.87353 13.573 4.8569 13.5104 4.84047L13.1192 4.74446C12.7805 4.6668 12.4109 4.59549 12.0161 4.53415L11.5305 4.46555L11.023 4.40791C10.4189 4.3476 9.77424 4.31248 9.10482 4.31248Z" fill="#434656"/>
</svg>
