<svg xmlns="http://www.w3.org/2000/svg" width="21" height="21" viewBox="0 0 21 21" fill="none">
  <path d="M13.8041 17.6693H14.8646V14.6724H13.8041V17.6693ZM14.3211 13.8193C14.4637 13.8193 14.5899 13.7656 14.6998 13.6583C14.8096 13.5509 14.8646 13.4257 14.8646 13.2825C14.8646 13.1312 14.8085 13.0024 14.6962 12.8962C14.584 12.79 14.4613 12.737 14.3282 12.737C14.1722 12.737 14.0458 12.7931 13.9492 12.9053C13.8525 13.0175 13.8041 13.1444 13.8041 13.2858C13.8041 13.4273 13.851 13.5515 13.9447 13.6586C14.0385 13.7658 14.1639 13.8193 14.3211 13.8193ZM4.04881 3.17378V9.52799V9.44049V17.8262V3.17378ZM6.10316 11.8372H9.73382C9.9238 11.5563 10.1396 11.2964 10.3812 11.0574C10.6229 10.8184 10.8819 10.5955 11.1582 10.3887H6.10316V11.8372ZM6.10316 15.556H8.79378C8.76462 15.3271 8.75162 15.0893 8.75478 14.8427C8.75796 14.596 8.78237 14.351 8.82802 14.1075H6.10316V15.556ZM4.04881 19.5591C3.57475 19.5591 3.16742 19.3888 2.82683 19.0482C2.48622 18.7076 2.31592 18.3003 2.31592 17.8262V3.17378C2.31592 2.69632 2.48622 2.28608 2.82683 1.94305C3.16742 1.60004 3.57475 1.42853 4.04881 1.42853H11.9704L16.9465 6.40461V10.0549C16.6682 9.91794 16.3825 9.80476 16.0896 9.71535C15.7966 9.62595 15.5005 9.5635 15.2013 9.52799V7.24253H11.0669V3.17378H4.04881V17.8262H9.5537C9.74544 18.1789 9.9733 18.503 10.2373 18.7984C10.5012 19.0938 10.8041 19.3474 11.1458 19.5591H4.04881ZM14.3282 10.7406C15.5023 10.7406 16.5031 11.1544 17.3306 11.9819C18.1581 12.8095 18.5719 13.8103 18.5719 14.9844C18.5719 16.1585 18.1581 17.1593 17.3306 17.9868C16.5031 18.8144 15.5023 19.2281 14.3282 19.2281C13.1541 19.2281 12.1532 18.8144 11.3257 17.9868C10.4982 17.1593 10.0844 16.1585 10.0844 14.9844C10.0844 13.8103 10.4982 12.8095 11.3257 11.9819C12.1532 11.1544 13.1541 10.7406 14.3282 10.7406Z" fill="#6C6F89"/>
</svg>