<svg width="24" height="24" viewBox="0 0 24 24" fill="none" xmlns="http://www.w3.org/2000/svg">
<path d="M11.9996 21.1502C9.44961 21.1502 7.28711 20.2627 5.51211 18.4877C3.73711 16.7127 2.84961 14.5502 2.84961 12.0002C2.84961 9.4502 3.73711 7.28353 5.51211 5.5002C7.28711 3.71686 9.44961 2.8252 11.9996 2.8252C12.1163 2.8252 12.2413 2.82936 12.3746 2.8377C12.5079 2.84603 12.6829 2.85853 12.8996 2.8752C12.3829 3.44186 11.9829 4.09603 11.6996 4.8377C11.4163 5.57936 11.2746 6.3502 11.2746 7.1502C11.2746 8.7002 11.8163 10.021 12.8996 11.1127C13.9829 12.2044 15.3079 12.7502 16.8746 12.7502C17.6746 12.7502 18.4454 12.621 19.1871 12.3627C19.9288 12.1044 20.5829 11.7419 21.1496 11.2752C21.1496 11.4585 21.1538 11.6002 21.1621 11.7002C21.1704 11.8002 21.1746 11.8919 21.1746 11.9752C21.1746 14.5252 20.2829 16.6919 18.4996 18.4752C16.7163 20.2585 14.5496 21.1502 11.9996 21.1502ZM11.9996 19.1752C13.6329 19.1752 15.0663 18.6835 16.2996 17.7002C17.5329 16.7169 18.3246 15.5669 18.6746 14.2502C18.3246 14.4002 17.9454 14.5127 17.5371 14.5877C17.1288 14.6627 16.7246 14.6919 16.3246 14.6752C14.4413 14.5419 12.8371 13.8252 11.5121 12.5252C10.1871 11.2252 9.45794 9.60019 9.32461 7.6502C9.32461 7.33353 9.35378 6.98353 9.41211 6.6002C9.47044 6.21686 9.59128 5.76686 9.77461 5.2502C8.35794 5.71686 7.17878 6.58353 6.23711 7.85019C5.29544 9.11686 4.82461 10.5002 4.82461 12.0002C4.82461 14.0002 5.52044 15.696 6.91211 17.0877C8.30378 18.4794 9.99961 19.1752 11.9996 19.1752Z" fill="#434656"/>
</svg>
