<svg width="20" height="20" viewBox="0 0 20 20" fill="none" xmlns="http://www.w3.org/2000/svg">
<path d="M17.9419 13.2751C17.8086 13.0501 17.4336 12.7001 16.5002 12.8667C15.9836 12.9584 15.4586 13.0001 14.9336 12.9751C12.9919 12.8917 11.2336 12.0001 10.0086 10.6251C8.92525 9.41672 8.25858 7.84172 8.25025 6.14172C8.25025 5.19172 8.43358 4.27506 8.80858 3.40839C9.17525 2.56672 8.91691 2.12506 8.73358 1.94172C8.54191 1.75006 8.09191 1.48339 7.20858 1.85006C3.80024 3.28339 1.69191 6.70006 1.94191 10.3584C2.19191 13.8001 4.60858 16.7417 7.80858 17.8501C8.57525 18.1167 9.38358 18.2751 10.2169 18.3084C10.3502 18.3167 10.4836 18.3251 10.6169 18.3251C13.4086 18.3251 16.0252 17.0084 17.6752 14.7667C18.2336 13.9917 18.0836 13.5001 17.9419 13.2751Z" fill="white"/>
</svg>
