<svg width="19" height="20" viewBox="0 0 19 20"  xmlns="http://www.w3.org/2000/svg">
<path d="M10.8958 9.96729C11.9502 9.19456 12.775 8.37622 13.3702 7.51227C13.9654 6.64833 14.263 5.79643 14.263 4.95657C14.263 4.44715 14.1725 4.0407 13.9915 3.73723C13.8105 3.43376 13.5691 3.28202 13.2674 3.28202C12.5824 3.28202 11.9891 3.7999 11.4874 4.83567C10.9857 5.87143 10.7349 7.08833 10.7349 8.48636C10.7349 8.7577 10.7466 9.01585 10.7702 9.26081C10.7937 9.50576 10.8356 9.74126 10.8958 9.96729ZM2.10656 17.4047V15.9151H3.59612V17.4047H2.10656ZM5.43932 17.4047V15.9151H6.92886V17.4047H5.43932ZM8.76088 17.4047V15.9151H10.2504V17.4047H8.76088ZM12.0936 17.4047V15.9151H13.5832V17.4047H12.0936ZM15.4264 17.4047V15.9151H16.9159V17.4047H15.4264ZM2.33632 14.0582L1.30371 13.0144L2.57038 11.7477L1.30371 10.481L2.33632 9.43723L3.60299 10.7039L4.86965 9.43723L5.91347 10.481L4.6468 11.7477L5.91347 13.0144L4.86965 14.0582L3.60299 12.7915L2.33632 14.0582ZM12.455 13.4799C11.9955 13.4799 11.5826 13.3726 11.2163 13.1581C10.8501 12.9435 10.5295 12.6395 10.2547 12.2459C9.93232 12.4381 9.59816 12.6279 9.25222 12.8152C8.9063 13.0025 8.54575 13.1799 8.17057 13.3474L7.50883 12.0377C7.88573 11.8553 8.24428 11.6733 8.58447 11.4917C8.92465 11.3101 9.25681 11.1195 9.58094 10.9199C9.4662 10.5642 9.38158 10.1873 9.32708 9.78916C9.27258 9.39104 9.24534 8.97168 9.24534 8.53111C9.24534 6.63455 9.62453 5.0373 10.3829 3.73937C11.1413 2.44144 12.1028 1.79248 13.2674 1.79248C14.0223 1.79248 14.6252 2.08534 15.0761 2.67105C15.527 3.25678 15.7525 4.0235 15.7525 4.9712C15.7525 6.09502 15.3806 7.20924 14.6369 8.31383C13.8931 9.41843 12.8529 10.4463 11.5162 11.3975C11.6631 11.5914 11.8232 11.7387 11.9964 11.8393C12.1697 11.94 12.3598 11.9904 12.5669 11.9904C13.0362 11.9904 13.493 11.798 13.9373 11.4134C14.3816 11.0287 14.8074 10.4595 15.2147 9.7057L16.4151 10.2874C16.3641 10.6454 16.3371 10.9246 16.3342 11.1251C16.3314 11.3256 16.3311 11.6048 16.3334 11.9628C16.5181 11.8257 16.6959 11.685 16.8669 11.5407C17.0378 11.3965 17.197 11.2308 17.3444 11.0438L18.5294 11.6307C18.1697 12.2261 17.7863 12.6832 17.3793 13.0019C16.9723 13.3206 16.5674 13.4799 16.1647 13.4799C15.8331 13.4799 15.559 13.3734 15.3425 13.1602C15.1259 12.9471 14.9941 12.6481 14.9471 12.2632C14.5644 12.663 14.1633 12.9658 13.7436 13.1714C13.324 13.3771 12.8945 13.4799 12.455 13.4799Z" />
</svg>
