<svg width="128" height="149" viewBox="0 0 128 149" fill="none" xmlns="http://www.w3.org/2000/svg">
<path d="M47.4712 5.27869C48.6093 4.55815 50.0114 4.55815 51.1494 5.27869L61.8055 12.0255C62.9435 12.7461 63.6445 14.0776 63.6445 15.5188V29.0123C63.6445 30.4535 62.9435 31.785 61.8055 32.5056L51.1494 39.2524C50.0114 39.9729 48.6093 39.9729 47.4712 39.2524L36.8152 32.5056C35.6771 31.785 34.9761 30.4535 34.9761 29.0123V15.5188C34.9761 14.0776 35.6771 12.7461 36.8152 12.0255L47.4712 5.27869Z" fill="#D6E2FF"/>
<path d="M108.455 55.1794C105.807 81.1559 88.0151 91.966 67.7012 91.966C47.6578 91.966 21.4756 80.9704 19.934 65.0243C19.8926 64.5969 19.9295 64.1601 20.0603 63.755C23.2174 53.9754 43.1324 52.0745 58.2851 39.6903C72.0936 28.4048 77.9821 4.0332 87.5632 4.0332C98.1563 5.4853 109.632 32.9139 108.455 55.1794Z" fill="#D6E2FF"/>
<path fill-rule="evenodd" clip-rule="evenodd" d="M69.9816 37.3516C68.5191 37.3516 67.3334 38.6518 67.3334 40.2558V42.6759H41.1449C39.6823 42.6759 38.4966 43.9762 38.4966 45.5801V77.365C38.4966 78.9689 39.6823 80.2692 41.1449 80.2692H69.9816H85.8713C87.3339 80.2692 88.5196 78.9689 88.5196 77.365V45.5801V40.2558C88.5196 38.6518 87.3339 37.3516 85.8713 37.3516H69.9816Z" fill="#0033AD"/>
<path d="M77.9264 24.1211H45.2644C43.8018 24.1211 42.6161 25.4213 42.6161 27.0253V59.4555C42.6161 61.0595 43.8018 62.3597 45.2644 62.3597H77.9264C79.389 62.3597 80.5747 61.0595 80.5747 59.4555V27.0253C80.5747 25.4213 79.389 24.1211 77.9264 24.1211Z" fill="#F6F9FF"/>
<path fill-rule="evenodd" clip-rule="evenodd" d="M51.4857 33.1164C51.1267 33.5102 51.1267 34.1487 51.4857 34.5425C51.8449 34.9363 52.427 34.9363 52.7862 34.5425L53.6965 33.5442L54.6068 34.5425C54.9659 34.9363 55.5481 34.9363 55.9072 34.5425C56.2663 34.1487 56.2663 33.5102 55.9072 33.1164L54.9969 32.1181L55.9072 31.1199C56.2663 30.726 56.2663 30.0876 55.9072 29.6938C55.5481 29.3 54.9659 29.3 54.6068 29.6938L53.6965 30.692L52.7862 29.6938C52.4271 29.3 51.8449 29.3 51.4858 29.6938C51.1267 30.0876 51.1267 30.726 51.4858 31.1199L52.3961 32.1181L51.4857 33.1164Z" fill="#0033AD"/>
<path fill-rule="evenodd" clip-rule="evenodd" d="M67.5961 33.1164C67.237 33.5102 67.237 34.1487 67.5961 34.5425C67.9552 34.9363 68.5374 34.9363 68.8965 34.5425L69.8069 33.5442L70.7171 34.5425C71.0763 34.9363 71.6585 34.9363 72.0176 34.5425C72.3767 34.1487 72.3767 33.5102 72.0176 33.1164L71.1073 32.1181L72.0175 31.1199C72.3767 30.726 72.3767 30.0876 72.0175 29.6938C71.6585 29.3 71.0762 29.3 70.7171 29.6938L69.8069 30.692L68.8965 29.6938C68.5375 29.3 67.9552 29.3 67.5962 29.6938C67.237 30.0876 67.237 30.726 67.5962 31.1199L68.5064 32.1181L67.5961 33.1164Z" fill="#0033AD"/>
<path d="M55.4896 43.1185L55.7011 42.8806C59.4187 38.6976 65.5796 38.8063 69.1724 43.1185" stroke="#0033AD" stroke-width="2" stroke-linecap="round"/>
<path d="M33.8207 51.0155C33.5535 49.2461 34.7979 47.6367 36.4333 47.6367H81.5903C82.875 47.6367 83.9745 48.6479 84.1981 50.0354L88.5217 76.859C88.8084 78.6375 87.5608 80.2687 85.9139 80.2687H40.4848C39.1892 80.2687 38.0838 79.2407 37.8721 77.839L33.8207 51.0155Z" fill="#5C8DFF"/>
<path opacity="0.5" d="M82.8552 44.451C86.1867 44.451 88.8874 41.4893 88.8874 37.8358C88.8874 34.1824 86.1867 31.2207 82.8552 31.2207C79.5237 31.2207 76.823 34.1824 76.823 37.8358C76.823 41.4893 79.5237 44.451 82.8552 44.451Z" fill="#F6F9FF"/>
<path fill-rule="evenodd" clip-rule="evenodd" d="M87.4157 44.7715C86.1333 45.7872 84.558 46.3857 82.8552 46.3857C78.5487 46.3857 75.0575 42.5572 75.0575 37.8345C75.0575 33.1117 78.5487 29.2832 82.8552 29.2832C87.1617 29.2832 90.6529 33.1117 90.6529 37.8345C90.6529 39.817 90.0379 41.6419 89.0053 43.0922L94.6886 49.7759C95.1042 50.2647 95.0799 51.0304 94.6341 51.4862C94.1883 51.942 93.4902 51.9152 93.0746 51.4264L87.4157 44.7715ZM88.8874 37.8345C88.8874 41.4879 86.1867 44.4496 82.8552 44.4496C79.5237 44.4496 76.823 41.4879 76.823 37.8345C76.823 34.1811 79.5237 31.2193 82.8552 31.2193C86.1867 31.2193 88.8874 34.1811 88.8874 37.8345Z" fill="#6C6F89"/>
<path opacity="0.8" d="M59.8359 128.625V140H58.3203L52.5938 131.227V140H51.0859V128.625H52.5938L58.3438 137.422V128.625H59.8359ZM67.3203 128.625L62.5781 140.977H61.3359L66.0859 128.625H67.3203ZM73.3281 129.633L69.5625 140H68.0234L72.3594 128.625H73.3516L73.3281 129.633ZM76.4844 140L72.7109 129.633L72.6875 128.625H73.6797L78.0312 140H76.4844ZM76.2891 135.789V137.023H69.8984V135.789H76.2891Z" fill="#434656"/>
</svg>
