<svg width="128" height="149" viewBox="0 0 128 149" fill="none" xmlns="http://www.w3.org/2000/svg">
<path d="M108.455 55.1775C105.807 81.154 88.0152 91.9641 67.7013 91.9641C47.6579 91.9641 21.4757 80.9685 19.9341 65.0224C19.8928 64.595 19.9296 64.1582 20.0604 63.7531C23.2175 53.9735 43.1325 52.0726 58.2852 39.6884C72.0937 28.4029 77.9822 4.03125 87.5634 4.03125C98.1565 5.48335 109.632 32.912 108.455 55.1775Z" fill="#D6E2FF"/>
<path d="M31.9287 117.012V126.965H30.6025L25.5918 119.288V126.965H24.2725V117.012H25.5918L30.623 124.709V117.012H31.9287ZM33.7402 123.349V123.191C33.7402 122.658 33.8177 122.164 33.9727 121.708C34.1276 121.248 34.3509 120.849 34.6426 120.512C34.9342 120.17 35.2874 119.906 35.7021 119.719C36.1169 119.527 36.5817 119.432 37.0967 119.432C37.6162 119.432 38.0833 119.527 38.498 119.719C38.9173 119.906 39.2728 120.17 39.5645 120.512C39.8607 120.849 40.0863 121.248 40.2412 121.708C40.3962 122.164 40.4736 122.658 40.4736 123.191V123.349C40.4736 123.882 40.3962 124.376 40.2412 124.832C40.0863 125.288 39.8607 125.687 39.5645 126.028C39.2728 126.366 38.9196 126.63 38.5049 126.821C38.0947 127.008 37.6299 127.102 37.1104 127.102C36.5908 127.102 36.1237 127.008 35.709 126.821C35.2943 126.63 34.9388 126.366 34.6426 126.028C34.3509 125.687 34.1276 125.288 33.9727 124.832C33.8177 124.376 33.7402 123.882 33.7402 123.349ZM35.0049 123.191V123.349C35.0049 123.718 35.0482 124.066 35.1348 124.395C35.2214 124.718 35.3512 125.005 35.5244 125.256C35.7021 125.507 35.9232 125.705 36.1875 125.851C36.4518 125.992 36.7594 126.062 37.1104 126.062C37.4567 126.062 37.7598 125.992 38.0195 125.851C38.2839 125.705 38.5026 125.507 38.6758 125.256C38.849 125.005 38.9788 124.718 39.0654 124.395C39.1566 124.066 39.2021 123.718 39.2021 123.349V123.191C39.2021 122.827 39.1566 122.483 39.0654 122.159C38.9788 121.831 38.8467 121.542 38.6689 121.291C38.4958 121.036 38.277 120.835 38.0127 120.689C37.7529 120.544 37.4476 120.471 37.0967 120.471C36.7503 120.471 36.445 120.544 36.1807 120.689C35.9209 120.835 35.7021 121.036 35.5244 121.291C35.3512 121.542 35.2214 121.831 35.1348 122.159C35.0482 122.483 35.0049 122.827 35.0049 123.191ZM45.1562 119.568V120.539H41.1572V119.568H45.1562ZM42.5107 117.771H43.7754V125.133C43.7754 125.383 43.8141 125.573 43.8916 125.7C43.9691 125.828 44.0693 125.912 44.1924 125.953C44.3154 125.994 44.4476 126.015 44.5889 126.015C44.6937 126.015 44.8031 126.006 44.917 125.987C45.0355 125.965 45.1243 125.946 45.1836 125.933L45.1904 126.965C45.0902 126.997 44.958 127.026 44.7939 127.054C44.6344 127.086 44.4408 127.102 44.2129 127.102C43.903 127.102 43.6182 127.04 43.3584 126.917C43.0986 126.794 42.8913 126.589 42.7363 126.302C42.5859 126.01 42.5107 125.618 42.5107 125.126V117.771ZM53.9883 117.894L50.6934 126.965H49.3467L53.1406 117.012H54.0088L53.9883 117.894ZM56.75 126.965L53.4482 117.894L53.4277 117.012H54.2959L58.1035 126.965H56.75ZM56.5791 123.28V124.36H50.9873V123.28H56.5791ZM61.1523 125.823L63.1758 119.568H64.4678L61.8086 126.965H60.9609L61.1523 125.823ZM59.4639 119.568L61.5488 125.857L61.6924 126.965H60.8447L58.165 119.568H59.4639ZM69.9365 125.7V121.893C69.9365 121.601 69.8773 121.348 69.7588 121.134C69.6449 120.915 69.4717 120.746 69.2393 120.628C69.0068 120.509 68.7197 120.45 68.3779 120.45C68.0589 120.45 67.7786 120.505 67.5371 120.614C67.3001 120.724 67.1133 120.867 66.9766 121.045C66.8444 121.223 66.7783 121.414 66.7783 121.619H65.5137C65.5137 121.355 65.582 121.093 65.7188 120.833C65.8555 120.573 66.0514 120.339 66.3066 120.129C66.5664 119.915 66.8763 119.746 67.2363 119.623C67.6009 119.495 68.0065 119.432 68.4531 119.432C68.9909 119.432 69.4648 119.523 69.875 119.705C70.2897 119.887 70.6133 120.163 70.8457 120.532C71.0827 120.897 71.2012 121.355 71.2012 121.906V125.352C71.2012 125.598 71.2217 125.86 71.2627 126.138C71.3083 126.416 71.3743 126.655 71.4609 126.855V126.965H70.1416C70.0778 126.819 70.0277 126.625 69.9912 126.384C69.9548 126.138 69.9365 125.91 69.9365 125.7ZM70.1553 122.48L70.1689 123.369H68.8906C68.5306 123.369 68.2093 123.399 67.9268 123.458C67.6442 123.513 67.4072 123.597 67.2158 123.711C67.0244 123.825 66.8786 123.968 66.7783 124.142C66.6781 124.31 66.6279 124.508 66.6279 124.736C66.6279 124.969 66.6803 125.181 66.7852 125.372C66.89 125.563 67.0472 125.716 67.2568 125.83C67.471 125.939 67.7331 125.994 68.043 125.994C68.4303 125.994 68.7721 125.912 69.0684 125.748C69.3646 125.584 69.5993 125.383 69.7725 125.146C69.9502 124.91 70.0459 124.679 70.0596 124.456L70.5996 125.064C70.5677 125.256 70.4811 125.468 70.3398 125.7C70.1986 125.933 70.0094 126.156 69.7725 126.37C69.54 126.58 69.262 126.755 68.9385 126.896C68.6195 127.033 68.2594 127.102 67.8584 127.102C67.3571 127.102 66.9173 127.004 66.5391 126.808C66.1654 126.612 65.8737 126.35 65.6641 126.021C65.459 125.689 65.3564 125.317 65.3564 124.907C65.3564 124.511 65.4339 124.162 65.5889 123.861C65.7438 123.556 65.9671 123.303 66.2588 123.103C66.5505 122.897 66.9014 122.743 67.3115 122.638C67.7217 122.533 68.1797 122.48 68.6855 122.48H70.1553ZM74.5645 119.568V126.965H73.293V119.568H74.5645ZM73.1973 117.606C73.1973 117.401 73.2588 117.228 73.3818 117.087C73.5094 116.946 73.6963 116.875 73.9424 116.875C74.1839 116.875 74.3685 116.946 74.4961 117.087C74.6283 117.228 74.6943 117.401 74.6943 117.606C74.6943 117.802 74.6283 117.971 74.4961 118.112C74.3685 118.249 74.1839 118.317 73.9424 118.317C73.6963 118.317 73.5094 118.249 73.3818 118.112C73.2588 117.971 73.1973 117.802 73.1973 117.606ZM77.9688 116.465V126.965H76.6973V116.465H77.9688ZM84.3604 125.7V121.893C84.3604 121.601 84.3011 121.348 84.1826 121.134C84.0687 120.915 83.8955 120.746 83.6631 120.628C83.4307 120.509 83.1436 120.45 82.8018 120.45C82.4827 120.45 82.2025 120.505 81.9609 120.614C81.724 120.724 81.5371 120.867 81.4004 121.045C81.2682 121.223 81.2021 121.414 81.2021 121.619H79.9375C79.9375 121.355 80.0059 121.093 80.1426 120.833C80.2793 120.573 80.4753 120.339 80.7305 120.129C80.9902 119.915 81.3001 119.746 81.6602 119.623C82.0247 119.495 82.4303 119.432 82.877 119.432C83.4147 119.432 83.8887 119.523 84.2988 119.705C84.7135 119.887 85.0371 120.163 85.2695 120.532C85.5065 120.897 85.625 121.355 85.625 121.906V125.352C85.625 125.598 85.6455 125.86 85.6865 126.138C85.7321 126.416 85.7982 126.655 85.8848 126.855V126.965H84.5654C84.5016 126.819 84.4515 126.625 84.415 126.384C84.3786 126.138 84.3604 125.91 84.3604 125.7ZM84.5791 122.48L84.5928 123.369H83.3145C82.9544 123.369 82.6331 123.399 82.3506 123.458C82.068 123.513 81.8311 123.597 81.6396 123.711C81.4482 123.825 81.3024 123.968 81.2021 124.142C81.1019 124.31 81.0518 124.508 81.0518 124.736C81.0518 124.969 81.1042 125.181 81.209 125.372C81.3138 125.563 81.471 125.716 81.6807 125.83C81.8949 125.939 82.1569 125.994 82.4668 125.994C82.8542 125.994 83.196 125.912 83.4922 125.748C83.7884 125.584 84.0231 125.383 84.1963 125.146C84.374 124.91 84.4697 124.679 84.4834 124.456L85.0234 125.064C84.9915 125.256 84.9049 125.468 84.7637 125.7C84.6224 125.933 84.4333 126.156 84.1963 126.37C83.9639 126.58 83.6859 126.755 83.3623 126.896C83.0433 127.033 82.6833 127.102 82.2822 127.102C81.7809 127.102 81.3411 127.004 80.9629 126.808C80.5892 126.612 80.2975 126.35 80.0879 126.021C79.8828 125.689 79.7803 125.317 79.7803 124.907C79.7803 124.511 79.8577 124.162 80.0127 123.861C80.1676 123.556 80.391 123.303 80.6826 123.103C80.9743 122.897 81.3252 122.743 81.7354 122.638C82.1455 122.533 82.6035 122.48 83.1094 122.48H84.5791ZM87.6074 116.465H88.8789V125.529L88.7695 126.965H87.6074V116.465ZM93.876 123.205V123.349C93.876 123.886 93.8122 124.385 93.6846 124.846C93.557 125.301 93.3701 125.698 93.124 126.035C92.8779 126.372 92.5771 126.634 92.2217 126.821C91.8662 127.008 91.4583 127.102 90.998 127.102C90.5286 127.102 90.1162 127.022 89.7607 126.862C89.4098 126.698 89.1136 126.464 88.8721 126.158C88.6305 125.853 88.4368 125.484 88.291 125.051C88.1497 124.618 88.0518 124.13 87.9971 123.588V122.959C88.0518 122.412 88.1497 121.922 88.291 121.489C88.4368 121.056 88.6305 120.687 88.8721 120.382C89.1136 120.072 89.4098 119.837 89.7607 119.678C90.1117 119.514 90.5195 119.432 90.9844 119.432C91.4492 119.432 91.8617 119.523 92.2217 119.705C92.5817 119.883 92.8825 120.138 93.124 120.471C93.3701 120.803 93.557 121.202 93.6846 121.667C93.8122 122.127 93.876 122.64 93.876 123.205ZM92.6045 123.349V123.205C92.6045 122.836 92.5703 122.49 92.502 122.166C92.4336 121.838 92.3242 121.551 92.1738 121.305C92.0234 121.054 91.8252 120.858 91.5791 120.717C91.333 120.571 91.0299 120.498 90.6699 120.498C90.3509 120.498 90.0729 120.553 89.8359 120.662C89.6035 120.771 89.4053 120.92 89.2412 121.106C89.0771 121.289 88.9427 121.498 88.8379 121.735C88.7376 121.968 88.6624 122.209 88.6123 122.46V124.107C88.6852 124.426 88.8037 124.734 88.9678 125.03C89.1364 125.322 89.3597 125.561 89.6377 125.748C89.9202 125.935 90.2689 126.028 90.6836 126.028C91.0254 126.028 91.3171 125.96 91.5586 125.823C91.8047 125.682 92.0029 125.488 92.1533 125.242C92.3083 124.996 92.4222 124.711 92.4951 124.388C92.568 124.064 92.6045 123.718 92.6045 123.349ZM96.8496 116.465V126.965H95.5781V116.465H96.8496ZM101.949 127.102C101.434 127.102 100.967 127.015 100.548 126.842C100.133 126.664 99.7754 126.416 99.4746 126.097C99.1784 125.778 98.9505 125.399 98.791 124.962C98.6315 124.524 98.5518 124.046 98.5518 123.526V123.239C98.5518 122.638 98.6406 122.102 98.8184 121.633C98.9961 121.159 99.2376 120.758 99.543 120.43C99.8483 120.102 100.195 119.853 100.582 119.685C100.969 119.516 101.37 119.432 101.785 119.432C102.314 119.432 102.77 119.523 103.152 119.705C103.54 119.887 103.856 120.143 104.103 120.471C104.349 120.794 104.531 121.177 104.649 121.619C104.768 122.057 104.827 122.535 104.827 123.055V123.622H99.3037V122.59H103.562V122.494C103.544 122.166 103.476 121.847 103.357 121.537C103.243 121.227 103.061 120.972 102.811 120.771C102.56 120.571 102.218 120.471 101.785 120.471C101.498 120.471 101.234 120.532 100.992 120.655C100.751 120.774 100.543 120.951 100.37 121.188C100.197 121.425 100.062 121.715 99.9668 122.057C99.8711 122.398 99.8232 122.793 99.8232 123.239V123.526C99.8232 123.877 99.8711 124.208 99.9668 124.518C100.067 124.823 100.211 125.092 100.397 125.324C100.589 125.557 100.819 125.739 101.088 125.871C101.361 126.003 101.671 126.069 102.018 126.069C102.464 126.069 102.842 125.978 103.152 125.796C103.462 125.614 103.733 125.37 103.966 125.064L104.731 125.673C104.572 125.914 104.369 126.145 104.123 126.363C103.877 126.582 103.574 126.76 103.214 126.896C102.858 127.033 102.437 127.102 101.949 127.102Z" fill="#696B78"/>
<path d="M47.4717 5.27854C48.6097 4.55819 50.0119 4.55819 51.1499 5.27854L61.806 12.0235C62.944 12.7439 63.645 14.0751 63.645 15.5159V29.0058C63.645 30.4466 62.944 31.7777 61.806 32.4981L51.1499 39.2431C50.0119 39.9634 48.6097 39.9634 47.4717 39.2431L36.8156 32.4981C35.6776 31.7777 34.9766 30.4466 34.9766 29.0058V15.5159C34.9766 14.0751 35.6776 12.7439 36.8156 12.0235L47.4717 5.27854Z" fill="#D6E2FF"/>
<path fill-rule="evenodd" clip-rule="evenodd" d="M69.9821 37.3438C68.5195 37.3438 67.3339 38.6436 67.3339 40.2472V42.6665H41.1453C39.6828 42.6665 38.4971 43.9666 38.4971 45.57V77.3463C38.4971 78.9498 39.6828 80.2498 41.1453 80.2498H69.9821H85.8718C87.3344 80.2498 88.5201 78.9498 88.5201 77.3463V45.57V40.2472C88.5201 38.6436 87.3344 37.3438 85.8718 37.3438H69.9821Z" fill="#0033AD"/>
<path d="M77.9266 24.1172H45.2645C43.8019 24.1172 42.6162 25.417 42.6162 27.0206V59.4421C42.6162 61.0457 43.8019 62.3455 45.2645 62.3455H77.9266C79.3892 62.3455 80.5748 61.0457 80.5748 59.4421V27.0206C80.5748 25.417 79.3892 24.1172 77.9266 24.1172Z" fill="#F6F9FF"/>
<path fill-rule="evenodd" clip-rule="evenodd" d="M51.4861 33.1077C51.127 33.5013 51.127 34.1396 51.4861 34.5333C51.8452 34.927 52.4274 34.927 52.7865 34.5333L53.6969 33.5354L54.6072 34.5333C54.9663 34.927 55.5485 34.927 55.9076 34.5333C56.2667 34.1396 56.2667 33.5013 55.9076 33.1077L54.9973 32.1095L55.9075 31.1116C56.2667 30.7179 56.2667 30.0796 55.9075 29.6859C55.5485 29.2922 54.9662 29.2922 54.6072 29.6859L53.6969 30.6838L52.7865 29.6859C52.4275 29.2922 51.8452 29.2922 51.4862 29.6859C51.127 30.0796 51.127 30.7179 51.4862 31.1116L52.3964 32.1095L51.4861 33.1077Z" fill="#0033AD"/>
<path fill-rule="evenodd" clip-rule="evenodd" d="M67.5964 33.1077C67.2374 33.5013 67.2374 34.1396 67.5964 34.5333C67.9556 34.927 68.5378 34.927 68.8969 34.5333L69.8072 33.5354L70.7175 34.5333C71.0766 34.927 71.6588 34.927 72.018 34.5333C72.377 34.1396 72.377 33.5013 72.018 33.1077L71.1076 32.1095L72.0179 31.1116C72.377 30.7179 72.377 30.0796 72.0179 29.6859C71.6588 29.2922 71.0766 29.2922 70.7175 29.6859L69.8072 30.6838L68.8969 29.6859C68.5378 29.2922 67.9556 29.2922 67.5965 29.6859C67.2374 30.0796 67.2374 30.7179 67.5965 31.1116L68.5068 32.1095L67.5964 33.1077Z" fill="#0033AD"/>
<path d="M55.4902 43.1107L55.7017 42.8727C59.4193 38.6897 65.5802 38.7985 69.173 43.1107" stroke="#0033AD" stroke-width="2" stroke-linecap="round"/>
<path d="M33.8204 51.0029C33.5532 49.234 34.7977 47.625 36.4331 47.625H81.59C82.8748 47.625 83.9743 48.6359 84.1979 50.0231L88.5214 76.8395C88.8081 78.6175 87.5606 80.2482 85.9136 80.2482H40.4846C39.189 80.2482 38.0835 79.2205 37.8718 77.8192L33.8204 51.0029Z" fill="#5C8DFF"/>
<path opacity="0.5" d="M82.8554 44.4377C86.1869 44.4377 88.8876 41.4768 88.8876 37.8244C88.8876 34.1718 86.1869 31.2109 82.8554 31.2109C79.5239 31.2109 76.8232 34.1718 76.8232 37.8244C76.8232 41.4768 79.5239 44.4377 82.8554 44.4377Z" fill="#F6F9FF"/>
<path fill-rule="evenodd" clip-rule="evenodd" d="M87.4159 44.7614C86.1334 45.7769 84.5581 46.3753 82.8553 46.3753C78.5488 46.3753 75.0576 42.5478 75.0576 37.8262C75.0576 33.1048 78.5488 29.2773 82.8553 29.2773C87.1619 29.2773 90.653 33.1048 90.653 37.8262C90.653 39.8083 90.038 41.6326 89.0054 43.0826L94.6887 49.7645C95.1043 50.2532 95.0801 51.0187 94.6343 51.4744C94.1885 51.9301 93.4904 51.9033 93.0747 51.4146L87.4159 44.7614ZM88.8875 37.8262C88.8875 41.4787 86.1868 44.4397 82.8553 44.4397C79.5239 44.4397 76.8231 41.4787 76.8231 37.8262C76.8231 34.1738 79.5239 31.2129 82.8553 31.2129C86.1868 31.2129 88.8875 34.1738 88.8875 37.8262Z" fill="#6C6F89"/>
</svg>
