<svg width="13" height="13" viewBox="0 0 13 13" fill="none" xmlns="http://www.w3.org/2000/svg">
<path d="M1.38428 12.9708C1.04567 12.9708 0.754714 12.8492 0.511422 12.6059C0.26813 12.3626 0.146484 12.0716 0.146484 11.733V1.26699C0.146484 0.925953 0.26813 0.632922 0.511422 0.387901C0.754714 0.142891 1.04567 0.0203857 1.38428 0.0203857H6.71444L10.5969 3.90285V6.24321H9.3503V4.70449H5.9128V1.26699H1.38428V11.733H5.9658V12.9708H1.38428ZM9.52964 8.49595L10.082 9.03943L7.69609 11.4354V12.1868H8.44589L10.8347 9.79214L11.3958 10.3533L8.76064 12.9708H6.9033V11.1135L9.52964 8.49595ZM11.3958 10.3533L9.52964 8.49595L10.4916 7.53398C10.6148 7.40491 10.7595 7.34037 10.9257 7.34037C11.0919 7.34037 11.2366 7.40491 11.3598 7.53398L12.349 8.51428C12.4721 8.63747 12.5337 8.78218 12.5337 8.94839C12.5337 9.1146 12.4721 9.26225 12.349 9.39134L11.3958 10.3533Z" fill="#F6F9FF"/>
</svg>
