<svg width="21" height="21" viewBox="0 0 21 21" fill="none" xmlns="http://www.w3.org/2000/svg">
<path d="M6.9781 15.5531H14.0219V14.1094H6.9781V15.5531ZM6.9781 11.8344H14.0219V10.3906H6.9781V11.8344ZM4.92185 19.5562C4.45518 19.5562 4.0505 19.3849 3.70779 19.0422C3.36508 18.6995 3.19373 18.2948 3.19373 17.8281V3.17187C3.19373 2.69062 3.36508 2.27865 3.70779 1.93594C4.0505 1.59323 4.45518 1.42188 4.92185 1.42188H12.8406L17.8281 6.40937V17.8281C17.8281 18.2948 17.6567 18.6995 17.314 19.0422C16.9713 19.3849 16.5594 19.5562 16.0781 19.5562H4.92185ZM11.9437 7.24062V3.17187H4.92185V17.8281H16.0781V7.24062H11.9437Z"/>
</svg>
