<svg width="30" height="27" viewBox="0 0 30 27"  xmlns="http://www.w3.org/2000/svg">
<path d="M16.3504 13.9449C18.1263 12.6434 19.5154 11.2652 20.5178 9.81009C21.5202 8.35503 22.0214 6.92025 22.0214 5.50576C22.0214 4.64778 21.869 3.96324 21.5641 3.45212C21.2593 2.94101 20.8528 2.68546 20.3446 2.68546C19.191 2.68546 18.1917 3.55768 17.3468 5.30212C16.5018 7.04657 16.0794 9.09608 16.0794 11.4507C16.0794 11.9077 16.0992 12.3424 16.1388 12.755C16.1784 13.1675 16.249 13.5642 16.3504 13.9449ZM1.54748 26.471V23.9623H4.05621V26.471H1.54748ZM7.16055 26.471V23.9623H9.66925V26.471H7.16055ZM12.7547 26.471V23.9623H15.2634V26.471H12.7547ZM18.3678 26.471V23.9623H20.8765V26.471H18.3678ZM23.9808 26.471V23.9623H26.4895V26.471H23.9808ZM1.93445 20.8348L0.195312 19.0768L2.32865 16.9434L0.195312 14.8101L1.93445 13.0521L4.06778 15.1855L6.20111 13.0521L7.95911 14.8101L5.82578 16.9434L7.95911 19.0768L6.20111 20.8348L4.06778 18.7014L1.93445 20.8348ZM18.9765 19.8609C18.2026 19.8609 17.5072 19.6802 16.8903 19.3188C16.2734 18.9575 15.7335 18.4454 15.2707 17.7826C14.7277 18.1063 14.1649 18.4258 13.5823 18.7413C12.9997 19.0567 12.3924 19.3555 11.7605 19.6377L10.646 17.4319C11.2808 17.1246 11.8847 16.8181 12.4576 16.5123C13.0306 16.2065 13.59 15.8855 14.1359 15.5492C13.9427 14.9502 13.8001 14.3154 13.7083 13.6449C13.6166 12.9743 13.5707 12.268 13.5707 11.526C13.5707 8.33182 14.2093 5.64172 15.4866 3.45572C16.7639 1.26975 18.3833 0.176758 20.3446 0.176758C21.6161 0.176758 22.6316 0.669991 23.391 1.65646C24.1504 2.64295 24.5301 3.93426 24.5301 5.53039C24.5301 7.42315 23.9038 9.29971 22.6511 11.1601C21.3985 13.0205 19.6465 14.7516 17.3953 16.3536C17.6427 16.6801 17.9123 16.9282 18.204 17.0978C18.4958 17.2673 18.8161 17.3521 19.1649 17.3521C19.9553 17.3521 20.7246 17.0282 21.4729 16.3804C22.2212 15.7326 22.9383 14.7739 23.6243 13.5043L25.6461 14.484C25.5601 15.0869 25.5147 15.5572 25.5098 15.8949C25.505 16.2326 25.5045 16.7028 25.5084 17.3058C25.8195 17.0748 26.119 16.8379 26.4069 16.5949C26.6949 16.3519 26.963 16.0729 27.2113 15.7579L29.2069 16.7463C28.6011 17.7492 27.9555 18.519 27.27 19.0558C26.5845 19.5925 25.9026 19.8609 25.2243 19.8609C24.6659 19.8609 24.2043 19.6814 23.8395 19.3225C23.4748 18.9635 23.2528 18.4599 23.1736 17.8116C22.5292 18.485 21.8536 18.9949 21.1468 19.3413C20.44 19.6877 19.7166 19.8609 18.9765 19.8609Z" />
</svg>
