<svg width="24" height="28" viewBox="0 0 24 28" xmlns="http://www.w3.org/2000/svg">
<path d="M6.63288 21.7H17.3662V19.5H6.63288V21.7ZM6.63288 16.0333H17.3662V13.8333H6.63288V16.0333ZM3.49954 27.8C2.78843 27.8 2.17177 27.5388 1.64954 27.0166C1.12732 26.4944 0.866211 25.8777 0.866211 25.1666V2.83329C0.866211 2.09996 1.12732 1.47218 1.64954 0.949959C2.17177 0.427737 2.78843 0.166626 3.49954 0.166626H15.5662L23.1662 7.76663V25.1666C23.1662 25.8777 22.9051 26.4944 22.3829 27.0166C21.8607 27.5388 21.2329 27.8 20.4995 27.8H3.49954ZM14.1995 9.03329V2.83329H3.49954V25.1666H20.4995V9.03329H14.1995Z" />
</svg>
