<svg width="24" height="30" viewBox="0 0 24 30" xmlns="http://www.w3.org/2000/svg">
<path d="M3.5029 29.7667C2.77675 29.7667 2.1551 29.5082 1.63797 28.991C1.12086 28.4739 0.862305 27.8523 0.862305 27.1261V12.9986C0.862305 12.2673 1.12086 11.6412 1.63797 11.1204C2.1551 10.5996 2.77675 10.3391 3.5029 10.3391H5.45941V7.55368C5.45941 5.72181 6.09458 4.16432 7.36494 2.88121C8.63529 1.5981 10.18 0.956543 11.999 0.956543C13.818 0.956543 15.363 1.5981 16.6341 2.88121C17.9051 4.16432 18.5406 5.72181 18.5406 7.55368V10.3391H20.4971C21.2284 10.3391 21.8545 10.5996 22.3753 11.1204C22.8961 11.6412 23.1565 12.2673 23.1565 12.9986V27.1261C23.1565 27.8523 22.8961 28.4739 22.3753 28.991C21.8545 29.5082 21.2284 29.7667 20.4971 29.7667H3.5029ZM3.5029 27.1261H20.4971V12.9986H3.5029V27.1261ZM12.0056 22.629C12.713 22.629 13.3167 22.3842 13.8167 21.8946C14.3167 21.4051 14.5667 20.8165 14.5667 20.129C14.5667 19.4624 14.3148 18.8568 13.8111 18.3124C13.3073 17.7679 12.7018 17.4957 11.9944 17.4957C11.287 17.4957 10.6833 17.7679 10.1833 18.3124C9.68334 18.8568 9.43334 19.4679 9.43334 20.1457C9.43334 20.8235 9.68521 21.4068 10.1889 21.8957C10.6927 22.3846 11.2982 22.629 12.0056 22.629ZM8.10004 10.3391H15.9V7.55801C15.9 6.4477 15.5245 5.51312 14.7736 4.75428C14.0226 3.99543 13.1009 3.61601 12.0084 3.61601C10.9158 3.61601 9.99132 3.99543 9.23481 4.75428C8.47829 5.51312 8.10004 6.4477 8.10004 7.55801V10.3391Z" />
</svg>
