<svg width="128" height="149" viewBox="0 0 128 149" fill="none" xmlns="http://www.w3.org/2000/svg">
<path d="M47.4717 5.27869C48.6097 4.55815 50.0119 4.55815 51.1499 5.27869L61.806 12.0255C62.944 12.7461 63.645 14.0776 63.645 15.5188V29.0123C63.645 30.4535 62.944 31.785 61.806 32.5056L51.1499 39.2524C50.0119 39.9729 48.6097 39.9729 47.4717 39.2524L36.8156 32.5056C35.6776 31.785 34.9766 30.4535 34.9766 29.0123V15.5188C34.9766 14.0776 35.6776 12.7461 36.8156 12.0255L47.4717 5.27869Z" fill="#D6E2FF"/>
<path d="M108.455 55.1794C105.807 81.1559 88.0152 91.966 67.7013 91.966C47.6579 91.966 21.4757 80.9704 19.9341 65.0243C19.8928 64.5969 19.9296 64.1601 20.0604 63.755C23.2175 53.9754 43.1325 52.0745 58.2852 39.6903C72.0937 28.4048 77.9822 4.0332 87.5634 4.0332C98.1565 5.4853 109.632 32.9139 108.455 55.1794Z" fill="#D6E2FF"/>
<path fill-rule="evenodd" clip-rule="evenodd" d="M69.9821 37.3516C68.5195 37.3516 67.3339 38.6518 67.3339 40.2558V42.6759H41.1453C39.6828 42.6759 38.4971 43.9762 38.4971 45.5801V77.365C38.4971 78.9689 39.6828 80.2692 41.1453 80.2692H69.9821H85.8718C87.3344 80.2692 88.5201 78.9689 88.5201 77.365V45.5801V40.2558C88.5201 38.6518 87.3344 37.3516 85.8718 37.3516H69.9821Z" fill="#0033AD"/>
<path d="M77.9266 24.1211H45.2645C43.8019 24.1211 42.6162 25.4213 42.6162 27.0253V59.4555C42.6162 61.0595 43.8019 62.3597 45.2645 62.3597H77.9266C79.3892 62.3597 80.5748 61.0595 80.5748 59.4555V27.0253C80.5748 25.4213 79.3892 24.1211 77.9266 24.1211Z" fill="#F6F9FF"/>
<path fill-rule="evenodd" clip-rule="evenodd" d="M51.4861 33.1155C51.127 33.5092 51.127 34.1477 51.4861 34.5415C51.8452 34.9353 52.4274 34.9353 52.7865 34.5415L53.6969 33.5433L54.6072 34.5415C54.9663 34.9353 55.5485 34.9353 55.9076 34.5415C56.2667 34.1477 56.2667 33.5092 55.9076 33.1155L54.9973 32.1171L55.9075 31.1189C56.2667 30.7251 56.2667 30.0866 55.9075 29.6928C55.5485 29.299 54.9662 29.299 54.6072 29.6928L53.6969 30.691L52.7865 29.6928C52.4275 29.299 51.8452 29.299 51.4862 29.6928C51.127 30.0866 51.127 30.7251 51.4862 31.1189L52.3964 32.1171L51.4861 33.1155Z" fill="#0033AD"/>
<path fill-rule="evenodd" clip-rule="evenodd" d="M67.5964 33.1155C67.2374 33.5092 67.2374 34.1477 67.5964 34.5415C67.9556 34.9353 68.5378 34.9353 68.8969 34.5415L69.8072 33.5433L70.7175 34.5415C71.0766 34.9353 71.6588 34.9353 72.018 34.5415C72.377 34.1477 72.377 33.5092 72.018 33.1155L71.1076 32.1171L72.0179 31.1189C72.377 30.7251 72.377 30.0866 72.0179 29.6928C71.6588 29.299 71.0766 29.299 70.7175 29.6928L69.8072 30.691L68.8969 29.6928C68.5378 29.299 67.9556 29.299 67.5965 29.6928C67.2374 30.0866 67.2374 30.7251 67.5965 31.1189L68.5068 32.1171L67.5964 33.1155Z" fill="#0033AD"/>
<path d="M55.4902 43.1195L55.7017 42.8815C59.4193 38.6985 65.5802 38.8073 69.173 43.1195" stroke="#0033AD" stroke-width="2" stroke-linecap="round"/>
<path d="M33.8204 51.0155C33.5532 49.2461 34.7977 47.6367 36.4331 47.6367H81.59C82.8748 47.6367 83.9743 48.6479 84.1979 50.0354L88.5214 76.859C88.8081 78.6375 87.5606 80.2687 85.9136 80.2687H40.4846C39.189 80.2687 38.0835 79.2407 37.8718 77.839L33.8204 51.0155Z" fill="#5C8DFF"/>
<path opacity="0.5" d="M82.8554 44.45C86.1869 44.45 88.8876 41.4883 88.8876 37.8349C88.8876 34.1814 86.1869 31.2197 82.8554 31.2197C79.5239 31.2197 76.8232 34.1814 76.8232 37.8349C76.8232 41.4883 79.5239 44.45 82.8554 44.45Z" fill="#F6F9FF"/>
<path fill-rule="evenodd" clip-rule="evenodd" d="M87.4159 44.7724C86.1334 45.7882 84.5581 46.3867 82.8553 46.3867C78.5488 46.3867 75.0576 42.5582 75.0576 37.8354C75.0576 33.1127 78.5488 29.2842 82.8553 29.2842C87.1619 29.2842 90.653 33.1127 90.653 37.8354C90.653 39.818 90.038 41.6428 89.0054 43.0932L94.6887 49.7769C95.1043 50.2657 95.0801 51.0314 94.6343 51.4872C94.1885 51.943 93.4904 51.9162 93.0747 51.4274L87.4159 44.7724ZM88.8875 37.8354C88.8875 41.4888 86.1868 44.4506 82.8553 44.4506C79.5239 44.4506 76.8231 41.4888 76.8231 37.8354C76.8231 34.182 79.5239 31.2203 82.8553 31.2203C86.1868 31.2203 88.8875 34.182 88.8875 37.8354Z" fill="#6C6F89"/>
<path opacity="0.8" d="M34.9062 128.625V140H33.3906L27.6641 131.227V140H26.1562V128.625H27.6641L33.4141 137.422V128.625H34.9062ZM36.9766 135.867V135.688C36.9766 135.078 37.0651 134.513 37.2422 133.992C37.4193 133.466 37.6745 133.01 38.0078 132.625C38.3411 132.234 38.7448 131.932 39.2188 131.719C39.6927 131.5 40.224 131.391 40.8125 131.391C41.4062 131.391 41.9401 131.5 42.4141 131.719C42.8932 131.932 43.2995 132.234 43.6328 132.625C43.9714 133.01 44.2292 133.466 44.4062 133.992C44.5833 134.513 44.6719 135.078 44.6719 135.688V135.867C44.6719 136.477 44.5833 137.042 44.4062 137.562C44.2292 138.083 43.9714 138.539 43.6328 138.93C43.2995 139.315 42.8958 139.617 42.4219 139.836C41.9531 140.049 41.4219 140.156 40.8281 140.156C40.2344 140.156 39.7005 140.049 39.2266 139.836C38.7526 139.617 38.3464 139.315 38.0078 138.93C37.6745 138.539 37.4193 138.083 37.2422 137.562C37.0651 137.042 36.9766 136.477 36.9766 135.867ZM38.4219 135.688V135.867C38.4219 136.289 38.4714 136.688 38.5703 137.062C38.6693 137.432 38.8177 137.76 39.0156 138.047C39.2188 138.333 39.4714 138.56 39.7734 138.727C40.0755 138.888 40.4271 138.969 40.8281 138.969C41.224 138.969 41.5703 138.888 41.8672 138.727C42.1693 138.56 42.4193 138.333 42.6172 138.047C42.8151 137.76 42.9635 137.432 43.0625 137.062C43.1667 136.688 43.2188 136.289 43.2188 135.867V135.688C43.2188 135.271 43.1667 134.878 43.0625 134.508C42.9635 134.133 42.8125 133.802 42.6094 133.516C42.4115 133.224 42.1615 132.995 41.8594 132.828C41.5625 132.661 41.2135 132.578 40.8125 132.578C40.4167 132.578 40.0677 132.661 39.7656 132.828C39.4688 132.995 39.2188 133.224 39.0156 133.516C38.8177 133.802 38.6693 134.133 38.5703 134.508C38.4714 134.878 38.4219 135.271 38.4219 135.688ZM51.8984 132.875V140H50.4531V131.547H51.8594L51.8984 132.875ZM54.5391 131.5L54.5312 132.844C54.4115 132.818 54.2969 132.802 54.1875 132.797C54.0833 132.786 53.9635 132.781 53.8281 132.781C53.4948 132.781 53.2005 132.833 52.9453 132.938C52.6901 133.042 52.474 133.188 52.2969 133.375C52.1198 133.562 51.9792 133.786 51.875 134.047C51.776 134.302 51.7109 134.583 51.6797 134.891L51.2734 135.125C51.2734 134.615 51.3229 134.135 51.4219 133.688C51.526 133.24 51.6849 132.844 51.8984 132.5C52.112 132.151 52.3828 131.88 52.7109 131.688C53.0443 131.49 53.4401 131.391 53.8984 131.391C54.0026 131.391 54.1224 131.404 54.2578 131.43C54.3932 131.451 54.487 131.474 54.5391 131.5ZM59.2266 140.156C58.638 140.156 58.1042 140.057 57.625 139.859C57.151 139.656 56.7422 139.372 56.3984 139.008C56.0599 138.643 55.7995 138.211 55.6172 137.711C55.4349 137.211 55.3438 136.664 55.3438 136.07V135.742C55.3438 135.055 55.4453 134.443 55.6484 133.906C55.8516 133.365 56.1276 132.906 56.4766 132.531C56.8255 132.156 57.2214 131.872 57.6641 131.68C58.1068 131.487 58.5651 131.391 59.0391 131.391C59.6432 131.391 60.1641 131.495 60.6016 131.703C61.0443 131.911 61.4062 132.203 61.6875 132.578C61.9688 132.948 62.1771 133.385 62.3125 133.891C62.4479 134.391 62.5156 134.938 62.5156 135.531V136.18H56.2031V135H61.0703V134.891C61.0495 134.516 60.9714 134.151 60.8359 133.797C60.7057 133.443 60.4974 133.151 60.2109 132.922C59.9245 132.693 59.5339 132.578 59.0391 132.578C58.7109 132.578 58.4089 132.648 58.1328 132.789C57.8568 132.924 57.6198 133.128 57.4219 133.398C57.224 133.669 57.0703 134 56.9609 134.391C56.8516 134.781 56.7969 135.232 56.7969 135.742V136.07C56.7969 136.471 56.8516 136.849 56.9609 137.203C57.0755 137.552 57.2396 137.859 57.4531 138.125C57.6719 138.391 57.9349 138.599 58.2422 138.75C58.5547 138.901 58.9089 138.977 59.3047 138.977C59.8151 138.977 60.2474 138.872 60.6016 138.664C60.9557 138.456 61.2656 138.177 61.5312 137.828L62.4062 138.523C62.224 138.799 61.9922 139.062 61.7109 139.312C61.4297 139.562 61.0833 139.766 60.6719 139.922C60.2656 140.078 59.7839 140.156 59.2266 140.156ZM67.5859 138.969C67.9297 138.969 68.2474 138.898 68.5391 138.758C68.8307 138.617 69.0703 138.424 69.2578 138.18C69.4453 137.93 69.5521 137.646 69.5781 137.328H70.9531C70.9271 137.828 70.7578 138.294 70.4453 138.727C70.138 139.154 69.7344 139.5 69.2344 139.766C68.7344 140.026 68.1849 140.156 67.5859 140.156C66.9505 140.156 66.3958 140.044 65.9219 139.82C65.4531 139.596 65.0625 139.289 64.75 138.898C64.4427 138.508 64.2109 138.06 64.0547 137.555C63.9036 137.044 63.8281 136.505 63.8281 135.938V135.609C63.8281 135.042 63.9036 134.505 64.0547 134C64.2109 133.49 64.4427 133.039 64.75 132.648C65.0625 132.258 65.4531 131.951 65.9219 131.727C66.3958 131.503 66.9505 131.391 67.5859 131.391C68.2474 131.391 68.8255 131.526 69.3203 131.797C69.8151 132.062 70.2031 132.427 70.4844 132.891C70.7708 133.349 70.9271 133.87 70.9531 134.453H69.5781C69.5521 134.104 69.4531 133.789 69.2812 133.508C69.1146 133.227 68.8854 133.003 68.5938 132.836C68.3073 132.664 67.9714 132.578 67.5859 132.578C67.1432 132.578 66.7708 132.667 66.4688 132.844C66.1719 133.016 65.9349 133.25 65.7578 133.547C65.5859 133.839 65.4609 134.164 65.3828 134.523C65.3099 134.878 65.2734 135.24 65.2734 135.609V135.938C65.2734 136.307 65.3099 136.672 65.3828 137.031C65.4557 137.391 65.5781 137.716 65.75 138.008C65.9271 138.299 66.1641 138.534 66.4609 138.711C66.763 138.883 67.138 138.969 67.5859 138.969ZM72.1953 135.867V135.688C72.1953 135.078 72.2839 134.513 72.4609 133.992C72.638 133.466 72.8932 133.01 73.2266 132.625C73.5599 132.234 73.9635 131.932 74.4375 131.719C74.9115 131.5 75.4427 131.391 76.0312 131.391C76.625 131.391 77.1589 131.5 77.6328 131.719C78.112 131.932 78.5182 132.234 78.8516 132.625C79.1901 133.01 79.4479 133.466 79.625 133.992C79.8021 134.513 79.8906 135.078 79.8906 135.688V135.867C79.8906 136.477 79.8021 137.042 79.625 137.562C79.4479 138.083 79.1901 138.539 78.8516 138.93C78.5182 139.315 78.1146 139.617 77.6406 139.836C77.1719 140.049 76.6406 140.156 76.0469 140.156C75.4531 140.156 74.9193 140.049 74.4453 139.836C73.9714 139.617 73.5651 139.315 73.2266 138.93C72.8932 138.539 72.638 138.083 72.4609 137.562C72.2839 137.042 72.1953 136.477 72.1953 135.867ZM73.6406 135.688V135.867C73.6406 136.289 73.6901 136.688 73.7891 137.062C73.888 137.432 74.0365 137.76 74.2344 138.047C74.4375 138.333 74.6901 138.56 74.9922 138.727C75.2943 138.888 75.6458 138.969 76.0469 138.969C76.4427 138.969 76.7891 138.888 77.0859 138.727C77.388 138.56 77.638 138.333 77.8359 138.047C78.0339 137.76 78.1823 137.432 78.2812 137.062C78.3854 136.688 78.4375 136.289 78.4375 135.867V135.688C78.4375 135.271 78.3854 134.878 78.2812 134.508C78.1823 134.133 78.0312 133.802 77.8281 133.516C77.6302 133.224 77.3802 132.995 77.0781 132.828C76.7812 132.661 76.4323 132.578 76.0312 132.578C75.6354 132.578 75.2865 132.661 74.9844 132.828C74.6875 132.995 74.4375 133.224 74.2344 133.516C74.0365 133.802 73.888 134.133 73.7891 134.508C73.6901 134.878 73.6406 135.271 73.6406 135.688ZM83.1484 132.875V140H81.7031V131.547H83.1094L83.1484 132.875ZM85.7891 131.5L85.7812 132.844C85.6615 132.818 85.5469 132.802 85.4375 132.797C85.3333 132.786 85.2135 132.781 85.0781 132.781C84.7448 132.781 84.4505 132.833 84.1953 132.938C83.9401 133.042 83.724 133.188 83.5469 133.375C83.3698 133.562 83.2292 133.786 83.125 134.047C83.026 134.302 82.9609 134.583 82.9297 134.891L82.5234 135.125C82.5234 134.615 82.5729 134.135 82.6719 133.688C82.776 133.24 82.9349 132.844 83.1484 132.5C83.362 132.151 83.6328 131.88 83.9609 131.688C84.2943 131.49 84.6901 131.391 85.1484 131.391C85.2526 131.391 85.3724 131.404 85.5078 131.43C85.6432 131.451 85.737 131.474 85.7891 131.5ZM92.2969 138.359V128H93.75V140H92.4219L92.2969 138.359ZM86.6094 135.867V135.703C86.6094 135.057 86.6875 134.471 86.8438 133.945C87.0052 133.414 87.2318 132.958 87.5234 132.578C87.8203 132.198 88.1719 131.906 88.5781 131.703C88.9896 131.495 89.4479 131.391 89.9531 131.391C90.4844 131.391 90.9479 131.484 91.3438 131.672C91.7448 131.854 92.0833 132.122 92.3594 132.477C92.6406 132.826 92.862 133.247 93.0234 133.742C93.1849 134.237 93.2969 134.797 93.3594 135.422V136.141C93.3021 136.76 93.1901 137.318 93.0234 137.812C92.862 138.307 92.6406 138.729 92.3594 139.078C92.0833 139.427 91.7448 139.695 91.3438 139.883C90.9427 140.065 90.474 140.156 89.9375 140.156C89.4427 140.156 88.9896 140.049 88.5781 139.836C88.1719 139.622 87.8203 139.323 87.5234 138.938C87.2318 138.552 87.0052 138.099 86.8438 137.578C86.6875 137.052 86.6094 136.482 86.6094 135.867ZM88.0625 135.703V135.867C88.0625 136.289 88.1042 136.685 88.1875 137.055C88.276 137.424 88.4115 137.75 88.5938 138.031C88.776 138.312 89.0078 138.534 89.2891 138.695C89.5703 138.852 89.9062 138.93 90.2969 138.93C90.776 138.93 91.1693 138.828 91.4766 138.625C91.7891 138.422 92.0391 138.154 92.2266 137.82C92.4141 137.487 92.5599 137.125 92.6641 136.734V134.852C92.6016 134.565 92.5104 134.289 92.3906 134.023C92.276 133.753 92.125 133.513 91.9375 133.305C91.7552 133.091 91.5286 132.922 91.2578 132.797C90.9922 132.672 90.6771 132.609 90.3125 132.609C89.9167 132.609 89.5755 132.693 89.2891 132.859C89.0078 133.021 88.776 133.245 88.5938 133.531C88.4115 133.812 88.276 134.141 88.1875 134.516C88.1042 134.885 88.0625 135.281 88.0625 135.703ZM100.922 137.758C100.922 137.549 100.875 137.357 100.781 137.18C100.693 136.997 100.508 136.833 100.227 136.688C99.9505 136.536 99.5339 136.406 98.9766 136.297C98.5078 136.198 98.0833 136.081 97.7031 135.945C97.3281 135.81 97.0078 135.646 96.7422 135.453C96.4818 135.26 96.2812 135.034 96.1406 134.773C96 134.513 95.9297 134.208 95.9297 133.859C95.9297 133.526 96.0026 133.211 96.1484 132.914C96.2995 132.617 96.5104 132.354 96.7812 132.125C97.0573 131.896 97.388 131.716 97.7734 131.586C98.1589 131.456 98.5885 131.391 99.0625 131.391C99.7396 131.391 100.318 131.51 100.797 131.75C101.276 131.99 101.643 132.31 101.898 132.711C102.154 133.107 102.281 133.547 102.281 134.031H100.836C100.836 133.797 100.766 133.57 100.625 133.352C100.49 133.128 100.289 132.943 100.023 132.797C99.763 132.651 99.4427 132.578 99.0625 132.578C98.6615 132.578 98.3359 132.641 98.0859 132.766C97.8411 132.885 97.6615 133.039 97.5469 133.227C97.4375 133.414 97.3828 133.612 97.3828 133.82C97.3828 133.977 97.4089 134.117 97.4609 134.242C97.5182 134.362 97.6172 134.474 97.7578 134.578C97.8984 134.677 98.0964 134.771 98.3516 134.859C98.6068 134.948 98.9323 135.036 99.3281 135.125C100.021 135.281 100.591 135.469 101.039 135.688C101.487 135.906 101.82 136.174 102.039 136.492C102.258 136.81 102.367 137.195 102.367 137.648C102.367 138.018 102.289 138.357 102.133 138.664C101.982 138.971 101.76 139.237 101.469 139.461C101.182 139.68 100.839 139.852 100.438 139.977C100.042 140.096 99.5964 140.156 99.1016 140.156C98.3568 140.156 97.7266 140.023 97.2109 139.758C96.6953 139.492 96.3047 139.148 96.0391 138.727C95.7734 138.305 95.6406 137.859 95.6406 137.391H97.0938C97.1146 137.786 97.2292 138.102 97.4375 138.336C97.6458 138.565 97.901 138.729 98.2031 138.828C98.5052 138.922 98.8047 138.969 99.1016 138.969C99.4974 138.969 99.8281 138.917 100.094 138.812C100.365 138.708 100.57 138.565 100.711 138.383C100.852 138.201 100.922 137.992 100.922 137.758Z" fill="#434656"/>
</svg>
