<svg xmlns="http://www.w3.org/2000/svg" width="128" height="149" fill="none"><path fill="#D6E2FF" d="M47.472 5.279a3.4 3.4 0 0 1 3.678 0l10.656 6.746c1.138.721 1.839 2.053 1.839 3.494v13.493c0 1.441-.701 2.773-1.839 3.494L51.15 39.252a3.4 3.4 0 0 1-3.678 0l-10.656-6.746c-1.138-.721-1.84-2.053-1.84-3.494V15.52c0-1.441.702-2.773 1.84-3.494z"/><path fill="#D6E2FF" d="M108.455 55.18c-2.648 25.976-20.44 36.786-40.754 36.786-20.043 0-46.225-10.996-47.767-26.942a3.2 3.2 0 0 1 .126-1.269c3.158-9.78 23.073-11.68 38.225-24.065C72.094 28.405 77.982 4.033 87.563 4.033c10.593 1.452 22.069 28.88 20.892 51.146"/><path fill="#0033AD" fill-rule="evenodd" d="M69.982 37.352c-1.463 0-2.648 1.3-2.648 2.904v2.42H41.145c-1.462 0-2.648 1.3-2.648 2.904v31.785c0 1.604 1.186 2.904 2.648 2.904h44.727c1.462 0 2.648-1.3 2.648-2.904V40.256c0-1.604-1.186-2.904-2.648-2.904z" clip-rule="evenodd"/><path fill="#F6F9FF" d="M77.927 24.121H45.264c-1.462 0-2.648 1.3-2.648 2.904v32.43c0 1.605 1.186 2.905 2.648 2.905h32.663c1.462 0 2.648-1.3 2.648-2.904v-32.43c0-1.605-1.186-2.905-2.648-2.905"/><path fill="#0033AD" fill-rule="evenodd" d="M51.486 33.116a1.08 1.08 0 0 0 0 1.425.863.863 0 0 0 1.3 0l.91-.998.911.999a.863.863 0 0 0 1.3 0c.36-.394.36-1.033 0-1.427l-.91-.998.91-.998c.36-.394.36-1.032 0-1.426a.863.863 0 0 0-1.3 0l-.91.998-.91-.998a.863.863 0 0 0-1.3 0 1.08 1.08 0 0 0 0 1.426l.91.998zM67.596 33.116a1.08 1.08 0 0 0 0 1.425.863.863 0 0 0 1.3 0l.911-.998.91.999a.863.863 0 0 0 1.301 0 1.08 1.08 0 0 0 0-1.427l-.91-.998.91-.998c.359-.394.359-1.032 0-1.426a.863.863 0 0 0-1.3 0l-.91.998-.911-.998a.863.863 0 0 0-1.3 0 1.08 1.08 0 0 0 0 1.426l.91.998z" clip-rule="evenodd"/><path stroke="#0033AD" stroke-linecap="round" stroke-width="2" d="m55.49 43.12.212-.238c3.717-4.183 9.878-4.075 13.471.238"/><path fill="#5C8DFF" d="M33.82 51.016c-.267-1.77.978-3.38 2.613-3.38H81.59c1.285 0 2.384 1.012 2.608 2.4l4.323 26.823c.287 1.779-.96 3.41-2.607 3.41h-45.43c-1.295 0-2.4-1.028-2.612-2.43z"/><path fill="#F6F9FF" d="M82.855 44.45c3.332 0 6.033-2.962 6.033-6.615s-2.701-6.615-6.033-6.615c-3.331 0-6.032 2.961-6.032 6.615 0 3.653 2.7 6.615 6.032 6.615" opacity=".5"/><path fill="#6C6F89" fill-rule="evenodd" d="M87.416 44.772c-1.283 1.016-2.858 1.615-4.56 1.615-4.307 0-7.798-3.829-7.798-8.552s3.49-8.55 7.797-8.55 7.798 3.828 7.798 8.55c0 1.983-.615 3.808-1.648 5.258l5.684 6.684a1.294 1.294 0 0 1-.055 1.71 1.036 1.036 0 0 1-1.56-.06zm1.472-6.937c0 3.654-2.701 6.616-6.033 6.616-3.331 0-6.032-2.962-6.032-6.616s2.7-6.615 6.032-6.615 6.032 2.962 6.032 6.615" clip-rule="evenodd"/><path fill="#434656" d="M34.906 128.625V140h-1.515l-5.727-8.773V140h-1.508v-11.375h1.508l5.75 8.797v-8.797zm2.07 7.242v-.179q.001-.915.266-1.696.266-.79.766-1.367a3.4 3.4 0 0 1 1.21-.906 3.76 3.76 0 0 1 1.594-.328q.891 0 1.602.328.72.32 1.219.906.507.578.773 1.367.266.781.266 1.696v.179q0 .915-.266 1.695a4.1 4.1 0 0 1-.773 1.368 3.55 3.55 0 0 1-1.211.906q-.703.32-1.594.32a3.9 3.9 0 0 1-1.601-.32 3.6 3.6 0 0 1-1.22-.906 4.1 4.1 0 0 1-.765-1.368 5.2 5.2 0 0 1-.265-1.695m1.446-.179v.179q0 .633.148 1.195.15.555.446.985.304.43.757.68a2.2 2.2 0 0 0 1.055.242q.593 0 1.04-.242a2.2 2.2 0 0 0 .75-.68q.296-.43.444-.985.157-.561.157-1.195v-.179q0-.625-.157-1.18a3 3 0 0 0-.453-.992 2.15 2.15 0 0 0-.75-.688q-.445-.25-1.047-.25-.593 0-1.046.25a2.25 2.25 0 0 0-.75.688 3.1 3.1 0 0 0-.446.992q-.148.555-.148 1.18m13.476-2.813V140h-1.445v-8.453h1.406zm2.641-1.375-.008 1.344a2 2 0 0 0-.343-.047 4 4 0 0 0-.36-.016q-.5 0-.883.157-.383.156-.648.437a2.1 2.1 0 0 0-.422.672 3.2 3.2 0 0 0-.195.844l-.407.234q0-.766.149-1.437.156-.672.476-1.188.321-.524.813-.812.5-.297 1.187-.297.157 0 .36.039.203.031.281.07m4.688 8.656a4.2 4.2 0 0 1-1.602-.297 3.6 3.6 0 0 1-1.227-.851 3.8 3.8 0 0 1-.78-1.297 4.8 4.8 0 0 1-.274-1.641v-.328q0-1.03.304-1.836.306-.812.829-1.375a3.5 3.5 0 0 1 1.187-.851 3.4 3.4 0 0 1 1.375-.289q.906 0 1.563.312.663.312 1.086.875.422.555.624 1.313.204.75.204 1.64v.649h-6.313V135h4.867v-.109a3.6 3.6 0 0 0-.234-1.094 1.97 1.97 0 0 0-.625-.875q-.43-.344-1.172-.344a1.96 1.96 0 0 0-1.617.82 3.1 3.1 0 0 0-.461.993q-.164.586-.164 1.351v.328q0 .602.164 1.133.172.523.492.922.328.399.79.625.468.227 1.062.227.765 0 1.297-.313.531-.312.93-.836l.874.695a4 4 0 0 1-.695.789q-.422.375-1.04.61-.608.234-1.444.234m8.359-1.187q.516 0 .953-.211.438-.212.719-.578a1.6 1.6 0 0 0 .32-.852h1.375q-.039.75-.508 1.399a3.47 3.47 0 0 1-2.86 1.429q-.952 0-1.663-.336a3.3 3.3 0 0 1-1.172-.922 4.1 4.1 0 0 1-.695-1.343 5.7 5.7 0 0 1-.227-1.617v-.329q0-.851.227-1.609.234-.765.695-1.352.469-.585 1.172-.921.711-.336 1.664-.336.992 0 1.734.406.742.398 1.164 1.094.43.687.47 1.562h-1.376a2.1 2.1 0 0 0-.297-.945 1.86 1.86 0 0 0-.687-.672 1.9 1.9 0 0 0-1.008-.258q-.664 0-1.117.266a1.96 1.96 0 0 0-.711.703 3.3 3.3 0 0 0-.375.976q-.11.532-.11 1.086v.329q0 .554.11 1.093.11.54.367.977.266.437.71.703.454.258 1.126.258m4.61-3.102v-.179q0-.915.265-1.696.265-.79.766-1.367a3.4 3.4 0 0 1 1.21-.906 3.76 3.76 0 0 1 1.594-.328q.891 0 1.602.328.718.32 1.219.906.507.578.773 1.367.266.781.266 1.696v.179q0 .915-.266 1.695a4.1 4.1 0 0 1-.773 1.368 3.55 3.55 0 0 1-1.211.906q-.704.32-1.594.32a3.9 3.9 0 0 1-1.602-.32 3.6 3.6 0 0 1-1.218-.906 4.1 4.1 0 0 1-.766-1.368 5.2 5.2 0 0 1-.266-1.695m1.445-.179v.179q0 .633.148 1.195.149.555.445.985.305.43.758.68a2.2 2.2 0 0 0 1.055.242q.594 0 1.039-.242a2.2 2.2 0 0 0 .75-.68 3.2 3.2 0 0 0 .445-.985q.156-.561.156-1.195v-.179q0-.625-.156-1.18a3 3 0 0 0-.453-.992 2.15 2.15 0 0 0-.75-.688q-.445-.25-1.047-.25-.594 0-1.047.25a2.25 2.25 0 0 0-.75.688 3.1 3.1 0 0 0-.445.992q-.148.555-.148 1.18m9.507-2.813V140h-1.445v-8.453h1.406zm2.641-1.375-.008 1.344a2 2 0 0 0-.344-.047 4 4 0 0 0-.359-.016q-.5 0-.883.157-.382.156-.648.437a2.1 2.1 0 0 0-.422.672 3.2 3.2 0 0 0-.195.844l-.407.234q0-.766.149-1.437.156-.672.476-1.188.321-.524.813-.812.5-.297 1.187-.297.157 0 .36.039.203.031.281.07m6.508 6.859V128h1.453v12h-1.328zm-5.688-2.492v-.164q0-.969.235-1.758.242-.797.68-1.367.445-.57 1.054-.875.618-.312 1.375-.312.797 0 1.39.281.602.273 1.016.805.423.523.664 1.265.243.743.336 1.68v.719a7.4 7.4 0 0 1-.336 1.671 4 4 0 0 1-.664 1.266 2.8 2.8 0 0 1-1.015.805q-.602.273-1.406.273-.742 0-1.36-.32a3.2 3.2 0 0 1-1.055-.898 4.4 4.4 0 0 1-.68-1.36 6 6 0 0 1-.234-1.711m1.454-.164v.164q0 .633.124 1.188.134.554.407.976t.695.664q.421.235 1.008.235.718 0 1.18-.305.468-.304.75-.805.28-.5.437-1.086v-1.882a4.2 4.2 0 0 0-.273-.829 2.6 2.6 0 0 0-.454-.718 1.95 1.95 0 0 0-.68-.508 2.2 2.2 0 0 0-.945-.188q-.593 0-1.023.25a2 2 0 0 0-.695.672q-.273.422-.406.985a5.4 5.4 0 0 0-.126 1.187m12.859 2.055q0-.313-.141-.578-.132-.274-.554-.492-.414-.228-1.25-.391a10 10 0 0 1-1.274-.352 3.8 3.8 0 0 1-.96-.492 2.1 2.1 0 0 1-.602-.68q-.211-.39-.211-.914 0-.5.218-.945.227-.445.633-.789.414-.344.992-.539t1.29-.195q1.016 0 1.734.359.718.36 1.101.961.383.594.383 1.32h-1.445q0-.352-.211-.679a1.55 1.55 0 0 0-.602-.555q-.39-.219-.96-.219-.602 0-.977.188a1.25 1.25 0 0 0-.54.461 1.16 1.16 0 0 0-.085 1.015q.086.18.297.336.21.149.594.281.382.133.976.266 1.04.234 1.711.563.672.327 1 .804t.328 1.156q0 .555-.234 1.016a2.26 2.26 0 0 1-.664.797 3.3 3.3 0 0 1-1.031.516 4.6 4.6 0 0 1-1.336.179q-1.117 0-1.891-.398-.773-.4-1.172-1.031a2.47 2.47 0 0 1-.398-1.336h1.453q.03.593.344.945.312.344.765.492.453.141.899.141.593 0 .992-.157.406-.156.617-.429a1 1 0 0 0 .211-.625" opacity=".8"/></svg>