<svg width="26" height="26" viewBox="0 0 26 26" fill="none" xmlns="http://www.w3.org/2000/svg">
<path d="M5.41675 19.5002H10.0101C10.1527 19.501 10.294 19.4737 10.426 19.4198C10.558 19.3659 10.678 19.2864 10.7792 19.186L18.2759 11.6785L21.3526 8.66685C21.4541 8.56614 21.5347 8.44632 21.5897 8.31431C21.6447 8.18229 21.673 8.0407 21.673 7.89768C21.673 7.75467 21.6447 7.61307 21.5897 7.48106C21.5347 7.34904 21.4541 7.22923 21.3526 7.12852L16.7592 2.48102C16.6585 2.37948 16.5387 2.29888 16.4067 2.24388C16.2747 2.18888 16.1331 2.16057 15.9901 2.16057C15.8471 2.16057 15.7055 2.18888 15.5735 2.24388C15.4414 2.29888 15.3216 2.37948 15.2209 2.48102L12.1659 5.54685L4.64758 13.0544C4.54718 13.1556 4.46774 13.2756 4.41383 13.4076C4.35992 13.5396 4.33259 13.6809 4.33341 13.8235V18.4169C4.33341 18.7042 4.44755 18.9797 4.65072 19.1829C4.85388 19.386 5.12943 19.5002 5.41675 19.5002ZM15.9901 4.77768L19.0559 7.84352L17.5176 9.38185L14.4517 6.31602L15.9901 4.77768ZM6.50008 14.2677L12.9242 7.84352L15.9901 10.9093L9.56592 17.3335H6.50008V14.2677ZM22.7501 21.6669H3.25008C2.96276 21.6669 2.68721 21.781 2.48405 21.9841C2.28088 22.1873 2.16675 22.4629 2.16675 22.7502C2.16675 23.0375 2.28088 23.3131 2.48405 23.5162C2.68721 23.7194 2.96276 23.8335 3.25008 23.8335H22.7501C23.0374 23.8335 23.313 23.7194 23.5161 23.5162C23.7193 23.3131 23.8334 23.0375 23.8334 22.7502C23.8334 22.4629 23.7193 22.1873 23.5161 21.9841C23.313 21.781 23.0374 21.6669 22.7501 21.6669Z" fill="#434656"/>
</svg>
