<svg width="11" height="14" viewBox="0 0 11 14" fill="none" xmlns="http://www.w3.org/2000/svg">
<path d="M1.51696 4.84646H7.32808V3.5428C7.32808 3.02234 7.15208 2.58426 6.80008 2.22855C6.44807 1.87284 6.01601 1.69499 5.50389 1.69499C4.99177 1.69499 4.5584 1.87284 4.20378 2.22855C3.84917 2.58426 3.67186 3.02167 3.67186 3.54077H2.43407C2.43407 2.68052 2.7318 1.95006 3.32728 1.34938C3.92276 0.748702 4.64684 0.448364 5.4995 0.448364C6.35217 0.448364 7.0764 0.749093 7.67219 1.35055C8.26798 1.95201 8.56588 2.68208 8.56588 3.54077V4.84646H9.48299C9.8258 4.84646 10.1193 4.96853 10.3634 5.21266C10.6075 5.45679 10.7296 5.75026 10.7296 6.09308V12.7154C10.7296 13.0557 10.6075 13.3471 10.3634 13.5895C10.1193 13.8319 9.8258 13.9531 9.48299 13.9531H1.51696C1.17657 13.9531 0.885175 13.8319 0.642769 13.5895C0.400373 13.3471 0.279175 13.0557 0.279175 12.7154V6.09308C0.279175 5.75026 0.400373 5.45679 0.642769 5.21266C0.885175 4.96853 1.17657 4.84646 1.51696 4.84646ZM1.51696 12.7154H9.48299V6.09308H1.51696V12.7154ZM5.5026 10.6073C5.83418 10.6073 6.11716 10.4926 6.35153 10.2631C6.58591 10.0336 6.7031 9.75774 6.7031 9.43547C6.7031 9.12297 6.58503 8.83912 6.34891 8.58391C6.11278 8.3287 5.82893 8.2011 5.49735 8.2011C5.16576 8.2011 4.88278 8.3287 4.64841 8.58391C4.41403 8.83912 4.29685 9.12558 4.29685 9.44329C4.29685 9.761 4.41491 10.0344 4.65103 10.2636C4.88716 10.4928 5.17101 10.6073 5.5026 10.6073Z" fill="#24262E"/>
</svg>
