<svg xmlns="http://www.w3.org/2000/svg" width="30" height="30" viewBox="0 0 30 30" fill="none">
<rect width="30" height="30" rx="15" fill="#E3E5E9"/>
<path d="M15 13.1665C14.6374 13.1665 14.2829 13.274 13.9815 13.4755C13.68 13.6769 13.445 13.9633 13.3062 14.2983C13.1675 14.6332 13.1312 15.0019 13.2019 15.3575C13.2726 15.7131 13.4472 16.0398 13.7036 16.2962C13.96 16.5526 14.2867 16.7272 14.6423 16.7979C14.998 16.8687 15.3666 16.8324 15.7016 16.6936C16.0366 16.5549 16.3229 16.3199 16.5244 16.0184C16.7258 15.7169 16.8333 15.3624 16.8333 14.9998C16.8333 14.5136 16.6402 14.0473 16.2964 13.7035C15.9525 13.3597 15.4862 13.1665 15 13.1665ZM8.58333 13.1665C8.22074 13.1665 7.86628 13.274 7.56479 13.4755C7.2633 13.6769 7.02832 13.9633 6.88956 14.2983C6.75079 14.6332 6.71449 15.0019 6.78523 15.3575C6.85597 15.7131 7.03058 16.0398 7.28697 16.2962C7.54337 16.5526 7.87004 16.7272 8.22567 16.7979C8.5813 16.8687 8.94992 16.8324 9.28492 16.6936C9.61992 16.5549 9.90625 16.3199 10.1077 16.0184C10.3091 15.7169 10.4167 15.3624 10.4167 14.9998C10.4167 14.5136 10.2235 14.0473 9.8797 13.7035C9.53588 13.3597 9.06956 13.1665 8.58333 13.1665ZM21.4167 13.1665C21.0541 13.1665 20.6996 13.274 20.3981 13.4755C20.0966 13.6769 19.8616 13.9633 19.7229 14.2983C19.5841 14.6332 19.5478 15.0019 19.6186 15.3575C19.6893 15.7131 19.8639 16.0398 20.1203 16.2962C20.3767 16.5526 20.7034 16.7272 21.059 16.7979C21.4146 16.8687 21.7833 16.8324 22.1183 16.6936C22.4533 16.5549 22.7396 16.3199 22.941 16.0184C23.1425 15.7169 23.25 15.3624 23.25 14.9998C23.25 14.5136 23.0568 14.0473 22.713 13.7035C22.3692 13.3597 21.9029 13.1665 21.4167 13.1665Z" fill="#667085"/>
</svg>
