<svg xmlns="http://www.w3.org/2000/svg" width="22" height="22" viewBox="0 0 22 22" fill="none">
  <path d="M10.9999 14.4375C12.0846 14.4375 13.0051 14.0594 13.7614 13.3031C14.5176 12.5469 14.8957 11.6264 14.8957 10.5417C14.8957 9.45697 14.5176 8.53648 13.7614 7.78023C13.0051 7.02398 12.0846 6.64586 10.9999 6.64586C9.91518 6.64586 8.99469 7.02398 8.23844 7.78023C7.48219 8.53648 7.10407 9.45697 7.10407 10.5417C7.10407 11.6264 7.48219 12.5469 8.23844 13.3031C8.99469 14.0594 9.91518 14.4375 10.9999 14.4375ZM10.9999 12.9021C10.343 12.9021 9.78532 12.6729 9.32699 12.2146C8.86865 11.7563 8.63949 11.1986 8.63949 10.5417C8.63949 9.88475 8.86865 9.32711 9.32699 8.86877C9.78532 8.41044 10.343 8.18127 10.9999 8.18127C11.6568 8.18127 12.2145 8.41044 12.6728 8.86877C13.1312 9.32711 13.3603 9.88475 13.3603 10.5417C13.3603 11.1986 13.1312 11.7563 12.6728 12.2146C12.2145 12.6729 11.6568 12.9021 10.9999 12.9021ZM10.9999 17.7146C8.69296 17.7146 6.61518 17.05 4.76657 15.7209C2.91796 14.3917 1.53532 12.6653 0.618652 10.5417C1.53532 8.41808 2.91796 6.69169 4.76657 5.36252C6.61518 4.03336 8.69296 3.36877 10.9999 3.36877C13.3068 3.36877 15.3846 4.03336 17.2332 5.36252C19.0818 6.69169 20.4645 8.41808 21.3812 10.5417C20.4645 12.6653 19.0818 14.3917 17.2332 15.7209C15.3846 17.05 13.3068 17.7146 10.9999 17.7146ZM10.9999 16.0417C12.8485 16.0417 14.5443 15.5413 16.0874 14.5406C17.6305 13.54 18.8068 12.207 19.6166 10.5417C18.8068 8.87641 17.6305 7.54343 16.0874 6.54273C14.5443 5.54204 12.8485 5.04169 10.9999 5.04169C9.15129 5.04169 7.45546 5.54204 5.9124 6.54273C4.36935 7.54343 3.18532 8.87641 2.36032 10.5417C3.18532 12.207 4.36935 13.54 5.9124 14.5406C7.45546 15.5413 9.15129 16.0417 10.9999 16.0417Z" fill="#0033AD"/>
</svg>