<svg width="24" height="24" viewBox="0 0 24 24" fill="none" xmlns="http://www.w3.org/2000/svg">
<path d="M2.08327 15.6167C2.36023 15.4792 2.68046 15.4572 2.9736 15.5557C3.26674 15.6541 3.5088 15.8649 3.64661 16.1417C4.38503 17.633 5.50872 18.8997 6.90128 19.8106C8.29384 20.7216 9.90462 21.2437 11.5668 21.3228C13.229 21.402 14.8821 21.0353 16.3549 20.2607C17.8277 19.4862 19.0666 18.332 19.9434 16.9177C20.8202 15.5033 21.3029 13.8803 21.3415 12.2167C21.3801 10.5531 20.9733 8.9094 20.1631 7.45589C19.3529 6.00239 18.1689 4.79192 16.7336 3.94987C15.2983 3.10782 13.664 2.6648 11.9999 2.66672C10.2603 2.65918 8.55379 3.14229 7.07625 4.06059C5.59871 4.9789 4.41002 6.29518 3.64661 7.85838C3.50737 8.13686 3.26321 8.34862 2.96784 8.44708C2.67247 8.54553 2.35008 8.52262 2.07161 8.38338C1.79313 8.24414 1.58137 7.99998 1.48291 7.70462C1.38446 7.40925 1.40737 7.08686 1.54661 6.80838C2.71723 4.45259 4.64967 2.56155 7.03026 1.44222C9.41086 0.322883 12.0999 0.0409478 14.6609 0.642173C17.2219 1.2434 19.5045 2.69249 21.1383 4.75426C22.7721 6.81602 23.6611 9.36943 23.6611 12.0001C23.6611 14.6307 22.7721 17.1841 21.1383 19.2458C19.5045 21.3076 17.2219 22.7567 14.6609 23.3579C12.0999 23.9592 9.41086 23.6772 7.03026 22.5579C4.64967 21.4385 2.71723 19.5475 1.54661 17.1917C1.47708 17.0533 1.43581 16.9025 1.4252 16.7479C1.41459 16.5934 1.43485 16.4383 1.48481 16.2917C1.53476 16.1451 1.61341 16.0099 1.71616 15.894C1.81891 15.7781 1.94371 15.6839 2.08327 15.6167ZM1.49994 10.8334H12.6883L10.0049 8.16172C9.89616 8.05294 9.80988 7.9238 9.75101 7.78167C9.69213 7.63955 9.66183 7.48722 9.66183 7.33338C9.66183 7.17955 9.69213 7.02722 9.75101 6.88509C9.80988 6.74297 9.89616 6.61383 10.0049 6.50505C10.1137 6.39627 10.2429 6.30998 10.385 6.25111C10.5271 6.19224 10.6794 6.16194 10.8333 6.16194C10.9871 6.16194 11.1394 6.19224 11.2816 6.25111C11.4237 6.30998 11.5528 6.39627 11.6616 6.50505L16.3283 11.1717C16.4345 11.2827 16.5177 11.4135 16.5733 11.5567C16.69 11.8408 16.69 12.1593 16.5733 12.4434C16.5177 12.5866 16.4345 12.7174 16.3283 12.8284L11.6616 17.495C11.5532 17.6044 11.4241 17.6912 11.2819 17.7504C11.1398 17.8097 10.9873 17.8401 10.8333 17.8401C10.6793 17.8401 10.5268 17.8097 10.3846 17.7504C10.2424 17.6912 10.1134 17.6044 10.0049 17.495C9.89559 17.3866 9.8088 17.2576 9.74957 17.1154C9.69034 16.9732 9.65984 16.8207 9.65984 16.6667C9.65984 16.5127 9.69034 16.3602 9.74957 16.218C9.8088 16.0759 9.89559 15.9468 10.0049 15.8384L12.6883 13.1667H1.49994C1.19052 13.1667 0.893774 13.0438 0.674982 12.825C0.45619 12.6062 0.333275 12.3095 0.333275 12.0001C0.333275 11.6906 0.45619 11.3939 0.674982 11.1751C0.893774 10.9563 1.19052 10.8334 1.49994 10.8334Z" fill="#434656"/>
</svg>
