<svg width="30" height="30" viewBox="0 0 30 30" fill="none" xmlns="http://www.w3.org/2000/svg">
<path d="M4.37501 18.875C4.67175 18.7276 5.01485 18.7041 5.32893 18.8096C5.64301 18.9151 5.90236 19.1409 6.05001 19.4375C6.84118 21.0353 8.04513 22.3925 9.53716 23.3685C11.0292 24.3445 12.755 24.9039 14.5359 24.9887C16.3168 25.0735 18.088 24.6806 19.666 23.8507C21.244 23.0209 22.5715 21.7842 23.5109 20.2689C24.4503 18.7535 24.9674 17.0145 25.0088 15.2321C25.0502 13.4497 24.6143 11.6886 23.7462 10.1313C22.8782 8.57394 21.6096 7.27701 20.0718 6.37481C18.534 5.47262 16.7829 4.99796 15 5.00001C13.1361 4.99194 11.3077 5.50955 9.72462 6.49345C8.14155 7.47735 6.86795 8.88765 6.05001 10.5625C5.90082 10.8609 5.63922 11.0878 5.32276 11.1933C5.00629 11.2987 4.66088 11.2742 4.36251 11.125C4.06414 10.9758 3.83725 10.7142 3.73176 10.3978C3.62628 10.0813 3.65082 9.73588 3.80001 9.43751C5.05425 6.91344 7.12471 4.88734 9.67535 3.68805C12.226 2.48876 15.1071 2.18669 17.851 2.83086C20.5949 3.47503 23.0406 5.02763 24.7911 7.23666C26.5416 9.44569 27.4941 12.1815 27.4941 15C27.4941 17.8185 26.5416 20.5543 24.7911 22.7634C23.0406 24.9724 20.5949 26.525 17.851 27.1692C15.1071 27.8133 12.226 27.5113 9.67535 26.312C7.12471 25.1127 5.05425 23.0866 3.80001 20.5625C3.72552 20.4142 3.6813 20.2526 3.66993 20.087C3.65856 19.9215 3.68027 19.7553 3.73379 19.5982C3.78732 19.4412 3.87158 19.2963 3.98167 19.1721C4.09176 19.048 4.22547 18.947 4.37501 18.875ZM3.75001 13.75H15.7375L12.8625 10.8875C12.746 10.771 12.6535 10.6326 12.5904 10.4803C12.5274 10.328 12.4949 10.1648 12.4949 10C12.4949 9.83519 12.5274 9.67198 12.5904 9.5197C12.6535 9.36742 12.746 9.22906 12.8625 9.11251C12.9791 8.99596 13.1174 8.90351 13.2697 8.84044C13.422 8.77736 13.5852 8.7449 13.75 8.7449C13.9148 8.7449 14.078 8.77736 14.2303 8.84044C14.3826 8.90351 14.521 8.99596 14.6375 9.11251L19.6375 14.1125C19.7513 14.2314 19.8405 14.3716 19.9 14.525C20.025 14.8293 20.025 15.1707 19.9 15.475C19.8405 15.6285 19.7513 15.7686 19.6375 15.8875L14.6375 20.8875C14.5213 21.0047 14.3831 21.0977 14.2307 21.1611C14.0784 21.2246 13.915 21.2573 13.75 21.2573C13.585 21.2573 13.4216 21.2246 13.2693 21.1611C13.117 21.0977 12.9787 21.0047 12.8625 20.8875C12.7453 20.7713 12.6524 20.6331 12.5889 20.4807C12.5254 20.3284 12.4928 20.165 12.4928 20C12.4928 19.835 12.5254 19.6716 12.5889 19.5193C12.6524 19.367 12.7453 19.2287 12.8625 19.1125L15.7375 16.25H3.75001C3.41849 16.25 3.10054 16.1183 2.86612 15.8839C2.6317 15.6495 2.50001 15.3315 2.50001 15C2.50001 14.6685 2.6317 14.3505 2.86612 14.1161C3.10054 13.8817 3.41849 13.75 3.75001 13.75Z" fill="white"/>
</svg>
