<svg width="80" height="80" viewBox="0 0 80 80" fill="none" xmlns="http://www.w3.org/2000/svg">
  <path
    d="M44.75 3.31976L69.391 17.5463C72.3303 19.2433 74.141 22.3795 74.141 25.7735V54.2265C74.141 57.6205 72.3303 60.7567 69.391 62.4537L44.75 76.6802C41.8107 78.3773 38.1893 78.3773 35.25 76.6802L10.609 62.4537C7.66967 60.7567 5.85898 57.6205 5.85898 54.2265V25.7735C5.85898 22.3795 7.66967 19.2433 10.609 17.5463L35.25 3.31976C38.1893 1.62275 41.8107 1.62275 44.75 3.31976Z"
    stroke="#6C6F89" />
  <path
    d="M36.5999 40.1333C31.6007 40.1333 27.5332 36.0658 27.5332 31.0667C27.5332 26.0675 31.6007 22 36.5999 22C41.599 22 45.6665 26.0675 45.6665 31.0667C45.6665 36.0658 41.599 40.1333 36.5999 40.1333ZM36.5999 24.2667C32.8497 24.2667 29.7999 27.3165 29.7999 31.0667C29.7999 34.8169 32.8497 37.8667 36.5999 37.8667C40.3501 37.8667 43.3999 34.8169 43.3999 31.0667C43.3999 27.3165 40.3501 24.2667 36.5999 24.2667Z"
    fill="currentColor" stroke="currentColor" stroke-width="0.5" />
  <path
    d="M48.5 55.9995H23V51.4662C23 43.9669 29.1007 37.8662 36.6 37.8662C39.6215 37.8662 42.4786 38.8329 44.8609 40.661L46.0667 41.5881L44.8337 42.4789C43.2266 43.6405 42.2667 45.5173 42.2667 47.4995C42.2667 50.9369 45.0637 53.7329 48.5 53.7329V55.9995ZM25.2667 53.7329H42.7268C41.0506 52.1791 40 49.96 40 47.4995C40 45.3213 40.8477 43.2359 42.3233 41.6787C40.5984 40.6633 38.6457 40.1329 36.6 40.1329C30.3508 40.1329 25.2667 45.217 25.2667 51.4662V53.7329Z"
    fill="currentColor" stroke="currentColor" stroke-width="0.5" />
  <path
    d="M49.0667 55.9998H48.5V53.7331H48.5997C48.6235 53.7331 48.6473 53.732 48.6711 53.7286L48.8015 53.7139L48.9307 53.7297C48.9431 53.732 48.9533 53.7331 48.9647 53.7331H49.0667V55.9998Z"
    fill="currentColor" stroke="currentColor" stroke-width="0.5" />
  <path
    d="M48.5 56C43.8125 56 40 52.1875 40 47.5C40 44.7925 41.3101 42.2289 43.5065 40.6422L43.6051 40.5708C45.0955 39.5213 46.7592 39 48.5 39C53.1875 39 57 42.8125 57 47.5C57 52.0877 53.4141 55.8164 48.8366 55.9887C48.772 55.9977 48.6439 56 48.5 56ZM44.1865 41.5477L44.8711 42.4521C43.2266 43.641 42.2667 45.5178 42.2667 47.5C42.2667 50.9374 45.0637 53.7333 48.5 53.7333C48.5612 53.7333 48.6133 53.7333 48.6711 53.7288C52.1063 53.5973 54.7333 50.8637 54.7333 47.5C54.7333 44.0626 51.9363 41.2667 48.5 41.2667C47.2284 41.2667 46.0157 41.6463 44.9912 42.3637L44.1865 41.5477Z"
    fill="currentColor" stroke="currentColor" stroke-width="0.5" />
  <path
    d="M47.7383 47.8721L46.1357 46.2695L44.5332 47.8721L46.1357 49.4757L46.937 50.277L47.7383 51.0783L52.547 46.2695L50.9445 44.667L47.7383 47.8721Z"
    fill="currentColor" stroke="currentColor" stroke-width="0.5" />
</svg>