<svg width="23" height="17" viewBox="0 0 23 17" fill="none" xmlns="http://www.w3.org/2000/svg">
<path d="M11.7874 8.71067C12.2988 8.26805 12.7089 7.7206 12.99 7.10548C13.2711 6.49037 13.4166 5.82198 13.4166 5.14567C13.4166 3.87484 12.9117 2.65606 12.0131 1.75745C11.1145 0.858839 9.89575 0.354004 8.62492 0.354004C7.35409 0.354004 6.13531 0.858839 5.2367 1.75745C4.33809 2.65606 3.83325 3.87484 3.83325 5.14567C3.83324 5.82198 3.97873 6.49037 4.25983 7.10548C4.54093 7.7206 4.95107 8.26805 5.46242 8.71067C4.12089 9.31814 2.9827 10.2991 2.18394 11.5364C1.38518 12.7736 0.959662 14.2147 0.958252 15.6873C0.958252 15.9415 1.05922 16.1853 1.23894 16.365C1.41866 16.5447 1.66242 16.6457 1.91659 16.6457C2.17075 16.6457 2.41451 16.5447 2.59423 16.365C2.77395 16.1853 2.87492 15.9415 2.87492 15.6873C2.87492 14.1623 3.48072 12.6998 4.55905 11.6215C5.63739 10.5431 7.09992 9.93734 8.62492 9.93734C10.1499 9.93734 11.6124 10.5431 12.6908 11.6215C13.7691 12.6998 14.3749 14.1623 14.3749 15.6873C14.3749 15.9415 14.4759 16.1853 14.6556 16.365C14.8353 16.5447 15.0791 16.6457 15.3333 16.6457C15.5874 16.6457 15.8312 16.5447 16.0109 16.365C16.1906 16.1853 16.2916 15.9415 16.2916 15.6873C16.2902 14.2147 15.8647 12.7736 15.0659 11.5364C14.2671 10.2991 13.129 9.31814 11.7874 8.71067ZM8.62492 8.02067C8.0563 8.02067 7.50045 7.85206 7.02765 7.53615C6.55486 7.22024 6.18637 6.77122 5.96877 6.24589C5.75116 5.72055 5.69423 5.14248 5.80516 4.58479C5.91609 4.02709 6.18991 3.51482 6.59199 3.11274C6.99406 2.71066 7.50634 2.43685 8.06403 2.32591C8.62173 2.21498 9.1998 2.27192 9.72513 2.48952C10.2505 2.70712 10.6995 3.07562 11.0154 3.54841C11.3313 4.0212 11.4999 4.57705 11.4999 5.14567C11.4999 5.90817 11.197 6.63944 10.6579 7.1786C10.1187 7.71777 9.38742 8.02067 8.62492 8.02067ZM17.9591 8.32734C18.5724 7.6367 18.973 6.78352 19.1127 5.8705C19.2524 4.95748 19.1253 4.02353 18.7466 3.18109C18.3679 2.33864 17.7538 1.6236 16.9782 1.12203C16.2026 0.620469 15.2986 0.353757 14.3749 0.354004C14.1208 0.354004 13.877 0.454971 13.6973 0.634693C13.5176 0.814416 13.4166 1.05817 13.4166 1.31234C13.4166 1.5665 13.5176 1.81026 13.6973 1.98998C13.877 2.1697 14.1208 2.27067 14.3749 2.27067C15.1374 2.27067 15.8687 2.57357 16.4079 3.11274C16.947 3.65191 17.2499 4.38317 17.2499 5.14567C17.2486 5.64903 17.1151 6.1432 16.8628 6.57878C16.6105 7.01436 16.2483 7.37608 15.8124 7.62775C15.6703 7.70971 15.5517 7.82677 15.4678 7.96771C15.3839 8.10866 15.3376 8.26878 15.3333 8.43276C15.3292 8.59544 15.3667 8.75648 15.4422 8.90067C15.5176 9.04486 15.6286 9.16746 15.7645 9.25692L16.1383 9.50609L16.2628 9.57317C17.418 10.1211 18.3925 10.9877 19.0717 12.0709C19.7508 13.1541 20.1063 14.4089 20.0962 15.6873C20.0962 15.9415 20.1971 16.1853 20.3769 16.365C20.5566 16.5447 20.8003 16.6457 21.0545 16.6457C21.3087 16.6457 21.5524 16.5447 21.7321 16.365C21.9119 16.1853 22.0128 15.9415 22.0128 15.6873C22.0207 14.2167 21.6523 12.7685 20.9428 11.4803C20.2333 10.1921 19.2062 9.10676 17.9591 8.32734Z"/>
</svg>
