<svg width="13" height="12" viewBox="0 0 13 12" fill="none" xmlns="http://www.w3.org/2000/svg">
<path d="M11.75 5.25H7.25V0.75C7.25 0.551088 7.17098 0.360322 7.03033 0.21967C6.88968 0.0790178 6.69891 0 6.5 0C6.30109 0 6.11032 0.0790178 5.96967 0.21967C5.82902 0.360322 5.75 0.551088 5.75 0.75V5.25H1.25C1.05109 5.25 0.860322 5.32902 0.71967 5.46967C0.579018 5.61032 0.5 5.80109 0.5 6C0.5 6.19891 0.579018 6.38968 0.71967 6.53033C0.860322 6.67098 1.05109 6.75 1.25 6.75H5.75V11.25C5.75 11.4489 5.82902 11.6397 5.96967 11.7803C6.11032 11.921 6.30109 12 6.5 12C6.69891 12 6.88968 11.921 7.03033 11.7803C7.17098 11.6397 7.25 11.4489 7.25 11.25V6.75H11.75C11.9489 6.75 12.1397 6.67098 12.2803 6.53033C12.421 6.38968 12.5 6.19891 12.5 6C12.5 5.80109 12.421 5.61032 12.2803 5.46967C12.1397 5.32902 11.9489 5.25 11.75 5.25Z" fill="white"/>
</svg>
