<svg width="30" height="34" viewBox="0 0 30 34" fill="none" xmlns="http://www.w3.org/2000/svg">
<path d="M0.000725881 31.4712C0.000725881 22.9486 0.000725881 14.426 0.000725881 5.90346C0.140821 5.30388 0.41593 4.78851 0.863798 4.35007C1.88947 3.34618 2.90207 2.3285 3.90742 1.30283C4.44602 0.753334 5.08262 0.499276 5.84987 0.500002C11.6758 0.505809 17.5024 0.502179 23.3284 0.506534C23.5795 0.506534 23.8387 0.525407 24.0804 0.587107C25.1844 0.871653 25.8276 1.78917 25.8283 3.06454C25.8297 8.19216 25.829 13.3205 25.8283 18.4481C25.8283 18.5635 25.8174 18.6782 25.8094 18.8329C25.7122 18.7791 25.6497 18.7508 25.5938 18.7131C25.1256 18.4039 24.8135 18.4031 24.3729 18.7421C22.9233 19.8556 21.3032 20.5844 19.5073 20.9306C18.8061 21.0657 18.608 21.3248 18.608 22.0536C18.608 23.779 18.608 25.5044 18.608 27.2298C18.608 30.023 19.887 32.004 22.3992 33.2031C22.5691 33.2844 22.723 33.4006 22.8841 33.5H2.24515C2.16458 33.4782 2.08546 33.4499 2.00343 33.4369C1.23763 33.3156 0.664181 32.9149 0.298337 32.2362C0.169856 31.9974 0.0979939 31.7281 0 31.4719L0.000725881 31.4712ZM12.9258 12.5729C10.6574 12.5729 8.38828 12.5721 6.1199 12.5729C5.50436 12.5729 5.09859 12.9242 5.09568 13.4512C5.09278 13.9782 5.49492 14.3288 6.11192 14.336C6.19612 14.3367 6.28105 14.336 6.36525 14.336C10.6973 14.336 15.0294 14.336 19.3622 14.336C19.5676 14.336 19.773 14.3433 19.977 14.3273C20.3341 14.299 20.5838 14.1095 20.7174 13.7764C20.9627 13.1659 20.5185 12.5743 19.8049 12.5736C17.5119 12.57 15.2195 12.5721 12.9265 12.5721L12.9258 12.5729ZM9.9736 20.2353C11.3005 20.2353 12.6274 20.2396 13.9543 20.2331C14.5046 20.2302 14.9002 19.844 14.8951 19.3417C14.8907 18.8532 14.5104 18.4902 13.9747 18.4663C13.8781 18.4619 13.7816 18.4648 13.685 18.4648C11.2969 18.4648 8.90801 18.4648 6.51986 18.4648C6.29121 18.4648 6.05965 18.4539 5.83391 18.4837C5.34757 18.5483 5.01293 18.9976 5.08189 19.4651C5.15158 19.9376 5.52178 20.2324 6.06474 20.2338C7.36769 20.2367 8.67065 20.2345 9.97288 20.2345L9.9736 20.2353ZM9.9736 24.3546C8.67065 24.3546 7.36842 24.3525 6.06546 24.3554C5.47024 24.3568 5.07972 24.7038 5.07463 25.2228C5.06955 25.7483 5.47822 26.1098 6.08579 26.1105C8.67936 26.1113 11.2722 26.1113 13.8658 26.1105C14.4864 26.1105 14.8864 25.7694 14.8936 25.2395C14.9002 24.7125 14.4973 24.3568 13.8825 24.3554C12.5795 24.3532 11.2773 24.3546 9.97433 24.3546H9.9736ZM12.9236 6.69104C11.8137 6.69104 10.7046 6.68959 9.59469 6.69104C9.00383 6.69249 8.61693 7.04454 8.61984 7.56936C8.62347 8.09054 9.01399 8.43896 9.60558 8.43969C11.8246 8.44114 14.0436 8.44114 16.2634 8.43969C16.8521 8.43969 17.2382 8.08546 17.236 7.55847C17.2331 7.03075 16.8528 6.69249 16.2525 6.69104C15.1426 6.68886 14.0335 6.69104 12.9236 6.69104Z" fill="#98A2B3"/>
<path d="M20.3531 22.6142C21.0775 22.3885 21.794 22.236 22.4473 21.9428C23.2566 21.5799 24.0166 21.1066 24.7897 20.6667C24.945 20.5781 25.0525 20.4932 25.2332 20.6239C26.5405 21.5675 27.9778 22.2215 29.5624 22.5424C29.5965 22.5489 29.627 22.5721 29.6313 22.575C29.6313 24.3876 29.7119 26.1885 29.6066 27.9785C29.5181 29.4709 28.6695 30.5946 27.3571 31.3139C26.6509 31.7008 25.9039 32.0166 25.1686 32.349C25.0677 32.3948 24.908 32.3831 24.8035 32.3367C24.1328 32.0369 23.4548 31.7473 22.8066 31.4032C21.2343 30.5692 20.4017 29.2401 20.3611 27.4631C20.3241 25.8473 20.3531 24.23 20.3531 22.615V22.6142Z" fill="#0052CC"/>
</svg>
