<svg width="32" height="35" viewBox="0 0 32 35" fill="none" xmlns="http://www.w3.org/2000/svg">
<g clip-path="url(#clip0_24112_145758)">
<path d="M-0.00019342 32.8489C-0.00019342 23.8096 -0.00019342 14.7704 -0.00019342 5.73107C0.150953 5.09514 0.447764 4.54852 0.930963 4.0835C2.03754 3.01874 3.13003 1.93936 4.21468 0.851501C4.79577 0.268693 5.48259 -0.000768246 6.31037 1.64494e-06C12.5959 0.00616077 18.8822 0.00231132 25.1677 0.00693066C25.4386 0.00693066 25.7182 0.0269478 25.979 0.0923885C27.1702 0.394186 27.864 1.36733 27.8648 2.72003C27.8664 8.15853 27.8656 13.5978 27.8648 19.0363C27.8648 19.1587 27.8531 19.2804 27.8444 19.4444C27.7395 19.3874 27.6721 19.3574 27.6118 19.3173C27.1067 18.9894 26.77 18.9886 26.2946 19.3481C24.7307 20.5291 22.9827 21.3021 21.0452 21.6693C20.2887 21.8125 20.0749 22.0874 20.0749 22.8604C20.0749 24.6904 20.0749 26.5204 20.0749 28.3505C20.0749 31.313 21.4548 33.414 24.1652 34.6859C24.3485 34.7721 24.5145 34.8953 24.6884 35.0008H2.42128C2.33435 34.9777 2.24899 34.9476 2.1605 34.9338C1.33428 34.8052 0.715599 34.3802 0.320895 33.6604C0.182279 33.4071 0.104748 33.1215 -0.000976562 32.8497L-0.00019342 32.8489ZM13.9444 12.8048C11.4971 12.8048 9.04902 12.8041 6.6017 12.8048C5.93759 12.8048 5.49982 13.1774 5.49668 13.7364C5.49355 14.2953 5.92741 14.6672 6.59308 14.6749C6.68393 14.6757 6.77556 14.6749 6.8664 14.6749C11.5402 14.6749 16.214 14.6749 20.8886 14.6749C21.1102 14.6749 21.3318 14.6826 21.5519 14.6656C21.9372 14.6356 22.2066 14.4347 22.3507 14.0813C22.6154 13.4338 22.1361 12.8064 21.3663 12.8056C18.8923 12.8017 16.4192 12.8041 13.9452 12.8041L13.9444 12.8048ZM10.7594 20.9318C12.191 20.9318 13.6226 20.9364 15.0542 20.9295C15.6478 20.9264 16.0746 20.5168 16.0691 19.9841C16.0644 19.4659 15.654 19.081 15.0761 19.0556C14.9719 19.0509 14.8678 19.054 14.7636 19.054C12.1871 19.054 9.60975 19.054 7.03321 19.054C6.78652 19.054 6.5367 19.0425 6.29314 19.074C5.76843 19.1426 5.40741 19.6191 5.4818 20.1149C5.55699 20.6161 5.95639 20.9287 6.54218 20.9302C7.94792 20.9333 9.35366 20.931 10.7586 20.931L10.7594 20.9318ZM10.7594 25.3009C9.35366 25.3009 7.9487 25.2986 6.54296 25.3017C5.90079 25.3032 5.47946 25.6712 5.47397 26.2217C5.46849 26.7791 5.9094 27.1625 6.56489 27.1633C9.36306 27.1641 12.1604 27.1641 14.9586 27.1633C15.6282 27.1633 16.0597 26.8014 16.0675 26.2394C16.0746 25.6805 15.6399 25.3032 14.9766 25.3017C13.5709 25.2994 12.1659 25.3009 10.7602 25.3009H10.7594ZM13.9421 6.5664C12.7447 6.5664 11.548 6.56486 10.3506 6.5664C9.71312 6.56794 9.29571 6.94134 9.29884 7.49797C9.30276 8.05075 9.72409 8.4203 10.3623 8.42107C12.7564 8.4226 15.1505 8.4226 17.5453 8.42107C18.1805 8.42107 18.5971 8.04536 18.5947 7.48642C18.5916 6.92671 18.1812 6.56794 17.5336 6.5664C16.3362 6.56409 15.1395 6.5664 13.9421 6.5664V6.5664Z" fill="#D6E2FF"/>
<path d="M21.9589 23.4558C22.7405 23.2163 23.5135 23.0547 24.2183 22.7436C25.0915 22.3587 25.9115 21.8567 26.7455 21.3902C26.9131 21.2962 27.029 21.2062 27.224 21.3447C28.6345 22.3456 30.1851 23.0393 31.8947 23.3796C31.9315 23.3865 31.9644 23.4111 31.9691 23.4142C31.9691 25.3366 32.056 27.2467 31.9425 29.1453C31.8469 30.7282 30.9314 31.92 29.5155 32.6829C28.7535 33.0933 27.9476 33.4282 27.1543 33.7808C27.0455 33.8293 26.8732 33.817 26.7604 33.7677C26.0368 33.4497 25.3053 33.1425 24.606 32.7776C22.9097 31.893 22.0114 30.4833 21.9676 28.5987C21.9276 26.8849 21.9589 25.1696 21.9589 23.4565V23.4558Z" fill="#66BDFF"/>
</g>
<defs>
<clipPath id="clip0_24112_145758">
<rect width="32" height="35" fill="white"/>
</clipPath>
</defs>
</svg>
