<svg width="30" height="34" viewBox="0 0 30 34" fill="none" xmlns="http://www.w3.org/2000/svg">
<g clip-path="url(#clip0_2415_17824)">
<path d="M-6.54096e-06 31.4717C-6.54096e-06 22.9491 -6.54096e-06 14.4265 -6.54096e-06 5.90395C0.140088 5.30437 0.415197 4.789 0.863066 4.35056C1.88874 3.34667 2.90134 2.32898 3.90668 1.30331C4.44529 0.753822 5.08189 0.499764 5.84914 0.50049C11.6751 0.506297 17.5017 0.502667 23.3276 0.507023C23.5788 0.507023 23.8379 0.525896 24.0796 0.587596C25.1837 0.872141 25.8268 1.78965 25.8276 3.06503C25.829 8.19265 25.8283 13.321 25.8276 18.4486C25.8276 18.564 25.8167 18.6787 25.8087 18.8333C25.7114 18.7796 25.649 18.7513 25.5931 18.7136C25.1249 18.4043 24.8128 18.4036 24.3722 18.7426C22.9226 19.8561 21.3024 20.5849 19.5066 20.9311C18.8054 21.0662 18.6072 21.3253 18.6072 22.0541C18.6072 23.7795 18.6072 25.5049 18.6072 27.2303C18.6072 30.0235 19.8862 32.0045 22.3985 33.2036C22.5684 33.2849 22.7222 33.401 22.8834 33.5005H2.24442C2.16384 33.4787 2.08472 33.4504 2.0027 33.4373C1.23689 33.3161 0.663449 32.9154 0.297605 32.2367C0.169124 31.9979 0.0972615 31.7286 -0.000732422 31.4724L-6.54096e-06 31.4717ZM12.925 12.5733C10.6567 12.5733 8.38755 12.5726 6.11917 12.5733C5.50362 12.5733 5.09786 12.9247 5.09495 13.4517C5.09205 13.9786 5.49419 14.3292 6.11119 14.3365C6.19539 14.3372 6.28032 14.3365 6.36452 14.3365C10.6966 14.3365 15.0286 14.3365 19.3614 14.3365C19.5668 14.3365 19.7723 14.3438 19.9762 14.3278C20.3334 14.2995 20.5831 14.11 20.7166 13.7769C20.962 13.1664 20.5177 12.5748 19.8042 12.5741C17.5111 12.5704 15.2188 12.5726 12.9258 12.5726L12.925 12.5733ZM9.97287 20.2357C11.2998 20.2357 12.6267 20.2401 13.9536 20.2336C14.5038 20.2307 14.8994 19.8445 14.8943 19.3422C14.89 18.8537 14.5096 18.4907 13.9739 18.4668C13.8774 18.4624 13.7808 18.4653 13.6843 18.4653C11.2962 18.4653 8.90728 18.4653 6.51913 18.4653C6.29048 18.4653 6.05892 18.4544 5.83317 18.4842C5.34683 18.5488 5.0122 18.9981 5.08116 19.4656C5.15084 19.9381 5.52104 20.2328 6.064 20.2343C7.36696 20.2372 8.66992 20.235 9.97215 20.235L9.97287 20.2357ZM9.97287 24.3551C8.66991 24.3551 7.36769 24.3529 6.06473 24.3558C5.46951 24.3573 5.07898 24.7043 5.0739 25.2233C5.06882 25.7488 5.47749 26.1103 6.08505 26.111C8.67863 26.1118 11.2715 26.1118 13.865 26.111C14.4857 26.111 14.8856 25.7699 14.8929 25.24C14.8994 24.713 14.4966 24.3573 13.8817 24.3558C12.5788 24.3537 11.2766 24.3551 9.9736 24.3551H9.97287ZM12.9229 6.69153C11.813 6.69153 10.7038 6.69008 9.59396 6.69153C9.00309 6.69298 8.6162 7.04503 8.6191 7.56985C8.62273 8.09103 9.01326 8.43945 9.60485 8.44018C11.8239 8.44163 14.0429 8.44163 16.2626 8.44018C16.8513 8.44018 17.2375 8.08595 17.2353 7.55896C17.2324 7.03124 16.852 6.69298 16.2517 6.69153C15.1419 6.68935 14.0327 6.69153 12.9229 6.69153V6.69153Z" fill="white"/>
<path d="M20.3524 22.6142C21.0768 22.3885 21.7933 22.236 22.4465 21.9428C23.2559 21.5799 24.0159 21.1066 24.789 20.6667C24.9443 20.5781 25.0517 20.4932 25.2325 20.6239C26.5398 21.5675 27.977 22.2215 29.5616 22.5424C29.5958 22.5489 29.6262 22.5721 29.6306 22.575C29.6306 24.3876 29.7112 26.1885 29.6059 27.9785C29.5174 29.4709 28.6688 30.5946 27.3564 31.3139C26.6501 31.7008 25.9032 32.0166 25.1679 32.349C25.067 32.3948 24.9073 32.3831 24.8028 32.3367C24.132 32.0369 23.4541 31.7473 22.8059 31.4032C21.2336 30.5692 20.401 29.2401 20.3604 27.4631C20.3233 25.8473 20.3524 24.23 20.3524 22.615V22.6142Z" fill="#0052CC"/>
</g>
<defs>
<clipPath id="clip0_2415_17824">
<rect width="29.6602" height="32.9993" fill="white" transform="translate(0 0.500488)"/>
</clipPath>
</defs>
</svg>
