<svg width="80" height="90" viewBox="0 0 80 90" fill="none" xmlns="http://www.w3.org/2000/svg">
<path opacity="0.5" d="M-0.00132172 84.4687C-0.00132172 61.2248 -0.00132172 37.9809 -0.00132172 14.737C0.376014 13.1018 1.117 11.6962 2.3233 10.5004C5.08587 7.76248 7.81324 4.98692 10.5211 2.18957C11.9718 0.690926 13.6864 -0.00197549 15.7529 4.22985e-06C31.4446 0.015842 47.1383 0.00594339 62.8299 0.0178217C63.5064 0.0178217 64.2044 0.0692944 64.8554 0.23757C67.8292 1.01362 69.5614 3.51599 69.5633 6.99435C69.5672 20.9791 69.5653 34.9658 69.5633 48.9505C69.5633 49.2653 69.534 49.5781 69.5125 49.9998C69.2505 49.8533 69.0824 49.7761 68.9318 49.6731C67.6708 48.8298 66.8301 48.8278 65.6433 49.7523C61.739 52.7892 57.3752 54.7768 52.5383 55.7212C50.6496 56.0894 50.1159 56.7962 50.1159 58.7838C50.1159 63.4896 50.1159 68.1954 50.1159 72.9012C50.1159 80.5191 53.5608 85.9218 60.3274 89.1923C60.7849 89.414 61.1994 89.7308 61.6334 90.002H6.04387C5.82685 89.9426 5.61374 89.8654 5.39282 89.8297C3.33018 89.4991 1.78565 88.4063 0.800272 86.5553C0.454218 85.904 0.260663 85.1695 -0.00327682 84.4706L-0.00132172 84.4687ZM34.8113 32.9267C28.7016 32.9267 22.5899 32.9247 16.4802 32.9267C14.8223 32.9267 13.7294 33.8849 13.7216 35.3221C13.7138 36.7594 14.7969 37.7156 16.4587 37.7354C16.6855 37.7374 16.9143 37.7354 17.1411 37.7354C28.8091 37.7354 40.4772 37.7354 52.1472 37.7354C52.7005 37.7354 53.2538 37.7552 53.8032 37.7117C54.7651 37.6345 55.4377 37.1177 55.7974 36.2091C56.4583 34.5441 55.2617 32.9306 53.3399 32.9287C47.1637 32.9188 40.9894 32.9247 34.8133 32.9247L34.8113 32.9267ZM26.8599 53.8246C30.4338 53.8246 34.0078 53.8365 37.5817 53.8187C39.0637 53.8107 40.1292 52.7575 40.1155 51.3876C40.1038 50.0552 39.0793 49.0653 37.6364 49C37.3764 48.9881 37.1164 48.9961 36.8563 48.9961C30.424 48.9961 23.9898 48.9961 17.5575 48.9961C16.9416 48.9961 16.318 48.9664 15.7099 49.0475C14.4 49.2237 13.4987 50.4492 13.6844 51.7241C13.8721 53.0129 14.8692 53.8167 16.3316 53.8206C19.8411 53.8286 23.3505 53.8226 26.8579 53.8226L26.8599 53.8246ZM26.8599 65.0595C23.3505 65.0595 19.843 65.0536 16.3336 65.0615C14.7304 65.0654 13.6786 66.0117 13.6649 67.4272C13.6512 68.8606 14.7519 69.8465 16.3883 69.8484C23.3739 69.8504 30.3576 69.8504 37.3432 69.8484C39.0148 69.8484 40.092 68.918 40.1116 67.4728C40.1292 66.0355 39.0441 65.0654 37.3881 65.0615C33.8787 65.0555 30.3713 65.0595 26.8618 65.0595H26.8599ZM34.8054 16.885C31.8161 16.885 28.8287 16.8811 25.8393 16.885C24.2479 16.889 23.2058 17.8491 23.2136 19.2805C23.2234 20.7019 24.2752 21.6522 25.8687 21.6542C31.8454 21.6581 37.8222 21.6581 43.8009 21.6542C45.3865 21.6542 46.4266 20.6881 46.4207 19.2508C46.4129 17.8115 45.3884 16.889 43.7716 16.885C40.7822 16.8791 37.7948 16.885 34.8054 16.885Z" fill="#98A2B3"/>
<path d="M54.8191 60.311C56.7703 59.6953 58.7 59.2795 60.4596 58.4797C62.6396 57.4899 64.6866 56.1991 66.7688 54.9994C67.1872 54.7578 67.4765 54.5262 67.9633 54.8826C71.4845 57.4562 75.3556 59.2399 79.6236 60.115C79.7155 60.1328 79.7976 60.1961 79.8093 60.204C79.8093 65.1474 80.0263 70.0591 79.7429 74.9411C79.5043 79.0114 77.2188 82.076 73.684 84.0379C71.7817 85.0931 69.7699 85.9543 67.7893 86.861C67.5176 86.9857 67.0874 86.954 66.8059 86.8273C64.9994 86.0097 63.1733 85.2198 61.4274 84.2814C57.1926 82.0067 54.9501 78.3818 54.8407 73.5355C54.7409 69.1286 54.8191 64.7178 54.8191 60.3129V60.311Z" fill="#0052CC"/>
</svg>
