<svg width="19" height="20" viewBox="0 0 19 20" fill="none" xmlns="http://www.w3.org/2000/svg">
<g clip-path="url(#clip0_27963_225928)">
<path d="M17.2533 12.8073V6.86974C17.2533 6.69506 17.1598 6.5337 17.0081 6.44708L11.3329 3.20333C11.3751 3.04576 11.3997 2.88107 11.3997 2.71037C11.3997 1.65691 10.5426 0.799805 9.48917 0.799805C8.4357 0.799805 7.5786 1.65691 7.5786 2.71037C7.5786 2.88107 7.60322 3.04576 7.64542 3.20333L1.97021 6.44708C1.81855 6.5337 1.72498 6.69506 1.72498 6.86974V12.8073C0.906743 13.0233 0.300781 13.7676 0.300781 14.6527C0.300781 15.7062 1.15789 16.5633 2.21135 16.5633C2.74388 16.5633 3.22572 16.3438 3.57255 15.9911L9.24755 19.2356C9.32238 19.2784 9.40577 19.2998 9.48917 19.2998C9.57256 19.2998 9.65595 19.2784 9.73078 19.2356L15.4058 15.9911C15.7526 16.3438 16.2344 16.5633 16.767 16.5633C17.8204 16.5633 18.6775 15.7062 18.6775 14.6527C18.6775 13.7676 18.0716 13.0233 17.2533 12.8073ZM9.48917 1.77349C10.0058 1.77349 10.4261 2.19377 10.4261 2.71037C10.4261 3.22698 10.0058 3.64726 9.48917 3.64726C8.97256 3.64726 8.55228 3.22698 8.55228 2.71037C8.55228 2.19377 8.97256 1.77349 9.48917 1.77349ZM2.21135 15.5896C1.69475 15.5896 1.27447 15.1693 1.27447 14.6527C1.27447 14.1361 1.69475 13.7159 2.21135 13.7159C2.72796 13.7159 3.14824 14.1361 3.14824 14.6527C3.14824 15.1693 2.72796 15.5896 2.21135 15.5896ZM14.8564 14.6527C14.8564 14.8234 14.881 14.988 14.9232 15.1455L9.48917 18.2521L4.05516 15.1455C4.09731 14.988 4.12192 14.8234 4.12192 14.6527C4.12192 13.7679 3.51644 13.0238 2.69867 12.8075V7.15224L8.12813 4.04894C8.47495 4.40153 8.95673 4.62094 9.48917 4.62094C10.0216 4.62094 10.5034 4.40153 10.8502 4.04894L16.2797 7.15224V12.8075C15.4619 13.0238 14.8564 13.7679 14.8564 14.6527ZM16.767 15.5896C16.2504 15.5896 15.8301 15.1693 15.8301 14.6527C15.8301 14.1361 16.2504 13.7159 16.767 13.7159C17.2836 13.7159 17.7039 14.1361 17.7039 14.6527C17.7039 15.1693 17.2836 15.5896 16.767 15.5896Z" fill="#434656" stroke="#434656" stroke-width="0.5"/>
<path d="M5.55789 13.007L8.99747 14.9697V11.0765L5.55789 9.11382V13.007ZM10.0025 14.9697L13.4346 13.007V9.10062L10.0025 11.0765V14.9697ZM6.10427 8.28201L9.49623 10.2315L12.8824 8.28201L9.49623 6.34573L6.10427 8.28201ZM5.51191 14.1934C4.88641 13.838 4.5 13.174 4.5 12.4545V8.59257C4.5 8.40696 4.54568 8.23264 4.63703 8.06961C4.72838 7.90658 4.85902 7.77741 5.02895 7.68212L8.96728 5.43528C9.13218 5.34496 9.30849 5.2998 9.49623 5.2998C9.68396 5.2998 9.86028 5.34496 10.0252 5.43528L13.9635 7.68212C14.1334 7.77741 14.2653 7.90658 14.3592 8.06961C14.4531 8.23264 14.5 8.40696 14.5 8.59257V13.007C14.5 13.1926 14.4531 13.367 14.3592 13.53C14.2653 13.693 14.1334 13.8222 13.9635 13.9175L10.0252 16.1569C9.86028 16.2522 9.68396 16.2998 9.49623 16.2998C9.30849 16.2998 9.13218 16.2522 8.96728 16.1569L5.51191 14.1934Z" fill="#434656" stroke="#434656" stroke-width="0.5"/>
</g>
<defs>
<clipPath id="clip0_27963_225928">
<rect width="19" height="19" fill="white" transform="translate(0 0.5)"/>
</clipPath>
</defs>
</svg>
