<svg width="19" height="20" viewBox="0 0 19 20" fill="none" xmlns="http://www.w3.org/2000/svg">
<path d="M7.55789 10.2072L10.9975 12.1699V8.2767L7.55789 6.31402V10.2072ZM12.0025 12.1699L15.4346 10.2072V6.30082L12.0025 8.2767V12.1699ZM8.10427 5.4822L11.4962 7.43168L14.8824 5.4822L11.4962 3.54593L8.10427 5.4822ZM7.51191 11.3936C6.88641 11.0382 6.5 10.3742 6.5 9.65473V5.79277C6.5 5.60716 6.54568 5.43284 6.63703 5.2698C6.72838 5.10677 6.85902 4.97761 7.02895 4.88232L10.9673 2.63548C11.1322 2.54516 11.3085 2.5 11.4962 2.5C11.684 2.5 11.8603 2.54516 12.0252 2.63548L15.9635 4.88232C16.1334 4.97761 16.2653 5.10677 16.3592 5.2698C16.4531 5.43284 16.5 5.60716 16.5 5.79277V10.2072C16.5 10.3928 16.4531 10.5672 16.3592 10.7302C16.2653 10.8932 16.1334 11.0224 15.9635 11.1177L12.0252 13.3571C11.8603 13.4524 11.684 13.5 11.4962 13.5C11.3085 13.5 11.1322 13.4524 10.9673 13.3571L7.51191 11.3936Z" fill="#434656" stroke="#434656" stroke-width="0.5"/>
<path d="M0.999999 16H17" stroke="#434656" stroke-width="1.5" stroke-linecap="square" stroke-linejoin="round"/>
<path d="M16 14L18 16L16 18" stroke="#434656" stroke-width="1.5" stroke-linecap="square" stroke-linejoin="round"/>
<path d="M3.29883 18.5L3.29883 2.5" stroke="#434656" stroke-width="1.5" stroke-linecap="square" stroke-linejoin="round"/>
<path d="M1.29883 3.5L3.29883 1.5L5.29883 3.5" stroke="#434656" stroke-width="1.5" stroke-linecap="square" stroke-linejoin="round"/>
</svg>
