<svg width="17" height="16" viewBox="0 0 17 16" fill="none" xmlns="http://www.w3.org/2000/svg">
<path d="M14.834 14.333H15.6257H16.4173V15.1247V15.9163H15.6257H1.37565H0.583984V15.1247V0.874675V0.0830078H1.37565H2.16732V0.874675V14.333H3.75065V11.958C3.75065 11.5208 4.10509 11.1663 4.54232 11.1663C4.97954 11.1663 5.33398 11.5208 5.33398 11.958V14.333H6.91732V8.79134C6.91732 8.35412 7.27176 7.99967 7.70898 7.99967C8.14621 7.99967 8.50065 8.35412 8.50065 8.79134V14.333H10.084V5.62467C10.084 5.18745 10.4384 4.83301 10.8757 4.83301C11.3129 4.83301 11.6673 5.18745 11.6673 5.62467V14.333H13.2507V2.45801C13.2507 2.02078 13.6051 1.66634 14.0423 1.66634C14.4795 1.66634 14.834 2.02078 14.834 2.45801V14.333Z" fill="#434656"/>
</svg>
