<svg width="38" height="38" viewBox="0 0 38 38" fill="none" xmlns="http://www.w3.org/2000/svg">
<rect width="38" height="38" rx="19" fill="#744F07"/>
<path d="M27.2501 24.8538C27.2005 24.726 27.1262 24.6092 27.0313 24.5101L23.9063 21.3851C23.7102 21.1889 23.4441 21.0787 23.1667 21.0787C22.8893 21.0787 22.6233 21.1889 22.4272 21.3851C22.231 21.5812 22.1208 21.8473 22.1208 22.1247C22.1208 22.4021 22.231 22.6681 22.4272 22.8643L23.7813 24.208H13.7917C13.5155 24.208 13.2505 24.0983 13.0552 23.9029C12.8598 23.7076 12.7501 23.4426 12.7501 23.1663V18.9997C12.7501 18.7234 12.6403 18.4585 12.445 18.2631C12.2496 18.0678 11.9847 17.958 11.7084 17.958C11.4321 17.958 11.1672 18.0678 10.9718 18.2631C10.7765 18.4585 10.6667 18.7234 10.6667 18.9997V23.1663C10.6667 23.9951 10.996 24.79 11.582 25.3761C12.1681 25.9621 12.9629 26.2913 13.7917 26.2913H23.7813L22.4272 27.6351C22.3295 27.7319 22.252 27.8471 22.1992 27.9741C22.1463 28.101 22.119 28.2372 22.119 28.3747C22.119 28.5122 22.1463 28.6483 22.1992 28.7753C22.252 28.9022 22.3295 29.0174 22.4272 29.1143C22.524 29.2119 22.6392 29.2894 22.7661 29.3423C22.8931 29.3952 23.0292 29.4224 23.1667 29.4224C23.3043 29.4224 23.4404 29.3952 23.5673 29.3423C23.6943 29.2894 23.8095 29.2119 23.9063 29.1143L27.0313 25.9893C27.1262 25.8902 27.2005 25.7734 27.2501 25.6455C27.3543 25.3919 27.3543 25.1074 27.2501 24.8538Z" fill="#FEF8EC"/>
<path d="M10.7448 13.152C10.7944 13.2799 10.8687 13.3967 10.9635 13.4958L14.0885 16.6208C14.2847 16.8169 14.5507 16.9271 14.8281 16.9271C15.1055 16.9271 15.3716 16.8169 15.5677 16.6208C15.7639 16.4246 15.8741 16.1586 15.8741 15.8812C15.8741 15.6038 15.7639 15.3378 15.5677 15.1416L14.2135 13.7979H24.2031C24.4794 13.7979 24.7443 13.9076 24.9397 14.1029C25.135 14.2983 25.2448 14.5633 25.2448 14.8395V19.0062C25.2448 19.2825 25.3545 19.5474 25.5499 19.7428C25.7452 19.9381 26.0102 20.0479 26.2865 20.0479C26.5627 20.0479 26.8277 19.9381 27.023 19.7428C27.2184 19.5474 27.3281 19.2825 27.3281 19.0062V14.8395C27.3281 14.0107 26.9989 13.2159 26.4128 12.6298C25.8268 12.0438 25.0319 11.7145 24.2031 11.7145H14.2135L15.5677 10.3708C15.6653 10.2739 15.7428 10.1587 15.7957 10.0318C15.8486 9.90485 15.8758 9.7687 15.8758 9.63118C15.8758 9.49367 15.8486 9.35752 15.7957 9.23058C15.7428 9.10365 15.6653 8.98844 15.5677 8.8916C15.4709 8.79397 15.3557 8.71647 15.2287 8.66359C15.1018 8.6107 14.9656 8.58348 14.8281 8.58348C14.6906 8.58348 14.5545 8.6107 14.4275 8.66359C14.3006 8.71647 14.1854 8.79397 14.0885 8.8916L10.9635 12.0166C10.8687 12.1157 10.7944 12.2325 10.7448 12.3604C10.6406 12.614 10.6406 12.8984 10.7448 13.152Z" fill="#FEF8EC"/>
</svg>
