<svg width="16" height="18" viewBox="0 0 16 18" fill="none" xmlns="http://www.w3.org/2000/svg">
<path d="M1.562 17.1739C1.13309 17.1739 0.764544 17.0198 0.456375 16.7117C0.148219 16.4035 -0.00585938 16.0349 -0.00585938 15.606V11.8103L2.90094 8.62646L4.02048 9.75718L1.71861 12.2656H13.2916L11.1059 9.79417L12.2366 8.66345L15.0161 11.8103V15.606C15.0161 16.0349 14.8609 16.4035 14.5505 16.7117C14.2402 17.0198 13.869 17.1739 13.437 17.1739L1.562 17.1739ZM1.562 15.606H13.437V13.4531H1.562V15.606ZM6.46774 10.6228L3.51104 7.64376C3.18577 7.31103 3.03446 6.93742 3.05712 6.52294C3.07977 6.10845 3.25087 5.74144 3.57042 5.42191L7.59843 1.39387C7.89646 1.1008 8.26102 0.953237 8.69212 0.951192C9.12322 0.949147 9.49842 1.10417 9.81771 1.41626L12.7744 4.39532C13.0808 4.70167 13.2335 5.06208 13.2326 5.47656C13.2318 5.89105 13.0584 6.27126 12.7124 6.61719L8.70681 10.6228C8.40791 10.9217 8.04133 11.0778 7.60706 11.091C7.17278 11.1042 6.79301 10.9481 6.46774 10.6228ZM11.4965 5.4245L8.69561 2.64593L4.76912 6.5836L7.55887 9.36217L11.4965 5.4245Z" fill="#434656"/>
</svg>
