<svg width="17" height="20" viewBox="0 0 17 20" fill="none" xmlns="http://www.w3.org/2000/svg">
<path d="M13.2505 19.4999H8.06513C7.21013 19.4999 6.37096 19.1436 5.77721 18.5261L-0.00195312 12.5016L1.6368 11.0528C2.12763 10.6174 2.84805 10.5303 3.42596 10.8391L5.33388 11.8524V4.29198C5.33388 3.19948 6.22055 2.31281 7.31305 2.31281C7.44763 2.31281 7.58221 2.32865 7.7168 2.3524C7.78805 1.32323 8.64305 0.507812 9.68805 0.507812C10.3689 0.507812 10.9626 0.848229 11.3189 1.37073C11.5485 1.27573 11.8018 1.22823 12.063 1.22823C13.1555 1.22823 14.0422 2.1149 14.0422 3.2074V3.42906C14.1689 3.40531 14.3035 3.38948 14.438 3.38948C15.5305 3.38948 16.4172 4.27615 16.4172 5.36865V16.3332C16.4172 18.0828 15.0001 19.4999 13.2505 19.4999ZM2.27805 12.5966L6.91721 17.4257C7.21805 17.7345 7.62971 17.9166 8.05721 17.9166H13.2505C14.1214 17.9166 14.8339 17.2041 14.8339 16.3332V5.36865C14.8339 5.14698 14.6597 4.97281 14.438 4.97281C14.2164 4.97281 14.0422 5.14698 14.0422 5.36865V9.9999H12.4589V3.2074C12.4589 2.98573 12.2847 2.81156 12.063 2.81156C11.8414 2.81156 11.6672 2.98573 11.6672 3.2074V9.9999H10.0839V2.48698C10.0839 2.26531 9.90971 2.09115 9.68805 2.09115C9.46638 2.09115 9.29221 2.26531 9.29221 2.48698V9.9999H7.70888V4.29198C7.70888 4.07031 7.53471 3.89615 7.31305 3.89615C7.09138 3.89615 6.91721 4.07823 6.91721 4.29198V14.4807L2.6818 12.2403L2.27805 12.5966V12.5966Z" fill="#434656"/>
</svg>
