<svg width="38" height="38" viewBox="0 0 38 38" fill="none" xmlns="http://www.w3.org/2000/svg">
<rect width="38" height="38" rx="19" fill="#116A54"/>
<path d="M20.3541 19.2288C20.9099 18.7477 21.3557 18.1527 21.6612 17.4841C21.9668 16.8155 22.1249 16.089 22.1249 15.3538C22.1249 13.9725 21.5762 12.6477 20.5994 11.671C19.6227 10.6942 18.2979 10.1455 16.9166 10.1455C15.5352 10.1455 14.2105 10.6942 13.2337 11.671C12.257 12.6477 11.7083 13.9725 11.7083 15.3538C11.7082 16.089 11.8664 16.8155 12.1719 17.4841C12.4775 18.1527 12.9233 18.7477 13.4791 19.2288C12.0209 19.8891 10.7837 20.9554 9.91552 22.3002C9.04731 23.645 8.58479 25.2115 8.58325 26.8122C8.58325 27.0884 8.693 27.3534 8.88835 27.5487C9.0837 27.7441 9.34865 27.8538 9.62492 27.8538C9.90119 27.8538 10.1661 27.7441 10.3615 27.5487C10.5568 27.3534 10.6666 27.0884 10.6666 26.8122C10.6666 25.1546 11.3251 23.5649 12.4972 22.3928C13.6693 21.2207 15.259 20.5622 16.9166 20.5622C18.5742 20.5622 20.1639 21.2207 21.336 22.3928C22.5081 23.5649 23.1666 25.1546 23.1666 26.8122C23.1666 27.0884 23.2763 27.3534 23.4717 27.5487C23.667 27.7441 23.932 27.8538 24.2083 27.8538C24.4845 27.8538 24.7495 27.7441 24.9448 27.5487C25.1402 27.3534 25.2499 27.0884 25.2499 26.8122C25.2484 25.2115 24.7859 23.645 23.9176 22.3002C23.0494 20.9554 21.8123 19.8891 20.3541 19.2288ZM16.9166 18.4788C16.2985 18.4788 15.6943 18.2956 15.1804 17.9522C14.6665 17.6088 14.266 17.1207 14.0295 16.5497C13.7929 15.9787 13.7311 15.3504 13.8516 14.7442C13.9722 14.138 14.2698 13.5812 14.7069 13.1441C15.1439 12.7071 15.7007 12.4095 16.3069 12.2889C16.9131 12.1683 17.5415 12.2302 18.1125 12.4667C18.6835 12.7032 19.1715 13.1038 19.5149 13.6177C19.8583 14.1316 20.0416 14.7358 20.0416 15.3538C20.0416 16.1826 19.7123 16.9775 19.1263 17.5635C18.5402 18.1496 17.7454 18.4788 16.9166 18.4788ZM29.1145 16.0101C29.0177 15.9125 28.9025 15.835 28.7755 15.7821C28.6486 15.7292 28.5124 15.702 28.3749 15.702C28.2374 15.702 28.1013 15.7292 27.9743 15.7821C27.8474 15.835 27.7322 15.9125 27.6353 16.0101L25.552 18.0934L24.9062 17.4372C24.8093 17.3395 24.6941 17.262 24.5672 17.2092C24.4402 17.1563 24.3041 17.1291 24.1666 17.1291C24.0291 17.1291 23.8929 17.1563 23.766 17.2092C23.639 17.262 23.5238 17.3395 23.427 17.4372C23.233 17.6323 23.1241 17.8964 23.1241 18.1715C23.1241 18.4467 23.233 18.7108 23.427 18.9059L24.8228 20.3018C25.018 20.4958 25.282 20.6047 25.5572 20.6047C25.8324 20.6047 26.0964 20.4958 26.2916 20.3018L29.0728 17.5205C29.178 17.4261 29.2628 17.3112 29.3222 17.1829C29.3815 17.0546 29.4142 16.9156 29.4181 16.7742C29.422 16.6329 29.3971 16.4923 29.3449 16.3609C29.2927 16.2296 29.2143 16.1102 29.1145 16.0101Z" fill="#EDFCF8"/>
</svg>
