<svg width="19" height="20" viewBox="0 0 19 20" fill="none" xmlns="http://www.w3.org/2000/svg">
<path d="M14.2505 6.16801C14.203 6.16009 14.1476 6.16009 14.1001 6.16801C13.0076 6.12843 12.1367 5.23384 12.1367 4.12551C12.1367 2.99343 13.0471 2.08301 14.1792 2.08301C15.3113 2.08301 16.2217 3.00134 16.2217 4.12551C16.2138 5.23384 15.343 6.12843 14.2505 6.16801Z" stroke="#434656" stroke-width="1.5" stroke-linecap="round" stroke-linejoin="round"/>
<path d="M13.4359 11.9315C14.5204 12.1136 15.7159 11.9236 16.555 11.3615C17.6713 10.6173 17.6713 9.39814 16.555 8.65397C15.7079 8.09189 14.4967 7.90188 13.4121 8.09188" stroke="#434656" stroke-width="1.5" stroke-linecap="round" stroke-linejoin="round"/>
<path d="M4.72711 6.16801C4.77461 6.16009 4.83003 6.16009 4.87753 6.16801C5.97003 6.12843 6.84086 5.23384 6.84086 4.12551C6.84086 2.99343 5.93044 2.08301 4.79836 2.08301C3.66628 2.08301 2.75586 3.00134 2.75586 4.12551C2.76378 5.23384 3.63461 6.12843 4.72711 6.16801Z" stroke="#434656" stroke-width="1.5" stroke-linecap="round" stroke-linejoin="round"/>
<path d="M5.54229 11.9315C4.45771 12.1136 3.26229 11.9236 2.42313 11.3615C1.30688 10.6173 1.30688 9.39814 2.42313 8.65397C3.27021 8.09189 4.48146 7.90188 5.56604 8.09188" stroke="#434656" stroke-width="1.5" stroke-linecap="round" stroke-linejoin="round"/>
<path d="M9.50047 12.0821C9.45297 12.0742 9.39755 12.0742 9.35005 12.0821C8.25755 12.0425 7.38672 11.1479 7.38672 10.0396C7.38672 8.90749 8.29713 7.99707 9.42922 7.99707C10.5613 7.99707 11.4717 8.91541 11.4717 10.0396C11.4638 11.1479 10.593 12.0504 9.50047 12.0821Z" stroke="#434656" stroke-width="1.5" stroke-linecap="round" stroke-linejoin="round"/>
<path d="M7.19656 14.5757C6.08031 15.3198 6.08031 16.539 7.19656 17.2832C8.46323 18.1302 10.5374 18.1302 11.8041 17.2832C12.9203 16.539 12.9203 15.3198 11.8041 14.5757C10.5453 13.7365 8.46323 13.7365 7.19656 14.5757Z" stroke="#434656" stroke-width="1.5" stroke-linecap="round" stroke-linejoin="round"/>
</svg>
