<svg width="38" height="38" viewBox="0 0 38 38" fill="none" xmlns="http://www.w3.org/2000/svg">
<rect width="38" height="38" rx="19" fill="#FFEBEE"/>
<path d="M19.6145 20.0414L17.2187 22.4269C17.121 22.5237 17.0435 22.6389 16.9907 22.7658C16.9378 22.8928 16.9105 23.0289 16.9105 23.1664C16.9105 23.304 16.9378 23.4401 16.9907 23.567C17.0435 23.694 17.121 23.8092 17.2187 23.906C17.3155 24.0037 17.4307 24.0812 17.5577 24.134C17.6846 24.1869 17.8207 24.2142 17.9583 24.2142C18.0958 24.2142 18.2319 24.1869 18.3589 24.134C18.4858 24.0812 18.601 24.0037 18.6978 23.906L22.8645 19.7394C22.9593 19.6403 23.0337 19.5235 23.0833 19.3956C23.1874 19.142 23.1874 18.8576 23.0833 18.6039C23.0337 18.4761 22.9593 18.3593 22.8645 18.2602L18.6978 14.0935C18.6007 13.9964 18.4854 13.9194 18.3585 13.8668C18.2316 13.8142 18.0956 13.7872 17.9583 13.7872C17.8209 13.7872 17.6849 13.8142 17.558 13.8668C17.4311 13.9194 17.3158 13.9964 17.2187 14.0935C17.1215 14.1907 17.0445 14.306 16.9919 14.4329C16.9394 14.5597 16.9123 14.6958 16.9123 14.8331C16.9123 14.9705 16.9394 15.1065 16.9919 15.2334C17.0445 15.3603 17.1215 15.4756 17.2187 15.5727L19.6145 17.9581H9.62492C9.34865 17.9581 9.0837 18.0679 8.88835 18.2632C8.693 18.4586 8.58325 18.7235 8.58325 18.9998C8.58325 19.276 8.693 19.541 8.88835 19.7363C9.0837 19.9317 9.34865 20.0414 9.62492 20.0414H19.6145ZM18.9999 8.58311C17.0531 8.57442 15.1429 9.11146 13.4858 10.1333C11.8288 11.1552 10.4912 12.6209 9.62492 14.3644C9.5006 14.613 9.48014 14.9008 9.56805 15.1646C9.65596 15.4283 9.84503 15.6463 10.0937 15.7706C10.3423 15.8949 10.6302 15.9154 10.8939 15.8275C11.1576 15.7396 11.3756 15.5505 11.4999 15.3019C12.1585 13.972 13.1602 12.8421 14.4015 12.0289C15.6429 11.2158 17.0789 10.7489 18.5611 10.6764C20.0433 10.604 21.518 10.9287 22.8328 11.617C24.1475 12.3052 25.2546 13.3321 26.0396 14.5914C26.8247 15.8508 27.2592 17.2969 27.2983 18.7804C27.3373 20.2639 26.9796 21.7309 26.2619 23.0298C25.5443 24.3287 24.4928 25.4124 23.2161 26.169C21.9394 26.9255 20.4839 27.3274 18.9999 27.3331C17.4467 27.3398 15.923 26.9085 14.6038 26.0886C13.2845 25.2687 12.2232 24.0934 11.5416 22.6977C11.4173 22.4491 11.1993 22.26 10.9355 22.1721C10.6718 22.0842 10.384 22.1046 10.1353 22.2289C9.88669 22.3533 9.69762 22.5713 9.60972 22.835C9.52181 23.0987 9.54226 23.3866 9.66659 23.6352C10.4924 25.2972 11.7473 26.7084 13.3015 27.7227C14.8556 28.7371 16.6525 29.3179 18.5063 29.405C20.3601 29.492 22.2035 29.0823 23.8459 28.218C25.4883 27.3538 26.8699 26.0664 27.8479 24.4892C28.8259 22.9119 29.3648 21.102 29.4088 19.2467C29.4528 17.3913 29.0003 15.5579 28.0981 13.9361C27.1959 12.3142 25.8768 10.9629 24.2773 10.0218C22.6777 9.08066 20.8558 8.58398 18.9999 8.58311Z" fill="#C20024"/>
</svg>
