<svg width="15" height="17" viewBox="0 0 15 17" fill="none" xmlns="http://www.w3.org/2000/svg">
<path d="M14.4983 2.84116C14.4588 2.74616 14.4113 2.65908 14.3558 2.57199C14.245 2.40574 14.0946 2.25533 13.9283 2.14449C13.8413 2.08908 13.7542 2.04158 13.6592 2.00199C13.4692 1.92283 13.2633 1.87533 13.0417 1.87533H12.25V0.291992H10.6667V1.87533H4.33333V0.291992H2.75V1.87533H1.95833C1.62583 1.87533 1.325 1.97824 1.07167 2.14449C0.905417 2.25533 0.755 2.40574 0.644167 2.57199C0.58875 2.65908 0.54125 2.74616 0.501667 2.84116C0.4225 3.03116 0.375 3.23699 0.375 3.45866V14.542C0.375 15.4128 1.07958 16.1253 1.95833 16.1253H13.0417C13.2633 16.1253 13.4692 16.0778 13.6592 15.9987C13.7542 15.9591 13.8413 15.9116 13.9283 15.8562C14.0946 15.7453 14.245 15.5949 14.3558 15.4287C14.5221 15.1753 14.625 14.8666 14.625 14.542V3.45866C14.625 3.23699 14.5775 3.03116 14.4983 2.84116ZM1.95833 14.542V3.45866H13.0417V14.542H1.95833ZM7.5 9.69699C5.89292 9.69699 2.75 10.552 2.75 12.5312V13.7503H12.25V12.5391C12.25 10.552 9.10708 9.69699 7.5 9.69699ZM4.57875 12.167C5.125 11.7237 6.46292 11.2803 7.5 11.2803C8.53708 11.2803 9.88292 11.7237 10.4212 12.167H4.57875ZM7.5 9.00033C8.80625 9.00033 9.875 7.93158 9.875 6.62533C9.875 5.31908 8.80625 4.25033 7.5 4.25033C6.19375 4.25033 5.125 5.31908 5.125 6.62533C5.125 7.93158 6.19375 9.00033 7.5 9.00033ZM7.5 5.83366C7.93542 5.83366 8.29167 6.18991 8.29167 6.62533C8.29167 7.06074 7.93542 7.41699 7.5 7.41699C7.06458 7.41699 6.70833 7.06074 6.70833 6.62533C6.70833 6.18991 7.06458 5.83366 7.5 5.83366Z" fill="#434656"/>
</svg>
