<svg width="80" height="80" viewBox="0 0 80 80" fill="none" xmlns="http://www.w3.org/2000/svg">
<path d="M44.75 3.31976L69.391 17.5463C72.3303 19.2433 74.141 22.3795 74.141 25.7735V54.2265C74.141 57.6205 72.3303 60.7567 69.391 62.4537L44.75 76.6802C41.8107 78.3773 38.1893 78.3773 35.25 76.6802L10.609 62.4537C7.66967 60.7567 5.85898 57.6205 5.85898 54.2265V25.7735C5.85898 22.3795 7.66967 19.2433 10.609 17.5463L35.25 3.31976C38.1893 1.62275 41.8107 1.62275 44.75 3.31976Z" stroke="#3F3D56"/>
<path d="M47.1816 46.5117L50.5104 49.8405L48.846 51.5048L45.5173 48.1761L47.1816 46.5117Z" fill="#56537B"/>
<path d="M35.6941 52.3883C44.3618 52.3883 51.3883 45.3618 51.3883 36.6941C51.3883 28.0265 44.3618 21 35.6941 21C27.0265 21 20 28.0265 20 36.6941C20 45.3618 27.0265 52.3883 35.6941 52.3883Z" fill="#5C8DFF"/>
<path d="M35.7033 50.0434C43.0708 50.0434 49.0434 44.0708 49.0434 36.7033C49.0434 29.3358 43.0708 23.3633 35.7033 23.3633C28.3358 23.3633 22.3633 29.3358 22.3633 36.7033C22.3633 44.0708 28.3358 50.0434 35.7033 50.0434Z" fill="white"/>
<path d="M54.591 59.6242L47.9031 52.9363C47.4021 52.4352 47.4021 51.6228 47.9031 51.1217L50.1217 48.9031C50.6228 48.4021 51.4352 48.4021 51.9364 48.9031L58.6242 55.591C59.1253 56.0921 59.1253 56.9045 58.6242 57.4056L56.4057 59.6242C55.9045 60.1253 55.0922 60.1253 54.591 59.6242Z" fill="#3F3D56"/>
<path d="M40.2872 39.1938C40.4242 39.1938 40.5457 39.1938 40.6673 39.1938C41.048 39.1938 41.4287 39.1989 41.8092 39.1923C42.1586 39.1862 42.4177 38.9402 42.4525 38.5969C42.4829 38.2968 42.2451 37.9923 41.9231 37.9258C41.843 37.9092 41.7593 37.9028 41.6772 37.9026C41.0711 37.9006 40.4652 37.9014 39.859 37.9018C39.8087 37.9018 39.7686 37.9053 39.7441 37.8413C39.5853 37.4254 39.4207 37.0114 39.2583 36.5968C39.2549 36.5881 39.2553 36.5779 39.2523 36.5576C39.2851 36.5559 39.3159 36.553 39.3468 36.553C39.7344 36.5526 40.122 36.5535 40.5097 36.5524C40.8782 36.5512 41.1621 36.2896 41.1838 35.9334C41.2033 35.614 40.9198 35.2872 40.5737 35.2691C40.1757 35.2482 39.7759 35.2578 39.377 35.255C39.1824 35.2537 38.9877 35.2496 38.7933 35.2572C38.7178 35.2601 38.69 35.2318 38.6661 35.1696C38.4647 34.6446 38.2608 34.1208 38.0574 33.5964C37.7789 32.8783 37.5002 32.1604 37.2217 31.4423C36.9973 30.8636 36.775 30.2842 36.5484 29.7064C36.4414 29.4336 36.1969 29.2698 35.916 29.2725C35.6284 29.2752 35.4099 29.437 35.296 29.7194C34.9255 30.6387 34.5517 31.5568 34.18 32.4754C33.8166 33.3732 33.4534 34.271 33.0932 35.1702C33.065 35.2406 33.035 35.2695 32.9529 35.2689C32.3967 35.2646 31.8402 35.2671 31.284 35.2665C30.8888 35.2662 30.5885 35.5481 30.5928 35.9172C30.5972 36.2668 30.9196 36.5615 31.2942 36.5604C31.6884 36.5592 32.0826 36.56 32.4768 36.5604C32.4925 36.5604 32.5082 36.5619 32.5332 36.5631C32.4434 36.789 32.3567 37.0089 32.2684 37.228C32.1871 37.4299 32.0993 37.6296 32.0241 37.8337C31.9973 37.9071 31.9585 37.9225 31.8874 37.9221C31.2582 37.9199 30.629 37.9199 29.9998 37.9209C29.7357 37.9213 29.5184 38.0231 29.3822 38.2467C29.1439 38.6384 29.3693 39.1154 29.8402 39.1862C30.1058 39.2262 30.3803 39.21 30.6511 39.2137C30.9348 39.2175 31.2184 39.2145 31.5158 39.2145C31.4482 39.3835 31.3854 39.5429 31.321 39.7015C30.9837 40.5325 30.6461 41.3634 30.3084 42.1941C30.1064 42.6906 29.9044 43.1873 29.7013 43.6834C29.6033 43.9228 29.5883 44.1588 29.7426 44.3806C29.8937 44.5978 30.1189 44.6579 30.371 44.6296C30.6189 44.6019 30.7914 44.4671 30.8853 44.2394C31.0055 43.9479 31.1244 43.6561 31.2423 43.3638C31.4868 42.7579 31.7295 42.1514 31.9742 41.5456C32.2788 40.7922 32.5857 40.0397 32.8883 39.2857C32.9129 39.2243 32.9407 39.2036 33.0083 39.2038C34.9366 39.2057 36.8647 39.2054 38.7929 39.2052C38.8438 39.2052 38.8824 39.2044 38.9072 39.2676C39.2327 40.1 39.5626 40.9307 39.8906 41.7622C40.2079 42.5663 40.524 43.3709 40.8411 44.175C40.9864 44.5433 41.3965 44.6557 41.6722 44.5465C42.0346 44.4029 42.1867 44.026 42.0477 43.6781C41.774 42.9932 41.5082 42.3051 41.2384 41.6188C41.0031 41.0201 40.7663 40.4217 40.5308 39.823C40.4502 39.6186 40.3719 39.4133 40.2866 39.1935L40.2872 39.1938ZM38.3435 37.9164H33.4459C33.457 37.8823 33.4642 37.8548 33.4747 37.8286C33.6327 37.4369 33.7936 37.0463 33.9478 36.6532C33.976 36.5812 34.009 36.5578 34.089 36.558C34.9863 36.5608 35.8838 36.5588 36.7812 36.5582C37.1255 36.558 37.4696 36.5582 37.8159 36.5582C37.9918 37.011 38.1655 37.4585 38.3435 37.9164V37.9164ZM35.8852 31.7511C35.893 31.7507 35.9009 31.7505 35.9087 31.7501C36.3633 32.9132 36.8179 34.0761 37.2772 35.2511H34.4786C34.9493 34.0798 35.4173 32.9156 35.885 31.7511H35.8852Z" fill="#3F3D56"/>
</svg>
