<svg width="80" height="80" viewBox="0 0 80 80" fill="none" xmlns="http://www.w3.org/2000/svg">
<path d="M44.75 3.31976L69.391 17.5463C72.3303 19.2433 74.141 22.3795 74.141 25.7735V54.2265C74.141 57.6205 72.3303 60.7567 69.391 62.4537L44.75 76.6802C41.8107 78.3773 38.1893 78.3773 35.25 76.6802L10.609 62.4537C7.66967 60.7567 5.85898 57.6205 5.85898 54.2265V25.7735C5.85898 22.3795 7.66967 19.2433 10.609 17.5463L35.25 3.31976C38.1893 1.62275 41.8107 1.62275 44.75 3.31976Z" stroke="#3F3D56"/>
<path opacity="0.1" d="M58.9496 31.7113C50.7999 27.1301 47.5776 19.8142 43.6499 17.6062C39.7222 15.3982 30.2054 12.9915 20.0458 30.8329C9.8862 48.6743 19.4904 57.5301 23.8115 59.9577C44.0383 71.3294 73.3839 39.8254 58.9496 31.7113V31.7113Z" fill="#006CFF"/>
<path d="M46 45.5869L48.8166 48.4035L47.4083 49.8118L44.5917 46.9952L46 45.5869Z" fill="#56537B"/>
<path d="M36.2797 50.5593C43.6138 50.5593 49.5593 44.6138 49.5593 37.2797C49.5593 29.9455 43.6138 24 36.2797 24C28.9455 24 23 29.9455 23 37.2797C23 44.6138 28.9455 50.5593 36.2797 50.5593Z" fill="#76C071"/>
<path d="M36.2877 48.5755C42.5218 48.5755 47.5755 43.5218 47.5755 37.2877C47.5755 31.0537 42.5218 26 36.2877 26C30.0537 26 25 31.0537 25 37.2877C25 43.5218 30.0537 48.5755 36.2877 48.5755Z" fill="white"/>
<path d="M52.2699 56.6816L46.6109 51.0226C46.187 50.5987 46.187 49.9112 46.6109 49.4872L48.4882 47.61C48.9122 47.186 49.5996 47.186 50.0237 47.61L55.6827 53.269C56.1066 53.6929 56.1066 54.3804 55.6827 54.8044L53.8054 56.6816C53.3814 57.1056 52.694 57.1056 52.2699 56.6816Z" fill="#3F3D56"/>
<path d="M40.1657 39.395C40.2816 39.395 40.3843 39.395 40.4873 39.395C40.8094 39.395 41.1315 39.3993 41.4535 39.3937C41.7492 39.3886 41.9683 39.1804 41.9978 38.8899C42.0235 38.636 41.8223 38.3783 41.5498 38.322C41.4821 38.308 41.4112 38.3026 41.3418 38.3024C40.8289 38.3007 40.3162 38.3014 39.8034 38.3017C39.7608 38.3017 39.7268 38.3047 39.7061 38.2506C39.5717 37.8986 39.4325 37.5483 39.295 37.1976C39.2922 37.1901 39.2925 37.1815 39.29 37.1644C39.3177 37.1629 39.3438 37.1604 39.3699 37.1604C39.6979 37.1601 40.0259 37.1609 40.3539 37.1599C40.6658 37.1589 40.9059 36.9376 40.9243 36.6361C40.9408 36.3659 40.7009 36.0894 40.4081 36.0741C40.0713 36.0564 39.733 36.0645 39.3955 36.0622C39.2308 36.061 39.0661 36.0576 38.9016 36.064C38.8377 36.0665 38.8141 36.0425 38.7939 35.9899C38.6235 35.5457 38.451 35.1024 38.2789 34.6587C38.0432 34.0511 37.8074 33.4436 37.5717 32.836C37.3818 32.3464 37.1938 31.8561 37.002 31.3672C36.9115 31.1364 36.7046 30.9977 36.467 31C36.2236 31.0023 36.0387 31.1392 35.9423 31.3782C35.6288 32.156 35.3126 32.9329 34.998 33.7102C34.6905 34.4699 34.3832 35.2295 34.0784 35.9904C34.0545 36.05 34.0291 36.0744 33.9597 36.0739C33.489 36.0703 33.0182 36.0724 32.5476 36.0719C32.2132 36.0716 31.959 36.3101 31.9627 36.6224C31.9664 36.9183 32.2393 37.1677 32.5562 37.1667C32.8897 37.1657 33.2233 37.1664 33.5568 37.1667C33.5701 37.1667 33.5834 37.168 33.6046 37.169C33.5286 37.3602 33.4552 37.5462 33.3805 37.7316C33.3117 37.9024 33.2374 38.0715 33.1738 38.2441C33.1511 38.3062 33.1183 38.3192 33.0581 38.3189C32.5257 38.3171 31.9933 38.3171 31.461 38.3179C31.2374 38.3182 31.0536 38.4044 30.9383 38.5936C30.7367 38.9251 30.9274 39.3287 31.3259 39.3886C31.5506 39.4224 31.7829 39.4087 32.012 39.4119C32.252 39.415 32.4921 39.4125 32.7437 39.4125C32.6865 39.5555 32.6334 39.6903 32.5789 39.8245C32.2934 40.5278 32.0078 41.2308 31.722 41.9337C31.5511 42.3538 31.3802 42.7741 31.2083 43.1939C31.1254 43.3964 31.1128 43.5961 31.2433 43.7838C31.3711 43.9676 31.5617 44.0184 31.775 43.9945C31.9848 43.971 32.1308 43.857 32.2102 43.6643C32.3119 43.4177 32.4125 43.1708 32.5123 42.9235C32.7191 42.4108 32.9245 41.8975 33.1316 41.385C33.3893 40.7475 33.649 40.1108 33.905 39.4728C33.9259 39.4208 33.9494 39.4033 34.0066 39.4034C35.6382 39.4051 37.2697 39.4048 38.9013 39.4046C38.9443 39.4046 38.977 39.4039 38.998 39.4574C39.2733 40.1618 39.5526 40.8647 39.8301 41.5682C40.0986 42.2487 40.366 42.9294 40.6343 43.6098C40.7573 43.9215 41.1043 44.0166 41.3376 43.9241C41.6442 43.8027 41.7729 43.4837 41.6553 43.1894C41.4237 42.6098 41.1988 42.0276 40.9705 41.4469C40.7714 40.9403 40.571 40.434 40.3717 39.9274C40.3036 39.7544 40.2373 39.5807 40.1652 39.3947L40.1657 39.395ZM38.5209 38.3141H34.3768C34.3862 38.2852 34.3923 38.262 34.4012 38.2398C34.5349 37.9084 34.671 37.5779 34.8015 37.2453C34.8254 37.1844 34.8534 37.1645 34.921 37.1647C35.6803 37.167 36.4397 37.1654 37.199 37.1649C37.4903 37.1647 37.7815 37.1649 38.0745 37.1649C38.2234 37.548 38.3704 37.9267 38.5209 38.3141V38.3141ZM36.4409 33.0973C36.4475 33.097 36.4542 33.0968 36.4607 33.0965C36.8454 34.0806 37.2301 35.0646 37.6187 36.0589H35.2507C35.649 35.0678 36.0449 34.0826 36.4407 33.0973H36.4409Z" fill="#3F3D56"/>
</svg>
