<svg width="35" height="35" viewBox="0 0 35 35" fill="none" xmlns="http://www.w3.org/2000/svg">
<circle cx="17.5" cy="17.5" r="17.5" fill="#F6F9FF"/>
<g clip-path="url(#clip0_13235_4118)">
<path d="M23.75 12.875C22.505 12.875 21.5 13.88 21.5 15.125C21.5 15.1775 21.5 15.23 21.5075 15.2825L19.985 15.7925C19.505 14.885 18.62 14.225 17.57 14.0525V12.4325C18.53 12.1775 19.25 11.3 19.25 10.25C19.25 9.005 18.245 8 17 8C15.755 8 14.75 9.005 14.75 10.25C14.75 11.3 15.47 12.1775 16.4375 12.4325V14.0525C15.3875 14.225 14.5025 14.885 14.0225 15.7925L12.4925 15.2825C12.5 15.23 12.5 15.1775 12.5 15.125C12.5 13.88 11.495 12.875 10.25 12.875C9.005 12.875 8 13.88 8 15.125C8 16.37 9.005 17.375 10.25 17.375C11.045 17.375 11.735 16.9625 12.14 16.3475L13.6625 16.8575C13.5125 17.825 13.79 18.8525 14.48 19.625L13.4225 20.9525C13.1375 20.8175 12.83 20.75 12.5 20.75C11.255 20.75 10.25 21.755 10.25 23C10.25 24.245 11.255 25.25 12.5 25.25C13.745 25.25 14.75 24.245 14.75 23C14.75 22.49 14.585 22.025 14.3 21.65L15.3575 20.3225C16.3775 20.8925 17.6225 20.885 18.635 20.3225L19.6925 21.65C19.415 22.025 19.25 22.49 19.25 23C19.25 24.245 20.255 25.25 21.5 25.25C22.745 25.25 23.75 24.245 23.75 23C23.75 21.755 22.745 20.75 21.5 20.75C21.17 20.75 20.8625 20.8175 20.5775 20.945L19.52 19.6175C20.2175 18.8375 20.4875 17.8175 20.3375 16.85L21.86 16.34C22.2575 16.955 22.955 17.3675 23.75 17.3675C24.995 17.3675 26 16.3625 26 15.1175C26 13.8725 24.995 12.875 23.75 12.875ZM10.25 15.875C9.8375 15.875 9.5 15.5375 9.5 15.125C9.5 14.7125 9.8375 14.375 10.25 14.375C10.6625 14.375 11 14.7125 11 15.125C11 15.5375 10.6625 15.875 10.25 15.875ZM12.5 23.75C12.0875 23.75 11.75 23.4125 11.75 23C11.75 22.5875 12.0875 22.25 12.5 22.25C12.9125 22.25 13.25 22.5875 13.25 23C13.25 23.4125 12.9125 23.75 12.5 23.75ZM16.25 10.25C16.25 9.8375 16.5875 9.5 17 9.5C17.4125 9.5 17.75 9.8375 17.75 10.25C17.75 10.6625 17.4125 11 17 11C16.5875 11 16.25 10.6625 16.25 10.25ZM17 19.25C15.965 19.25 15.125 18.41 15.125 17.375C15.125 16.34 15.965 15.5 17 15.5C18.035 15.5 18.875 16.34 18.875 17.375C18.875 18.41 18.035 19.25 17 19.25ZM21.5 22.25C21.9125 22.25 22.25 22.5875 22.25 23C22.25 23.4125 21.9125 23.75 21.5 23.75C21.0875 23.75 20.75 23.4125 20.75 23C20.75 22.5875 21.0875 22.25 21.5 22.25ZM23.75 15.875C23.3375 15.875 23 15.5375 23 15.125C23 14.7125 23.3375 14.375 23.75 14.375C24.1625 14.375 24.5 14.7125 24.5 15.125C24.5 15.5375 24.1625 15.875 23.75 15.875Z" fill="#1E3A8F"/>
</g>
<defs>
<clipPath id="clip0_13235_4118">
<rect width="18" height="18" fill="white" transform="translate(8 8)"/>
</clipPath>
</defs>
</svg>
