<svg width="23" height="23" viewBox="0 0 23 23" fill="none" xmlns="http://www.w3.org/2000/svg">
  <path
    d="M11.0195 19.1667H5.26953C5.01537 19.1667 4.77161 19.0657 4.59189 18.886C4.41216 18.7062 4.3112 18.4625 4.3112 18.2083V4.79166C4.3112 4.53749 4.41216 4.29374 4.59189 4.11401C4.77161 3.93429 5.01537 3.83332 5.26953 3.83332H10.0612V6.70832C10.0612 7.47082 10.3641 8.20209 10.9033 8.74126C11.4424 9.28042 12.1737 9.58332 12.9362 9.58332H15.8112V14.375C15.8112 14.6292 15.9122 14.8729 16.0919 15.0526C16.2716 15.2324 16.5154 15.3333 16.7695 15.3333C17.0237 15.3333 17.2675 15.2324 17.4472 15.0526C17.6269 14.8729 17.7279 14.6292 17.7279 14.375V8.62499C17.7279 8.62499 17.7279 8.62499 17.7279 8.56749C17.7179 8.47945 17.6986 8.39272 17.6704 8.30874V8.22249C17.6243 8.12395 17.5628 8.03338 17.4883 7.95416L11.7383 2.20416C11.6591 2.12961 11.5685 2.06815 11.4699 2.02207C11.4382 2.01652 11.4058 2.01652 11.3741 2.02207C11.2809 1.97224 11.1808 1.93671 11.077 1.91666H5.26953C4.50703 1.91666 3.77577 2.21956 3.2366 2.75872C2.69743 3.29789 2.39453 4.02916 2.39453 4.79166V18.2083C2.39453 18.9708 2.69743 19.7021 3.2366 20.2413C3.77577 20.7804 4.50703 21.0833 5.26953 21.0833H11.0195C11.2737 21.0833 11.5175 20.9824 11.6972 20.8026C11.8769 20.6229 11.9779 20.3792 11.9779 20.125C11.9779 19.8708 11.8769 19.6271 11.6972 19.4473C11.5175 19.2676 11.2737 19.1667 11.0195 19.1667ZM11.9779 5.18457L14.4599 7.66666H12.9362C12.682 7.66666 12.4383 7.56569 12.2586 7.38597C12.0788 7.20624 11.9779 6.96249 11.9779 6.70832V5.18457ZM7.1862 13.4167H12.9362C13.1904 13.4167 13.4341 13.3157 13.6138 13.136C13.7936 12.9562 13.8945 12.7125 13.8945 12.4583C13.8945 12.2042 13.7936 11.9604 13.6138 11.7807C13.4341 11.601 13.1904 11.5 12.9362 11.5H7.1862C6.93203 11.5 6.68828 11.601 6.50855 11.7807C6.32883 11.9604 6.22786 12.2042 6.22786 12.4583C6.22786 12.7125 6.32883 12.9562 6.50855 13.136C6.68828 13.3157 6.93203 13.4167 7.1862 13.4167ZM11.0195 15.3333H7.1862C6.93203 15.3333 6.68828 15.4343 6.50855 15.614C6.32883 15.7937 6.22786 16.0375 6.22786 16.2917C6.22786 16.5458 6.32883 16.7896 6.50855 16.9693C6.68828 17.149 6.93203 17.25 7.1862 17.25H11.0195C11.2737 17.25 11.5175 17.149 11.6972 16.9693C11.8769 16.7896 11.9779 16.5458 11.9779 16.2917C11.9779 16.0375 11.8769 15.7937 11.6972 15.614C11.5175 15.4343 11.2737 15.3333 11.0195 15.3333ZM7.1862 9.58332H8.14453C8.3987 9.58332 8.64245 9.48236 8.82218 9.30263C9.0019 9.12291 9.10286 8.87916 9.10286 8.62499C9.10286 8.37082 9.0019 8.12707 8.82218 7.94735C8.64245 7.76762 8.3987 7.66666 8.14453 7.66666H7.1862C6.93203 7.66666 6.68828 7.76762 6.50855 7.94735C6.32883 8.12707 6.22786 8.37082 6.22786 8.62499C6.22786 8.87916 6.32883 9.12291 6.50855 9.30263C6.68828 9.48236 6.93203 9.58332 7.1862 9.58332ZM20.3249 15.6112C20.2359 15.5214 20.1299 15.4501 20.0131 15.4015C19.8963 15.3528 19.771 15.3278 19.6445 15.3278C19.518 15.3278 19.3928 15.3528 19.276 15.4015C19.1592 15.4501 19.0532 15.5214 18.9641 15.6112L15.8112 18.7737L14.5749 17.5279C14.4856 17.4386 14.3795 17.3677 14.2628 17.3193C14.146 17.271 14.0209 17.2461 13.8945 17.2461C13.7682 17.2461 13.643 17.271 13.5263 17.3193C13.4095 17.3677 13.3035 17.4386 13.2141 17.5279C13.1248 17.6173 13.0539 17.7233 13.0055 17.8401C12.9572 17.9568 12.9323 18.082 12.9323 18.2083C12.9323 18.3347 12.9572 18.4598 13.0055 18.5766C13.0539 18.6933 13.1248 18.7994 13.2141 18.8887L15.1308 20.8054C15.2199 20.8952 15.3259 20.9665 15.4426 21.0152C15.5594 21.0638 15.6847 21.0889 15.8112 21.0889C15.9377 21.0889 16.063 21.0638 16.1798 21.0152C16.2965 20.9665 16.4025 20.8952 16.4916 20.8054L20.3249 16.9721C20.4148 16.883 20.4861 16.777 20.5347 16.6602C20.5834 16.5434 20.6084 16.4182 20.6084 16.2917C20.6084 16.1651 20.5834 16.0399 20.5347 15.9231C20.4861 15.8063 20.4148 15.7003 20.3249 15.6112Z"
    fill="#434656"
  />
</svg>
