<svg width="24" height="24" viewBox="0 0 24 24" fill="none" xmlns="http://www.w3.org/2000/svg">
  <path
    d="M21.7119 15.5799L17.1919 11.0699C17.2865 10.6093 17.3334 10.1401 17.3319 9.66988C17.3316 8.38054 17.0062 7.11208 16.3858 5.98177C15.7655 4.85145 14.8703 3.89576 13.7828 3.20303C12.6954 2.51029 11.4508 2.10287 10.1643 2.01842C8.87768 1.93398 7.59057 2.17523 6.42191 2.71988C6.27384 2.78752 6.14453 2.89028 6.0452 3.01924C5.94586 3.1482 5.87951 3.29946 5.85191 3.45988C5.82441 3.61827 5.8355 3.78095 5.88424 3.93414C5.93298 4.08733 6.01794 4.22651 6.13191 4.33988L10.4819 8.67988L8.68191 10.4799L4.34191 6.12988C4.22757 6.01769 4.08796 5.9346 3.93482 5.88761C3.78168 5.84062 3.61949 5.83112 3.46191 5.85988C3.30249 5.88648 3.15189 5.95132 3.02301 6.04885C2.89413 6.14638 2.79082 6.27369 2.72191 6.41988C2.17543 7.59239 1.93439 8.88406 2.0212 10.1747C2.10801 11.4654 2.51985 12.7132 3.21842 13.802C3.91698 14.8907 4.87958 15.7851 6.01665 16.4019C7.15372 17.0188 8.42833 17.338 9.72191 17.3299C10.1921 17.3314 10.6613 17.2845 11.1219 17.1899L15.6319 21.7099C15.7249 21.8036 15.8355 21.878 15.9573 21.9288C16.0792 21.9795 16.2099 22.0057 16.3419 22.0057C16.4739 22.0057 16.6046 21.9795 16.7265 21.9288C16.8483 21.878 16.9589 21.8036 17.0519 21.7099C17.1456 21.6169 17.22 21.5063 17.2708 21.3845C17.3216 21.2626 17.3477 21.1319 17.3477 20.9999C17.3477 20.8679 17.3216 20.7372 17.2708 20.6153C17.22 20.4934 17.1456 20.3828 17.0519 20.2899L12.1519 15.3899C12.0295 15.2682 11.8776 15.1804 11.7111 15.1348C11.5447 15.0893 11.3692 15.0876 11.2019 15.1299C10.7191 15.2592 10.2217 15.3264 9.72191 15.3299C8.97396 15.3365 8.23209 15.195 7.53905 14.9137C6.846 14.6323 6.21548 14.2166 5.6838 13.6905C5.15211 13.1644 4.72978 12.5383 4.44112 11.8482C4.15247 11.1582 4.0032 10.4179 4.00191 9.66988C4.00061 9.3349 4.02737 9.0004 4.08191 8.66988L8.00191 12.5999C8.09487 12.6936 8.20547 12.768 8.32733 12.8188C8.44919 12.8695 8.57989 12.8957 8.71191 12.8957C8.84392 12.8957 8.97462 12.8695 9.09648 12.8188C9.21834 12.768 9.32894 12.6936 9.42191 12.5999L12.6019 9.38988C12.7821 9.20342 12.8829 8.95422 12.8829 8.69488C12.8829 8.43554 12.7821 8.18635 12.6019 7.99988L8.71191 4.07988C9.04249 4.0259 9.37695 3.99914 9.71191 3.99988C11.214 4.00253 12.6536 4.60108 13.7147 5.66412C14.7759 6.72716 15.3719 8.16784 15.3719 9.66988C15.3684 10.1697 15.3012 10.6671 15.1719 11.1499C15.1296 11.3172 15.1313 11.4926 15.1768 11.6591C15.2224 11.8256 15.3103 11.9774 15.4319 12.0999L20.3319 16.9999C20.5202 17.1882 20.7756 17.294 21.0419 17.294C21.3082 17.294 21.5636 17.1882 21.7519 16.9999C21.9402 16.8116 22.046 16.5562 22.046 16.2899C22.046 16.0236 21.9402 15.7682 21.7519 15.5799H21.7119Z"
    fill="#667085" />
</svg>