<svg width="136" height="101" viewBox="0 0 136 101" fill="none" xmlns="http://www.w3.org/2000/svg">
<g clip-path="url(#clip0_9923_53706)">
<path d="M67.8099 100.74C95.3184 100.74 117.62 78.4387 117.62 50.832C117.62 23.2253 95.2201 0.923828 67.8099 0.923828C40.3015 0.923828 18 23.2253 18 50.832C18 78.4387 40.3015 100.74 67.8099 100.74Z" fill="#F2F2F2"/>
<path d="M25.5 11.9238C27.9853 11.9238 30 9.90911 30 7.42383C30 4.93855 27.9853 2.92383 25.5 2.92383C23.0147 2.92383 21 4.93855 21 7.42383C21 9.90911 23.0147 11.9238 25.5 11.9238Z" fill="#F2F2F2"/>
<path d="M121.616 25.1568C123.614 25.1568 125.233 23.5376 125.233 21.5403C125.233 19.543 123.614 17.9238 121.616 17.9238C119.619 17.9238 118 19.543 118 21.5403C118 23.5376 119.619 25.1568 121.616 25.1568Z" fill="#F2F2F2"/>
<path d="M108.5 94.9238C109.881 94.9238 111 93.8045 111 92.4238C111 91.0431 109.881 89.9238 108.5 89.9238C107.119 89.9238 106 91.0431 106 92.4238C106 93.8045 107.119 94.9238 108.5 94.9238Z" fill="#F2F2F2"/>
<path d="M17 19.9238C18.1046 19.9238 19 19.0284 19 17.9238C19 16.8193 18.1046 15.9238 17 15.9238C15.8954 15.9238 15 16.8193 15 17.9238C15 19.0284 15.8954 19.9238 17 19.9238Z" fill="#F2F2F2"/>
<path d="M10.5 92.9238C14.0899 92.9238 17 90.0137 17 86.4238C17 82.834 14.0899 79.9238 10.5 79.9238C6.91015 79.9238 4 82.834 4 86.4238C4 90.0137 6.91015 92.9238 10.5 92.9238Z" fill="#F2F2F2"/>
<path d="M126 92.9238C128.761 92.9238 131 90.6853 131 87.9238C131 85.1624 128.761 82.9238 126 82.9238C123.239 82.9238 121 85.1624 121 87.9238C121 90.6853 123.239 92.9238 126 92.9238Z" fill="#F2F2F2"/>
<path d="M126 74.9238C127.657 74.9238 129 73.5807 129 71.9238C129 70.267 127.657 68.9238 126 68.9238C124.343 68.9238 123 70.267 123 71.9238C123 73.5807 124.343 74.9238 126 74.9238Z" fill="#F2F2F2"/>
<g filter="url(#filter0_d_9923_53706)">
<path d="M62.892 62.1372C62.7631 61.106 62.6342 60.0749 62.6342 58.9149C62.6342 54.6616 64.439 50.7949 68.9512 47.4438L72.8188 44.6083C75.2683 42.8038 76.2996 40.7416 76.2996 38.2927C76.2996 34.6838 73.7213 31.2038 68.3066 31.2038C62.6341 31.2038 60.1847 35.7149 60.1847 40.226C60.1847 41.1283 60.3136 42.0305 60.4425 42.8038L50.3868 42.4172C50.1289 41.2572 50 39.9683 50 38.8083C50 30.1727 56.446 21.9238 68.1777 21.9238C80.554 21.9238 87 29.6572 87 37.7772C87 44.0927 83.777 48.4749 79.1359 51.826L75.9129 54.146C73.0766 56.0794 71.6585 58.6572 71.6585 61.8794V62.3949H62.892V62.1372ZM67.4042 67.2927C70.885 67.2927 73.7212 70.1283 73.7212 73.6083C73.7212 77.0883 70.885 79.9238 67.4042 79.9238C63.9233 79.9238 61.0871 77.0883 61.0871 73.6083C61.0871 70.1283 63.9233 67.2927 67.4042 67.2927Z" fill="url(#paint0_linear_9923_53706)"/>
</g>
</g>
<defs>
<filter id="filter0_d_9923_53706" x="28" y="10.9238" width="81" height="102" filterUnits="userSpaceOnUse" color-interpolation-filters="sRGB">
<feFlood flood-opacity="0" result="BackgroundImageFix"/>
<feColorMatrix in="SourceAlpha" type="matrix" values="0 0 0 0 0 0 0 0 0 0 0 0 0 0 0 0 0 0 127 0" result="hardAlpha"/>
<feOffset dy="11"/>
<feGaussianBlur stdDeviation="11"/>
<feColorMatrix type="matrix" values="0 0 0 0 0.397708 0 0 0 0 0.47749 0 0 0 0 0.575 0 0 0 0.27 0"/>
<feBlend mode="normal" in2="BackgroundImageFix" result="effect1_dropShadow_9923_53706"/>
<feBlend mode="normal" in="SourceGraphic" in2="effect1_dropShadow_9923_53706" result="shape"/>
</filter>
<linearGradient id="paint0_linear_9923_53706" x1="68.5" y1="21.9238" x2="68.5" y2="79.9238" gradientUnits="userSpaceOnUse">
<stop stop-color="#6AD29D"/>
<stop offset="1" stop-color="#45936B"/>
</linearGradient>
<clipPath id="clip0_9923_53706">
<rect width="135" height="100" fill="white" transform="translate(0.5 0.923828)"/>
</clipPath>
</defs>
</svg>
