<svg width="24" height="24" viewBox="0 0 24 24" fill="none" xmlns="http://www.w3.org/2000/svg">
<path opacity="0.1" fill-rule="evenodd" clip-rule="evenodd" d="M0 12C0 5.37258 5.37258 0 12 0C18.6274 0 24 5.37258 24 12C24 18.6274 18.6274 24 12 24C5.37258 24 0 18.6274 0 12Z" fill="white"/>
<g clip-path="url(#clip0_468_4222)">
<path d="M19.7925 11.9835C19.7925 12.3027 19.7113 12.593 19.5489 12.8544C19.3866 13.1158 19.1678 13.3153 18.8927 13.4528C18.9587 13.706 18.9917 13.9701 18.9917 14.2453C18.9917 15.0983 18.6987 15.888 18.1126 16.6144C17.5265 17.3408 16.7272 17.9145 15.7146 18.3355C14.702 18.7565 13.6014 18.967 12.4127 18.967C11.2241 18.967 10.1248 18.7565 9.11498 18.3355C8.10515 17.9145 7.30719 17.3408 6.72111 16.6144C6.13502 15.888 5.84198 15.0983 5.84198 14.2453C5.84198 13.9866 5.87225 13.728 5.93278 13.4693C5.65212 13.3318 5.42649 13.1295 5.2559 12.8626C5.0853 12.5957 5 12.3027 5 11.9835C5 11.5322 5.15959 11.1456 5.47877 10.8237C5.79796 10.5018 6.18593 10.3408 6.64269 10.3408C7.11046 10.3408 7.50943 10.5142 7.83962 10.8608C9.03931 10.0244 10.4564 9.57862 12.0908 9.52358L13.0483 5.22288C13.0649 5.15134 13.1061 5.09355 13.1722 5.04953C13.2382 5.0055 13.3097 4.99175 13.3868 5.00825L16.4328 5.67689C16.5318 5.47327 16.6804 5.30955 16.8785 5.18573C17.0767 5.06191 17.294 5 17.5307 5C17.8719 5 18.1635 5.11969 18.4057 5.35908C18.6478 5.59847 18.7689 5.88876 18.7689 6.22995C18.7689 6.57115 18.6478 6.86281 18.4057 7.10495C18.1635 7.34709 17.8719 7.46816 17.5307 7.46816C17.1895 7.46816 16.8992 7.34847 16.6598 7.10908C16.4204 6.86969 16.3007 6.5794 16.3007 6.23821L13.5436 5.62736L12.6851 9.52358C14.3361 9.57311 15.7642 10.0134 16.9693 10.8443C17.2885 10.5086 17.682 10.3408 18.1498 10.3408C18.6065 10.3408 18.9945 10.5018 19.3137 10.8237C19.6329 11.1456 19.7925 11.5322 19.7925 11.9835ZM8.45047 13.6262C8.45047 13.9674 8.57017 14.259 8.80955 14.5012C9.04894 14.7433 9.33923 14.8644 9.68042 14.8644C10.0216 14.8644 10.3133 14.7433 10.5554 14.5012C10.7976 14.259 10.9186 13.9674 10.9186 13.6262C10.9186 13.285 10.7976 12.9947 10.5554 12.7553C10.3133 12.5159 10.0216 12.3962 9.68042 12.3962C9.34473 12.3962 9.05582 12.5173 8.81368 12.7594C8.57154 13.0016 8.45047 13.2905 8.45047 13.6262ZM15.1368 16.5566C15.1973 16.4961 15.2276 16.4245 15.2276 16.342C15.2276 16.2594 15.1973 16.1879 15.1368 16.1274C15.0818 16.0723 15.013 16.0448 14.9304 16.0448C14.8479 16.0448 14.7763 16.0723 14.7158 16.1274C14.4902 16.3585 14.1572 16.5291 13.717 16.6392C13.2767 16.7492 12.8365 16.8042 12.3962 16.8042C11.956 16.8042 11.5157 16.7492 11.0755 16.6392C10.6352 16.5291 10.3023 16.3585 10.0767 16.1274C10.0161 16.0723 9.94458 16.0448 9.86203 16.0448C9.77948 16.0448 9.71069 16.0723 9.65566 16.1274C9.59513 16.1824 9.56486 16.2526 9.56486 16.3379C9.56486 16.4232 9.59513 16.4961 9.65566 16.5566C9.8923 16.7932 10.2184 16.9803 10.6338 17.1179C11.0493 17.2555 11.3864 17.3367 11.645 17.3614C11.9037 17.3862 12.1541 17.3986 12.3962 17.3986C12.6384 17.3986 12.8888 17.3862 13.1474 17.3614C13.4061 17.3367 13.7431 17.2555 14.1586 17.1179C14.5741 16.9803 14.9002 16.7932 15.1368 16.5566ZM15.112 14.8644C15.4532 14.8644 15.7435 14.7433 15.9829 14.5012C16.2223 14.259 16.342 13.9674 16.342 13.6262C16.342 13.2905 16.2209 13.0016 15.9788 12.7594C15.7366 12.5173 15.4477 12.3962 15.112 12.3962C14.7708 12.3962 14.4792 12.5159 14.237 12.7553C13.9949 12.9947 13.8738 13.285 13.8738 13.6262C13.8738 13.9674 13.9949 14.259 14.237 14.5012C14.4792 14.7433 14.7708 14.8644 15.112 14.8644Z" fill="white"/>
</g>
<defs>
<clipPath id="clip0_468_4222">
<rect width="14.7925" height="14" fill="white" transform="translate(5 5)"/>
</clipPath>
</defs>
</svg>
