<svg width="38" height="38" viewBox="0 0 38 38" fill="none" xmlns="http://www.w3.org/2000/svg">
<rect width="38" height="38" rx="19" fill="#116A54"/>
<path d="M20.3542 19.2288C20.91 18.7477 21.3558 18.1527 21.6614 17.4841C21.9669 16.8155 22.125 16.089 22.125 15.3538C22.125 13.9725 21.5763 12.6477 20.5996 11.671C19.6228 10.6942 18.298 10.1455 16.9167 10.1455C15.5354 10.1455 14.2106 10.6942 13.2339 11.671C12.2571 12.6477 11.7084 13.9725 11.7084 15.3538C11.7084 16.089 11.8665 16.8155 12.172 17.4841C12.4776 18.1527 12.9234 18.7477 13.4792 19.2288C12.021 19.8891 10.7839 20.9554 9.91565 22.3002C9.04743 23.645 8.58491 25.2115 8.58337 26.8122C8.58337 27.0884 8.69312 27.3534 8.88847 27.5487C9.08382 27.7441 9.34877 27.8538 9.62504 27.8538C9.90131 27.8538 10.1663 27.7441 10.3616 27.5487C10.557 27.3534 10.6667 27.0884 10.6667 26.8122C10.6667 25.1546 11.3252 23.5649 12.4973 22.3928C13.6694 21.2207 15.2591 20.5622 16.9167 20.5622C18.5743 20.5622 20.164 21.2207 21.3361 22.3928C22.5082 23.5649 23.1667 25.1546 23.1667 26.8122C23.1667 27.0884 23.2765 27.3534 23.4718 27.5487C23.6672 27.7441 23.9321 27.8538 24.2084 27.8538C24.4846 27.8538 24.7496 27.7441 24.9449 27.5487C25.1403 27.3534 25.25 27.0884 25.25 26.8122C25.2485 25.2115 24.786 23.645 23.9178 22.3002C23.0496 20.9554 21.8124 19.8891 20.3542 19.2288V19.2288ZM16.9167 18.4788C16.2986 18.4788 15.6945 18.2956 15.1805 17.9522C14.6666 17.6088 14.2661 17.1207 14.0296 16.5497C13.7931 15.9787 13.7312 15.3504 13.8518 14.7442C13.9723 14.138 14.27 13.5812 14.707 13.1441C15.144 12.7071 15.7009 12.4095 16.307 12.2889C16.9132 12.1683 17.5416 12.2302 18.1126 12.4667C18.6836 12.7032 19.1717 13.1038 19.515 13.6177C19.8584 14.1316 20.0417 14.7358 20.0417 15.3538C20.0417 16.1826 19.7125 16.9775 19.1264 17.5635C18.5404 18.1496 17.7455 18.4788 16.9167 18.4788ZM29.1146 16.0101C29.0178 15.9125 28.9026 15.835 28.7756 15.7821C28.6487 15.7292 28.5126 15.702 28.375 15.702C28.2375 15.702 28.1014 15.7292 27.9744 15.7821C27.8475 15.835 27.7323 15.9125 27.6355 16.0101L25.5521 18.0934L24.9063 17.4372C24.8095 17.3395 24.6942 17.262 24.5673 17.2092C24.4404 17.1563 24.3042 17.1291 24.1667 17.1291C24.0292 17.1291 23.893 17.1563 23.7661 17.2092C23.6392 17.262 23.524 17.3395 23.4271 17.4372C23.2331 17.6323 23.1242 17.8964 23.1242 18.1715C23.1242 18.4467 23.2331 18.7108 23.4271 18.9059L24.823 20.3018C25.0181 20.4958 25.2821 20.6047 25.5573 20.6047C25.8325 20.6047 26.0965 20.4958 26.2917 20.3018L29.073 17.5205C29.1781 17.4261 29.263 17.3112 29.3223 17.1829C29.3817 17.0546 29.4143 16.9156 29.4182 16.7742C29.4221 16.6329 29.3972 16.4923 29.345 16.3609C29.2928 16.2296 29.2144 16.1102 29.1146 16.0101V16.0101Z" fill="#EDFCF8"/>
</svg>
