<svg xmlns="http://www.w3.org/2000/svg" width="30" height="30" viewBox="0 0 30 30" fill="none">
<rect width="30" height="30" rx="15" fill="#0052CC"/>
<path d="M21.9826 18.0969H17.9856C17.7516 18.0969 17.5271 18.1898 17.3617 18.3553C17.1962 18.5208 17.1032 18.7452 17.1032 18.9792C17.1032 19.2132 17.1962 19.4377 17.3617 19.6031C17.5271 19.7686 17.7516 19.8616 17.9856 19.8616H20.1032C19.1299 20.8787 17.8748 21.5815 16.499 21.8799C15.1231 22.1782 13.6896 22.0583 12.3824 21.5356C11.0753 21.0129 9.95428 20.1114 9.16344 18.9467C8.37261 17.7821 7.94808 16.4076 7.94439 14.9998C7.94439 14.7658 7.85143 14.5414 7.68596 14.3759C7.52049 14.2104 7.29605 14.1174 7.06204 14.1174C6.82803 14.1174 6.6036 14.2104 6.43812 14.3759C6.27265 14.5414 6.17969 14.7658 6.17969 14.9998C6.18435 16.7229 6.69341 18.4068 7.64404 19.8439C8.59468 21.281 9.94528 22.4084 11.5292 23.0868C13.1131 23.7652 14.8609 23.965 16.5571 23.6615C18.2532 23.3581 19.8234 22.5647 21.0738 21.3792V22.941C21.0738 23.175 21.1668 23.3994 21.3322 23.5649C21.4977 23.7304 21.7221 23.8233 21.9562 23.8233C22.1902 23.8233 22.4146 23.7304 22.5801 23.5649C22.7456 23.3994 22.8385 23.175 22.8385 22.941V18.9704C22.8363 18.7424 22.746 18.5241 22.5864 18.3613C22.4269 18.1985 22.2105 18.1037 21.9826 18.0969ZM15.0032 6.17627C12.7412 6.18272 10.5681 7.05766 8.93263 8.62039V7.05862C8.93263 6.82461 8.83967 6.60018 8.67419 6.4347C8.50872 6.26923 8.28429 6.17627 8.05028 6.17627C7.81626 6.17627 7.59183 6.26923 7.42636 6.4347C7.26088 6.60018 7.16792 6.82461 7.16792 7.05862V11.0292C7.16792 11.2632 7.26088 11.4877 7.42636 11.6531C7.59183 11.8186 7.81626 11.9116 8.05028 11.9116H12.0209C12.2549 11.9116 12.4793 11.8186 12.6448 11.6531C12.8103 11.4877 12.9032 11.2632 12.9032 11.0292C12.9032 10.7952 12.8103 10.5708 12.6448 10.4053C12.4793 10.2398 12.2549 10.1469 12.0209 10.1469H9.90322C10.876 9.13027 12.1304 8.42759 13.5053 8.12901C14.8803 7.83043 16.3131 7.94957 17.6199 8.47115C18.9267 8.99272 20.0478 9.89293 20.8393 11.0562C21.6308 12.2195 22.0566 13.5928 22.062 14.9998C22.062 15.2338 22.155 15.4582 22.3205 15.6237C22.4859 15.7892 22.7104 15.8822 22.9444 15.8822C23.1784 15.8822 23.4028 15.7892 23.5683 15.6237C23.7338 15.4582 23.8267 15.2338 23.8267 14.9998C23.8267 13.8411 23.5985 12.6937 23.1551 11.6232C22.7117 10.5527 22.0617 9.57996 21.2424 8.76062C20.4231 7.94128 19.4504 7.29134 18.3798 6.84792C17.3093 6.4045 16.1619 6.17627 15.0032 6.17627Z" fill="white"/>
</svg>
