<svg width="14" height="24" viewBox="0 0 19 20" fill="none" xmlns="http://www.w3.org/2000/svg">
<path d="M5.42301 17.1448L4.37406 16.0958L6.03656 14.4531C4.59836 14.5191 3.3119 14.054 2.17718 13.0578C1.04246 12.0616 0.475098 10.7389 0.475098 9.08956C0.475098 7.49303 1.02926 6.1373 2.1376 5.02237C3.24593 3.90744 4.60496 3.34998 6.21468 3.34998H8.76781V4.79477H6.21468C5.02718 4.79477 4.01451 5.21369 3.17666 6.05154C2.33881 6.88939 1.91989 7.90206 1.91989 9.08956C1.91989 10.3034 2.32892 11.2798 3.14697 12.0187C3.96503 12.7576 4.9744 13.1139 6.1751 13.0875L4.37406 11.2864L5.40322 10.2573L8.84697 13.701L5.42301 17.1448ZM10.2324 16.65V10.7323H17.7334V16.65H10.2324ZM10.2324 9.26768V3.34998H17.7334V9.26768H10.2324ZM11.7959 7.70414H16.1699V4.91352H11.7959V7.70414Z" fill="#434656"/>
</svg>
