<svg width="181" height="123" viewBox="0 0 181 123" fill="none" xmlns="http://www.w3.org/2000/svg">
<rect x="0.5" width="180" height="123" rx="5" fill="#184C78" fill-opacity="0.1"/>
<path fill-rule="evenodd" clip-rule="evenodd" d="M107.291 71L103.373 66.3358C111.022 64.2836 114.007 59.0597 114.007 59.0597C104.306 68.2015 77.8134 68.5746 67.5522 59.0597C67.5522 59.0597 70.1642 63.9104 78 66.3358L73.709 71C60.6493 70.8134 55.6119 62.0448 55.6119 62.0448C55.6119 42.6418 64.194 27.1567 64.194 27.1567C72.9627 21 80.9851 21 80.9851 21L81.5448 21.7463C70.7239 24.7313 66.0597 29.5821 66.0597 29.5821C78.7463 21 104.866 21.7463 115.127 29.5821C115.313 29.3955 108.97 24.3582 99.0821 21.7463L100.015 21C100.015 21 108.037 21 116.806 27.1567C116.806 27.1567 125.388 42.6418 125.388 62.0448C125.388 62.0448 120.351 70.8134 107.291 71ZM79.3055 56.4474C82.7057 56.4474 85.4622 53.5239 85.4622 49.9175C85.4622 46.3112 82.7057 43.3877 79.3055 43.3877C75.9052 43.3877 73.1488 46.3112 73.1488 49.9175C73.1488 53.5239 75.9052 56.4474 79.3055 56.4474ZM107.104 49.9175C107.104 53.5239 104.347 56.4474 100.947 56.4474C97.5469 56.4474 94.7904 53.5239 94.7904 49.9175C94.7904 46.3112 97.5469 43.3877 100.947 43.3877C104.347 43.3877 107.104 46.3112 107.104 49.9175Z" fill="#438F68"/>
<path d="M61.5191 87.2H64.7391C65.9524 87.2 66.8391 87.4893 67.3991 88.068C67.9591 88.6467 68.2391 89.5707 68.2391 90.84V93.36C68.2391 94.6293 67.9591 95.5533 67.3991 96.132C66.8391 96.7107 65.9524 97 64.7391 97H61.5191V95.894H62.3591V88.292H61.5191V87.2ZM64.5711 95.908C65.0004 95.908 65.3691 95.866 65.6771 95.782C65.9944 95.698 66.2557 95.558 66.4611 95.362C66.6664 95.1567 66.8157 94.886 66.9091 94.55C67.0117 94.214 67.0631 93.7893 67.0631 93.276V90.924C67.0631 90.4107 67.0117 89.986 66.9091 89.65C66.8157 89.314 66.6664 89.048 66.4611 88.852C66.2557 88.6467 65.9944 88.502 65.6771 88.418C65.3691 88.334 65.0004 88.292 64.5711 88.292H63.5351V95.908H64.5711ZM72.4433 87.984C72.4433 87.7133 72.5367 87.4847 72.7233 87.298C72.9193 87.102 73.1527 87.004 73.4233 87.004C73.694 87.004 73.9227 87.102 74.1093 87.298C74.3053 87.4847 74.4033 87.7133 74.4033 87.984C74.4033 88.2547 74.3053 88.488 74.1093 88.684C73.9227 88.8707 73.694 88.964 73.4233 88.964C73.1527 88.964 72.9193 88.8707 72.7233 88.684C72.5367 88.488 72.4433 88.2547 72.4433 87.984ZM70.4553 95.992H72.8913V91.064H70.7073V90.056H73.9833V95.992H76.2513V97H70.4553V95.992ZM80.3016 91.848C80.3016 92.184 80.4416 92.4407 80.7216 92.618C81.0109 92.7953 81.5336 92.912 82.2896 92.968C83.1016 93.0333 83.7176 93.2293 84.1376 93.556C84.5669 93.8733 84.7816 94.34 84.7816 94.956V95.04C84.7816 95.376 84.7116 95.6793 84.5716 95.95C84.4409 96.2113 84.2543 96.4353 84.0116 96.622C83.7783 96.8087 83.4889 96.9487 83.1436 97.042C82.8076 97.1447 82.4389 97.196 82.0376 97.196C81.4963 97.196 81.0296 97.126 80.6376 96.986C80.2549 96.8367 79.9329 96.6453 79.6716 96.412C79.4196 96.1693 79.2283 95.8987 79.0976 95.6C78.9669 95.292 78.8923 94.984 78.8736 94.676L79.9096 94.424C79.9563 94.956 80.1616 95.3853 80.5256 95.712C80.8896 96.0293 81.3749 96.188 81.9816 96.188C82.4949 96.188 82.9056 96.09 83.2136 95.894C83.5309 95.6887 83.6896 95.404 83.6896 95.04C83.6896 94.648 83.5356 94.368 83.2276 94.2C82.9196 94.032 82.4203 93.9247 81.7296 93.878C80.9269 93.822 80.3109 93.6353 79.8816 93.318C79.4523 93.0007 79.2376 92.5387 79.2376 91.932V91.848C79.2376 91.5213 79.3076 91.2367 79.4476 90.994C79.5876 90.742 79.7743 90.532 80.0076 90.364C80.2503 90.196 80.5209 90.07 80.8196 89.986C81.1183 89.902 81.4309 89.86 81.7576 89.86C82.2149 89.86 82.6163 89.9253 82.9616 90.056C83.3069 90.1773 83.5963 90.3407 83.8296 90.546C84.0629 90.742 84.2403 90.9707 84.3616 91.232C84.4923 91.4933 84.5763 91.7547 84.6136 92.016L83.5776 92.268C83.5309 91.82 83.3489 91.47 83.0316 91.218C82.7236 90.966 82.3176 90.84 81.8136 90.84C81.6176 90.84 81.4263 90.8633 81.2396 90.91C81.0623 90.9473 80.9036 91.008 80.7636 91.092C80.6236 91.176 80.5116 91.2833 80.4276 91.414C80.3436 91.5353 80.3016 91.68 80.3016 91.848ZM93.9279 94.536C93.8532 94.9187 93.7225 95.2733 93.5359 95.6C93.3585 95.9267 93.1299 96.2113 92.8499 96.454C92.5699 96.6873 92.2432 96.8693 91.8699 97C91.4965 97.1307 91.0812 97.196 90.6239 97.196C90.1385 97.196 89.6765 97.1167 89.2379 96.958C88.8085 96.7993 88.4305 96.5707 88.1039 96.272C87.7772 95.964 87.5159 95.5907 87.3199 95.152C87.1332 94.7133 87.0399 94.2093 87.0399 93.64V93.472C87.0399 92.912 87.1332 92.408 87.3199 91.96C87.5159 91.512 87.7772 91.134 88.1039 90.826C88.4305 90.518 88.8085 90.28 89.2379 90.112C89.6765 89.944 90.1385 89.86 90.6239 89.86C91.0625 89.86 91.4685 89.9253 91.8419 90.056C92.2152 90.1867 92.5419 90.3733 92.8219 90.616C93.1112 90.8493 93.3445 91.1293 93.5219 91.456C93.7085 91.7827 93.8345 92.1373 93.8999 92.52L92.8079 92.772C92.7799 92.5293 92.7099 92.296 92.5979 92.072C92.4952 91.8387 92.3505 91.638 92.1639 91.47C91.9865 91.2927 91.7672 91.1527 91.5059 91.05C91.2445 90.9473 90.9412 90.896 90.5959 90.896C90.2599 90.896 89.9425 90.9613 89.6439 91.092C89.3545 91.2133 89.0979 91.3907 88.8739 91.624C88.6499 91.848 88.4725 92.1187 88.3419 92.436C88.2205 92.7533 88.1599 93.0987 88.1599 93.472V93.64C88.1599 94.032 88.2205 94.3867 88.3419 94.704C88.4725 95.012 88.6499 95.2733 88.8739 95.488C89.0979 95.7027 89.3592 95.8707 89.6579 95.992C89.9565 96.104 90.2785 96.16 90.6239 96.16C90.9692 96.16 91.2679 96.1087 91.5199 96.006C91.7812 95.894 92.0005 95.754 92.1779 95.586C92.3645 95.4087 92.5092 95.208 92.6119 94.984C92.7239 94.76 92.7985 94.5267 92.8359 94.284L93.9279 94.536ZM102.556 93.612C102.556 94.1907 102.458 94.704 102.262 95.152C102.075 95.5907 101.823 95.964 101.506 96.272C101.189 96.5707 100.815 96.7993 100.386 96.958C99.9661 97.1167 99.5275 97.196 99.0701 97.196C98.6035 97.196 98.1601 97.1167 97.7401 96.958C97.3201 96.7993 96.9515 96.5707 96.6341 96.272C96.3168 95.964 96.0601 95.5907 95.8641 95.152C95.6775 94.704 95.5841 94.1907 95.5841 93.612V93.444C95.5841 92.8747 95.6775 92.3707 95.8641 91.932C96.0601 91.484 96.3168 91.106 96.6341 90.798C96.9608 90.49 97.3341 90.2567 97.7541 90.098C98.1741 89.9393 98.6128 89.86 99.0701 89.86C99.5275 89.86 99.9661 89.9393 100.386 90.098C100.806 90.2567 101.175 90.49 101.492 90.798C101.819 91.106 102.075 91.484 102.262 91.932C102.458 92.3707 102.556 92.8747 102.556 93.444V93.612ZM99.0701 96.16C99.4061 96.16 99.7141 96.104 99.9941 95.992C100.283 95.8707 100.535 95.698 100.75 95.474C100.965 95.25 101.133 94.984 101.254 94.676C101.375 94.3587 101.436 94.004 101.436 93.612V93.444C101.436 93.0707 101.375 92.73 101.254 92.422C101.133 92.1047 100.965 91.834 100.75 91.61C100.535 91.386 100.283 91.2133 99.9941 91.092C99.7048 90.9613 99.3968 90.896 99.0701 90.896C98.7435 90.896 98.4355 90.9613 98.1461 91.092C97.8568 91.2133 97.6048 91.386 97.3901 91.61C97.1755 91.834 97.0075 92.1047 96.8861 92.422C96.7648 92.73 96.7041 93.0707 96.7041 93.444V93.612C96.7041 94.004 96.7648 94.3587 96.8861 94.676C97.0075 94.984 97.1755 95.25 97.3901 95.474C97.6048 95.698 97.8521 95.8707 98.1321 95.992C98.4215 96.104 98.7341 96.16 99.0701 96.16ZM104.184 90.056H106.704V90.98H106.872C107.05 90.5973 107.302 90.3173 107.628 90.14C107.955 89.9533 108.328 89.86 108.748 89.86C109.448 89.86 110.013 90.0887 110.442 90.546C110.872 91.0033 111.1 91.6707 111.128 92.548L109.98 92.716C109.98 92.072 109.826 91.61 109.518 91.33C109.21 91.0407 108.832 90.896 108.384 90.896C108.095 90.896 107.843 90.952 107.628 91.064C107.423 91.176 107.25 91.33 107.11 91.526C106.97 91.722 106.868 91.9507 106.802 92.212C106.737 92.4733 106.704 92.7533 106.704 93.052V95.992H108.468V97H104.016V95.992H105.612V91.064H104.184V90.056ZM118.525 95.936H118.357C118.245 96.1507 118.1 96.3373 117.923 96.496C117.755 96.6547 117.568 96.7853 117.363 96.888C117.167 96.9907 116.957 97.0653 116.733 97.112C116.509 97.168 116.294 97.196 116.089 97.196C115.622 97.196 115.188 97.1167 114.787 96.958C114.385 96.7993 114.031 96.5707 113.723 96.272C113.424 95.9733 113.186 95.6047 113.009 95.166C112.841 94.718 112.757 94.2093 112.757 93.64V93.416C112.757 92.856 112.845 92.3567 113.023 91.918C113.2 91.47 113.438 91.0967 113.737 90.798C114.035 90.49 114.385 90.2567 114.787 90.098C115.188 89.9393 115.613 89.86 116.061 89.86C116.537 89.86 116.98 89.9673 117.391 90.182C117.811 90.3873 118.133 90.7093 118.357 91.148H118.525V87.2H119.617V97H118.525V95.936ZM116.201 96.16C116.527 96.16 116.831 96.0993 117.111 95.978C117.391 95.8567 117.633 95.684 117.839 95.46C118.053 95.236 118.221 94.97 118.343 94.662C118.464 94.3447 118.525 93.9947 118.525 93.612V93.444C118.525 93.0707 118.464 92.73 118.343 92.422C118.221 92.1047 118.053 91.834 117.839 91.61C117.633 91.386 117.386 91.2133 117.097 91.092C116.817 90.9613 116.518 90.896 116.201 90.896C115.874 90.896 115.566 90.9567 115.277 91.078C114.997 91.1993 114.749 91.372 114.535 91.596C114.329 91.82 114.166 92.086 114.045 92.394C113.933 92.702 113.877 93.0427 113.877 93.416V93.64C113.877 94.032 113.933 94.382 114.045 94.69C114.166 94.998 114.329 95.264 114.535 95.488C114.749 95.7027 114.997 95.8707 115.277 95.992C115.557 96.104 115.865 96.16 116.201 96.16Z" fill="black"/>
</svg>
