<svg width="181" height="123" viewBox="0 0 181 123" fill="none" xmlns="http://www.w3.org/2000/svg">
<rect x="0.5" width="180" height="123" rx="5" fill="#184C78" fill-opacity="0.1"/>
<path d="M119.667 21H61.3334C60.2283 21 59.1685 21.439 58.3871 22.2204C57.6057 23.0018 57.1667 24.0616 57.1667 25.1667V66.8333C57.1667 67.9384 57.6057 68.9982 58.3871 69.7796C59.1685 70.561 60.2283 71 61.3334 71H119.667C120.772 71 121.832 70.561 122.613 69.7796C123.394 68.9982 123.833 67.9384 123.833 66.8333V25.1667C123.833 24.0616 123.394 23.0018 122.613 22.2204C121.832 21.439 120.772 21 119.667 21ZM116.458 66.8333H64.7917L79.3751 51.75L76.3751 48.8542L61.3334 64.4167V28.3333L87.2292 54.1042C88.0099 54.8802 89.066 55.3158 90.1667 55.3158C91.2675 55.3158 92.3236 54.8802 93.1042 54.1042L119.667 27.6875V64.1458L104.333 48.8125L101.396 51.75L116.458 66.8333ZM64.0626 25.1667H116.292L90.1667 51.1458L64.0626 25.1667Z" fill="#438F68"/>
<path d="M70.3853 87.2H76.3213V88.292H71.5613V91.54H76.2373V92.632H71.5613V95.908H76.4053V97H70.3853V87.2ZM85.5376 97H84.4456V92.016C84.4456 91.6893 84.3709 91.4233 84.2216 91.218C84.0723 91.0033 83.8343 90.896 83.5076 90.896C83.1996 90.896 82.9476 91.0127 82.7516 91.246C82.5649 91.47 82.4716 91.82 82.4716 92.296V97H81.3796V91.96C81.3796 91.652 81.2956 91.4 81.1276 91.204C80.9596 90.9987 80.7356 90.896 80.4556 90.896C80.1196 90.896 79.8583 91.0173 79.6716 91.26C79.4943 91.5027 79.4056 91.82 79.4056 92.212V97H78.3136V90.056H79.4056V90.812H79.5736C79.6949 90.4853 79.8723 90.2473 80.1056 90.098C80.3389 89.9393 80.6143 89.86 80.9316 89.86C81.2676 89.86 81.5429 89.9487 81.7576 90.126C81.9816 90.3033 82.1356 90.532 82.2196 90.812H82.3876C82.7049 90.1773 83.2089 89.86 83.8996 89.86C84.4223 89.86 84.8236 90.028 85.1036 90.364C85.3929 90.6907 85.5376 91.12 85.5376 91.652V97ZM92.4719 95.824H92.3039C92.0799 96.2907 91.7672 96.636 91.3659 96.86C90.9739 97.084 90.5585 97.196 90.1199 97.196C89.6625 97.196 89.2379 97.1213 88.8459 96.972C88.4539 96.8133 88.1085 96.5847 87.8099 96.286C87.5205 95.978 87.2919 95.6047 87.1239 95.166C86.9559 94.7273 86.8719 94.2187 86.8719 93.64V93.416C86.8719 92.8467 86.9559 92.3427 87.1239 91.904C87.2919 91.4653 87.5205 91.0967 87.8099 90.798C88.1085 90.49 88.4539 90.2567 88.8459 90.098C89.2379 89.9393 89.6532 89.86 90.0919 89.86C90.5679 89.86 90.9972 89.9673 91.3799 90.182C91.7719 90.3873 92.0799 90.7093 92.3039 91.148H92.4719V90.056H93.5639V95.572C93.5639 95.852 93.6899 95.992 93.9419 95.992H94.2919V97H93.5499C93.2325 97 92.9712 96.8973 92.7659 96.692C92.5699 96.4867 92.4719 96.2253 92.4719 95.908V95.824ZM90.2319 96.16C90.5585 96.16 90.8572 96.0993 91.1279 95.978C91.4079 95.8567 91.6459 95.684 91.8419 95.46C92.0379 95.236 92.1919 94.97 92.3039 94.662C92.4159 94.3447 92.4719 93.9947 92.4719 93.612V93.444C92.4719 93.0707 92.4159 92.73 92.3039 92.422C92.1919 92.1047 92.0332 91.834 91.8279 91.61C91.6319 91.386 91.3939 91.2133 91.1139 91.092C90.8432 90.9613 90.5492 90.896 90.2319 90.896C89.9052 90.896 89.6065 90.9567 89.3359 91.078C89.0652 91.1993 88.8272 91.372 88.6219 91.596C88.4259 91.8107 88.2719 92.0767 88.1599 92.394C88.0479 92.702 87.9919 93.0427 87.9919 93.416V93.64C87.9919 94.4333 88.1972 95.054 88.6079 95.502C89.0279 95.9407 89.5692 96.16 90.2319 96.16ZM98.1601 87.984C98.1601 87.7133 98.2535 87.4847 98.4401 87.298C98.6361 87.102 98.8695 87.004 99.1401 87.004C99.4108 87.004 99.6395 87.102 99.8261 87.298C100.022 87.4847 100.12 87.7133 100.12 87.984C100.12 88.2547 100.022 88.488 99.8261 88.684C99.6395 88.8707 99.4108 88.964 99.1401 88.964C98.8695 88.964 98.6361 88.8707 98.4401 88.684C98.2535 88.488 98.1601 88.2547 98.1601 87.984ZM96.1721 95.992H98.6081V91.064H96.4241V90.056H99.7001V95.992H101.968V97H96.1721V95.992ZM104.576 95.992H107.096V88.208H104.66V87.2H108.188V95.992H110.708V97H104.576V95.992Z" fill="black"/>
</svg>
