<svg width="16" height="16" viewBox="0 0 16 16" fill="none" xmlns="http://www.w3.org/2000/svg">
<path d="M7.51302 14.2167C6.07969 14.0944 4.87413 13.5055 3.89635 12.45C2.91858 11.3944 2.42969 10.1444 2.42969 8.69999C2.42969 7.82221 2.62691 6.99999 3.02135 6.23332C3.4158 5.46665 3.96858 4.82776 4.67969 4.31665L5.61302 5.26665C5.03524 5.62221 4.57969 6.10832 4.24635 6.72499C3.91302 7.34165 3.74635 7.99999 3.74635 8.69999C3.74635 9.78888 4.10469 10.7278 4.82135 11.5167C5.53802 12.3055 6.43524 12.7611 7.51302 12.8833V14.2167ZM8.51302 14.2167V12.8833C9.60191 12.75 10.4991 12.2917 11.2047 11.5083C11.9102 10.725 12.263 9.78888 12.263 8.69999C12.263 7.54443 11.8686 6.55832 11.0797 5.74165C10.2908 4.92499 9.31858 4.49443 8.16302 4.44999H7.79635L8.84635 5.49999L8.04635 6.29999L5.49635 3.74999L8.04635 1.18332L8.84635 1.98332L7.69635 3.11665H8.06302C9.60747 3.11665 10.9158 3.6611 11.988 4.74999C13.0602 5.83887 13.5964 7.15554 13.5964 8.69999C13.5964 10.1444 13.1075 11.3944 12.1297 12.45C11.1519 13.5055 9.94635 14.0944 8.51302 14.2167Z" fill="#0052CC"/>
</svg>
