<svg width="19" height="19" viewBox="0 0 19 19" xmlns="http://www.w3.org/2000/svg">
<path d="M9.50016 1.58325C5.146 1.58325 1.5835 5.14575 1.5835 9.49992C1.5835 13.8541 5.146 17.4166 9.50016 17.4166C13.8543 17.4166 17.4168 13.8541 17.4168 9.49992C17.4168 5.14575 13.8543 1.58325 9.50016 1.58325ZM3.16683 9.49992C3.16683 6.01658 6.01683 3.16659 9.50016 3.16659C10.9252 3.16659 12.271 3.64159 13.3793 4.51242L4.51266 13.3791C3.64183 12.2708 3.16683 10.9249 3.16683 9.49992ZM9.50016 15.8333C8.07516 15.8333 6.72933 15.3583 5.621 14.4874L14.4877 5.62075C15.3585 6.72908 15.8335 8.07492 15.8335 9.49992C15.8335 12.9833 12.9835 15.8333 9.50016 15.8333Z" fill="white"/>
</svg>
