<svg width="80" height="80" viewBox="0 0 80 80" fill="none" xmlns="http://www.w3.org/2000/svg">
<g id="Group 1000002656">
<path id="Polygon 34" d="M35.25 3.31976C38.1893 1.62275 41.8107 1.62275 44.75 3.31976L69.391 17.5463C72.3303 19.2433 74.141 22.3795 74.141 25.7735V54.2265C74.141 57.6205 72.3303 60.7567 69.391 62.4537L44.75 76.6802C41.8107 78.3772 38.1893 78.3772 35.25 76.6802L10.609 62.4537C7.66967 60.7567 5.85898 57.6205 5.85898 54.2265V25.7735C5.85898 22.3795 7.66967 19.2433 10.609 17.5463L35.25 3.31976Z" stroke="#6C6F89"/>
<path id="Vector" d="M46.0317 39.0622C46.6068 39.0622 47.0929 38.8637 47.49 38.4665C47.8871 38.0694 48.0857 37.5833 48.0857 37.0082C48.0857 36.4331 47.8871 35.9538 47.49 35.5704C47.0929 35.187 46.6068 34.9953 46.0317 34.9953C45.4566 34.9953 44.9705 35.187 44.5734 35.5704C44.1763 35.9538 43.9777 36.4331 43.9777 37.0082C43.9777 37.5833 44.1831 38.0694 44.5939 38.4665C45.0047 38.8637 45.484 39.0622 46.0317 39.0622ZM32.1467 35.1596H41.1021V32.1197H32.1467V35.1596ZM26.2312 55.412C25.2727 52.2077 24.3279 49.0035 23.3967 45.7993C22.4656 42.5951 22 39.3087 22 35.9401C22 33.2563 22.9311 30.9763 24.7934 29.1004C26.6557 27.2244 28.9288 26.2864 31.6127 26.2864H40.4038C41.2527 25.2457 42.2729 24.4378 43.4642 23.8627C44.6555 23.2876 45.9221 23 47.2641 23C48.1131 23 48.832 23.2944 49.4208 23.8832C50.0096 24.472 50.304 25.1909 50.304 26.0399C50.304 26.2316 50.2835 26.4165 50.2424 26.5945C50.2013 26.7725 50.1534 26.9437 50.0986 27.108C50.0164 27.3818 49.9343 27.6489 49.8521 27.909C49.77 28.1692 49.7015 28.4362 49.6467 28.7101L52.9742 32.0376H57V44.5669L52.1115 46.0869L49.3592 55.412H39.2946V52.1256H36.2958V55.412H26.2312ZM28.696 52.1667H33.1326V48.8803H42.4167V52.1667H46.8944L49.4413 43.581L53.7136 42.1843V35.3239H51.5775L46.3192 30.0657C46.3466 29.4085 46.4356 28.758 46.5863 28.1144C46.7369 27.4709 46.8944 26.8204 47.0587 26.1631C46.0454 26.437 45.0937 26.8478 44.2036 27.3955C43.3136 27.9433 42.5947 28.669 42.0469 29.5728H31.6127C29.8326 29.5728 28.3263 30.189 27.0939 31.4214C25.8615 32.6538 25.2453 34.16 25.2453 35.9401C25.2453 38.7336 25.6356 41.4654 26.4161 44.1356C27.1966 46.8057 27.9566 49.4828 28.696 52.1667Z" fill="#BDBFCB"/>
</g>
</svg>
