<svg width="26" height="25" viewBox="0 0 26 25"  xmlns="http://www.w3.org/2000/svg">
<path fill="#434656" d="M22.2398 17.9687L19.4169 13.0937C19.9946 12.0328 20.2955 10.8434 20.2919 9.63542C20.2919 7.70155 19.5237 5.84688 18.1562 4.47943C16.7888 3.11198 14.9341 2.34375 13.0002 2.34375C11.0664 2.34375 9.2117 3.11198 7.84425 4.47943C6.4768 5.84688 5.70857 7.70155 5.70857 9.63542C5.70499 10.8434 6.00592 12.0328 6.58357 13.0937L3.76066 17.9687C3.66905 18.1274 3.62091 18.3074 3.62109 18.4906C3.62128 18.6738 3.66977 18.8537 3.76169 19.0122C3.8536 19.1707 3.98569 19.3021 4.14462 19.3933C4.30355 19.4844 4.4837 19.532 4.66691 19.5312H7.65649L9.17732 22.0937C9.22859 22.1787 9.29173 22.2558 9.36482 22.3229C9.55792 22.509 9.81537 22.6135 10.0836 22.6146H10.2294C10.3867 22.5931 10.5369 22.5359 10.6687 22.4474C10.8005 22.359 10.9103 22.2416 10.9898 22.1042L13.0002 18.6458L15.0107 22.1354C15.0913 22.2709 15.2017 22.3862 15.3334 22.4729C15.4651 22.5595 15.6148 22.615 15.7711 22.6354H15.9169C16.1887 22.637 16.4504 22.5324 16.6461 22.3438C16.7161 22.2805 16.7759 22.2067 16.8232 22.125L18.344 19.5625H21.3336C21.5171 19.5632 21.6976 19.5154 21.8568 19.424C22.0159 19.3325 22.148 19.2006 22.2398 19.0417C22.3372 18.8797 22.3886 18.6942 22.3886 18.5052C22.3886 18.3162 22.3372 18.1308 22.2398 17.9687ZM10.0732 19.5625L9.14607 18.0104C9.05478 17.8564 8.92535 17.7286 8.77026 17.6392C8.61517 17.5498 8.43966 17.5018 8.26066 17.5H6.45857L7.94816 14.9167C8.97391 15.9051 10.2667 16.5714 11.6669 16.8333L10.0732 19.5625ZM13.0002 14.8438C11.9701 14.8438 10.9632 14.5383 10.1066 13.966C9.25014 13.3937 8.58257 12.5803 8.18837 11.6286C7.79416 10.6769 7.69102 9.62964 7.89198 8.61932C8.09295 7.609 8.58899 6.68097 9.31739 5.95257C10.0458 5.22417 10.9738 4.72812 11.9841 4.52716C12.9945 4.3262 14.0417 4.42934 14.9934 4.82354C15.9451 5.21775 16.7585 5.88532 17.3308 6.74182C17.9031 7.59833 18.2086 8.60531 18.2086 9.63542C18.2086 11.0168 17.6598 12.3415 16.6831 13.3183C15.7063 14.295 14.3816 14.8437 13.0002 14.8438ZM17.7398 17.5C17.5608 17.5018 17.3853 17.5498 17.2302 17.6392C17.0751 17.7286 16.9457 17.8564 16.8544 18.0104L15.9273 19.5625L14.344 16.8021C15.7393 16.5348 17.0273 15.8691 18.0523 14.8854L19.5419 17.4688L17.7398 17.5Z" />
</svg>
