<svg width="24" height="23" viewBox="0 0 24 23" fill="none" xmlns="http://www.w3.org/2000/svg">
    <path
    d="M20.5355 16.5313L17.9384 12.0463C18.4698 11.0702 18.7467 9.97594 18.7434 8.86458C18.7434 7.08542 18.0366 5.37913 16.7786 4.12108C15.5205 2.86302 13.8142 2.15625 12.0351 2.15625C10.2559 2.15625 8.54961 2.86302 7.29156 4.12108C6.0335 5.37913 5.32673 7.08542 5.32673 8.86458C5.32343 9.97594 5.60029 11.0702 6.13173 12.0463L3.53465 16.5313C3.45037 16.6772 3.40608 16.8428 3.40625 17.0114C3.40642 17.1799 3.45103 17.3454 3.5356 17.4912C3.62016 17.637 3.74168 17.758 3.88789 17.8418C4.03411 17.9256 4.19985 17.9694 4.3684 17.9688H7.11881L8.51798 20.3263C8.56515 20.4044 8.62323 20.4754 8.69048 20.5371C8.86813 20.7083 9.10499 20.8044 9.35173 20.8054H9.4859C9.63058 20.7856 9.76882 20.733 9.89006 20.6516C10.0113 20.5702 10.1124 20.4622 10.1855 20.3358L12.0351 17.1542L13.8846 20.3646C13.9588 20.4892 14.0604 20.5953 14.1815 20.675C14.3027 20.7547 14.4404 20.8058 14.5842 20.8246H14.7184C14.9685 20.8261 15.2092 20.7298 15.3892 20.5563C15.4537 20.4981 15.5087 20.4302 15.5521 20.355L16.9513 17.9975H19.7017C19.8706 17.9982 20.0366 17.9542 20.1831 17.8701C20.3295 17.7859 20.451 17.6646 20.5355 17.5183C20.625 17.3693 20.6723 17.1987 20.6723 17.0248C20.6723 16.8509 20.625 16.6803 20.5355 16.5313ZM9.34215 17.9975L8.48923 16.5696C8.40525 16.4279 8.28617 16.3103 8.14349 16.228C8.0008 16.1458 7.83933 16.1017 7.67465 16.1H6.01673L7.38715 13.7233C8.33084 14.6327 9.52022 15.2457 10.8084 15.4867L9.34215 17.9975ZM12.0351 13.6562C11.0874 13.6563 10.1609 13.3752 9.37296 12.8487C8.58497 12.3222 7.97081 11.5738 7.60814 10.6983C7.24547 9.82271 7.15058 8.85927 7.33547 7.92978C7.52035 7.00028 7.97672 6.14649 8.64684 5.47636C9.31697 4.80624 10.1708 4.34987 11.1003 4.16499C12.0297 3.9801 12.9932 4.07499 13.8688 4.43766C14.7443 4.80033 15.4927 5.41449 16.0192 6.20248C16.5457 6.99046 16.8267 7.91688 16.8267 8.86458C16.8267 10.1354 16.3219 11.3542 15.4233 12.2528C14.5247 13.1514 13.3059 13.6562 12.0351 13.6562ZM16.3955 16.1C16.2308 16.1017 16.0693 16.1458 15.9266 16.228C15.784 16.3103 15.6649 16.4279 15.5809 16.5696L14.728 17.9975L13.2713 15.4579C14.555 15.212 15.7399 14.5996 16.683 13.6946L18.0534 16.0713L16.3955 16.1Z"
    fill="#0033AD"
    />
</svg>
