<svg width="80" height="80" viewBox="0 0 80 80" fill="none" xmlns="http://www.w3.org/2000/svg">
  <path
    d="M44.75 3.31976L69.391 17.5463C72.3303 19.2433 74.141 22.3795 74.141 25.7735V54.2265C74.141 57.6205 72.3303 60.7567 69.391 62.4537L44.75 76.6802C41.8107 78.3773 38.1893 78.3773 35.25 76.6802L10.609 62.4537C7.66967 60.7567 5.85898 57.6205 5.85898 54.2265V25.7735C5.85898 22.3795 7.66967 19.2433 10.609 17.5463L35.25 3.31976C38.1893 1.62275 41.8107 1.62275 44.75 3.31976Z"
    stroke="#6C6F89" />
  <path
    d="M57 44.1051H52.898V43.1103C52.898 42.5516 52.898 42.0987 52.898 42.0987H49.1467C49.3442 41.6044 49.5297 41.0993 49.7023 40.5831C50.8706 37.0895 51.4629 33.0873 51.4629 28.6877C51.4629 28.129 51.0038 27.6761 50.4375 27.6761C45.9893 27.6761 40.0908 24.1819 40.032 24.1467C39.6519 23.9193 39.1666 23.9593 38.8302 24.2458C38.7899 24.2801 34.7305 27.6761 28.5628 27.6761C27.9965 27.6761 27.5374 28.129 27.5374 28.6877C27.5374 33.0873 28.1298 37.0895 29.298 40.5831C29.4706 41.0993 29.6561 41.6044 29.8537 42.0987H26.1018C26.1018 42.0987 26.1018 42.5516 26.1018 43.1103V44.1051H22C22 44.1051 22 44.5581 22 45.1167V52.8893C22 52.8893 22.4591 52.8893 23.0254 52.8893H29.588C29.588 52.8893 29.588 52.4364 29.588 51.8777V50.8661H35.961C37.6941 52.3304 39.0248 52.8889 39.1066 52.9225C39.2326 52.9742 39.3664 53 39.5001 53C39.634 53 39.7678 52.9742 39.8937 52.9225C39.9754 52.889 41.3062 52.3304 43.0393 50.8661H49.4119V52.8893C49.4119 52.8893 49.871 52.8893 50.4373 52.8893H55.9746C56.5409 52.8893 57 52.8893 57 52.8893V45.1167C57 44.5581 57 44.1051 57 44.1051ZM24.0507 50.8661V46.1284H26.1018V50.8661C26.1018 50.8661 26.5609 50.8661 27.1272 50.8661H24.0507ZM28.1526 48.8428V44.1219H30.7624C30.7626 44.122 30.7627 44.122 30.7628 44.1221C31.4721 45.5339 32.2937 46.8356 33.2216 48.0143C33.4501 48.3045 33.6787 48.5791 33.9061 48.8391C33.9063 48.8403 33.9065 48.8415 33.9067 48.8428H28.1526V48.8428ZM39.5039 50.8631C38.7037 50.4367 36.7872 49.2451 34.8413 46.7733C33.3257 44.8482 32.1159 42.5523 31.2455 39.9493C30.2326 36.9201 29.6796 33.4669 29.5986 29.6713C34.6308 29.3974 38.2283 27.1959 39.5831 26.2271C41.1636 27.0991 45.4798 29.2979 49.4022 29.6512C49.3236 33.4139 48.7813 36.8411 47.7873 39.8518C46.931 42.4452 45.7391 44.7371 44.2446 46.664C42.471 48.9505 40.5545 50.3067 39.5039 50.8631ZM45.0943 48.8391C45.3217 48.5791 45.5502 48.3045 45.7786 48.0144C46.7066 46.8356 47.5282 45.534 48.2375 44.1222C48.2376 44.1221 48.2377 44.122 48.2378 44.122H50.8472V48.8429H45.0935C45.0938 48.8415 45.0941 48.8403 45.0943 48.8391ZM54.9493 50.8661H51.8726C52.4389 50.8661 52.898 50.8661 52.898 50.8661V46.1284H54.9493V50.8661Z"
    fill="currentColor" stroke="currentColor" stroke-width="0.7" />
  <path
    d="M42.7517 41.0928L42.6942 38.9124L43.9708 37.1838C44.1413 36.953 44.1914 36.6498 44.1048 36.3731C44.0183 36.0964 43.8062 35.8818 43.5378 35.7994L41.5307 35.183L40.3475 33.3845C40.1892 33.1439 39.9269 33 39.6465 33C39.366 33 39.1038 33.1439 38.9455 33.3845L37.7623 35.183L35.7552 35.7994C35.4868 35.8818 35.2746 36.0964 35.1881 36.3731C35.1016 36.6498 35.1517 36.9531 35.3222 37.1838L36.5988 38.9124L36.5412 41.0928C36.5335 41.384 36.6645 41.6604 36.8912 41.8315C37.1179 42.0027 37.4112 42.0465 37.6753 41.9488L39.6465 41.2185L41.6176 41.9488C41.7104 41.9831 41.8068 42 41.9027 42C42.0795 42 42.2546 41.9425 42.4017 41.8316C42.6284 41.6604 42.7593 41.3839 42.7517 41.0928ZM41.1632 38.0855C41.0445 38.2463 40.9826 38.4448 40.9879 38.6474L41.0197 39.8525L39.9315 39.4494C39.8393 39.4152 39.7428 39.3982 39.6464 39.3982C39.5499 39.3982 39.4535 39.4152 39.3613 39.4494L38.2732 39.8525L38.305 38.6474C38.3104 38.4448 38.2484 38.2463 38.1297 38.0855L37.4229 37.1285L38.5333 36.7874C38.7208 36.7298 38.8834 36.6068 38.9938 36.439L39.6464 35.4469L40.2991 36.439C40.4094 36.6068 40.5721 36.7298 40.7596 36.7874L41.87 37.1285L41.1632 38.0855Z"
    fill="currentColor" stroke="currentColor" stroke-width="0.3" />
</svg>