<svg width="24" height="24" viewBox="0 0 24 24" fill="none" xmlns="http://www.w3.org/2000/svg">
<path d="M8.16183 6.99472L10.8335 4.31138V15.4997C10.8335 15.8091 10.9564 16.1059 11.1752 16.3247C11.394 16.5435 11.6907 16.6664 12.0002 16.6664C12.3096 16.6664 12.6063 16.5435 12.8251 16.3247C13.0439 16.1059 13.1668 15.8091 13.1668 15.4997V4.31138L15.8385 6.99472C15.947 7.10407 16.076 7.19086 16.2182 7.25009C16.3603 7.30932 16.5128 7.33982 16.6668 7.33982C16.8208 7.33982 16.9733 7.30932 17.1155 7.25009C17.2577 7.19086 17.3867 7.10407 17.4952 6.99472C17.6045 6.88626 17.6913 6.75723 17.7505 6.61506C17.8098 6.47289 17.8403 6.3204 17.8403 6.16638C17.8403 6.01237 17.8098 5.85988 17.7505 5.71771C17.6913 5.57554 17.6045 5.44651 17.4952 5.33805L12.8285 0.671383C12.7175 0.565169 12.5867 0.48191 12.4435 0.426383C12.1595 0.309695 11.8409 0.309695 11.5568 0.426383C11.4136 0.48191 11.2828 0.565169 11.1718 0.671383L6.50516 5.33805C6.39638 5.44683 6.3101 5.57597 6.25123 5.71809C6.19236 5.86022 6.16206 6.01255 6.16206 6.16638C6.16206 6.32022 6.19236 6.47255 6.25123 6.61467C6.3101 6.7568 6.39638 6.88594 6.50516 6.99472C6.61394 7.1035 6.74308 7.18978 6.88521 7.24865C7.02733 7.30752 7.17966 7.33782 7.3335 7.33782C7.48733 7.33782 7.63966 7.30752 7.78179 7.24865C7.92391 7.18978 8.05305 7.1035 8.16183 6.99472ZM22.5002 11.9997C22.1907 11.9997 21.894 12.1226 21.6752 12.3414C21.4564 12.5602 21.3335 12.857 21.3335 13.1664V20.1664C21.3335 20.4758 21.2106 20.7726 20.9918 20.9913C20.773 21.2101 20.4762 21.3331 20.1668 21.3331H3.8335C3.52408 21.3331 3.22733 21.2101 3.00854 20.9913C2.78975 20.7726 2.66683 20.4758 2.66683 20.1664V13.1664C2.66683 12.857 2.54391 12.5602 2.32512 12.3414C2.10633 12.1226 1.80958 11.9997 1.50016 11.9997C1.19074 11.9997 0.893997 12.1226 0.675205 12.3414C0.456412 12.5602 0.333496 12.857 0.333496 13.1664V20.1664C0.333496 21.0946 0.702245 21.9849 1.35862 22.6413C2.015 23.2976 2.90524 23.6664 3.8335 23.6664H20.1668C21.0951 23.6664 21.9853 23.2976 22.6417 22.6413C23.2981 21.9849 23.6668 21.0946 23.6668 20.1664V13.1664C23.6668 12.857 23.5439 12.5602 23.3251 12.3414C23.1063 12.1226 22.8096 11.9997 22.5002 11.9997Z" fill="#434656"/>
</svg>
