<svg width="24" height="26" viewBox="0 0 24 26" fill="none" xmlns="http://www.w3.org/2000/svg">
<path d="M23.8098 20.0205L20.1998 13.7741C20.9385 12.4147 21.3233 10.8907 21.3188 9.34291C21.3188 6.86501 20.3363 4.48861 18.5876 2.73647C16.8389 0.984339 14.4672 0 11.9941 0C9.52107 0 7.14931 0.984339 5.4006 2.73647C3.6519 4.48861 2.66948 6.86501 2.66948 9.34291C2.6649 10.8907 3.04973 12.4147 3.78844 13.7741L0.178473 20.0205C0.0613302 20.2238 -0.000230805 20.4545 6.50261e-07 20.6892C0.000232106 20.9239 0.0622475 21.1545 0.179791 21.3575C0.297334 21.5606 0.466247 21.729 0.669489 21.8457C0.872731 21.9625 1.10311 22.0235 1.33739 22.0226H5.16049L7.10534 25.3059C7.17091 25.4147 7.25165 25.5136 7.34512 25.5996C7.59206 25.8381 7.92129 25.9719 8.26426 25.9733H8.45076C8.65186 25.9457 8.84402 25.8724 9.01255 25.7591C9.18109 25.6458 9.32154 25.4953 9.42318 25.3193L11.9941 20.8881L14.5651 25.3593C14.6682 25.5329 14.8093 25.6807 14.9777 25.7917C15.1462 25.9027 15.3376 25.9739 15.5375 26H15.724C16.0716 26.0021 16.4062 25.868 16.6564 25.6263C16.746 25.5452 16.8224 25.4506 16.8829 25.346L18.8277 22.0626H22.6508C22.8856 22.0635 23.1164 22.0023 23.3199 21.8851C23.5234 21.7679 23.6924 21.5989 23.8098 21.3953C23.9342 21.1877 24 20.9501 24 20.7079C24 20.4657 23.9342 20.2281 23.8098 20.0205V20.0205ZM8.25094 22.0626L7.06538 20.0739C6.94864 19.8766 6.78312 19.7128 6.58479 19.5982C6.38646 19.4837 6.16202 19.4222 5.9331 19.4199H3.62859L5.53348 16.1098C6.84522 17.3763 8.49847 18.2301 10.289 18.5657L8.25094 22.0626ZM11.9941 16.0164C10.6768 16.0164 9.38907 15.625 8.29377 14.8917C7.19846 14.1584 6.34478 13.1162 5.84066 11.8967C5.33655 10.6773 5.20465 9.3355 5.46164 8.04097C5.71864 6.74644 6.35298 5.55733 7.28447 4.62403C8.21595 3.69072 9.40273 3.05513 10.6947 2.79763C11.9867 2.54013 13.3259 2.67229 14.543 3.17739C15.76 3.68249 16.8002 4.53785 17.5321 5.63531C18.2639 6.73276 18.6546 8.02301 18.6546 9.34291C18.6546 11.1128 17.9528 12.8103 16.7038 14.0618C15.4547 15.3133 13.7606 16.0164 11.9941 16.0164V16.0164ZM18.0551 19.4199C17.8262 19.4222 17.6018 19.4837 17.4034 19.5982C17.2051 19.7128 17.0396 19.8766 16.9229 20.0739L15.7373 22.0626L13.7125 18.5256C15.4968 18.1832 17.1439 17.3302 18.4548 16.0698L20.3597 19.3799L18.0551 19.4199Z" fill="#434656"/>
</svg>
