<svg width="35" height="35" viewBox="0 0 35 35" fill="none" xmlns="http://www.w3.org/2000/svg">
<rect width="35" height="35" rx="17.5" fill="#F6F9FF"/>
<path d="M27.1628 9.53578C27.1217 9.37966 27.0399 9.23726 26.9257 9.12311C26.8116 9.00895 26.6692 8.92713 26.5131 8.88601C24.6433 8.40037 22.6744 8.45268 20.8331 9.0369C18.9918 9.62113 17.3529 10.7135 16.1052 12.1883L15.089 13.3949L12.7148 12.8221C12.1376 12.6208 11.5071 12.6353 10.9397 12.8627C10.3723 13.0901 9.90638 13.5151 9.62793 14.0593L7.62255 17.6139C7.55229 17.7384 7.5123 17.8777 7.50582 18.0205C7.49934 18.1633 7.52655 18.3056 7.58526 18.436C7.64396 18.5663 7.73251 18.6811 7.84375 18.7709C7.95498 18.8607 8.08579 18.9231 8.22559 18.953L11.0263 19.5533C10.789 20.2755 10.6196 21.0183 10.5203 21.7719C10.5022 21.9104 10.5163 22.0511 10.5613 22.1833C10.6062 22.3155 10.681 22.4355 10.7797 22.5343L13.6053 25.3599C13.6899 25.4445 13.7904 25.5117 13.901 25.5575C14.0115 25.6034 14.13 25.6269 14.2497 25.6269C14.276 25.6269 14.3022 25.6256 14.329 25.6234C15.0994 25.5541 15.8606 25.4044 16.5999 25.1768L17.1866 27.914C17.2166 28.0538 17.279 28.1846 17.3688 28.2957C17.4587 28.4069 17.5734 28.4955 17.7037 28.5542C17.834 28.6128 17.9764 28.6401 18.1192 28.6336C18.2619 28.6272 18.4012 28.5873 18.5258 28.5171L22.0852 26.5095C22.5862 26.2051 22.9776 25.7494 23.2028 25.2082C23.4281 24.667 23.4756 24.0682 23.3385 23.4983L22.729 20.9835L23.8565 19.9468C25.3368 18.7025 26.4334 17.0635 27.0187 15.2205C27.604 13.3775 27.654 11.4061 27.1628 9.53578ZM9.81887 17.43L11.2372 14.9146C11.3253 14.7439 11.4754 14.6133 11.6567 14.5496C11.838 14.486 12.0368 14.4941 12.2123 14.5724L13.7777 14.9517L13.1852 15.6552C12.6236 16.3284 12.1378 17.0614 11.7366 17.841L9.81887 17.43ZM21.1849 24.9242L18.7096 26.3203L18.3181 24.4931C19.1116 24.0974 19.851 23.6012 20.5178 23.0167L21.1955 22.3936L21.5632 23.9108C21.6109 24.0981 21.6003 24.2956 21.5327 24.4767C21.465 24.6578 21.3437 24.8139 21.1849 24.9242ZM22.6563 18.5756L19.2979 21.662C17.9686 22.8116 16.329 23.5423 14.5853 23.7622L12.3939 21.5708C12.6882 19.8226 13.4436 18.1846 14.5822 16.8257L16.1119 15.0095C16.1374 14.9828 16.1612 14.9546 16.1832 14.9249L17.491 13.3721C18.4581 12.23 19.7109 11.3649 21.1216 10.8653C22.5323 10.3656 24.0503 10.2493 25.5206 10.5282C25.8063 12.0032 25.6912 13.5277 25.1874 14.9431C24.6836 16.3585 23.8096 17.6129 22.6563 18.5756ZM21.815 12.9576C21.5446 12.9576 21.2803 13.0378 21.0554 13.188C20.8306 13.3383 20.6554 13.5518 20.5519 13.8016C20.4484 14.0514 20.4213 14.3263 20.4741 14.5915C20.5268 14.8567 20.657 15.1003 20.8483 15.2915C21.0395 15.4827 21.2831 15.613 21.5483 15.6657C21.8135 15.7185 22.0884 15.6914 22.3382 15.5879C22.588 15.4844 22.8015 15.3092 22.9518 15.0844C23.102 14.8595 23.1822 14.5952 23.1822 14.3248C23.1822 14.1452 23.1468 13.9675 23.0781 13.8016C23.0094 13.6357 22.9087 13.485 22.7818 13.358C22.6548 13.231 22.5041 13.1303 22.3382 13.0616C22.1723 12.9929 21.9945 12.9576 21.815 12.9576L21.815 12.9576Z" fill="#0033AD"/>
</svg>
