<svg width="30" height="30" viewBox="0 0 30 30" fill="none" xmlns="http://www.w3.org/2000/svg">
<path d="M28.2515 2.5775C28.1951 2.3634 28.0828 2.1681 27.9263 2.01155C27.7697 1.85499 27.5744 1.74279 27.3603 1.68638C24.7961 1.02037 22.0959 1.0921 19.5707 1.89332C17.0455 2.69455 14.7979 4.19267 13.0867 6.21521L11.693 7.87L8.43701 7.0844C7.64543 6.80843 6.78073 6.82821 6.00261 7.14008C5.22448 7.45195 4.58547 8.03485 4.20361 8.78112L1.45337 13.656C1.357 13.8267 1.30216 14.0178 1.29328 14.2136C1.28439 14.4095 1.32171 14.6047 1.40222 14.7835C1.48273 14.9623 1.60416 15.1196 1.75672 15.2428C1.90927 15.3659 2.08866 15.4515 2.28039 15.4925L6.12133 16.3159C5.79597 17.3063 5.56364 18.3249 5.42737 19.3585C5.40266 19.5484 5.4219 19.7414 5.48359 19.9226C5.54529 20.1039 5.64779 20.2686 5.78319 20.404L9.65832 24.2791C9.77434 24.3952 9.91211 24.4873 10.0637 24.5502C10.2154 24.613 10.3779 24.6454 10.5421 24.6454C10.5781 24.6454 10.6141 24.6435 10.6507 24.6405C11.7074 24.5455 12.7512 24.3402 13.7652 24.028L14.5698 27.782C14.6109 27.9736 14.6965 28.153 14.8197 28.3055C14.9429 28.458 15.1002 28.5793 15.2789 28.6598C15.4577 28.7403 15.6529 28.7777 15.8487 28.7688C16.0445 28.76 16.2356 28.7052 16.4063 28.609L21.2879 25.8557C21.975 25.4382 22.5117 24.8133 22.8206 24.0711C23.1295 23.3289 23.1947 22.5077 23.0067 21.726L22.1708 18.2773L23.7171 16.8554C25.7472 15.149 27.2511 12.9013 28.0538 10.3737C28.8565 7.84609 28.9251 5.14252 28.2515 2.5775ZM4.46546 13.4039L6.41064 9.95422C6.53146 9.72003 6.7373 9.54093 6.98596 9.45365C7.23461 9.36638 7.50723 9.37755 7.74792 9.48486L9.89468 10.0051L9.08218 10.9698C8.31188 11.8931 7.64564 12.8983 7.09553 13.9675L4.46546 13.4039ZM20.0532 23.6816L16.6584 25.5962L16.1216 23.0904C17.2098 22.5477 18.2237 21.8672 19.1383 21.0656L20.0677 20.211L20.572 22.2918C20.6374 22.5487 20.6228 22.8195 20.5301 23.0679C20.4374 23.3163 20.271 23.5304 20.0532 23.6816ZM22.071 14.975L17.4653 19.2078C15.6423 20.7844 13.3936 21.7865 11.0023 22.088L7.99694 19.0827C8.40059 16.6851 9.43659 14.4387 10.998 12.5752L13.096 10.0843C13.1309 10.0477 13.1635 10.009 13.1936 9.96835L14.9873 7.83875C16.3135 6.27237 18.0317 5.086 19.9663 4.4008C21.901 3.7156 23.9828 3.5561 25.9993 3.9386C26.391 5.96137 26.2332 8.05218 25.5423 9.99325C24.8514 11.9343 23.6527 13.6546 22.071 14.975ZM20.9173 7.2703C20.5465 7.2703 20.1839 7.38026 19.8756 7.58629C19.5673 7.79232 19.3269 8.08515 19.185 8.42776C19.0431 8.77038 19.006 9.14738 19.0783 9.51109C19.1507 9.87481 19.3292 10.2089 19.5915 10.4711C19.8537 10.7333 20.1878 10.9119 20.5515 10.9843C20.9152 11.0566 21.2922 11.0195 21.6348 10.8776C21.9774 10.7357 22.2703 10.4953 22.4763 10.187C22.6823 9.87865 22.7923 9.51614 22.7923 9.1453C22.7923 8.89906 22.7438 8.65523 22.6496 8.42773C22.5554 8.20023 22.4173 7.99352 22.2431 7.81941C22.069 7.64529 21.8623 7.50718 21.6348 7.41296C21.4073 7.31874 21.1635 7.27025 20.9172 7.27027L20.9173 7.2703Z" fill="white"/>
</svg>
