<svg width="28" height="28" viewBox="0 0 28 28"   xmlns="http://www.w3.org/2000/svg">
<path d="M27.2515 1.57768C27.1951 1.36358 27.0828 1.16829 26.9263 1.01173C26.7697 0.855175 26.5744 0.742969 26.3603 0.686568C23.7961 0.0205534 21.0959 0.0922867 18.5707 0.893508C16.0455 1.69473 13.7979 3.19286 12.0867 5.21539L10.693 6.87018L7.43701 6.08458C6.64543 5.80862 5.78073 5.8284 5.00261 6.14027C4.22448 6.45214 3.58547 7.03503 3.20361 7.7813L0.453368 12.6562C0.357004 12.8269 0.302162 13.018 0.293277 13.2138C0.284391 13.4097 0.32171 13.6049 0.402218 13.7837C0.482726 13.9625 0.604164 14.1198 0.756718 14.243C0.909273 14.3661 1.08866 14.4517 1.28039 14.4927L5.12133 15.316C4.79597 16.3065 4.56364 17.3251 4.42737 18.3587C4.40266 18.5485 4.4219 18.7416 4.48359 18.9228C4.54529 19.1041 4.64779 19.2688 4.78319 19.4042L8.65832 23.2793C8.77434 23.3954 8.91211 23.4875 9.06375 23.5504C9.21539 23.6132 9.37792 23.6456 9.54207 23.6456C9.57808 23.6456 9.61409 23.6437 9.65072 23.6407C10.7074 23.5457 11.7512 23.3404 12.7652 23.0282L13.5698 26.7821C13.6109 26.9738 13.6965 27.1531 13.8197 27.3056C13.9429 27.4581 14.1002 27.5795 14.2789 27.66C14.4577 27.7405 14.6529 27.7779 14.8487 27.769C15.0445 27.7602 15.2356 27.7054 15.4063 27.6092L20.2879 24.8559C20.975 24.4384 21.5117 23.8135 21.8206 23.0713C22.1295 22.329 22.1947 21.5079 22.0067 20.7262L21.1708 17.2775L22.7171 15.8556C24.7472 14.1492 26.2511 11.9015 27.0538 9.37387C27.8565 6.84627 27.9251 4.14271 27.2515 1.57768ZM3.46546 12.4041L5.41064 8.9544C5.53146 8.72021 5.7373 8.54111 5.98596 8.45384C6.23461 8.36656 6.50723 8.37773 6.74792 8.48504L8.89468 9.00529L8.08218 9.97003C7.31188 10.8933 6.64564 11.8985 6.09553 12.9677L3.46546 12.4041ZM19.0532 22.6818L15.6584 24.5964L15.1216 22.0906C16.2098 21.5479 17.2237 20.8674 18.1383 20.0658L19.0677 19.2112L19.572 21.292C19.6374 21.5489 19.6228 21.8197 19.5301 22.0681C19.4374 22.3165 19.271 22.5306 19.0532 22.6818ZM21.071 13.9752L16.4653 18.208C14.6423 19.7846 12.3936 20.7867 10.0023 21.0882L6.99694 18.0828C7.40059 15.6853 8.43659 13.4389 9.99804 11.5753L12.096 9.08449C12.1309 9.04793 12.1635 9.0092 12.1936 8.96853L13.9873 6.83893C15.3135 5.27255 17.0317 4.08619 18.9663 3.40098C20.901 2.71578 22.9828 2.55628 24.9993 2.93878C25.391 4.96155 25.2332 7.05237 24.5423 8.99343C23.8514 10.9345 22.6527 12.6548 21.071 13.9752ZM19.9173 6.27048C19.5465 6.27048 19.1839 6.38045 18.8756 6.58647C18.5673 6.7925 18.3269 7.08534 18.185 7.42795C18.0431 7.77056 18.006 8.14756 18.0783 8.51127C18.1507 8.87499 18.3292 9.20908 18.5915 9.4713C18.8537 9.73353 19.1878 9.91211 19.5515 9.98445C19.9152 10.0568 20.2922 10.0197 20.6348 9.87775C20.9774 9.73584 21.2703 9.49552 21.4763 9.18717C21.6823 8.87883 21.7923 8.51632 21.7923 8.14548C21.7923 7.89924 21.7438 7.65541 21.6496 7.42791C21.5554 7.20042 21.4173 6.99371 21.2431 6.81959C21.069 6.64548 20.8623 6.50736 20.6348 6.41314C20.4073 6.31892 20.1635 6.27043 19.9172 6.27045L19.9173 6.27048Z"  />
</svg>
