<svg width="35" height="35" viewBox="0 0 35 35" fill="none" xmlns="http://www.w3.org/2000/svg">
<rect width="35" height="35" rx="17.5" fill="url(#paint0_linear_2195_77120)"/>
<path d="M27.1625 9.53578C27.1213 9.37966 27.0395 9.23726 26.9254 9.12311C26.8112 9.00895 26.6688 8.92713 26.5127 8.88601C24.6429 8.40037 22.6741 8.45268 20.8327 9.0369C18.9914 9.62113 17.3525 10.7135 16.1048 12.1883L15.0886 13.3949L12.7144 12.8221C12.1372 12.6208 11.5067 12.6353 10.9393 12.8627C10.372 13.0901 9.90601 13.5151 9.62757 14.0593L7.62219 17.6139C7.55192 17.7384 7.51193 17.8777 7.50545 18.0205C7.49897 18.1633 7.52619 18.3056 7.58489 18.436C7.64359 18.5663 7.73214 18.6811 7.84338 18.7709C7.95462 18.8607 8.08542 18.9231 8.22523 18.953L11.0259 19.5533C10.7887 20.2755 10.6193 21.0183 10.5199 21.7719C10.5019 21.9104 10.5159 22.0511 10.5609 22.1833C10.6059 22.3155 10.6806 22.4355 10.7794 22.5343L13.605 25.3599C13.6896 25.4445 13.79 25.5117 13.9006 25.5575C14.0112 25.6034 14.1297 25.6269 14.2494 25.6269C14.2756 25.6269 14.3019 25.6256 14.3286 25.6234C15.0991 25.5541 15.8602 25.4044 16.5996 25.1768L17.1862 27.914C17.2162 28.0538 17.2786 28.1846 17.3685 28.2957C17.4583 28.4069 17.573 28.4955 17.7033 28.5542C17.8337 28.6128 17.976 28.6401 18.1188 28.6336C18.2616 28.6272 18.4009 28.5873 18.5254 28.5171L22.0849 26.5095C22.5859 26.2051 22.9772 25.7494 23.2024 25.2082C23.4277 24.667 23.4752 24.0682 23.3381 23.4983L22.7286 20.9835L23.8562 19.9468C25.3365 18.7025 26.433 17.0635 27.0183 15.2205C27.6037 13.3775 27.6536 11.4061 27.1625 9.53578ZM9.8185 17.43L11.2369 14.9146C11.325 14.7439 11.4751 14.6133 11.6564 14.5496C11.8377 14.486 12.0365 14.4941 12.212 14.5724L13.7773 14.9517L13.1849 15.6552C12.6232 16.3284 12.1374 17.0614 11.7363 17.841L9.8185 17.43ZM21.1846 24.9242L18.7092 26.3203L18.3177 24.4931C19.1113 24.0974 19.8506 23.6012 20.5175 23.0167L21.1952 22.3936L21.5629 23.9108C21.6106 24.0981 21.5999 24.2956 21.5323 24.4767C21.4647 24.6578 21.3434 24.8139 21.1846 24.9242ZM22.6559 18.5756L19.2976 21.662C17.9683 22.8116 16.3286 23.5423 14.585 23.7622L12.3935 21.5708C12.6879 19.8226 13.4433 18.1846 14.5818 16.8257L16.1116 15.0095C16.1371 14.9828 16.1609 14.9546 16.1828 14.9249L17.4907 13.3721C18.4577 12.23 19.7105 11.3649 21.1212 10.8653C22.5319 10.3656 24.0499 10.2493 25.5202 10.5282C25.8059 12.0032 25.6908 13.5277 25.1871 14.9431C24.6833 16.3585 23.8092 17.6129 22.6559 18.5756ZM21.8146 12.9576C21.5442 12.9576 21.2799 13.0378 21.0551 13.188C20.8302 13.3383 20.655 13.5518 20.5515 13.8016C20.448 14.0514 20.421 14.3263 20.4737 14.5915C20.5265 14.8567 20.6567 15.1003 20.8479 15.2915C21.0391 15.4827 21.2827 15.613 21.5479 15.6657C21.8131 15.7185 22.088 15.6914 22.3378 15.5879C22.5877 15.4844 22.8012 15.3092 22.9514 15.0844C23.1016 14.8595 23.1818 14.5952 23.1818 14.3248C23.1818 14.1452 23.1465 13.9675 23.0778 13.8016C23.0091 13.6357 22.9084 13.485 22.7814 13.358C22.6544 13.231 22.5037 13.1303 22.3378 13.0616C22.1719 12.9929 21.9941 12.9576 21.8146 12.9576L21.8146 12.9576Z" fill="white"/>
<defs>
<linearGradient id="paint0_linear_2195_77120" x1="0" y1="17.5" x2="35" y2="17.5" gradientUnits="userSpaceOnUse">
<stop stop-color="#E65C00"/>
<stop offset="1" stop-color="#F9D423"/>
</linearGradient>
</defs>
</svg>
