<svg width="16" height="16" viewBox="0 0 16 16" xmlns="http://www.w3.org/2000/svg">
<path d="M8.9375 11.4142C8.9375 11.4142 11.3354 13.8121 11.5076 13.9844C12.0623 14.5391 12.961 14.5391 13.5151 13.9844C14.0698 13.4297 14.0698 12.5311 13.5151 11.9764C13.3428 11.8041 10.945 9.40625 10.945 9.40625L8.9375 11.4142Z" />
<path d="M12.7992 5.86748L11.092 5.44081L10.6653 3.73361L12.6419 1.75708C11.5064 1.39601 10.2147 1.66321 9.31387 2.56348C8.02854 3.84881 8.43974 5.52188 9.7256 6.80721C11.0109 8.09255 12.684 8.50428 13.9693 7.21841C14.8701 6.31761 15.1373 5.02588 14.7757 3.89094L12.7992 5.86748Z" />
<path d="M6.66641 6.1349L4.79974 4.26823L4.26641 2.66823L2.13307 1.60156L1.06641 2.66823L2.13307 4.80156L3.73307 5.3349L5.59974 7.20156L6.66641 6.1349Z" />
<path d="M9.53495 4.73438C7.74081 6.52851 2.79575 11.4736 2.60161 11.6677C1.97655 12.2928 1.97655 13.3056 2.60161 13.9306C3.22668 14.5557 4.23948 14.5557 4.86455 13.9306C5.05868 13.7365 10.0037 8.79144 11.7979 6.99731L9.53495 4.73438ZM3.73281 13.3322C3.43841 13.3322 3.19948 13.0933 3.19948 12.7989C3.19948 12.5045 3.43841 12.2656 3.73281 12.2656C4.02721 12.2656 4.26615 12.5045 4.26615 12.7989C4.26615 13.0933 4.02721 13.3322 3.73281 13.3322Z" />
</svg>
