<svg width="70" height="70" viewBox="0 0 70 70" fill="none" xmlns="http://www.w3.org/2000/svg">
<rect width="70" height="70" rx="35" fill="white"/>
<path d="M43.5714 20H26.4286C26.0497 20 25.6863 20.158 25.4184 20.4393C25.1505 20.7206 25 21.1022 25 21.5V48.4996C25 48.7863 25.0782 49.0671 25.2255 49.3086C25.3728 49.55 25.5829 49.7421 25.8309 49.8621C26.079 49.9821 26.3546 50.0249 26.6251 49.9854C26.8955 49.946 27.1496 49.826 27.3571 49.6396L35 42.9047L42.5571 49.5646C42.6906 49.7036 42.8489 49.8136 43.023 49.8882C43.197 49.9629 43.3834 50.0007 43.5714 49.9996C43.7588 50.0047 43.9447 49.9636 44.1143 49.8796C44.3752 49.7671 44.5985 49.576 44.7561 49.3304C44.9137 49.0848 44.9986 48.7957 45 48.4996V21.5C45 21.1022 44.8495 20.7206 44.5816 20.4393C44.3137 20.158 43.9503 20 43.5714 20Z" fill="#FFA800"/>
</svg>
