<svg xmlns="http://www.w3.org/2000/svg" width="21" height="21" viewBox="0 0 21 21" fill="none">
  <path d="M4.90002 19.8188C4.14169 19.8188 3.49638 19.5563 2.96409 19.0313C2.4318 18.5063 2.16565 17.8573 2.16565 17.0844V14.0437H5.0969V1.53125L6.47502 2.90938L7.85315 1.53125L9.2094 2.90938L10.5875 1.53125L11.9438 2.90938L13.3219 1.53125L14.6781 2.90938L16.0563 1.53125L17.4344 2.90938L18.8344 1.53125V17.0844C18.8344 17.8573 18.5683 18.5063 18.036 19.0313C17.5037 19.5563 16.8584 19.8188 16.1 19.8188H4.90002ZM16.1 18.0688C16.3917 18.0688 16.6287 17.9776 16.811 17.7953C16.9933 17.613 17.0844 17.376 17.0844 17.0844V4.2H6.82502V14.0437H15.1156V17.0844C15.1156 17.376 15.2068 17.613 15.3891 17.7953C15.5714 17.9776 15.8084 18.0688 16.1 18.0688ZM7.9844 7.72188V6.40938H13.0156V7.72188H7.9844ZM7.9844 10.6531V9.34063H13.0156V10.6531H7.9844ZM15.05 7.72188C14.875 7.72188 14.7219 7.65625 14.5906 7.525C14.4594 7.39375 14.3938 7.24063 14.3938 7.06563C14.3938 6.89062 14.4594 6.7375 14.5906 6.60625C14.7219 6.475 14.875 6.40938 15.05 6.40938C15.225 6.40938 15.3781 6.475 15.5094 6.60625C15.6406 6.7375 15.7063 6.89062 15.7063 7.06563C15.7063 7.24063 15.6406 7.39375 15.5094 7.525C15.3781 7.65625 15.225 7.72188 15.05 7.72188ZM15.05 10.5438C14.875 10.5438 14.7219 10.4781 14.5906 10.3469C14.4594 10.2156 14.3938 10.0625 14.3938 9.8875C14.3938 9.7125 14.4594 9.55937 14.5906 9.42813C14.7219 9.29688 14.875 9.23125 15.05 9.23125C15.225 9.23125 15.3781 9.29688 15.5094 9.42813C15.6406 9.55937 15.7063 9.7125 15.7063 9.8875C15.7063 10.0625 15.6406 10.2156 15.5094 10.3469C15.3781 10.4781 15.225 10.5438 15.05 10.5438ZM4.87815 18.0688H13.3875V15.7938H3.91565V17.0844C3.91565 17.376 4.01044 17.613 4.20002 17.7953C4.38961 17.9776 4.61565 18.0688 4.87815 18.0688Z" fill="#6C6F89"/>
</svg>