<svg width="20" height="20" viewBox="0 0 20 20" fill="none" xmlns="http://www.w3.org/2000/svg">
<path d="M17.8758 19.3751L11.2258 12.7251C10.7424 13.1251 10.1674 13.4418 9.50078 13.6751C8.83411 13.9084 8.12578 14.0251 7.37578 14.0251C5.49245 14.0251 3.90495 13.3751 2.61328 12.0751C1.32161 10.7751 0.675781 9.20843 0.675781 7.3751C0.675781 5.54176 1.32578 3.9751 2.62578 2.6751C3.92578 1.3751 5.49245 0.725098 7.32578 0.725098C9.17578 0.725098 10.7424 1.3751 12.0258 2.6751C13.3091 3.9751 13.9508 5.54176 13.9508 7.3751C13.9508 8.10843 13.8424 8.8001 13.6258 9.4501C13.4091 10.1001 13.0841 10.7168 12.6508 11.3001L19.3258 17.9251L17.8758 19.3751ZM7.35078 12.0251C8.63411 12.0251 9.72578 11.5709 10.6258 10.6626C11.5258 9.75426 11.9758 8.65843 11.9758 7.3751C11.9758 6.09176 11.5258 4.99593 10.6258 4.0876C9.72578 3.17926 8.63411 2.7251 7.35078 2.7251C6.03411 2.7251 4.92161 3.17926 4.01328 4.0876C3.10495 4.99593 2.65078 6.09176 2.65078 7.3751C2.65078 8.65843 3.10495 9.75426 4.01328 10.6626C4.92161 11.5709 6.03411 12.0251 7.35078 12.0251Z" fill="#434656"/>
</svg>
