<svg width="17" height="17" viewBox="0 0 17 17" fill="none" xmlns="http://www.w3.org/2000/svg">
<path fill-rule="evenodd" clip-rule="evenodd" d="M10.2848 0.501229V2.27814H13.4563L13.4641 2.29813C10.5556 5.20361 7.64672 8.10943 4.74531 11.0074L6.003 12.2672C8.90882 9.36407 11.817 6.45826 14.7337 3.54397V6.71718H16.5062V6.61348C16.5059 6.47456 16.5056 6.33564 16.5053 6.19672C16.5047 5.9181 16.5041 5.63948 16.5041 5.36086V0.976381C16.5041 0.958642 16.5041 0.94091 16.5041 0.923182C16.504 0.808141 16.504 0.693321 16.5072 0.578501C16.5089 0.520547 16.4902 0.498518 16.4303 0.500212C16.3173 0.503601 16.2043 0.50346 16.0913 0.503319C16.0688 0.503291 16.0462 0.503262 16.0236 0.503262H11.652C11.3714 0.503262 11.091 0.50266 10.8105 0.502058C10.6702 0.501756 10.5299 0.501455 10.3895 0.501229H10.2848ZM16.5063 8.50575H14.7281V14.7153H2.27549V2.27319H8.49212V0.501365H8.37554H4.01241C3.49828 0.501365 2.98415 0.501704 2.47037 0.503737C2.4428 0.503805 2.41516 0.503643 2.38748 0.50348C2.27664 0.502829 2.16524 0.502175 2.05622 0.516277C1.60445 0.574909 1.22589 0.773849 0.926629 1.12123C0.668719 1.42015 0.51282 1.76448 0.503669 2.15796C0.492282 2.66091 0.493041 3.16429 0.4938 3.66758C0.49399 3.7934 0.49418 3.91921 0.49418 4.04501C0.493976 4.95234 0.494505 5.85967 0.495034 6.767C0.495386 7.37189 0.495739 7.97678 0.495874 8.58167C0.4961 9.56181 0.496025 10.5418 0.49595 11.5217C0.495912 12.0117 0.495874 12.5016 0.495874 12.9916C0.495874 13.1285 0.49626 13.2654 0.496646 13.4023C0.497706 13.7789 0.498766 14.1554 0.491807 14.5319C0.482657 15.0094 0.577213 15.4514 0.885282 15.8306C1.2103 16.2302 1.63156 16.4671 2.14501 16.4861C2.60146 16.5028 3.0588 16.5006 3.51613 16.4984C3.68869 16.4976 3.86125 16.4967 4.03376 16.4969C5.55038 16.4983 7.06667 16.4989 8.58329 16.4993H12.9888C13.175 16.4993 13.3613 16.4991 13.5477 16.499C13.9204 16.4987 14.2932 16.4984 14.6661 16.4993C15.0331 16.5 15.3774 16.4193 15.6858 16.2143C16.1864 15.8815 16.4755 15.4155 16.4968 14.8142C16.5126 14.37 16.5103 13.925 16.508 13.48C16.5072 13.3211 16.5063 13.1623 16.5063 13.0034C16.5066 12.0272 16.5065 11.051 16.5064 10.0749C16.5064 9.58675 16.5063 9.09863 16.5063 8.61047V8.50575Z" fill="#0033AD"/>
</svg>
