<svg width="17" height="16" viewBox="0 0 17 16" fill="none" xmlns="http://www.w3.org/2000/svg">
<path fill-rule="evenodd" clip-rule="evenodd" d="M10.2844 0.00110696V1.77801H13.4559L13.4637 1.79801C10.5552 4.70349 7.64635 7.6093 4.74494 10.5073L6.00264 11.7671C8.90845 8.86395 11.8166 5.95813 14.7333 3.04384V6.21706H16.5058V6.11335C16.5056 5.97444 16.5053 5.83552 16.505 5.6966C16.5044 5.41798 16.5038 5.13936 16.5038 4.86074V0.476259C16.5038 0.45852 16.5038 0.440787 16.5037 0.42306C16.5037 0.308019 16.5036 0.193199 16.5068 0.0783785C16.5085 0.0204248 16.4899 -0.00160432 16.4299 9.02313e-05C16.3169 0.00347933 16.2039 0.00333812 16.091 0.00319691C16.0684 0.00316867 16.0458 0.00314042 16.0232 0.00314042H11.6516C11.371 0.00314042 11.0906 0.00253813 10.8101 0.00193573C10.6698 0.00163437 10.5295 0.00133298 10.3892 0.00110696H10.2844ZM16.506 8.00563H14.7277V14.2151H2.27513V1.77307H8.49176V0.0012429H8.37517H4.01204C3.49791 0.0012429 2.98379 0.00158181 2.47 0.00361527C2.44244 0.00368299 2.41479 0.00352067 2.38711 0.00335814C2.27627 0.00270728 2.16487 0.00205311 2.05585 0.016155C1.60408 0.0747864 1.22552 0.273727 0.926263 0.62111C0.668352 0.920029 0.512454 1.26436 0.503303 1.65784C0.491916 2.16078 0.492675 2.66417 0.493434 3.16746C0.493624 3.29328 0.493814 3.41909 0.493814 3.54489C0.49361 4.45222 0.494139 5.35955 0.494668 6.26688C0.49502 6.87177 0.495373 7.47666 0.495508 8.08154C0.495734 9.06168 0.495659 10.0417 0.495583 11.0216C0.495546 11.5116 0.495508 12.0015 0.495508 12.4914C0.495508 12.6284 0.495894 12.7653 0.496279 12.9022C0.49734 13.2787 0.4984 13.6553 0.491441 14.0318C0.482291 14.5093 0.576847 14.9513 0.884916 15.3305C1.20993 15.7301 1.6312 15.967 2.14465 15.9859C2.60109 16.0027 3.05844 16.0005 3.51576 15.9983C3.68833 15.9974 3.86088 15.9966 4.03339 15.9968C5.55002 15.9981 7.0663 15.9988 8.58292 15.9992H12.9884C13.1747 15.9992 13.361 15.999 13.5473 15.9989C13.92 15.9986 14.2929 15.9983 14.6657 15.9992C15.0327 15.9998 15.3771 15.9192 15.6855 15.7141C16.186 15.3813 16.4751 14.9153 16.4965 14.3141C16.5122 13.8698 16.5099 13.4248 16.5076 12.9799C16.5068 12.821 16.506 12.6621 16.506 12.5033C16.5062 11.527 16.5061 10.5509 16.506 9.57473C16.506 9.08663 16.506 8.59851 16.506 8.11035V8.00563Z" fill="#438F68"/>
</svg>
