<svg width="23" height="23" viewBox="0 0 23 23" fill="none" xmlns="http://www.w3.org/2000/svg">
<path d="M19.0709 12.1332C18.9173 11.9583 18.8326 11.7334 18.8326 11.5007C18.8326 11.2679 18.9173 11.043 19.0709 10.8682L20.2976 9.48815C20.4328 9.33738 20.5167 9.14766 20.5374 8.94622C20.558 8.74478 20.5144 8.54198 20.4126 8.3669L18.4959 5.05107C18.3952 4.87619 18.2419 4.73758 18.0577 4.65498C17.8736 4.57238 17.6681 4.55001 17.4705 4.59107L15.6689 4.95524C15.4396 5.0026 15.2009 4.96442 14.9979 4.8479C14.7949 4.73138 14.6415 4.54457 14.5668 4.32274L13.9822 2.56899C13.9179 2.37864 13.7954 2.21331 13.632 2.09638C13.4687 1.97944 13.2727 1.9168 13.0718 1.91732H9.23844C9.02946 1.90641 8.82265 1.96421 8.6496 2.08188C8.47656 2.19955 8.34678 2.37063 8.2801 2.56899L7.74344 4.32274C7.66869 4.54457 7.51533 4.73138 7.3123 4.8479C7.10926 4.96442 6.8706 5.0026 6.64135 4.95524L4.79177 4.59107C4.60447 4.5646 4.41352 4.59416 4.24298 4.67602C4.07244 4.75787 3.92994 4.88837 3.83344 5.05107L1.91677 8.3669C1.81247 8.54002 1.76557 8.74169 1.78278 8.94307C1.79999 9.14446 1.88043 9.33524 2.0126 9.48815L3.22969 10.8682C3.38333 11.043 3.46806 11.2679 3.46806 11.5007C3.46806 11.7334 3.38333 11.9583 3.22969 12.1332L2.0126 13.5132C1.88043 13.6661 1.79999 13.8568 1.78278 14.0582C1.76557 14.2596 1.81247 14.4613 1.91677 14.6344L3.83344 17.9502C3.93416 18.1251 4.08751 18.2637 4.27164 18.3463C4.45577 18.4289 4.66127 18.4513 4.85885 18.4102L6.66052 18.0461C6.88977 17.9987 7.12843 18.0369 7.33146 18.1534C7.53449 18.2699 7.68786 18.4567 7.7626 18.6786L8.34719 20.4323C8.41387 20.6307 8.54364 20.8018 8.71669 20.9194C8.88973 21.0371 9.09654 21.0949 9.30552 21.084H13.1389C13.3398 21.0845 13.5358 21.0219 13.6991 20.9049C13.8625 20.788 13.985 20.6227 14.0493 20.4323L14.6339 18.6786C14.7086 18.4567 14.862 18.2699 15.065 18.1534C15.268 18.0369 15.5067 17.9987 15.7359 18.0461L17.5376 18.4102C17.7352 18.4513 17.9407 18.4289 18.1248 18.3463C18.3089 18.2637 18.4623 18.1251 18.563 17.9502L20.4797 14.6344C20.5814 14.4593 20.6251 14.2565 20.6045 14.0551C20.5838 13.8536 20.4999 13.6639 20.3647 13.5132L19.0709 12.1332ZM17.643 13.4173L18.4097 14.2798L17.183 16.4073L16.0522 16.1773C15.362 16.0362 14.644 16.1535 14.0345 16.5068C13.425 16.8601 12.9665 17.4249 12.7459 18.094L12.3818 19.1673H9.92844L9.58344 18.0748C9.36288 17.4058 8.90434 16.8409 8.29487 16.4876C7.68539 16.1343 6.9674 16.0171 6.27719 16.1582L5.14635 16.3882L3.90052 14.2702L4.66719 13.4077C5.13864 12.8806 5.39929 12.1983 5.39929 11.4911C5.39929 10.7839 5.13864 10.1015 4.66719 9.5744L3.90052 8.7119L5.12719 6.60357L6.25802 6.83357C6.94823 6.97466 7.66622 6.85741 8.2757 6.50409C8.88518 6.15077 9.34371 5.58597 9.56427 4.9169L9.92844 3.83399H12.3818L12.7459 4.92649C12.9665 5.59555 13.425 6.16036 14.0345 6.51368C14.644 6.867 15.362 6.98424 16.0522 6.84315L17.183 6.61315L18.4097 8.74065L17.643 9.60315C17.1769 10.129 16.9195 10.8075 16.9195 11.5102C16.9195 12.213 17.1769 12.8914 17.643 13.4173ZM11.1551 7.66732C10.3969 7.66732 9.65581 7.89214 9.02542 8.31335C8.39503 8.73456 7.9037 9.33325 7.61357 10.0337C7.32343 10.7341 7.24752 11.5049 7.39543 12.2485C7.54334 12.9921 7.90843 13.6751 8.44453 14.2112C8.98063 14.7473 9.66366 15.1124 10.4073 15.2603C11.1509 15.4082 11.9216 15.3323 12.6221 15.0422C13.3225 14.7521 13.9212 14.2607 14.3424 13.6303C14.7636 12.9999 14.9884 12.2588 14.9884 11.5007C14.9884 10.484 14.5846 9.50897 13.8657 8.79008C13.1468 8.07119 12.1718 7.66732 11.1551 7.66732ZM11.1551 13.4173C10.776 13.4173 10.4055 13.3049 10.0903 13.0943C9.77507 12.8837 9.5294 12.5844 9.38433 12.2341C9.23927 11.8839 9.20131 11.4985 9.27527 11.1267C9.34922 10.7549 9.53176 10.4134 9.79982 10.1454C10.0679 9.87731 10.4094 9.69477 10.7812 9.62081C11.153 9.54686 11.5384 9.58482 11.8886 9.72988C12.2388 9.87495 12.5381 10.1206 12.7488 10.4358C12.9594 10.751 13.0718 11.1216 13.0718 11.5007C13.0718 12.009 12.8698 12.4965 12.5104 12.8559C12.1509 13.2154 11.6634 13.4173 11.1551 13.4173Z"/>
</svg>
