<svg width="24" height="24" viewBox="0 0 24 24" xmlns="http://www.w3.org/2000/svg">
<g clip-path="url(#clip0_2992_9639)">
<path d="M20.4688 21.0313L21.0313 20.4792L19.4063 18.8334V16.8021H18.6563V19.1459L20.4688 21.0313ZM19 23.3125C18.4097 23.3125 17.8524 23.1997 17.3281 22.974C16.8038 22.7483 16.3455 22.4393 15.9531 22.0469C15.5608 21.6546 15.2517 21.198 15.026 20.6771C14.8003 20.1563 14.6875 19.5973 14.6875 19C14.6875 18.4098 14.8003 17.8525 15.026 17.3282C15.2517 16.8039 15.5608 16.3455 15.9531 15.9532C16.3455 15.5608 16.8038 15.25 17.3281 15.0209C17.8524 14.7917 18.4097 14.6771 19 14.6771C19.5903 14.6771 20.1476 14.7917 20.6719 15.0209C21.1962 15.25 21.6545 15.5608 22.0469 15.9532C22.4392 16.3455 22.75 16.8039 22.9792 17.3282C23.2083 17.8525 23.3229 18.4098 23.3229 19C23.3229 19.5903 23.2083 20.1476 22.9792 20.6719C22.75 21.1962 22.4392 21.6546 22.0469 22.0469C21.6545 22.4393 21.1979 22.7483 20.6771 22.974C20.1563 23.1997 19.5972 23.3125 19 23.3125ZM19 22.4896C19.9583 22.4896 20.7795 22.1493 21.4635 21.4688C22.1476 20.7882 22.4896 19.9653 22.4896 19C22.4896 18.0417 22.1476 17.2205 21.4635 16.5365C20.7795 15.8525 19.9583 15.5105 19 15.5105C18.0417 15.5105 17.2205 15.8525 16.5365 16.5365C15.8524 17.2205 15.5104 18.0417 15.5104 19C15.5104 19.9653 15.8524 20.7882 16.5365 21.4688C17.2205 22.1493 18.0417 22.4896 19 22.4896Z"/>
</g>
<path fill-rule="evenodd" clip-rule="evenodd" d="M7.97875 21.5375C9.23704 22.0813 10.5815 22.3532 12.0122 22.3532C12.5799 22.3532 13.1342 22.3104 13.6752 22.2246C13.2487 21.5885 13 20.8233 13 20V17C13 15.4596 13.8707 14.1226 15.1468 13.4543V13.0432C15.1468 12.7649 15.0545 12.5168 14.8701 12.2987C14.6857 12.0807 14.4538 11.9717 14.1745 11.9717H7.82065V9.81409H9.84903C10.1352 9.81409 10.3908 9.72478 10.6158 9.54617C10.8408 9.36754 10.9533 9.13514 10.9533 8.84899V6.70649H13.0853C13.6568 6.70649 14.1433 6.49398 14.5447 6.06894C14.9461 5.64391 15.1468 5.14556 15.1468 4.57389V4.13802C16.7352 4.79527 18.0033 5.83329 18.9511 7.25209C19.8989 8.67089 20.3728 10.2441 20.3728 11.9717C20.3728 12.3241 20.353 12.6709 20.3135 13.0121C21.0221 13.067 21.6789 13.3066 22.2358 13.6827C22.3235 13.1355 22.3674 12.5743 22.3674 11.9992C22.3674 10.5682 22.0955 9.22349 21.5517 7.96494C21.0078 6.70641 20.2677 5.61065 19.3314 4.67767C18.3951 3.7447 17.3 3.00394 16.0461 2.45539C14.7922 1.90684 13.4493 1.63257 12.0174 1.63257C10.5854 1.63257 9.23979 1.90684 7.9804 2.45539C6.721 3.00394 5.62221 3.74576 4.68403 4.68084C3.74585 5.61593 3.00508 6.71194 2.46173 7.96889C1.9184 9.22584 1.64673 10.5693 1.64673 11.9991C1.64673 13.429 1.9184 14.7727 2.46175 16.0303C3.00509 17.2879 3.74585 18.3842 4.68403 19.3192C5.62221 20.2542 6.72045 20.9936 7.97875 21.5375ZM10.9533 18.3119V20.3478C8.84819 20.1072 7.10326 19.1849 5.71848 17.5808C4.3337 15.9767 3.6413 14.1091 3.6413 11.9779C3.6413 11.6499 3.65797 11.3281 3.6913 11.0125C3.72464 10.6969 3.78297 10.3724 3.8663 10.0391L8.90605 15.0793V16.1652C8.90605 16.7407 9.10142 17.2424 9.49215 17.6702C9.88289 18.098 10.3699 18.3119 10.9533 18.3119Z" />
<defs>
<clipPath id="clip0_2992_9639">
<rect width="10" height="10" fill="white" transform="translate(14 14)"/>
</clipPath>
</defs>
</svg>
