<svg width="53" height="50" viewBox="0 0 53 50" fill="none" xmlns="http://www.w3.org/2000/svg">
<path fill-rule="evenodd" clip-rule="evenodd" d="M25.8885 2.97433C26.1733 2.99107 26.4564 2.92025 26.7023 2.77084C26.948 2.62143 27.1454 2.40013 27.2692 2.13495C27.3931 1.86975 27.4381 1.57259 27.3983 1.28104C27.3587 0.989486 27.2359 0.716647 27.046 0.497037C26.856 0.277426 26.6073 0.120909 26.331 0.0472857C26.0549 -0.026338 25.7639 -0.0137605 25.4947 0.0834268C25.2255 0.180614 24.9902 0.358045 24.8186 0.593275C24.6472 0.828504 24.5471 1.11096 24.531 1.40492C24.5096 1.79884 24.6405 2.18541 24.8952 2.47971C25.1497 2.77398 25.5069 2.95189 25.8885 2.97433ZM38.4301 3.7113C38.2057 3.71338 37.9859 3.64674 37.7984 3.51985C37.5472 3.34986 37.3716 3.08389 37.3101 2.78037C37.2489 2.47684 37.3067 2.16057 37.471 1.90101C37.5937 1.70724 37.7693 1.55538 37.9755 1.46466C38.1819 1.37394 38.4096 1.34843 38.63 1.39136C38.8503 1.4343 39.0535 1.54374 39.2136 1.70585C39.3736 1.86795 39.4835 2.07544 39.5293 2.30205C39.5752 2.52865 39.555 2.76422 39.4711 2.97889C39.387 3.19359 39.2434 3.37777 39.0581 3.50815C38.8727 3.63852 38.6543 3.70922 38.4301 3.7113ZM14.0386 3.64253C14.2375 3.53706 14.4018 3.37318 14.5107 3.17153C14.6197 2.9699 14.6684 2.73949 14.6507 2.50932C14.6331 2.27916 14.5499 2.05952 14.4116 1.87807C14.2733 1.69662 14.0861 1.56146 13.8735 1.4896C13.661 1.41774 13.4326 1.4124 13.2171 1.47424C13.0016 1.53609 12.8087 1.66236 12.6626 1.83716C12.5165 2.01197 12.4237 2.22748 12.396 2.45658C12.3683 2.68569 12.4068 2.91813 12.5068 3.12467C12.574 3.26291 12.667 3.38605 12.7806 3.48702C12.8941 3.58796 13.0258 3.66471 13.1682 3.71286C13.3106 3.76099 13.4608 3.77957 13.6102 3.76749C13.7596 3.75542 13.9052 3.71296 14.0386 3.64253ZM15.144 27.2544C14.525 26.5369 14.2073 25.595 14.2607 24.6358L14.2511 24.6378C14.2904 23.9327 14.5288 23.2547 14.937 22.6877C15.3451 22.1208 15.9052 21.6897 16.548 21.4474C17.1908 21.2052 17.8883 21.1627 18.5542 21.325C19.2202 21.4873 19.8256 21.8474 20.2957 22.3607C20.7658 22.8741 21.0798 23.5182 21.1992 24.2138C21.3187 24.9093 21.2383 25.6259 20.9679 26.2748C20.6976 26.9237 20.2492 27.4765 19.6778 27.8653C19.1064 28.2541 18.4374 28.4617 17.7531 28.4625H17.5616C16.6325 28.4065 15.7629 27.9721 15.144 27.2544ZM0.556659 23.879C0.749364 23.7615 0.971441 23.7058 1.19483 23.7187C1.34343 23.7272 1.48897 23.7657 1.62309 23.8321C1.75722 23.8987 1.87728 23.992 1.97638 24.1067C2.07548 24.2213 2.15167 24.3549 2.20057 24.5C2.24947 24.6451 2.27011 24.7989 2.26133 24.952C2.24848 25.1827 2.16971 25.4043 2.03497 25.5885C1.90023 25.7729 1.71556 25.9121 1.50432 25.988C1.29307 26.0641 1.06471 26.074 0.848113 26.016C0.631512 25.9581 0.436388 25.8354 0.287399 25.663C0.13841 25.4907 0.0422432 25.2766 0.0110516 25.0479C-0.0201398 24.8192 0.015044 24.5862 0.112157 24.378C0.20927 24.1699 0.363953 23.9964 0.556659 23.879ZM18.3293 9.31898C18.1589 9.62995 17.9031 9.88181 17.5941 10.0427C17.3888 10.1496 17.1651 10.2137 16.9358 10.2313C16.7066 10.2489 16.4761 10.2197 16.2578 10.1454C16.0394 10.0711 15.8374 9.95305 15.6633 9.79806C15.4891 9.64308 15.3463 9.4542 15.2428 9.24219C15.0872 8.92311 15.0267 8.56354 15.069 8.20896C15.1113 7.85438 15.2544 7.52072 15.4804 7.25012C15.7064 6.97953 16.005 6.78418 16.3385 6.68875C16.672 6.59332 17.0254 6.60212 17.3541 6.71401C17.6827 6.82591 17.9719 7.03588 18.1849 7.31741C18.398 7.59891 18.5254 7.93932 18.5511 8.29558C18.5768 8.65186 18.4996 9.008 18.3293 9.31898ZM5.62933 14.4446C5.86765 14.6064 6.14713 14.6915 6.43236 14.6893C6.71759 14.6871 6.99578 14.5976 7.23173 14.4321C7.46766 14.2667 7.65076 14.0327 7.75783 13.7597C7.86492 13.4868 7.89117 13.1872 7.83327 12.8989C7.77537 12.6106 7.63592 12.3464 7.43258 12.1399C7.22922 11.9334 6.97112 11.7939 6.6909 11.7388C6.41068 11.6838 6.12095 11.7158 5.85837 11.8309C5.59579 11.9459 5.37215 12.1387 5.21575 12.385C5.0063 12.7148 4.93221 13.1169 5.00975 13.5031C5.0873 13.8893 5.31013 14.2279 5.62933 14.4446ZM6.77314 23.3077C7.07128 23.1263 7.41479 23.0403 7.76028 23.0604C8.22383 23.0879 8.65782 23.3044 8.96693 23.6619C9.27604 24.0195 9.435 24.4893 9.40885 24.9679C9.38899 25.3244 9.26716 25.667 9.05874 25.9522C8.85033 26.2374 8.56471 26.4523 8.23795 26.5701C7.9112 26.6877 7.55801 26.7027 7.22302 26.6132C6.88802 26.5234 6.58624 26.3335 6.35587 26.0668C6.12549 25.8004 5.97683 25.4693 5.92868 25.1155C5.88052 24.7617 5.93505 24.4012 6.08538 24.0794C6.23568 23.7576 6.47502 23.4892 6.77314 23.3077ZM5.82092 35.2066C5.56647 35.3394 5.35585 35.5469 5.2157 35.8033C5.07556 36.0597 5.01216 36.353 5.03353 36.6465C5.0549 36.94 5.16008 37.2203 5.33577 37.4522C5.51146 37.684 5.74979 37.8568 6.0206 37.9487C6.29142 38.0408 6.58257 38.0477 6.85727 37.9691C7.13195 37.8902 7.37784 37.7291 7.56385 37.5061C7.74989 37.283 7.86766 37.008 7.90232 36.7159C7.93699 36.4238 7.88696 36.1277 7.7586 35.8648C7.6733 35.6902 7.55551 35.5347 7.41192 35.407C7.26836 35.2795 7.10184 35.1823 6.92189 35.1212C6.74193 35.0601 6.55209 35.0362 6.36316 35.0508C6.17426 35.0655 5.98999 35.1184 5.82092 35.2066ZM13.7713 19.6746C13.3639 19.6783 12.9645 19.5573 12.6237 19.3267C12.3972 19.1738 12.2021 18.9762 12.0497 18.7453C11.8972 18.5145 11.7903 18.2548 11.7352 17.9812C11.6801 17.7077 11.6777 17.4256 11.7284 17.1511C11.779 16.8766 11.8815 16.6151 12.0302 16.3816C12.2536 16.0298 12.5731 15.7544 12.9481 15.5901C13.3232 15.4257 13.737 15.3799 14.1373 15.4584C14.5376 15.5368 14.9064 15.7361 15.197 16.0309C15.4876 16.3257 15.6871 16.7028 15.77 17.1146C15.853 17.5264 15.8159 17.9544 15.6633 18.3444C15.5107 18.7344 15.2495 19.0689 14.9127 19.3057C14.5759 19.5425 14.1787 19.6708 13.7713 19.6746ZM34.2064 9.90037C34.4965 10.0958 34.8364 10.1979 35.1827 10.194C35.5291 10.1901 35.8667 10.0803 36.1525 9.87837C36.4386 9.67646 36.6601 9.3916 36.7892 9.05973C36.9184 8.72788 36.9492 8.36395 36.8782 8.01395C36.807 7.66396 36.6369 7.3436 36.3894 7.09338C36.1418 6.84316 35.828 6.6743 35.4875 6.60817C35.1471 6.54203 34.7954 6.58158 34.4766 6.72182C34.158 6.86206 33.8867 7.09668 33.6971 7.39603C33.5709 7.59486 33.484 7.81746 33.4413 8.05108C33.3986 8.28467 33.4009 8.52467 33.4482 8.75733C33.4955 8.98997 33.5868 9.2107 33.717 9.40686C33.847 9.60299 34.0134 9.77071 34.2064 9.90037ZM34.4819 21.1926C34.0224 21.1653 33.5621 21.2317 33.1275 21.3881C32.6928 21.5444 32.2923 21.7875 31.9488 22.1038C31.2547 22.7422 30.835 23.6392 30.7818 24.5972C30.7283 25.5551 31.0458 26.4958 31.6644 27.2123C32.2829 27.9286 33.1518 28.3619 34.0799 28.417H34.2828C34.9587 28.4166 35.6202 28.2144 36.1876 27.8347C36.7547 27.455 37.2033 26.914 37.4794 26.2769C37.7555 25.6399 37.8472 24.9339 37.7434 24.2444C37.6395 23.5548 37.3446 22.9108 36.8945 22.3904C36.5895 22.0354 36.219 21.7466 35.8048 21.5408C35.3907 21.3353 34.9409 21.2169 34.4819 21.1926ZM20.0366 20.5314C19.4831 20.1798 19.0358 19.6756 18.7449 19.0757C18.4774 18.5244 18.3508 17.9117 18.3771 17.2957C18.4034 16.6797 18.5817 16.0808 18.8951 15.5559C19.2085 15.031 19.6466 14.5975 20.1678 14.2964C20.6892 13.9954 21.2762 13.8368 21.8736 13.8358C22.5219 13.8326 23.1584 14.0158 23.7117 14.3649C24.2649 14.714 24.7131 15.2152 25.0061 15.8124C25.2766 16.3642 25.4057 16.9784 25.381 17.5964C25.3563 18.2143 25.1786 18.8155 24.8648 19.3423C24.5509 19.8692 24.1117 20.3043 23.5886 20.6061C23.0657 20.9079 22.4765 21.0663 21.8774 21.0661C21.2276 21.0682 20.59 20.883 20.0366 20.5314ZM46.2212 14.4406C46.4757 14.308 46.6865 14.1005 46.8266 13.8444C46.967 13.5882 47.0305 13.2948 47.0095 13.0014C46.9882 12.7079 46.8833 12.4275 46.7079 12.1956C46.5323 11.9637 46.2941 11.7907 46.0236 11.6984C45.7529 11.6062 45.4616 11.5989 45.1869 11.6774C44.9123 11.7559 44.6663 11.9167 44.48 12.1396C44.2939 12.3624 44.1757 12.6372 44.1407 12.9292C44.1058 13.2213 44.1554 13.5175 44.2835 13.7804C44.4558 14.133 44.7566 14.4006 45.12 14.5244C45.4833 14.6482 45.8794 14.618 46.2212 14.4406ZM36.4688 16.4445C36.6697 16.0785 36.9711 15.7821 37.3349 15.5929C37.5765 15.467 37.8398 15.3915 38.1097 15.3708C38.3795 15.35 38.6506 15.3844 38.9078 15.472C39.1647 15.5595 39.4024 15.6986 39.6072 15.8811C39.8121 16.0636 39.9802 16.2861 40.1016 16.5357C40.285 16.9114 40.3563 17.3347 40.3065 17.7522C40.2567 18.1697 40.088 18.5626 39.8219 18.8812C39.5559 19.1998 39.2042 19.4297 38.8117 19.542C38.419 19.6543 38.0027 19.6438 37.6157 19.512C37.229 19.3801 36.8885 19.1328 36.6377 18.8012C36.3871 18.4697 36.2372 18.0688 36.2071 17.6493C36.177 17.2298 36.268 16.8105 36.4688 16.4445ZM27.0353 12.0498C26.6845 12.2634 26.2801 12.3649 25.8734 12.3414C25.3275 12.3092 24.8163 12.0547 24.4523 11.6336C24.0881 11.2125 23.9011 10.6595 23.9319 10.096C23.9553 9.67613 24.0987 9.27286 24.344 8.93714C24.5892 8.60142 24.9255 8.34829 25.3101 8.20978C25.6946 8.07126 26.1105 8.05355 26.5049 8.1589C26.8991 8.26423 27.2545 8.4879 27.5256 8.80162C27.7969 9.11535 27.9721 9.50503 28.0288 9.92144C28.0857 10.3379 28.0215 10.7623 27.8446 11.1411C27.6679 11.52 27.3862 11.8362 27.0353 12.0498ZM14.7108 34.0523C15.0747 33.8629 15.376 33.5664 15.5766 33.2001C15.7772 32.8341 15.8681 32.4146 15.8378 31.9952C15.8076 31.5756 15.6574 31.1747 15.4065 30.8433C15.1555 30.512 14.815 30.2647 14.4279 30.1331C14.0408 30.0014 13.6247 29.9914 13.232 30.104C12.8394 30.2165 12.4879 30.4468 12.222 30.7656C11.9561 31.0844 11.7878 31.4774 11.7383 31.895C11.6889 32.3125 11.7604 32.7358 11.9441 33.1114C12.1902 33.6148 12.6199 33.9967 13.1387 34.1732C13.6576 34.3497 14.223 34.306 14.7108 34.0523ZM26.6424 17.721C26.5792 16.9189 26.7768 16.1178 27.2039 15.4447C27.5235 14.9422 27.9589 14.5296 28.4715 14.2442C28.9839 13.9588 29.5571 13.8096 30.1392 13.8101C30.9189 13.8111 31.6759 14.0805 32.2906 14.5756C32.9052 15.0708 33.3421 15.7634 33.5326 16.5438C33.723 17.3243 33.6557 18.148 33.3417 18.8846C33.0275 19.6211 32.4845 20.2286 31.7985 20.6107C31.1122 20.9927 30.3222 21.1277 29.5535 20.9943C28.7847 20.8607 28.0809 20.4664 27.5538 19.8734C27.0265 19.2806 26.7057 18.5232 26.6424 17.721ZM33.2967 30.5715C33.0158 29.9969 32.5917 29.5099 32.0679 29.161C31.544 28.8119 30.9395 28.6137 30.3165 28.5864C29.6936 28.5591 29.075 28.7038 28.5243 29.0058C27.9739 29.3076 27.5113 29.7557 27.1842 30.3039C26.8574 30.852 26.6782 31.4801 26.665 32.1235C26.6518 32.7671 26.8051 33.4025 27.1092 33.9643C27.4132 34.5262 27.8571 34.9943 28.3947 35.32C28.9324 35.6458 29.5445 35.8173 30.1681 35.8173C30.7165 35.8136 31.2566 35.6782 31.7458 35.422C32.5732 34.9897 33.201 34.2367 33.4917 33.3274C33.7823 32.4184 33.7122 31.4273 33.2967 30.5715ZM38.2725 29.9696C38.6799 29.9663 39.0793 30.0876 39.42 30.3185C39.8759 30.6288 40.1941 31.1129 40.3051 31.6649C40.416 32.2168 40.3105 32.7918 40.0116 33.2636C39.788 33.6152 39.4684 33.8906 39.0931 34.0546C38.718 34.2189 38.3041 34.2643 37.9039 34.1857C37.5035 34.107 37.135 33.9076 36.8445 33.6125C36.554 33.3176 36.3547 32.9402 36.272 32.5283C36.1893 32.1164 36.2266 31.6884 36.3796 31.2985C36.5324 30.9087 36.7939 30.5742 37.1307 30.3377C37.4677 30.1013 37.865 29.9732 38.2725 29.9696ZM46.1291 24.8848C46.1486 24.5283 46.0651 24.1737 45.8896 23.8659C45.7138 23.558 45.4536 23.3109 45.1419 23.1557C44.8302 23.0006 44.4809 22.9444 44.1384 22.994C43.7956 23.0438 43.4749 23.1972 43.2166 23.435C42.9585 23.6728 42.7743 23.9843 42.6876 24.3302C42.6009 24.6761 42.6154 25.0406 42.7293 25.378C42.8433 25.7152 43.0516 26.0101 43.3279 26.2254C43.604 26.4404 43.9358 26.5661 44.2814 26.5867C44.745 26.6138 45.1999 26.4495 45.5465 26.1305C45.8928 25.8115 46.1025 25.3634 46.1291 24.8848ZM50.3376 23.7576C50.5308 23.6402 50.7535 23.5846 50.9773 23.5981C51.2772 23.6165 51.5579 23.7566 51.7578 23.9883C51.9576 24.2197 52.0605 24.5237 52.0438 24.8334C52.031 25.0645 51.9519 25.2863 51.8169 25.4711C51.6819 25.6559 51.4968 25.7951 51.285 25.8712C51.0732 25.9475 50.8444 25.9569 50.6275 25.8988C50.4106 25.8407 50.2151 25.7176 50.0659 25.5448C49.9168 25.3721 49.8206 25.1574 49.7894 24.9281C49.7584 24.699 49.794 24.4654 49.8915 24.2571C49.9891 24.0487 50.1442 23.8748 50.3376 23.7576ZM46.4125 35.2006C46.1739 35.0394 45.8945 34.9548 45.6094 34.9575C45.3243 34.9601 45.0463 35.05 44.8108 35.2157C44.5751 35.3815 44.3925 35.6155 44.2856 35.8885C44.1788 36.1613 44.1529 36.4607 44.2109 36.7489C44.269 37.0371 44.4085 37.301 44.6119 37.5073C44.8152 37.7137 45.0733 37.853 45.3533 37.908C45.6334 37.9629 45.9231 37.9309 46.1856 37.8161C46.4479 37.701 46.6715 37.5083 46.828 37.2622C46.9319 37.0988 47.0035 36.9157 47.039 36.7236C47.0742 36.5315 47.0727 36.334 47.034 36.1427C46.9955 35.9512 46.9206 35.7695 46.814 35.6078C46.7073 35.4461 46.571 35.3078 46.4125 35.2006ZM13.6142 45.9335C13.8384 45.9315 14.058 45.9983 14.2455 46.1252C14.37 46.2096 14.4771 46.3184 14.5609 46.4455C14.6446 46.5727 14.7033 46.7155 14.7335 46.8661C14.7637 47.0165 14.7649 47.1718 14.7371 47.3227C14.7092 47.4737 14.6527 47.6176 14.5709 47.746C14.4479 47.9396 14.272 48.091 14.0656 48.1811C13.8592 48.2714 13.6315 48.2963 13.4113 48.253C13.1911 48.2098 12.9883 48.0999 12.8285 47.9376C12.6688 47.7753 12.5592 47.5678 12.5137 47.341C12.4682 47.1145 12.4888 46.8791 12.5729 46.6647C12.657 46.4502 12.8008 46.2662 12.9861 46.1361C13.1715 46.0059 13.3901 45.9355 13.6142 45.9335ZM38.0031 46.0029C37.8028 46.1071 37.6372 46.2701 37.5267 46.4715C37.4162 46.673 37.3663 46.9036 37.3829 47.1345C37.3996 47.3654 37.4821 47.5859 37.6201 47.7682C37.7582 47.9506 37.9456 48.0866 38.1586 48.1592C38.3715 48.2315 38.6005 48.2372 38.8164 48.1752C39.0324 48.1133 39.2258 47.9866 39.3721 47.8113C39.5186 47.636 39.6111 47.4197 39.6384 47.19C39.6656 46.9602 39.6264 46.7273 39.5253 46.5208C39.4584 46.3834 39.366 46.261 39.2532 46.1606C39.1406 46.0602 39.0096 45.9837 38.8683 45.9357C38.7268 45.8875 38.5777 45.8687 38.4293 45.8801C38.2807 45.8918 38.136 45.9333 38.0031 46.0029ZM25.3991 31.9179C25.4625 32.7202 25.2649 33.5213 24.8376 34.1946C24.5197 34.6982 24.0847 35.1117 23.5723 35.3971C23.06 35.6827 22.4865 35.8312 21.9042 35.8292C21.1246 35.8286 20.3673 35.5596 19.7523 35.0647C19.1375 34.5697 18.7001 33.8773 18.5093 33.097C18.3186 32.3164 18.3855 31.4926 18.6994 30.7559C19.0133 30.019 19.5562 29.4114 20.2423 29.029C20.9285 28.6467 21.7185 28.5115 22.4875 28.6449C23.2564 28.7783 23.9602 29.1726 24.4876 29.7654C25.0149 30.3582 25.3358 31.1158 25.3991 31.9179ZM17.8354 39.7468C17.5458 39.5513 17.2066 39.4487 16.8605 39.4521C16.5145 39.4555 16.1772 39.5648 15.8913 39.7662C15.6054 39.9674 15.3837 40.2516 15.2543 40.5829C15.1249 40.9142 15.0935 41.2777 15.1641 41.6275C15.2348 41.9772 15.4043 42.2974 15.6512 42.5476C15.8981 42.7981 16.2114 42.9671 16.5514 43.0337C16.8914 43.1001 17.2428 43.0611 17.5614 42.9216C17.8799 42.7818 18.1511 42.5478 18.3409 42.2492C18.595 41.8481 18.6845 41.3591 18.5897 40.8901C18.495 40.4208 18.2237 40.0097 17.8354 39.7468ZM25.1924 46.8742C25.438 46.7247 25.721 46.654 26.0057 46.6708C26.1949 46.6819 26.3799 46.7313 26.5505 46.8163C26.7211 46.9013 26.8739 47.02 26.9998 47.1661C27.1258 47.312 27.2229 47.4822 27.2853 47.6668C27.3476 47.8514 27.3742 48.0469 27.3633 48.2422C27.3468 48.5359 27.2465 48.8182 27.0747 49.0532C26.903 49.2882 26.6676 49.4653 26.3984 49.5621C26.1292 49.659 25.8382 49.6712 25.5621 49.5975C25.2862 49.5236 25.0377 49.367 24.8477 49.1473C24.658 48.9277 24.5356 48.6549 24.496 48.3633C24.4563 48.0718 24.5015 47.7749 24.6254 47.5096C24.7493 47.2446 24.9465 47.0234 25.1924 46.8742ZM26.021 37.3057C25.614 37.28 25.2086 37.3798 24.8565 37.5923C24.5044 37.8046 24.2214 38.1203 24.0432 38.4988C23.8649 38.8775 23.7994 39.3023 23.8551 39.7193C23.911 40.1364 24.0853 40.527 24.3564 40.8416C24.6273 41.1563 24.9825 41.3808 25.3773 41.4868C25.7719 41.5927 26.1882 41.5755 26.5734 41.4372C26.9585 41.2986 27.2953 41.0454 27.5407 40.7092C27.7864 40.3732 27.9298 39.9694 27.953 39.5491C27.9844 38.9872 27.7987 38.4355 27.4364 38.0149C27.0741 37.5943 26.5652 37.3393 26.021 37.3057ZM33.7128 40.3295C33.8826 40.0176 34.1384 39.7646 34.4475 39.6025C34.6523 39.4948 34.8756 39.4298 35.1048 39.411C35.334 39.3924 35.5643 39.4207 35.783 39.4942C36.0014 39.5675 36.2038 39.6847 36.3785 39.8391C36.5533 39.9933 36.6967 40.1816 36.8006 40.3931C36.9582 40.712 37.0206 41.0719 36.9801 41.4273C36.9395 41.7827 36.7976 42.1177 36.5726 42.3899C36.3474 42.6621 36.0491 42.8591 35.7154 42.9562C35.3819 43.0532 35.0276 43.0459 34.6981 42.9352C34.3684 42.8245 34.0779 42.6152 33.8635 42.334C33.649 42.0527 33.5204 41.7121 33.4936 41.3553C33.4668 40.9986 33.543 40.6416 33.7128 40.3295Z" fill="url(#paint0_linear_23801_154118)"/>
<defs>
<linearGradient id="paint0_linear_23801_154118" x1="-7.66241e-09" y1="-1.93664e-09" x2="182.567" y2="43.6259" gradientUnits="userSpaceOnUse">
<stop stop-color="#3DABFF"/>
<stop offset="1" stop-color="#66BDFF"/>
</linearGradient>
</defs>
</svg>
