<svg width="24" height="24" viewBox="0 0 24 24" fill="none" xmlns="http://www.w3.org/2000/svg">
<g clip-path="url(#clip0_26915_84956)">
<path d="M14.9203 8.31567C15.2766 8.31567 15.5672 8.02505 15.5672 7.6688V2.47974C15.5672 1.4063 14.6953 0.534424 13.6219 0.534424H1.94531C0.871875 0.534424 0 1.4063 0 2.47974V18.0469C0 19.0126 0.698437 20.0719 1.58437 20.4516L8.28281 23.3204C8.5125 23.4188 8.74687 23.4657 8.97187 23.4657C9.24844 23.4657 9.51094 23.3907 9.73594 23.2407C10.1438 22.9735 10.3781 22.4954 10.3781 21.9329V19.9876H13.6219C14.6953 19.9876 15.5672 19.1157 15.5672 18.0422V12.8579C15.5672 12.5016 15.2766 12.211 14.9203 12.211C14.5641 12.211 14.2734 12.5016 14.2734 12.8579V18.0469C14.2734 18.4032 13.9828 18.6938 13.6266 18.6938H10.3828V6.37036C10.3828 5.40474 9.68437 4.34536 8.79844 3.96567L3.81094 1.82817H13.6219C13.9781 1.82817 14.2687 2.1188 14.2687 2.47505V7.66411C14.2687 8.02505 14.5594 8.31567 14.9203 8.31567ZM8.28281 5.16099C8.7 5.33911 9.08438 5.92036 9.08438 6.37036V21.9376C9.08438 22.0735 9.04688 22.1485 9.02813 22.1625C9.00469 22.1766 8.925 22.1813 8.79844 22.1297L2.09531 19.2563C1.67813 19.0782 1.29844 18.5016 1.29844 18.0469V2.47974L1.36406 2.1938L8.28281 5.16099Z" fill="#C20024"/>
<path d="M23.8074 9.80166L19.9168 5.91104C19.6637 5.65791 19.2512 5.65791 18.998 5.91104C18.7449 6.16416 18.7449 6.57666 18.998 6.82979L21.7824 9.61416H13.6215C13.2652 9.61416 12.9746 9.90479 12.9746 10.261C12.9746 10.6173 13.2652 10.9079 13.6215 10.9079H21.7871L19.0027 13.6923C18.7496 13.9454 18.7496 14.3579 19.0027 14.611C19.1293 14.7376 19.298 14.7985 19.4621 14.7985C19.6262 14.7985 19.7949 14.7329 19.9215 14.611L23.8121 10.7204C24.0605 10.4673 24.0605 10.0548 23.8074 9.80166Z" fill="#C20024"/>
</g>
<defs>
<clipPath id="clip0_26915_84956">
<rect width="24" height="24" fill="white"/>
</clipPath>
</defs>
</svg>
