<svg width="14" height="13" viewBox="0 0 14 13" fill="none" xmlns="http://www.w3.org/2000/svg">
<path d="M7.60188 6.47418C8.43431 5.86413 9.08546 5.21807 9.55533 4.53601C10.0252 3.85395 10.2602 3.1814 10.2602 2.51835C10.2602 2.11618 10.1887 1.7953 10.0458 1.55571C9.90293 1.31613 9.71238 1.19634 9.47416 1.19634C8.9334 1.19634 8.46499 1.60519 8.06893 2.4229C7.67286 3.24061 7.47483 4.20132 7.47483 5.30503C7.47483 5.51924 7.48412 5.72305 7.50269 5.91643C7.52126 6.10982 7.55433 6.29573 7.60188 6.47418ZM0.663003 12.3458V11.1699H1.83897V12.3458H0.663003ZM3.29413 12.3458V11.1699H4.47008V12.3458H3.29413ZM5.91641 12.3458V11.1699H7.09236V12.3458H5.91641ZM8.54752 12.3458V11.1699H9.72349V12.3458H8.54752ZM11.1786 12.3458V11.1699H12.3546V12.3458H11.1786ZM0.844394 9.70382L0.0291748 8.87976L1.02917 7.87976L0.0291748 6.87976L0.844394 6.05571L1.84439 7.05571L2.84439 6.05571L3.66846 6.87976L2.66846 7.87976L3.66846 8.87976L2.84439 9.70382L1.84439 8.70382L0.844394 9.70382ZM8.83286 9.24731C8.47009 9.24731 8.14412 9.16261 7.85494 8.99323C7.56576 8.82384 7.3127 8.58381 7.09575 8.27312C6.84123 8.42484 6.57742 8.57464 6.30432 8.72251C6.03122 8.87037 5.74658 9.01043 5.45038 9.14268L4.92796 8.10871C5.22551 7.96468 5.50857 7.821 5.77714 7.67767C6.04571 7.53432 6.30794 7.38384 6.56383 7.22623C6.47325 6.94543 6.40644 6.64787 6.36341 6.33356C6.32039 6.01924 6.29888 5.68818 6.29888 5.34035C6.29888 3.84307 6.59824 2.58209 7.19697 1.5574C7.79571 0.532724 8.55478 0.0203857 9.47416 0.0203857C10.0702 0.0203857 10.5462 0.251589 10.9021 0.713995C11.2581 1.17641 11.4361 1.78171 11.4361 2.5299C11.4361 3.41713 11.1425 4.29677 10.5553 5.16882C9.96816 6.04088 9.14694 6.85236 8.09169 7.60328C8.20764 7.75635 8.334 7.87263 8.47077 7.95212C8.60755 8.0316 8.75769 8.07134 8.92118 8.07134C9.29165 8.07134 9.65227 7.91951 10.003 7.61584C10.3538 7.31217 10.69 6.86278 11.0115 6.26767L11.9592 6.72692C11.9189 7.00952 11.8976 7.22997 11.8954 7.38826C11.8931 7.54654 11.8929 7.76699 11.8947 8.0496C12.0405 7.94135 12.1809 7.83028 12.3159 7.71639C12.4508 7.60248 12.5765 7.4717 12.6929 7.32406L13.6284 7.78737C13.3444 8.25748 13.0418 8.61833 12.7204 8.86992C12.3991 9.12151 12.0795 9.24731 11.7615 9.24731C11.4998 9.24731 11.2834 9.16318 11.1124 8.99493C10.9414 8.82668 10.8374 8.59061 10.8003 8.28671C10.4982 8.60238 10.1815 8.8414 9.85018 9.00376C9.51888 9.16613 9.17978 9.24731 8.83286 9.24731Z" fill="#F6F9FF"/>
</svg>
