<svg width="26" height="26" viewBox="0 0 26 26" fill="none" xmlns="http://www.w3.org/2000/svg">
<path d="M25.368 1.40564C25.3153 1.20581 25.2106 1.02354 25.0645 0.87742C24.9184 0.731301 24.7361 0.626575 24.5363 0.573934C22.143 -0.0476788 19.6228 0.0192723 17.2659 0.767079C14.909 1.51489 12.8113 2.91314 11.2142 4.80084L9.91342 6.34531L6.87449 5.61208C6.13569 5.35451 5.32864 5.37297 4.60238 5.66405C3.87613 5.95513 3.27973 6.49917 2.92332 7.19569L0.356428 11.7456C0.266488 11.9049 0.215303 12.0832 0.207009 12.266C0.198716 12.4489 0.233547 12.631 0.308688 12.7979C0.383828 12.9648 0.497171 13.1116 0.639555 13.2266C0.781939 13.3415 0.949371 13.4214 1.12832 13.4596L4.71319 14.2281C4.40952 15.1525 4.19268 16.1032 4.0655 17.0679C4.04244 17.2451 4.06039 17.4253 4.11797 17.5944C4.17555 17.7636 4.27122 17.9173 4.3976 18.0437L8.01438 21.6605C8.12267 21.7689 8.25125 21.8548 8.39278 21.9135C8.53431 21.9721 8.68601 22.0023 8.83922 22.0023C8.87283 22.0023 8.90644 22.0006 8.94062 21.9978C9.92685 21.9091 10.9011 21.7175 11.8475 21.4261L12.5984 24.9298C12.6368 25.1087 12.7167 25.2761 12.8317 25.4184C12.9466 25.5607 13.0935 25.674 13.2603 25.7492C13.4271 25.8243 13.6093 25.8591 13.7921 25.8509C13.9749 25.8426 14.1531 25.7915 14.3125 25.7017L18.8687 23.1319C19.5099 22.7423 20.0108 22.1591 20.2992 21.4663C20.5875 20.7736 20.6483 20.0072 20.4728 19.2776L19.6927 16.0588L21.1359 14.7317C23.0307 13.1391 24.4343 11.0412 25.1835 8.68208C25.9327 6.32299 25.9967 3.79966 25.368 1.40564ZM3.16771 11.5103L4.98322 8.29058C5.09598 8.072 5.2881 7.90484 5.52018 7.82338C5.75226 7.74193 6.0067 7.75235 6.23134 7.85251L8.23499 8.33808L7.47665 9.2385C6.7577 10.1002 6.13588 11.0384 5.62245 12.0363L3.16771 11.5103ZM17.7163 21.1028L14.5478 22.8898L14.0467 20.5511C15.0625 20.0445 16.0088 19.4093 16.8624 18.6612L17.7298 17.8636L18.2005 19.8057C18.2615 20.0455 18.2479 20.2982 18.1614 20.53C18.0748 20.7618 17.9195 20.9617 17.7163 21.1028ZM19.5996 12.9766L15.3009 16.9272C13.5994 18.3987 11.5007 19.334 9.26878 19.6155L6.46376 16.8105C6.84051 14.5728 7.80743 12.4761 9.26479 10.7368L11.2229 8.412C11.2555 8.37787 11.2859 8.34172 11.314 8.30377L12.9881 6.31614C14.2259 4.85418 15.8295 3.74691 17.6352 3.10739C19.4409 2.46787 21.3839 2.319 23.2659 2.676C23.6316 4.56392 23.4843 6.51535 22.8395 8.32701C22.1946 10.1387 21.0758 11.7443 19.5996 12.9766ZM18.5228 5.78559C18.1766 5.78559 17.8383 5.88822 17.5505 6.08051C17.2627 6.27281 17.0384 6.54612 16.906 6.86589C16.7735 7.18566 16.7389 7.53753 16.8064 7.87699C16.8739 8.21646 17.0406 8.52828 17.2853 8.77302C17.5301 9.01776 17.8419 9.18444 18.1814 9.25196C18.5208 9.31948 18.8727 9.28483 19.1925 9.15238C19.5122 9.01992 19.7855 8.79562 19.9778 8.50783C20.1701 8.22005 20.2728 7.8817 20.2728 7.53559C20.2728 7.30576 20.2275 7.07819 20.1396 6.86586C20.0516 6.65353 19.9227 6.4606 19.7602 6.29809C19.5977 6.13558 19.4048 6.00668 19.1924 5.91874C18.9801 5.8308 18.7525 5.78554 18.5227 5.78556L18.5228 5.78559Z" fill="#0033AD"/>
</svg>
