<svg width="14" height="14" viewBox="0 0 14 14" fill="none" xmlns="http://www.w3.org/2000/svg">
<circle cx="7" cy="7" r="7" fill="#434656"/>
<g clip-path="url(#clip0_25422_78139)">
<path d="M6.99968 6.58337C6.88917 6.58337 6.78319 6.62727 6.70505 6.70541C6.62691 6.78355 6.58301 6.88953 6.58301 7.00004V8.66671C6.58301 8.77721 6.62691 8.8832 6.70505 8.96134C6.78319 9.03948 6.88917 9.08337 6.99968 9.08337C7.11018 9.08337 7.21616 9.03948 7.2943 8.96134C7.37244 8.8832 7.41634 8.77721 7.41634 8.66671V7.00004C7.41634 6.88953 7.37244 6.78355 7.2943 6.70541C7.21616 6.62727 7.11018 6.58337 6.99968 6.58337ZM7.15801 4.95004C7.05657 4.90837 6.94279 4.90837 6.84134 4.95004C6.7902 4.96987 6.74347 4.99961 6.70384 5.03754C6.66704 5.07804 6.63744 5.12455 6.61634 5.17504C6.59302 5.22449 6.5816 5.27872 6.58301 5.33337C6.58269 5.38821 6.5932 5.44257 6.61394 5.49334C6.63467 5.5441 6.66523 5.59027 6.70384 5.62921C6.74434 5.66601 6.79085 5.69561 6.84134 5.71671C6.90447 5.74264 6.973 5.75267 7.0409 5.74592C7.10881 5.73917 7.17402 5.71584 7.23081 5.67799C7.28759 5.64013 7.3342 5.58891 7.36656 5.52882C7.39891 5.46873 7.416 5.40162 7.41634 5.33337C7.41481 5.22305 7.37165 5.11739 7.29551 5.03754C7.25588 4.99961 7.20916 4.96987 7.15801 4.95004ZM6.99968 2.83337C6.17559 2.83337 5.37001 3.07774 4.6848 3.53558C3.9996 3.99342 3.46554 4.64417 3.15018 5.40553C2.83481 6.16689 2.7523 7.00466 2.91307 7.81292C3.07384 8.62117 3.47068 9.3636 4.0534 9.94632C4.63612 10.529 5.37855 10.9259 6.1868 11.0866C6.99505 11.2474 7.83283 11.1649 8.59419 10.8495C9.35555 10.5342 10.0063 10.0001 10.4641 9.31492C10.922 8.62971 11.1663 7.82413 11.1663 7.00004C11.1663 6.45287 11.0586 5.91105 10.8492 5.40553C10.6398 4.9 10.3329 4.44067 9.94595 4.05376C9.55904 3.66685 9.09971 3.35994 8.59419 3.15054C8.08867 2.94115 7.54685 2.83337 6.99968 2.83337ZM6.99968 10.3334C6.34041 10.3334 5.69594 10.1379 5.14778 9.77161C4.59961 9.40533 4.17237 8.88474 3.92008 8.27565C3.66779 7.66657 3.60177 6.99634 3.73039 6.34974C3.85901 5.70314 4.17648 5.10919 4.64265 4.64302C5.10883 4.17684 5.70277 3.85937 6.34938 3.73076C6.99598 3.60214 7.6662 3.66815 8.27529 3.92044C8.88437 4.17273 9.40497 4.59998 9.77124 5.14814C10.1375 5.6963 10.333 6.34077 10.333 7.00004C10.333 7.8841 9.98182 8.73194 9.3567 9.35706C8.73158 9.98218 7.88373 10.3334 6.99968 10.3334Z" fill="#F6F9FF"/>
</g>
<defs>
<clipPath id="clip0_25422_78139">
<rect width="10" height="10" fill="white" transform="translate(2 2)"/>
</clipPath>
</defs>
</svg>
