<svg width="21" height="21" viewBox="0 0 21 21" fill="none" xmlns="http://www.w3.org/2000/svg">
<path d="M4.73829 19.5591C4.26423 19.5591 3.85689 19.3888 3.51628 19.0481C3.17568 18.7076 3.00537 18.3002 3.00537 17.8262V3.17372C3.00537 2.69626 3.17568 2.28602 3.51628 1.94299C3.85689 1.59997 4.26423 1.42847 4.73829 1.42847H12.2005L17.636 6.86392V10.1404H15.8907V7.98622H11.0782V3.17372H4.73829V17.8262H11.1524V19.5591H4.73829ZM16.1418 13.2943L16.915 14.0551L13.5748 17.4095V18.4615H14.6245L17.9688 15.1089L18.7545 15.8945L15.0652 19.5591H12.4649V16.9588L16.1418 13.2943ZM18.7545 15.8945L16.1418 13.2943L17.4885 11.9475C17.661 11.7668 17.8636 11.6764 18.0963 11.6764C18.329 11.6764 18.5316 11.7668 18.704 11.9475L20.0888 13.3199C20.2613 13.4924 20.3475 13.695 20.3475 13.9277C20.3475 14.1604 20.2613 14.3671 20.0888 14.5478L18.7545 15.8945Z"/>
</svg>
