<svg width="23" height="23" viewBox="0 0 23 23" fill="none" xmlns="http://www.w3.org/2000/svg">
  <path
    d="M11.5007 0.958344C10.1815 0.959998 8.89205 1.35058 7.79366 2.08123C6.69527 2.81189 5.83669 3.85018 5.32531 5.06625C4.81393 6.28231 4.67245 7.62216 4.91857 8.91821C5.16468 10.2143 5.78747 11.409 6.70904 12.3529V21.0833C6.70953 21.2467 6.75178 21.4072 6.83177 21.5497C6.91175 21.6921 7.02682 21.8117 7.16605 21.8972C7.30528 21.9827 7.46404 22.0311 7.62726 22.0379C7.79048 22.0448 7.95274 22.0098 8.09862 21.9363L11.5007 20.24L14.9028 21.9363C15.0363 22.0047 15.184 22.0408 15.334 22.0417C15.5135 22.0423 15.6894 21.9924 15.842 21.8979C15.9801 21.8116 16.0939 21.6915 16.1727 21.549C16.2515 21.4065 16.2927 21.2462 16.2924 21.0833V12.3529C17.2139 11.409 17.8367 10.2143 18.0828 8.91821C18.329 7.62216 18.1875 6.28231 17.6761 5.06625C17.1647 3.85018 16.3061 2.81189 15.2078 2.08123C14.1094 1.35058 12.8199 0.959998 11.5007 0.958344ZM14.3757 19.5308L11.932 18.3138C11.7982 18.2464 11.6505 18.2112 11.5007 18.2112C11.3509 18.2112 11.2032 18.2464 11.0695 18.3138L8.62571 19.5308V13.7233C9.23225 14.0098 9.87833 14.2036 10.5424 14.2983V15.3333C10.5424 15.5875 10.6433 15.8313 10.8231 16.011C11.0028 16.1907 11.2465 16.2917 11.5007 16.2917C11.7549 16.2917 11.9986 16.1907 12.1783 16.011C12.3581 15.8313 12.459 15.5875 12.459 15.3333V14.2983C13.1231 14.2036 13.7692 14.0098 14.3757 13.7233V19.5308ZM11.5007 12.4583C10.553 12.4583 9.62658 12.1773 8.8386 11.6508C8.05061 11.1243 7.43645 10.3759 7.07378 9.50037C6.71111 8.62481 6.61622 7.66136 6.80111 6.73187C6.986 5.80238 7.44236 4.94858 8.11249 4.27846C8.78261 3.60833 9.63641 3.15197 10.5659 2.96708C11.4954 2.78219 12.4588 2.87708 13.3344 3.23975C14.21 3.60242 14.9583 4.21658 15.4848 5.00457C16.0113 5.79256 16.2924 6.71898 16.2924 7.66668C16.2924 8.93751 15.7875 10.1563 14.8889 11.0549C13.9903 11.9535 12.7715 12.4583 11.5007 12.4583Z"
    fill="#434656"
  />
</svg>
