<svg width="19" height="19" viewBox="0 0 19 19" fill="none" xmlns="http://www.w3.org/2000/svg">
<g clip-path="url(#clip0_300_397)">
<path d="M4.70268 15.7462C3.27022 15.3329 2.12833 14.541 1.277 13.3703C0.425666 12.1997 0 10.9096 0 9.5C0 8.09042 0.425666 6.79845 1.277 5.62409C2.12833 4.44973 3.27022 3.65963 4.70268 3.25378V4.76627C3.71883 5.12295 2.92989 5.73799 2.33585 6.6114C1.74182 7.48482 1.44481 8.44768 1.44481 9.5C1.44481 10.5523 1.74182 11.5119 2.33585 12.3787C2.92989 13.2456 3.71883 13.8639 4.70268 14.2337V15.7462ZM11.2511 16C9.47046 16 7.9399 15.3602 6.65946 14.0807C5.37903 12.8012 4.73882 11.2743 4.73882 9.5C4.73882 7.72574 5.37903 6.19884 6.65946 4.9193C7.9399 3.63977 9.47046 3 11.2511 3C11.9505 3 12.6615 3.11932 13.3843 3.35796C14.1072 3.59661 14.7523 3.96772 15.3196 4.4713L14.349 5.45818C13.9095 5.12894 13.4126 4.87687 12.8581 4.70196C12.3037 4.52704 11.7717 4.43958 11.2623 4.43958C9.86543 4.43958 8.66976 4.93317 7.67531 5.92033C6.68084 6.90749 6.18361 8.09328 6.18361 9.47772C6.18361 10.877 6.68084 12.0739 7.67531 13.0685C8.66976 14.0631 9.86543 14.5604 11.2623 14.5604C11.7717 14.5604 12.3037 14.4762 12.8581 14.3079C13.4126 14.1396 13.9095 13.8908 14.349 13.5615L15.3196 14.5287C14.7523 15.0323 14.1072 15.4034 13.3843 15.642C12.6615 15.8807 11.9505 16 11.2511 16ZM15.8824 12.5669L14.9418 11.6298L16.5174 10.0599H10.2056V8.86124H16.5174L14.9418 7.29132L15.8824 6.35417L19 9.46056L15.8824 12.5669Z" fill="#434656"/>
</g>
<defs>
<clipPath id="clip0_300_397">
<rect width="19" height="19" fill="white"/>
</clipPath>
</defs>
</svg>
