<svg width="23" height="23" viewBox="0 0 23 23" xmlns="http://www.w3.org/2000/svg">
  <path
    d="M12.7462 11.7112C13.2575 11.2685 13.6676 10.7211 13.9487 10.106C14.2298 9.49086 14.3753 8.82246 14.3753 8.14616C14.3753 6.87533 13.8705 5.65655 12.9719 4.75794C12.0733 3.85933 10.8545 3.35449 9.58366 3.35449C8.31283 3.35449 7.09405 3.85933 6.19544 4.75794C5.29683 5.65655 4.79199 6.87533 4.79199 8.14616C4.79198 8.82246 4.93747 9.49086 5.21857 10.106C5.49967 10.7211 5.90981 11.2685 6.42116 11.7112C5.07963 12.3186 3.94144 13.2996 3.14268 14.5368C2.34393 15.7741 1.9184 17.2152 1.91699 18.6878C1.91699 18.942 2.01796 19.1857 2.19768 19.3655C2.3774 19.5452 2.62116 19.6462 2.87533 19.6462C3.12949 19.6462 3.37325 19.5452 3.55297 19.3655C3.73269 19.1857 3.83366 18.942 3.83366 18.6878C3.83366 17.1628 4.43946 15.7003 5.51779 14.622C6.59613 13.5436 8.05866 12.9378 9.58366 12.9378C11.1087 12.9378 12.5712 13.5436 13.6495 14.622C14.7279 15.7003 15.3337 17.1628 15.3337 18.6878C15.3337 18.942 15.4346 19.1857 15.6143 19.3655C15.7941 19.5452 16.0378 19.6462 16.292 19.6462C16.5462 19.6462 16.7899 19.5452 16.9696 19.3655C17.1494 19.1857 17.2503 18.942 17.2503 18.6878C17.2489 17.2152 16.8234 15.7741 16.0246 14.5368C15.2259 13.2996 14.0877 12.3186 12.7462 11.7112V11.7112ZM9.58366 11.0212C9.01504 11.0212 8.45919 10.8525 7.98639 10.5366C7.5136 10.2207 7.14511 9.77171 6.92751 9.24637C6.7099 8.72104 6.65297 8.14297 6.7639 7.58527C6.87483 7.02758 7.14865 6.5153 7.55073 6.11323C7.9528 5.71115 8.46508 5.43733 9.02277 5.3264C9.58047 5.21547 10.1585 5.2724 10.6839 5.49001C11.2092 5.70761 11.6582 6.0761 11.9741 6.54889C12.29 7.02169 12.4587 7.57754 12.4587 8.14616C12.4587 8.90866 12.1558 9.63992 11.6166 10.1791C11.0774 10.7183 10.3462 11.0212 9.58366 11.0212ZM20.8057 8.74991C20.7167 8.66009 20.6107 8.58879 20.4939 8.54014C20.3771 8.49149 20.2518 8.46644 20.1253 8.46644C19.9988 8.46644 19.8736 8.49149 19.7568 8.54014C19.64 8.58879 19.534 8.66009 19.4449 8.74991L17.5282 10.6666L16.9341 10.0628C16.845 9.973 16.739 9.90171 16.6222 9.85306C16.5054 9.8044 16.3802 9.77935 16.2537 9.77935C16.1271 9.77935 16.0019 9.8044 15.8851 9.85306C15.7683 9.90171 15.6623 9.973 15.5732 10.0628C15.3948 10.2424 15.2946 10.4853 15.2946 10.7385C15.2946 10.9916 15.3948 11.2345 15.5732 11.4141L16.8574 12.6982C17.037 12.8767 17.2799 12.9769 17.533 12.9769C17.7862 12.9769 18.0291 12.8767 18.2087 12.6982L20.7674 10.1395C20.8642 10.0526 20.9422 9.94691 20.9968 9.82888C21.0514 9.71085 21.0814 9.58294 21.085 9.45293C21.0886 9.32293 21.0657 9.19356 21.0177 9.0727C20.9697 8.95184 20.8976 8.84201 20.8057 8.74991V8.74991Z"
  />
</svg>