<svg width="80" height="80" viewBox="0 0 80 80" fill="none" xmlns="http://www.w3.org/2000/svg">
<path d="M44.75 3.31976L69.391 17.5463C72.3303 19.2433 74.141 22.3795 74.141 25.7735V54.2265C74.141 57.6205 72.3303 60.7567 69.391 62.4537L44.75 76.6802C41.8107 78.3773 38.1893 78.3773 35.25 76.6802L10.609 62.4537C7.66967 60.7567 5.85898 57.6205 5.85898 54.2265V25.7735C5.85898 22.3795 7.66967 19.2433 10.609 17.5463L35.25 3.31976C38.1893 1.62275 41.8107 1.62275 44.75 3.31976Z" stroke="#3F3D56"/>
<path d="M20.7063 57C17.7457 53.8717 16.4953 50.6081 17.1853 47.8104C18.0708 44.2202 22.0046 41.7379 27.9779 41L28 41.2059C22.1098 41.9336 18.236 44.3602 17.372 47.8635C16.7005 50.5861 17.9327 53.7784 20.8418 56.8523L20.7063 57Z" fill="#5C8DFF"/>
<path d="M52.1029 58.5804C48.2917 59.6993 43.9839 60.3489 39.5505 60.4676C34.0679 60.6145 28.8068 59.9511 24.3357 58.5493L24.3978 58.3513C28.8473 59.7463 34.0851 60.4064 39.5449 60.2601C44.4789 60.1281 49.2563 59.3354 53.3592 57.9698L53.4248 58.1667C52.9916 58.311 52.5509 58.4489 52.1029 58.5804Z" fill="#5C8DFF"/>
<path d="M60.289 57L60.2231 56.8061C63.7478 55.6217 65.9524 53.7138 66.5985 51.2884C67.4198 48.2051 65.6356 44.6272 61.5744 41.2136C57.4925 37.7828 51.6064 34.936 45 33.1979L45.0527 33C51.6879 34.7458 57.6027 37.6073 61.7073 41.0574C65.8327 44.5248 67.6405 48.1768 66.7977 51.3407C66.133 53.8357 63.8824 55.7926 60.289 57Z" fill="#5C8DFF"/>
<path d="M51.5865 40.0034C50.1851 39.5472 48.7437 39.1224 47.3023 38.7408C39.0075 36.5449 30.8537 35.7652 23.7219 36.4865L23.6992 36.2621C30.8576 35.5384 39.0393 36.32 47.36 38.5228C48.8055 38.9055 50.251 39.3315 51.6563 39.7891L51.5865 40.0034Z" fill="#5C8DFF"/>
<path d="M15.7063 57C12.7457 53.8717 11.4953 50.6081 12.1853 47.8104C13.0708 44.2202 17.0046 41.7379 22.9779 41L23 41.2059C17.1098 41.9336 13.236 44.3602 12.372 47.8635C11.7005 50.5861 12.9327 53.7784 15.8418 56.8523L15.7063 57Z" fill="#5C8DFF"/>
<path d="M47.5091 60.2532C43.698 61.3722 39.3902 62.0218 34.9567 62.1405C29.4742 62.2873 24.213 61.624 19.742 60.2222L19.804 60.0241C24.2535 61.4192 29.4913 62.0793 34.9512 61.933C39.8852 61.8009 44.6625 61.0083 48.7655 59.6427L48.8311 59.8395C48.3978 59.9839 47.9572 60.1218 47.5091 60.2532Z" fill="#5C8DFF"/>
<path d="M55.289 58L55.2231 57.798C58.7478 56.5643 60.9524 54.5768 61.5985 52.0504C62.4198 48.8386 60.6356 45.1116 56.5744 41.5559C52.4925 37.9821 46.6064 35.0167 40 33.2061L40.0527 33C46.6879 34.8185 52.6027 37.7992 56.7073 41.3931C60.8327 45.005 62.6405 48.8092 61.7977 52.1049C61.133 54.7038 58.8824 56.7423 55.289 58Z" fill="#5C8DFF"/>
<path d="M45.9351 42C44.6318 41.5441 43.2913 41.1197 41.9508 40.7384C34.2367 38.5444 26.6536 37.7654 20.0211 38.4861L20 38.2619C26.6572 37.5388 34.2663 38.3197 42.0045 40.5206C43.3488 40.903 44.6931 41.3286 46 41.7858L45.9351 42Z" fill="#5C8DFF"/>
<path d="M53.1268 23.0899C53.3829 23.1968 53.6623 23.2359 53.9379 23.2036C54.2136 23.1712 54.4763 23.0683 54.7007 22.905C55.2728 22.4783 55.4872 21.7335 55.6668 21.043L56.1975 19L55.3013 19.5441C54.6567 19.9353 53.9974 20.3395 53.5322 20.9335C53.067 21.5274 52.8316 22.3597 53.1382 23.049" fill="#5C8DFF"/>
<path d="M18.0925 35.0735C18.2654 34.8564 18.3796 34.5984 18.424 34.3244C18.4683 34.0504 18.4414 33.7696 18.3457 33.5091C18.092 32.842 17.4345 32.4318 16.8195 32.0699L15 31L15.2779 32.011C15.4776 32.738 15.6857 33.4828 16.1296 34.0929C16.5734 34.703 17.3094 35.1574 18.0563 35.0512" fill="#5C8DFF"/>
<path d="M30.9019 22.8039C31.4001 22.8039 31.8039 22.4001 31.8039 21.9019C31.8039 21.4038 31.4001 21 30.9019 21C30.4038 21 30 21.4038 30 21.9019C30 22.4001 30.4038 22.8039 30.9019 22.8039Z" fill="#5C8DFF"/>
<path d="M18.9019 20.8039C19.4001 20.8039 19.8039 20.4001 19.8039 19.9019C19.8039 19.4038 19.4001 19 18.9019 19C18.4038 19 18 19.4038 18 19.9019C18 20.4001 18.4038 20.8039 18.9019 20.8039Z" fill="#5C8DFF"/>
<path d="M60.9019 29.8039C61.4 29.8039 61.8039 29.4001 61.8039 28.9019C61.8039 28.4038 61.4 28 60.9019 28C60.4038 28 60 28.4038 60 28.9019C60 29.4001 60.4038 29.8039 60.9019 29.8039Z" fill="#5C8DFF"/>
<path d="M43.1512 52.3544V50.5283H35.8469V52.3544C35.8469 53.0002 35.5904 53.6194 35.1338 54.0761C34.6772 54.5327 34.0579 54.7892 33.4121 54.7892V56.6153H45.586V54.7892C44.9403 54.7892 44.321 54.5327 43.8644 54.0761C43.4078 53.6194 43.1512 53.0002 43.1512 52.3544Z" fill="#5C8DFF"/>
<path d="M33.4121 54.7891H45.586V56.6151H33.4121V54.7891Z" fill="#5C8DFF"/>
<path d="M56.087 27H22.913C22.4088 27 22 27.4088 22 27.913V50.3176C22 50.8219 22.4088 51.2307 22.913 51.2307H56.087C56.5912 51.2307 57 50.8219 57 50.3176V27.913C57 27.4088 56.5912 27 56.087 27Z" fill="#D6E2FF"/>
<path d="M22 45.7529H57V50.3181C57 50.5603 56.9038 50.7925 56.7326 50.9638C56.5613 51.135 56.3291 51.2312 56.087 51.2312H22.913C22.6709 51.2312 22.4387 51.135 22.2674 50.9638C22.0962 50.7925 22 50.5603 22 50.3181V45.7529Z" fill="#5C8DFF"/>
<path d="M39.5009 49.4052C40.0052 49.4052 40.414 48.9964 40.414 48.4921C40.414 47.9879 40.0052 47.5791 39.5009 47.5791C38.9967 47.5791 38.5879 47.9879 38.5879 48.4921C38.5879 48.9964 38.9967 49.4052 39.5009 49.4052Z" fill="#F2F2F2"/>
<path d="M47.455 36.0375C47.3865 36.0299 47.6135 36.0322 44.4167 36.0322L43.3341 32.9144C43.099 32.2374 42.0984 32.2493 41.8673 32.914L39.4066 39.9875L36.8062 30.7984C36.6105 30.1071 35.5938 30.0657 35.3351 30.7361L33.2572 36.122H30.862C31.1724 36.5551 31.1498 37.168 30.7109 37.5858C30.7922 37.596 30.5625 37.593 33.7963 37.593C34.1202 37.593 34.4098 37.4006 34.5214 37.1111L35.9469 33.4165L38.5845 42.7369C38.7832 43.4387 39.8236 43.4668 40.0638 42.7768L42.6 35.4866L43.125 36.9985C43.2296 37.2997 43.5252 37.5032 43.8584 37.5032C47.6664 37.5032 47.3856 37.5055 47.4551 37.4979C47.0879 37.0749 47.0879 36.4605 47.455 36.0375Z" fill="#24262E"/>
<path d="M30.5311 37.9675C31.1966 37.9675 31.7361 37.428 31.7361 36.7626C31.7361 36.0971 31.1966 35.5576 30.5311 35.5576C29.8656 35.5576 29.3262 36.0971 29.3262 36.7626C29.3262 37.428 29.8656 37.9675 30.5311 37.9675Z" fill="#C20024"/>
<path d="M47.7283 37.9684C48.3938 37.9684 48.9332 37.4289 48.9332 36.7635C48.9332 36.098 48.3938 35.5586 47.7283 35.5586C47.0629 35.5586 46.5234 36.098 46.5234 36.7635C46.5234 37.4289 47.0629 37.9684 47.7283 37.9684Z" fill="#C20024"/>
</svg>
