<svg width="21" height="21" viewBox="0 0 21 21"   xmlns="http://www.w3.org/2000/svg">
<path d="M10.4998 0.916992C8.04304 0.924 5.68277 1.87428 3.9065 3.57158V1.87533C3.9065 1.62116 3.80554 1.3774 3.62581 1.19768C3.44609 1.01796 3.20234 0.916992 2.94817 0.916992C2.694 0.916992 2.45025 1.01796 2.27053 1.19768C2.0908 1.3774 1.98984 1.62116 1.98984 1.87533V6.18783C1.98984 6.44199 2.0908 6.68575 2.27053 6.86547C2.45025 7.04519 2.694 7.14616 2.94817 7.14616H7.26067C7.51484 7.14616 7.75859 7.04519 7.93831 6.86547C8.11804 6.68575 8.219 6.44199 8.219 6.18783C8.219 5.93366 8.11804 5.6899 7.93831 5.51018C7.75859 5.33046 7.51484 5.22949 7.26067 5.22949H4.96067C6.19287 3.94184 7.8352 3.1237 9.60527 2.91576C11.3753 2.70781 13.1626 3.12305 14.6596 4.09008C16.1567 5.0571 17.2701 6.51549 17.8084 8.2145C18.3467 9.91351 18.2762 11.747 17.6092 13.3997C16.9421 15.0524 15.72 16.421 14.1532 17.2703C12.5863 18.1196 10.7725 18.3964 9.02358 18.0533C7.27469 17.7101 5.69999 16.7683 4.57024 15.3899C3.44048 14.0115 2.82626 12.2826 2.83317 10.5003C2.83317 10.2462 2.7322 10.0024 2.55248 9.82268C2.37276 9.64296 2.129 9.54199 1.87484 9.54199C1.62067 9.54199 1.37692 9.64296 1.19719 9.82268C1.01747 10.0024 0.916504 10.2462 0.916504 10.5003C0.916504 12.3957 1.47856 14.2486 2.53159 15.8245C3.58462 17.4005 5.08133 18.6288 6.83245 19.3542C8.58358 20.0795 10.5105 20.2693 12.3695 19.8995C14.2284 19.5297 15.936 18.617 17.2763 17.2768C18.6165 15.9365 19.5293 14.2289 19.899 12.3699C20.2688 10.511 20.079 8.58407 19.3537 6.83294C18.6283 5.08182 17.4 3.58511 15.8241 2.53208C14.2481 1.47904 12.3952 0.916992 10.4998 0.916992ZM10.4998 6.66699C10.2457 6.66699 10.0019 6.76796 9.82219 6.94768C9.64247 7.1274 9.5415 7.37116 9.5415 7.62533V10.5003C9.5415 10.7545 9.64247 10.9982 9.82219 11.178C10.0019 11.3577 10.2457 11.4587 10.4998 11.4587H12.4165C12.6707 11.4587 12.9144 11.3577 13.0941 11.178C13.2739 10.9982 13.3748 10.7545 13.3748 10.5003C13.3748 10.2462 13.2739 10.0024 13.0941 9.82268C12.9144 9.64296 12.6707 9.54199 12.4165 9.54199H11.4582V7.62533C11.4582 7.37116 11.3572 7.1274 11.1775 6.94768C10.9978 6.76796 10.754 6.66699 10.4998 6.66699Z"  />
</svg>
