<svg width="136" height="100" viewBox="0 0 136 100" fill="none" xmlns="http://www.w3.org/2000/svg">
<g clip-path="url(#clip0_22161_284421)">
<path d="M68.3099 99.8163C95.8184 99.8163 118.12 77.5148 118.12 49.9082C118.12 22.3015 95.7201 0 68.3099 0C40.8015 0 18.5 22.3015 18.5 49.9082C18.5 77.5148 40.8015 99.8163 68.3099 99.8163Z" fill="#3DABFF" fill-opacity="0.25"/>
<path d="M25.5 11C27.9853 11 30 8.98528 30 6.5C30 4.01472 27.9853 2 25.5 2C23.0147 2 21 4.01472 21 6.5C21 8.98528 23.0147 11 25.5 11Z" fill="#3DABFF" fill-opacity="0.25"/>
<path d="M121.616 24.233C123.614 24.233 125.233 22.6138 125.233 20.6165C125.233 18.6192 123.614 17 121.616 17C119.619 17 118 18.6192 118 20.6165C118 22.6138 119.619 24.233 121.616 24.233Z" fill="#3DABFF" fill-opacity="0.25"/>
<path d="M108.5 94C109.881 94 111 92.8807 111 91.5C111 90.1193 109.881 89 108.5 89C107.119 89 106 90.1193 106 91.5C106 92.8807 107.119 94 108.5 94Z" fill="#3DABFF" fill-opacity="0.25"/>
<path d="M17 19C18.1046 19 19 18.1046 19 17C19 15.8954 18.1046 15 17 15C15.8954 15 15 15.8954 15 17C15 18.1046 15.8954 19 17 19Z" fill="#3DABFF" fill-opacity="0.25"/>
<path d="M10.5 92C14.0899 92 17 89.0899 17 85.5C17 81.9102 14.0899 79 10.5 79C6.91015 79 4 81.9102 4 85.5C4 89.0899 6.91015 92 10.5 92Z" fill="#3DABFF" fill-opacity="0.25"/>
<path d="M126 92C128.761 92 131 89.7614 131 87C131 84.2386 128.761 82 126 82C123.239 82 121 84.2386 121 87C121 89.7614 123.239 92 126 92Z" fill="#3DABFF" fill-opacity="0.25"/>
<path d="M126 74C127.657 74 129 72.6569 129 71C129 69.3431 127.657 68 126 68C124.343 68 123 69.3431 123 71C123 72.6569 124.343 74 126 74Z" fill="#3DABFF" fill-opacity="0.25"/>
<g filter="url(#filter0_d_22161_284421)">
<path d="M63.2892 57.2173C64.2558 56.2674 65.2071 55.3328 66.1583 54.397C69.039 51.5676 71.9197 48.7396 74.7991 45.909C77.0161 43.7305 79.2292 41.5482 81.4462 39.3684C83.1523 37.6906 84.852 36.005 86.5709 34.3413C87.8507 33.1012 89.3835 32.7084 91.087 33.2155C92.7713 33.7161 93.8265 34.8741 94.2001 36.5917C94.53 38.1116 94.1205 39.4698 93.028 40.561C90.0947 43.4892 87.1319 46.3878 84.1767 49.2942C81.0919 52.3276 78.0033 55.3559 74.9159 58.3868C72.0647 61.1853 69.2174 63.9877 66.3624 66.7824C64.7013 68.4089 61.8399 68.405 60.1761 66.776C57.5805 64.2355 54.9937 61.686 52.4032 59.1404C50.5816 57.3508 48.7638 55.5575 46.9358 53.7757C45.2682 52.1505 45.0256 49.7666 46.353 47.8949C47.8691 45.7588 51.0745 45.3801 52.995 47.1645C54.5355 48.5958 56.0117 50.0991 57.5124 51.5728C59.4033 53.4291 61.2917 55.2866 63.1814 57.1442C63.2032 57.166 63.2327 57.1801 63.2879 57.2173H63.2892Z" fill="#66BDFF"/>
</g>
</g>
<defs>
<filter id="filter0_d_22161_284421" x="23.5" y="22" width="92.8115" height="79" filterUnits="userSpaceOnUse" color-interpolation-filters="sRGB">
<feFlood flood-opacity="0" result="BackgroundImageFix"/>
<feColorMatrix in="SourceAlpha" type="matrix" values="0 0 0 0 0 0 0 0 0 0 0 0 0 0 0 0 0 0 127 0" result="hardAlpha"/>
<feOffset dy="11"/>
<feGaussianBlur stdDeviation="11"/>
<feColorMatrix type="matrix" values="0 0 0 0 0.397708 0 0 0 0 0.47749 0 0 0 0 0.575 0 0 0 0.27 0"/>
<feBlend mode="normal" in2="BackgroundImageFix" result="effect1_dropShadow_22161_284421"/>
<feBlend mode="normal" in="SourceGraphic" in2="effect1_dropShadow_22161_284421" result="shape"/>
</filter>
<clipPath id="clip0_22161_284421">
<rect width="135" height="100" fill="white" transform="translate(0.5)"/>
</clipPath>
</defs>
</svg>
