<svg width="18" height="22" viewBox="0 0 18 22" fill="none" xmlns="http://www.w3.org/2000/svg">
<path d="M17.6654 7.68504C17.6541 7.58552 17.6323 7.48747 17.6004 7.39254V7.29504C17.5483 7.18365 17.4788 7.08126 17.3945 6.9917L10.8945 0.491702C10.805 0.407436 10.7026 0.337957 10.5912 0.285869C10.5589 0.281276 10.526 0.281276 10.4937 0.285869C10.3836 0.222755 10.2621 0.182242 10.1362 0.166702H3.58203C2.72008 0.166702 1.89343 0.509112 1.28393 1.11861C0.674441 1.7281 0.332031 2.55475 0.332031 3.4167V18.5834C0.332031 19.4453 0.674441 20.272 1.28393 20.8815C1.89343 21.491 2.72008 21.8334 3.58203 21.8334H14.4154C15.2773 21.8334 16.104 21.491 16.7135 20.8815C17.323 20.272 17.6654 19.4453 17.6654 18.5834V7.75004C17.6654 7.75004 17.6654 7.75004 17.6654 7.68504ZM11.1654 3.86087L13.9712 6.6667H12.2487C11.9614 6.6667 11.6858 6.55257 11.4827 6.3494C11.2795 6.14624 11.1654 5.87069 11.1654 5.58337V3.86087ZM15.4987 18.5834C15.4987 18.8707 15.3846 19.1462 15.1814 19.3494C14.9782 19.5526 14.7027 19.6667 14.4154 19.6667H3.58203C3.29471 19.6667 3.01916 19.5526 2.816 19.3494C2.61283 19.1462 2.4987 18.8707 2.4987 18.5834V3.4167C2.4987 3.12938 2.61283 2.85383 2.816 2.65067C3.01916 2.44751 3.29471 2.33337 3.58203 2.33337H8.9987V5.58337C8.9987 6.44532 9.34111 7.27197 9.9506 7.88147C10.5601 8.49096 11.3867 8.83337 12.2487 8.83337H15.4987V18.5834ZM11.4795 11.3142L7.91536 14.8892L6.51786 13.4809C6.31387 13.2769 6.03719 13.1623 5.7487 13.1623C5.4602 13.1623 5.18353 13.2769 4.97953 13.4809C4.77554 13.6849 4.66093 13.9615 4.66093 14.25C4.66093 14.5385 4.77554 14.8152 4.97953 15.0192L7.1462 17.1859C7.24691 17.2874 7.36672 17.368 7.49874 17.423C7.63075 17.478 7.77235 17.5063 7.91536 17.5063C8.05838 17.5063 8.19997 17.478 8.33199 17.423C8.464 17.368 8.58382 17.2874 8.68453 17.1859L13.0179 12.8525C13.2219 12.6485 13.3365 12.3719 13.3365 12.0834C13.3365 11.7949 13.2219 11.5182 13.0179 11.3142C12.8139 11.1102 12.5372 10.9956 12.2487 10.9956C11.9602 10.9956 11.6835 11.1102 11.4795 11.3142Z" fill="#438F68"/>
</svg>
