<svg width="44" height="44" viewBox="0 0 44 44" fill="none" xmlns="http://www.w3.org/2000/svg">
<circle cx="22" cy="22" r="22" fill="#131316"/>
<path d="M25.9412 23.4667C26.3232 23.4667 26.6631 23.3177 26.961 23.0198C27.2589 22.7219 27.4079 22.3743 27.4079 21.9771C27.4079 21.5951 27.2589 21.259 26.961 20.9687C26.6631 20.6785 26.3232 20.5333 25.9412 20.5333C25.5593 20.5333 25.2193 20.6785 24.9214 20.9687C24.6235 21.259 24.4745 21.5951 24.4745 21.9771C24.4745 22.3743 24.6235 22.7219 24.9214 23.0198C25.2193 23.3177 25.5593 23.4667 25.9412 23.4667ZM15.2391 27.5458V28.7604V15.2396V27.5458ZM15.2391 30.5708C14.7655 30.5708 14.3454 30.3913 13.9787 30.0323C13.612 29.6733 13.4287 29.2493 13.4287 28.7604V15.2396C13.4287 14.7507 13.612 14.3229 13.9787 13.9562C14.3454 13.5896 14.7655 13.4062 15.2391 13.4062H28.76C29.2641 13.4062 29.6957 13.5896 30.0548 13.9562C30.4138 14.3229 30.5933 14.7507 30.5933 15.2396V18.1958H28.76V15.2396H15.2391V28.7604H28.76V25.8271H30.5933V28.7604C30.5933 29.2493 30.4138 29.6733 30.0548 30.0323C29.6957 30.3913 29.2641 30.5708 28.76 30.5708H15.2391ZM23.3516 26.2854C22.8475 26.2854 22.435 26.1288 22.1141 25.8156C21.7933 25.5024 21.6329 25.1014 21.6329 24.6125V19.4333C21.6329 18.9292 21.7933 18.5205 22.1141 18.2073C22.435 17.8941 22.8475 17.7375 23.3516 17.7375H29.837C30.3565 17.7375 30.7728 17.8941 31.086 18.2073C31.3992 18.5205 31.5558 18.9292 31.5558 19.4333V24.6125C31.5558 25.1014 31.3992 25.5024 31.086 25.8156C30.7728 26.1288 30.3565 26.2854 29.837 26.2854H23.3516ZM30.1808 24.9104V19.1125H23.0079V24.9104H30.1808Z" fill="#66BDFF"/>
</svg>
