<svg width="20" height="20" viewBox="0 0 20 20" fill="none" xmlns="http://www.w3.org/2000/svg">
<g clip-path="url(#clip0_852_9495)">
<path d="M9.17483 4.0879V0.5625H10.8252V4.0879H9.17483ZM14.7555 6.40221L13.5861 5.23281L16.0888 2.73279L17.2582 3.89948L14.7555 6.40221ZM15.9121 10.8252V9.17483H19.4375V10.8252H15.9121ZM9.17483 19.4375V15.9121H10.8252V19.4375H9.17483ZM5.22375 6.40492L2.75363 3.92302L3.92302 2.76539L6.41398 5.25635L5.22375 6.40492ZM16.1096 17.2582L13.5861 14.7555L14.7346 13.6069L17.2673 16.0444L16.1096 17.2582ZM0.5625 10.8252V9.17483H4.0879V10.8252H0.5625ZM3.94385 17.2464L2.75363 16.077L5.23552 13.5951L5.83517 14.1657L6.44658 14.7437L3.94385 17.2464ZM9.99588 14.9294C8.62544 14.9294 7.46197 14.4497 6.50546 13.4904C5.54893 12.5311 5.07067 11.3663 5.07067 9.99587C5.07067 8.62544 5.55031 7.46197 6.5096 6.50546C7.4689 5.54893 8.63375 5.07067 10.0042 5.07067C11.3746 5.07067 12.5381 5.55031 13.4946 6.5096C14.4511 7.4689 14.9294 8.63375 14.9294 10.0042C14.9294 11.3746 14.4497 12.5381 13.4904 13.4946C12.5311 14.4511 11.3663 14.9294 9.99588 14.9294ZM10 13.2672C10.9082 13.2672 11.6818 12.9497 12.3207 12.3148C12.9595 11.6798 13.279 10.9082 13.279 10C13.279 9.09181 12.9595 8.31826 12.3207 7.67937C11.6818 7.0405 10.9082 6.72106 10 6.72106C9.09181 6.72106 8.32023 7.0405 7.68527 7.67937C7.05031 8.31826 6.73283 9.09181 6.73283 10C6.73283 10.9082 7.05031 11.6798 7.68527 12.3148C8.32023 12.9497 9.09181 13.2672 10 13.2672Z" fill="#F6F9FF"/>
</g>
<defs>
<clipPath id="clip0_852_9495">
<rect width="20" height="20" fill="white"/>
</clipPath>
</defs>
</svg>
