<svg width="20" height="20" viewBox="0 0 20 20" fill="none" xmlns="http://www.w3.org/2000/svg">
<path d="M10.0003 15.8334C13.222 15.8334 15.8337 13.2217 15.8337 10.0001C15.8337 6.77842 13.222 4.16675 10.0003 4.16675C6.77866 4.16675 4.16699 6.77842 4.16699 10.0001C4.16699 13.2217 6.77866 15.8334 10.0003 15.8334Z" fill="#F9B736"/>
<path d="M9.99967 19.1333C9.54134 19.1333 9.16634 18.7916 9.16634 18.3333V18.2666C9.16634 17.8083 9.54134 17.4333 9.99967 17.4333C10.458 17.4333 10.833 17.8083 10.833 18.2666C10.833 18.7249 10.458 19.1333 9.99967 19.1333ZM15.9497 16.7833C15.733 16.7833 15.5247 16.6999 15.358 16.5416L15.2497 16.4333C14.9247 16.1083 14.9247 15.5833 15.2497 15.2583C15.5747 14.9333 16.0997 14.9333 16.4247 15.2583L16.533 15.3666C16.858 15.6916 16.858 16.2166 16.533 16.5416C16.3747 16.6999 16.1663 16.7833 15.9497 16.7833ZM4.04967 16.7833C3.83301 16.7833 3.62467 16.6999 3.45801 16.5416C3.13301 16.2166 3.13301 15.6916 3.45801 15.3666L3.56634 15.2583C3.89134 14.9333 4.41634 14.9333 4.74134 15.2583C5.06634 15.5833 5.06634 16.1083 4.74134 16.4333L4.63301 16.5416C4.47467 16.6999 4.25801 16.7833 4.04967 16.7833ZM18.333 10.8333H18.2663C17.808 10.8333 17.433 10.4583 17.433 9.99992C17.433 9.54159 17.808 9.16659 18.2663 9.16659C18.7247 9.16659 19.133 9.54159 19.133 9.99992C19.133 10.4583 18.7913 10.8333 18.333 10.8333ZM1.73301 10.8333H1.66634C1.20801 10.8333 0.833008 10.4583 0.833008 9.99992C0.833008 9.54159 1.20801 9.16659 1.66634 9.16659C2.12467 9.16659 2.53301 9.54159 2.53301 9.99992C2.53301 10.4583 2.19134 10.8333 1.73301 10.8333ZM15.8413 4.99158C15.6247 4.99158 15.4163 4.90825 15.2497 4.74992C14.9247 4.42492 14.9247 3.89992 15.2497 3.57492L15.358 3.46659C15.683 3.14159 16.208 3.14159 16.533 3.46659C16.858 3.79159 16.858 4.31659 16.533 4.64159L16.4247 4.74992C16.2663 4.90825 16.058 4.99158 15.8413 4.99158ZM4.15801 4.99158C3.94134 4.99158 3.73301 4.90825 3.56634 4.74992L3.45801 4.63325C3.13301 4.30825 3.13301 3.78325 3.45801 3.45825C3.78301 3.13325 4.30801 3.13325 4.63301 3.45825L4.74134 3.56659C5.06634 3.89159 5.06634 4.41659 4.74134 4.74159C4.58301 4.90825 4.36634 4.99158 4.15801 4.99158ZM9.99967 2.53325C9.54134 2.53325 9.16634 2.19159 9.16634 1.73325V1.66659C9.16634 1.20825 9.54134 0.833252 9.99967 0.833252C10.458 0.833252 10.833 1.20825 10.833 1.66659C10.833 2.12492 10.458 2.53325 9.99967 2.53325Z" fill="#F9B736"/>
</svg>
