<svg width="22" height="16" viewBox="0 0 22 16" fill="none" xmlns="http://www.w3.org/2000/svg">
<path d="M5.32 9.01C6.28 9.03 7.17 9.51 7.77 10.35C8.5 11.38 9.71 12 11 12C12.29 12 13.5 11.38 14.23 10.34C14.83 9.5 15.72 9.02 16.68 9C15.96 7.78 13.08 7 11 7C8.93 7 6.04 7.78 5.32 9.01Z" fill="white" fill-opacity="0.54"/>
<path d="M3 9C4.66 9 6 7.66 6 6C6 4.34 4.66 3 3 3C1.34 3 0 4.34 0 6C0 7.66 1.34 9 3 9Z" fill="white" fill-opacity="0.54"/>
<path d="M19 9C20.66 9 22 7.66 22 6C22 4.34 20.66 3 19 3C17.34 3 16 4.34 16 6C16 7.66 17.34 9 19 9Z" fill="white" fill-opacity="0.54"/>
<path d="M11 6C12.66 6 14 4.66 14 3C14 1.34 12.66 0 11 0C9.34 0 8 1.34 8 3C8 4.66 9.34 6 11 6Z" fill="white" fill-opacity="0.54"/>
<path d="M20 10H16.73C15.96 10 15.38 10.45 15.05 10.92C15.01 10.98 13.69 13 11 13C9.57 13 7.97 12.36 6.95 10.92C6.56 10.37 5.95 10 5.27 10H2C0.9 10 0 10.9 0 12V16H7V13.74C8.15 14.54 9.54 15 11 15C12.46 15 13.85 14.54 15 13.74V16H22V12C22 10.9 21.1 10 20 10Z" fill="white" fill-opacity="0.54"/>
</svg>
