<svg width="24" height="24" viewBox="0 0 24 24" fill="none" xmlns="http://www.w3.org/2000/svg">
<path opacity="0.1" fill-rule="evenodd" clip-rule="evenodd" d="M0 12C0 5.37258 5.37258 0 12 0C18.6274 0 24 5.37258 24 12C24 18.6274 18.6274 24 12 24C5.37258 24 0 18.6274 0 12Z" fill="white"/>
<path d="M16.1935 7.0134L6.58974 10.7168C5.93432 10.98 5.93812 11.3456 6.46949 11.5087L8.93516 12.2779L14.64 8.67848C14.9097 8.51436 15.1562 8.60265 14.9536 8.78248L10.3316 12.9539H10.3305L10.3316 12.9544L10.1615 15.4959C10.4107 15.4959 10.5206 15.3816 10.6604 15.2467L11.858 14.0821L14.3491 15.9222C14.8084 16.1751 15.1383 16.0451 15.2526 15.497L16.8879 7.79015C17.0553 7.11902 16.6317 6.81515 16.1935 7.0134Z" fill="white"/>
</svg>
