<svg width="24" height="20" viewBox="0 0 24 20" fill="none" xmlns="http://www.w3.org/2000/svg">
<path d="M4.90909 0C5.42911 0 5.87683 0.373844 5.97882 0.893204L6.00248 0.993201C6.06197 1.21249 6.1953 1.54107 6.41644 1.86282C6.81962 2.44946 7.36761 2.77778 8.18182 2.77778C8.99603 2.77778 9.54402 2.44946 9.9472 1.86282C10.2052 1.48744 10.3437 1.10277 10.3848 0.893204L10.4174 0.766528C10.5619 0.314133 10.9779 0 11.4545 0H22.9091C23.5116 0 24 0.497461 24 1.11111V18.8889C24 19.5025 23.5116 20 22.9091 20H11.4545C10.9345 20 10.4868 19.6262 10.3848 19.1068L10.3612 19.0068C10.3017 18.7875 10.1683 18.4589 9.9472 18.1372C9.54402 17.5505 8.99603 17.2222 8.18182 17.2222C7.36761 17.2222 6.81962 17.5505 6.41644 18.1372C6.15845 18.5126 6.01997 18.8972 5.97882 19.1068L5.94628 19.2335C5.80171 19.6859 5.38577 20 4.90909 20H1.09091C0.488417 20 0 19.5025 0 18.8889V1.11111C0 0.497461 0.488417 0 1.09091 0H4.90909ZM4.12255 2.22222H2.18182V17.7778H4.12255L4.14263 17.7314C4.23494 17.5228 4.3479 17.3051 4.48447 17.0843L4.62902 16.8628C5.41902 15.7133 6.60966 15 8.18182 15C9.75397 15 10.9446 15.7133 11.7346 16.8628C11.9381 17.1589 12.0979 17.4532 12.221 17.7314L12.24 17.7778H21.8182V2.22222H12.24L12.1217 2.48002C12.0508 2.62269 11.9702 2.76849 11.8792 2.91565L11.7346 3.13718C10.9446 4.28665 9.75397 5 8.18182 5C6.60966 5 5.41902 4.28665 4.62902 3.13718C4.4255 2.84105 4.26571 2.54676 4.14263 2.2686L4.12255 2.22222ZM8.18182 10.5556C8.74128 10.5556 9.20237 10.9845 9.26539 11.5371L9.27273 11.6667V12.7778C9.27273 13.3914 8.78431 13.8889 8.18182 13.8889C7.62236 13.8889 7.16126 13.46 7.09825 12.9074L7.09091 12.7778V11.6667C7.09091 11.053 7.57933 10.5556 8.18182 10.5556ZM18.5455 10.5556C19.1479 10.5556 19.6364 11.053 19.6364 11.6667C19.6364 12.2365 19.2152 12.7061 18.6727 12.7703L18.5455 12.7778H12.5455C11.943 12.7778 11.4545 12.2803 11.4545 11.6667C11.4545 11.0968 11.8757 10.6272 12.4182 10.563L12.5455 10.5556H18.5455ZM8.18182 6.11111C8.74128 6.11111 9.20237 6.54004 9.26539 7.09264L9.27273 7.22222V8.33333C9.27273 8.94698 8.78431 9.44444 8.18182 9.44444C7.62236 9.44444 7.16126 9.01551 7.09825 8.46291L7.09091 8.33333V7.22222C7.09091 6.60857 7.57933 6.11111 8.18182 6.11111ZM18.5455 7.22222C19.1479 7.22222 19.6364 7.71968 19.6364 8.33333C19.6364 8.90315 19.2152 9.37279 18.6727 9.43697L18.5455 9.44444H12.5455C11.943 9.44444 11.4545 8.94698 11.4545 8.33333C11.4545 7.76352 11.8757 7.29388 12.4182 7.2297L12.5455 7.22222H18.5455Z" fill="#434656"/>
</svg>
