<svg width="17" height="17" viewBox="0 0 17 17"  xmlns="http://www.w3.org/2000/svg">
<path d="M11.2905 12.3594L12.3593 11.3105L9.27178 8.18337V4.324H7.84678V8.77712L11.2905 12.3594ZM8.4999 16.6938C7.37837 16.6938 6.31952 16.4794 5.32334 16.0506C4.32716 15.6217 3.45633 15.0346 2.71084 14.2891C1.96535 13.5436 1.3782 12.6761 0.949382 11.6865C0.520562 10.6969 0.306152 9.63476 0.306152 8.50004C0.306152 7.37851 0.520562 6.31966 0.949382 5.32348C1.3782 4.3273 1.96535 3.45646 2.71084 2.71098C3.45633 1.96549 4.32716 1.37504 5.32334 0.939624C6.31952 0.504207 7.37837 0.286499 8.4999 0.286499C9.62143 0.286499 10.6803 0.504207 11.6765 0.939624C12.6726 1.37504 13.5435 1.96549 14.289 2.71098C15.0345 3.45646 15.6249 4.3273 16.0603 5.32348C16.4957 6.31966 16.7134 7.37851 16.7134 8.50004C16.7134 9.62157 16.4957 10.6804 16.0603 11.6766C15.6249 12.6728 15.0345 13.5436 14.289 14.2891C13.5435 15.0346 12.6759 15.6217 11.6864 16.0506C10.6968 16.4794 9.63462 16.6938 8.4999 16.6938ZM8.4999 15.1302C10.3207 15.1302 11.881 14.4837 13.1806 13.1907C14.4803 11.8976 15.1301 10.3341 15.1301 8.50004C15.1301 6.67921 14.4803 5.11896 13.1806 3.81931C11.881 2.51966 10.3207 1.86983 8.4999 1.86983C6.67907 1.86983 5.11883 2.51966 3.81917 3.81931C2.51952 5.11896 1.86969 6.67921 1.86969 8.50004C1.86969 10.3341 2.51952 11.8976 3.81917 13.1907C5.11883 14.4837 6.67907 15.1302 8.4999 15.1302Z"  />
</svg>
