<svg width="21" height="21" viewBox="0 0 21 21"  xmlns="http://www.w3.org/2000/svg">
<path d="M2.53789 15.8816C2.04206 15.8816 1.61914 15.7066 1.26914 15.3566C0.919141 15.0066 0.744141 14.5764 0.744141 14.066C0.744141 13.5702 0.919141 13.1436 1.26914 12.7863C1.61914 12.429 2.04206 12.2504 2.53789 12.2504C2.62539 12.2504 2.71289 12.2577 2.80039 12.2723C2.88789 12.2868 3.00456 12.3087 3.15039 12.3379L7.02227 8.48789C6.9931 8.34206 6.97122 8.22539 6.95664 8.13789C6.94206 8.05039 6.93477 7.96289 6.93477 7.87539C6.93477 7.36497 7.11341 6.93477 7.4707 6.58477C7.828 6.23477 8.25456 6.05977 8.75039 6.05977C9.26081 6.05977 9.69102 6.23841 10.041 6.5957C10.391 6.95299 10.566 7.37956 10.566 7.87539C10.566 7.94831 10.5368 8.13789 10.4785 8.44414L12.5348 10.5223C12.6806 10.4931 12.7936 10.4712 12.8738 10.4566C12.954 10.4421 13.0379 10.4348 13.1254 10.4348C13.2129 10.4348 13.3004 10.4421 13.3879 10.4566C13.4754 10.4712 13.5848 10.4931 13.716 10.5223L16.7129 7.52539C16.6837 7.39414 16.6655 7.28112 16.6582 7.18633C16.6509 7.09154 16.6473 7.00039 16.6473 6.91289C16.6473 6.41706 16.8259 5.99414 17.1832 5.64414C17.5405 5.29414 17.9671 5.11914 18.4629 5.11914C18.9587 5.11914 19.3816 5.29414 19.7316 5.64414C20.0816 5.99414 20.2566 6.41706 20.2566 6.91289C20.2566 7.42331 20.0816 7.85352 19.7316 8.20352C19.3816 8.55352 18.9587 8.72852 18.4629 8.72852C18.3754 8.72852 18.2842 8.72487 18.1895 8.71758C18.0947 8.71029 17.9816 8.69206 17.8504 8.66289L14.8535 11.6598C14.8827 11.791 14.9046 11.9004 14.9191 11.9879C14.9337 12.0754 14.941 12.1702 14.941 12.2723C14.941 12.7535 14.7624 13.1728 14.4051 13.5301C14.0478 13.8874 13.6212 14.066 13.1254 14.066C12.6296 14.066 12.203 13.8874 11.8457 13.5301C11.4884 13.1728 11.3098 12.7462 11.3098 12.2504C11.3098 12.1629 11.3171 12.0754 11.3316 11.9879C11.3462 11.9004 11.3681 11.7837 11.3973 11.6379L9.36289 9.60352C9.21706 9.63268 9.10039 9.65456 9.01289 9.66914C8.92539 9.68372 8.83789 9.69102 8.75039 9.69102C8.67747 9.69102 8.48789 9.66185 8.18164 9.60352L4.28789 13.4973C4.31706 13.6431 4.33893 13.7561 4.35352 13.8363C4.3681 13.9165 4.37539 14.0004 4.37539 14.0879C4.37539 14.5837 4.19674 15.0066 3.83945 15.3566C3.48216 15.7066 3.04831 15.8816 2.53789 15.8816Z"  />
</svg>
