<svg width="24" height="24" viewBox="0 0 24 24" fill="none" xmlns="http://www.w3.org/2000/svg">
<path d="M20.1666 2.66671H17.8333V1.50004C17.8333 1.19062 17.7103 0.893875 17.4915 0.675083C17.2728 0.45629 16.976 0.333374 16.6666 0.333374C16.3572 0.333374 16.0604 0.45629 15.8416 0.675083C15.6228 0.893875 15.4999 1.19062 15.4999 1.50004V2.66671H8.49992V1.50004C8.49992 1.19062 8.377 0.893875 8.15821 0.675083C7.93942 0.45629 7.64267 0.333374 7.33325 0.333374C7.02383 0.333374 6.72709 0.45629 6.50829 0.675083C6.2895 0.893875 6.16659 1.19062 6.16659 1.50004V2.66671H3.83325C2.90499 2.66671 2.01476 3.03546 1.35838 3.69183C0.702001 4.34821 0.333252 5.23845 0.333252 6.16671V20.1667C0.333252 21.095 0.702001 21.9852 1.35838 22.6416C2.01476 23.298 2.90499 23.6667 3.83325 23.6667H20.1666C21.0948 23.6667 21.9851 23.298 22.6415 22.6416C23.2978 21.9852 23.6666 21.095 23.6666 20.1667V6.16671C23.6666 5.23845 23.2978 4.34821 22.6415 3.69183C21.9851 3.03546 21.0948 2.66671 20.1666 2.66671ZM21.3333 20.1667C21.3333 20.4761 21.2103 20.7729 20.9915 20.9917C20.7728 21.2105 20.476 21.3334 20.1666 21.3334H3.83325C3.52383 21.3334 3.22709 21.2105 3.00829 20.9917C2.7895 20.7729 2.66659 20.4761 2.66659 20.1667V12H21.3333V20.1667ZM21.3333 9.66671H2.66659V6.16671C2.66659 5.85729 2.7895 5.56054 3.00829 5.34175C3.22709 5.12296 3.52383 5.00004 3.83325 5.00004H6.16659V6.16671C6.16659 6.47613 6.2895 6.77287 6.50829 6.99167C6.72709 7.21046 7.02383 7.33337 7.33325 7.33337C7.64267 7.33337 7.93942 7.21046 8.15821 6.99167C8.377 6.77287 8.49992 6.47613 8.49992 6.16671V5.00004H15.4999V6.16671C15.4999 6.47613 15.6228 6.77287 15.8416 6.99167C16.0604 7.21046 16.3572 7.33337 16.6666 7.33337C16.976 7.33337 17.2728 7.21046 17.4915 6.99167C17.7103 6.77287 17.8333 6.47613 17.8333 6.16671V5.00004H20.1666C20.476 5.00004 20.7728 5.12296 20.9915 5.34175C21.2103 5.56054 21.3333 5.85729 21.3333 6.16671V9.66671Z" fill="#434656"/>
</svg>
