<svg width="19" height="20" viewBox="0 0 19 20" fill="none" xmlns="http://www.w3.org/2000/svg">
<path d="M11.8154 15.146C11.2744 15.146 10.8192 14.9613 10.4497 14.5918C10.0803 14.2224 9.89557 13.7672 9.89557 13.2262C9.89557 12.6852 10.0803 12.23 10.4497 11.8606C10.8192 11.4911 11.2744 11.3064 11.8154 11.3064C12.3563 11.3064 12.8115 11.4911 13.181 11.8606C13.5504 12.23 13.7352 12.6852 13.7352 13.2262C13.7352 13.7672 13.5504 14.2224 13.181 14.5918C12.8115 14.9613 12.3563 15.146 11.8154 15.146ZM3.6612 18.1939C3.23898 18.1939 2.87283 18.0389 2.56276 17.7288C2.25269 17.4187 2.09766 17.0526 2.09766 16.6304V4.55745C2.09766 4.12204 2.25269 3.74929 2.56276 3.43923C2.87283 3.12916 3.23898 2.97412 3.6612 2.97412H4.8487V1.78662H6.33307V2.97412H12.6664V1.78662H14.1508V2.97412H15.3383C15.7737 2.97412 16.1464 3.12916 16.4565 3.43923C16.7666 3.74929 16.9216 4.12204 16.9216 4.55745V16.6304C16.9216 17.0526 16.7666 17.4187 16.4565 17.7288C16.1464 18.0389 15.7737 18.1939 15.3383 18.1939H3.6612ZM3.6612 16.6304H15.3383V8.21891H3.6612V16.6304ZM3.6612 7.03141H15.3383V4.55745H3.6612V7.03141Z" fill="#434656"/>
</svg>
