<svg width="19" height="19" viewBox="0 0 19 19" fill="none" xmlns="http://www.w3.org/2000/svg">
<path d="M12.35 8.55H10.45V4.75C10.45 4.49804 10.3499 4.25641 10.1718 4.07825C9.99359 3.90009 9.75196 3.8 9.5 3.8C9.24805 3.8 9.00641 3.90009 8.82825 4.07825C8.65009 4.25641 8.55 4.49804 8.55 4.75V9.5C8.55 9.75195 8.65009 9.99359 8.82825 10.1717C9.00641 10.3499 9.24805 10.45 9.5 10.45H12.35C12.602 10.45 12.8436 10.3499 13.0218 10.1717C13.1999 9.99359 13.3 9.75195 13.3 9.5C13.3 9.24804 13.1999 9.00641 13.0218 8.82825C12.8436 8.65009 12.602 8.55 12.35 8.55ZM9.5 0C7.62108 0 5.78435 0.557165 4.22209 1.60104C2.65982 2.64491 1.44218 4.12861 0.723149 5.86451C0.0041162 7.6004 -0.184015 9.51054 0.182544 11.3534C0.549104 13.1962 1.45389 14.8889 2.78249 16.2175C4.11109 17.5461 5.80383 18.4509 7.64665 18.8175C9.48946 19.184 11.3996 18.9959 13.1355 18.2769C14.8714 17.5578 16.3551 16.3402 17.399 14.7779C18.4428 13.2156 19 11.3789 19 9.5C19 8.25244 18.7543 7.0171 18.2769 5.86451C17.7994 4.71191 17.0997 3.66464 16.2175 2.78248C15.3354 1.90033 14.2881 1.20056 13.1355 0.723144C11.9829 0.245725 10.7476 0 9.5 0V0ZM9.5 17.1C7.99686 17.1 6.52748 16.6543 5.27767 15.8192C4.02786 14.9841 3.05375 13.7971 2.47852 12.4084C1.90329 11.0197 1.75279 9.49157 2.04604 8.01731C2.33928 6.54306 3.06311 5.18887 4.12599 4.12599C5.18887 3.06311 6.54306 2.33928 8.01732 2.04603C9.49157 1.75278 11.0197 1.90329 12.4084 2.47852C13.7971 3.05374 14.9841 4.02785 15.8192 5.27766C16.6543 6.52748 17.1 7.99686 17.1 9.5C17.1 11.5156 16.2993 13.4487 14.874 14.874C13.4487 16.2993 11.5156 17.1 9.5 17.1V17.1Z" fill="#438F68"/>
</svg>
