<svg xmlns="http://www.w3.org/2000/svg" width="21" height="21" viewBox="0 0 21 21" fill="none">
  <path d="M9.79998 16.7781H11.1344V15.6844C12.0094 15.5969 12.6984 15.3307 13.2015 14.8859C13.7047 14.4411 13.9562 13.825 13.9562 13.0375C13.9562 12.2792 13.7411 11.6594 13.3109 11.1781C12.8807 10.6969 12.1552 10.2448 11.1344 9.82187C10.3031 9.47188 9.70154 9.15833 9.32966 8.88125C8.95779 8.60417 8.77185 8.23958 8.77185 7.7875C8.77185 7.37917 8.92862 7.05104 9.24216 6.80312C9.5557 6.55521 9.97498 6.43125 10.5 6.43125C10.9229 6.43125 11.2984 6.53333 11.6265 6.7375C11.9547 6.94167 12.2281 7.2625 12.4469 7.7L13.6281 7.13125C13.3656 6.5625 13.0338 6.13229 12.6328 5.84062C12.2317 5.54896 11.7469 5.36667 11.1781 5.29375V4.24375H9.84373V5.29375C9.07081 5.41042 8.47654 5.69844 8.06091 6.15781C7.64529 6.61719 7.43748 7.175 7.43748 7.83125C7.43748 8.575 7.66716 9.16927 8.12654 9.61406C8.58591 10.0589 9.28956 10.4708 10.2375 10.85C11.1271 11.2146 11.7469 11.5573 12.0969 11.8781C12.4468 12.199 12.6219 12.5854 12.6219 13.0375C12.6219 13.4896 12.4432 13.8505 12.0859 14.1203C11.7286 14.3901 11.251 14.525 10.6531 14.525C10.0844 14.525 9.58487 14.3646 9.15466 14.0437C8.72445 13.7229 8.42185 13.2708 8.24685 12.6875L6.99998 13.125C7.29164 13.8396 7.67445 14.3974 8.14841 14.7984C8.62237 15.1995 9.17289 15.4802 9.79998 15.6406V16.7781ZM10.5 19.5562C9.26039 19.5562 8.09008 19.3193 6.98904 18.8453C5.888 18.3714 4.9255 17.7224 4.10154 16.8984C3.27758 16.0745 2.62862 15.1156 2.15466 14.0219C1.6807 12.9281 1.44373 11.7542 1.44373 10.5C1.44373 9.24583 1.6807 8.06823 2.15466 6.96719C2.62862 5.86615 3.27393 4.90729 4.0906 4.09063C4.90727 3.27396 5.86612 2.625 6.96716 2.14375C8.0682 1.6625 9.24581 1.42188 10.5 1.42188C11.7541 1.42188 12.9354 1.65885 14.0437 2.13281C15.1521 2.60677 16.1146 3.25208 16.9312 4.06875C17.7479 4.88542 18.3932 5.84427 18.8672 6.94531C19.3411 8.04635 19.5781 9.23125 19.5781 10.5C19.5781 11.7542 19.3375 12.9318 18.8562 14.0328C18.375 15.1339 17.726 16.0927 16.9094 16.9094C16.0927 17.726 15.1375 18.3714 14.0437 18.8453C12.95 19.3193 11.7687 19.5562 10.5 19.5562ZM10.5 17.8281C12.5416 17.8281 14.2734 17.1135 15.6953 15.6844C17.1172 14.2552 17.8281 12.5271 17.8281 10.5C17.8281 8.45833 17.1172 6.72656 15.6953 5.30469C14.2734 3.88281 12.5416 3.17187 10.5 3.17187C8.47289 3.17187 6.74477 3.88281 5.3156 5.30469C3.88643 6.72656 3.17185 8.45833 3.17185 10.5C3.17185 12.5271 3.88643 14.2552 5.3156 15.6844C6.74477 17.1135 8.47289 17.8281 10.5 17.8281Z" fill="#6C6F89"/>
</svg>