<svg width="22" height="22" viewBox="0 0 22 22" fill="none" xmlns="http://www.w3.org/2000/svg">
<path d="M6.97543 13.0408C6.85062 13.0408 6.73994 13.0408 6.62908 13.0408C6.28219 13.0408 5.93529 13.0454 5.58858 13.0394C5.27012 13.0339 5.03409 12.8097 5.00239 12.4968C4.97467 12.2234 5.19132 11.9459 5.48478 11.8853C5.55778 11.8702 5.63405 11.8643 5.70886 11.8641C6.26117 11.8623 6.81331 11.8631 7.36562 11.8634C7.41145 11.8634 7.44804 11.8666 7.47032 11.8083C7.61506 11.4293 7.76505 11.0521 7.91304 10.6743C7.91612 10.6663 7.91576 10.657 7.91848 10.6386C7.88859 10.637 7.86051 10.6343 7.83243 10.6343C7.4792 10.6339 7.12596 10.6348 6.77273 10.6338C6.43688 10.6327 6.17821 10.3943 6.15846 10.0697C6.14071 9.77868 6.39902 9.48091 6.7144 9.46438C7.07705 9.44536 7.44134 9.45407 7.8049 9.45158C7.98224 9.45034 8.15958 9.4466 8.33674 9.45353C8.40558 9.4562 8.43094 9.43042 8.45268 9.37372C8.63618 8.89533 8.82203 8.41801 9.00735 7.94016C9.26113 7.28579 9.5151 6.63159 9.76888 5.97721C9.9734 5.44994 10.1759 4.92195 10.3824 4.3954C10.4799 4.14687 10.7027 3.99754 10.9587 4.00003C11.2208 4.00252 11.4198 4.14989 11.5236 4.40731C11.8613 5.24497 12.2019 6.08156 12.5406 6.91869C12.8717 7.73679 13.2027 8.5549 13.5309 9.37425C13.5566 9.43842 13.584 9.46473 13.6588 9.4642C14.1657 9.46029 14.6727 9.4626 15.1795 9.46207C15.5397 9.46171 15.8134 9.71859 15.8094 10.0549C15.8054 10.3735 15.5116 10.6421 15.1703 10.6411C14.8111 10.64 14.4519 10.6407 14.0927 10.6411C14.0783 10.6411 14.064 10.6425 14.0412 10.6435C14.1231 10.8494 14.2021 11.0497 14.2825 11.2494C14.3566 11.4334 14.4367 11.6154 14.5051 11.8014C14.5296 11.8682 14.5649 11.8823 14.6298 11.8819C15.2031 11.8799 15.7764 11.8799 16.3497 11.8808C16.5905 11.8812 16.7885 11.974 16.9126 12.1777C17.1298 12.5347 16.9243 12.9693 16.4952 13.0339C16.2532 13.0703 16.003 13.0555 15.7563 13.0589C15.4978 13.0623 15.2393 13.0596 14.9683 13.0596C15.0299 13.2136 15.0872 13.3588 15.1458 13.5034C15.4532 14.2607 15.7608 15.0178 16.0686 15.7747C16.2526 16.2272 16.4367 16.6798 16.6218 17.1319C16.7111 17.35 16.7247 17.5651 16.5841 17.7672C16.4465 17.9651 16.2412 18.0198 16.0115 17.994C15.7856 17.9688 15.6284 17.846 15.5429 17.6385C15.4333 17.3729 15.325 17.107 15.2176 16.8407C14.9948 16.2885 14.7736 15.7358 14.5506 15.1838C14.2731 14.4973 13.9934 13.8116 13.7177 13.1245C13.6952 13.0685 13.6699 13.0497 13.6083 13.0499C11.8512 13.0516 10.0942 13.0513 8.33711 13.0511C8.29073 13.0511 8.25559 13.0504 8.23295 13.108C7.93641 13.8665 7.63571 14.6235 7.33682 15.3812C7.04771 16.1139 6.75969 16.8471 6.47076 17.5798C6.33834 17.9155 5.96464 18.0179 5.71339 17.9183C5.38316 17.7875 5.24458 17.444 5.3712 17.1271C5.62064 16.5029 5.86283 15.8759 6.10865 15.2505C6.32312 14.7049 6.53887 14.1597 6.75353 13.6141C6.82689 13.4278 6.89826 13.2408 6.97597 13.0404L6.97543 13.0408ZM8.74668 11.8767H13.2096C13.1994 11.8456 13.1929 11.8206 13.1833 11.7967C13.0393 11.4398 12.8927 11.0839 12.7522 10.7257C12.7265 10.6601 12.6964 10.6387 12.6236 10.6389C11.8059 10.6414 10.988 10.6396 10.1703 10.6391C9.85656 10.6389 9.543 10.6391 9.22744 10.6391C9.06712 11.0517 8.9088 11.4595 8.74668 11.8767ZM10.9867 6.25862C10.9797 6.25827 10.9724 6.25809 10.9654 6.25773C10.5511 7.31761 10.1368 8.3773 9.71834 9.44802H12.2685C11.8396 8.38068 11.4131 7.31974 10.9869 6.25862H10.9867Z" fill="#333333"/>
</svg>
