<svg width="23" height="23" viewBox="0 0 23 23"  xmlns="http://www.w3.org/2000/svg">
<g clip-path="url(#clip0_4205_27264)">
<path d="M10.5417 8.62565H14.375C14.6292 8.62565 14.873 8.52468 15.0527 8.34496C15.2324 8.16524 15.3334 7.92148 15.3334 7.66732C15.3334 7.41315 15.2324 7.1694 15.0527 6.98967C14.873 6.80995 14.6292 6.70898 14.375 6.70898H12.4584V5.75065C12.4584 5.49648 12.3574 5.25273 12.1777 5.07301C11.998 4.89328 11.7542 4.79232 11.5 4.79232C11.2459 4.79232 11.0021 4.89328 10.8224 5.07301C10.6427 5.25273 10.5417 5.49648 10.5417 5.75065V6.70898C9.77921 6.70898 9.04795 7.01188 8.50878 7.55105C7.96961 8.09022 7.66671 8.82149 7.66671 9.58398C7.66671 10.3465 7.96961 11.0777 8.50878 11.6169C9.04795 12.1561 9.77921 12.459 10.5417 12.459H12.4584C12.7125 12.459 12.9563 12.56 13.136 12.7397C13.3157 12.9194 13.4167 13.1632 13.4167 13.4173C13.4167 13.6715 13.3157 13.9152 13.136 14.095C12.9563 14.2747 12.7125 14.3757 12.4584 14.3757H8.62505C8.37088 14.3757 8.12712 14.4766 7.9474 14.6563C7.76768 14.8361 7.66671 15.0798 7.66671 15.334C7.66671 15.5881 7.76768 15.8319 7.9474 16.0116C8.12712 16.1913 8.37088 16.2923 8.62505 16.2923H10.5417V17.2507C10.5417 17.5048 10.6427 17.7486 10.8224 17.9283C11.0021 18.108 11.2459 18.209 11.5 18.209C11.7542 18.209 11.998 18.108 12.1777 17.9283C12.3574 17.7486 12.4584 17.5048 12.4584 17.2507V16.2923C13.2209 16.2923 13.9521 15.9894 14.4913 15.4502C15.0305 14.9111 15.3334 14.1798 15.3334 13.4173C15.3334 12.6548 15.0305 11.9236 14.4913 11.3844C13.9521 10.8452 13.2209 10.5423 12.4584 10.5423H10.5417C10.2875 10.5423 10.0438 10.4413 9.86407 10.2616C9.68435 10.0819 9.58338 9.83815 9.58338 9.58398C9.58338 9.32982 9.68435 9.08606 9.86407 8.90634C10.0438 8.72662 10.2875 8.62565 10.5417 8.62565ZM11.5 0.958984C9.4151 0.958984 7.37698 1.57724 5.64341 2.73558C3.90984 3.89391 2.55869 5.54029 1.76082 7.46653C0.962942 9.39277 0.754181 11.5123 1.16093 13.5572C1.56769 15.6021 2.57168 17.4805 4.04596 18.9547C5.52024 20.429 7.39859 21.433 9.44347 21.8398C11.4884 22.2465 13.6079 22.0378 15.5342 21.2399C17.4604 20.442 19.1068 19.0909 20.2651 17.3573C21.4235 15.6237 22.0417 13.5856 22.0417 11.5007C22.0417 8.70483 20.9311 6.02351 18.9541 4.04657C16.9772 2.06962 14.2959 0.958984 11.5 0.958984ZM11.5 20.1256C9.79418 20.1256 8.12663 19.6198 6.70825 18.6721C5.28988 17.7243 4.18439 16.3773 3.53158 14.8013C2.87878 13.2253 2.70797 11.4911 3.04077 9.818C3.37357 8.14491 4.19502 6.60808 5.40125 5.40185C6.60748 4.19563 8.14431 3.37418 9.81739 3.04138C11.4905 2.70858 13.2247 2.87938 14.8007 3.53219C16.3767 4.185 17.7237 5.29048 18.6715 6.70886C19.6192 8.12723 20.125 9.79479 20.125 11.5007C20.125 13.7881 19.2163 15.9819 17.5988 17.5994C15.9813 19.2169 13.7875 20.1256 11.5 20.1256Z"  />
</g>
<defs>
<clipPath id="clip0_4205_27264">
<rect width="23" height="23" fill="white"/>
</clipPath>
</defs>
</svg>
