<svg width="20" height="20" viewBox="0 0 20 20" fill="none" xmlns="http://www.w3.org/2000/svg">
<circle cx="10" cy="10" r="10" fill="#434656"/>
<path d="M10.0012 9.40475C9.84334 9.40475 9.69194 9.46746 9.58032 9.57909C9.46869 9.69072 9.40597 9.84212 9.40597 9.99999V12.3809C9.40597 12.5388 9.46869 12.6902 9.58032 12.8018C9.69194 12.9135 9.84334 12.9762 10.0012 12.9762C10.1591 12.9762 10.3105 12.9135 10.4221 12.8018C10.5337 12.6902 10.5964 12.5388 10.5964 12.3809V9.99999C10.5964 9.84212 10.5337 9.69072 10.4221 9.57909C10.3105 9.46746 10.1591 9.40475 10.0012 9.40475ZM10.2274 7.07142C10.0825 7.01188 9.91994 7.01188 9.77502 7.07142C9.70195 7.09975 9.6352 7.14223 9.57859 7.19642C9.52601 7.25427 9.48374 7.32071 9.45359 7.39285C9.42027 7.46349 9.40396 7.54095 9.40597 7.61904C9.40552 7.69737 9.42054 7.77503 9.45016 7.84755C9.47978 7.92007 9.52343 7.98604 9.57859 8.04166C9.63645 8.09423 9.70289 8.13651 9.77502 8.16666C9.8652 8.2037 9.9631 8.21803 10.0601 8.20839C10.1571 8.19874 10.2503 8.16542 10.3314 8.11134C10.4125 8.05726 10.4791 7.98409 10.5253 7.89825C10.5715 7.8124 10.596 7.71653 10.5964 7.61904C10.5943 7.46144 10.5326 7.31048 10.4238 7.19642C10.3672 7.14223 10.3005 7.09975 10.2274 7.07142ZM10.0012 4.04761C8.82394 4.04761 7.67311 4.39671 6.69425 5.05076C5.71538 5.70482 4.95245 6.63446 4.50193 7.72211C4.05141 8.80977 3.93353 10.0066 4.1632 11.1612C4.39288 12.3159 4.95979 13.3765 5.79224 14.209C6.6247 15.0414 7.68531 15.6083 8.83996 15.838C9.99461 16.0677 11.1914 15.9498 12.2791 15.4993C13.3667 15.0487 14.2964 14.2858 14.9504 13.307C15.6045 12.3281 15.9536 11.1773 15.9536 9.99999C15.9536 9.21831 15.7996 8.44429 15.5005 7.72211C15.2014 6.99993 14.7629 6.34375 14.2102 5.79102C13.6575 5.23829 13.0013 4.79984 12.2791 4.50071C11.5569 4.20157 10.7829 4.04761 10.0012 4.04761ZM10.0012 14.7619C9.0594 14.7619 8.13873 14.4826 7.35564 13.9594C6.57255 13.4361 5.9622 12.6924 5.60179 11.8223C5.24137 10.9522 5.14707 9.99471 5.33081 9.07099C5.51454 8.14727 5.96807 7.29878 6.63404 6.63281C7.3 5.96685 8.14849 5.51332 9.07221 5.32958C9.99593 5.14584 10.9534 5.24014 11.8235 5.60056C12.6936 5.96098 13.4373 6.57132 13.9606 7.35442C14.4838 8.13751 14.7631 9.05817 14.7631 9.99999C14.7631 11.2629 14.2614 12.4741 13.3684 13.3672C12.4754 14.2602 11.2641 14.7619 10.0012 14.7619Z" fill="#F6F9FF"/>
</svg>
