<svg width="26" height="26" viewBox="0 0 26 26" fill="none" xmlns="http://www.w3.org/2000/svg">
<path d="M11.8332 9.50033H16.4998C16.8093 9.50033 17.106 9.37741 17.3248 9.15862C17.5436 8.93983 17.6665 8.64308 17.6665 8.33366C17.6665 8.02424 17.5436 7.72749 17.3248 7.5087C17.106 7.28991 16.8093 7.16699 16.4998 7.16699H14.1665V6.00033C14.1665 5.69091 14.0436 5.39416 13.8248 5.17537C13.606 4.95658 13.3093 4.83366 12.9998 4.83366C12.6904 4.83366 12.3937 4.95658 12.1749 5.17537C11.9561 5.39416 11.8332 5.69091 11.8332 6.00033V7.16699C10.9049 7.16699 10.0147 7.53574 9.3583 8.19212C8.70192 8.8485 8.33318 9.73874 8.33318 10.667C8.33318 11.5953 8.70192 12.4855 9.3583 13.1419C10.0147 13.7982 10.9049 14.167 11.8332 14.167H14.1665C14.4759 14.167 14.7727 14.2899 14.9915 14.5087C15.2103 14.7275 15.3332 15.0242 15.3332 15.3337C15.3332 15.6431 15.2103 15.9398 14.9915 16.1586C14.7727 16.3774 14.4759 16.5003 14.1665 16.5003H9.49984C9.19042 16.5003 8.89368 16.6232 8.67488 16.842C8.45609 17.0608 8.33318 17.3576 8.33318 17.667C8.33318 17.9764 8.45609 18.2732 8.67488 18.492C8.89368 18.7107 9.19042 18.8337 9.49984 18.8337H11.8332V20.0003C11.8332 20.3097 11.9561 20.6065 12.1749 20.8253C12.3937 21.0441 12.6904 21.167 12.9998 21.167C13.3093 21.167 13.606 21.0441 13.8248 20.8253C14.0436 20.6065 14.1665 20.3097 14.1665 20.0003V18.8337C15.0948 18.8337 15.985 18.4649 16.6414 17.8085C17.2978 17.1522 17.6665 16.2619 17.6665 15.3337C17.6665 14.4054 17.2978 13.5152 16.6414 12.8588C15.985 12.2024 15.0948 11.8337 14.1665 11.8337H11.8332C11.5238 11.8337 11.227 11.7107 11.0082 11.492C10.7894 11.2732 10.6665 10.9764 10.6665 10.667C10.6665 10.3576 10.7894 10.0608 11.0082 9.84204C11.227 9.62324 11.5238 9.50033 11.8332 9.50033ZM12.9998 0.166992C10.4616 0.166992 7.98046 0.919654 5.87002 2.3298C3.75959 3.73994 2.11471 5.74424 1.14339 8.08922C0.172064 10.4342 -0.0820784 13.0146 0.413099 15.504C0.908276 17.9934 2.13053 20.2801 3.92531 22.0749C5.72008 23.8696 8.00676 25.0919 10.4962 25.5871C12.9856 26.0822 15.566 25.8281 17.9109 24.8568C20.2559 23.8855 22.2602 22.2406 23.6704 20.1301C25.0805 18.0197 25.8332 15.5385 25.8332 13.0003C25.8332 9.59671 24.4811 6.33251 22.0744 3.92579C19.6677 1.51907 16.4035 0.166992 12.9998 0.166992ZM12.9998 23.5003C10.9231 23.5003 8.89307 22.8845 7.16636 21.7308C5.43964 20.577 4.09383 18.9371 3.29911 17.0185C2.50439 15.0999 2.29645 12.9887 2.7016 10.9519C3.10674 8.91508 4.10677 7.04416 5.57522 5.5757C7.04367 4.10725 8.91459 3.10722 10.9514 2.70208C12.9882 2.29694 15.0994 2.50487 17.018 3.29959C18.9366 4.09431 20.5765 5.44012 21.7303 7.16684C22.884 8.89355 23.4998 10.9236 23.4998 13.0003C23.4998 15.7851 22.3936 18.4558 20.4245 20.4249C18.4553 22.3941 15.7846 23.5003 12.9998 23.5003Z" fill="#0033AD"/>
</svg>
