<svg width="24" height="24" viewBox="0 0 24 24" fill="none" xmlns="http://www.w3.org/2000/svg">
<path d="M2.08327 15.6167C2.36023 15.4791 2.68046 15.4572 2.9736 15.5556C3.26674 15.654 3.5088 15.8648 3.64661 16.1417C4.38503 17.6329 5.50872 18.8996 6.90128 19.8106C8.29384 20.7215 9.90462 21.2436 11.5668 21.3228C13.229 21.4019 14.8821 21.0352 16.3549 20.2607C17.8277 19.4861 19.0666 18.3319 19.9434 16.9176C20.8202 15.5033 21.3029 13.8802 21.3415 12.2166C21.3801 10.553 20.9733 8.90934 20.1631 7.45583C19.3529 6.00233 18.1689 4.79186 16.7336 3.94981C15.2983 3.10775 13.664 2.66474 11.9999 2.66666C10.2603 2.65912 8.55379 3.14223 7.07625 4.06053C5.59871 4.97884 4.41002 6.29512 3.64661 7.85832C3.50737 8.1368 3.26321 8.34856 2.96784 8.44702C2.67247 8.54547 2.35008 8.52256 2.07161 8.38332C1.79313 8.24408 1.58137 7.99992 1.48291 7.70455C1.38446 7.40918 1.40737 7.0868 1.54661 6.80832C2.71723 4.45252 4.64967 2.56149 7.03026 1.44216C9.41086 0.322822 12.0999 0.0408867 14.6609 0.642112C17.2219 1.24334 19.5045 2.69243 21.1383 4.7542C22.7721 6.81596 23.6611 9.36937 23.6611 12C23.6611 14.6306 22.7721 17.184 21.1383 19.2458C19.5045 21.3075 17.2219 22.7566 14.6609 23.3579C12.0999 23.9591 9.41086 23.6772 7.03026 22.5578C4.64967 21.4385 2.71723 19.5475 1.54661 17.1917C1.47708 17.0533 1.43581 16.9024 1.4252 16.7479C1.41459 16.5934 1.43485 16.4383 1.48481 16.2917C1.53476 16.1451 1.61341 16.0099 1.71616 15.894C1.81891 15.7781 1.94371 15.6838 2.08327 15.6167ZM1.49994 10.8333H12.6883L10.0049 8.16166C9.89616 8.05288 9.80988 7.92374 9.75101 7.78161C9.69213 7.63949 9.66183 7.48716 9.66183 7.33332C9.66183 7.17949 9.69213 7.02716 9.75101 6.88503C9.80988 6.74291 9.89616 6.61377 10.0049 6.50499C10.1137 6.39621 10.2429 6.30992 10.385 6.25105C10.5271 6.19218 10.6794 6.16188 10.8333 6.16188C10.9871 6.16188 11.1394 6.19218 11.2816 6.25105C11.4237 6.30992 11.5528 6.39621 11.6616 6.50499L16.3283 11.1717C16.4345 11.2826 16.5177 11.4134 16.5733 11.5567C16.69 11.8407 16.69 12.1593 16.5733 12.4433C16.5177 12.5865 16.4345 12.7174 16.3283 12.8283L11.6616 17.495C11.5532 17.6043 11.4241 17.6911 11.2819 17.7504C11.1398 17.8096 10.9873 17.8401 10.8333 17.8401C10.6793 17.8401 10.5268 17.8096 10.3846 17.7504C10.2424 17.6911 10.1134 17.6043 10.0049 17.495C9.89559 17.3865 9.8088 17.2575 9.74957 17.1153C9.69034 16.9732 9.65984 16.8207 9.65984 16.6667C9.65984 16.5126 9.69034 16.3602 9.74957 16.218C9.8088 16.0758 9.89559 15.9468 10.0049 15.8383L12.6883 13.1667H1.49994C1.19052 13.1667 0.893774 13.0437 0.674982 12.8249C0.45619 12.6062 0.333275 12.3094 0.333275 12C0.333275 11.6906 0.45619 11.3938 0.674982 11.175C0.893774 10.9562 1.19052 10.8333 1.49994 10.8333Z" fill="#434656"/>
</svg>
