<svg width="50" height="50" viewBox="0 0 50 50" fill="none" xmlns="http://www.w3.org/2000/svg">
<circle cx="25" cy="25" r="25" fill="url(#paint0_linear_383_7099)"/>
<path fill-rule="evenodd" clip-rule="evenodd" d="M24.4415 11.8118C24.4415 11.708 24.4389 11.6077 24.4364 11.5098C24.431 11.3003 24.4258 11.1023 24.4472 10.9071C24.505 10.3716 24.9909 9.98241 25.5383 10.0006C26.0732 10.0188 26.5176 10.4225 26.5591 10.9523C26.5731 11.1339 26.5698 11.3168 26.5663 11.515C26.5646 11.6088 26.5628 11.706 26.5628 11.808C25.8516 11.5412 25.1535 11.5324 24.4415 11.8118ZM25.4893 12.663C24.6073 12.663 23.8747 13.3963 23.8747 14.2808C23.874 15.1641 24.606 15.8968 25.49 15.898C26.3701 15.8993 27.109 15.1591 27.1046 14.2802C27.0996 13.39 26.3739 12.663 25.4893 12.663ZM26.5446 21.7772H24.4541V16.7411C25.1415 16.9941 25.8321 17.0111 26.5446 16.7336V21.7772ZM41 21.2386H32.4439C32.518 22.8514 33.1897 24.1038 34.5652 24.8979C36.1384 25.8063 37.7311 25.7254 39.219 24.6845C40.3917 23.864 40.9623 22.6925 41 21.2386ZM18.5573 21.2442C18.4751 22.8721 17.7927 24.1295 16.3959 24.9205C14.8854 25.7768 13.3473 25.721 11.8978 24.7648C10.6598 23.9487 10.0439 22.7553 10 21.2442H18.5573ZM25.4937 22.8206C30.5078 22.8099 34.5809 26.8905 34.5859 31.931C34.5916 36.9319 30.4997 41.0119 25.4912 41C20.4796 40.988 16.4147 36.9326 16.4141 31.9442C16.4134 26.9024 20.4652 22.8313 25.4937 22.8206ZM18.0181 31.9015C18.0099 36.021 21.3572 39.3922 25.4636 39.4016C29.6139 39.4111 32.9631 36.0719 32.9807 31.9078C32.9976 27.8165 29.6459 24.4434 25.5502 24.4302C21.3849 24.4171 18.0262 27.7481 18.0187 31.9009L18.0181 31.9015ZM16.3871 14.773V13.7529H22.8438V14.773H16.3871ZM28.1562 13.7479V14.7774H34.6135V13.7479H28.1562ZM17.8105 20.156H17.8104C17.5365 20.1575 17.2854 20.1588 17.035 20.1481C16.9753 20.1456 16.8943 20.0653 16.8648 20.0018C16.3354 18.8615 15.812 17.7191 15.2885 16.5764L15.166 16.3092C15.1604 16.2965 15.1625 16.2802 15.1639 16.2694L15.1646 16.2639L15.1648 16.2609L15.2812 16.1693L15.2828 16.1681C15.5158 15.9849 15.7488 15.8017 16.0066 15.5992C16.6991 17.0965 17.3947 18.6006 18.1129 20.1544V20.155C18.0089 20.155 17.9088 20.1555 17.8115 20.156H17.8114H17.8112H17.811H17.8109H17.8107H17.8105ZM33.5184 18.7917L32.8871 20.1569C32.9953 20.1569 33.0978 20.1584 33.1964 20.1598L33.1965 20.1598L33.1967 20.1598C33.4325 20.1632 33.6454 20.1663 33.8564 20.1481C33.9619 20.1387 34.1063 20.0483 34.1502 19.9554C34.6405 18.9182 35.12 17.8754 35.5992 16.8331L35.5994 16.8327L35.8201 16.3525C35.8322 16.327 35.8357 16.2973 35.838 16.278C35.8388 16.2712 35.8394 16.2657 35.8402 16.2621L35.3312 15.8637L34.994 15.5998C34.5053 16.6572 34.0167 17.714 33.5184 18.7917ZM13.4013 16.2703L13.4012 16.2705C13.2463 16.1501 13.0973 16.0347 12.9493 15.92L12.9492 15.92L12.949 15.9198C12.8127 15.8142 12.6773 15.7093 12.5388 15.6017C11.8444 17.1046 11.1488 18.6107 10.447 20.1312C11.1966 20.2103 11.7162 19.9366 12.0058 19.31C12.0271 19.2623 12.0491 19.2152 12.0711 19.1681C12.5168 18.1964 12.9631 17.224 13.4012 16.2705L13.4026 16.2716L13.4013 16.2703ZM40.2615 20.1576C40.3598 20.1569 40.4612 20.1563 40.5668 20.1563C40.1793 19.3183 39.7985 18.4938 39.421 17.6768L39.4195 17.6735L39.4122 17.6577C39.0936 16.9681 38.7775 16.2838 38.4619 15.6011L37.983 15.974L37.5993 16.2728L37.9071 16.9423C38.3736 17.9569 38.8434 18.979 39.3188 19.9981C39.3508 20.0671 39.4487 20.1462 39.519 20.1494C39.7584 20.1608 39.9988 20.1593 40.2615 20.1576ZM13.2111 14.2564C13.2168 13.6562 13.6901 13.1998 14.2959 13.2092C14.876 13.218 15.3437 13.692 15.3443 14.2708C15.3443 14.8546 14.8496 15.3468 14.2664 15.3424C13.675 15.338 13.2055 14.8546 13.2111 14.2564ZM37.7895 14.2677C37.7876 13.6662 37.3193 13.2048 36.7154 13.2092L36.716 13.2098C36.1215 13.2142 35.645 13.7008 35.6569 14.2909C35.6682 14.8641 36.1504 15.3393 36.7229 15.3424C37.313 15.3449 37.7914 14.8634 37.7895 14.2677ZM25.4617 25.4987C21.9241 25.5295 19.0602 28.4173 19.0928 31.9203H19.0935C19.1267 35.5169 21.9988 38.3601 25.5703 38.33C29.0985 38.3005 31.9492 35.3832 31.909 31.8431C31.8695 28.3106 28.9798 25.468 25.4617 25.4987Z" fill="white"/>
<defs>
<linearGradient id="paint0_linear_383_7099" x1="0" y1="25" x2="50" y2="25" gradientUnits="userSpaceOnUse">
<stop stop-color="#E65C00"/>
<stop offset="1" stop-color="#F9D423"/>
</linearGradient>
</defs>
</svg>
