<svg width="35" height="35" viewBox="0 0 35 35" fill="none" xmlns="http://www.w3.org/2000/svg">
<circle cx="17.5" cy="17.5" r="17.5" fill="#131316"/>
<path fill-rule="evenodd" clip-rule="evenodd" d="M9.46388 11.9953C9.36905 11.8962 9.29471 11.7794 9.24513 11.6515C9.14094 11.3979 9.14094 11.1135 9.24513 10.8599C9.29471 10.732 9.36905 10.6152 9.46388 10.5161L12.5889 7.39113C12.6857 7.2935 12.8009 7.216 12.9279 7.16312C13.0548 7.11023 13.191 7.08301 13.3285 7.08301C13.466 7.08301 13.6021 7.11023 13.7291 7.16312C13.856 7.216 13.9712 7.2935 14.068 7.39113C14.1657 7.48797 14.2432 7.60318 14.2961 7.73011C14.3489 7.85705 14.3762 7.9932 14.3762 8.13071C14.3762 8.26823 14.3489 8.40438 14.2961 8.53132C14.2432 8.65825 14.1657 8.77346 14.068 8.8703L12.7139 10.214H22.7035C23.5323 10.214 24.3271 10.5433 24.9132 11.1293C25.4992 11.7154 25.8285 12.5102 25.8285 13.339V17.5057C25.8285 17.782 25.7187 18.0469 25.5234 18.2423C25.328 18.4376 25.0631 18.5474 24.7868 18.5474C24.5105 18.5474 24.2456 18.4376 24.0502 18.2423C23.8549 18.0469 23.7451 17.782 23.7451 17.5057V13.339C23.7451 13.0628 23.6354 12.7978 23.44 12.6025C23.2447 12.4071 22.9797 12.2974 22.7035 12.2974H12.7139L14.068 13.6411C14.2642 13.8373 14.3744 14.1033 14.3744 14.3807C14.3744 14.6581 14.2642 14.9241 14.068 15.1203C13.8719 15.3164 13.6059 15.4266 13.3285 15.4266C13.0511 15.4266 12.785 15.3164 12.5889 15.1203L9.46388 11.9953ZM25.5316 23.01C25.6264 23.1091 25.7008 23.2259 25.7503 23.3538C25.8545 23.6074 25.8545 23.8918 25.7503 24.1454C25.7008 24.2733 25.6264 24.3901 25.5316 24.4892L22.4066 27.6142C22.3098 27.7118 22.1945 27.7893 22.0676 27.8422C21.9407 27.8951 21.8045 27.9223 21.667 27.9223C21.5295 27.9223 21.3933 27.8951 21.2664 27.8422C21.1395 27.7893 21.0243 27.7118 20.9274 27.6142C20.8298 27.5174 20.7523 27.4021 20.6994 27.2752C20.6465 27.1483 20.6193 27.0121 20.6193 26.8746C20.6193 26.7371 20.6465 26.6009 20.6994 26.474C20.7523 26.3471 20.8298 26.2319 20.9274 26.135L22.2816 24.7913H12.292C11.4632 24.7913 10.6684 24.462 10.0823 23.876C9.49625 23.2899 9.16701 22.4951 9.16701 21.6663V17.4996C9.16701 17.2233 9.27676 16.9584 9.47211 16.763C9.66746 16.5677 9.93241 16.4579 10.2087 16.4579C10.4849 16.4579 10.7499 16.5677 10.9452 16.763C11.1406 16.9584 11.2503 17.2233 11.2503 17.4996V21.6663C11.2503 21.9425 11.3601 22.2075 11.5554 22.4028C11.7508 22.5982 12.0157 22.7079 12.292 22.7079H22.2816L20.9274 21.3642C20.7313 21.168 20.6211 20.902 20.6211 20.6246C20.6211 20.3472 20.7313 20.0812 20.9274 19.885C21.1236 19.6889 21.3896 19.5787 21.667 19.5787C21.9444 19.5787 22.2104 19.6889 22.4066 19.885L25.5316 23.01Z" fill="#66BDFF"/>
</svg>
