<svg width="50" height="50" viewBox="0 0 50 50" fill="none" xmlns="http://www.w3.org/2000/svg">
<circle cx="25" cy="25" r="25" fill="url(#paint0_linear_721_11956)"/>
<path d="M39.9512 27.1218C39.9458 27.0416 39.933 26.962 39.9128 26.8842L36.77 18.5155C37.342 18.1455 37.8123 17.6384 38.1383 17.0403C38.4643 16.4422 38.6355 15.7721 38.6364 15.0909C38.6364 14.7293 38.4927 14.3824 38.237 14.1267C37.9812 13.8709 37.6344 13.7273 37.2727 13.7273C36.9111 13.7273 36.5642 13.8709 36.3085 14.1267C36.0528 14.3824 35.9091 14.7293 35.9091 15.0909C35.909 15.3948 35.8074 15.6899 35.6205 15.9295C35.4336 16.1691 35.172 16.3394 34.8773 16.4135C34.5825 16.4875 34.2715 16.461 33.9936 16.3382C33.7156 16.2153 33.4866 16.0032 33.3429 15.7354C32.993 15.1143 32.4814 14.5996 31.8623 14.246C31.2433 13.8924 30.54 13.7132 29.8273 13.7273H26.3636V12.3636C26.3636 12.002 26.22 11.6551 25.9642 11.3994C25.7085 11.1437 25.3617 11 25 11C24.6383 11 24.2915 11.1437 24.0358 11.3994C23.78 11.6551 23.6364 12.002 23.6364 12.3636V13.7273H20.1727C19.46 13.7132 18.7567 13.8924 18.1377 14.246C17.5186 14.5996 17.007 15.1143 16.6571 15.7354C16.5134 16.0032 16.2844 16.2153 16.0064 16.3382C15.7285 16.461 15.4175 16.4875 15.1227 16.4135C14.828 16.3394 14.5664 16.1691 14.3795 15.9295C14.1926 15.6899 14.091 15.3948 14.0909 15.0909C14.0909 14.7293 13.9472 14.3824 13.6915 14.1267C13.4358 13.8709 13.0889 13.7273 12.7273 13.7273C12.3656 13.7273 12.0188 13.8709 11.763 14.1267C11.5073 14.3824 11.3636 14.7293 11.3636 15.0909C11.3645 15.7721 11.5357 16.4422 11.8617 17.0403C12.1877 17.6384 12.658 18.1455 13.23 18.5155L10.0873 26.8842C10.0671 26.962 10.0542 27.0416 10.0488 27.1218C10.0249 27.2007 10.0085 27.2816 10 27.3636C10 27.3763 10.0037 27.3879 10.0038 27.4006C10.0042 27.4186 10.0078 27.4351 10.0091 27.453C10.0303 28.8833 10.6134 30.2477 11.6323 31.2516C12.6512 32.2555 14.0242 32.8183 15.4545 32.8183C16.8849 32.8183 18.2579 32.2555 19.2768 31.2516C20.2957 30.2477 20.8788 28.8833 20.9 27.453C20.9012 27.4351 20.9049 27.4186 20.9053 27.4006C20.9054 27.3879 20.9091 27.3763 20.9091 27.3636C20.9006 27.2816 20.8842 27.2007 20.8603 27.1218C20.8549 27.0416 20.842 26.962 20.8219 26.8842L17.6754 18.5057C18.2533 18.137 18.7288 17.6284 19.0581 17.0272C19.1771 16.8421 19.3428 16.6917 19.5385 16.5911C19.7342 16.4906 19.953 16.4435 20.1727 16.4545H23.6364V35.5455H19.5455C19.1838 35.5455 18.8369 35.6891 18.5812 35.9449C18.3255 36.2006 18.1818 36.5474 18.1818 36.9091C18.1818 37.2708 18.3255 37.6176 18.5812 37.8733C18.8369 38.1291 19.1838 38.2727 19.5455 38.2727H30.4545C30.8162 38.2727 31.1631 38.1291 31.4188 37.8733C31.6745 37.6176 31.8182 37.2708 31.8182 36.9091C31.8182 36.5474 31.6745 36.2006 31.4188 35.9449C31.1631 35.6891 30.8162 35.5455 30.4545 35.5455H26.3636V16.4545H29.8273C30.047 16.4435 30.2658 16.4906 30.4615 16.5912C30.6572 16.6917 30.8229 16.8421 30.9419 17.0272C31.2711 17.6284 31.7466 18.137 32.3245 18.5057L29.1782 26.8842C29.158 26.962 29.1451 27.0416 29.1397 27.1218C29.1158 27.2007 29.0994 27.2816 29.0909 27.3636C29.0909 27.3763 29.0946 27.3879 29.0947 27.4006C29.0951 27.4186 29.0987 27.4351 29.1 27.453C29.1212 28.8833 29.7043 30.2477 30.7232 31.2516C31.7421 32.2555 33.1151 32.8183 34.5455 32.8183C35.9758 32.8183 37.3488 32.2555 38.3677 31.2516C39.3866 30.2477 39.9697 28.8833 39.9909 27.453C39.9921 27.4351 39.9958 27.4186 39.9963 27.4006C39.9963 27.3879 40 27.3763 40 27.3636C39.9915 27.2816 39.9752 27.2007 39.9512 27.1218ZM15.4545 20.3484L17.5769 26H13.3322L15.4545 20.3484ZM17.8036 28.7273C17.563 29.1379 17.2202 29.4793 16.8085 29.7182C16.3969 29.9572 15.9305 30.0856 15.4545 30.0909C14.976 30.0907 14.5058 29.9646 14.0914 29.7253C13.677 29.4859 13.3328 29.1417 13.0935 28.7273H17.8036ZM34.5455 20.3484L36.6678 26H32.4231L34.5455 20.3484ZM34.5455 30.0909C34.0669 30.0907 33.5967 29.9646 33.1823 29.7253C32.7679 29.4859 32.4237 29.1417 32.1844 28.7273H36.8945C36.6539 29.1379 36.3111 29.4793 35.8995 29.7182C35.4878 29.9572 35.0214 30.0856 34.5455 30.0909Z" fill="white"/>
<defs>
<linearGradient id="paint0_linear_721_11956" x1="0" y1="25" x2="50" y2="25" gradientUnits="userSpaceOnUse">
<stop stop-color="#E65C00"/>
<stop offset="1" stop-color="#F9D423"/>
</linearGradient>
</defs>
</svg>
