<svg width="30" height="30" viewBox="0 0 30 30" fill="none" xmlns="http://www.w3.org/2000/svg">
<rect width="30" height="30" rx="15" fill="#FEF8EC"/>
<path fill-rule="evenodd" clip-rule="evenodd" d="M19.9878 10.5827C19.9794 10.1403 19.6179 9.78929 19.1755 9.79388L12.0514 9.89697L14.051 7.83774C14.252 7.63083 14.3282 7.33324 14.2509 7.05717C14.1737 6.78109 13.9547 6.56843 13.6764 6.49927C13.3982 6.43014 13.103 6.51503 12.902 6.72196L9.55616 10.1675C9.49813 10.2272 9.44984 10.2956 9.41303 10.3702L9.40928 10.3741L9.40236 10.3812C9.35021 10.4915 9.32421 10.6122 9.32645 10.7337C9.32731 10.7912 9.33431 10.8483 9.34734 10.9041L9.35067 10.9174L9.35334 10.9276L9.35657 10.9307C9.39414 11.0682 9.46783 11.1928 9.56997 11.2918L13.017 14.6391C13.2205 14.8368 13.5149 14.9099 13.7892 14.831C14.0635 14.7522 14.2762 14.5332 14.347 14.2567C14.4178 13.9802 14.336 13.6881 14.1325 13.4904L12.0727 11.4901L19.1968 11.387C19.4084 11.3842 19.6109 11.2968 19.759 11.1443C19.9071 10.9918 19.9885 10.7868 19.9851 10.5752L19.9878 10.5827Z" fill="#744F07"/>
<path fill-rule="evenodd" clip-rule="evenodd" d="M10.3245 19.8217C10.3407 20.2639 10.7084 20.6085 11.1507 20.5961L18.2718 20.3671L16.3089 22.4613C16.1116 22.6717 16.0407 22.9706 16.1228 23.2453C16.2049 23.52 16.4277 23.7287 16.7071 23.7929C16.9865 23.8572 17.2801 23.7671 17.4774 23.5566L20.7619 20.0525C20.8188 19.9918 20.8659 19.9225 20.9014 19.8473L20.9051 19.8433L20.9119 19.836C20.962 19.7248 20.9859 19.6037 20.9815 19.4822C20.9796 19.4248 20.9716 19.3678 20.9576 19.3123L20.954 19.299L20.9512 19.2889L20.9479 19.2858C20.9079 19.1491 20.832 19.0257 20.7282 18.9286L17.2225 15.6427C17.0155 15.4487 16.7199 15.3808 16.447 15.4645C16.1741 15.5482 15.9654 15.7709 15.8995 16.0486C15.8336 16.3263 15.9205 16.617 16.1275 16.811L18.2224 18.7745L11.1012 19.0036C10.8896 19.0102 10.6887 19.1011 10.5434 19.2562C10.398 19.4113 10.3202 19.6177 10.3273 19.8292L10.3245 19.8217Z" fill="#744F07"/>
</svg>
