<svg width="21" height="15" viewBox="0 0 21 15" fill="none" xmlns="http://www.w3.org/2000/svg">
<path d="M19.8055 4.90277L15.9721 1.06944C15.8828 0.980082 15.7767 0.909203 15.66 0.860845C15.5432 0.812487 15.4181 0.787598 15.2917 0.787598C15.0365 0.787598 14.7918 0.888978 14.6113 1.06944C14.4308 1.24989 14.3295 1.49465 14.3295 1.74985C14.3295 2.00506 14.4308 2.24981 14.6113 2.43027L16.8155 4.62485H5.70839C5.45422 4.62485 5.21046 4.72582 5.03074 4.90554C4.85102 5.08526 4.75005 5.32902 4.75005 5.58319C4.75005 5.83735 4.85102 6.08111 5.03074 6.26083C5.21046 6.44055 5.45422 6.54152 5.70839 6.54152H19.1251C19.3142 6.54057 19.4989 6.48365 19.6558 6.37791C19.8127 6.27217 19.9348 6.12236 20.0067 5.94735C20.0801 5.77283 20.1002 5.58048 20.0643 5.39457C20.0285 5.20867 19.9384 5.03753 19.8055 4.90277ZM15.2917 8.45818H1.87505C1.68585 8.45913 1.50117 8.51606 1.34427 8.62179C1.18737 8.72753 1.06528 8.87734 0.993386 9.05235C0.919997 9.22687 0.899946 9.41922 0.935763 9.60513C0.97158 9.79104 1.06166 9.96217 1.19464 10.0969L5.02797 13.9303C5.11706 14.0201 5.22305 14.0914 5.33983 14.14C5.45661 14.1887 5.58187 14.2137 5.70839 14.2137C5.8349 14.2137 5.96016 14.1887 6.07694 14.14C6.19372 14.0914 6.29971 14.0201 6.3888 13.9303C6.47863 13.8412 6.54992 13.7352 6.59857 13.6184C6.64723 13.5016 6.67228 13.3764 6.67228 13.2499C6.67228 13.1233 6.64723 12.9981 6.59857 12.8813C6.54992 12.7645 6.47863 12.6585 6.3888 12.5694L4.18464 10.3749H15.2917C15.5459 10.3749 15.7896 10.2739 15.9694 10.0942C16.1491 9.91444 16.2501 9.67068 16.2501 9.41652C16.2501 9.16235 16.1491 8.9186 15.9694 8.73887C15.7896 8.55915 15.5459 8.45818 15.2917 8.45818Z" fill="#98A2B3"/>
</svg>
