<svg width="24" height="24" viewBox="0 0 24 24" fill="none" xmlns="http://www.w3.org/2000/svg">
<path opacity="0.1" fill-rule="evenodd" clip-rule="evenodd" d="M0 12C0 5.37258 5.37258 0 12 0C18.6274 0 24 5.37258 24 12C24 18.6274 18.6274 24 12 24C5.37258 24 0 18.6274 0 12Z" fill="white"/>
<path fill-rule="evenodd" clip-rule="evenodd" d="M11.6406 9.7537L11.6658 10.1689L11.2461 10.1181C9.71843 9.92318 8.38383 9.26221 7.25067 8.15211L6.69668 7.6013L6.55399 8.00805C6.25181 8.91477 6.44487 9.87234 7.0744 10.5164C7.41015 10.8723 7.33461 10.9231 6.75544 10.7113C6.55399 10.6435 6.37772 10.5926 6.36093 10.6181C6.30218 10.6774 6.50363 11.4485 6.66311 11.7536C6.88134 12.1773 7.32621 12.5925 7.81305 12.8382L8.22434 13.0331L7.73751 13.0416C7.26746 13.0416 7.25067 13.0501 7.30103 13.2281C7.46891 13.7789 8.13201 14.3636 8.87066 14.6178L9.39108 14.7957L8.93781 15.0669C8.26631 15.4567 7.4773 15.677 6.68829 15.694C6.31057 15.7025 6 15.7364 6 15.7618C6 15.8465 7.02404 16.3211 7.61999 16.5075C9.40786 17.0583 11.5315 16.821 13.1263 15.8804C14.2595 15.211 15.3926 13.8806 15.9214 12.5925C16.2068 11.9061 16.4922 10.6519 16.4922 10.0503C16.4922 9.66049 16.5174 9.60964 16.9874 9.14357C17.2644 8.8724 17.5246 8.57581 17.575 8.49107C17.6589 8.33007 17.6505 8.33007 17.2224 8.47412C16.509 8.72834 16.4083 8.69445 16.7608 8.31312C17.021 8.04195 17.3316 7.55046 17.3316 7.4064C17.3316 7.38098 17.2057 7.42335 17.063 7.49961C16.9119 7.58435 16.5761 7.71146 16.3243 7.78773L15.8711 7.93179L15.4598 7.65214C15.2331 7.49961 14.9142 7.33013 14.7463 7.27929C14.3182 7.16065 13.6635 7.1776 13.2774 7.31318C12.2282 7.69451 11.5651 8.6775 11.6406 9.7537Z" fill="white"/>
</svg>
