<svg width="24" height="24" viewBox="0 0 24 24" fill="none" xmlns="http://www.w3.org/2000/svg">
<path d="M15.1735 8.25498L10.1685 13.2716L8.2435 11.3466C8.13891 11.2245 8.01021 11.1253 7.86547 11.0553C7.72072 10.9853 7.56307 10.9459 7.4024 10.9397C7.24172 10.9335 7.0815 10.9606 6.93179 11.0192C6.78208 11.0779 6.64611 11.1669 6.53241 11.2806C6.41871 11.3943 6.32974 11.5302 6.27109 11.6799C6.21244 11.8296 6.18536 11.9899 6.19157 12.1505C6.19778 12.3112 6.23713 12.4689 6.30715 12.6136C6.37718 12.7584 6.47637 12.8871 6.5985 12.9916L9.34017 15.745C9.44918 15.8531 9.57847 15.9387 9.72061 15.9967C9.86275 16.0548 10.015 16.0842 10.1685 16.0833C10.4746 16.082 10.7679 15.9605 10.9852 15.745L16.8185 9.91165C16.9279 9.80319 17.0146 9.67415 17.0739 9.53199C17.1331 9.38982 17.1636 9.23733 17.1636 9.08331C17.1636 8.9293 17.1331 8.77681 17.0739 8.63464C17.0146 8.49247 16.9279 8.36344 16.8185 8.25498C16.5999 8.03769 16.3042 7.91572 15.996 7.91572C15.6878 7.91572 15.3921 8.03769 15.1735 8.25498ZM12.0002 0.333313C9.69272 0.333313 7.43709 1.01755 5.51852 2.2995C3.59994 3.58145 2.1046 5.40353 1.22157 7.53534C0.338551 9.66714 0.107512 12.0129 0.557673 14.276C1.00783 16.5391 2.11898 18.6179 3.75059 20.2496C5.3822 21.8812 7.461 22.9923 9.72411 23.4425C11.9872 23.8926 14.333 23.6616 16.4648 22.7786C18.5966 21.8956 20.4187 20.4002 21.7006 18.4816C22.9826 16.5631 23.6668 14.3074 23.6668 12C23.6668 10.4679 23.3651 8.9508 22.7788 7.53534C22.1925 6.11987 21.3331 4.83375 20.2497 3.7504C19.1664 2.66705 17.8803 1.80769 16.4648 1.22139C15.0493 0.63508 13.5323 0.333313 12.0002 0.333313ZM12.0002 21.3333C10.1542 21.3333 8.3497 20.7859 6.81485 19.7604C5.27999 18.7348 4.08371 17.2771 3.37729 15.5717C2.67087 13.8662 2.48604 11.9896 2.84617 10.1791C3.2063 8.36865 4.09521 6.70561 5.4005 5.40032C6.70579 4.09503 8.36884 3.20611 10.1793 2.84598C11.9898 2.48586 13.8664 2.67069 15.5719 3.3771C17.2773 4.08352 18.735 5.2798 19.7605 6.81466C20.7861 8.34952 21.3335 10.154 21.3335 12C21.3335 14.4753 20.3502 16.8493 18.5998 18.5996C16.8495 20.35 14.4755 21.3333 12.0002 21.3333Z" fill="#434656"/>
</svg>
