<svg width="24" height="22" viewBox="0 0 24 22" fill="none" xmlns="http://www.w3.org/2000/svg">
<path d="M22.5002 9.83333H8.9785L11.6618 7.16167C11.7706 7.05289 11.8569 6.92375 11.9158 6.78162C11.9746 6.6395 12.0049 6.48717 12.0049 6.33333C12.0049 6.1795 11.9746 6.02717 11.9158 5.88504C11.8569 5.74292 11.7706 5.61378 11.6618 5.505C11.5531 5.39622 11.4239 5.30993 11.2818 5.25106C11.1397 5.19219 10.9873 5.16189 10.8335 5.16189C10.6797 5.16189 10.5273 5.19219 10.3852 5.25106C10.2431 5.30993 10.1139 5.39622 10.0052 5.505L5.3385 10.1717C5.23228 10.2826 5.14902 10.4135 5.0935 10.5567C4.97681 10.8407 4.97681 11.1593 5.0935 11.4433C5.14902 11.5865 5.23228 11.7174 5.3385 11.8283L10.0052 16.495C10.1136 16.6043 10.2427 16.6911 10.3848 16.7504C10.527 16.8096 10.6795 16.8401 10.8335 16.8401C10.9875 16.8401 11.14 16.8096 11.2822 16.7504C11.4243 16.6911 11.5534 16.6043 11.6618 16.495C11.7712 16.3865 11.858 16.2575 11.9172 16.1153C11.9764 15.9732 12.0069 15.8207 12.0069 15.6667C12.0069 15.5127 11.9764 15.3602 11.9172 15.218C11.858 15.0758 11.7712 14.9468 11.6618 14.8383L8.9785 12.1667H22.5002C22.8096 12.1667 23.1063 12.0437 23.3251 11.825C23.5439 11.6062 23.6668 11.3094 23.6668 11C23.6668 10.6906 23.5439 10.3938 23.3251 10.175C23.1063 9.95625 22.8096 9.83333 22.5002 9.83333ZM1.50016 0.5C1.19074 0.5 0.893997 0.622916 0.675205 0.841709C0.456412 1.0605 0.333496 1.35725 0.333496 1.66667V20.3333C0.333496 20.6428 0.456412 20.9395 0.675205 21.1583C0.893997 21.3771 1.19074 21.5 1.50016 21.5C1.80958 21.5 2.10633 21.3771 2.32512 21.1583C2.54391 20.9395 2.66683 20.6428 2.66683 20.3333V1.66667C2.66683 1.35725 2.54391 1.0605 2.32512 0.841709C2.10633 0.622916 1.80958 0.5 1.50016 0.5Z" fill="#0033AD"/>
</svg>
