<svg width="24" height="20" viewBox="0 0 24 20" fill="none" xmlns="http://www.w3.org/2000/svg">
<path d="M1.50016 0.666687C1.19074 0.666687 0.893997 0.789604 0.675205 1.0084C0.456412 1.22719 0.333496 1.52393 0.333496 1.83335V18.1667C0.333496 18.4761 0.456412 18.7729 0.675205 18.9916C0.893997 19.2104 1.19074 19.3334 1.50016 19.3334C1.80958 19.3334 2.10633 19.2104 2.32512 18.9916C2.54391 18.7729 2.66683 18.4761 2.66683 18.1667V1.83335C2.66683 1.52393 2.54391 1.22719 2.32512 1.0084C2.10633 0.789604 1.80958 0.666687 1.50016 0.666687ZM23.5735 9.55669C23.518 9.41348 23.4347 9.28264 23.3285 9.17169L18.6618 4.50502C18.5531 4.39624 18.4239 4.30995 18.2818 4.25108C18.1397 4.19221 17.9873 4.16191 17.8335 4.16191C17.5228 4.16191 17.2249 4.28533 17.0052 4.50502C16.7855 4.72471 16.6621 5.02267 16.6621 5.33335C16.6621 5.64404 16.7855 5.942 17.0052 6.16169L19.6885 8.83335H6.16683C5.85741 8.83335 5.56066 8.95627 5.34187 9.17506C5.12308 9.39385 5.00016 9.6906 5.00016 10C5.00016 10.3094 5.12308 10.6062 5.34187 10.825C5.56066 11.0438 5.85741 11.1667 6.16683 11.1667H19.6885L17.0052 13.8384C16.8958 13.9468 16.809 14.0758 16.7498 14.218C16.6906 14.3602 16.6601 14.5127 16.6601 14.6667C16.6601 14.8207 16.6906 14.9732 16.7498 15.1154C16.809 15.2575 16.8958 15.3866 17.0052 15.495C17.1136 15.6044 17.2427 15.6912 17.3848 15.7504C17.527 15.8096 17.6795 15.8401 17.8335 15.8401C17.9875 15.8401 18.14 15.8096 18.2822 15.7504C18.4243 15.6912 18.5534 15.6044 18.6618 15.495L23.3285 10.8284C23.4347 10.7174 23.518 10.5866 23.5735 10.4434C23.6902 10.1593 23.6902 9.84072 23.5735 9.55669Z" fill="#0033AD"/>
</svg>
