<svg width="24" height="24" viewBox="0 0 24 24" fill="none" xmlns="http://www.w3.org/2000/svg">
<path d="M17 2H5C4.73478 2 4.48043 2.10536 4.29289 2.29289C4.10536 2.48043 4 2.73478 4 3V21C4 21.2652 4.10536 21.5196 4.29289 21.7071C4.48043 21.8946 4.73478 22 5 22H17C17.7956 22 18.5587 21.6839 19.1213 21.1213C19.6839 20.5587 20 19.7956 20 19V5C20 4.20435 19.6839 3.44129 19.1213 2.87868C18.5587 2.31607 17.7956 2 17 2ZM18 19C18 19.2652 17.8946 19.5196 17.7071 19.7071C17.5196 19.8946 17.2652 20 17 20H6V4H17C17.2652 4 17.5196 4.10536 17.7071 4.29289C17.8946 4.48043 18 4.73478 18 5V19Z" fill="#98A2B3"/>
<path fill-rule="evenodd" clip-rule="evenodd" d="M11.0845 16H11.0593C10.6766 15.9885 10.3539 15.7193 10.274 15.3449C10.2458 15.2116 10.2511 15.0624 10.289 14.9349C10.7377 13.4237 11.6354 10.4695 12.0813 9.00218C12.1267 8.85281 12.1674 8.71885 12.2025 8.60339C12.3353 8.16594 12.7247 7.93067 13.1718 8.01807C13.5594 8.09355 13.8282 8.44845 13.8256 8.88016V8.90709L13.8172 8.94946C13.811 8.98478 13.8004 9.04393 13.7819 9.10573L13.7523 9.20505C13.5107 10.0141 13.0339 11.5896 12.6036 13.0114C12.321 13.9454 12.0584 14.813 11.8958 15.3533C11.777 15.7484 11.4601 16 11.0845 16ZM8.90634 14.3771C9.05599 14.5285 9.25595 14.6097 9.46518 14.6097C9.52963 14.6097 9.59452 14.6022 9.65941 14.5863C9.9428 14.5179 10.1723 14.3047 10.2584 14.0306C10.3277 13.8103 10.3436 13.4779 10.0249 13.1451C9.76819 12.8772 9.51692 12.6107 9.25402 12.332L9.25396 12.3319L9.17164 12.2446L8.9783 12.0393L9.03082 11.9815C9.12972 11.874 9.229 11.7665 9.32795 11.6593L9.35041 11.635C9.58437 11.3821 9.82582 11.1203 10.0602 10.8585C10.3833 10.497 10.3727 10.0017 10.0346 9.68039C9.86776 9.52192 9.65676 9.43761 9.4409 9.44467C9.22284 9.45085 9.01361 9.54929 8.85249 9.72144C8.36163 10.2454 7.82928 10.8254 7.22586 11.4951C6.93231 11.8208 6.92393 12.2645 7.20643 12.5743C7.69641 13.112 8.28129 13.7463 8.90634 14.3771ZM14.9081 11.844L14.9081 11.844L14.9142 11.8504C14.9632 11.9021 15.0118 11.9533 15.0608 12.0054C14.9978 12.0739 14.9347 12.142 14.8715 12.2101L14.8713 12.2103L14.8096 12.2768L14.8012 12.2859C14.5341 12.574 14.2578 12.872 13.9996 13.1804C13.8566 13.3517 13.7656 13.6042 13.763 13.839C13.759 14.1688 13.9753 14.4433 14.3276 14.5555C14.4176 14.5841 14.5063 14.5983 14.5928 14.5983C14.8184 14.5983 15.0285 14.502 15.2011 14.3153L15.2735 14.2372L15.2818 14.2283C15.7802 13.6899 16.2955 13.1332 16.7977 12.5805C17.1231 12.2225 17.1231 11.7873 16.7977 11.417C16.7026 11.3085 16.6032 11.2051 16.5065 11.1047L16.491 11.0885C16.445 11.0409 16.3991 10.9932 16.3532 10.9451C16.2385 10.8237 16.1241 10.7023 16.0103 10.5809C15.7414 10.2949 15.4638 9.99955 15.1844 9.71307C14.9049 9.42659 14.49 9.37318 14.1519 9.57976C13.8301 9.77664 13.6804 10.1713 13.7961 10.5182C13.8424 10.6577 13.9316 10.7998 14.0618 10.9411L14.0614 10.9415C14.3405 11.2452 14.6288 11.5494 14.9081 11.844Z" fill="#98A2B3"/>
</svg>
