<svg width="24" height="24" viewBox="0 0 24 24" fill="none" xmlns="http://www.w3.org/2000/svg">
<path fill-rule="evenodd" clip-rule="evenodd" d="M16.056 16.212H21.492C21.8019 16.2213 22.0962 16.3502 22.3132 16.5716C22.5302 16.7931 22.653 17.09 22.656 17.4V22.8C22.656 23.1183 22.5296 23.4235 22.3045 23.6485C22.0795 23.8736 21.7743 24 21.456 24C21.1377 24 20.8325 23.8736 20.6075 23.6485C20.3824 23.4235 20.256 23.1183 20.256 22.8V20.676C18.5554 22.2882 16.42 23.3673 14.1132 23.78C11.8065 24.1926 9.42938 23.9209 7.27529 22.9983C5.1212 22.0756 3.28438 20.5425 1.99152 18.588C0.698665 16.6336 0.00634399 14.3434 0 12C0 11.6817 0.126428 11.3765 0.351472 11.1515C0.576515 10.9264 0.88174 10.8 1.2 10.8C1.51826 10.8 1.82348 10.9264 2.04853 11.1515C2.27357 11.3765 2.4 11.6817 2.4 12C2.40501 13.9146 2.98238 15.7839 4.05791 17.3678C5.13344 18.9517 6.65801 20.1779 8.43573 20.8887C10.2135 21.5995 12.1631 21.7626 14.0342 21.3569C15.9053 20.9512 17.6123 19.9953 18.936 18.612H16.056C15.7377 18.612 15.4325 18.4856 15.2075 18.2605C14.9824 18.0355 14.856 17.7303 14.856 17.412C14.856 17.0937 14.9824 16.7885 15.2075 16.5635C15.4325 16.3384 15.7377 16.212 16.056 16.212ZM3.744 3.324C5.96819 1.1987 8.92366 0.00877463 12 0C13.5759 0 15.1363 0.310389 16.5922 0.913446C18.0481 1.5165 19.371 2.40042 20.4853 3.51472C21.5996 4.62902 22.4835 5.95189 23.0866 7.4078C23.6896 8.86371 24 10.4241 24 12C24 12.3183 23.8736 12.6235 23.6485 12.8485C23.4235 13.0736 23.1183 13.2 22.8 13.2C22.4817 13.2 22.1765 13.0736 21.9515 12.8485C21.7264 12.6235 21.6 12.3183 21.6 12C21.5926 10.0865 21.0135 8.21879 19.9371 6.63672C18.8606 5.05465 17.336 3.83038 15.5587 3.12104C13.7815 2.41169 11.8328 2.24966 9.96288 2.65573C8.09291 3.0618 6.38696 4.01745 5.064 5.4H7.944C8.26226 5.4 8.56748 5.52643 8.79253 5.75147C9.01757 5.97652 9.144 6.28174 9.144 6.6C9.144 6.91826 9.01757 7.22348 8.79253 7.44853C8.56748 7.67357 8.26226 7.8 7.944 7.8H2.544C2.22574 7.8 1.92052 7.67357 1.69547 7.44853C1.47043 7.22348 1.344 6.91826 1.344 6.6V1.2C1.344 0.88174 1.47043 0.576515 1.69547 0.351472C1.92052 0.126428 2.22574 0 2.544 0C2.86226 0 3.16748 0.126428 3.39253 0.351472C3.61757 0.576515 3.744 0.88174 3.744 1.2V3.324ZM15.5848 9.43849C15.3473 9.66468 15.0287 9.78886 14.7001 9.78886H11.1001C10.9514 9.78886 10.812 9.84529 10.712 9.9406C10.6125 10.0353 10.5601 10.16 10.5601 10.286C10.5601 10.412 10.6125 10.5367 10.712 10.6314C10.812 10.7267 10.9514 10.7831 11.1001 10.7831H12.9001C13.7061 10.7831 14.4825 11.0879 15.0575 11.6356C15.6332 12.1838 15.9601 12.9313 15.9601 13.7146C15.9601 14.4979 15.6332 15.2453 15.0575 15.7935C14.5687 16.2591 13.9344 16.5491 13.2601 16.6257V17.1431C13.2601 17.4718 13.1228 17.7832 12.8848 18.0099C12.6473 18.2361 12.3287 18.3603 12.0001 18.3603C11.6714 18.3603 11.3529 18.2361 11.1154 18.0099C10.8773 17.7832 10.7401 17.4718 10.7401 17.1431V16.646H9.30008C8.97142 16.646 8.6529 16.5218 8.41541 16.2956C8.17732 16.0689 8.04008 15.7575 8.04008 15.4289C8.04008 15.1002 8.17732 14.7888 8.41541 14.5621C8.6529 14.3359 8.97142 14.2117 9.30008 14.2117H12.9001C13.0488 14.2117 13.1881 14.1553 13.2882 14.06C13.3877 13.9652 13.4401 13.8406 13.4401 13.7146C13.4401 13.5885 13.3877 13.4639 13.2882 13.3692C13.1881 13.2739 13.0488 13.2174 12.9001 13.2174H11.1001C10.294 13.2174 9.51768 12.9126 8.94262 12.365C8.36696 11.8167 8.04008 11.0693 8.04008 10.286C8.04008 9.50271 8.36696 8.75528 8.94262 8.20704C9.43145 7.74148 10.0657 7.45143 10.7401 7.37492V6.85743C10.7401 6.5288 10.8773 6.2174 11.1154 5.99065C11.3529 5.76446 11.6714 5.64029 12.0001 5.64029C12.3287 5.64029 12.6473 5.76446 12.8848 5.99065C13.1228 6.2174 13.2601 6.5288 13.2601 6.85743V7.35457H14.7001C15.0287 7.35457 15.3473 7.47875 15.5848 7.70493C15.8228 7.93168 15.9601 8.24308 15.9601 8.57171C15.9601 8.90034 15.8228 9.21174 15.5848 9.43849ZM14.7001 9.42886H11.1001C10.8614 9.42886 10.6325 9.51916 10.4637 9.67991C10.2949 9.84065 10.2001 10.0587 10.2001 10.286C10.2001 10.5133 10.2949 10.7313 10.4637 10.8921C10.5665 10.99 10.6916 11.0618 10.8277 11.1029C10.6911 11.0618 10.5656 10.9899 10.4624 10.8917C10.2936 10.731 10.1988 10.5129 10.1988 10.2856C10.1988 10.0583 10.2936 9.84027 10.4624 9.67953C10.6312 9.51878 10.8601 9.42848 11.0988 9.42848H14.6988C14.9375 9.42848 15.1664 9.33817 15.3352 9.17742C15.504 9.01668 15.5988 8.79866 15.5988 8.57133C15.5988 8.344 15.504 8.12599 15.3352 7.96524C15.2324 7.86735 15.1074 7.79559 14.9713 7.75443C15.1078 7.79553 15.2334 7.86743 15.3365 7.96562C15.5053 8.12637 15.6001 8.34439 15.6001 8.57171C15.6001 8.79904 15.5053 9.01706 15.3365 9.1778C15.1677 9.33855 14.9388 9.42886 14.7001 9.42886ZM14.808 11.8959C14.4995 11.6021 14.1241 11.3867 13.7158 11.2633C14.1245 11.3867 14.5005 11.6022 14.8093 11.8963C15.3156 12.3785 15.6001 13.0326 15.6001 13.7146C15.6001 14.3966 15.3156 15.0506 14.8093 15.5328C14.3029 16.0151 13.6162 16.286 12.9001 16.286V17.1431C12.9001 17.3705 12.8053 17.5885 12.6365 17.7492C12.4677 17.91 12.2388 18.0003 12.0001 18.0003C11.9066 18.0003 11.8147 17.9864 11.7272 17.9599C11.8143 17.9862 11.9058 17.9999 11.9988 17.9999C12.2375 17.9999 12.4664 17.9096 12.6352 17.7489C12.804 17.5881 12.8988 17.3701 12.8988 17.1428V16.2856C13.6149 16.2856 14.3017 16.0147 14.808 15.5325C15.3144 15.0502 15.5988 14.3962 15.5988 13.7142C15.5988 13.0322 15.3144 12.3782 14.808 11.8959ZM11.0988 16.2856V16.286H9.30008C9.20681 16.286 9.11504 16.2722 9.02776 16.2458C9.11466 16.272 9.206 16.2856 9.29882 16.2856H11.0988ZM12.8988 12.857C12.9914 12.857 13.0824 12.8706 13.1691 12.8966C13.0828 12.8709 12.9922 12.8574 12.9001 12.8574H11.1001C10.8215 12.8574 10.5474 12.8164 10.2866 12.738C10.547 12.8162 10.8207 12.857 11.0988 12.857H12.8988ZM12.6352 6.25096C12.5325 6.1531 12.4074 6.08134 12.2715 6.04018C12.4079 6.08128 12.5334 6.15318 12.6365 6.25134C12.8053 6.41208 12.9001 6.6301 12.9001 6.85743V7.71419H12.8988V6.85705C12.8988 6.62972 12.804 6.4117 12.6352 6.25096Z" fill="#434656"/>
</svg>
