<svg width="21" height="21" viewBox="0 0 21 21" fill="none" xmlns="http://www.w3.org/2000/svg">
<path fill-rule="evenodd" clip-rule="evenodd" d="M16.6897 20.2316C17.6474 20.2316 18.5167 19.8709 19.1934 19.1941C19.8702 18.5174 20.2308 17.648 20.2308 16.6902C20.2308 15.7414 19.879 14.872 19.2012 14.1941L15.582 10.5747C15.2923 10.285 14.951 10.034 14.5551 9.85074C14.3498 9.75567 14.1513 9.68058 14.002 9.62523L13.8835 9.58154C13.7815 9.54405 13.7083 9.51713 13.6307 9.48573C13.5403 9.44911 13.4933 9.42484 13.4742 9.41431L12.4278 8.36784L12.4274 8.36708C12.4254 8.36248 12.4188 8.3451 12.4162 8.31168C12.4106 8.23815 12.4284 8.12744 12.4902 8.01718C12.5745 7.86687 12.6555 7.71466 12.7332 7.56058C13.2743 6.4871 13.2192 5.19019 12.5432 4.16206C11.7947 3.02369 10.8458 2.07464 9.70745 1.3261C8.67945 0.650097 7.38259 0.594894 6.30908 1.13614C5.20307 1.69378 4.20425 2.41798 3.31637 3.30111C2.42583 4.1869 1.69648 5.18617 1.13631 6.29505C0.595199 7.36622 0.649221 8.65934 1.31961 9.68577C2.07182 10.8375 3.02828 11.7942 4.17844 12.5429C5.19817 13.2066 6.47881 13.261 7.54249 12.7315C7.70264 12.6518 7.86091 12.5683 8.01728 12.4812C8.12609 12.4206 8.23464 12.4036 8.30622 12.4093C8.33874 12.4119 8.35552 12.4183 8.35978 12.4202L8.36022 12.4204L9.41425 13.4745C9.42478 13.4937 9.44905 13.5406 9.48567 13.6311C9.51706 13.7086 9.54398 13.7818 9.58148 13.8838L9.62516 14.0023C9.6805 14.1517 9.75559 14.3501 9.85065 14.5555C10.0339 14.9515 10.2849 15.2927 10.5745 15.5824L14.1938 19.2019C14.8716 19.8798 15.741 20.2316 16.6897 20.2316ZM17.8702 17.8708C17.544 18.197 17.1505 18.3602 16.6897 18.3602C16.2289 18.3602 15.838 18.1996 15.517 17.8786L11.8977 14.2591C11.746 14.1074 11.6297 13.9442 11.5488 13.7694C11.4726 13.6046 11.4088 13.4311 11.3451 13.2576C11.2002 12.8633 11.0554 12.4691 10.7636 12.1773L9.68221 11.0959C9.00716 10.4208 7.94063 10.3817 7.10664 10.8463C6.97551 10.9194 6.84283 10.9893 6.70859 11.0562C6.22559 11.2966 5.65139 11.2687 5.1992 10.9744C4.26816 10.3684 3.49719 9.59772 2.88631 8.6624C2.58827 8.20607 2.56081 7.62539 2.80656 7.1389C3.27447 6.21264 3.88428 5.37566 4.63598 4.62798C5.38696 3.88101 6.22547 3.27408 7.15149 2.80719C7.63978 2.56101 8.22244 2.5893 8.67934 2.88975C9.60454 3.49815 10.3713 4.26498 10.9797 5.19024C11.2801 5.64717 11.3084 6.22985 11.0622 6.71817C10.997 6.84762 10.929 6.97542 10.8582 7.10156C10.3888 7.93825 10.4252 9.01167 11.1035 9.69003L12.1771 10.7637C12.4689 11.0555 12.863 11.2004 13.2573 11.3452L13.2573 11.3452C13.4308 11.409 13.6043 11.4727 13.7691 11.549C13.9438 11.6299 14.1071 11.7462 14.2588 11.898L17.878 15.5174C18.199 15.8384 18.3595 16.2294 18.3595 16.6902C18.3595 17.1511 18.1964 17.5446 17.8702 17.8708ZM1.6539 18.0001C1.16534 18.0001 0.769287 18.3962 0.769287 18.8847C0.769287 19.3733 1.16534 19.7694 1.6539 19.7694H8.73083C9.21939 19.7694 9.61544 19.3733 9.61544 18.8847C9.61544 18.3962 9.21939 18.0001 8.73083 18.0001H1.6539Z"/>
</svg>
