<svg width="24" height="24" viewBox="0 0 24 24" fill="none" xmlns="http://www.w3.org/2000/svg">
<rect width="24" height="24" rx="12" fill="#438F68" fill-opacity="0.15"/>
<path fill-rule="evenodd" clip-rule="evenodd" d="M7.29202 16.7162C6.90261 16.3234 6.90261 15.6936 7.29202 15.3008L13.5883 9.00202H10.0003C9.63976 9.00205 9.30654 8.81123 9.12626 8.50154C8.94599 8.19181 8.94599 7.81024 9.12626 7.50051C9.30654 7.19082 9.63976 7 10.0003 7H16.0038C16.1079 6.99997 16.2113 7.01622 16.3102 7.04819L16.317 7.04823H16.3294C16.4737 7.09752 16.6046 7.17929 16.7116 7.28714C16.7624 7.3379 16.8075 7.39393 16.8462 7.45424L16.8553 7.46882L16.862 7.48005V7.48566C16.9526 7.63907 17.0002 7.8137 17 7.99148V13.9975C17 14.3522 16.8092 14.6798 16.4996 14.8572C16.19 15.0345 15.8085 15.0345 15.4988 14.8572C15.1892 14.6798 14.9985 14.3522 14.9985 13.9975V10.4085L8.70214 16.7073C8.51524 16.8946 8.26056 17 7.99484 17C7.72912 17 7.47444 16.8946 7.28753 16.7073L7.29202 16.7162Z" fill="#438F68"/>
</svg>
