<svg width="10" height="10" viewBox="0 0 10 10" fill="none" xmlns="http://www.w3.org/2000/svg">
<path fill-rule="evenodd" clip-rule="evenodd" d="M0.292019 9.71622C-0.0973856 9.32342 -0.0973856 8.69356 0.292019 8.30079L6.58833 2.00202H3.00032C2.63976 2.00205 2.30654 1.81123 2.12626 1.50154C1.94599 1.19181 1.94599 0.810241 2.12626 0.500513C2.30654 0.19082 2.63976 0 3.00032 0H9.00378C9.10786 -3.42278e-05 9.21125 0.016224 9.31023 0.0481928L9.31699 0.048227H9.32941C9.47373 0.0975151 9.60459 0.179285 9.71164 0.287137C9.76237 0.337897 9.80751 0.393928 9.84623 0.454237L9.85527 0.468819L9.86203 0.480045V0.485659C9.95258 0.639068 10.0002 0.813698 10 0.991477V6.99754C10 7.35217 9.80923 7.67983 9.49961 7.85717C9.19 8.03447 8.80846 8.03447 8.49884 7.85717C8.18922 7.67983 7.99846 7.35217 7.99846 6.99754V3.40848L1.70214 9.70725C1.51524 9.89458 1.26056 10 0.994838 10C0.729115 10 0.474435 9.89458 0.287532 9.70725L0.292019 9.71622Z" fill="#116A54"/>
</svg>
