<svg width="30" height="30" viewBox="0 0 30 30" fill="none" xmlns="http://www.w3.org/2000/svg">
<rect width="30" height="30" rx="15" fill="#116A54"/>
<path fill-rule="evenodd" clip-rule="evenodd" d="M10.2921 19.7162C9.90265 19.3234 9.90265 18.6936 10.2921 18.3008L16.5883 12.002H13.0003C12.6398 12.0021 12.3066 11.8112 12.1263 11.5015C11.946 11.1918 11.946 10.8102 12.1263 10.5005C12.3066 10.1908 12.6398 10 13.0003 10H19.0038C19.1079 9.99997 19.2113 10.0162 19.3102 10.0482L19.317 10.0482H19.3294C19.4737 10.0975 19.6046 10.1793 19.7116 10.2871C19.7624 10.3379 19.8075 10.3939 19.8462 10.4542L19.8553 10.4688L19.862 10.48V10.4857C19.9526 10.6391 20.0002 10.8137 20 10.9915V16.9975C20 17.3522 19.8092 17.6798 19.4996 17.8572C19.19 18.0345 18.8085 18.0345 18.4988 17.8572C18.1892 17.6798 17.9985 17.3522 17.9985 16.9975V13.4085L11.7022 19.7073C11.5153 19.8946 11.2606 20 10.9949 20C10.7291 20 10.4745 19.8946 10.2876 19.7073L10.2921 19.7162Z" fill="#EDFCF8"/>
</svg>
