<svg width="26" height="26" viewBox="0 0 26 26" fill="none" xmlns="http://www.w3.org/2000/svg">
<path d="M11.9166 9.75012H16.2499C16.5372 9.75012 16.8128 9.63598 17.016 9.43282C17.2191 9.22965 17.3333 8.9541 17.3333 8.66678C17.3333 8.37947 17.2191 8.10392 17.016 7.90075C16.8128 7.69759 16.5372 7.58345 16.2499 7.58345H14.0833V6.50012C14.0833 6.2128 13.9691 5.93725 13.766 5.73409C13.5628 5.53092 13.2872 5.41678 12.9999 5.41678C12.7126 5.41678 12.4371 5.53092 12.2339 5.73409C12.0307 5.93725 11.9166 6.2128 11.9166 6.50012V7.58345C11.0546 7.58345 10.228 7.92586 9.61849 8.53535C9.009 9.14485 8.66659 9.9715 8.66659 10.8335C8.66659 11.6954 9.009 12.5221 9.61849 13.1315C10.228 13.741 11.0546 14.0835 11.9166 14.0835H14.0833C14.3706 14.0835 14.6461 14.1976 14.8493 14.4008C15.0525 14.6039 15.1666 14.8795 15.1666 15.1668C15.1666 15.4541 15.0525 15.7297 14.8493 15.9328C14.6461 16.136 14.3706 16.2501 14.0833 16.2501H9.74992C9.46261 16.2501 9.18706 16.3643 8.98389 16.5674C8.78073 16.7706 8.66659 17.0461 8.66659 17.3335C8.66659 17.6208 8.78073 17.8963 8.98389 18.0995C9.18706 18.3026 9.46261 18.4168 9.74992 18.4168H11.9166V19.5001C11.9166 19.7874 12.0307 20.063 12.2339 20.2662C12.4371 20.4693 12.7126 20.5835 12.9999 20.5835C13.2872 20.5835 13.5628 20.4693 13.766 20.2662C13.9691 20.063 14.0833 19.7874 14.0833 19.5001V18.4168C14.9452 18.4168 15.7719 18.0744 16.3814 17.4649C16.9908 16.8554 17.3333 16.0287 17.3333 15.1668C17.3333 14.3048 16.9908 13.4782 16.3814 12.8687C15.7719 12.2592 14.9452 11.9168 14.0833 11.9168H11.9166C11.6293 11.9168 11.3537 11.8026 11.1506 11.5995C10.9474 11.3963 10.8333 11.1208 10.8333 10.8335C10.8333 10.5461 10.9474 10.2706 11.1506 10.0674C11.3537 9.86425 11.6293 9.75012 11.9166 9.75012ZM12.9999 1.08345C10.643 1.08345 8.33906 1.78235 6.37938 3.09177C4.41969 4.40119 2.8923 6.26232 1.99036 8.43981C1.08842 10.6173 0.852425 13.0133 1.31223 15.3249C1.77204 17.6366 2.90699 19.7599 4.57357 21.4265C6.24014 23.0931 8.36349 24.228 10.6751 24.6878C12.9867 25.1476 15.3827 24.9116 17.5602 24.0097C19.7377 23.1077 21.5989 21.5803 22.9083 19.6207C24.2177 17.661 24.9166 15.357 24.9166 13.0001C24.9166 9.83962 23.6611 6.80857 21.4263 4.57376C19.1915 2.33895 16.1604 1.08345 12.9999 1.08345ZM12.9999 22.7501C11.0716 22.7501 9.18649 22.1783 7.58311 21.1069C5.97973 20.0356 4.73005 18.5129 3.9921 16.7313C3.25414 14.9497 3.06106 12.9893 3.43727 11.098C3.81347 9.20667 4.74207 7.46939 6.10563 6.10583C7.46919 4.74226 9.20648 3.81367 11.0978 3.43746C12.9891 3.06125 14.9495 3.25434 16.7311 3.99229C18.5127 4.73025 20.0354 5.97993 21.1068 7.58331C22.1781 9.18669 22.7499 11.0717 22.7499 13.0001C22.7499 15.586 21.7227 18.0659 19.8942 19.8944C18.0657 21.7229 15.5858 22.7501 12.9999 22.7501Z" fill="#0033AD"/>
</svg>
