<svg width="24" height="25" viewBox="0 0 24 25" fill="none" xmlns="http://www.w3.org/2000/svg">
<path d="M15.71 12.7116C16.6904 11.9402 17.406 10.8825 17.7572 9.68553C18.1085 8.48855 18.0779 7.21185 17.6698 6.03306C17.2617 4.85426 16.4963 3.83198 15.4801 3.10845C14.4639 2.38491 13.2474 1.99609 12 1.99609C10.7525 1.99609 9.53611 2.38491 8.51993 3.10845C7.50374 3.83198 6.73834 4.85426 6.33021 6.03306C5.92208 7.21185 5.89151 8.48855 6.24276 9.68553C6.59401 10.8825 7.3096 11.9402 8.29 12.7116C6.61007 13.3846 5.14428 14.5009 4.04889 15.9415C2.95349 17.3821 2.26956 19.0929 2.07 20.8916C2.05555 21.0229 2.06711 21.1558 2.10402 21.2826C2.14093 21.4095 2.20246 21.5278 2.28511 21.6309C2.45202 21.8391 2.69478 21.9724 2.96 22.0016C3.22521 22.0308 3.49116 21.9534 3.69932 21.7865C3.90749 21.6196 4.04082 21.3768 4.07 21.1116C4.28958 19.1568 5.22168 17.3514 6.68822 16.0404C8.15475 14.7294 10.0529 14.0046 12.02 14.0046C13.9871 14.0046 15.8852 14.7294 17.3518 16.0404C18.8183 17.3514 19.7504 19.1568 19.97 21.1116C19.9972 21.3573 20.1144 21.5842 20.2991 21.7486C20.4838 21.913 20.7228 22.0031 20.97 22.0016H21.08C21.3421 21.9714 21.5817 21.8389 21.7466 21.6328C21.9114 21.4268 21.9881 21.164 21.96 20.9016C21.7595 19.0978 21.0719 17.3826 19.9708 15.9398C18.8698 14.497 17.3969 13.3811 15.71 12.7116ZM12 12.0016C11.2089 12.0016 10.4355 11.767 9.77772 11.3275C9.11992 10.8879 8.60723 10.2632 8.30448 9.53232C8.00173 8.80142 7.92251 7.99715 8.07686 7.22123C8.2312 6.4453 8.61216 5.73257 9.17157 5.17316C9.73098 4.61375 10.4437 4.23279 11.2196 4.07845C11.9956 3.92411 12.7998 4.00332 13.5307 4.30607C14.2616 4.60882 14.8863 5.12151 15.3259 5.77931C15.7654 6.43711 16 7.21046 16 8.00159C16 9.06246 15.5786 10.0799 14.8284 10.83C14.0783 11.5802 13.0609 12.0016 12 12.0016Z" fill="#434656"/>
</svg>
