<svg width="24" height="24" viewBox="0 0 24 24" fill="none" xmlns="http://www.w3.org/2000/svg">
<path d="M15.2783 12.3263C16.0167 11.5333 16.4327 10.4932 16.4449 9.40967C16.4449 8.24007 15.9803 7.11837 15.1533 6.29133C14.3262 5.4643 13.2045 4.99967 12.0349 4.99967C10.8653 4.99967 9.74361 5.4643 8.91658 6.29133C8.08954 7.11837 7.62492 8.24007 7.62492 9.40967C7.63709 10.4932 8.05311 11.5333 8.79159 12.3263C7.76335 12.8384 6.87851 13.5979 6.21665 14.5368C5.5548 15.4756 5.13668 16.5642 4.99992 17.7047C4.96588 18.0141 5.05616 18.3244 5.25088 18.5672C5.44561 18.8101 5.72883 18.9656 6.03825 18.9997C6.34767 19.0337 6.65794 18.9434 6.9008 18.7487C7.14366 18.554 7.29922 18.2708 7.33325 17.9613C7.47247 16.831 8.02024 15.7906 8.87335 15.0361C9.72647 14.2816 10.826 13.8652 11.9649 13.8652C13.1038 13.8652 14.2034 14.2816 15.0565 15.0361C15.9096 15.7906 16.4574 16.831 16.5966 17.9613C16.629 18.2605 16.7758 18.5355 17.0063 18.729C17.2367 18.9225 17.533 19.0195 17.8333 18.9997H17.9616C18.2674 18.9645 18.5469 18.8099 18.7392 18.5695C18.9315 18.3291 19.0211 18.0224 18.9883 17.7163C18.8616 16.5819 18.4567 15.4962 17.8095 14.5559C17.1622 13.6156 16.2927 12.8497 15.2783 12.3263ZM11.9999 11.4863C11.5892 11.4863 11.1877 11.3645 10.8462 11.1364C10.5047 10.9082 10.2385 10.5838 10.0813 10.2044C9.92415 9.82492 9.88303 9.40737 9.96315 9.00454C10.0433 8.6017 10.2411 8.23168 10.5315 7.94125C10.8219 7.65082 11.1919 7.45304 11.5948 7.37291C11.9976 7.29278 12.4152 7.33391 12.7946 7.49109C13.1741 7.64826 13.4984 7.91443 13.7266 8.25594C13.9548 8.59745 14.0766 8.99895 14.0766 9.40967C14.0766 9.96044 13.8578 10.4887 13.4683 10.8781C13.0789 11.2676 12.5507 11.4863 11.9999 11.4863ZM20.1666 0.333008H3.83325C2.90499 0.333008 2.01476 0.701757 1.35838 1.35813C0.702001 2.01451 0.333252 2.90475 0.333252 3.83301V20.1663C0.333252 21.0946 0.702001 21.9848 1.35838 22.6412C2.01476 23.2976 2.90499 23.6663 3.83325 23.6663H20.1666C21.0948 23.6663 21.9851 23.2976 22.6415 22.6412C23.2978 21.9848 23.6666 21.0946 23.6666 20.1663V3.83301C23.6666 2.90475 23.2978 2.01451 22.6415 1.35813C21.9851 0.701757 21.0948 0.333008 20.1666 0.333008ZM21.3333 20.1663C21.3333 20.4758 21.2103 20.7725 20.9915 20.9913C20.7728 21.2101 20.476 21.333 20.1666 21.333H3.83325C3.52383 21.333 3.22709 21.2101 3.00829 20.9913C2.7895 20.7725 2.66659 20.4758 2.66659 20.1663V3.83301C2.66659 3.52359 2.7895 3.22684 3.00829 3.00805C3.22709 2.78926 3.52383 2.66634 3.83325 2.66634H20.1666C20.476 2.66634 20.7728 2.78926 20.9915 3.00805C21.2103 3.22684 21.3333 3.52359 21.3333 3.83301V20.1663Z" fill="#434656"/>
</svg>
