<svg width="20" height="20" viewBox="0 0 20 20" fill="none" xmlns="http://www.w3.org/2000/svg">
<path d="M10.5002 7.99977C10.5002 6.34977 9.15023 4.99977 7.50023 4.99977C5.85023 4.99977 4.50023 6.34977 4.50023 7.99977C4.50023 9.64977 5.85023 10.9998 7.50023 10.9998C9.15023 10.9998 10.5002 9.64977 10.5002 7.99977ZM7.50023 8.99977C6.95023 8.99977 6.50023 8.54977 6.50023 7.99977C6.50023 7.44977 6.95023 6.99977 7.50023 6.99977C8.05023 6.99977 8.50023 7.44977 8.50023 7.99977C8.50023 8.54977 8.05023 8.99977 7.50023 8.99977ZM14.0002 10.9998C15.1102 10.9998 16.0002 10.1098 16.0002 8.99977C16.0002 7.88977 15.1102 6.99977 14.0002 6.99977C12.8902 6.99977 11.9902 7.88977 12.0002 8.99977C12.0002 10.1098 12.8902 10.9998 14.0002 10.9998ZM9.99023 0.00976562C4.47023 0.00976562 -0.00976562 4.48977 -0.00976562 10.0098C-0.00976562 15.5298 4.47023 20.0098 9.99023 20.0098C15.5102 20.0098 19.9902 15.5298 19.9902 10.0098C19.9902 4.48977 15.5102 0.00976562 9.99023 0.00976562ZM3.84023 15.1198C4.52023 14.5798 6.11023 14.0098 7.50023 14.0098C7.57023 14.0098 7.65023 14.0198 7.73023 14.0198C7.97023 13.3798 8.40023 12.7298 9.03023 12.1598C8.47023 12.0598 7.94023 11.9998 7.50023 11.9998C6.20023 11.9998 4.11023 12.4498 2.77023 13.4298C2.27023 12.3898 1.99023 11.2298 1.99023 9.99977C1.99023 5.58977 5.58023 1.99977 9.99023 1.99977C14.4002 1.99977 17.9902 5.58977 17.9902 9.99977C17.9902 11.1998 17.7202 12.3398 17.2402 13.3698C16.2402 12.7798 14.8802 12.4998 14.0002 12.4998C12.4802 12.4998 9.50023 13.3098 9.50023 15.1998V17.9798C7.23023 17.8498 5.21023 16.7698 3.84023 15.1198Z" fill="black" fill-opacity="0.54"/>
</svg>
