<svg width="15" height="15" viewBox="0 0 15 15" fill="none" xmlns="http://www.w3.org/2000/svg">
<path d="M5.31789 14.345L4.07739 12.2255L1.61203 11.7146L1.89532 9.32043L0.333496 7.49991L1.89532 5.69121L1.61203 3.29202L4.0817 2.78999L5.31465 0.654785L7.50275 1.66052L9.69086 0.654785L10.9375 2.78999L13.3879 3.29202L13.1046 5.69121L14.6664 7.49991L13.1046 9.32043L13.3879 11.7146L10.9381 12.2255L9.69086 14.345L7.49995 13.341L5.31789 14.345V14.345ZM5.86107 12.7309L7.49868 12.0316L9.18337 12.7309L10.2126 11.1949L12.0054 10.735L11.8267 8.9004L13.057 7.49916L11.8267 6.06649L12.0054 4.23361L10.2126 3.80494L9.15514 2.26894L7.50156 2.96729L5.81653 2.26894L4.78981 3.80707L3.00336 4.22965L3.17318 6.06649L1.94289 7.49991L3.17318 8.90208L3.00336 10.7703L4.78818 11.1928L5.86107 12.7309ZM6.82807 9.64869L10.4456 6.06241L9.663 5.35113L6.82807 8.16363L5.35253 6.60793L4.55429 7.39054L6.82807 9.64869Z" fill="#24262E"/>
</svg>
