<svg width="23" height="23" viewBox="0 0 23 23" fill="none" xmlns="http://www.w3.org/2000/svg">
<rect width="23" height="23" rx="11.5" fill="#0033AD"/>
<path d="M8.37497 12.072H14.625V10.8342H8.37497V12.072ZM11.5012 17.9708C10.6109 17.9708 9.77232 17.8021 8.98547 17.4646C8.19864 17.1272 7.51127 16.6645 6.92336 16.0766C6.33547 15.4887 5.87279 14.8017 5.53535 14.0157C5.1979 13.2297 5.02917 12.3915 5.02917 11.5012C5.02917 10.6005 5.1979 9.75672 5.53535 8.96988C5.87279 8.18304 6.33501 7.49813 6.92199 6.91513C7.50896 6.33213 8.19567 5.87059 8.98213 5.5305C9.76859 5.19042 10.6072 5.02038 11.498 5.02038C12.3992 5.02038 13.2436 5.19019 14.0311 5.52982C14.8187 5.86944 15.5037 6.33036 16.0863 6.91258C16.6688 7.4948 17.13 8.17945 17.4699 8.96652C17.8097 9.75359 17.9796 10.5981 17.9796 11.5C17.9796 12.3911 17.8096 13.2301 17.4695 14.0168C17.1294 14.8035 16.6678 15.4905 16.0848 16.0777C15.5018 16.6649 14.8173 17.1272 14.0313 17.4646C13.2453 17.8021 12.4019 17.9708 11.5012 17.9708ZM11.5 16.733C12.9556 16.733 14.1917 16.224 15.2082 15.206C16.2247 14.1879 16.733 12.9526 16.733 11.5C16.733 10.0444 16.2247 8.80832 15.2082 7.79178C14.1917 6.77525 12.9541 6.26699 11.4956 6.26699C10.0474 6.26699 8.81395 6.77525 7.79514 7.79178C6.77635 8.80832 6.26696 10.0459 6.26696 11.5044C6.26696 12.9526 6.77598 14.186 7.79402 15.2048C8.81206 16.2236 10.0474 16.733 11.5 16.733Z" fill="#F6F9FF"/>
</svg>
