<svg width="26" height="28" viewBox="0 0 26 28" fill="none" xmlns="http://www.w3.org/2000/svg">
<path d="M2.99997 27.7667C2.2776 27.7667 1.6569 27.5072 1.13788 26.9882C0.618875 26.4691 0.359375 25.8484 0.359375 25.1261V18.7333L5.25504 13.371L7.14057 15.2754L3.26374 19.5H22.755L19.0739 15.3377L20.9782 13.4333L25.6594 18.7333V25.1261C25.6594 25.8484 25.3981 26.4691 24.8754 26.9882C24.3527 27.5072 23.7275 27.7667 23 27.7667L2.99997 27.7667ZM2.99997 25.1261H23V21.5H2.99997V25.1261ZM11.2623 16.7333L6.28257 11.7159C5.73475 11.1555 5.47992 10.5263 5.51807 9.82823C5.55623 9.13014 5.8444 8.51202 6.38257 7.97386L13.1666 1.1898C13.6685 0.696197 14.2825 0.447677 15.0086 0.444232C15.7347 0.440788 16.3666 0.701876 16.9043 1.2275L21.884 6.24486C22.4 6.76082 22.6572 7.36783 22.6558 8.0659C22.6543 8.76399 22.3623 9.40434 21.7797 9.98696L15.0333 16.7333C14.5299 17.2367 13.9125 17.4995 13.1811 17.5217C12.4497 17.544 11.8101 17.2811 11.2623 16.7333ZM19.7318 7.97823L15.0145 3.29853L8.40144 9.9304L13.1 14.6101L19.7318 7.97823Z" fill="#6C6F89"/>
</svg>
