<svg width="23" height="23" viewBox="0 0 23 23" fill="none" xmlns="http://www.w3.org/2000/svg">
<rect width="23" height="23" rx="11.5" fill="#F6C667"/>
<path d="M11.4989 17.9708C10.604 17.9708 9.76356 17.8008 8.97745 17.4609C8.19136 17.121 7.50529 16.6581 6.91923 16.072C6.33318 15.486 5.87167 14.7995 5.5347 14.0126C5.19777 13.2257 5.0293 12.3822 5.0293 11.4823C5.0293 10.5942 5.19867 9.75713 5.53742 8.9711C5.87617 8.18508 6.33799 7.50008 6.92289 6.91609C7.50781 6.33211 8.19339 5.87016 8.97964 5.53025C9.7659 5.19033 10.6061 5.02037 11.5003 5.02037C12.3944 5.02037 13.2343 5.19016 14.0198 5.52975C14.8053 5.86934 15.4902 6.33084 16.0746 6.91426C16.659 7.49768 17.1226 8.18284 17.4654 8.96976C17.8083 9.75668 17.9797 10.5942 17.9797 11.4823C17.9797 12.3822 17.81 13.2261 17.4707 14.014C17.1314 14.8018 16.6687 15.4877 16.0828 16.0716C15.4969 16.6555 14.8101 17.118 14.0225 17.4591C13.2349 17.8002 12.3937 17.9708 11.4988 17.9708H11.4989ZM11.5001 16.733C12.9596 16.733 14.1966 16.2243 15.2112 15.2067C16.2258 14.1892 16.7331 12.9477 16.7331 11.4823C16.7331 10.891 16.6355 10.3177 16.4403 9.76237C16.2451 9.20703 15.9643 8.70155 15.5979 8.24593L8.25484 15.5802C8.69583 15.9684 9.19741 16.2576 9.75956 16.4478C10.3217 16.6379 10.9019 16.733 11.5001 16.733ZM7.41787 14.7276L14.7365 7.40014C14.2739 7.0267 13.768 6.74448 13.2188 6.55348C12.6695 6.36248 12.0967 6.26698 11.5001 6.26698C10.0406 6.26698 8.80351 6.77242 7.78894 7.78331C6.77435 8.79418 6.26706 10.0272 6.26706 11.4823C6.26706 12.0826 6.37071 12.6604 6.57802 13.216C6.78532 13.7715 7.06527 14.2754 7.41787 14.7276Z" fill="#24262E"/>
</svg>
