<svg width="17" height="19" viewBox="0 0 17 19" xmlns="http://www.w3.org/2000/svg">
<path d="M1.93748 18.5344C1.46342 18.5344 1.05609 18.3641 0.715481 18.0235C0.374887 17.6829 0.20459 17.2755 0.20459 16.8015V12.6062L3.41737 9.08722L4.65475 10.337L2.11058 13.1094H14.9017L12.486 10.3778L13.7357 9.1281L16.8078 12.6062V16.8015C16.8078 17.2755 16.6362 17.6829 16.2932 18.0235C15.9502 18.3641 15.5399 18.5344 15.0625 18.5344L1.93748 18.5344ZM1.93748 16.8015H15.0625V14.4219H1.93748V16.8015ZM7.35962 11.2937L4.09169 8.00108C3.73218 7.63332 3.56495 7.22038 3.58999 6.76227C3.61503 6.30415 3.80414 5.89851 4.15731 5.54535L8.60934 1.0933C8.93873 0.769378 9.34167 0.606286 9.81815 0.604026C10.2946 0.601766 10.7093 0.773105 11.0622 1.11804L14.3302 4.41069C14.6687 4.74929 14.8376 5.14764 14.8366 5.60574C14.8357 6.06386 14.644 6.4841 14.2617 6.86644L9.83438 11.2937C9.50402 11.6241 9.09886 11.7966 8.61887 11.8111C8.13888 11.8257 7.71913 11.6532 7.35962 11.2937ZM12.9178 5.54821L9.822 2.47716L5.4822 6.82932L8.56561 9.90038L12.9178 5.54821Z"/>
</svg>
