<svg width="23" height="23" viewBox="0 0 23 23" fill="none" xmlns="http://www.w3.org/2000/svg">
<rect width="23" height="23" rx="11.5" fill="#1EC198"/>
<path d="M10.5604 14.4762L15.0795 9.9572L14.1841 9.0686L10.5604 12.6922L8.76492 10.8967L7.88516 11.7853L10.5604 14.4762ZM11.5012 17.9708C10.6109 17.9708 9.77232 17.8021 8.98547 17.4646C8.19864 17.1272 7.51127 16.6645 6.92336 16.0766C6.33547 15.4887 5.87279 14.8017 5.53535 14.0157C5.1979 13.2297 5.02917 12.3915 5.02917 11.5012C5.02917 10.6005 5.1979 9.75671 5.53535 8.96987C5.87279 8.18304 6.33501 7.49812 6.92199 6.91512C7.50896 6.33212 8.19567 5.87058 8.98213 5.5305C9.76859 5.19041 10.6072 5.02037 11.498 5.02037C12.3992 5.02037 13.2436 5.19018 14.0311 5.52981C14.8187 5.86943 15.5037 6.33036 16.0863 6.91257C16.6688 7.49479 17.13 8.17944 17.4699 8.96651C17.8097 9.75358 17.9796 10.5981 17.9796 11.5C17.9796 12.3911 17.8096 13.23 17.4695 14.0168C17.1294 14.8035 16.6678 15.4905 16.0848 16.0777C15.5018 16.6649 14.8173 17.1272 14.0313 17.4646C13.2453 17.8021 12.4019 17.9708 11.5012 17.9708ZM11.5 16.733C12.9556 16.733 14.1917 16.224 15.2082 15.2059C16.2247 14.1879 16.733 12.9526 16.733 11.5C16.733 10.0444 16.2247 8.80831 15.2082 7.79178C14.1917 6.77525 12.9541 6.26698 11.4956 6.26698C10.0474 6.26698 8.81395 6.77525 7.79514 7.79178C6.77635 8.80831 6.26696 10.0459 6.26696 11.5044C6.26696 12.9526 6.77598 14.186 7.79402 15.2048C8.81206 16.2236 10.0474 16.733 11.5 16.733Z" fill="#24262E"/>
</svg>
