<svg width="25" height="25" viewBox="0 0 25 25" fill="none" xmlns="http://www.w3.org/2000/svg">
<path d="M3.82922 6.5V18.5C3.82922 18.8978 3.98726 19.2794 4.26856 19.5607C4.54987 19.842 4.9314 20 5.32922 20H20.3292C20.5281 20 20.7189 19.921 20.8596 19.7803C21.0002 19.6397 21.0792 19.4489 21.0792 19.25V8.75C21.0792 8.55109 21.0002 8.36032 20.8596 8.21967C20.7189 8.07902 20.5281 8 20.3292 8H5.32922C4.9314 8 4.54987 7.84196 4.26856 7.56066C3.98726 7.27936 3.82922 6.89782 3.82922 6.5ZM3.82922 6.5C3.82922 6.10218 3.98726 5.72064 4.26856 5.43934C4.54987 5.15804 4.9314 5 5.32922 5H17.3292" stroke-width="2" stroke-linecap="round" stroke-linejoin="round"/>
<path d="M17.0792 14C17.0792 14.069 17.0233 14.125 16.9542 14.125C16.8852 14.125 16.8292 14.069 16.8292 14C16.8292 13.931 16.8852 13.875 16.9542 13.875C17.0233 13.875 17.0792 13.931 17.0792 14Z" fill="white" stroke-width="2"/>
</svg>
