<svg width="23" height="23" viewBox="0 0 23 23" fill="none" xmlns="http://www.w3.org/2000/svg">
<path d="M3.59375 5.75V17.25C3.59375 17.6312 3.7452 17.9969 4.01478 18.2665C4.28437 18.536 4.65 18.6875 5.03125 18.6875H19.4062C19.5969 18.6875 19.7797 18.6118 19.9145 18.477C20.0493 18.3422 20.125 18.1594 20.125 17.9688V7.90625C20.125 7.71563 20.0493 7.53281 19.9145 7.39802C19.7797 7.26323 19.5969 7.1875 19.4062 7.1875H5.03125C4.65 7.1875 4.28437 7.03605 4.01478 6.76647C3.7452 6.49688 3.59375 6.13125 3.59375 5.75ZM3.59375 5.75C3.59375 5.36875 3.7452 5.00312 4.01478 4.73353C4.28437 4.46395 4.65 4.3125 5.03125 4.3125H16.5312" stroke-width="2" stroke-linecap="round" stroke-linejoin="round"/>
<path d="M16.25 12.9375C16.25 12.9806 16.215 13.0156 16.1719 13.0156C16.1287 13.0156 16.0938 12.9806 16.0938 12.9375C16.0938 12.8944 16.1287 12.8594 16.1719 12.8594C16.215 12.8594 16.25 12.8944 16.25 12.9375Z" fill="#438F68" stroke="#438F68" stroke-width="2"/>
</svg>
