<svg width="44" height="44" viewBox="0 0 44 44" fill="none" xmlns="http://www.w3.org/2000/svg">
<circle cx="22" cy="22" r="22" fill="#D6E2FF"/>
<path d="M25.9417 23.4667C26.3236 23.4667 26.6636 23.3177 26.9615 23.0198C27.2594 22.7219 27.4084 22.3743 27.4084 21.9771C27.4084 21.5951 27.2594 21.259 26.9615 20.9687C26.6636 20.6785 26.3236 20.5333 25.9417 20.5333C25.5598 20.5333 25.2198 20.6785 24.9219 20.9687C24.624 21.259 24.475 21.5951 24.475 21.9771C24.475 22.3743 24.624 22.7219 24.9219 23.0198C25.2198 23.3177 25.5598 23.4667 25.9417 23.4667ZM15.2396 27.5458V28.7604V15.2396V27.5458ZM15.2396 30.5708C14.766 30.5708 14.3459 30.3913 13.9792 30.0323C13.6125 29.6733 13.4292 29.2493 13.4292 28.7604V15.2396C13.4292 14.7507 13.6125 14.3229 13.9792 13.9562C14.3459 13.5896 14.766 13.4062 15.2396 13.4062H28.7605C29.2646 13.4062 29.6962 13.5896 30.0552 13.9562C30.4143 14.3229 30.5938 14.7507 30.5938 15.2396V18.1958H28.7605V15.2396H15.2396V28.7604H28.7605V25.8271H30.5938V28.7604C30.5938 29.2493 30.4143 29.6733 30.0552 30.0323C29.6962 30.3913 29.2646 30.5708 28.7605 30.5708H15.2396ZM23.3521 26.2854C22.8479 26.2854 22.4354 26.1288 22.1146 25.8156C21.7938 25.5024 21.6334 25.1014 21.6334 24.6125V19.4333C21.6334 18.9292 21.7938 18.5205 22.1146 18.2073C22.4354 17.8941 22.8479 17.7375 23.3521 17.7375H29.8375C30.357 17.7375 30.7733 17.8941 31.0865 18.2073C31.3997 18.5205 31.5563 18.9292 31.5563 19.4333V24.6125C31.5563 25.1014 31.3997 25.5024 31.0865 25.8156C30.7733 26.1288 30.357 26.2854 29.8375 26.2854H23.3521ZM30.1813 24.9104V19.1125H23.0084V24.9104H30.1813Z" fill="#0033AD"/>
</svg>
