<svg width="17" height="17" viewBox="0 0 17 17" fill="none" xmlns="http://www.w3.org/2000/svg">
  <path
    d="M3.63281 4.25V12.75C3.63281 13.0318 3.74475 13.302 3.94401 13.5013C4.14327 13.7006 4.41352 13.8125 4.69531 13.8125H15.3203C15.4612 13.8125 15.5963 13.7565 15.696 13.6569C15.7956 13.5573 15.8516 13.4221 15.8516 13.2812V5.84375C15.8516 5.70285 15.7956 5.56773 15.696 5.4681C15.5963 5.36847 15.4612 5.3125 15.3203 5.3125H4.69531C4.41352 5.3125 4.14327 5.20056 3.94401 5.0013C3.74475 4.80204 3.63281 4.53179 3.63281 4.25ZM3.63281 4.25C3.63281 3.96821 3.74475 3.69796 3.94401 3.4987C4.14327 3.29944 4.41352 3.1875 4.69531 3.1875H13.1953"
    stroke="currentColor" stroke-width="1.2" stroke-linecap="round" stroke-linejoin="round" />
  <path
    d="M12.7266 9.5625C12.7266 9.45032 12.8175 9.35938 12.9297 9.35938C13.0419 9.35938 13.1328 9.45032 13.1328 9.5625C13.1328 9.67468 13.0419 9.76562 12.9297 9.76562C12.8175 9.76562 12.7266 9.67468 12.7266 9.5625Z"
    fill="#0033AD" stroke="currentColor" stroke-width="2" />
</svg>