<svg width="24" height="24" viewBox="0 0 24 24" fill="none" xmlns="http://www.w3.org/2000/svg">
<circle cx="12" cy="12" r="12" fill="#434656"/>
<path d="M11.4501 15.4333H12.6501V11.3333H11.4501V15.4333ZM12.0001 10.2333C12.2001 10.2333 12.364 10.1694 12.4918 10.0417C12.6195 9.91389 12.6834 9.75556 12.6834 9.56667C12.6834 9.35556 12.6195 9.18611 12.4918 9.05834C12.364 8.93056 12.2001 8.86667 12.0001 8.86667C11.8001 8.86667 11.6362 8.93056 11.5084 9.05834C11.3807 9.18611 11.3168 9.35556 11.3168 9.56667C11.3168 9.75556 11.3807 9.91389 11.5084 10.0417C11.6362 10.1694 11.8001 10.2333 12.0001 10.2333ZM12.0001 18.9C11.0445 18.9 10.1501 18.7194 9.31676 18.3583C8.48343 17.9972 7.75288 17.5028 7.1251 16.875C6.49732 16.2472 6.00288 15.5167 5.64176 14.6833C5.28065 13.85 5.1001 12.9556 5.1001 12C5.1001 11.0333 5.28065 10.1333 5.64176 9.3C6.00288 8.46667 6.49454 7.73889 7.11676 7.11667C7.73899 6.49445 8.46954 6 9.30843 5.63334C10.1473 5.26667 11.0445 5.08334 12.0001 5.08334C12.9668 5.08334 13.8695 5.26667 14.7084 5.63334C15.5473 6 16.2751 6.49167 16.8918 7.10834C17.5084 7.725 18.0001 8.45278 18.3668 9.29167C18.7334 10.1306 18.9168 11.0333 18.9168 12C18.9168 12.9556 18.7334 13.8528 18.3668 14.6917C18.0001 15.5306 17.5057 16.2611 16.8834 16.8833C16.2612 17.5056 15.5334 17.9972 14.7001 18.3583C13.8668 18.7194 12.9668 18.9 12.0001 18.9ZM12.0168 17.5833C13.5612 17.5833 14.8751 17.0389 15.9584 15.95C17.0418 14.8611 17.5834 13.5389 17.5834 11.9833C17.5834 10.4389 17.0418 9.125 15.9584 8.04167C14.8751 6.95834 13.5557 6.41667 12.0001 6.41667C10.4557 6.41667 9.13899 6.95834 8.0501 8.04167C6.96121 9.125 6.41676 10.4444 6.41676 12C6.41676 13.5444 6.96121 14.8611 8.0501 15.95C9.13899 17.0389 10.4612 17.5833 12.0168 17.5833Z" fill="#D6E2FF"/>
</svg>
