<svg width="24" height="25" viewBox="0 0 24 25" fill="none" xmlns="http://www.w3.org/2000/svg">
<path d="M12 2.5C10.0222 2.5 8.08879 3.08649 6.4443 4.1853C4.79981 5.28412 3.51809 6.8459 2.76121 8.67317C2.00433 10.5004 1.8063 12.5111 2.19215 14.4509C2.578 16.3907 3.53041 18.1725 4.92894 19.5711C6.32746 20.9696 8.10929 21.922 10.0491 22.3079C11.9889 22.6937 13.9996 22.4957 15.8268 21.7388C17.6541 20.9819 19.2159 19.7002 20.3147 18.0557C21.4135 16.4112 22 14.4778 22 12.5C22 11.1868 21.7413 9.88642 21.2388 8.67317C20.7363 7.45991 19.9997 6.35752 19.0711 5.42893C18.1425 4.50035 17.0401 3.76375 15.8268 3.2612C14.6136 2.75866 13.3132 2.5 12 2.5Z" fill="#F6C667"/>
<path d="M11.2929 7.79289C11.4804 7.60536 11.7348 7.5 12 7.5C12.2652 7.5 12.5196 7.60536 12.7071 7.79289C12.8947 7.98043 13 8.23478 13 8.5V12.5C13 12.7652 12.8947 13.0196 12.7071 13.2071C12.5196 13.3946 12.2652 13.5 12 13.5C11.7348 13.5 11.4804 13.3946 11.2929 13.2071C11.1054 13.0196 11 12.7652 11 12.5V8.5C11 8.23478 11.1054 7.98043 11.2929 7.79289Z" fill="#24262E"/>
<path d="M12.83 15.94C12.8679 15.9957 12.8981 16.0563 12.92 16.12C12.9558 16.1755 12.9828 16.2362 13 16.3C13.0049 16.3666 13.0049 16.4334 13 16.5C12.9984 16.6307 12.9713 16.7598 12.92 16.88C12.8751 17.0041 12.8035 17.1168 12.7101 17.2101C12.6168 17.3034 12.5041 17.3751 12.38 17.42C12.2603 17.4729 12.1309 17.5002 12 17.5002C11.8691 17.5002 11.7397 17.4729 11.62 17.42C11.4959 17.3751 11.3832 17.3034 11.2899 17.2101C11.1966 17.1168 11.1249 17.0041 11.08 16.88C11.0288 16.7598 11.0016 16.6307 11 16.5C10.9993 16.3684 11.0245 16.2379 11.0742 16.1161C11.124 15.9943 11.1973 15.8834 11.29 15.79C11.3872 15.7017 11.4988 15.6306 11.62 15.58C11.8021 15.5034 12.0028 15.4825 12.1968 15.5199C12.3908 15.5572 12.5694 15.6512 12.71 15.79L12.83 15.94Z" fill="#24262E"/>
</svg>
