<svg xmlns="http://www.w3.org/2000/svg" width="24" height="24" viewBox="0 0 24 24" fill="none">
    <path d="M12 2C10.0222 2 8.08879 2.58649 6.4443 3.6853C4.79981 4.78412 3.51809 6.3459 2.76121 8.17317C2.00433 10.0004 1.8063 12.0111 2.19215 13.9509C2.578 15.8907 3.53041 17.6725 4.92894 19.0711C6.32746 20.4696 8.10929 21.422 10.0491 21.8079C11.9889 22.1937 13.9996 21.9957 15.8268 21.2388C17.6541 20.4819 19.2159 19.2002 20.3147 17.5557C21.4135 15.9112 22 13.9778 22 12C22 10.6868 21.7413 9.38642 21.2388 8.17317C20.7363 6.95991 19.9997 5.85752 19.0711 4.92893C18.1425 4.00035 17.0401 3.26375 15.8268 2.7612C14.6136 2.25866 13.3132 2 12 2Z" fill="#F6C667"/>
    <path d="M11.2929 7.29289C11.4804 7.10536 11.7348 7 12 7C12.2652 7 12.5196 7.10536 12.7071 7.29289C12.8947 7.48043 13 7.73478 13 8V12C13 12.2652 12.8947 12.5196 12.7071 12.7071C12.5196 12.8946 12.2652 13 12 13C11.7348 13 11.4804 12.8946 11.2929 12.7071C11.1054 12.5196 11 12.2652 11 12V8C11 7.73478 11.1054 7.48043 11.2929 7.29289Z" fill="#24262E"/>
    <path d="M12.83 15.44C12.8679 15.4957 12.8981 15.5563 12.92 15.62C12.9558 15.6755 12.9828 15.7362 13 15.8C13.0049 15.8666 13.0049 15.9334 13 16C12.9984 16.1307 12.9713 16.2598 12.92 16.38C12.8751 16.5041 12.8035 16.6168 12.7101 16.7101C12.6168 16.8034 12.5041 16.8751 12.38 16.92C12.2603 16.9729 12.1309 17.0002 12 17.0002C11.8691 17.0002 11.7397 16.9729 11.62 16.92C11.4959 16.8751 11.3832 16.8034 11.2899 16.7101C11.1966 16.6168 11.1249 16.5041 11.08 16.38C11.0288 16.2598 11.0016 16.1307 11 16C10.9993 15.8684 11.0245 15.7379 11.0742 15.6161C11.124 15.4943 11.1973 15.3834 11.29 15.29C11.3872 15.2017 11.4988 15.1306 11.62 15.08C11.8021 15.0034 12.0028 14.9825 12.1968 15.0199C12.3908 15.0572 12.5694 15.1512 12.71 15.29L12.83 15.44Z" fill="#24262E"/>
</svg>