<svg width="40" height="41" viewBox="0 0 40 41" fill="none" xmlns="http://www.w3.org/2000/svg">
<path d="M20 0.25C8.96 0.25 0 9.21 0 20.25C0 31.29 8.96 40.25 20 40.25C31.04 40.25 40 31.29 40 20.25C40 9.21 31.04 0.25 20 0.25ZM12 31.25C9.24 31.25 7 29.01 7 26.25C7 23.49 9.24 21.25 12 21.25C14.76 21.25 17 23.49 17 26.25C17 29.01 14.76 31.25 12 31.25ZM15 12.25C15 9.49 17.24 7.25 20 7.25C22.76 7.25 25 9.49 25 12.25C25 15.01 22.76 17.25 20 17.25C17.24 17.25 15 15.01 15 12.25ZM28 31.25C25.24 31.25 23 29.01 23 26.25C23 23.49 25.24 21.25 28 21.25C30.76 21.25 33 23.49 33 26.25C33 29.01 30.76 31.25 28 31.25Z" fill="#F7F9FF"/>
</svg>
