<svg width="20" height="19" viewBox="0 0 20 19" fill="none" xmlns="http://www.w3.org/2000/svg">
<path d="M16.2343 16.9219L10.9698 11.6573C10.5871 11.974 10.1319 12.2246 9.60413 12.4094C9.07636 12.5941 8.51559 12.6865 7.92184 12.6865C6.43087 12.6865 5.1741 12.1719 4.15153 11.1427C3.12896 10.1135 2.61768 8.87326 2.61768 7.42187C2.61768 5.97048 3.13226 4.7302 4.16143 3.70104C5.19059 2.67187 6.43087 2.15729 7.88226 2.15729C9.34684 2.15729 10.5871 2.67187 11.6031 3.70104C12.6191 4.7302 13.1271 5.97048 13.1271 7.42187C13.1271 8.00243 13.0413 8.55 12.8698 9.06458C12.6982 9.57916 12.4409 10.0674 12.0979 10.5292L17.3823 15.774L16.2343 16.9219ZM7.90205 11.1031C8.91802 11.1031 9.78226 10.7436 10.4948 10.0245C11.2073 9.30538 11.5635 8.43784 11.5635 7.42187C11.5635 6.4059 11.2073 5.53836 10.4948 4.81927C9.78226 4.10017 8.91802 3.74062 7.90205 3.74062C6.85969 3.74062 5.97896 4.10017 5.25986 4.81927C4.54077 5.53836 4.18122 6.4059 4.18122 7.42187C4.18122 8.43784 4.54077 9.30538 5.25986 10.0245C5.97896 10.7436 6.85969 11.1031 7.90205 11.1031Z" fill="#F6F9FF"/>
</svg>
