<svg width="19" height="21" viewBox="0 0 19 21" xmlns="http://www.w3.org/2000/svg">
<path d="M11.4167 11.4587C11.4167 11.2045 11.3157 10.9607 11.136 10.781C10.9563 10.6013 10.7125 10.5003 10.4583 10.5003H5.66667C5.4125 10.5003 5.16875 10.6013 4.98902 10.781C4.8093 10.9607 4.70833 11.2045 4.70833 11.4587C4.70833 11.7128 4.8093 11.9566 4.98902 12.1363C5.16875 12.316 5.4125 12.417 5.66667 12.417H10.4583C10.7125 12.417 10.9563 12.316 11.136 12.1363C11.3157 11.9566 11.4167 11.7128 11.4167 11.4587ZM8.54167 18.167H3.75C3.49583 18.167 3.25208 18.066 3.07236 17.8863C2.89263 17.7066 2.79167 17.4628 2.79167 17.2087V3.79199C2.79167 3.53783 2.89263 3.29407 3.07236 3.11435C3.25208 2.93463 3.49583 2.83366 3.75 2.83366H8.54167V5.70866C8.54167 6.47116 8.84457 7.20242 9.38373 7.74159C9.9229 8.28076 10.6542 8.58366 11.4167 8.58366H14.2917V9.54199C14.2917 9.79616 14.3926 10.0399 14.5724 10.2196C14.7521 10.3994 14.9958 10.5003 15.25 10.5003C15.5042 10.5003 15.7479 10.3994 15.9276 10.2196C16.1074 10.0399 16.2083 9.79616 16.2083 9.54199V7.62533C16.2083 7.62533 16.2083 7.62533 16.2083 7.56782C16.1994 7.47962 16.1801 7.39277 16.1508 7.30908V7.22283C16.1073 7.12289 16.0455 7.03191 15.9688 6.95449L10.2188 1.20449C10.1395 1.12995 10.049 1.06849 9.95042 1.02241H9.86417C9.76993 0.967308 9.6657 0.931476 9.5575 0.916992H3.75C2.9875 0.916992 2.25624 1.21989 1.71707 1.75906C1.1779 2.29823 0.875 3.02949 0.875 3.79199V17.2087C0.875 17.9712 1.1779 18.7024 1.71707 19.2416C2.25624 19.7808 2.9875 20.0837 3.75 20.0837H8.54167C8.79583 20.0837 9.03959 19.9827 9.21931 19.803C9.39903 19.6232 9.5 19.3795 9.5 19.1253C9.5 18.8712 9.39903 18.6274 9.21931 18.4477C9.03959 18.268 8.79583 18.167 8.54167 18.167ZM10.4583 4.18491L12.9404 6.66699H11.4167C11.1625 6.66699 10.9187 6.56602 10.739 6.3863C10.5593 6.20658 10.4583 5.96282 10.4583 5.70866V4.18491ZM17.1667 12.417C16.9813 12.4182 16.8002 12.4732 16.6454 12.5752C16.4906 12.6773 16.3687 12.8221 16.2946 12.992C15.6914 12.6222 14.9991 12.4235 14.2917 12.417C13.6712 12.4161 13.0598 12.5658 12.5099 12.8533C11.9601 13.1408 11.4883 13.5575 11.135 14.0676C10.7817 14.5776 10.5574 15.1658 10.4816 15.7816C10.4057 16.3975 10.4805 17.0225 10.6994 17.603C10.9184 18.1836 11.275 18.7023 11.7386 19.1147C12.2022 19.527 12.759 19.8207 13.3612 19.9704C13.9633 20.1201 14.5928 20.1214 15.1955 19.9742C15.7983 19.827 16.3563 19.5357 16.8217 19.1253C17.0136 18.9576 17.131 18.7205 17.148 18.4662C17.1651 18.2119 17.0805 17.9612 16.9127 17.7693C16.745 17.5774 16.5078 17.46 16.2535 17.4429C15.9992 17.4258 15.7486 17.5105 15.5567 17.6782C15.2087 17.9899 14.7588 18.1637 14.2917 18.167C14.0005 18.1623 13.7143 18.0913 13.4546 17.9595C13.195 17.8276 12.9688 17.6383 12.7933 17.406C12.6178 17.1737 12.4975 16.9044 12.4415 16.6186C12.3856 16.3328 12.3956 16.0381 12.4706 15.7567C12.5456 15.4754 12.6838 15.2148 12.8746 14.9948C13.0653 14.7748 13.3037 14.6012 13.5717 14.4871C13.8396 14.373 14.13 14.3215 14.4208 14.3364C14.7116 14.3513 14.9952 14.4323 15.25 14.5732H15.0392C14.785 14.5732 14.5412 14.6742 14.3615 14.8539C14.1818 15.0337 14.0808 15.2774 14.0808 15.5316C14.0808 15.7857 14.1818 16.0295 14.3615 16.2092C14.5412 16.3889 14.785 16.4899 15.0392 16.4899H17.1667C17.4208 16.4899 17.6646 16.3889 17.8443 16.2092C18.024 16.0295 18.125 15.7857 18.125 15.5316V13.3753C18.125 13.1212 18.024 12.8774 17.8443 12.6977C17.6646 12.518 17.4208 12.417 17.1667 12.417ZM5.66667 8.58366H6.625C6.87917 8.58366 7.12292 8.48269 7.30264 8.30297C7.48237 8.12325 7.58333 7.87949 7.58333 7.62533C7.58333 7.37116 7.48237 7.1274 7.30264 6.94768C7.12292 6.76796 6.87917 6.66699 6.625 6.66699H5.66667C5.4125 6.66699 5.16875 6.76796 4.98902 6.94768C4.8093 7.1274 4.70833 7.37116 4.70833 7.62533C4.70833 7.87949 4.8093 8.12325 4.98902 8.30297C5.16875 8.48269 5.4125 8.58366 5.66667 8.58366ZM5.66667 14.3337C5.4125 14.3337 5.16875 14.4346 4.98902 14.6143C4.8093 14.7941 4.70833 15.0378 4.70833 15.292C4.70833 15.5462 4.8093 15.7899 4.98902 15.9696C5.16875 16.1494 5.4125 16.2503 5.66667 16.2503H7.58333C7.8375 16.2503 8.08125 16.1494 8.26098 15.9696C8.4407 15.7899 8.54167 15.5462 8.54167 15.292C8.54167 15.0378 8.4407 14.7941 8.26098 14.6143C8.08125 14.4346 7.8375 14.3337 7.58333 14.3337H5.66667Z"/>
</svg>
