<svg width="23" height="23" viewBox="0 0 23 23" fill="none" xmlns="http://www.w3.org/2000/svg">
<path d="M14.6526 15.6113L12.458 17.8154V6.70835C12.458 6.45419 12.357 6.21043 12.1773 6.03071C11.9976 5.85099 11.7538 5.75002 11.4997 5.75002C11.2455 5.75002 11.0018 5.85099 10.822 6.03071C10.6423 6.21043 10.5413 6.45419 10.5413 6.70835V17.8154L8.34676 15.6113C8.1663 15.4308 7.92155 15.3294 7.66634 15.3294C7.41114 15.3294 7.16638 15.4308 6.98592 15.6113C6.80547 15.7917 6.70409 16.0365 6.70409 16.2917C6.70409 16.5469 6.80547 16.7916 6.98592 16.9721L10.8193 20.8054C10.9104 20.8927 11.0179 20.9611 11.1355 21.0067C11.2502 21.0574 11.3743 21.0836 11.4997 21.0836C11.6251 21.0836 11.7491 21.0574 11.8638 21.0067C11.9815 20.9611 12.0889 20.8927 12.1801 20.8054L16.0134 16.9721C16.1939 16.7916 16.2953 16.5469 16.2953 16.2917C16.2953 16.0365 16.1939 15.7917 16.0134 15.6113C15.9241 15.5219 15.818 15.451 15.7012 15.4027C15.5845 15.3543 15.4594 15.3294 15.333 15.3294C15.0778 15.3294 14.833 15.4308 14.6526 15.6113V15.6113ZM18.208 1.91669H4.79134C4.53718 1.91669 4.29342 2.01765 4.1137 2.19738C3.93397 2.3771 3.83301 2.62085 3.83301 2.87502C3.83301 3.12919 3.93397 3.37294 4.1137 3.55266C4.29342 3.73239 4.53718 3.83335 4.79134 3.83335H18.208C18.4622 3.83335 18.7059 3.73239 18.8857 3.55266C19.0654 3.37294 19.1663 3.12919 19.1663 2.87502C19.1663 2.62085 19.0654 2.3771 18.8857 2.19738C18.7059 2.01765 18.4622 1.91669 18.208 1.91669V1.91669Z" fill="#434656"/>
</svg>
